G04*
G04 #@! TF.GenerationSoftware,Altium Limited,Altium Designer,18.1.7 (191)*
G04*
G04 Layer_Color=8388736*
%FSLAX25Y25*%
%MOIN*%
G70*
G01*
G75*
%ADD36R,0.08674X0.04737*%
%ADD37O,0.08674X0.04737*%
%ADD38R,0.05328X0.06509*%
%ADD39R,0.08280X0.06115*%
%ADD40O,0.10839X0.02375*%
%ADD41R,0.06509X0.05328*%
%ADD42R,0.06706X0.05721*%
%ADD43R,0.03950X0.03162*%
%ADD44R,0.05721X0.06706*%
%ADD45R,0.06115X0.08280*%
%ADD46R,0.04698X0.06272*%
%ADD47R,0.04737X0.07493*%
%ADD48R,0.13595X0.07493*%
%ADD49R,0.04402X0.05603*%
%ADD50R,0.03937X0.03937*%
%ADD51R,0.04343X0.08674*%
%ADD52R,0.08674X0.04343*%
G04:AMPARAMS|DCode=53|XSize=25.72mil|YSize=70.99mil|CornerRadius=5.95mil|HoleSize=0mil|Usage=FLASHONLY|Rotation=270.000|XOffset=0mil|YOffset=0mil|HoleType=Round|Shape=RoundedRectangle|*
%AMROUNDEDRECTD53*
21,1,0.02572,0.05909,0,0,270.0*
21,1,0.01382,0.07099,0,0,270.0*
1,1,0.01190,-0.02955,-0.00691*
1,1,0.01190,-0.02955,0.00691*
1,1,0.01190,0.02955,0.00691*
1,1,0.01190,0.02955,-0.00691*
%
%ADD53ROUNDEDRECTD53*%
%ADD54R,0.15800X0.15800*%
%ADD55C,0.05918*%
%ADD56R,0.05918X0.05918*%
%ADD57R,0.06115X0.06115*%
%ADD58C,0.06115*%
%ADD59C,0.11627*%
%ADD60C,0.24422*%
%ADD61C,0.03162*%
D36*
X98819Y-105787D02*
D03*
Y-183622D02*
D03*
D37*
Y-100787D02*
D03*
Y-95787D02*
D03*
Y-90787D02*
D03*
Y-85787D02*
D03*
Y-80787D02*
D03*
Y-75787D02*
D03*
Y-70787D02*
D03*
Y-65787D02*
D03*
Y-60787D02*
D03*
X62205Y-105787D02*
D03*
Y-100787D02*
D03*
Y-95787D02*
D03*
Y-90787D02*
D03*
Y-85787D02*
D03*
Y-80787D02*
D03*
Y-75787D02*
D03*
Y-70787D02*
D03*
Y-65787D02*
D03*
Y-60787D02*
D03*
X98819Y-178622D02*
D03*
Y-173622D02*
D03*
Y-168622D02*
D03*
Y-163622D02*
D03*
Y-158622D02*
D03*
Y-153622D02*
D03*
Y-148622D02*
D03*
Y-143622D02*
D03*
Y-138622D02*
D03*
X62205Y-183622D02*
D03*
Y-178622D02*
D03*
Y-173622D02*
D03*
Y-168622D02*
D03*
Y-163622D02*
D03*
Y-158622D02*
D03*
Y-153622D02*
D03*
Y-148622D02*
D03*
Y-143622D02*
D03*
Y-138622D02*
D03*
D38*
X67913Y-192913D02*
D03*
X60827D02*
D03*
X67913Y-201772D02*
D03*
X60827D02*
D03*
X237992Y-177657D02*
D03*
X245079D02*
D03*
X237992Y-169783D02*
D03*
X245079D02*
D03*
X237992Y-186516D02*
D03*
X245079D02*
D03*
X67913Y-125000D02*
D03*
X60827D02*
D03*
X67913Y-115748D02*
D03*
X60827D02*
D03*
D39*
X78150Y-193504D02*
D03*
Y-206102D02*
D03*
X239173Y-69488D02*
D03*
Y-82087D02*
D03*
X226772Y-69488D02*
D03*
Y-82087D02*
D03*
X213976Y-69488D02*
D03*
Y-82087D02*
D03*
X201181Y-69488D02*
D03*
Y-82087D02*
D03*
X78150Y-115748D02*
D03*
Y-128346D02*
D03*
X238189Y-150251D02*
D03*
Y-137653D02*
D03*
D40*
X173327Y-25482D02*
D03*
Y-22982D02*
D03*
Y-20482D02*
D03*
Y-17982D02*
D03*
Y-15482D02*
D03*
Y-12982D02*
D03*
Y-10482D02*
D03*
Y-7982D02*
D03*
X154232Y-25482D02*
D03*
Y-22982D02*
D03*
Y-20482D02*
D03*
Y-17982D02*
D03*
Y-15482D02*
D03*
Y-12982D02*
D03*
Y-10482D02*
D03*
Y-7982D02*
D03*
D41*
X141142Y-11220D02*
D03*
Y-18307D02*
D03*
X132283Y-11220D02*
D03*
Y-18307D02*
D03*
X194882Y-20276D02*
D03*
Y-13189D02*
D03*
X186024Y-20276D02*
D03*
Y-13189D02*
D03*
X129331Y-112598D02*
D03*
Y-119685D02*
D03*
X138189Y-112598D02*
D03*
Y-119685D02*
D03*
X120472Y-112598D02*
D03*
Y-119685D02*
D03*
X111417Y-112598D02*
D03*
Y-119685D02*
D03*
X110974Y-194488D02*
D03*
Y-187402D02*
D03*
X119567Y-194488D02*
D03*
Y-187402D02*
D03*
X137549Y-194488D02*
D03*
Y-187402D02*
D03*
X128691Y-194488D02*
D03*
Y-187402D02*
D03*
D42*
X123032Y-18898D02*
D03*
Y-10630D02*
D03*
X112402Y-18898D02*
D03*
Y-10630D02*
D03*
X123425Y-52362D02*
D03*
Y-44094D02*
D03*
X111614Y-52362D02*
D03*
Y-44094D02*
D03*
X239567Y-29616D02*
D03*
Y-21348D02*
D03*
X164764Y-34252D02*
D03*
Y-42520D02*
D03*
X153937Y-34252D02*
D03*
Y-42520D02*
D03*
X177165Y-104921D02*
D03*
Y-96654D02*
D03*
X196850Y-104921D02*
D03*
Y-96654D02*
D03*
X208071Y-104921D02*
D03*
Y-96654D02*
D03*
X232756Y-104921D02*
D03*
Y-96654D02*
D03*
D43*
X123425Y-30610D02*
D03*
Y-36319D02*
D03*
X111614Y-30610D02*
D03*
Y-36319D02*
D03*
X239173Y-7972D02*
D03*
Y-13681D02*
D03*
X187598Y-101634D02*
D03*
Y-107343D02*
D03*
X216791Y-101634D02*
D03*
Y-107343D02*
D03*
D44*
X116339Y-72210D02*
D03*
X124606D02*
D03*
X187598Y-71850D02*
D03*
X179331D02*
D03*
X245276Y-160433D02*
D03*
X237008D02*
D03*
X114961Y-146063D02*
D03*
X123228D02*
D03*
D45*
X217913Y-51181D02*
D03*
X205315D02*
D03*
X228543D02*
D03*
X241142D02*
D03*
D46*
X240177Y-39370D02*
D03*
X234232D02*
D03*
X176358Y-61028D02*
D03*
X182303D02*
D03*
D47*
X206890Y-37205D02*
D03*
X215945D02*
D03*
X225000D02*
D03*
D48*
X215945Y-10039D02*
D03*
D49*
X189911Y-82677D02*
D03*
X177018D02*
D03*
D50*
X196850Y-161909D02*
D03*
D51*
X215406Y-117141D02*
D03*
X165406D02*
D03*
X170406D02*
D03*
X175406D02*
D03*
X180406D02*
D03*
X185406D02*
D03*
X190406D02*
D03*
X195406D02*
D03*
X200406D02*
D03*
X205406D02*
D03*
X210406D02*
D03*
D52*
X154441Y-118952D02*
D03*
X226370Y-120015D02*
D03*
X154441Y-183952D02*
D03*
Y-178952D02*
D03*
Y-173952D02*
D03*
Y-168952D02*
D03*
Y-163952D02*
D03*
Y-158952D02*
D03*
Y-153952D02*
D03*
Y-148952D02*
D03*
Y-143952D02*
D03*
Y-138952D02*
D03*
Y-133952D02*
D03*
Y-128952D02*
D03*
Y-123952D02*
D03*
X226370Y-125015D02*
D03*
Y-130015D02*
D03*
Y-135015D02*
D03*
Y-140015D02*
D03*
Y-145015D02*
D03*
Y-150015D02*
D03*
Y-155015D02*
D03*
Y-160015D02*
D03*
Y-165015D02*
D03*
Y-170015D02*
D03*
Y-175015D02*
D03*
Y-180015D02*
D03*
Y-185015D02*
D03*
D53*
X113386Y-81988D02*
D03*
Y-84547D02*
D03*
Y-87106D02*
D03*
Y-89665D02*
D03*
Y-92224D02*
D03*
Y-94783D02*
D03*
Y-97343D02*
D03*
Y-99902D02*
D03*
Y-102461D02*
D03*
Y-105020D02*
D03*
X137402Y-81988D02*
D03*
Y-84547D02*
D03*
Y-87106D02*
D03*
Y-89665D02*
D03*
Y-92224D02*
D03*
Y-94783D02*
D03*
Y-97343D02*
D03*
Y-99902D02*
D03*
Y-102461D02*
D03*
Y-105020D02*
D03*
X136417Y-179823D02*
D03*
Y-177264D02*
D03*
Y-174705D02*
D03*
Y-172146D02*
D03*
Y-169587D02*
D03*
Y-167028D02*
D03*
Y-164469D02*
D03*
Y-161909D02*
D03*
Y-159350D02*
D03*
Y-156791D02*
D03*
X112402Y-179823D02*
D03*
Y-177264D02*
D03*
Y-174705D02*
D03*
Y-172146D02*
D03*
Y-169587D02*
D03*
Y-167028D02*
D03*
Y-164469D02*
D03*
Y-161909D02*
D03*
Y-159350D02*
D03*
Y-156791D02*
D03*
D54*
X41854Y-200349D02*
D03*
Y-16097D02*
D03*
D55*
X33465Y-61475D02*
D03*
Y-69936D02*
D03*
Y-78439D02*
D03*
Y-86975D02*
D03*
Y-95475D02*
D03*
Y-103975D02*
D03*
Y-112475D02*
D03*
Y-120975D02*
D03*
Y-129475D02*
D03*
Y-137975D02*
D03*
Y-146475D02*
D03*
Y-154975D02*
D03*
X50354Y-61432D02*
D03*
Y-69936D02*
D03*
Y-78439D02*
D03*
Y-86944D02*
D03*
Y-95447D02*
D03*
Y-103951D02*
D03*
Y-112455D02*
D03*
Y-120959D02*
D03*
Y-129463D02*
D03*
Y-137967D02*
D03*
Y-146471D02*
D03*
D56*
Y-154975D02*
D03*
D57*
X168307Y-59055D02*
D03*
D58*
X158465D02*
D03*
Y-51181D02*
D03*
X168307D02*
D03*
D59*
X139685Y-40512D02*
D03*
X187087D02*
D03*
D60*
X158465Y-81693D02*
D03*
D61*
X142224Y-30512D02*
D03*
X178150D02*
D03*
X220472Y-74803D02*
D03*
X217913Y-56496D02*
D03*
X241142Y-155512D02*
D03*
X237992Y-182087D02*
D03*
X163228Y-182913D02*
D03*
X171260Y-148622D02*
D03*
X132874Y-187402D02*
D03*
X158896Y-157776D02*
D03*
X163728Y-24606D02*
D03*
X164759Y-123421D02*
D03*
X160433Y-111496D02*
D03*
X173914Y-28543D02*
D03*
X174212Y-53149D02*
D03*
M02*
