G04*
G04 #@! TF.GenerationSoftware,Altium Limited,Altium Designer,18.1.7 (191)*
G04*
G04 Layer_Color=16711935*
%FSLAX25Y25*%
%MOIN*%
G70*
G01*
G75*
%ADD74C,0.00394*%
D74*
X161437Y-10433D02*
G03*
X161437Y-10433I-1969J0D01*
G01*
X132677Y-102953D02*
G03*
X132677Y-102953I-1969J0D01*
G01*
X131693Y-177756D02*
G03*
X131693Y-177756I-1969J0D01*
G01*
X139370Y-63032D02*
Y-40D01*
Y-63032D02*
X187402D01*
Y-40D01*
X139370D02*
X187402D01*
X60039Y-195768D02*
X68701D01*
X60039Y-190059D02*
X68701D01*
Y-195768D02*
Y-190059D01*
X60039Y-195768D02*
Y-190059D01*
Y-204626D02*
X68701D01*
X60039Y-198917D02*
X68701D01*
Y-204626D02*
Y-198917D01*
X60039Y-204626D02*
Y-198917D01*
X81693Y-206496D02*
Y-193110D01*
X74606Y-206496D02*
Y-193110D01*
X81693D01*
X74606Y-206496D02*
X81693D01*
X155925Y-26575D02*
X171634D01*
X155925Y-6890D02*
X171634D01*
Y-26575D02*
Y-6890D01*
X155925Y-26575D02*
Y-6890D01*
X143996Y-19094D02*
Y-10433D01*
X138287Y-19094D02*
Y-10433D01*
X143996D01*
X138287Y-19094D02*
X143996D01*
X135138D02*
Y-10433D01*
X129429Y-19094D02*
Y-10433D01*
X135138D01*
X129429Y-19094D02*
X135138D01*
X120374D02*
Y-10433D01*
X125689Y-19094D02*
Y-10433D01*
X120374Y-19094D02*
X125689D01*
X120374Y-10433D02*
X125689D01*
X109744Y-19094D02*
Y-10433D01*
X115059Y-19094D02*
Y-10433D01*
X109744Y-19094D02*
X115059D01*
X109744Y-10433D02*
X115059D01*
X121851Y-36614D02*
X125000D01*
X121850Y-30315D02*
X125000D01*
X125000Y-36614D02*
Y-30315D01*
X121850Y-36614D02*
Y-30315D01*
X110040Y-36614D02*
X113189D01*
X110039Y-30315D02*
X113189D01*
X113189Y-36614D02*
Y-30315D01*
X110039Y-36614D02*
Y-30315D01*
X120768Y-52559D02*
Y-43898D01*
X126083Y-52559D02*
Y-43898D01*
X120768Y-52559D02*
X126083D01*
X120768Y-43898D02*
X126083D01*
X108957Y-52559D02*
Y-43898D01*
X114272Y-52559D02*
Y-43898D01*
X108957Y-52559D02*
X114272D01*
X108957Y-43898D02*
X114272D01*
X116142Y-69552D02*
X124803D01*
X116142Y-74867D02*
X124803D01*
X116142D02*
Y-69552D01*
X124803Y-74867D02*
Y-69552D01*
X204921Y-54724D02*
X218307D01*
X204921Y-47638D02*
X218307D01*
Y-54724D02*
Y-47638D01*
X204921Y-54724D02*
Y-47638D01*
X228150D02*
X241535D01*
X228150Y-54724D02*
X241535D01*
X228150D02*
Y-47638D01*
X241535Y-54724D02*
Y-47638D01*
Y-42224D02*
Y-36516D01*
X232874Y-42224D02*
Y-36516D01*
Y-42224D02*
X241535D01*
X232874Y-36516D02*
X241535D01*
X236909Y-29813D02*
Y-21152D01*
X242224Y-29813D02*
Y-21152D01*
X236909Y-29813D02*
X242224D01*
X236909Y-21152D02*
X242224D01*
X237599Y-13977D02*
X240748D01*
X237598Y-7677D02*
X240748D01*
X240748Y-13977D02*
Y-7677D01*
X237598Y-13976D02*
Y-7677D01*
X202736Y-30925D02*
X229154D01*
X202736Y-16319D02*
X229154D01*
X202736Y-30925D02*
Y-16319D01*
X229154Y-30925D02*
Y-16319D01*
X192028Y-21063D02*
Y-12402D01*
X197736Y-21063D02*
Y-12402D01*
X192028Y-21063D02*
X197736D01*
X192028Y-12402D02*
X197736D01*
X183169Y-21063D02*
Y-12402D01*
X188878Y-21063D02*
Y-12402D01*
X183169Y-21063D02*
X188878D01*
X183169Y-12402D02*
X188878D01*
X167421Y-42717D02*
Y-34055D01*
X162106Y-42717D02*
Y-34055D01*
X167421D01*
X162106Y-42717D02*
X167421D01*
X156594D02*
Y-34055D01*
X151280Y-42717D02*
Y-34055D01*
X156594D01*
X151280Y-42717D02*
X156594D01*
X175000Y-63882D02*
Y-58173D01*
X183661Y-63882D02*
Y-58173D01*
X175000D02*
X183661D01*
X175000Y-63882D02*
X183661D01*
X178169Y-85827D02*
X188760D01*
Y-79528D01*
X178169Y-85827D02*
Y-79528D01*
X188760D01*
X179134Y-74508D02*
X187795D01*
X179134Y-69193D02*
X187795D01*
Y-74508D02*
Y-69193D01*
X179134Y-74508D02*
Y-69193D01*
X174508Y-105118D02*
Y-96457D01*
X179823Y-105118D02*
Y-96457D01*
X174508Y-105118D02*
X179823D01*
X174508Y-96457D02*
X179823D01*
X194193Y-105118D02*
Y-96457D01*
X199508Y-105118D02*
Y-96457D01*
X194193Y-105118D02*
X199508D01*
X194193Y-96457D02*
X199508D01*
X186024Y-107638D02*
X189174D01*
X186024Y-101339D02*
X189173D01*
X189174Y-107638D02*
Y-101339D01*
X186024Y-107638D02*
Y-101339D01*
X205413Y-105118D02*
Y-96457D01*
X210728Y-105118D02*
Y-96457D01*
X205413Y-105118D02*
X210728D01*
X205413Y-96457D02*
X210728D01*
X215217Y-107638D02*
X218366D01*
X215217Y-101339D02*
X218366D01*
X218366Y-107638D02*
Y-101339D01*
X215217Y-107638D02*
Y-101339D01*
X230098Y-105118D02*
Y-96457D01*
X235413Y-105118D02*
Y-96457D01*
X230098Y-105118D02*
X235413D01*
X230098Y-96457D02*
X235413D01*
X242717Y-82480D02*
Y-69094D01*
X235630Y-82480D02*
Y-69094D01*
X242717D01*
X235630Y-82480D02*
X242717D01*
X230315D02*
Y-69094D01*
X223228Y-82480D02*
Y-69094D01*
X230315D01*
X223228Y-82480D02*
X230315D01*
X217520D02*
Y-69094D01*
X210433Y-82480D02*
Y-69094D01*
X217520D01*
X210433Y-82480D02*
X217520D01*
X204724D02*
Y-69094D01*
X197638Y-82480D02*
Y-69094D01*
X204724D01*
X197638Y-82480D02*
X204724D01*
X237205Y-174803D02*
X245866D01*
X237205Y-180512D02*
X245866D01*
X237205D02*
Y-174803D01*
X245866Y-180512D02*
Y-174803D01*
X237205Y-166929D02*
X245866D01*
X237205Y-172638D02*
X245866D01*
X237205D02*
Y-166929D01*
X245866Y-172638D02*
Y-166929D01*
X237205Y-183661D02*
X245866D01*
X237205Y-189370D02*
X245866D01*
X237205D02*
Y-183661D01*
X245866Y-189370D02*
Y-183661D01*
X236811Y-163091D02*
X245472D01*
X236811Y-157776D02*
X245472D01*
Y-163091D02*
Y-157776D01*
X236811Y-163091D02*
Y-157776D01*
X132185Y-120472D02*
Y-111811D01*
X126476Y-120472D02*
Y-111811D01*
X132185D01*
X126476Y-120472D02*
X132185D01*
X141043D02*
Y-111811D01*
X135335Y-120472D02*
Y-111811D01*
X141043D01*
X135335Y-120472D02*
X141043D01*
X123327D02*
Y-111811D01*
X117618Y-120472D02*
Y-111811D01*
X123327D01*
X117618Y-120472D02*
X123327D01*
X114764Y-143406D02*
X123425D01*
X114764Y-148720D02*
X123425D01*
X114764D02*
Y-143406D01*
X123425Y-148720D02*
Y-143406D01*
X114272Y-120472D02*
Y-111811D01*
X108563Y-120472D02*
Y-111811D01*
X114272D01*
X108563Y-120472D02*
X114272D01*
X81693Y-128740D02*
Y-115354D01*
X74606Y-128740D02*
Y-115354D01*
X81693D01*
X74606Y-128740D02*
X81693D01*
X60039Y-127854D02*
X68701D01*
X60039Y-122146D02*
X68701D01*
Y-127854D02*
Y-122146D01*
X60039Y-127854D02*
Y-122146D01*
Y-118602D02*
X68701D01*
X60039Y-112894D02*
X68701D01*
Y-118602D02*
Y-112894D01*
X60039Y-118602D02*
Y-112894D01*
X116535Y-80512D02*
X134252D01*
X116535Y-106496D02*
X134252D01*
X116535D02*
Y-80512D01*
X134252Y-106496D02*
Y-80512D01*
X234646Y-150645D02*
Y-137259D01*
X241732Y-150645D02*
Y-137259D01*
X234646Y-150645D02*
X241732D01*
X234646Y-137259D02*
X241732D01*
X133268Y-181299D02*
Y-155315D01*
X115551Y-181299D02*
Y-155315D01*
Y-181299D02*
X133268D01*
X115551Y-155315D02*
X133268D01*
X108120Y-195276D02*
X113829D01*
X108120Y-186614D02*
X113829D01*
X108120Y-195276D02*
Y-186614D01*
X113829Y-195276D02*
Y-186614D01*
X116713Y-195276D02*
X122421D01*
X116713Y-186614D02*
X122421D01*
X116713Y-195276D02*
Y-186614D01*
X122421Y-195276D02*
Y-186614D01*
X134695Y-195276D02*
X140404D01*
X134695Y-186614D02*
X140404D01*
X134695Y-195276D02*
Y-186614D01*
X140404Y-195276D02*
Y-186614D01*
X125837Y-195276D02*
X131545D01*
X125837Y-186614D02*
X131545D01*
X125837Y-195276D02*
Y-186614D01*
X131545Y-195276D02*
Y-186614D01*
M02*
