G04*
G04 #@! TF.GenerationSoftware,Altium Limited,Altium Designer,18.1.7 (191)*
G04*
G04 Layer_Physical_Order=2*
G04 Layer_Color=16711680*
%FSLAX25Y25*%
%MOIN*%
G70*
G01*
G75*
%ADD10C,0.01968*%
%ADD15C,0.01000*%
%ADD63C,0.03937*%
%ADD64C,0.03150*%
%ADD65R,0.15000X0.15000*%
%ADD66C,0.05118*%
%ADD67R,0.05118X0.05118*%
%ADD68R,0.05315X0.05315*%
%ADD69C,0.05315*%
%ADD70C,0.10827*%
%ADD71C,0.23622*%
%ADD72C,0.03937*%
%ADD73C,0.02362*%
G36*
X251969Y-186366D02*
X144685D01*
X144439Y-186415D01*
X144231Y-186554D01*
X144092Y-186762D01*
X144043Y-187008D01*
Y-216535D01*
X0D01*
Y0D01*
X251969D01*
Y-186366D01*
D02*
G37*
%LPC*%
G36*
X203150Y-3472D02*
X159055D01*
X158425Y-3598D01*
X157891Y-3954D01*
X151092Y-10754D01*
X148666D01*
X148507Y-10546D01*
X147964Y-10130D01*
X147332Y-9868D01*
X146654Y-9779D01*
X145975Y-9868D01*
X145343Y-10130D01*
X144800Y-10546D01*
X144384Y-11089D01*
X144122Y-11721D01*
X144033Y-12400D01*
X144122Y-13078D01*
X144384Y-13710D01*
X144800Y-14253D01*
X145343Y-14669D01*
X145975Y-14931D01*
X146654Y-15020D01*
X147332Y-14931D01*
X147964Y-14669D01*
X148507Y-14253D01*
X148666Y-14045D01*
X151774D01*
X152403Y-13920D01*
X152937Y-13563D01*
X159196Y-7305D01*
X159657Y-7551D01*
X159571Y-7982D01*
X159607Y-8163D01*
X145642Y-22128D01*
X145392Y-22502D01*
X145305Y-22943D01*
Y-27332D01*
X145151Y-27435D01*
X144751Y-28034D01*
X144733Y-28121D01*
X144265Y-28297D01*
X144194Y-28242D01*
X143562Y-27980D01*
X142883Y-27891D01*
X142224D01*
X141546Y-27980D01*
X140914Y-28242D01*
X140371Y-28659D01*
X139955Y-29201D01*
X139693Y-29833D01*
X139604Y-30512D01*
X139693Y-31190D01*
X139955Y-31822D01*
X140371Y-32365D01*
X140914Y-32781D01*
X141546Y-33043D01*
X141733Y-33068D01*
X143038Y-34373D01*
X143581Y-34789D01*
X144213Y-35051D01*
X144891Y-35140D01*
X175282D01*
X175961Y-35051D01*
X176593Y-34789D01*
X177135Y-34373D01*
X178410Y-33098D01*
X178828Y-33043D01*
X179460Y-32781D01*
X180003Y-32365D01*
X180419Y-31822D01*
X180681Y-31190D01*
X180771Y-30512D01*
X180681Y-29833D01*
X180419Y-29201D01*
X180003Y-28659D01*
X179460Y-28242D01*
X178828Y-27980D01*
X178150Y-27891D01*
X177290D01*
X176612Y-27980D01*
X176192Y-28154D01*
X176156Y-28161D01*
X175638Y-27930D01*
X175619Y-27837D01*
X175219Y-27238D01*
X174620Y-26837D01*
X173914Y-26697D01*
X173732Y-26733D01*
X170791Y-23792D01*
X170417Y-23542D01*
X169976Y-23454D01*
X165137D01*
X165034Y-23301D01*
X164435Y-22900D01*
X163728Y-22760D01*
X163022Y-22900D01*
X162423Y-23301D01*
X162022Y-23900D01*
X161882Y-24606D01*
X162022Y-25313D01*
X162423Y-25912D01*
X163022Y-26312D01*
X163728Y-26453D01*
X164435Y-26312D01*
X165034Y-25912D01*
X165137Y-25758D01*
X169499D01*
X172103Y-28362D01*
X172067Y-28543D01*
X172207Y-29250D01*
X172307Y-29399D01*
X172040Y-29899D01*
X148391D01*
X148195Y-29532D01*
X148172Y-29399D01*
X148303Y-28740D01*
X148163Y-28034D01*
X147762Y-27435D01*
X147609Y-27332D01*
Y-23420D01*
X161236Y-9793D01*
X161417Y-9829D01*
X162124Y-9688D01*
X162723Y-9288D01*
X163123Y-8689D01*
X163264Y-7982D01*
X163123Y-7276D01*
X163076Y-7205D01*
X163312Y-6764D01*
X202468D01*
X205287Y-9583D01*
X205253Y-9843D01*
X205343Y-10521D01*
X205604Y-11153D01*
X206021Y-11696D01*
X206564Y-12112D01*
X207196Y-12374D01*
X207874Y-12463D01*
X208552Y-12374D01*
X209184Y-12112D01*
X209727Y-11696D01*
X210144Y-11153D01*
X210406Y-10521D01*
X210495Y-9843D01*
X210406Y-9164D01*
X210144Y-8532D01*
X209727Y-7989D01*
X209184Y-7573D01*
X208552Y-7311D01*
X207874Y-7222D01*
X207615Y-7256D01*
X204313Y-3954D01*
X203779Y-3598D01*
X203150Y-3472D01*
D02*
G37*
G36*
X49984Y-7967D02*
X42445D01*
Y-15507D01*
X49984D01*
Y-7967D01*
D02*
G37*
G36*
X41264D02*
X33724D01*
Y-15507D01*
X41264D01*
Y-7967D01*
D02*
G37*
G36*
X49984Y-16688D02*
X42445D01*
Y-24227D01*
X49984D01*
Y-16688D01*
D02*
G37*
G36*
X41264D02*
X33724D01*
Y-24227D01*
X41264D01*
Y-16688D01*
D02*
G37*
G36*
X187677Y-34497D02*
Y-39921D01*
X193101D01*
X193043Y-39327D01*
X192697Y-38188D01*
X192136Y-37138D01*
X191381Y-36218D01*
X190460Y-35463D01*
X189410Y-34902D01*
X188271Y-34556D01*
X187677Y-34497D01*
D02*
G37*
G36*
X186496D02*
X185902Y-34556D01*
X184763Y-34902D01*
X183713Y-35463D01*
X182793Y-36218D01*
X182038Y-37138D01*
X181476Y-38188D01*
X181131Y-39327D01*
X181072Y-39921D01*
X186496D01*
Y-34497D01*
D02*
G37*
G36*
X140276D02*
Y-39921D01*
X145700D01*
X145641Y-39327D01*
X145295Y-38188D01*
X144734Y-37138D01*
X143979Y-36218D01*
X143059Y-35463D01*
X142009Y-34902D01*
X140870Y-34556D01*
X140276Y-34497D01*
D02*
G37*
G36*
X139094D02*
X138500Y-34556D01*
X137361Y-34902D01*
X136311Y-35463D01*
X135391Y-36218D01*
X134636Y-37138D01*
X134075Y-38188D01*
X133729Y-39327D01*
X133671Y-39921D01*
X139094D01*
Y-34497D01*
D02*
G37*
G36*
X193101Y-41102D02*
X187677D01*
Y-46526D01*
X188271Y-46468D01*
X189410Y-46122D01*
X190460Y-45561D01*
X191381Y-44806D01*
X192136Y-43886D01*
X192697Y-42836D01*
X193043Y-41697D01*
X193101Y-41102D01*
D02*
G37*
G36*
X186496D02*
X181072D01*
X181131Y-41697D01*
X181476Y-42836D01*
X182038Y-43886D01*
X182793Y-44806D01*
X183713Y-45561D01*
X184763Y-46122D01*
X185902Y-46468D01*
X186496Y-46526D01*
Y-41102D01*
D02*
G37*
G36*
X145700D02*
X140276D01*
Y-46526D01*
X140870Y-46468D01*
X142009Y-46122D01*
X143059Y-45561D01*
X143979Y-44806D01*
X144734Y-43886D01*
X145295Y-42836D01*
X145641Y-41697D01*
X145700Y-41102D01*
D02*
G37*
G36*
X139094D02*
X133671D01*
X133729Y-41697D01*
X134075Y-42836D01*
X134636Y-43886D01*
X135391Y-44806D01*
X136311Y-45561D01*
X137361Y-46122D01*
X138500Y-46468D01*
X139094Y-46526D01*
Y-41102D01*
D02*
G37*
G36*
X168898Y-47943D02*
Y-50591D01*
X171545D01*
X171510Y-50323D01*
X171179Y-49523D01*
X170652Y-48836D01*
X169965Y-48310D01*
X169165Y-47978D01*
X168898Y-47943D01*
D02*
G37*
G36*
X167717D02*
X167449Y-47978D01*
X166649Y-48310D01*
X165963Y-48836D01*
X165436Y-49523D01*
X165104Y-50323D01*
X165069Y-50591D01*
X167717D01*
Y-47943D01*
D02*
G37*
G36*
X171545Y-51772D02*
X168898D01*
Y-54419D01*
X169165Y-54384D01*
X169965Y-54053D01*
X170652Y-53526D01*
X171179Y-52839D01*
X171510Y-52039D01*
X171545Y-51772D01*
D02*
G37*
G36*
X167717D02*
X165069D01*
X165104Y-52039D01*
X165436Y-52839D01*
X165963Y-53526D01*
X166649Y-54053D01*
X167449Y-54384D01*
X167717Y-54419D01*
Y-51772D01*
D02*
G37*
G36*
X158465Y-47865D02*
X157606Y-47978D01*
X156807Y-48310D01*
X156120Y-48836D01*
X155593Y-49523D01*
X155262Y-50323D01*
X155149Y-51181D01*
X155262Y-52039D01*
X155593Y-52839D01*
X156120Y-53526D01*
X156807Y-54053D01*
X157606Y-54384D01*
X158465Y-54497D01*
X159323Y-54384D01*
X160123Y-54053D01*
X160809Y-53526D01*
X161336Y-52839D01*
X161668Y-52039D01*
X161781Y-51181D01*
X161668Y-50323D01*
X161336Y-49523D01*
X160809Y-48836D01*
X160123Y-48310D01*
X159323Y-47978D01*
X158465Y-47865D01*
D02*
G37*
G36*
X50945Y-58293D02*
Y-60841D01*
X53493D01*
X53461Y-60599D01*
X53140Y-59824D01*
X52629Y-59157D01*
X51963Y-58646D01*
X51187Y-58325D01*
X50945Y-58293D01*
D02*
G37*
G36*
X49764D02*
X49522Y-58325D01*
X48746Y-58646D01*
X48080Y-59157D01*
X47569Y-59824D01*
X47247Y-60599D01*
X47216Y-60841D01*
X49764D01*
Y-58293D01*
D02*
G37*
G36*
X34055Y-58336D02*
Y-60884D01*
X36603D01*
X36571Y-60642D01*
X36250Y-59867D01*
X35739Y-59201D01*
X35073Y-58689D01*
X34297Y-58368D01*
X34055Y-58336D01*
D02*
G37*
G36*
X32874D02*
X32632Y-58368D01*
X31856Y-58689D01*
X31190Y-59201D01*
X30679Y-59867D01*
X30358Y-60642D01*
X30326Y-60884D01*
X32874D01*
Y-58336D01*
D02*
G37*
G36*
X158465Y-55739D02*
X157606Y-55852D01*
X156807Y-56184D01*
X156120Y-56710D01*
X155593Y-57397D01*
X155262Y-58197D01*
X155149Y-59055D01*
X155262Y-59913D01*
X155593Y-60713D01*
X156120Y-61400D01*
X156807Y-61927D01*
X157606Y-62258D01*
X158465Y-62371D01*
X159323Y-62258D01*
X160123Y-61927D01*
X160809Y-61400D01*
X161336Y-60713D01*
X161668Y-59913D01*
X161781Y-59055D01*
X161668Y-58197D01*
X161336Y-57397D01*
X160809Y-56710D01*
X160123Y-56184D01*
X159323Y-55852D01*
X158465Y-55739D01*
D02*
G37*
G36*
X174212Y-51303D02*
X173506Y-51444D01*
X172907Y-51844D01*
X172506Y-52443D01*
X172366Y-53149D01*
X172506Y-53856D01*
X172907Y-54455D01*
X173060Y-54558D01*
Y-54755D01*
X172849Y-55071D01*
X172761Y-55512D01*
Y-62224D01*
X172415Y-62570D01*
X171966Y-62270D01*
X171595Y-62196D01*
Y-55768D01*
X165020D01*
Y-62343D01*
X169613D01*
X169839Y-62843D01*
X169554Y-63270D01*
X169413Y-63976D01*
X169076Y-64336D01*
X168867Y-64308D01*
X131889D01*
X131211Y-64398D01*
X130579Y-64659D01*
X130036Y-65076D01*
X119210Y-75902D01*
X118793Y-76445D01*
X118531Y-77077D01*
X118442Y-77756D01*
X118531Y-78434D01*
X118793Y-79066D01*
X119210Y-79609D01*
X119752Y-80026D01*
X120384Y-80287D01*
X121063Y-80377D01*
X121741Y-80287D01*
X122373Y-80026D01*
X122916Y-79609D01*
X132975Y-69550D01*
X153964D01*
X154064Y-70050D01*
X152799Y-70574D01*
X151129Y-71597D01*
X149640Y-72869D01*
X148369Y-74358D01*
X147345Y-76028D01*
X146596Y-77837D01*
X146139Y-79741D01*
X145985Y-81693D01*
X146139Y-83645D01*
X146596Y-85549D01*
X147345Y-87358D01*
X148369Y-89028D01*
X149640Y-90517D01*
X151129Y-91789D01*
X152799Y-92812D01*
X154608Y-93562D01*
X156512Y-94019D01*
X158465Y-94172D01*
X160417Y-94019D01*
X162321Y-93562D01*
X164130Y-92812D01*
X165800Y-91789D01*
X167289Y-90517D01*
X168561Y-89028D01*
X169584Y-87358D01*
X170333Y-85549D01*
X170790Y-83645D01*
X170944Y-81693D01*
X170790Y-79741D01*
X170333Y-77837D01*
X169584Y-76028D01*
X168561Y-74358D01*
X167289Y-72869D01*
X165800Y-71597D01*
X164130Y-70574D01*
X162866Y-70050D01*
X162965Y-69550D01*
X167782D01*
X167841Y-69609D01*
X168384Y-70025D01*
X169016Y-70287D01*
X169694Y-70377D01*
X194933D01*
X195611Y-70287D01*
X196244Y-70025D01*
X196786Y-69609D01*
X198814Y-67581D01*
X199803D01*
X200482Y-67492D01*
X201114Y-67230D01*
X201656Y-66814D01*
X202073Y-66271D01*
X202335Y-65639D01*
X202424Y-64961D01*
X202335Y-64282D01*
X202073Y-63650D01*
X201656Y-63107D01*
X201114Y-62691D01*
X200482Y-62429D01*
X199803Y-62340D01*
X197728D01*
X197050Y-62429D01*
X196418Y-62691D01*
X195875Y-63107D01*
X193848Y-65135D01*
X173816D01*
X173609Y-64635D01*
X174728Y-63515D01*
X174978Y-63142D01*
X175066Y-62701D01*
Y-55970D01*
X175277Y-55654D01*
X175364Y-55213D01*
Y-54558D01*
X175518Y-54455D01*
X175918Y-53856D01*
X176059Y-53149D01*
X175918Y-52443D01*
X175518Y-51844D01*
X174919Y-51444D01*
X174212Y-51303D01*
D02*
G37*
G36*
X53493Y-62022D02*
X50945D01*
Y-64570D01*
X51187Y-64539D01*
X51963Y-64217D01*
X52629Y-63706D01*
X53140Y-63040D01*
X53461Y-62264D01*
X53493Y-62022D01*
D02*
G37*
G36*
X49764D02*
X47216D01*
X47247Y-62264D01*
X47569Y-63040D01*
X48080Y-63706D01*
X48746Y-64217D01*
X49522Y-64539D01*
X49764Y-64570D01*
Y-62022D01*
D02*
G37*
G36*
X36603Y-62066D02*
X34055D01*
Y-64614D01*
X34297Y-64582D01*
X35073Y-64261D01*
X35739Y-63749D01*
X36250Y-63083D01*
X36571Y-62307D01*
X36603Y-62066D01*
D02*
G37*
G36*
X32874D02*
X30326D01*
X30358Y-62307D01*
X30679Y-63083D01*
X31190Y-63749D01*
X31856Y-64261D01*
X32632Y-64582D01*
X32874Y-64614D01*
Y-62066D01*
D02*
G37*
G36*
X34055Y-66797D02*
Y-69345D01*
X36603D01*
X36571Y-69103D01*
X36250Y-68327D01*
X35739Y-67661D01*
X35073Y-67150D01*
X34297Y-66829D01*
X34055Y-66797D01*
D02*
G37*
G36*
X32874D02*
X32632Y-66829D01*
X31856Y-67150D01*
X31190Y-67661D01*
X30679Y-68327D01*
X30358Y-69103D01*
X30326Y-69345D01*
X32874D01*
Y-66797D01*
D02*
G37*
G36*
X36603Y-70526D02*
X34055D01*
Y-73074D01*
X34297Y-73042D01*
X35073Y-72721D01*
X35739Y-72210D01*
X36250Y-71544D01*
X36571Y-70768D01*
X36603Y-70526D01*
D02*
G37*
G36*
X32874D02*
X30326D01*
X30358Y-70768D01*
X30679Y-71544D01*
X31190Y-72210D01*
X31856Y-72721D01*
X32632Y-73042D01*
X32874Y-73074D01*
Y-70526D01*
D02*
G37*
G36*
X50354Y-66719D02*
X49522Y-66829D01*
X48746Y-67150D01*
X48080Y-67661D01*
X47569Y-68327D01*
X47247Y-69103D01*
X47138Y-69936D01*
X47247Y-70768D01*
X47569Y-71544D01*
X48080Y-72210D01*
X48746Y-72721D01*
X49522Y-73042D01*
X50354Y-73152D01*
X51187Y-73042D01*
X51963Y-72721D01*
X52629Y-72210D01*
X53140Y-71544D01*
X53461Y-70768D01*
X53571Y-69936D01*
X53461Y-69103D01*
X53140Y-68327D01*
X52629Y-67661D01*
X51963Y-67150D01*
X51187Y-66829D01*
X50354Y-66719D01*
D02*
G37*
G36*
X217913Y-54248D02*
X217053Y-54419D01*
X216324Y-54907D01*
X215837Y-55636D01*
X215666Y-56496D01*
Y-72244D01*
X215837Y-73104D01*
X216324Y-73834D01*
X218883Y-76393D01*
X219612Y-76880D01*
X220472Y-77051D01*
X221333Y-76880D01*
X222062Y-76393D01*
X222549Y-75663D01*
X222720Y-74803D01*
X222549Y-73943D01*
X222062Y-73214D01*
X220161Y-71313D01*
Y-56496D01*
X219990Y-55636D01*
X219503Y-54907D01*
X218774Y-54419D01*
X217913Y-54248D01*
D02*
G37*
G36*
X34055Y-75301D02*
Y-77849D01*
X36603D01*
X36571Y-77607D01*
X36250Y-76831D01*
X35739Y-76165D01*
X35073Y-75654D01*
X34297Y-75333D01*
X34055Y-75301D01*
D02*
G37*
G36*
X32874D02*
X32632Y-75333D01*
X31856Y-75654D01*
X31190Y-76165D01*
X30679Y-76831D01*
X30358Y-77607D01*
X30326Y-77849D01*
X32874D01*
Y-75301D01*
D02*
G37*
G36*
X36603Y-79030D02*
X34055D01*
Y-81578D01*
X34297Y-81546D01*
X35073Y-81225D01*
X35739Y-80714D01*
X36250Y-80048D01*
X36571Y-79272D01*
X36603Y-79030D01*
D02*
G37*
G36*
X32874D02*
X30326D01*
X30358Y-79272D01*
X30679Y-80048D01*
X31190Y-80714D01*
X31856Y-81225D01*
X32632Y-81546D01*
X32874Y-81578D01*
Y-79030D01*
D02*
G37*
G36*
X50354Y-75223D02*
X49522Y-75333D01*
X48746Y-75654D01*
X48080Y-76165D01*
X47569Y-76831D01*
X47247Y-77607D01*
X47138Y-78439D01*
X47247Y-79272D01*
X47569Y-80048D01*
X48080Y-80714D01*
X48746Y-81225D01*
X49522Y-81546D01*
X50354Y-81656D01*
X51187Y-81546D01*
X51963Y-81225D01*
X52629Y-80714D01*
X53140Y-80048D01*
X53461Y-79272D01*
X53571Y-78439D01*
X53461Y-77607D01*
X53140Y-76831D01*
X52629Y-76165D01*
X51963Y-75654D01*
X51187Y-75333D01*
X50354Y-75223D01*
D02*
G37*
G36*
X34055Y-83836D02*
Y-86384D01*
X36603D01*
X36571Y-86142D01*
X36250Y-85367D01*
X35739Y-84701D01*
X35073Y-84189D01*
X34297Y-83868D01*
X34055Y-83836D01*
D02*
G37*
G36*
X32874D02*
X32632Y-83868D01*
X31856Y-84189D01*
X31190Y-84701D01*
X30679Y-85367D01*
X30358Y-86142D01*
X30326Y-86384D01*
X32874D01*
Y-83836D01*
D02*
G37*
G36*
X36603Y-87565D02*
X34055D01*
Y-90114D01*
X34297Y-90082D01*
X35073Y-89761D01*
X35739Y-89249D01*
X36250Y-88583D01*
X36571Y-87807D01*
X36603Y-87565D01*
D02*
G37*
G36*
X32874D02*
X30326D01*
X30358Y-87807D01*
X30679Y-88583D01*
X31190Y-89249D01*
X31856Y-89761D01*
X32632Y-90082D01*
X32874Y-90114D01*
Y-87565D01*
D02*
G37*
G36*
X50354Y-83727D02*
X49522Y-83837D01*
X48746Y-84158D01*
X48080Y-84669D01*
X47569Y-85335D01*
X47247Y-86111D01*
X47138Y-86944D01*
X47247Y-87776D01*
X47569Y-88552D01*
X48080Y-89218D01*
X48746Y-89729D01*
X49522Y-90050D01*
X50354Y-90160D01*
X51187Y-90050D01*
X51963Y-89729D01*
X52629Y-89218D01*
X53140Y-88552D01*
X53461Y-87776D01*
X53571Y-86944D01*
X53461Y-86111D01*
X53140Y-85335D01*
X52629Y-84669D01*
X51963Y-84158D01*
X51187Y-83837D01*
X50354Y-83727D01*
D02*
G37*
G36*
X34055Y-92336D02*
Y-94884D01*
X36603D01*
X36571Y-94642D01*
X36250Y-93867D01*
X35739Y-93200D01*
X35073Y-92689D01*
X34297Y-92368D01*
X34055Y-92336D01*
D02*
G37*
G36*
X32874D02*
X32632Y-92368D01*
X31856Y-92689D01*
X31190Y-93200D01*
X30679Y-93867D01*
X30358Y-94642D01*
X30326Y-94884D01*
X32874D01*
Y-92336D01*
D02*
G37*
G36*
X36603Y-96065D02*
X34055D01*
Y-98614D01*
X34297Y-98582D01*
X35073Y-98260D01*
X35739Y-97749D01*
X36250Y-97083D01*
X36571Y-96307D01*
X36603Y-96065D01*
D02*
G37*
G36*
X32874D02*
X30326D01*
X30358Y-96307D01*
X30679Y-97083D01*
X31190Y-97749D01*
X31856Y-98260D01*
X32632Y-98582D01*
X32874Y-98614D01*
Y-96065D01*
D02*
G37*
G36*
X50354Y-92231D02*
X49522Y-92341D01*
X48746Y-92662D01*
X48080Y-93173D01*
X47569Y-93839D01*
X47247Y-94615D01*
X47138Y-95447D01*
X47247Y-96280D01*
X47569Y-97056D01*
X48080Y-97722D01*
X48746Y-98233D01*
X49522Y-98554D01*
X50354Y-98664D01*
X51187Y-98554D01*
X51963Y-98233D01*
X52629Y-97722D01*
X53140Y-97056D01*
X53461Y-96280D01*
X53571Y-95447D01*
X53461Y-94615D01*
X53140Y-93839D01*
X52629Y-93173D01*
X51963Y-92662D01*
X51187Y-92341D01*
X50354Y-92231D01*
D02*
G37*
G36*
X34055Y-100836D02*
Y-103384D01*
X36603D01*
X36571Y-103142D01*
X36250Y-102367D01*
X35739Y-101700D01*
X35073Y-101189D01*
X34297Y-100868D01*
X34055Y-100836D01*
D02*
G37*
G36*
X32874D02*
X32632Y-100868D01*
X31856Y-101189D01*
X31190Y-101700D01*
X30679Y-102367D01*
X30358Y-103142D01*
X30326Y-103384D01*
X32874D01*
Y-100836D01*
D02*
G37*
G36*
X36603Y-104566D02*
X34055D01*
Y-107114D01*
X34297Y-107082D01*
X35073Y-106761D01*
X35739Y-106249D01*
X36250Y-105583D01*
X36571Y-104807D01*
X36603Y-104566D01*
D02*
G37*
G36*
X32874D02*
X30326D01*
X30358Y-104807D01*
X30679Y-105583D01*
X31190Y-106249D01*
X31856Y-106761D01*
X32632Y-107082D01*
X32874Y-107114D01*
Y-104566D01*
D02*
G37*
G36*
X50354Y-100735D02*
X49522Y-100844D01*
X48746Y-101166D01*
X48080Y-101677D01*
X47569Y-102343D01*
X47247Y-103119D01*
X47138Y-103951D01*
X47247Y-104784D01*
X47569Y-105560D01*
X48080Y-106226D01*
X48746Y-106737D01*
X49522Y-107058D01*
X50354Y-107168D01*
X51187Y-107058D01*
X51963Y-106737D01*
X52629Y-106226D01*
X53140Y-105560D01*
X53461Y-104784D01*
X53571Y-103951D01*
X53461Y-103119D01*
X53140Y-102343D01*
X52629Y-101677D01*
X51963Y-101166D01*
X51187Y-100844D01*
X50354Y-100735D01*
D02*
G37*
G36*
X34055Y-109336D02*
Y-111884D01*
X36603D01*
X36571Y-111642D01*
X36250Y-110867D01*
X35739Y-110201D01*
X35073Y-109689D01*
X34297Y-109368D01*
X34055Y-109336D01*
D02*
G37*
G36*
X32874D02*
X32632Y-109368D01*
X31856Y-109689D01*
X31190Y-110201D01*
X30679Y-110867D01*
X30358Y-111642D01*
X30326Y-111884D01*
X32874D01*
Y-109336D01*
D02*
G37*
G36*
X36603Y-113066D02*
X34055D01*
Y-115614D01*
X34297Y-115582D01*
X35073Y-115261D01*
X35739Y-114749D01*
X36250Y-114083D01*
X36571Y-113307D01*
X36603Y-113066D01*
D02*
G37*
G36*
X32874D02*
X30326D01*
X30358Y-113307D01*
X30679Y-114083D01*
X31190Y-114749D01*
X31856Y-115261D01*
X32632Y-115582D01*
X32874Y-115614D01*
Y-113066D01*
D02*
G37*
G36*
X50354Y-109239D02*
X49522Y-109348D01*
X48746Y-109670D01*
X48080Y-110181D01*
X47569Y-110847D01*
X47247Y-111623D01*
X47138Y-112455D01*
X47247Y-113288D01*
X47569Y-114064D01*
X48080Y-114730D01*
X48746Y-115241D01*
X49522Y-115562D01*
X50354Y-115672D01*
X51187Y-115562D01*
X51963Y-115241D01*
X52629Y-114730D01*
X53140Y-114064D01*
X53461Y-113288D01*
X53571Y-112455D01*
X53461Y-111623D01*
X53140Y-110847D01*
X52629Y-110181D01*
X51963Y-109670D01*
X51187Y-109348D01*
X50354Y-109239D01*
D02*
G37*
G36*
Y-117743D02*
X49522Y-117852D01*
X48746Y-118174D01*
X48080Y-118685D01*
X47569Y-119351D01*
X47247Y-120127D01*
X47138Y-120959D01*
X47247Y-121792D01*
X47569Y-122568D01*
X48080Y-123234D01*
X48746Y-123745D01*
X49522Y-124066D01*
X50354Y-124176D01*
X51187Y-124066D01*
X51963Y-123745D01*
X52629Y-123234D01*
X53140Y-122568D01*
X53461Y-121792D01*
X53571Y-120959D01*
X53461Y-120127D01*
X53140Y-119351D01*
X52629Y-118685D01*
X51963Y-118174D01*
X51187Y-117852D01*
X50354Y-117743D01*
D02*
G37*
G36*
X33465Y-117758D02*
X32632Y-117868D01*
X31856Y-118189D01*
X31190Y-118701D01*
X30679Y-119367D01*
X30358Y-120142D01*
X30248Y-120975D01*
X30358Y-121807D01*
X30679Y-122583D01*
X31190Y-123249D01*
X31856Y-123760D01*
X32632Y-124082D01*
X33465Y-124191D01*
X34297Y-124082D01*
X35073Y-123760D01*
X35739Y-123249D01*
X36250Y-122583D01*
X36571Y-121807D01*
X36681Y-120975D01*
X36571Y-120142D01*
X36250Y-119367D01*
X35739Y-118701D01*
X35073Y-118189D01*
X34297Y-117868D01*
X33465Y-117758D01*
D02*
G37*
G36*
X130906Y-93597D02*
X130199Y-93737D01*
X129600Y-94137D01*
X129200Y-94736D01*
X129059Y-95443D01*
X129200Y-96150D01*
X129600Y-96749D01*
X129753Y-96851D01*
Y-101062D01*
X129841Y-101503D01*
X130091Y-101877D01*
X134295Y-106081D01*
X134174Y-106479D01*
X134096Y-106589D01*
X133537Y-106962D01*
X133137Y-107561D01*
X132996Y-108268D01*
X133137Y-108974D01*
X133537Y-109573D01*
X133691Y-109676D01*
Y-116649D01*
X125919Y-124420D01*
X125706Y-124278D01*
X125000Y-124137D01*
X124293Y-124278D01*
X123694Y-124678D01*
X123294Y-125277D01*
X123153Y-125984D01*
X123294Y-126691D01*
X123694Y-127290D01*
X124293Y-127690D01*
X125000Y-127831D01*
X125161Y-127798D01*
X125295Y-127825D01*
X125295Y-127825D01*
X125295Y-127825D01*
X125295D01*
X125515Y-127782D01*
X125735Y-127738D01*
X125736Y-127738D01*
X125736Y-127738D01*
X125928Y-127609D01*
X126109Y-127488D01*
X126306Y-127292D01*
X126306Y-127291D01*
X126307Y-127291D01*
X129007Y-124591D01*
X129060Y-124586D01*
X129266Y-124840D01*
X129341Y-125066D01*
X129199Y-125277D01*
X129059Y-125984D01*
X129199Y-126691D01*
X129599Y-127290D01*
X130199Y-127690D01*
X130905Y-127831D01*
X131612Y-127690D01*
X132211Y-127290D01*
X132611Y-126691D01*
X132752Y-125984D01*
X132716Y-125803D01*
X137968Y-120550D01*
X138218Y-120177D01*
X138306Y-119736D01*
Y-107310D01*
X138218Y-106869D01*
X137968Y-106496D01*
X132058Y-100585D01*
Y-96851D01*
X132211Y-96749D01*
X132612Y-96150D01*
X132752Y-95443D01*
X132612Y-94736D01*
X132211Y-94137D01*
X131612Y-93737D01*
X130906Y-93597D01*
D02*
G37*
G36*
X160433Y-109650D02*
X159726Y-109790D01*
X159127Y-110190D01*
X158727Y-110789D01*
X158587Y-111496D01*
X158727Y-112203D01*
X159127Y-112802D01*
X159726Y-113202D01*
X160433Y-113342D01*
X160614Y-113306D01*
X163607Y-116299D01*
Y-122012D01*
X163453Y-122115D01*
X163053Y-122714D01*
X162913Y-123421D01*
X163053Y-124127D01*
X163453Y-124726D01*
X164052Y-125126D01*
X164759Y-125267D01*
X165466Y-125126D01*
X166065Y-124726D01*
X166465Y-124127D01*
X166606Y-123421D01*
X166465Y-122714D01*
X166065Y-122115D01*
X165911Y-122012D01*
Y-115822D01*
X165823Y-115381D01*
X165574Y-115007D01*
X162243Y-111677D01*
X162279Y-111496D01*
X162139Y-110789D01*
X161739Y-110190D01*
X161140Y-109790D01*
X160433Y-109650D01*
D02*
G37*
G36*
X50354Y-126247D02*
X49522Y-126356D01*
X48746Y-126678D01*
X48080Y-127189D01*
X47569Y-127855D01*
X47247Y-128631D01*
X47138Y-129463D01*
X47247Y-130296D01*
X47569Y-131071D01*
X48080Y-131737D01*
X48691Y-132206D01*
X48682Y-132398D01*
X48550Y-132706D01*
X38292D01*
X36373Y-130787D01*
X36571Y-130307D01*
X36681Y-129475D01*
X36571Y-128642D01*
X36250Y-127867D01*
X35739Y-127200D01*
X35073Y-126689D01*
X34297Y-126368D01*
X33465Y-126258D01*
X32632Y-126368D01*
X31856Y-126689D01*
X31190Y-127200D01*
X30679Y-127867D01*
X30358Y-128642D01*
X30248Y-129475D01*
X30358Y-130307D01*
X30679Y-131083D01*
X31190Y-131749D01*
X31856Y-132261D01*
X32632Y-132582D01*
X33465Y-132691D01*
X34297Y-132582D01*
X34730Y-132403D01*
X37000Y-134673D01*
X37374Y-134923D01*
X37815Y-135010D01*
X48148D01*
X48318Y-135510D01*
X48080Y-135693D01*
X47569Y-136359D01*
X47247Y-137135D01*
X47138Y-137967D01*
X47247Y-138800D01*
X47569Y-139575D01*
X48080Y-140242D01*
X48746Y-140753D01*
X49522Y-141074D01*
X49448Y-141565D01*
X38650D01*
X36373Y-139287D01*
X36571Y-138807D01*
X36681Y-137975D01*
X36571Y-137142D01*
X36250Y-136367D01*
X35739Y-135701D01*
X35073Y-135189D01*
X34297Y-134868D01*
X33465Y-134758D01*
X32632Y-134868D01*
X31856Y-135189D01*
X31190Y-135701D01*
X30679Y-136367D01*
X30358Y-137142D01*
X30248Y-137975D01*
X30358Y-138807D01*
X30679Y-139583D01*
X31190Y-140249D01*
X31856Y-140761D01*
X32632Y-141082D01*
X33465Y-141191D01*
X34297Y-141082D01*
X34730Y-140902D01*
X37359Y-143531D01*
X37359Y-143531D01*
X37732Y-143781D01*
X38173Y-143869D01*
X47724D01*
X47948Y-144369D01*
X47569Y-144863D01*
X47247Y-145639D01*
X47138Y-146471D01*
X47247Y-147304D01*
X47569Y-148079D01*
X48080Y-148746D01*
X48332Y-148939D01*
X48162Y-149439D01*
X38024D01*
X36373Y-147787D01*
X36571Y-147307D01*
X36681Y-146475D01*
X36571Y-145642D01*
X36250Y-144867D01*
X35739Y-144201D01*
X35073Y-143689D01*
X34297Y-143368D01*
X33465Y-143258D01*
X32632Y-143368D01*
X31856Y-143689D01*
X31190Y-144201D01*
X30679Y-144867D01*
X30358Y-145642D01*
X30248Y-146475D01*
X30358Y-147307D01*
X30679Y-148083D01*
X31190Y-148749D01*
X31856Y-149260D01*
X32632Y-149582D01*
X33465Y-149691D01*
X34297Y-149582D01*
X34730Y-149402D01*
X36733Y-151405D01*
X37106Y-151655D01*
X37547Y-151743D01*
X46683D01*
X47165Y-151786D01*
X47165Y-152243D01*
Y-157545D01*
X37631D01*
X36373Y-156287D01*
X36571Y-155807D01*
X36681Y-154975D01*
X36571Y-154142D01*
X36250Y-153367D01*
X35739Y-152700D01*
X35073Y-152189D01*
X34297Y-151868D01*
X33465Y-151758D01*
X32632Y-151868D01*
X31856Y-152189D01*
X31190Y-152700D01*
X30679Y-153367D01*
X30358Y-154142D01*
X30248Y-154975D01*
X30358Y-155807D01*
X30679Y-156583D01*
X31190Y-157249D01*
X31856Y-157761D01*
X32632Y-158082D01*
X33465Y-158191D01*
X34297Y-158082D01*
X34730Y-157903D01*
X36339Y-159511D01*
X36713Y-159761D01*
X37154Y-159849D01*
X37154Y-159849D01*
X69678D01*
X70159Y-160170D01*
X70866Y-160311D01*
X71573Y-160170D01*
X72172Y-159770D01*
X72372Y-159471D01*
X72451Y-159351D01*
X72922Y-159546D01*
X72892Y-159700D01*
X72807Y-160126D01*
X72948Y-160832D01*
X73348Y-161431D01*
X73947Y-161831D01*
X74654Y-161972D01*
X75360Y-161831D01*
X75959Y-161431D01*
X76359Y-160832D01*
X76500Y-160126D01*
X76359Y-159419D01*
X75959Y-158820D01*
X75806Y-158717D01*
Y-136661D01*
X75718Y-136221D01*
X75468Y-135847D01*
X68303Y-128681D01*
X67929Y-128432D01*
X67488Y-128344D01*
X53342D01*
X53140Y-127855D01*
X52629Y-127189D01*
X51963Y-126678D01*
X51187Y-126356D01*
X50354Y-126247D01*
D02*
G37*
G36*
X91536Y-112537D02*
X86811D01*
X86133Y-112626D01*
X85501Y-112888D01*
X84958Y-113304D01*
X84541Y-113847D01*
X84280Y-114479D01*
X84190Y-115157D01*
X84280Y-115836D01*
X84541Y-116468D01*
X84958Y-117011D01*
X85501Y-117427D01*
X86133Y-117689D01*
X86811Y-117778D01*
X88915D01*
Y-124702D01*
X81808Y-131808D01*
X81392Y-132351D01*
X81130Y-132983D01*
X81041Y-133661D01*
Y-135827D01*
X81130Y-136505D01*
X81392Y-137137D01*
X81808Y-137680D01*
X82351Y-138096D01*
X82983Y-138358D01*
X83661Y-138448D01*
X84340Y-138358D01*
X84972Y-138096D01*
X85515Y-137680D01*
X85931Y-137137D01*
X86193Y-136505D01*
X86282Y-135827D01*
Y-134747D01*
X92621Y-128408D01*
X106299D01*
X106977Y-128319D01*
X107610Y-128057D01*
X108152Y-127641D01*
X108569Y-127098D01*
X108831Y-126466D01*
X108920Y-125787D01*
X108831Y-125109D01*
X108569Y-124477D01*
X108152Y-123934D01*
X107610Y-123518D01*
X106977Y-123256D01*
X106299Y-123167D01*
X94156D01*
Y-115158D01*
X94156Y-115157D01*
X94067Y-114479D01*
X93805Y-113847D01*
X93389Y-113304D01*
X92846Y-112888D01*
X92214Y-112626D01*
X91536Y-112537D01*
D02*
G37*
G36*
X146996Y-144905D02*
X146289Y-145046D01*
X145690Y-145446D01*
X145290Y-146045D01*
X145150Y-146752D01*
X145290Y-147459D01*
X145690Y-148058D01*
X146289Y-148458D01*
X146996Y-148599D01*
X147703Y-148458D01*
X148302Y-148058D01*
X148699Y-147463D01*
X169326D01*
X169522Y-147830D01*
X169544Y-147963D01*
X169413Y-148622D01*
X169554Y-149329D01*
X169954Y-149928D01*
X170108Y-150030D01*
Y-152157D01*
X169613Y-152316D01*
X169014Y-151916D01*
X168307Y-151776D01*
X167601Y-151916D01*
X167001Y-152316D01*
X166951Y-152391D01*
X125180D01*
X125077Y-152238D01*
X124478Y-151837D01*
X123772Y-151697D01*
X123065Y-151837D01*
X122466Y-152238D01*
X122066Y-152837D01*
X121925Y-153543D01*
X122066Y-154250D01*
X122466Y-154849D01*
X123065Y-155249D01*
X123772Y-155390D01*
X124478Y-155249D01*
X125077Y-154849D01*
X125180Y-154695D01*
X166846D01*
X167001Y-154928D01*
X167601Y-155328D01*
X168307Y-155468D01*
X169014Y-155328D01*
X169404Y-155067D01*
X169932Y-155281D01*
X169975Y-155561D01*
X169465Y-156071D01*
X164903D01*
X164476Y-155986D01*
X159534D01*
X159358Y-156021D01*
X158896Y-155929D01*
X158190Y-156070D01*
X157590Y-156470D01*
X157190Y-157069D01*
X157050Y-157776D01*
X157057Y-157812D01*
X156740Y-158198D01*
X145995D01*
X145892Y-158045D01*
X145293Y-157644D01*
X144587Y-157504D01*
X143880Y-157644D01*
X143281Y-158045D01*
X142881Y-158644D01*
X142740Y-159350D01*
X142803Y-159668D01*
X142378Y-160093D01*
X142224Y-160063D01*
X141518Y-160204D01*
X140919Y-160604D01*
X140518Y-161203D01*
X140378Y-161909D01*
X140518Y-162616D01*
X140919Y-163215D01*
X141518Y-163615D01*
X142224Y-163756D01*
X142378Y-163725D01*
X142803Y-164151D01*
X142740Y-164469D01*
X142865Y-165097D01*
X142683Y-165294D01*
X142460Y-165428D01*
X142301Y-165322D01*
X141595Y-165181D01*
X140888Y-165322D01*
X140289Y-165722D01*
X139889Y-166321D01*
X139748Y-167028D01*
X139889Y-167734D01*
X140289Y-168333D01*
X140888Y-168734D01*
X141595Y-168874D01*
X142301Y-168734D01*
X142616Y-168523D01*
X142958Y-168859D01*
X142970Y-168928D01*
X142839Y-169587D01*
X142964Y-170215D01*
X142782Y-170412D01*
X142558Y-170546D01*
X142400Y-170440D01*
X141693Y-170299D01*
X140986Y-170440D01*
X140387Y-170840D01*
X139987Y-171439D01*
X139846Y-172146D01*
X139987Y-172852D01*
X140387Y-173451D01*
X140986Y-173852D01*
X141693Y-173992D01*
X142400Y-173852D01*
X142806Y-174181D01*
X142740Y-174512D01*
X142857Y-175102D01*
X142616Y-175410D01*
X142475Y-175511D01*
X142002Y-175417D01*
X141296Y-175558D01*
X140697Y-175958D01*
X140296Y-176557D01*
X140156Y-177264D01*
X140162Y-177296D01*
X139845Y-177682D01*
X137485D01*
X136625Y-177853D01*
X135896Y-178341D01*
X131284Y-182952D01*
X130797Y-183681D01*
X130626Y-184541D01*
Y-187402D01*
X130797Y-188262D01*
X131284Y-188991D01*
X132014Y-189478D01*
X132874Y-189649D01*
X133734Y-189478D01*
X134464Y-188991D01*
X134951Y-188262D01*
X135122Y-187402D01*
Y-185472D01*
X138416Y-182178D01*
X159704D01*
X161115Y-183589D01*
X161152Y-183774D01*
X161639Y-184503D01*
X162368Y-184990D01*
X163228Y-185161D01*
X164089Y-184990D01*
X164818Y-184503D01*
X165305Y-183774D01*
X165476Y-182913D01*
Y-182523D01*
X165305Y-181663D01*
X164818Y-180934D01*
X162225Y-178341D01*
X161495Y-177853D01*
X160635Y-177682D01*
X144160D01*
X143842Y-177296D01*
X143849Y-177264D01*
X143731Y-176674D01*
X143973Y-176366D01*
X144114Y-176264D01*
X144587Y-176358D01*
X145293Y-176218D01*
X145892Y-175818D01*
X145939Y-175748D01*
X145963Y-175733D01*
X145996Y-175716D01*
X146037Y-175700D01*
X146084Y-175686D01*
X146141Y-175673D01*
X146201Y-175664D01*
X164192D01*
X164774Y-176246D01*
X164632Y-176458D01*
X164492Y-177165D01*
X164632Y-177872D01*
X165033Y-178471D01*
X165632Y-178871D01*
X166338Y-179011D01*
X167045Y-178871D01*
X167644Y-178471D01*
X168044Y-177872D01*
X168185Y-177165D01*
X168044Y-176458D01*
X167644Y-175859D01*
X167392Y-175691D01*
X167314Y-175607D01*
X167153Y-175366D01*
X165484Y-173697D01*
X165110Y-173448D01*
X164669Y-173360D01*
X163960D01*
X163725Y-172919D01*
X163769Y-172852D01*
X163909Y-172146D01*
X163769Y-171439D01*
X163635Y-171239D01*
X163902Y-170739D01*
X164587D01*
X164635Y-170982D01*
X165035Y-171581D01*
X165635Y-171982D01*
X166341Y-172122D01*
X167048Y-171982D01*
X167647Y-171581D01*
X168047Y-170982D01*
X168188Y-170276D01*
X168047Y-169569D01*
X167647Y-168970D01*
X167048Y-168570D01*
X166795Y-168519D01*
X166604Y-168058D01*
X166654Y-167982D01*
X166795Y-167276D01*
X166654Y-166569D01*
X166254Y-165970D01*
X165655Y-165570D01*
X164948Y-165429D01*
X164242Y-165570D01*
X163643Y-165970D01*
X163540Y-166123D01*
X162933D01*
X162725Y-165623D01*
X163025Y-165175D01*
X163165Y-164469D01*
X163025Y-163762D01*
X162891Y-163561D01*
X163158Y-163061D01*
X164576D01*
X164678Y-163215D01*
X165278Y-163615D01*
X165984Y-163756D01*
X166691Y-163615D01*
X167290Y-163215D01*
X167690Y-162616D01*
X167831Y-161909D01*
X167690Y-161203D01*
X167290Y-160604D01*
X166691Y-160204D01*
X165984Y-160063D01*
X165743Y-160111D01*
X165318Y-159686D01*
X165365Y-159449D01*
X165251Y-158875D01*
X165534Y-158375D01*
X169942D01*
X170383Y-158287D01*
X170757Y-158038D01*
X172074Y-156720D01*
X172261Y-156440D01*
X172732Y-156512D01*
X172761Y-156524D01*
Y-173103D01*
X172608Y-173206D01*
X172207Y-173805D01*
X172067Y-174512D01*
X172207Y-175218D01*
X172608Y-175817D01*
X173207Y-176218D01*
X173914Y-176358D01*
X174620Y-176218D01*
X175219Y-175817D01*
X175619Y-175218D01*
X175760Y-174512D01*
X175619Y-173805D01*
X175219Y-173206D01*
X175066Y-173103D01*
Y-148007D01*
X174978Y-147567D01*
X174728Y-147193D01*
X173032Y-145496D01*
X172658Y-145247D01*
X172217Y-145159D01*
X147872D01*
X147703Y-145046D01*
X146996Y-144905D01*
D02*
G37*
G36*
X179134Y-139547D02*
X178427Y-139688D01*
X177828Y-140088D01*
X177428Y-140687D01*
X177287Y-141394D01*
X177428Y-142100D01*
X177828Y-142699D01*
X177982Y-142802D01*
Y-173788D01*
X177828Y-173891D01*
X177428Y-174490D01*
X177287Y-175197D01*
X177428Y-175903D01*
X177828Y-176503D01*
X178427Y-176903D01*
X179134Y-177043D01*
X179841Y-176903D01*
X180439Y-176503D01*
X180840Y-175903D01*
X180980Y-175197D01*
X180840Y-174490D01*
X180439Y-173891D01*
X180286Y-173788D01*
Y-142802D01*
X180439Y-142699D01*
X180840Y-142100D01*
X180980Y-141394D01*
X180840Y-140687D01*
X180439Y-140088D01*
X179841Y-139688D01*
X179134Y-139547D01*
D02*
G37*
G36*
X241142Y-153264D02*
X240282Y-153435D01*
X239552Y-153922D01*
X236403Y-157072D01*
X235915Y-157801D01*
X235744Y-158661D01*
Y-182087D01*
X235915Y-182947D01*
X236403Y-183676D01*
X237132Y-184163D01*
X237992Y-184335D01*
X238852Y-184163D01*
X239582Y-183676D01*
X240069Y-182947D01*
X240240Y-182087D01*
Y-159592D01*
X242731Y-157101D01*
X243218Y-156372D01*
X243390Y-155512D01*
X243218Y-154652D01*
X242731Y-153922D01*
X242002Y-153435D01*
X241142Y-153264D01*
D02*
G37*
G36*
X77165Y-183206D02*
X76487Y-183295D01*
X75855Y-183557D01*
X75312Y-183974D01*
X74896Y-184516D01*
X74634Y-185149D01*
X74545Y-185827D01*
X74634Y-186505D01*
X74896Y-187137D01*
X75312Y-187680D01*
X75855Y-188096D01*
X76487Y-188358D01*
X77165Y-188448D01*
X77844Y-188358D01*
X78476Y-188096D01*
X79019Y-187680D01*
X79435Y-187137D01*
X79697Y-186505D01*
X79786Y-185827D01*
X79697Y-185149D01*
X79435Y-184516D01*
X79019Y-183974D01*
X78476Y-183557D01*
X77844Y-183295D01*
X77165Y-183206D01*
D02*
G37*
G36*
X104724Y-184781D02*
X91535D01*
X90857Y-184870D01*
X90225Y-185132D01*
X89682Y-185548D01*
X89266Y-186091D01*
X89004Y-186723D01*
X88915Y-187402D01*
X89004Y-188080D01*
X89266Y-188712D01*
X89682Y-189255D01*
X90225Y-189671D01*
X90857Y-189933D01*
X91535Y-190022D01*
X104724D01*
X105403Y-189933D01*
X106035Y-189671D01*
X106578Y-189255D01*
X106994Y-188712D01*
X107256Y-188080D01*
X107345Y-187402D01*
X107256Y-186723D01*
X106994Y-186091D01*
X106578Y-185548D01*
X106035Y-185132D01*
X105403Y-184870D01*
X104724Y-184781D01*
D02*
G37*
G36*
X49984Y-192219D02*
X42445D01*
Y-199758D01*
X49984D01*
Y-192219D01*
D02*
G37*
G36*
X41264D02*
X33724D01*
Y-199758D01*
X41264D01*
Y-192219D01*
D02*
G37*
G36*
X49984Y-200939D02*
X42445D01*
Y-208479D01*
X49984D01*
Y-200939D01*
D02*
G37*
G36*
X41264D02*
X33724D01*
Y-208479D01*
X41264D01*
Y-200939D01*
D02*
G37*
%LPD*%
G36*
X126463Y-124798D02*
D01*
X126496Y-124848D01*
X127021Y-125654D01*
X127021Y-125654D01*
X127021Y-125654D01*
X126015Y-126587D01*
X125894Y-125978D01*
X125706Y-125037D01*
X125767Y-125074D01*
X125831Y-125098D01*
X125899Y-125109D01*
X125970Y-125105D01*
X126044Y-125088D01*
X126121Y-125057D01*
X126202Y-125013D01*
X126286Y-124955D01*
X126373Y-124883D01*
X126463Y-124798D01*
X126463Y-124798D01*
D02*
G37*
G36*
X73501Y-137139D02*
Y-158717D01*
X73348Y-158820D01*
X73148Y-159119D01*
X73068Y-159238D01*
X72597Y-159043D01*
X72628Y-158889D01*
X72712Y-158464D01*
X72572Y-157758D01*
X72172Y-157159D01*
X71573Y-156758D01*
X70866Y-156618D01*
X70159Y-156758D01*
X69560Y-157159D01*
X69302Y-157545D01*
X53543D01*
X53543Y-151786D01*
X54026Y-151743D01*
X67436D01*
X69067Y-153373D01*
X69308Y-153534D01*
X69392Y-153612D01*
X69560Y-153865D01*
X70159Y-154265D01*
X70866Y-154405D01*
X71573Y-154265D01*
X72172Y-153865D01*
X72572Y-153265D01*
X72712Y-152559D01*
X72572Y-151852D01*
X72172Y-151253D01*
X71573Y-150853D01*
X70866Y-150712D01*
X70159Y-150853D01*
X69947Y-150995D01*
X68728Y-149776D01*
X68354Y-149526D01*
X67913Y-149439D01*
X52547D01*
X52377Y-148939D01*
X52629Y-148746D01*
X53140Y-148079D01*
X53461Y-147304D01*
X53571Y-146471D01*
X53461Y-145639D01*
X53140Y-144863D01*
X52761Y-144369D01*
X52984Y-143869D01*
X54641D01*
X58240Y-147468D01*
X58614Y-147718D01*
X59055Y-147805D01*
X69458D01*
X69560Y-147959D01*
X70159Y-148359D01*
X70866Y-148500D01*
X71573Y-148359D01*
X72172Y-147959D01*
X72572Y-147360D01*
X72712Y-146653D01*
X72572Y-145947D01*
X72172Y-145347D01*
X71573Y-144947D01*
X70866Y-144807D01*
X70159Y-144947D01*
X69560Y-145347D01*
X69458Y-145501D01*
X59532D01*
X55933Y-141902D01*
X55559Y-141652D01*
X55118Y-141565D01*
X51261D01*
X51187Y-141074D01*
X51963Y-140753D01*
X52629Y-140242D01*
X53140Y-139575D01*
X53461Y-138800D01*
X53571Y-137967D01*
X53461Y-137135D01*
X53140Y-136359D01*
X52629Y-135693D01*
X52391Y-135510D01*
X52561Y-135010D01*
X63499D01*
X69055Y-140567D01*
X69020Y-140748D01*
X69160Y-141454D01*
X69560Y-142053D01*
X70159Y-142454D01*
X70866Y-142594D01*
X71573Y-142454D01*
X72172Y-142053D01*
X72572Y-141454D01*
X72712Y-140748D01*
X72572Y-140041D01*
X72172Y-139442D01*
X71573Y-139042D01*
X70866Y-138901D01*
X70685Y-138937D01*
X64791Y-133044D01*
X64417Y-132794D01*
X63976Y-132706D01*
X52158D01*
X52026Y-132398D01*
X52018Y-132206D01*
X52629Y-131737D01*
X53140Y-131071D01*
X53315Y-130648D01*
X67011D01*
X73501Y-137139D01*
D02*
G37*
G36*
X69493Y-151458D02*
X69580Y-151530D01*
X69664Y-151588D01*
X69745Y-151632D01*
X69822Y-151663D01*
X69896Y-151680D01*
X69967Y-151683D01*
X70035Y-151673D01*
X70099Y-151649D01*
X70160Y-151612D01*
X69850Y-153161D01*
X68844Y-152229D01*
X69403Y-151373D01*
X69493Y-151458D01*
D02*
G37*
G36*
X163183Y-160581D02*
X161815Y-160587D01*
X161636Y-159587D01*
X161760Y-159583D01*
X161872Y-159572D01*
X161973Y-159553D01*
X162063Y-159526D01*
X162141Y-159492D01*
X162208Y-159450D01*
X162264Y-159401D01*
X162308Y-159345D01*
X162340Y-159280D01*
X162362Y-159208D01*
X163183Y-160581D01*
D02*
G37*
G36*
X143135Y-161145D02*
X143208Y-161200D01*
X143287Y-161249D01*
X143371Y-161292D01*
X143462Y-161328D01*
X143558Y-161357D01*
X143661Y-161380D01*
X143769Y-161396D01*
X143883Y-161406D01*
X144003Y-161409D01*
Y-162409D01*
X143883Y-162413D01*
X143769Y-162423D01*
X143661Y-162439D01*
X143558Y-162462D01*
X143462Y-162491D01*
X143371Y-162527D01*
X143287Y-162569D01*
X143208Y-162619D01*
X143135Y-162674D01*
X143068Y-162736D01*
Y-161083D01*
X143135Y-161145D01*
D02*
G37*
G36*
X160476Y-165295D02*
X160408Y-165233D01*
X160336Y-165178D01*
X160257Y-165129D01*
X160172Y-165086D01*
X160082Y-165050D01*
X159985Y-165021D01*
X159883Y-164998D01*
X159774Y-164982D01*
X159660Y-164972D01*
X159540Y-164969D01*
Y-163969D01*
X159660Y-163965D01*
X159774Y-163955D01*
X159883Y-163939D01*
X159985Y-163916D01*
X160082Y-163887D01*
X160172Y-163851D01*
X160257Y-163809D01*
X160336Y-163760D01*
X160408Y-163704D01*
X160476Y-163642D01*
Y-165295D01*
D02*
G37*
G36*
X145497Y-163704D02*
X145570Y-163760D01*
X145649Y-163809D01*
X145733Y-163851D01*
X145824Y-163887D01*
X145921Y-163916D01*
X146023Y-163939D01*
X146131Y-163955D01*
X146245Y-163965D01*
X146365Y-163969D01*
Y-164969D01*
X146245Y-164972D01*
X146131Y-164982D01*
X146023Y-164998D01*
X145921Y-165021D01*
X145824Y-165050D01*
X145733Y-165086D01*
X145649Y-165129D01*
X145570Y-165178D01*
X145497Y-165233D01*
X145430Y-165295D01*
Y-163642D01*
X145497Y-163704D01*
D02*
G37*
G36*
X145596Y-168822D02*
X145668Y-168877D01*
X145747Y-168927D01*
X145832Y-168969D01*
X145922Y-169005D01*
X146019Y-169034D01*
X146121Y-169057D01*
X146230Y-169073D01*
X146344Y-169083D01*
X146464Y-169087D01*
Y-170087D01*
X146344Y-170090D01*
X146230Y-170100D01*
X146121Y-170116D01*
X146019Y-170139D01*
X145922Y-170168D01*
X145832Y-170204D01*
X145747Y-170247D01*
X145668Y-170296D01*
X145596Y-170351D01*
X145528Y-170413D01*
Y-168760D01*
X145596Y-168822D01*
D02*
G37*
G36*
X166044Y-169133D02*
X165174Y-170455D01*
X165157Y-170385D01*
X165127Y-170322D01*
X165086Y-170267D01*
X165033Y-170219D01*
X164969Y-170179D01*
X164892Y-170146D01*
X164804Y-170120D01*
X164703Y-170101D01*
X164591Y-170090D01*
X164467Y-170087D01*
X164673Y-169087D01*
X166044Y-169133D01*
D02*
G37*
G36*
X161220Y-172972D02*
X161153Y-172910D01*
X161080Y-172855D01*
X161001Y-172806D01*
X160916Y-172763D01*
X160826Y-172727D01*
X160729Y-172698D01*
X160627Y-172675D01*
X160519Y-172659D01*
X160404Y-172649D01*
X160284Y-172646D01*
Y-171646D01*
X160404Y-171642D01*
X160519Y-171633D01*
X160627Y-171616D01*
X160729Y-171593D01*
X160826Y-171564D01*
X160916Y-171528D01*
X161001Y-171485D01*
X161080Y-171437D01*
X161153Y-171381D01*
X161220Y-171319D01*
Y-172972D01*
D02*
G37*
G36*
X142603Y-171381D02*
X142676Y-171437D01*
X142755Y-171485D01*
X142840Y-171528D01*
X142930Y-171564D01*
X143027Y-171593D01*
X143129Y-171616D01*
X143237Y-171633D01*
X143352Y-171642D01*
X143472Y-171646D01*
Y-172646D01*
X143352Y-172649D01*
X143237Y-172659D01*
X143129Y-172675D01*
X143027Y-172698D01*
X142930Y-172727D01*
X142840Y-172763D01*
X142755Y-172806D01*
X142676Y-172855D01*
X142603Y-172910D01*
X142536Y-172972D01*
Y-171319D01*
X142603Y-171381D01*
D02*
G37*
G36*
X145497Y-173747D02*
X145570Y-173803D01*
X145649Y-173852D01*
X145733Y-173894D01*
X145824Y-173930D01*
X145921Y-173960D01*
X146023Y-173982D01*
X146131Y-173999D01*
X146245Y-174009D01*
X146365Y-174012D01*
Y-175012D01*
X146245Y-175015D01*
X146131Y-175025D01*
X146023Y-175041D01*
X145921Y-175064D01*
X145824Y-175093D01*
X145733Y-175129D01*
X145649Y-175172D01*
X145570Y-175221D01*
X145497Y-175277D01*
X145430Y-175339D01*
Y-173685D01*
X145497Y-173747D01*
D02*
G37*
G36*
X166941Y-176149D02*
X165391Y-176460D01*
X165428Y-176398D01*
X165452Y-176334D01*
X165463Y-176266D01*
X165459Y-176196D01*
X165442Y-176121D01*
X165411Y-176044D01*
X165367Y-175963D01*
X165309Y-175879D01*
X165237Y-175792D01*
X165152Y-175702D01*
X166008Y-175144D01*
X166941Y-176149D01*
D02*
G37*
D10*
X159055Y-5118D02*
X203150D01*
X151774Y-12400D02*
X159055Y-5118D01*
X203150D02*
X207874Y-9843D01*
X146654Y-12400D02*
X151774D01*
D15*
X173914Y-174512D02*
Y-148007D01*
X171260Y-155905D02*
Y-148622D01*
X147437Y-146311D02*
X172217D01*
X168228Y-153543D02*
X168307Y-153622D01*
X123772Y-153543D02*
X168228D01*
X142224Y-161909D02*
X165984D01*
X144587Y-159350D02*
X157203D01*
X162880Y-160087D02*
X163518Y-159449D01*
X157939Y-160087D02*
X162880D01*
X157203Y-159350D02*
X157939Y-160087D01*
X158896Y-157776D02*
X159534Y-157138D01*
X144587Y-164469D02*
X161319D01*
X146996Y-167276D02*
X164948D01*
X141842Y-167276D02*
X146996D01*
X144685Y-169587D02*
X165652D01*
X141595Y-167028D02*
X141842Y-167276D01*
X141973Y-172146D02*
X162063D01*
X159534Y-157138D02*
X164476D01*
X163728Y-24606D02*
X169976D01*
X173914Y-28543D01*
X166338Y-177165D02*
Y-176181D01*
X165652Y-169587D02*
X166341Y-170276D01*
X164669Y-174512D02*
X166338Y-176181D01*
X179134Y-175197D02*
Y-141394D01*
X171259Y-63976D02*
X172638D01*
X173914Y-62701D01*
Y-55512D01*
X174212Y-55213D01*
X160433Y-111496D02*
X164759Y-115822D01*
Y-123421D02*
Y-115822D01*
X172217Y-146311D02*
X173914Y-148007D01*
X146996Y-146752D02*
X147437Y-146311D01*
X169942Y-157223D02*
X171260Y-155905D01*
X164561Y-157223D02*
X169942D01*
X164476Y-157138D02*
X164561Y-157223D01*
X174212Y-55213D02*
Y-53149D01*
X37154Y-158697D02*
X70634D01*
X70866Y-158464D01*
X37154Y-158697D02*
X37154Y-158697D01*
X70866Y-158464D02*
Y-158464D01*
Y-158464D02*
X71024Y-158622D01*
X144587Y-174512D02*
X164669D01*
X125492Y-126476D02*
X134843Y-117126D01*
X125492Y-126476D02*
X134843Y-117126D01*
X125492Y-126476D02*
X125492Y-126476D01*
X125492Y-126477D02*
X125492Y-126476D01*
X125295Y-126673D02*
X125492Y-126477D01*
X146996Y-167276D02*
Y-167276D01*
X125492Y-126476D02*
X125492D01*
X125492D02*
X125492D01*
X125295Y-126673D02*
X125492Y-126476D01*
X130906Y-101062D02*
Y-95443D01*
Y-101062D02*
X137154Y-107310D01*
X146457Y-22943D02*
X161417Y-7982D01*
X146457Y-28740D02*
Y-22943D01*
X142002Y-177264D02*
X142246Y-177508D01*
X69882Y-152559D02*
X70866D01*
X33465Y-155008D02*
X37154Y-158697D01*
X33465Y-146508D02*
X37547Y-150591D01*
X33465Y-129508D02*
X37815Y-133858D01*
X63976D01*
X70866Y-140748D02*
X70866Y-140748D01*
X125000Y-126378D02*
Y-125984D01*
X67488Y-129496D02*
X74654Y-136661D01*
X50354Y-129496D02*
X67488D01*
X74654Y-160126D02*
Y-136661D01*
X37547Y-150591D02*
X67913D01*
X69882Y-152559D01*
X59055Y-146653D02*
X70866D01*
X55118Y-142717D02*
X59055Y-146653D01*
X38173Y-142717D02*
X55118D01*
X33465Y-138008D02*
X38173Y-142717D01*
X63976Y-133858D02*
X70866Y-140748D01*
X134843Y-117126D02*
Y-108268D01*
X125000Y-126378D02*
X125295Y-126673D01*
X137154Y-119736D02*
Y-107310D01*
X130905Y-125984D02*
X137154Y-119736D01*
X125295Y-126673D02*
X125492Y-126476D01*
D63*
X121063Y-77756D02*
X131889Y-66929D01*
X142224Y-30512D02*
X142883D01*
X144891Y-32520D01*
X175282D01*
X177290Y-30512D01*
X178150D01*
X197728Y-64961D02*
X199803D01*
X194933Y-67756D02*
X197728Y-64961D01*
X169694Y-67756D02*
X194933D01*
X168867Y-66929D02*
X169694Y-67756D01*
X131889Y-66929D02*
X168867D01*
X91535Y-125787D02*
Y-115157D01*
X91536Y-115157D01*
X86811D02*
X91536D01*
X91535Y-125787D02*
X106299D01*
X83661Y-133661D02*
X91535Y-125787D01*
X83661Y-135827D02*
Y-133661D01*
X91535Y-187402D02*
X104724D01*
D64*
X160635Y-179930D02*
X163228Y-182523D01*
X132874Y-184541D02*
X137485Y-179930D01*
X160635D01*
X132874Y-187402D02*
Y-184541D01*
X217913Y-72244D02*
X220472Y-74803D01*
X217913Y-72244D02*
Y-56496D01*
X237992Y-158661D02*
X241142Y-155512D01*
X237992Y-182087D02*
Y-158661D01*
X163228Y-182913D02*
Y-182523D01*
D65*
X41854Y-200349D02*
D03*
Y-16097D02*
D03*
D66*
X33465Y-61475D02*
D03*
Y-69936D02*
D03*
Y-78439D02*
D03*
Y-86975D02*
D03*
Y-95475D02*
D03*
Y-103975D02*
D03*
Y-112475D02*
D03*
Y-120975D02*
D03*
Y-129475D02*
D03*
Y-137975D02*
D03*
Y-146475D02*
D03*
Y-154975D02*
D03*
X50354Y-61432D02*
D03*
Y-69936D02*
D03*
Y-78439D02*
D03*
Y-86944D02*
D03*
Y-95447D02*
D03*
Y-103951D02*
D03*
Y-112455D02*
D03*
Y-120959D02*
D03*
Y-129463D02*
D03*
Y-137967D02*
D03*
Y-146471D02*
D03*
D67*
Y-154975D02*
D03*
D68*
X168307Y-59055D02*
D03*
D69*
X158465D02*
D03*
Y-51181D02*
D03*
X168307D02*
D03*
D70*
X139685Y-40512D02*
D03*
X187087D02*
D03*
D71*
X158465Y-81693D02*
D03*
D72*
X121063Y-77756D02*
D03*
X181102Y-14764D02*
D03*
X148622Y-184103D02*
D03*
X199803Y-64961D02*
D03*
X113189Y-78740D02*
D03*
X146457Y-17717D02*
D03*
X136719Y-15637D02*
D03*
X129921Y-22638D02*
D03*
X194882Y-9843D02*
D03*
X186024D02*
D03*
X243110Y-7982D02*
D03*
X201181Y-51181D02*
D03*
X218504Y-118110D02*
D03*
X232283Y-92520D02*
D03*
X207874D02*
D03*
X196850D02*
D03*
X177165D02*
D03*
X238189Y-133858D02*
D03*
X124902Y-116962D02*
D03*
X137795Y-124015D02*
D03*
X106299Y-125787D02*
D03*
X83661Y-135827D02*
D03*
X91535Y-187402D02*
D03*
X77165Y-185827D02*
D03*
X112598Y-154805D02*
D03*
X207874Y-9843D02*
D03*
X146654Y-12400D02*
D03*
X86811Y-115157D02*
D03*
X104724Y-187402D02*
D03*
X103740Y-60787D02*
D03*
X78150Y-124803D02*
D03*
X57244D02*
D03*
X57480Y-115748D02*
D03*
X103543Y-138189D02*
D03*
X111417Y-123228D02*
D03*
X120472Y-123385D02*
D03*
X237795Y-51181D02*
D03*
X210236Y-37205D02*
D03*
X180187Y-83071D02*
D03*
X201181Y-86563D02*
D03*
X214567Y-86221D02*
D03*
X239764D02*
D03*
X227165D02*
D03*
X249213Y-186221D02*
D03*
Y-177559D02*
D03*
X232283Y-185015D02*
D03*
X110974Y-198819D02*
D03*
X137549D02*
D03*
X128691D02*
D03*
X119685D02*
D03*
X57480Y-201772D02*
D03*
X57087Y-192913D02*
D03*
X78150Y-209646D02*
D03*
D73*
X142224Y-30512D02*
D03*
X178150D02*
D03*
X220472Y-74803D02*
D03*
X217913Y-56496D02*
D03*
X241142Y-155512D02*
D03*
X237992Y-182087D02*
D03*
X163228Y-182913D02*
D03*
X173914Y-174512D02*
D03*
X171260Y-148622D02*
D03*
X168307Y-153622D02*
D03*
X132874Y-187402D02*
D03*
X123772Y-153543D02*
D03*
X165984Y-161909D02*
D03*
X144587Y-159350D02*
D03*
X158896Y-157776D02*
D03*
X161319Y-164469D02*
D03*
X144587D02*
D03*
X144685Y-169587D02*
D03*
X141693Y-172146D02*
D03*
X141595Y-167028D02*
D03*
X163518Y-159449D02*
D03*
X164948Y-167276D02*
D03*
X162063Y-172146D02*
D03*
X163728Y-24606D02*
D03*
X166338Y-177165D02*
D03*
X166341Y-170276D02*
D03*
X179134Y-175197D02*
D03*
X171259Y-63976D02*
D03*
X164759Y-123421D02*
D03*
X160433Y-111496D02*
D03*
X173914Y-28543D02*
D03*
X174212Y-53149D02*
D03*
X70866Y-158464D02*
D03*
X179134Y-141394D02*
D03*
X144587Y-174512D02*
D03*
X146996Y-146752D02*
D03*
X130906Y-95443D02*
D03*
X146457Y-28740D02*
D03*
X142002Y-177264D02*
D03*
X161417Y-7982D02*
D03*
X74654Y-160126D02*
D03*
X70866Y-152559D02*
D03*
Y-146653D02*
D03*
Y-140748D02*
D03*
X134843Y-108268D02*
D03*
X125000Y-125984D02*
D03*
X142224Y-161909D02*
D03*
X130905Y-125984D02*
D03*
M02*
