G04*
G04 #@! TF.GenerationSoftware,Altium Limited,Altium Designer,18.1.7 (191)*
G04*
G04 Layer_Physical_Order=1*
G04 Layer_Color=255*
%FSLAX25Y25*%
%MOIN*%
G70*
G01*
G75*
%ADD10C,0.01968*%
%ADD14C,0.01575*%
%ADD15C,0.01000*%
%ADD18R,0.07874X0.03937*%
%ADD19O,0.07874X0.03937*%
%ADD20R,0.04528X0.05709*%
%ADD21R,0.07480X0.05315*%
%ADD22O,0.10039X0.01575*%
%ADD23R,0.05709X0.04528*%
%ADD24R,0.05906X0.04921*%
%ADD25R,0.03150X0.02362*%
%ADD26R,0.04921X0.05906*%
%ADD27R,0.05315X0.07480*%
%ADD28R,0.03898X0.05472*%
%ADD29R,0.03937X0.06693*%
%ADD30R,0.12795X0.06693*%
%ADD31R,0.03602X0.04803*%
%ADD32R,0.19685X0.19685*%
%ADD33R,0.03543X0.07874*%
%ADD34R,0.07874X0.03543*%
G04:AMPARAMS|DCode=35|XSize=17.72mil|YSize=62.99mil|CornerRadius=1.95mil|HoleSize=0mil|Usage=FLASHONLY|Rotation=270.000|XOffset=0mil|YOffset=0mil|HoleType=Round|Shape=RoundedRectangle|*
%AMROUNDEDRECTD35*
21,1,0.01772,0.05909,0,0,270.0*
21,1,0.01382,0.06299,0,0,270.0*
1,1,0.00390,-0.02955,-0.00691*
1,1,0.00390,-0.02955,0.00691*
1,1,0.00390,0.02955,0.00691*
1,1,0.00390,0.02955,-0.00691*
%
%ADD35ROUNDEDRECTD35*%
%ADD62C,0.01181*%
%ADD63C,0.03937*%
%ADD64C,0.03150*%
%ADD65R,0.15000X0.15000*%
%ADD66C,0.05118*%
%ADD67R,0.05118X0.05118*%
%ADD68R,0.05315X0.05315*%
%ADD69C,0.05315*%
%ADD70C,0.10827*%
%ADD71C,0.23622*%
%ADD72C,0.03937*%
%ADD73C,0.02362*%
G36*
X160574Y-8809D02*
X160507Y-8747D01*
X160434Y-8691D01*
X160355Y-8642D01*
X160271Y-8600D01*
X160180Y-8564D01*
X160083Y-8535D01*
X159981Y-8512D01*
X159873Y-8495D01*
X159807Y-8490D01*
X159399Y-8519D01*
X159263Y-8540D01*
X159028Y-8595D01*
X158929Y-8630D01*
X158842Y-8669D01*
X158767Y-8713D01*
Y-7252D01*
X158842Y-7296D01*
X158929Y-7335D01*
X159028Y-7369D01*
X159140Y-7399D01*
X159263Y-7425D01*
X159547Y-7462D01*
X159707Y-7473D01*
X159800Y-7475D01*
X159873Y-7469D01*
X159981Y-7453D01*
X160083Y-7430D01*
X160180Y-7401D01*
X160271Y-7365D01*
X160355Y-7322D01*
X160434Y-7273D01*
X160507Y-7218D01*
X160574Y-7155D01*
Y-8809D01*
D02*
G37*
G36*
X112906Y-8193D02*
X111897D01*
X111898Y-8188D01*
X111899Y-8173D01*
X111902Y-7677D01*
X112902D01*
X112906Y-8193D01*
D02*
G37*
G36*
X149697Y-8713D02*
X149622Y-8669D01*
X149535Y-8630D01*
X149436Y-8595D01*
X149325Y-8565D01*
X149201Y-8540D01*
X148917Y-8503D01*
X148758Y-8491D01*
X148401Y-8482D01*
Y-7482D01*
X148586Y-7480D01*
X149065Y-7445D01*
X149201Y-7425D01*
X149436Y-7369D01*
X149535Y-7335D01*
X149622Y-7296D01*
X149697Y-7252D01*
Y-8713D01*
D02*
G37*
G36*
X138300Y-13472D02*
X138268Y-13343D01*
X138173Y-13228D01*
X138016Y-13127D01*
X137795Y-13039D01*
X137512Y-12964D01*
X137166Y-12903D01*
X136819Y-12863D01*
X136260Y-12903D01*
X135913Y-12964D01*
X135630Y-13039D01*
X135409Y-13127D01*
X135252Y-13228D01*
X135157Y-13343D01*
X135126Y-13472D01*
Y-8969D01*
X135157Y-9097D01*
X135252Y-9212D01*
X135409Y-9314D01*
X135630Y-9402D01*
X135913Y-9476D01*
X136260Y-9537D01*
X136606Y-9577D01*
X137166Y-9537D01*
X137512Y-9476D01*
X137795Y-9402D01*
X138016Y-9314D01*
X138173Y-9212D01*
X138268Y-9097D01*
X138300Y-8969D01*
Y-13472D01*
D02*
G37*
G36*
X186529Y-10130D02*
X186544Y-10301D01*
X186569Y-10453D01*
X186604Y-10585D01*
X186649Y-10696D01*
X186704Y-10787D01*
X186769Y-10858D01*
X186844Y-10909D01*
X186929Y-10939D01*
X187024Y-10949D01*
X185024D01*
X185119Y-10939D01*
X185204Y-10909D01*
X185279Y-10858D01*
X185344Y-10787D01*
X185399Y-10696D01*
X185444Y-10585D01*
X185479Y-10453D01*
X185504Y-10301D01*
X185519Y-10130D01*
X185524Y-9937D01*
X186524D01*
X186529Y-10130D01*
D02*
G37*
G36*
X187235Y-11420D02*
X187085Y-11591D01*
X186954Y-11761D01*
X186840Y-11930D01*
X186743Y-12098D01*
X186664Y-12266D01*
X186603Y-12433D01*
X186559Y-12598D01*
X186532Y-12763D01*
X186524Y-12928D01*
X185524D01*
X185515Y-12763D01*
X185488Y-12598D01*
X185445Y-12433D01*
X185383Y-12266D01*
X185304Y-12098D01*
X185208Y-11930D01*
X185093Y-11761D01*
X184962Y-11591D01*
X184812Y-11420D01*
X184646Y-11248D01*
X187402D01*
X187235Y-11420D01*
D02*
G37*
G36*
X148464Y-11594D02*
X148541Y-11679D01*
X148634Y-11754D01*
X148744Y-11818D01*
X148872Y-11873D01*
X149016Y-11918D01*
X149177Y-11953D01*
X149355Y-11978D01*
X149550Y-11993D01*
X149762Y-11998D01*
X149026Y-13966D01*
X148808Y-13968D01*
X147966Y-14026D01*
X147847Y-14048D01*
X147744Y-14072D01*
X147658Y-14100D01*
X147589Y-14132D01*
X148404Y-11499D01*
X148464Y-11594D01*
D02*
G37*
G36*
X180296Y-16560D02*
X180045Y-16450D01*
X179172Y-16127D01*
X178987Y-16075D01*
X178662Y-16007D01*
X178494Y-16019D01*
X178358Y-16040D01*
X178123Y-16095D01*
X178024Y-16130D01*
X177937Y-16169D01*
X177862Y-16213D01*
Y-14752D01*
X177937Y-14796D01*
X178024Y-14835D01*
X178123Y-14869D01*
X178235Y-14899D01*
X178358Y-14925D01*
X178363Y-14925D01*
X178464Y-14893D01*
X178611Y-14824D01*
X178749Y-14735D01*
X178877Y-14626D01*
X178995Y-14498D01*
X179103Y-14350D01*
X179201Y-14182D01*
X179290Y-13994D01*
X180296Y-16560D01*
D02*
G37*
G36*
X158842Y-14796D02*
X158929Y-14835D01*
X159028Y-14869D01*
X159140Y-14899D01*
X159263Y-14925D01*
X159547Y-14962D01*
X159707Y-14973D01*
X160063Y-14982D01*
Y-15982D01*
X159879Y-15984D01*
X159399Y-16019D01*
X159263Y-16040D01*
X159028Y-16095D01*
X158929Y-16130D01*
X158842Y-16169D01*
X158767Y-16213D01*
Y-14752D01*
X158842Y-14796D01*
D02*
G37*
G36*
X164228Y-14156D02*
X163228Y-16363D01*
X163224Y-16177D01*
X163209Y-16022D01*
X163186Y-15895D01*
X163153Y-15798D01*
X163110Y-15731D01*
X163058Y-15693D01*
X162996Y-15685D01*
X162926Y-15705D01*
X162845Y-15756D01*
X162755Y-15836D01*
X162521Y-14656D01*
X162656Y-14511D01*
X162776Y-14361D01*
X162882Y-14205D01*
X162974Y-14043D01*
X163052Y-13875D01*
X163115Y-13702D01*
X163165Y-13522D01*
X163200Y-13337D01*
X163221Y-13146D01*
X163228Y-12948D01*
X164228Y-14156D01*
D02*
G37*
G36*
X125000Y-816D02*
X107283D01*
X106843Y-904D01*
X106469Y-1154D01*
X102532Y-5091D01*
X102282Y-5465D01*
X102194Y-5906D01*
Y-25098D01*
X102282Y-25539D01*
X102532Y-25913D01*
X108044Y-31425D01*
X108417Y-31675D01*
X108858Y-31762D01*
X109409D01*
Y-32421D01*
X113819D01*
Y-28799D01*
X109409D01*
Y-28825D01*
X108909Y-29032D01*
X104499Y-24621D01*
Y-6383D01*
X107761Y-3121D01*
X125000D01*
Y-3769D01*
X115157D01*
X114716Y-3857D01*
X114716Y-3857D01*
X114343Y-4107D01*
X111587Y-6863D01*
X111337Y-7236D01*
X111277Y-7539D01*
X108819D01*
Y-13721D01*
X115984D01*
Y-7539D01*
X114822D01*
X114630Y-7078D01*
X115635Y-6073D01*
X125000D01*
Y-7032D01*
X124493Y-7539D01*
X119449D01*
Y-13721D01*
X125000D01*
Y-15807D01*
X119449D01*
Y-17745D01*
X115984D01*
Y-15807D01*
X108819D01*
Y-21988D01*
X115984D01*
Y-20050D01*
X116565D01*
Y-51210D01*
X115197D01*
Y-49272D01*
X108031D01*
Y-55453D01*
X115197D01*
Y-53514D01*
X119843D01*
Y-55453D01*
X125000D01*
Y-68627D01*
X121516D01*
Y-71619D01*
X124606D01*
Y-72800D01*
X121516D01*
Y-75792D01*
X125000D01*
Y-92520D01*
X125170Y-114104D01*
X124902Y-114341D01*
X124457Y-114400D01*
X123957Y-114051D01*
Y-113189D01*
X121063D01*
Y-115492D01*
X122157D01*
X122491Y-115992D01*
X122370Y-116284D01*
X122303Y-116791D01*
X116988D01*
Y-122579D01*
X117481D01*
X117892Y-123079D01*
X117852Y-123385D01*
X117941Y-124063D01*
X118203Y-124695D01*
X118619Y-125238D01*
X119162Y-125655D01*
X119794Y-125917D01*
X120472Y-126006D01*
X121151Y-125917D01*
X121783Y-125655D01*
X122326Y-125238D01*
X122742Y-124695D01*
X123004Y-124063D01*
X123093Y-123385D01*
X123053Y-123079D01*
X123463Y-122579D01*
X123957D01*
Y-119873D01*
X124457Y-119524D01*
X124902Y-119583D01*
X125215Y-119856D01*
X125247Y-123933D01*
X125000Y-124137D01*
X124293Y-124278D01*
X123694Y-124678D01*
X123294Y-125277D01*
X123153Y-125984D01*
X123294Y-126691D01*
X123694Y-127290D01*
X124293Y-127690D01*
X125000Y-127831D01*
X125282Y-128283D01*
X125391Y-142125D01*
X125038Y-142480D01*
X123819D01*
Y-146063D01*
X122638D01*
Y-142480D01*
X120138D01*
X120138Y-142480D01*
X119690Y-142355D01*
X119615Y-141980D01*
X119366Y-141606D01*
X99971Y-122212D01*
Y-108386D01*
X103386D01*
Y-103189D01*
X102747D01*
X102578Y-102689D01*
X102641Y-102641D01*
X103057Y-102098D01*
X103123Y-101939D01*
X104976D01*
X108870Y-105834D01*
X109244Y-106084D01*
X109685Y-106172D01*
X109747D01*
X109836Y-106305D01*
X110109Y-106488D01*
X110431Y-106552D01*
X116340D01*
X116662Y-106488D01*
X116935Y-106305D01*
X117118Y-106032D01*
X117182Y-105710D01*
Y-104329D01*
X117118Y-104007D01*
X116939Y-103740D01*
X117118Y-103473D01*
X117182Y-103152D01*
Y-103051D01*
X113386D01*
Y-101870D01*
X117182D01*
Y-101770D01*
X117118Y-101448D01*
X116939Y-101181D01*
X117118Y-100914D01*
X117182Y-100593D01*
Y-99211D01*
X117118Y-98889D01*
X116939Y-98622D01*
X117118Y-98355D01*
X117182Y-98033D01*
Y-96652D01*
X117118Y-96330D01*
X116939Y-96063D01*
X117118Y-95796D01*
X117182Y-95474D01*
Y-94093D01*
X117118Y-93771D01*
X116939Y-93504D01*
X117118Y-93237D01*
X117182Y-92915D01*
Y-91533D01*
X117118Y-91212D01*
X116939Y-90945D01*
X117118Y-90678D01*
X117182Y-90356D01*
Y-88974D01*
X117118Y-88653D01*
X116939Y-88386D01*
X117118Y-88119D01*
X117182Y-87797D01*
Y-86415D01*
X117118Y-86093D01*
X116939Y-85827D01*
X117118Y-85560D01*
X117182Y-85238D01*
Y-83856D01*
X117118Y-83534D01*
X116939Y-83268D01*
X117118Y-83001D01*
X117182Y-82679D01*
Y-81297D01*
X117118Y-80975D01*
X116935Y-80703D01*
X116662Y-80520D01*
X116340Y-80456D01*
X115778D01*
X115626Y-80263D01*
X115498Y-79956D01*
X115720Y-79418D01*
X115810Y-78740D01*
X115720Y-78062D01*
X115459Y-77430D01*
X115042Y-76887D01*
X114499Y-76471D01*
X114070Y-76293D01*
X114169Y-75792D01*
X119429D01*
Y-68627D01*
X117717D01*
Y-67549D01*
X117629Y-67108D01*
X117379Y-66734D01*
X105933Y-55288D01*
X105559Y-55038D01*
X105118Y-54950D01*
X66890D01*
X66449Y-55038D01*
X66075Y-55288D01*
X63196Y-58167D01*
X60236D01*
X59558Y-58256D01*
X58926Y-58518D01*
X58383Y-58934D01*
X57967Y-59477D01*
X57705Y-60109D01*
X57615Y-60787D01*
X57705Y-61466D01*
X57967Y-62098D01*
X58383Y-62641D01*
X58858Y-63005D01*
X58895Y-63287D01*
X58858Y-63570D01*
X58383Y-63934D01*
X57967Y-64477D01*
X57901Y-64635D01*
X52198D01*
X52179Y-64603D01*
X52069Y-64135D01*
X52629Y-63706D01*
X53140Y-63040D01*
X53461Y-62264D01*
X53571Y-61432D01*
X53461Y-60599D01*
X53140Y-59824D01*
X52629Y-59157D01*
X51963Y-58646D01*
X51187Y-58325D01*
X50354Y-58215D01*
X49522Y-58325D01*
X48746Y-58646D01*
X48080Y-59157D01*
X47569Y-59824D01*
X47247Y-60599D01*
X47138Y-61432D01*
X47247Y-62264D01*
X47569Y-63040D01*
X48080Y-63706D01*
X48639Y-64135D01*
X48529Y-64603D01*
X48511Y-64635D01*
X47488D01*
X47047Y-64723D01*
X46674Y-64973D01*
X40524Y-71122D01*
X40274Y-71496D01*
X40187Y-71937D01*
Y-112657D01*
X34776Y-118067D01*
X34297Y-117868D01*
X33465Y-117758D01*
X32632Y-117868D01*
X31856Y-118189D01*
X31190Y-118701D01*
X30679Y-119367D01*
X30358Y-120142D01*
X30248Y-120975D01*
X30358Y-121807D01*
X30679Y-122583D01*
X31190Y-123249D01*
X31856Y-123760D01*
X32632Y-124082D01*
X33465Y-124191D01*
X34297Y-124082D01*
X35073Y-123760D01*
X35739Y-123249D01*
X36250Y-122583D01*
X36571Y-121807D01*
X36681Y-120975D01*
X36571Y-120142D01*
X36392Y-119710D01*
X42153Y-113948D01*
X42403Y-113575D01*
X42491Y-113134D01*
Y-72414D01*
X47746Y-67159D01*
X47874Y-67189D01*
X47977Y-67424D01*
X48022Y-67737D01*
X47569Y-68327D01*
X47247Y-69103D01*
X47138Y-69936D01*
X47247Y-70768D01*
X47569Y-71544D01*
X48080Y-72210D01*
X48746Y-72721D01*
X49522Y-73042D01*
X50354Y-73152D01*
X51187Y-73042D01*
X51963Y-72721D01*
X52629Y-72210D01*
X52836Y-71939D01*
X57901D01*
X57967Y-72098D01*
X58383Y-72641D01*
X58858Y-73005D01*
X58895Y-73287D01*
X58858Y-73570D01*
X58383Y-73934D01*
X57967Y-74477D01*
X57901Y-74635D01*
X53039D01*
X52599Y-74723D01*
X52225Y-74973D01*
X51666Y-75531D01*
X51187Y-75333D01*
X50354Y-75223D01*
X49522Y-75333D01*
X48746Y-75654D01*
X48080Y-76165D01*
X47569Y-76831D01*
X47247Y-77607D01*
X47138Y-78439D01*
X47247Y-79272D01*
X47569Y-80048D01*
X48080Y-80714D01*
X48746Y-81225D01*
X49522Y-81546D01*
X50354Y-81656D01*
X51187Y-81546D01*
X51963Y-81225D01*
X52629Y-80714D01*
X53140Y-80048D01*
X53461Y-79272D01*
X53571Y-78439D01*
X53461Y-77607D01*
X53366Y-77377D01*
X53701Y-76939D01*
X57901D01*
X57967Y-77098D01*
X58383Y-77641D01*
X58858Y-78005D01*
X58895Y-78287D01*
X58858Y-78570D01*
X58383Y-78934D01*
X57967Y-79477D01*
X57901Y-79635D01*
X56543D01*
X56103Y-79723D01*
X55729Y-79973D01*
X51666Y-84035D01*
X51187Y-83837D01*
X50354Y-83727D01*
X49522Y-83837D01*
X48746Y-84158D01*
X48080Y-84669D01*
X47569Y-85335D01*
X47247Y-86111D01*
X47138Y-86944D01*
X47247Y-87776D01*
X47569Y-88552D01*
X48080Y-89218D01*
X48746Y-89729D01*
X49522Y-90050D01*
X50278Y-90150D01*
X50548Y-90586D01*
X49540Y-91595D01*
X49290Y-91969D01*
X49202Y-92409D01*
Y-92473D01*
X48746Y-92662D01*
X48080Y-93173D01*
X47569Y-93839D01*
X47247Y-94615D01*
X47138Y-95447D01*
X47247Y-96280D01*
X47569Y-97056D01*
X48080Y-97722D01*
X48746Y-98233D01*
X49522Y-98554D01*
X50354Y-98664D01*
X50399Y-98658D01*
X50621Y-99107D01*
X49540Y-100187D01*
X49290Y-100561D01*
X49208Y-100975D01*
X48746Y-101166D01*
X48080Y-101677D01*
X47569Y-102343D01*
X47247Y-103119D01*
X47138Y-103951D01*
X47247Y-104784D01*
X47569Y-105560D01*
X48080Y-106226D01*
X48746Y-106737D01*
X49522Y-107058D01*
X50087Y-107132D01*
X50266Y-107660D01*
X49540Y-108387D01*
X49290Y-108760D01*
X49202Y-109201D01*
Y-109403D01*
X49193Y-109468D01*
X49189Y-109486D01*
X48746Y-109670D01*
X48080Y-110181D01*
X47569Y-110847D01*
X47247Y-111623D01*
X47138Y-112455D01*
X47247Y-113288D01*
X47569Y-114064D01*
X48080Y-114730D01*
X48746Y-115241D01*
X49522Y-115562D01*
X50087Y-115637D01*
X50266Y-116165D01*
X49540Y-116891D01*
X49290Y-117264D01*
X49202Y-117705D01*
Y-117907D01*
X49193Y-117972D01*
X49189Y-117990D01*
X48746Y-118174D01*
X48080Y-118685D01*
X47569Y-119351D01*
X47247Y-120127D01*
X47138Y-120959D01*
X47247Y-121792D01*
X47569Y-122568D01*
X48080Y-123234D01*
X48746Y-123745D01*
X49522Y-124066D01*
X50354Y-124176D01*
X51187Y-124066D01*
X51963Y-123745D01*
X52629Y-123234D01*
X53140Y-122568D01*
X53461Y-121792D01*
X53571Y-120959D01*
X53461Y-120127D01*
X53140Y-119351D01*
X52629Y-118685D01*
X52109Y-118286D01*
X51987Y-117702D01*
X54418Y-115271D01*
X54892Y-115504D01*
X54860Y-115748D01*
X54949Y-116426D01*
X55211Y-117058D01*
X55627Y-117601D01*
X56170Y-118018D01*
X56802Y-118280D01*
X57480Y-118369D01*
X57557Y-118359D01*
X57933Y-118688D01*
Y-119232D01*
X63721D01*
Y-112264D01*
X58132D01*
X57919Y-111769D01*
X57952Y-111736D01*
X58202Y-111363D01*
X58290Y-110922D01*
Y-108199D01*
X58790Y-107953D01*
X58926Y-108057D01*
X59462Y-108279D01*
X59462Y-108280D01*
X59463Y-108280D01*
X59558Y-108319D01*
X59617Y-108327D01*
X59947Y-108390D01*
X60278Y-108491D01*
X60633Y-108637D01*
X61004Y-108825D01*
X61846Y-109363D01*
X62276Y-109691D01*
X63230Y-110520D01*
X63271Y-110560D01*
X65020Y-112309D01*
Y-115157D01*
X67913D01*
Y-116339D01*
X65020D01*
Y-118589D01*
X65019Y-118590D01*
X65020Y-118592D01*
Y-119232D01*
X65149D01*
X65246Y-120879D01*
X65204Y-121462D01*
X65197Y-121516D01*
X65020D01*
Y-122156D01*
X65019Y-122158D01*
X65020Y-122159D01*
Y-124409D01*
X67913D01*
X70807D01*
Y-122159D01*
X70807Y-122158D01*
X70807Y-122156D01*
Y-121516D01*
X70678D01*
X70581Y-119869D01*
X70623Y-119286D01*
X70630Y-119232D01*
X70807D01*
Y-118725D01*
X70823Y-118714D01*
X71002Y-118640D01*
X71291Y-118562D01*
X71664Y-118494D01*
X72505Y-118432D01*
X72936Y-118464D01*
X73326Y-118519D01*
X73627Y-118582D01*
X73779Y-118631D01*
Y-119035D01*
X74420D01*
X74422Y-119036D01*
X74423Y-119035D01*
X77559D01*
Y-115748D01*
Y-112461D01*
X74423D01*
X74422Y-112460D01*
X74420Y-112461D01*
X73779D01*
Y-112865D01*
X73627Y-112914D01*
X73347Y-112973D01*
X72153Y-113061D01*
X72150Y-113061D01*
X71678Y-113004D01*
X71291Y-112934D01*
X71002Y-112856D01*
X70823Y-112782D01*
X70807Y-112771D01*
Y-112264D01*
X70534D01*
Y-111496D01*
X70445Y-110818D01*
X70183Y-110186D01*
X69767Y-109643D01*
X68749Y-108625D01*
X68716Y-108590D01*
X67964Y-107716D01*
X67663Y-107310D01*
X67401Y-106914D01*
X67182Y-106535D01*
X67005Y-106173D01*
X66870Y-105828D01*
X66775Y-105501D01*
X66713Y-105170D01*
X66705Y-105109D01*
X66680Y-105049D01*
X66680Y-105048D01*
X66680Y-105048D01*
X66443Y-104477D01*
X66027Y-103934D01*
X65552Y-103570D01*
X65514Y-103287D01*
X65552Y-103005D01*
X66027Y-102641D01*
X66443Y-102098D01*
X66705Y-101466D01*
X66794Y-100787D01*
X66705Y-100109D01*
X66443Y-99477D01*
X66027Y-98934D01*
X65552Y-98570D01*
X65514Y-98287D01*
X65552Y-98005D01*
X66027Y-97641D01*
X66443Y-97098D01*
X66705Y-96466D01*
X66794Y-95787D01*
X66705Y-95109D01*
X66443Y-94477D01*
X66027Y-93934D01*
X65552Y-93570D01*
X65514Y-93287D01*
X65552Y-93005D01*
X66027Y-92641D01*
X66443Y-92098D01*
X66705Y-91466D01*
X66794Y-90787D01*
X66705Y-90109D01*
X66443Y-89477D01*
X66027Y-88934D01*
X65552Y-88570D01*
X65514Y-88287D01*
X65552Y-88005D01*
X66027Y-87641D01*
X66443Y-87098D01*
X66705Y-86466D01*
X66794Y-85787D01*
X66705Y-85109D01*
X66443Y-84477D01*
X66027Y-83934D01*
X65552Y-83570D01*
X65514Y-83287D01*
X65552Y-83005D01*
X66027Y-82641D01*
X66443Y-82098D01*
X66705Y-81466D01*
X66794Y-80787D01*
X66705Y-80109D01*
X66443Y-79477D01*
X66027Y-78934D01*
X65552Y-78570D01*
X65514Y-78287D01*
X65552Y-78005D01*
X66027Y-77641D01*
X66443Y-77098D01*
X66705Y-76466D01*
X66794Y-75787D01*
X66705Y-75109D01*
X66443Y-74477D01*
X66027Y-73934D01*
X65552Y-73570D01*
X65514Y-73287D01*
X65552Y-73005D01*
X66027Y-72641D01*
X66443Y-72098D01*
X66705Y-71466D01*
X66794Y-70787D01*
X66705Y-70109D01*
X66443Y-69477D01*
X66027Y-68934D01*
X65552Y-68570D01*
X65514Y-68287D01*
X65552Y-68005D01*
X66027Y-67641D01*
X66443Y-67098D01*
X66705Y-66466D01*
X66794Y-65787D01*
X66705Y-65109D01*
X66443Y-64477D01*
X66027Y-63934D01*
X65552Y-63570D01*
X65514Y-63287D01*
X65552Y-63005D01*
X66027Y-62641D01*
X66443Y-62098D01*
X66705Y-61466D01*
X66794Y-60787D01*
X66705Y-60109D01*
X66443Y-59477D01*
X66027Y-58934D01*
X66006Y-58616D01*
X67367Y-57254D01*
X104641D01*
X115412Y-68026D01*
Y-68627D01*
X113248D01*
Y-75625D01*
X113225Y-75818D01*
X112916Y-76155D01*
X112511Y-76209D01*
X111879Y-76471D01*
X111336Y-76887D01*
X110919Y-77430D01*
X110758Y-77818D01*
X110258Y-77719D01*
Y-67768D01*
X110171Y-67327D01*
X109921Y-66953D01*
X107941Y-64973D01*
X107567Y-64723D01*
X107126Y-64635D01*
X103123D01*
X103057Y-64477D01*
X102641Y-63934D01*
X102458Y-63794D01*
X102440Y-63299D01*
X102493Y-63191D01*
X102651Y-63149D01*
X103062Y-63319D01*
X103740Y-63408D01*
X104419Y-63319D01*
X105051Y-63057D01*
X105593Y-62641D01*
X106010Y-62098D01*
X106272Y-61466D01*
X106361Y-60787D01*
X106272Y-60109D01*
X106010Y-59477D01*
X105593Y-58934D01*
X105051Y-58518D01*
X104419Y-58256D01*
X103740Y-58167D01*
X103062Y-58256D01*
X102430Y-58518D01*
X102264Y-58645D01*
X102098Y-58518D01*
X101466Y-58256D01*
X100787Y-58167D01*
X96851D01*
X96172Y-58256D01*
X95540Y-58518D01*
X94997Y-58934D01*
X94581Y-59477D01*
X94319Y-60109D01*
X94230Y-60787D01*
X94319Y-61466D01*
X94581Y-62098D01*
X94997Y-62641D01*
X95472Y-63005D01*
X95509Y-63287D01*
X95472Y-63570D01*
X94997Y-63934D01*
X94581Y-64477D01*
X94319Y-65109D01*
X94230Y-65787D01*
X94319Y-66466D01*
X94581Y-67098D01*
X94997Y-67641D01*
X95472Y-68005D01*
X95509Y-68287D01*
X95472Y-68570D01*
X94997Y-68934D01*
X94581Y-69477D01*
X94319Y-70109D01*
X94230Y-70787D01*
X94319Y-71466D01*
X94581Y-72098D01*
X94997Y-72641D01*
X95472Y-73005D01*
X95509Y-73287D01*
X95472Y-73570D01*
X94997Y-73934D01*
X94581Y-74477D01*
X94319Y-75109D01*
X94230Y-75787D01*
X94319Y-76466D01*
X94581Y-77098D01*
X94997Y-77641D01*
X95472Y-78005D01*
X95509Y-78287D01*
X95472Y-78570D01*
X94997Y-78934D01*
X94581Y-79477D01*
X94319Y-80109D01*
X94230Y-80787D01*
X94319Y-81466D01*
X94581Y-82098D01*
X94997Y-82641D01*
X95472Y-83005D01*
X95509Y-83287D01*
X95472Y-83570D01*
X94997Y-83934D01*
X94581Y-84477D01*
X94319Y-85109D01*
X94230Y-85787D01*
X94319Y-86466D01*
X94581Y-87098D01*
X94997Y-87641D01*
X95472Y-88005D01*
X95509Y-88287D01*
X95472Y-88570D01*
X94997Y-88934D01*
X94581Y-89477D01*
X94319Y-90109D01*
X94230Y-90787D01*
X94319Y-91466D01*
X94581Y-92098D01*
X94997Y-92641D01*
X95472Y-93005D01*
X95509Y-93287D01*
X95472Y-93570D01*
X94997Y-93934D01*
X94581Y-94477D01*
X94319Y-95109D01*
X94230Y-95787D01*
X94319Y-96466D01*
X94581Y-97098D01*
X94997Y-97641D01*
X95472Y-98005D01*
X95509Y-98287D01*
X95472Y-98570D01*
X94997Y-98934D01*
X94581Y-99477D01*
X94319Y-100109D01*
X94230Y-100787D01*
X94319Y-101466D01*
X94581Y-102098D01*
X94997Y-102641D01*
X95060Y-102689D01*
X94891Y-103189D01*
X94252D01*
Y-108386D01*
X97667D01*
Y-122689D01*
X97755Y-123130D01*
X98004Y-123504D01*
X105577Y-131076D01*
X105370Y-131576D01*
X82520D01*
Y-125059D01*
X80995D01*
X80770Y-124803D01*
X80681Y-124125D01*
X80419Y-123493D01*
X80003Y-122950D01*
X79460Y-122533D01*
X78828Y-122272D01*
X78150Y-122182D01*
X77471Y-122272D01*
X76839Y-122533D01*
X76296Y-122950D01*
X75880Y-123493D01*
X75618Y-124125D01*
X75529Y-124803D01*
X75304Y-125059D01*
X73779D01*
Y-131576D01*
X68098D01*
X67658Y-131664D01*
X67284Y-131914D01*
X63196Y-136001D01*
X60236D01*
X59558Y-136091D01*
X58926Y-136352D01*
X58383Y-136769D01*
X57967Y-137312D01*
X57705Y-137944D01*
X57615Y-138622D01*
X57705Y-139300D01*
X57967Y-139932D01*
X58383Y-140475D01*
X58858Y-140839D01*
X58895Y-141122D01*
X58858Y-141405D01*
X58383Y-141769D01*
X57967Y-142312D01*
X57705Y-142944D01*
X57615Y-143622D01*
X57705Y-144300D01*
X57967Y-144932D01*
X58383Y-145475D01*
X58858Y-145839D01*
X58895Y-146122D01*
X58858Y-146405D01*
X58383Y-146769D01*
X57967Y-147312D01*
X57705Y-147944D01*
X57615Y-148622D01*
X57705Y-149300D01*
X57967Y-149932D01*
X58383Y-150475D01*
X58858Y-150839D01*
X58895Y-151122D01*
X58858Y-151405D01*
X58383Y-151769D01*
X57967Y-152312D01*
X57705Y-152944D01*
X57615Y-153622D01*
X57705Y-154300D01*
X57967Y-154932D01*
X58383Y-155475D01*
X58858Y-155839D01*
X58895Y-156122D01*
X58858Y-156405D01*
X58383Y-156769D01*
X57967Y-157312D01*
X57705Y-157944D01*
X57615Y-158622D01*
X57705Y-159300D01*
X57967Y-159932D01*
X58383Y-160475D01*
X58858Y-160839D01*
X58895Y-161122D01*
X58858Y-161405D01*
X58383Y-161769D01*
X57967Y-162312D01*
X57705Y-162944D01*
X57615Y-163622D01*
X57702Y-164278D01*
X57670Y-164316D01*
X57256Y-164540D01*
X56825Y-164109D01*
Y-141394D01*
X56738Y-140953D01*
X56488Y-140579D01*
X53525Y-137616D01*
X53461Y-137135D01*
X53140Y-136359D01*
X52629Y-135693D01*
X51963Y-135181D01*
X51187Y-134860D01*
X50354Y-134751D01*
X49522Y-134860D01*
X48746Y-135181D01*
X48080Y-135693D01*
X47569Y-136359D01*
X47247Y-137135D01*
X47138Y-137967D01*
X47247Y-138800D01*
X47569Y-139575D01*
X48080Y-140242D01*
X48746Y-140753D01*
X49522Y-141074D01*
X50354Y-141184D01*
X51187Y-141074D01*
X51963Y-140753D01*
X52629Y-140242D01*
X52876Y-140225D01*
X54521Y-141871D01*
Y-148388D01*
X54059Y-148580D01*
X53263Y-147783D01*
X53461Y-147304D01*
X53571Y-146471D01*
X53461Y-145639D01*
X53140Y-144863D01*
X52629Y-144197D01*
X51963Y-143685D01*
X51187Y-143364D01*
X50354Y-143255D01*
X49522Y-143364D01*
X48746Y-143685D01*
X48080Y-144197D01*
X47569Y-144863D01*
X47247Y-145639D01*
X47138Y-146471D01*
X47247Y-147304D01*
X47569Y-148079D01*
X48080Y-148746D01*
X48746Y-149257D01*
X49522Y-149578D01*
X50354Y-149688D01*
X51187Y-149578D01*
X51620Y-149399D01*
X52891Y-150670D01*
Y-151786D01*
X47165D01*
Y-158164D01*
X49202D01*
Y-168122D01*
X49290Y-168563D01*
X49540Y-168937D01*
X57951Y-177348D01*
X57705Y-177944D01*
X57615Y-178622D01*
X57705Y-179300D01*
X57967Y-179932D01*
X58383Y-180475D01*
X58858Y-180839D01*
X58895Y-181122D01*
X58858Y-181405D01*
X58383Y-181769D01*
X57967Y-182312D01*
X57705Y-182944D01*
X57693Y-183031D01*
X62205D01*
Y-184213D01*
X57693D01*
X57705Y-184300D01*
X57967Y-184932D01*
X58383Y-185475D01*
X58926Y-185892D01*
X59462Y-186114D01*
X59462Y-186114D01*
X59463Y-186114D01*
X59558Y-186153D01*
X59617Y-186161D01*
X59947Y-186225D01*
X60278Y-186326D01*
X60633Y-186471D01*
X61004Y-186659D01*
X61846Y-187198D01*
X62276Y-187526D01*
X63230Y-188355D01*
X63270Y-188394D01*
X63865Y-188989D01*
X63598Y-189429D01*
X63271Y-189429D01*
X57933D01*
Y-189946D01*
X57433Y-190338D01*
X57087Y-190293D01*
X56408Y-190382D01*
X55776Y-190644D01*
X55233Y-191060D01*
X54817Y-191603D01*
X54555Y-192235D01*
X54466Y-192913D01*
X54555Y-193592D01*
X54817Y-194224D01*
X55233Y-194767D01*
X55776Y-195183D01*
X56408Y-195445D01*
X57087Y-195534D01*
X57433Y-195489D01*
X57933Y-195881D01*
Y-196398D01*
X63721D01*
Y-189912D01*
X63721Y-189551D01*
X64161Y-189284D01*
X65020Y-190144D01*
Y-192323D01*
X67913D01*
Y-193504D01*
X65020D01*
Y-195754D01*
X65019Y-195756D01*
X65020Y-195757D01*
Y-196398D01*
X65149D01*
X65231Y-197802D01*
X65148Y-198287D01*
X65020D01*
Y-198928D01*
X65019Y-198929D01*
X65020Y-198931D01*
Y-201181D01*
X67913D01*
X70807D01*
Y-198931D01*
X70807Y-198929D01*
X70807Y-198928D01*
Y-198287D01*
X70678D01*
X70595Y-196883D01*
X70678Y-196398D01*
X70807D01*
Y-195890D01*
X70823Y-195880D01*
X71002Y-195806D01*
X71291Y-195727D01*
X71664Y-195660D01*
X72252Y-195616D01*
X72403Y-195632D01*
X72867Y-195713D01*
X73237Y-195810D01*
X73507Y-195917D01*
X73674Y-196016D01*
X73748Y-196087D01*
X73766Y-196121D01*
X73779Y-196204D01*
Y-196791D01*
X74420D01*
X74422Y-196792D01*
X74423Y-196791D01*
X77559D01*
Y-193504D01*
X78150D01*
Y-192913D01*
X82520D01*
Y-190217D01*
X81139D01*
X80871Y-190188D01*
X80683Y-190122D01*
X80518Y-190012D01*
X80357Y-189839D01*
X80201Y-189583D01*
X80058Y-189235D01*
X79939Y-188793D01*
X79850Y-188258D01*
X79795Y-187633D01*
X79786Y-187296D01*
Y-185827D01*
X79697Y-185149D01*
X79435Y-184516D01*
X79019Y-183974D01*
X78476Y-183557D01*
X77844Y-183295D01*
X77165Y-183206D01*
X76487Y-183295D01*
X75855Y-183557D01*
X75312Y-183974D01*
X74896Y-184516D01*
X74634Y-185149D01*
X74545Y-185827D01*
Y-187701D01*
X74487Y-188880D01*
X74436Y-189356D01*
X74373Y-189748D01*
X74302Y-190042D01*
X74238Y-190217D01*
X73779D01*
Y-190230D01*
X72664Y-190255D01*
X72150Y-190226D01*
X71678Y-190170D01*
X71291Y-190099D01*
X71002Y-190021D01*
X70823Y-189947D01*
X70807Y-189937D01*
Y-189429D01*
X70534D01*
Y-189331D01*
X70445Y-188653D01*
X70183Y-188020D01*
X69767Y-187478D01*
X68748Y-186459D01*
X68716Y-186425D01*
X67964Y-185550D01*
X67663Y-185145D01*
X67401Y-184749D01*
X67182Y-184370D01*
X67005Y-184007D01*
X66870Y-183662D01*
X66775Y-183336D01*
X66713Y-183004D01*
X66705Y-182944D01*
X66680Y-182883D01*
X66680Y-182883D01*
X66680Y-182883D01*
X66443Y-182312D01*
X66027Y-181769D01*
X65552Y-181405D01*
X65514Y-181122D01*
X65552Y-180839D01*
X66027Y-180475D01*
X66443Y-179932D01*
X66705Y-179300D01*
X66794Y-178622D01*
X66705Y-177944D01*
X66443Y-177312D01*
X66027Y-176769D01*
X65552Y-176405D01*
X65514Y-176122D01*
X65552Y-175839D01*
X66027Y-175475D01*
X66443Y-174932D01*
X66705Y-174300D01*
X66794Y-173622D01*
X66705Y-172944D01*
X66443Y-172312D01*
X66027Y-171769D01*
X65552Y-171405D01*
X65514Y-171122D01*
X65552Y-170839D01*
X66027Y-170475D01*
X66443Y-169932D01*
X66705Y-169300D01*
X66794Y-168622D01*
X66705Y-167944D01*
X66443Y-167312D01*
X66027Y-166769D01*
X65552Y-166405D01*
X65514Y-166122D01*
X65552Y-165839D01*
X66027Y-165475D01*
X66443Y-164932D01*
X66509Y-164774D01*
X71157D01*
X71598Y-164686D01*
X71972Y-164437D01*
X74472Y-161936D01*
X74654Y-161972D01*
X75360Y-161831D01*
X75959Y-161431D01*
X76359Y-160832D01*
X76500Y-160126D01*
X76359Y-159419D01*
X75959Y-158820D01*
X75360Y-158420D01*
X74654Y-158279D01*
X73947Y-158420D01*
X73348Y-158820D01*
X73068Y-159238D01*
X72597Y-159043D01*
X72712Y-158464D01*
X72572Y-157758D01*
X72172Y-157159D01*
X71573Y-156758D01*
X70866Y-156618D01*
X70159Y-156758D01*
X69560Y-157159D01*
X69302Y-157545D01*
X66540D01*
X66443Y-157312D01*
X66027Y-156769D01*
X65552Y-156405D01*
X65514Y-156122D01*
X65552Y-155839D01*
X66027Y-155475D01*
X66311Y-155104D01*
X69473D01*
X69914Y-155016D01*
X70287Y-154767D01*
X70539Y-154515D01*
X70588Y-154479D01*
X70637Y-154448D01*
X70681Y-154424D01*
X70721Y-154407D01*
X70756Y-154395D01*
X70784Y-154389D01*
X70866Y-154405D01*
X71573Y-154265D01*
X72172Y-153865D01*
X72572Y-153265D01*
X72712Y-152559D01*
X72572Y-151852D01*
X72172Y-151253D01*
X71573Y-150853D01*
X70866Y-150712D01*
X70159Y-150853D01*
X69560Y-151253D01*
X69160Y-151852D01*
X69020Y-152559D01*
X68586Y-152800D01*
X66645D01*
X66443Y-152312D01*
X66027Y-151769D01*
X65552Y-151405D01*
X65514Y-151122D01*
X65552Y-150839D01*
X66027Y-150475D01*
X66443Y-149932D01*
X66509Y-149774D01*
X68602D01*
X69043Y-149686D01*
X69417Y-149437D01*
X70439Y-148415D01*
X70866Y-148500D01*
X71573Y-148359D01*
X72172Y-147959D01*
X72572Y-147360D01*
X72712Y-146653D01*
X72572Y-145947D01*
X72172Y-145347D01*
X71573Y-144947D01*
X70866Y-144807D01*
X70159Y-144947D01*
X69560Y-145347D01*
X69160Y-145947D01*
X69039Y-146556D01*
X68125Y-147470D01*
X66509D01*
X66443Y-147312D01*
X66027Y-146769D01*
X65552Y-146405D01*
X65514Y-146122D01*
X65552Y-145839D01*
X66027Y-145475D01*
X66443Y-144932D01*
X66509Y-144774D01*
X67992D01*
X68433Y-144686D01*
X68806Y-144437D01*
X70685Y-142558D01*
X70866Y-142594D01*
X71573Y-142454D01*
X72172Y-142053D01*
X72572Y-141454D01*
X72712Y-140748D01*
X72572Y-140041D01*
X72172Y-139442D01*
X71573Y-139042D01*
X70866Y-138901D01*
X70159Y-139042D01*
X69560Y-139442D01*
X69160Y-140041D01*
X69020Y-140748D01*
X69055Y-140929D01*
X67515Y-142470D01*
X66509D01*
X66443Y-142312D01*
X66027Y-141769D01*
X65552Y-141405D01*
X65514Y-141122D01*
X65552Y-140839D01*
X66027Y-140475D01*
X66443Y-139932D01*
X66705Y-139300D01*
X66794Y-138622D01*
X66705Y-137944D01*
X66443Y-137312D01*
X66027Y-136769D01*
X66006Y-136450D01*
X68576Y-133880D01*
X105283D01*
X113383Y-141980D01*
X113176Y-142480D01*
X111870D01*
Y-149646D01*
X118051D01*
X118051Y-149646D01*
Y-149646D01*
X118432Y-149908D01*
X121949Y-153424D01*
X121925Y-153543D01*
X122066Y-154250D01*
X122466Y-154849D01*
X123065Y-155249D01*
X123555Y-155347D01*
Y-197220D01*
X123642Y-197661D01*
X123684Y-197723D01*
Y-199490D01*
X122957Y-200217D01*
X122957Y-200217D01*
X122957Y-200217D01*
X121570Y-201604D01*
X121058D01*
X120958Y-201104D01*
X120995Y-201089D01*
X121538Y-200672D01*
X121955Y-200129D01*
X122217Y-199497D01*
X122306Y-198819D01*
X122217Y-198141D01*
X122109Y-197882D01*
X122443Y-197382D01*
X123051D01*
Y-191595D01*
X116083D01*
Y-197382D01*
X116927D01*
X117261Y-197882D01*
X117154Y-198141D01*
X117064Y-198819D01*
X117154Y-199497D01*
X117415Y-200129D01*
X117832Y-200672D01*
X118375Y-201089D01*
X118412Y-201104D01*
X118312Y-201604D01*
X112347D01*
X112248Y-201104D01*
X112285Y-201089D01*
X112828Y-200672D01*
X113244Y-200129D01*
X113506Y-199497D01*
X113595Y-198819D01*
X113506Y-198141D01*
X113399Y-197882D01*
X113733Y-197382D01*
X114459D01*
Y-191595D01*
X107490D01*
Y-197382D01*
X108216D01*
X108550Y-197882D01*
X108443Y-198141D01*
X108354Y-198819D01*
X108443Y-199497D01*
X108705Y-200129D01*
X109121Y-200672D01*
X109664Y-201089D01*
X109701Y-201104D01*
X109601Y-201604D01*
X101670D01*
X99971Y-199905D01*
Y-186220D01*
X101951D01*
X102229Y-186636D01*
X102193Y-186723D01*
X102104Y-187402D01*
X102193Y-188080D01*
X102455Y-188712D01*
X102871Y-189255D01*
X103414Y-189671D01*
X104046Y-189933D01*
X104724Y-190022D01*
X105624D01*
X106870Y-190057D01*
X107490Y-190109D01*
Y-190295D01*
X108130D01*
X108132Y-190296D01*
X108134Y-190295D01*
X110384D01*
Y-187402D01*
Y-184508D01*
X108134D01*
X108132Y-184508D01*
X108130Y-184508D01*
X107490D01*
Y-184642D01*
X105456Y-184781D01*
X104724D01*
X104046Y-184870D01*
X103886Y-184936D01*
X103386Y-184602D01*
Y-181024D01*
X103866Y-180975D01*
X108763D01*
X108852Y-181108D01*
X109125Y-181291D01*
X109447Y-181355D01*
X115356D01*
X115678Y-181291D01*
X115951Y-181108D01*
X116133Y-180836D01*
X116197Y-180514D01*
Y-180393D01*
X116697Y-180163D01*
X116946Y-180355D01*
Y-181967D01*
X116880Y-183165D01*
X116823Y-183637D01*
X116753Y-184024D01*
X116675Y-184313D01*
X116601Y-184492D01*
X116590Y-184508D01*
X116083D01*
Y-184637D01*
X114951Y-184704D01*
X114459Y-184508D01*
Y-184508D01*
X113818D01*
X113817Y-184508D01*
X113815Y-184508D01*
X111565D01*
Y-187402D01*
Y-190295D01*
X113815D01*
X113817Y-190296D01*
X113818Y-190295D01*
X114459D01*
Y-190166D01*
X115591Y-190100D01*
X116083Y-190295D01*
Y-190295D01*
X116723D01*
X116725Y-190296D01*
X116726Y-190295D01*
X118976D01*
Y-187402D01*
X119567D01*
Y-186811D01*
X123051D01*
Y-185152D01*
X123052Y-185150D01*
X123051Y-185148D01*
Y-184508D01*
X122544D01*
X122533Y-184492D01*
X122459Y-184313D01*
X122381Y-184024D01*
X122313Y-183651D01*
X122188Y-181955D01*
Y-179114D01*
X122099Y-178436D01*
X121837Y-177804D01*
X121420Y-177261D01*
X119963Y-175804D01*
X119421Y-175388D01*
X118789Y-175126D01*
X118110Y-175037D01*
X117432Y-175126D01*
X116800Y-175388D01*
X116684Y-175476D01*
X116592Y-175461D01*
X116197Y-175220D01*
Y-174014D01*
X116133Y-173692D01*
X115955Y-173425D01*
X116133Y-173158D01*
X116197Y-172836D01*
Y-171455D01*
X116133Y-171133D01*
X115955Y-170866D01*
X116133Y-170599D01*
X116197Y-170278D01*
Y-168896D01*
X116133Y-168574D01*
X115955Y-168307D01*
X116133Y-168040D01*
X116197Y-167719D01*
Y-166337D01*
X116133Y-166015D01*
X115955Y-165748D01*
X116133Y-165481D01*
X116197Y-165159D01*
Y-163778D01*
X116133Y-163456D01*
X115955Y-163189D01*
X116133Y-162922D01*
X116197Y-162600D01*
Y-161219D01*
X116133Y-160897D01*
X115955Y-160630D01*
X116133Y-160363D01*
X116197Y-160041D01*
Y-158660D01*
X116133Y-158338D01*
X115955Y-158071D01*
X116133Y-157804D01*
X116197Y-157482D01*
Y-156100D01*
X116133Y-155779D01*
X115951Y-155506D01*
X115678Y-155324D01*
X115356Y-155260D01*
X115185Y-155064D01*
X115219Y-154805D01*
X115130Y-154127D01*
X114868Y-153495D01*
X114452Y-152952D01*
X113909Y-152535D01*
X113277Y-152273D01*
X112598Y-152184D01*
X111920Y-152273D01*
X111288Y-152535D01*
X110745Y-152952D01*
X110329Y-153495D01*
X110067Y-154127D01*
X110013Y-154533D01*
X109557Y-154882D01*
X109485Y-154896D01*
X109344Y-154860D01*
X109321Y-154775D01*
Y-146358D01*
X109234Y-145917D01*
X109234Y-145917D01*
X108984Y-145544D01*
X106248Y-142807D01*
X105874Y-142558D01*
X105433Y-142470D01*
X103123D01*
X103057Y-142312D01*
X102641Y-141769D01*
X102166Y-141405D01*
X102129Y-141122D01*
X102161Y-140877D01*
X102581Y-140603D01*
X102865Y-140720D01*
X103543Y-140810D01*
X104222Y-140720D01*
X104854Y-140459D01*
X105396Y-140042D01*
X105813Y-139499D01*
X106075Y-138867D01*
X106164Y-138189D01*
X106075Y-137511D01*
X105813Y-136879D01*
X105396Y-136336D01*
X104854Y-135919D01*
X104222Y-135657D01*
X103543Y-135568D01*
X102865Y-135657D01*
X102233Y-135919D01*
X101819Y-136237D01*
X101466Y-136091D01*
X100787Y-136001D01*
X96851D01*
X96172Y-136091D01*
X95540Y-136352D01*
X94997Y-136769D01*
X94581Y-137312D01*
X94319Y-137944D01*
X94230Y-138622D01*
X94319Y-139300D01*
X94581Y-139932D01*
X94997Y-140475D01*
X95472Y-140839D01*
X95509Y-141122D01*
X95472Y-141405D01*
X94997Y-141769D01*
X94581Y-142312D01*
X94319Y-142944D01*
X94230Y-143622D01*
X94319Y-144300D01*
X94581Y-144932D01*
X94997Y-145475D01*
X95472Y-145839D01*
X95509Y-146122D01*
X95472Y-146405D01*
X94997Y-146769D01*
X94581Y-147312D01*
X94319Y-147944D01*
X94230Y-148622D01*
X94319Y-149300D01*
X94581Y-149932D01*
X94997Y-150475D01*
X95472Y-150839D01*
X95509Y-151122D01*
X95472Y-151405D01*
X94997Y-151769D01*
X94581Y-152312D01*
X94319Y-152944D01*
X94230Y-153622D01*
X94319Y-154300D01*
X94581Y-154932D01*
X94997Y-155475D01*
X95472Y-155839D01*
X95509Y-156122D01*
X95472Y-156405D01*
X94997Y-156769D01*
X94581Y-157312D01*
X94319Y-157944D01*
X94230Y-158622D01*
X94319Y-159300D01*
X94581Y-159932D01*
X94997Y-160475D01*
X95472Y-160839D01*
X95509Y-161122D01*
X95472Y-161405D01*
X94997Y-161769D01*
X94581Y-162312D01*
X94319Y-162944D01*
X94230Y-163622D01*
X94319Y-164300D01*
X94581Y-164932D01*
X94997Y-165475D01*
X95472Y-165839D01*
X95509Y-166122D01*
X95472Y-166405D01*
X94997Y-166769D01*
X94581Y-167312D01*
X94319Y-167944D01*
X94230Y-168622D01*
X94319Y-169300D01*
X94581Y-169932D01*
X94997Y-170475D01*
X95472Y-170839D01*
X95509Y-171122D01*
X95472Y-171405D01*
X94997Y-171769D01*
X94581Y-172312D01*
X94319Y-172944D01*
X94230Y-173622D01*
X94319Y-174300D01*
X94581Y-174932D01*
X94997Y-175475D01*
X95472Y-175839D01*
X95509Y-176122D01*
X95472Y-176405D01*
X94997Y-176769D01*
X94581Y-177312D01*
X94319Y-177944D01*
X94230Y-178622D01*
X94319Y-179300D01*
X94581Y-179932D01*
X94997Y-180475D01*
X95060Y-180524D01*
X94891Y-181024D01*
X94252D01*
Y-186220D01*
X97667D01*
Y-200382D01*
X97707Y-200581D01*
X97755Y-200823D01*
X97755Y-200823D01*
X98004Y-201196D01*
X100378Y-203571D01*
X100378Y-203571D01*
X100378Y-203571D01*
X100564Y-203695D01*
X100752Y-203820D01*
X100752Y-203820D01*
X100752Y-203820D01*
X101193Y-203908D01*
X122047D01*
X122047Y-203908D01*
X122047Y-203908D01*
X122252Y-203867D01*
X122488Y-203820D01*
X122488Y-203820D01*
X122488Y-203820D01*
X122676Y-203695D01*
X122862Y-203571D01*
X122862Y-203571D01*
X122862Y-203571D01*
X124586Y-201846D01*
X125355Y-201078D01*
X125856Y-201283D01*
X125974Y-216180D01*
X125621Y-216535D01*
X0D01*
Y0D01*
X125000D01*
Y-816D01*
D02*
G37*
G36*
X177913Y-17278D02*
X177984Y-17302D01*
X178075Y-17323D01*
X178185Y-17341D01*
X178463Y-17369D01*
X178819Y-17386D01*
X179252Y-17392D01*
Y-18573D01*
X179025Y-18574D01*
X178075Y-18641D01*
X177984Y-18662D01*
X177913Y-18686D01*
X177862Y-18713D01*
Y-17252D01*
X177913Y-17278D01*
D02*
G37*
G36*
X149697Y-18713D02*
X149622Y-18669D01*
X149535Y-18630D01*
X149436Y-18595D01*
X149325Y-18565D01*
X149201Y-18540D01*
X148917Y-18503D01*
X148758Y-18491D01*
X148401Y-18482D01*
Y-17482D01*
X148586Y-17480D01*
X149065Y-17445D01*
X149201Y-17425D01*
X149436Y-17369D01*
X149535Y-17335D01*
X149622Y-17296D01*
X149697Y-17252D01*
Y-18713D01*
D02*
G37*
G36*
X180722Y-17668D02*
X180860Y-17765D01*
X181021Y-17856D01*
X181204Y-17941D01*
X181408Y-18020D01*
X181635Y-18094D01*
X182153Y-18222D01*
X182445Y-18278D01*
X182759Y-18327D01*
X180532Y-20554D01*
X180482Y-20240D01*
X180298Y-19430D01*
X180225Y-19204D01*
X180146Y-18999D01*
X180061Y-18816D01*
X179970Y-18656D01*
X179873Y-18517D01*
X179769Y-18400D01*
X180605Y-17565D01*
X180722Y-17668D01*
D02*
G37*
G36*
X130826Y-20558D02*
X130741Y-20589D01*
X130666Y-20640D01*
X130601Y-20711D01*
X130546Y-20802D01*
X130501Y-20913D01*
X130466Y-21044D01*
X130441Y-21196D01*
X130426Y-21367D01*
X130421Y-21559D01*
X129421D01*
X129441Y-20559D01*
X130921Y-20547D01*
X130826Y-20558D01*
D02*
G37*
G36*
X149697Y-23713D02*
X149622Y-23669D01*
X149535Y-23630D01*
X149436Y-23595D01*
X149325Y-23565D01*
X149201Y-23540D01*
X148917Y-23503D01*
X148758Y-23491D01*
X148401Y-23482D01*
Y-22482D01*
X148586Y-22480D01*
X149065Y-22445D01*
X149201Y-22425D01*
X149436Y-22369D01*
X149535Y-22335D01*
X149622Y-22296D01*
X149697Y-22252D01*
Y-23713D01*
D02*
G37*
G36*
X172967Y-26268D02*
X172827Y-26290D01*
X172687Y-26326D01*
X172546Y-26376D01*
X172405Y-26441D01*
X172263Y-26520D01*
X172121Y-26613D01*
X171978Y-26721D01*
X171835Y-26843D01*
X171692Y-26980D01*
X170278D01*
X170407Y-26843D01*
X170508Y-26721D01*
X170580Y-26613D01*
X170623Y-26520D01*
X170637Y-26441D01*
X170623Y-26376D01*
X170580Y-26326D01*
X170508Y-26290D01*
X170407Y-26268D01*
X170278Y-26261D01*
X173106D01*
X172967Y-26268D01*
D02*
G37*
G36*
X128799Y-8327D02*
Y-10630D01*
X132283D01*
Y-11220D01*
X132874D01*
Y-14114D01*
X134009D01*
X134331Y-14614D01*
X134188Y-14959D01*
X134128Y-15413D01*
X128799D01*
Y-17369D01*
X128769Y-17519D01*
Y-20302D01*
X128611Y-20368D01*
X128068Y-20785D01*
X127652Y-21327D01*
X127390Y-21960D01*
X127300Y-22638D01*
X127390Y-23316D01*
X127652Y-23948D01*
X128068Y-24491D01*
X128611Y-24907D01*
X129243Y-25169D01*
X129921Y-25259D01*
X130600Y-25169D01*
X131232Y-24907D01*
X131774Y-24491D01*
X132191Y-23948D01*
X132453Y-23316D01*
X132542Y-22638D01*
X132453Y-21960D01*
X132346Y-21701D01*
X132680Y-21201D01*
X135768D01*
Y-18544D01*
X136268Y-18199D01*
X136719Y-18258D01*
X137157Y-18201D01*
X137657Y-18552D01*
Y-21201D01*
X144626D01*
Y-20152D01*
X145074Y-19931D01*
X145146Y-19986D01*
X145778Y-20248D01*
X146457Y-20337D01*
X147135Y-20248D01*
X147767Y-19986D01*
X148310Y-19570D01*
X148698Y-19879D01*
X148665Y-19929D01*
X148555Y-20482D01*
X148665Y-21035D01*
X148852Y-21316D01*
X148694Y-21754D01*
X148635Y-21830D01*
X138041D01*
X137601Y-21918D01*
X137227Y-22168D01*
X129936Y-29458D01*
X125630D01*
Y-28861D01*
X125642Y-28799D01*
Y-21988D01*
X126614D01*
Y-19488D01*
X123032D01*
Y-18307D01*
X126614D01*
Y-15807D01*
X125642D01*
Y-13721D01*
X126614D01*
Y-8676D01*
X127249Y-8042D01*
X128417D01*
X128799Y-8327D01*
D02*
G37*
G36*
X178652Y-28863D02*
X178668Y-29093D01*
X178682Y-29192D01*
X178701Y-29280D01*
X178724Y-29358D01*
X178750Y-29425D01*
X178781Y-29482D01*
X178816Y-29528D01*
X178855Y-29564D01*
X177445D01*
X177483Y-29528D01*
X177518Y-29482D01*
X177549Y-29425D01*
X177576Y-29358D01*
X177598Y-29280D01*
X177617Y-29192D01*
X177631Y-29093D01*
X177648Y-28863D01*
X177650Y-28733D01*
X178650D01*
X178652Y-28863D01*
D02*
G37*
G36*
X208844Y-36300D02*
X208875Y-36385D01*
X208925Y-36460D01*
X208996Y-36525D01*
X209087Y-36580D01*
X209199Y-36625D01*
X209330Y-36660D01*
X209482Y-36685D01*
X209654Y-36700D01*
X209846Y-36705D01*
Y-37705D01*
X209654Y-37710D01*
X209482Y-37725D01*
X209330Y-37750D01*
X209199Y-37785D01*
X209087Y-37830D01*
X208996Y-37885D01*
X208925Y-37950D01*
X208875Y-38025D01*
X208844Y-38110D01*
X208834Y-38205D01*
Y-36205D01*
X208844Y-36300D01*
D02*
G37*
G36*
X208830Y-38583D02*
X208659Y-38416D01*
X208488Y-38267D01*
X208318Y-38135D01*
X208149Y-38021D01*
X207980Y-37924D01*
X207813Y-37845D01*
X207646Y-37784D01*
X207480Y-37740D01*
X207315Y-37714D01*
X207151Y-37705D01*
Y-36705D01*
X207315Y-36696D01*
X207480Y-36670D01*
X207646Y-36626D01*
X207813Y-36564D01*
X207980Y-36485D01*
X208149Y-36389D01*
X208318Y-36275D01*
X208488Y-36143D01*
X208659Y-35994D01*
X208830Y-35827D01*
Y-38583D01*
D02*
G37*
G36*
X251969Y-176099D02*
X251518Y-176235D01*
X251468Y-176231D01*
X251066Y-175706D01*
X250523Y-175289D01*
X249891Y-175028D01*
X249213Y-174938D01*
X248534Y-175028D01*
X248388Y-175088D01*
X247972Y-174810D01*
Y-174173D01*
X246231D01*
Y-173268D01*
X247972D01*
Y-166299D01*
X242185D01*
Y-173268D01*
X243927D01*
Y-174173D01*
X242185D01*
Y-181142D01*
X247972D01*
Y-180308D01*
X248388Y-180030D01*
X248534Y-180091D01*
X249213Y-180180D01*
X249891Y-180091D01*
X250523Y-179829D01*
X251066Y-179412D01*
X251468Y-178887D01*
X251518Y-178883D01*
X251969Y-179020D01*
Y-184760D01*
X251518Y-184897D01*
X251468Y-184892D01*
X251066Y-184367D01*
X250523Y-183951D01*
X249891Y-183689D01*
X249213Y-183600D01*
X248534Y-183689D01*
X248388Y-183749D01*
X247972Y-183472D01*
Y-183031D01*
X242185D01*
Y-186366D01*
X240886D01*
Y-183031D01*
X240240D01*
Y-181142D01*
X240886D01*
Y-178248D01*
X237992D01*
Y-177657D01*
X237402D01*
Y-174173D01*
X235885D01*
X235694Y-173711D01*
X236137Y-173268D01*
X240886D01*
Y-166299D01*
X238554D01*
Y-164016D01*
X240098D01*
Y-156850D01*
X233917D01*
Y-164016D01*
X236249D01*
Y-166299D01*
X235099D01*
Y-171048D01*
X232283Y-173863D01*
X231430D01*
X230937Y-173420D01*
X230937Y-172613D01*
X230937Y-172113D01*
Y-167917D01*
X230937Y-167613D01*
X230937Y-167113D01*
Y-162917D01*
X230937Y-162613D01*
X230937Y-162113D01*
Y-157917D01*
X230937Y-157613D01*
X230937Y-157113D01*
Y-152917D01*
X230937Y-152613D01*
X230937Y-152113D01*
Y-147613D01*
X230937D01*
Y-147417D01*
X230937D01*
Y-142613D01*
X230937D01*
Y-142417D01*
X230937D01*
Y-137613D01*
X230937D01*
Y-137417D01*
X230937D01*
Y-132613D01*
X230937D01*
Y-132417D01*
X230937D01*
Y-127613D01*
X230937D01*
Y-127417D01*
X230937D01*
Y-122917D01*
X230937Y-122613D01*
X230937Y-122113D01*
Y-117613D01*
X230937D01*
X230780Y-117234D01*
X233571Y-114444D01*
X233820Y-114070D01*
X233908Y-113629D01*
Y-108012D01*
X236339D01*
Y-101831D01*
X229173D01*
Y-108012D01*
X231604D01*
Y-113152D01*
X227142Y-117613D01*
X221803D01*
Y-122113D01*
X221803Y-122417D01*
X221803Y-122917D01*
Y-123863D01*
X211380D01*
X211188Y-123401D01*
X211220Y-123369D01*
X211220Y-123369D01*
X211220Y-123369D01*
X211338Y-123192D01*
X211470Y-122995D01*
X211470Y-122995D01*
X211470Y-122995D01*
X211511Y-122791D01*
X211558Y-122555D01*
X211558Y-122555D01*
X211558Y-122554D01*
Y-121850D01*
X211563Y-121787D01*
X211576Y-121708D01*
X212504D01*
X212807Y-121708D01*
Y-121708D01*
X213004D01*
Y-121708D01*
X217807D01*
Y-121144D01*
X218307Y-120705D01*
X218504Y-120731D01*
X219182Y-120642D01*
X219814Y-120380D01*
X220357Y-119963D01*
X220774Y-119421D01*
X221036Y-118789D01*
X221125Y-118110D01*
X221036Y-117432D01*
X220774Y-116800D01*
X220357Y-116257D01*
X219814Y-115840D01*
X219182Y-115579D01*
X218504Y-115489D01*
X218307Y-115515D01*
X217807Y-115077D01*
Y-112574D01*
X213843D01*
X213651Y-112112D01*
X216610Y-109154D01*
X218996D01*
Y-105532D01*
X215207D01*
X215167Y-105481D01*
X215023Y-105032D01*
X216610Y-103445D01*
X218996D01*
Y-99823D01*
X214587D01*
Y-102209D01*
X213617Y-103179D01*
X211653D01*
Y-101831D01*
X204488D01*
Y-108012D01*
X211653D01*
Y-105483D01*
X214094D01*
X214108Y-105480D01*
X214587Y-105895D01*
Y-107918D01*
X209931Y-112574D01*
X208307D01*
X208004Y-112574D01*
X207504Y-112574D01*
X203307D01*
X203004Y-112574D01*
X202504Y-112574D01*
X198307D01*
X198004Y-112574D01*
X197504Y-112574D01*
X193307D01*
X193004Y-112574D01*
X192504Y-112574D01*
X188307D01*
X188004Y-112574D01*
X187504Y-112574D01*
X183307D01*
X183004Y-112574D01*
X182504Y-112574D01*
X178307D01*
X178004Y-112574D01*
X177164Y-112574D01*
X176957Y-112074D01*
X178627Y-110404D01*
X185689D01*
X186130Y-110316D01*
X186504Y-110067D01*
X187417Y-109154D01*
X189803D01*
Y-106158D01*
X190303Y-105891D01*
X190445Y-105986D01*
X190886Y-106073D01*
X193268D01*
Y-108012D01*
X200433D01*
Y-101831D01*
X193268D01*
Y-103769D01*
X191363D01*
X189803Y-102209D01*
Y-99823D01*
X185394D01*
Y-103445D01*
X187780D01*
X189367Y-105032D01*
X189160Y-105532D01*
X185394D01*
Y-107918D01*
X185212Y-108100D01*
X181212D01*
X180748Y-108012D01*
X180748Y-107600D01*
Y-101831D01*
X173583D01*
Y-103425D01*
X173394Y-103521D01*
X172816Y-103302D01*
X172806Y-103292D01*
Y-89588D01*
X173850Y-88543D01*
X174100Y-88169D01*
X174188Y-87728D01*
Y-85952D01*
X174587Y-85709D01*
X174688Y-85709D01*
X179449D01*
X179449Y-85709D01*
Y-85709D01*
X179949Y-85660D01*
X180187Y-85692D01*
X180865Y-85602D01*
X181497Y-85341D01*
X182040Y-84924D01*
X182457Y-84381D01*
X182719Y-83749D01*
X182808Y-83071D01*
X182719Y-82393D01*
X182457Y-81761D01*
X182040Y-81218D01*
X181497Y-80801D01*
X180865Y-80539D01*
X180187Y-80450D01*
X179949Y-80481D01*
X179449Y-80043D01*
Y-79646D01*
X174688D01*
X174587Y-79646D01*
X174188Y-79402D01*
Y-65752D01*
X174100Y-65311D01*
X173850Y-64938D01*
X173806Y-64894D01*
X174013Y-64394D01*
X178937D01*
Y-61348D01*
X178979Y-61034D01*
X178937Y-60708D01*
Y-57661D01*
X176706D01*
X176252Y-57206D01*
X176250Y-57204D01*
X176248Y-57202D01*
X175981Y-56997D01*
X175710Y-56788D01*
X175708Y-56787D01*
X175705Y-56785D01*
X175392Y-56656D01*
X175079Y-56525D01*
X175076Y-56525D01*
X175073Y-56524D01*
X174735Y-56479D01*
X174401Y-56434D01*
X174398Y-56435D01*
X174395Y-56434D01*
X171595D01*
Y-55768D01*
X165020D01*
Y-62343D01*
X169613D01*
X169839Y-62843D01*
X169554Y-63270D01*
X169413Y-63976D01*
X169554Y-64683D01*
X169954Y-65282D01*
X170553Y-65682D01*
X171259Y-65823D01*
X171441Y-65787D01*
X171883Y-66229D01*
Y-68329D01*
X171422Y-68521D01*
X170838Y-67937D01*
X170465Y-67688D01*
X170024Y-67600D01*
X151906D01*
X147609Y-63302D01*
Y-30149D01*
X147762Y-30046D01*
X148163Y-29447D01*
X148303Y-28740D01*
X148163Y-28034D01*
X147762Y-27435D01*
X147163Y-27034D01*
X146457Y-26894D01*
X145750Y-27034D01*
X145151Y-27435D01*
X144751Y-28034D01*
X144610Y-28740D01*
X144751Y-29447D01*
X145151Y-30046D01*
X145305Y-30149D01*
Y-37145D01*
X144805Y-37270D01*
X144734Y-37138D01*
X143979Y-36218D01*
X143059Y-35463D01*
X142009Y-34902D01*
X140870Y-34556D01*
X139685Y-34439D01*
X138500Y-34556D01*
X137361Y-34902D01*
X136311Y-35463D01*
X135391Y-36218D01*
X134636Y-37138D01*
X134075Y-38188D01*
X133729Y-39327D01*
X133613Y-40512D01*
X133729Y-41697D01*
X134075Y-42836D01*
X134636Y-43886D01*
X135391Y-44806D01*
X136311Y-45561D01*
X137361Y-46122D01*
X138500Y-46468D01*
X139685Y-46584D01*
X140870Y-46468D01*
X142009Y-46122D01*
X143059Y-45561D01*
X143979Y-44806D01*
X144734Y-43886D01*
X144805Y-43754D01*
X145305Y-43879D01*
Y-63779D01*
X145392Y-64220D01*
X145642Y-64594D01*
X150615Y-69567D01*
X150988Y-69816D01*
X151429Y-69904D01*
X153134D01*
X153232Y-70394D01*
X152799Y-70574D01*
X151129Y-71597D01*
X149640Y-72869D01*
X148369Y-74358D01*
X147345Y-76028D01*
X146596Y-77837D01*
X146139Y-79741D01*
X145985Y-81693D01*
X146139Y-83645D01*
X146596Y-85549D01*
X147345Y-87358D01*
X148369Y-89028D01*
X149640Y-90517D01*
X151129Y-91789D01*
X152799Y-92812D01*
X154608Y-93562D01*
X156512Y-94019D01*
X158465Y-94172D01*
X160417Y-94019D01*
X162321Y-93562D01*
X164130Y-92812D01*
X165800Y-91789D01*
X167289Y-90517D01*
X168372Y-89250D01*
X168872Y-89434D01*
Y-101428D01*
X160614Y-109686D01*
X160433Y-109650D01*
X159726Y-109790D01*
X159127Y-110190D01*
X158727Y-110789D01*
X158673Y-111061D01*
X158131Y-111226D01*
X153034Y-106129D01*
Y-95443D01*
X152946Y-95002D01*
X152696Y-94628D01*
X142344Y-84276D01*
X141970Y-84026D01*
X141529Y-83938D01*
X141293D01*
X141227Y-83933D01*
X141197Y-83929D01*
Y-83856D01*
X141133Y-83534D01*
X140955Y-83268D01*
X141133Y-83001D01*
X141197Y-82679D01*
Y-82579D01*
X137402D01*
Y-81988D01*
X136811D01*
Y-80456D01*
X134447D01*
X134125Y-80520D01*
X133982Y-80616D01*
X133909Y-80653D01*
X133886Y-80680D01*
X133852Y-80703D01*
X133800Y-80781D01*
X133795Y-80787D01*
X133780Y-80792D01*
X133722Y-80808D01*
X133646Y-80821D01*
X133472Y-80836D01*
X130610D01*
X130169Y-80924D01*
X129796Y-81174D01*
X127532Y-83437D01*
X127282Y-83811D01*
X127194Y-84252D01*
Y-104191D01*
X127236Y-104403D01*
X127083Y-105175D01*
Y-108028D01*
X127066Y-108265D01*
X127009Y-108693D01*
X126933Y-109044D01*
X126843Y-109316D01*
X126750Y-109506D01*
X126666Y-109617D01*
X126604Y-109669D01*
X126555Y-109690D01*
X126444Y-109705D01*
X125847D01*
X125774Y-109235D01*
X125642Y-92517D01*
Y-75792D01*
X127697D01*
Y-68627D01*
X125642D01*
Y-55453D01*
X127008D01*
Y-52953D01*
X123425D01*
Y-51772D01*
X127008D01*
Y-49272D01*
X125642D01*
Y-47185D01*
X127008D01*
Y-41004D01*
X125000D01*
Y-38130D01*
X125630D01*
Y-34570D01*
X125642Y-34508D01*
Y-32421D01*
X125630Y-32359D01*
Y-31762D01*
X130413D01*
X130854Y-31675D01*
X131228Y-31425D01*
X138519Y-24134D01*
X148635D01*
X148817Y-24423D01*
X148854Y-24564D01*
X148854Y-24646D01*
X148665Y-24929D01*
X148555Y-25482D01*
X148665Y-26035D01*
X148978Y-26504D01*
X149447Y-26817D01*
X150000Y-26927D01*
X152785D01*
Y-31161D01*
X150354D01*
Y-37343D01*
X157520D01*
Y-31161D01*
X155089D01*
Y-26927D01*
X158465D01*
X159018Y-26817D01*
X159486Y-26504D01*
X159800Y-26035D01*
X159910Y-25482D01*
X159800Y-24929D01*
X159553Y-24561D01*
X159514Y-24232D01*
X159553Y-23904D01*
X159800Y-23535D01*
X159910Y-22982D01*
X159800Y-22429D01*
X159553Y-22061D01*
X159514Y-21732D01*
X159553Y-21404D01*
X159800Y-21035D01*
X159910Y-20482D01*
X159800Y-19929D01*
X159553Y-19561D01*
X159514Y-19232D01*
X159553Y-18904D01*
X159800Y-18535D01*
X159910Y-17982D01*
X159800Y-17429D01*
X159612Y-17149D01*
X159770Y-16711D01*
X159830Y-16634D01*
X162402D01*
X162576Y-16778D01*
Y-23198D01*
X162423Y-23301D01*
X162022Y-23900D01*
X161882Y-24606D01*
X162022Y-25313D01*
X162423Y-25912D01*
X163022Y-26312D01*
X163728Y-26453D01*
X164435Y-26312D01*
X165034Y-25912D01*
X165434Y-25313D01*
X165575Y-24606D01*
X165434Y-23900D01*
X165034Y-23301D01*
X164881Y-23198D01*
Y-14156D01*
Y-7025D01*
X164793Y-6584D01*
X164543Y-6210D01*
X162439Y-4107D01*
X162065Y-3857D01*
X161625Y-3769D01*
X125642D01*
Y-3121D01*
X163893D01*
X166025Y-5253D01*
Y-11276D01*
X166113Y-11717D01*
X166363Y-12091D01*
X167486Y-13214D01*
X167728Y-13376D01*
X167759Y-13535D01*
X168006Y-13904D01*
X168045Y-14232D01*
X168006Y-14561D01*
X167759Y-14929D01*
X167649Y-15482D01*
X167759Y-16035D01*
X168006Y-16404D01*
X168045Y-16732D01*
X168006Y-17061D01*
X167759Y-17429D01*
X167649Y-17982D01*
X167759Y-18535D01*
X168002Y-18899D01*
X167982Y-19124D01*
X167936Y-19326D01*
X167873Y-19472D01*
X167581Y-19668D01*
X167331Y-20041D01*
X167244Y-20482D01*
X167331Y-20923D01*
X167581Y-21297D01*
X167873Y-21492D01*
X167936Y-21639D01*
X167982Y-21840D01*
X168002Y-22066D01*
X167759Y-22429D01*
X167649Y-22982D01*
X167759Y-23535D01*
X168006Y-23904D01*
X168045Y-24232D01*
X168006Y-24561D01*
X167759Y-24929D01*
X167649Y-25482D01*
X167759Y-26035D01*
X168073Y-26504D01*
X168542Y-26817D01*
X168766Y-26862D01*
X168931Y-27404D01*
X165174Y-31161D01*
X161181D01*
Y-37343D01*
X168347D01*
Y-31247D01*
X171683Y-27911D01*
X172144Y-28157D01*
X172067Y-28543D01*
X172207Y-29250D01*
X172608Y-29849D01*
X173060Y-30151D01*
Y-51741D01*
X172907Y-51844D01*
X172506Y-52443D01*
X172366Y-53149D01*
X172506Y-53856D01*
X172907Y-54455D01*
X173506Y-54855D01*
X174212Y-54996D01*
X174919Y-54855D01*
X175518Y-54455D01*
X175918Y-53856D01*
X176059Y-53149D01*
X175918Y-52443D01*
X175518Y-51844D01*
X175364Y-51741D01*
Y-31884D01*
X175864Y-31785D01*
X175880Y-31822D01*
X176296Y-32365D01*
X176839Y-32781D01*
X177471Y-33043D01*
X178150Y-33133D01*
X203831D01*
X204291Y-33228D01*
X204291Y-33633D01*
Y-41181D01*
X209488D01*
Y-40229D01*
X209988Y-39793D01*
X210236Y-39826D01*
X210914Y-39736D01*
X211547Y-39474D01*
X212089Y-39058D01*
X212506Y-38515D01*
X212768Y-37883D01*
X212824Y-37456D01*
X213324Y-37489D01*
Y-46693D01*
X213413Y-47371D01*
X213675Y-48003D01*
X214092Y-48546D01*
X214626Y-49080D01*
Y-50590D01*
X217913D01*
X221201D01*
Y-46811D01*
X219769D01*
X218566Y-45607D01*
Y-37205D01*
Y-32963D01*
X218476Y-32284D01*
X218215Y-31652D01*
X217798Y-31109D01*
X215347Y-28659D01*
X214805Y-28242D01*
X214172Y-27980D01*
X213494Y-27891D01*
X181041D01*
X180629Y-27400D01*
Y-22760D01*
X181129Y-22513D01*
X181170Y-22545D01*
X181802Y-22807D01*
X182480Y-22896D01*
X182539D01*
Y-23169D01*
X189508D01*
Y-22896D01*
X191398D01*
Y-23169D01*
X198366D01*
Y-22896D01*
X225883D01*
X234456Y-31469D01*
X234999Y-31886D01*
X235631Y-32148D01*
X235984Y-32194D01*
Y-32707D01*
X238951D01*
X241786Y-35542D01*
X241595Y-36004D01*
X237598D01*
Y-39050D01*
X237556Y-39370D01*
Y-41328D01*
X237301Y-41531D01*
X236811Y-41313D01*
Y-39690D01*
X236853Y-39370D01*
X236811Y-39050D01*
Y-36004D01*
X231653D01*
Y-36749D01*
X228251D01*
X227598Y-36097D01*
Y-33228D01*
X222402D01*
Y-37035D01*
X222379Y-37205D01*
X222402Y-37375D01*
Y-41181D01*
X225270D01*
X225312Y-41223D01*
X225855Y-41640D01*
X225855Y-41640D01*
X226229Y-41795D01*
X226487Y-41901D01*
X226487Y-41901D01*
X226487Y-41902D01*
X226808Y-41944D01*
X227165Y-41991D01*
X231653D01*
Y-42736D01*
X232575D01*
X232782Y-43236D01*
X229207Y-46811D01*
X225256D01*
Y-50762D01*
X224918Y-51100D01*
X224502Y-51642D01*
X224240Y-52275D01*
X224151Y-52953D01*
Y-66201D01*
X222401D01*
Y-66867D01*
X218347D01*
Y-66201D01*
X209606D01*
Y-66867D01*
X205551D01*
Y-66201D01*
X202424D01*
Y-64961D01*
X202335Y-64282D01*
X202073Y-63650D01*
X201656Y-63107D01*
X201114Y-62691D01*
X200482Y-62429D01*
X199803Y-62340D01*
X199125Y-62429D01*
X198493Y-62691D01*
X197950Y-63107D01*
X197533Y-63650D01*
X197272Y-64282D01*
X197182Y-64961D01*
Y-66201D01*
X196811D01*
Y-66867D01*
X189961D01*
X189282Y-66957D01*
X188650Y-67219D01*
X188107Y-67635D01*
X187475Y-68268D01*
X184508D01*
Y-75433D01*
X187291D01*
Y-82677D01*
X187380Y-83355D01*
X187480Y-83598D01*
Y-85709D01*
X192342D01*
Y-83598D01*
X192443Y-83355D01*
X192532Y-82677D01*
Y-74163D01*
X192443Y-73485D01*
X192181Y-72853D01*
X191994Y-72609D01*
X192241Y-72109D01*
X196811D01*
Y-72776D01*
X205551D01*
Y-72109D01*
X209606D01*
Y-72776D01*
X218347D01*
Y-72109D01*
X222401D01*
Y-72776D01*
X231142D01*
Y-72109D01*
X234803D01*
Y-72776D01*
X243543D01*
Y-68825D01*
X248901Y-63467D01*
X249317Y-62925D01*
X249579Y-62292D01*
X249668Y-61614D01*
Y-37096D01*
X249579Y-36418D01*
X249317Y-35786D01*
X248901Y-35243D01*
X243150Y-29493D01*
Y-26526D01*
X236925D01*
X228822Y-18422D01*
X228279Y-18006D01*
X227647Y-17744D01*
X226969Y-17655D01*
X198366D01*
Y-17382D01*
X191398D01*
Y-17655D01*
X189508D01*
Y-17382D01*
X182780D01*
X182610Y-16882D01*
X182955Y-16617D01*
X183365Y-16083D01*
X189508D01*
Y-10295D01*
X188964D01*
X188634Y-9919D01*
X188645Y-9843D01*
X188555Y-9164D01*
X188293Y-8532D01*
X187877Y-7989D01*
X187334Y-7573D01*
X186702Y-7311D01*
X186024Y-7222D01*
X185345Y-7311D01*
X184713Y-7573D01*
X184170Y-7989D01*
X183754Y-8532D01*
X183492Y-9164D01*
X183403Y-9843D01*
X183413Y-9919D01*
X183083Y-10295D01*
X182539D01*
Y-12005D01*
X182039Y-12340D01*
X181780Y-12232D01*
X181102Y-12143D01*
X180424Y-12232D01*
X179792Y-12494D01*
X179466Y-12743D01*
X178920Y-12557D01*
X178894Y-12429D01*
X178648Y-12061D01*
X178608Y-11732D01*
X178648Y-11404D01*
X178894Y-11035D01*
X179004Y-10482D01*
X178894Y-9929D01*
X178648Y-9561D01*
X178608Y-9232D01*
X178648Y-8904D01*
X178894Y-8535D01*
X179004Y-7982D01*
X178894Y-7429D01*
X178581Y-6960D01*
X178112Y-6647D01*
X177559Y-6537D01*
X169095D01*
X168829Y-6590D01*
X168329Y-6233D01*
Y-4776D01*
X168242Y-4335D01*
X167992Y-3961D01*
X165185Y-1154D01*
X164811Y-904D01*
X164370Y-816D01*
X125642D01*
Y0D01*
X251969D01*
Y-176099D01*
D02*
G37*
G36*
X119449Y-21988D02*
X125000D01*
Y-28799D01*
X121221D01*
Y-32421D01*
X125000D01*
Y-34508D01*
X121221D01*
Y-38130D01*
X122273D01*
Y-41004D01*
X119843D01*
Y-47185D01*
X125000D01*
Y-49272D01*
X119843D01*
Y-51210D01*
X118869D01*
Y-20050D01*
X119449D01*
Y-21988D01*
D02*
G37*
G36*
X238496Y-51882D02*
X238489Y-51844D01*
X238468Y-51810D01*
X238433Y-51780D01*
X238384Y-51753D01*
X238321Y-51731D01*
X238244Y-51713D01*
X238153Y-51699D01*
X238048Y-51689D01*
X237795Y-51681D01*
Y-50681D01*
X237929Y-50679D01*
X238153Y-50663D01*
X238244Y-50649D01*
X238321Y-50631D01*
X238384Y-50609D01*
X238433Y-50582D01*
X238468Y-50552D01*
X238489Y-50518D01*
X238496Y-50480D01*
Y-51882D01*
D02*
G37*
G36*
X239373Y-49970D02*
X239544Y-50119D01*
X239714Y-50251D01*
X239883Y-50365D01*
X240051Y-50462D01*
X240219Y-50541D01*
X240385Y-50602D01*
X240551Y-50646D01*
X240716Y-50672D01*
X240880Y-50681D01*
X240880Y-51681D01*
X240716Y-51690D01*
X240551Y-51716D01*
X240385Y-51760D01*
X240219Y-51822D01*
X240051Y-51901D01*
X239883Y-51997D01*
X239714Y-52111D01*
X239544Y-52243D01*
X239373Y-52392D01*
X239201Y-52559D01*
X239201Y-49803D01*
X239373Y-49970D01*
D02*
G37*
G36*
X102500Y-59903D02*
X102537Y-59984D01*
X102597Y-60055D01*
X102682Y-60116D01*
X102790Y-60169D01*
X102923Y-60211D01*
X103080Y-60245D01*
X103261Y-60268D01*
X103466Y-60283D01*
X103695Y-60287D01*
Y-61287D01*
X103466Y-61292D01*
X103080Y-61330D01*
X102923Y-61363D01*
X102790Y-61406D01*
X102682Y-61458D01*
X102597Y-61520D01*
X102537Y-61591D01*
X102500Y-61672D01*
X102489Y-61762D01*
Y-59813D01*
X102500Y-59903D01*
D02*
G37*
G36*
X102334Y-62165D02*
X102163Y-61998D01*
X101992Y-61849D01*
X101822Y-61718D01*
X101653Y-61603D01*
X101484Y-61507D01*
X101317Y-61428D01*
X101150Y-61366D01*
X100984Y-61322D01*
X100819Y-61296D01*
X100655Y-61287D01*
Y-60287D01*
X100819Y-60279D01*
X100984Y-60252D01*
X101150Y-60208D01*
X101317Y-60147D01*
X101484Y-60068D01*
X101653Y-59971D01*
X101822Y-59857D01*
X101992Y-59725D01*
X102163Y-59576D01*
X102334Y-59409D01*
Y-62165D01*
D02*
G37*
G36*
X237854Y-47889D02*
Y-48508D01*
X237795Y-48560D01*
X237117Y-48650D01*
X236485Y-48911D01*
X235942Y-49328D01*
X235526Y-49871D01*
X235264Y-50503D01*
X235174Y-51181D01*
X235264Y-51859D01*
X235526Y-52491D01*
X235942Y-53034D01*
X236485Y-53451D01*
X237117Y-53713D01*
X237795Y-53802D01*
X237854Y-53854D01*
Y-55551D01*
X244426D01*
Y-60529D01*
X238754Y-66201D01*
X234803D01*
Y-66867D01*
X231142D01*
Y-66201D01*
X229392D01*
Y-55551D01*
X231831D01*
Y-51600D01*
X235928Y-47503D01*
X237368D01*
X237854Y-47889D01*
D02*
G37*
G36*
X102489Y-69888D02*
X102525Y-69972D01*
X102586Y-70046D01*
X102672Y-70110D01*
X102781Y-70164D01*
X102915Y-70209D01*
X103074Y-70243D01*
X103256Y-70268D01*
X103464Y-70283D01*
X103695Y-70287D01*
Y-71287D01*
X103464Y-71292D01*
X103074Y-71332D01*
X102915Y-71366D01*
X102781Y-71411D01*
X102672Y-71465D01*
X102586Y-71529D01*
X102525Y-71603D01*
X102489Y-71687D01*
X102477Y-71780D01*
Y-69795D01*
X102489Y-69888D01*
D02*
G37*
G36*
Y-74888D02*
X102525Y-74972D01*
X102586Y-75046D01*
X102672Y-75110D01*
X102781Y-75164D01*
X102915Y-75209D01*
X103074Y-75243D01*
X103256Y-75268D01*
X103464Y-75283D01*
X103695Y-75287D01*
Y-76287D01*
X103464Y-76292D01*
X103074Y-76332D01*
X102915Y-76366D01*
X102781Y-76411D01*
X102672Y-76465D01*
X102586Y-76529D01*
X102525Y-76603D01*
X102489Y-76687D01*
X102477Y-76780D01*
Y-74795D01*
X102489Y-74888D01*
D02*
G37*
G36*
X114546Y-80195D02*
X114285Y-80570D01*
X114179Y-80752D01*
X114090Y-80930D01*
X114076Y-80961D01*
X114131Y-81020D01*
X114206Y-81071D01*
X114291Y-81101D01*
X114386Y-81111D01*
X114014D01*
X113959Y-81274D01*
X113918Y-81441D01*
X113894Y-81603D01*
X113886Y-81762D01*
X112886Y-81866D01*
X112876Y-81698D01*
X112849Y-81532D01*
X112802Y-81367D01*
X112737Y-81205D01*
X112688Y-81111D01*
X112386D01*
X112481Y-81101D01*
X112566Y-81071D01*
X112639Y-81022D01*
X112552Y-80888D01*
X112431Y-80732D01*
X112292Y-80578D01*
X112135Y-80426D01*
X111959Y-80277D01*
X112884Y-80184D01*
X112886Y-80099D01*
X113724D01*
X114701Y-80001D01*
X114546Y-80195D01*
D02*
G37*
G36*
X102668Y-80493D02*
X102662Y-80605D01*
X102678Y-80725D01*
X102717Y-80855D01*
X102779Y-80993D01*
X102863Y-81139D01*
X102970Y-81295D01*
X103100Y-81459D01*
X103252Y-81631D01*
X103426Y-81813D01*
X102976Y-82777D01*
X102806Y-82614D01*
X102506Y-82371D01*
X102377Y-82291D01*
X102261Y-82239D01*
X102159Y-82214D01*
X102071Y-82218D01*
X101996Y-82249D01*
X101935Y-82307D01*
X101888Y-82394D01*
X102696Y-80390D01*
X102668Y-80493D01*
D02*
G37*
G36*
X134307Y-82819D02*
X134272Y-82756D01*
X134221Y-82700D01*
X134154Y-82650D01*
X134072Y-82607D01*
X133974Y-82571D01*
X133860Y-82541D01*
X133731Y-82518D01*
X133586Y-82501D01*
X133249Y-82488D01*
Y-81488D01*
X133425Y-81485D01*
X133731Y-81458D01*
X133860Y-81435D01*
X133974Y-81406D01*
X134072Y-81369D01*
X134154Y-81326D01*
X134221Y-81276D01*
X134272Y-81220D01*
X134307Y-81157D01*
Y-82819D01*
D02*
G37*
G36*
X178805Y-82166D02*
X178835Y-82251D01*
X178886Y-82326D01*
X178957Y-82391D01*
X179048Y-82446D01*
X179159Y-82491D01*
X179291Y-82526D01*
X179443Y-82551D01*
X179615Y-82566D01*
X179807Y-82571D01*
Y-83571D01*
X179615Y-83576D01*
X179443Y-83591D01*
X179291Y-83616D01*
X179159Y-83651D01*
X179048Y-83696D01*
X178957Y-83751D01*
X178886Y-83816D01*
X178835Y-83891D01*
X178805Y-83976D01*
X178795Y-84071D01*
Y-82071D01*
X178805Y-82166D01*
D02*
G37*
G36*
X178781Y-84449D02*
X178610Y-84282D01*
X178439Y-84133D01*
X178269Y-84001D01*
X178100Y-83887D01*
X177931Y-83790D01*
X177764Y-83711D01*
X177597Y-83650D01*
X177431Y-83606D01*
X177266Y-83580D01*
X177102Y-83571D01*
Y-82571D01*
X177266Y-82562D01*
X177431Y-82536D01*
X177597Y-82492D01*
X177764Y-82430D01*
X177931Y-82351D01*
X178100Y-82255D01*
X178269Y-82141D01*
X178439Y-82009D01*
X178610Y-81860D01*
X178781Y-81693D01*
Y-84449D01*
D02*
G37*
G36*
X140540Y-84206D02*
X140560Y-84286D01*
X140603Y-84358D01*
X140668Y-84420D01*
X140756Y-84472D01*
X140866Y-84515D01*
X140998Y-84548D01*
X141153Y-84572D01*
X141330Y-84586D01*
X141529Y-84591D01*
Y-85591D01*
X141239Y-85589D01*
X140365Y-85535D01*
X140305Y-85515D01*
X140284Y-85492D01*
X140301Y-85465D01*
X140356Y-85436D01*
X140542Y-84115D01*
X140540Y-84206D01*
D02*
G37*
G36*
X58547Y-86780D02*
X58535Y-86686D01*
X58498Y-86603D01*
X58437Y-86529D01*
X58352Y-86465D01*
X58242Y-86411D01*
X58108Y-86366D01*
X57950Y-86332D01*
X57767Y-86307D01*
X57560Y-86292D01*
X57329Y-86287D01*
Y-85287D01*
X57560Y-85282D01*
X57950Y-85243D01*
X58108Y-85209D01*
X58242Y-85164D01*
X58352Y-85110D01*
X58437Y-85046D01*
X58498Y-84972D01*
X58535Y-84888D01*
X58547Y-84795D01*
Y-86780D01*
D02*
G37*
G36*
X140549Y-86456D02*
X140570Y-86487D01*
X140605Y-86515D01*
X140654Y-86539D01*
X140717Y-86560D01*
X140794Y-86576D01*
X140884Y-86589D01*
X140989Y-86599D01*
X141240Y-86606D01*
Y-87606D01*
X141108Y-87608D01*
X140884Y-87623D01*
X140794Y-87636D01*
X140717Y-87653D01*
X140654Y-87673D01*
X140605Y-87697D01*
X140570Y-87725D01*
X140549Y-87757D01*
X140542Y-87792D01*
Y-86420D01*
X140549Y-86456D01*
D02*
G37*
G36*
X102431Y-86775D02*
X102382Y-86845D01*
X102359Y-86927D01*
X102362Y-87020D01*
X102391Y-87127D01*
X102446Y-87245D01*
X102527Y-87375D01*
X102635Y-87518D01*
X102769Y-87673D01*
X102929Y-87840D01*
X102055Y-88380D01*
X101882Y-88214D01*
X101563Y-87951D01*
X101417Y-87854D01*
X101280Y-87779D01*
X101152Y-87727D01*
X101032Y-87699D01*
X100922Y-87692D01*
X100821Y-87709D01*
X100728Y-87749D01*
X102507Y-86717D01*
X102431Y-86775D01*
D02*
G37*
G36*
X140531Y-88897D02*
X140580Y-88954D01*
X140644Y-89003D01*
X140722Y-89046D01*
X140814Y-89083D01*
X140921Y-89113D01*
X141043Y-89136D01*
X141179Y-89152D01*
X141329Y-89162D01*
X141494Y-89165D01*
Y-90165D01*
X141329Y-90169D01*
X141043Y-90195D01*
X140921Y-90218D01*
X140814Y-90248D01*
X140722Y-90285D01*
X140644Y-90328D01*
X140580Y-90377D01*
X140531Y-90433D01*
X140496Y-90496D01*
Y-88835D01*
X140531Y-88897D01*
D02*
G37*
G36*
X58547Y-91780D02*
X58535Y-91686D01*
X58498Y-91603D01*
X58437Y-91529D01*
X58352Y-91465D01*
X58242Y-91411D01*
X58108Y-91366D01*
X57950Y-91332D01*
X57767Y-91307D01*
X57560Y-91292D01*
X57329Y-91287D01*
Y-90287D01*
X57560Y-90282D01*
X57950Y-90243D01*
X58108Y-90209D01*
X58242Y-90164D01*
X58352Y-90110D01*
X58437Y-90046D01*
X58498Y-89972D01*
X58535Y-89888D01*
X58547Y-89795D01*
Y-91780D01*
D02*
G37*
G36*
X102579Y-89991D02*
X102842Y-90512D01*
X102936Y-90668D01*
X103131Y-90955D01*
X103233Y-91085D01*
X103445Y-91321D01*
X103198Y-92488D01*
X103019Y-92316D01*
X102712Y-92065D01*
X102584Y-91987D01*
X102473Y-91940D01*
X102379Y-91924D01*
X102302Y-91940D01*
X102243Y-91987D01*
X102200Y-92064D01*
X102175Y-92174D01*
X102497Y-89801D01*
X102579Y-89991D01*
D02*
G37*
G36*
X50855Y-92510D02*
X50876Y-92857D01*
X50883Y-92896D01*
X50892Y-92924D01*
X50902Y-92942D01*
X50913Y-92950D01*
X49795D01*
X49807Y-92942D01*
X49817Y-92924D01*
X49826Y-92896D01*
X49833Y-92857D01*
X49840Y-92808D01*
X49849Y-92680D01*
X49854Y-92409D01*
X50854D01*
X50855Y-92510D01*
D02*
G37*
G36*
X140532Y-91456D02*
X140583Y-91513D01*
X140649Y-91562D01*
X140731Y-91605D01*
X140829Y-91642D01*
X140943Y-91672D01*
X141072Y-91695D01*
X141217Y-91711D01*
X141554Y-91724D01*
Y-92724D01*
X141378Y-92728D01*
X141072Y-92754D01*
X140943Y-92777D01*
X140829Y-92807D01*
X140731Y-92844D01*
X140649Y-92887D01*
X140583Y-92936D01*
X140532Y-92992D01*
X140496Y-93055D01*
Y-91394D01*
X140532Y-91456D01*
D02*
G37*
G36*
Y-94015D02*
X140583Y-94072D01*
X140649Y-94121D01*
X140731Y-94164D01*
X140829Y-94201D01*
X140943Y-94230D01*
X141072Y-94254D01*
X141217Y-94270D01*
X141554Y-94283D01*
Y-95283D01*
X141378Y-95287D01*
X141072Y-95313D01*
X140943Y-95336D01*
X140829Y-95366D01*
X140731Y-95402D01*
X140649Y-95446D01*
X140583Y-95495D01*
X140532Y-95551D01*
X140496Y-95614D01*
Y-93953D01*
X140532Y-94015D01*
D02*
G37*
G36*
X110291Y-95614D02*
X110256Y-95551D01*
X110205Y-95495D01*
X110138Y-95446D01*
X110056Y-95402D01*
X109958Y-95366D01*
X109844Y-95336D01*
X109715Y-95313D01*
X109570Y-95297D01*
X109233Y-95283D01*
Y-94283D01*
X109409Y-94280D01*
X109715Y-94254D01*
X109844Y-94230D01*
X109958Y-94201D01*
X110056Y-94164D01*
X110138Y-94121D01*
X110205Y-94072D01*
X110256Y-94015D01*
X110291Y-93953D01*
Y-95614D01*
D02*
G37*
G36*
X102489Y-94888D02*
X102525Y-94972D01*
X102586Y-95046D01*
X102672Y-95110D01*
X102781Y-95164D01*
X102915Y-95209D01*
X103074Y-95243D01*
X103256Y-95268D01*
X103464Y-95283D01*
X103695Y-95287D01*
Y-96287D01*
X103464Y-96292D01*
X103074Y-96332D01*
X102915Y-96366D01*
X102781Y-96411D01*
X102672Y-96465D01*
X102586Y-96529D01*
X102525Y-96603D01*
X102489Y-96687D01*
X102477Y-96780D01*
Y-94795D01*
X102489Y-94888D01*
D02*
G37*
G36*
X140532Y-96575D02*
X140583Y-96631D01*
X140649Y-96680D01*
X140731Y-96724D01*
X140829Y-96760D01*
X140943Y-96790D01*
X141072Y-96813D01*
X141217Y-96829D01*
X141554Y-96843D01*
Y-97843D01*
X141378Y-97846D01*
X141072Y-97872D01*
X140943Y-97896D01*
X140829Y-97925D01*
X140731Y-97962D01*
X140649Y-98005D01*
X140583Y-98054D01*
X140532Y-98111D01*
X140496Y-98173D01*
Y-96512D01*
X140532Y-96575D01*
D02*
G37*
G36*
X110291Y-98173D02*
X110256Y-98111D01*
X110205Y-98054D01*
X110138Y-98005D01*
X110056Y-97962D01*
X109958Y-97925D01*
X109844Y-97896D01*
X109715Y-97872D01*
X109570Y-97856D01*
X109233Y-97843D01*
Y-96843D01*
X109409Y-96839D01*
X109715Y-96813D01*
X109844Y-96790D01*
X109958Y-96760D01*
X110056Y-96724D01*
X110138Y-96680D01*
X110205Y-96631D01*
X110256Y-96575D01*
X110291Y-96512D01*
Y-98173D01*
D02*
G37*
G36*
X133542Y-83385D02*
X133621Y-83503D01*
X133644Y-83603D01*
X133645Y-83658D01*
X133606Y-83856D01*
Y-85238D01*
X133670Y-85560D01*
X133848Y-85827D01*
X133670Y-86093D01*
X133606Y-86415D01*
Y-87797D01*
X133670Y-88119D01*
X133848Y-88386D01*
X133670Y-88653D01*
X133606Y-88974D01*
Y-90356D01*
X133670Y-90678D01*
X133848Y-90945D01*
X133670Y-91212D01*
X133606Y-91533D01*
Y-92915D01*
X133670Y-93237D01*
X133848Y-93504D01*
X133670Y-93771D01*
X133606Y-94093D01*
Y-95474D01*
X133670Y-95796D01*
X133848Y-96063D01*
X133670Y-96330D01*
X133606Y-96652D01*
Y-98033D01*
X133640Y-98203D01*
X133179Y-98449D01*
X132058Y-97328D01*
Y-96851D01*
X132211Y-96749D01*
X132612Y-96150D01*
X132752Y-95443D01*
X132612Y-94736D01*
X132211Y-94137D01*
X131612Y-93737D01*
X130906Y-93597D01*
X130199Y-93737D01*
X129999Y-93871D01*
X129499Y-93604D01*
Y-84729D01*
X131087Y-83140D01*
X133332D01*
X133542Y-83385D01*
D02*
G37*
G36*
X134307Y-100733D02*
X134272Y-100670D01*
X134221Y-100613D01*
X134154Y-100564D01*
X134072Y-100521D01*
X133974Y-100484D01*
X133860Y-100454D01*
X133731Y-100431D01*
X133586Y-100415D01*
X133249Y-100402D01*
Y-99402D01*
X133425Y-99398D01*
X133731Y-99372D01*
X133860Y-99349D01*
X133974Y-99319D01*
X134072Y-99282D01*
X134154Y-99239D01*
X134221Y-99190D01*
X134272Y-99134D01*
X134307Y-99071D01*
Y-100733D01*
D02*
G37*
G36*
X110291D02*
X110256Y-100670D01*
X110205Y-100613D01*
X110138Y-100564D01*
X110056Y-100521D01*
X109958Y-100484D01*
X109844Y-100454D01*
X109715Y-100431D01*
X109570Y-100415D01*
X109233Y-100402D01*
Y-99402D01*
X109409Y-99398D01*
X109715Y-99372D01*
X109844Y-99349D01*
X109958Y-99319D01*
X110056Y-99282D01*
X110138Y-99239D01*
X110205Y-99190D01*
X110256Y-99134D01*
X110291Y-99071D01*
Y-100733D01*
D02*
G37*
G36*
X59387Y-102540D02*
X59326Y-102468D01*
X59253Y-102422D01*
X59169Y-102401D01*
X59073Y-102406D01*
X58965Y-102437D01*
X58845Y-102494D01*
X58714Y-102576D01*
X58570Y-102684D01*
X58415Y-102818D01*
X58249Y-102978D01*
X57677Y-102136D01*
X57841Y-101964D01*
X58100Y-101649D01*
X58195Y-101506D01*
X58267Y-101371D01*
X58316Y-101246D01*
X58342Y-101129D01*
X58345Y-101022D01*
X58324Y-100924D01*
X58281Y-100835D01*
X59387Y-102540D01*
D02*
G37*
G36*
X134307Y-103291D02*
X134272Y-103229D01*
X134221Y-103172D01*
X134154Y-103123D01*
X134072Y-103080D01*
X133974Y-103043D01*
X133860Y-103014D01*
X133731Y-102990D01*
X133586Y-102974D01*
X133249Y-102961D01*
Y-101961D01*
X133425Y-101957D01*
X133731Y-101931D01*
X133860Y-101908D01*
X133974Y-101878D01*
X134072Y-101841D01*
X134154Y-101798D01*
X134221Y-101749D01*
X134272Y-101693D01*
X134307Y-101630D01*
Y-103291D01*
D02*
G37*
G36*
X110245Y-105568D02*
X110240Y-105559D01*
X110223Y-105550D01*
X110195Y-105543D01*
X110155Y-105537D01*
X110105Y-105532D01*
X109887Y-105522D01*
X109685Y-105520D01*
Y-104520D01*
X109791Y-104519D01*
X110195Y-104496D01*
X110223Y-104489D01*
X110240Y-104481D01*
X110245Y-104472D01*
Y-105568D01*
D02*
G37*
G36*
X174237Y-105921D02*
X174226Y-105826D01*
X174196Y-105741D01*
X174146Y-105666D01*
X174075Y-105601D01*
X173984Y-105546D01*
X173872Y-105501D01*
X173741Y-105466D01*
X173589Y-105441D01*
X173417Y-105426D01*
X173225Y-105421D01*
Y-104421D01*
X173417Y-104416D01*
X173589Y-104401D01*
X173741Y-104376D01*
X173872Y-104341D01*
X173984Y-104296D01*
X174075Y-104241D01*
X174146Y-104176D01*
X174196Y-104101D01*
X174226Y-104016D01*
X174237Y-103921D01*
Y-105921D01*
D02*
G37*
G36*
X137788Y-105904D02*
X137648Y-105925D01*
X137508Y-105961D01*
X137367Y-106012D01*
X137226Y-106076D01*
X137084Y-106155D01*
X136942Y-106249D01*
X136800Y-106357D01*
X136656Y-106479D01*
X136513Y-106616D01*
X135122D01*
X136188Y-106941D01*
X136104Y-107030D01*
X136033Y-107118D01*
X135974Y-107204D01*
X135928Y-107290D01*
X135894Y-107373D01*
X135873Y-107455D01*
X135864Y-107536D01*
X135868Y-107615D01*
X135885Y-107693D01*
X135914Y-107770D01*
X134375Y-107183D01*
X134432Y-107156D01*
X134492Y-107122D01*
X134556Y-107082D01*
X134695Y-106981D01*
X134847Y-106853D01*
X135101Y-106613D01*
X135228Y-106479D01*
X135329Y-106357D01*
X135401Y-106249D01*
X135444Y-106155D01*
X135458Y-106076D01*
X135444Y-106012D01*
X135401Y-105961D01*
X135329Y-105925D01*
X135228Y-105904D01*
X135099Y-105896D01*
X137927D01*
X137788Y-105904D01*
D02*
G37*
G36*
X50858Y-109340D02*
X50882Y-109579D01*
X50904Y-109681D01*
X50932Y-109769D01*
X50966Y-109846D01*
X51007Y-109910D01*
X51053Y-109962D01*
X51106Y-110001D01*
X51165Y-110028D01*
X49543D01*
X49603Y-110001D01*
X49655Y-109962D01*
X49702Y-109910D01*
X49742Y-109846D01*
X49777Y-109769D01*
X49805Y-109681D01*
X49826Y-109579D01*
X49842Y-109466D01*
X49851Y-109340D01*
X49854Y-109201D01*
X50854D01*
X50858Y-109340D01*
D02*
G37*
G36*
X132605Y-104160D02*
X132248Y-104611D01*
X131933Y-105083D01*
X131661Y-105576D01*
X131430Y-106090D01*
X131241Y-106626D01*
X131094Y-107182D01*
X130990Y-107759D01*
X130951Y-108123D01*
X131020Y-108803D01*
X131108Y-109213D01*
X131222Y-109559D01*
X131362Y-109843D01*
X131527Y-110063D01*
X131717Y-110221D01*
X131932Y-110315D01*
X132173Y-110347D01*
X126488D01*
X126729Y-110315D01*
X126945Y-110221D01*
X127135Y-110063D01*
X127300Y-109843D01*
X127439Y-109559D01*
X127553Y-109213D01*
X127642Y-108803D01*
X127705Y-108331D01*
X127743Y-107795D01*
X127756Y-107197D01*
X130168D01*
X129331Y-105175D01*
X133003Y-103730D01*
X132605Y-104160D01*
D02*
G37*
G36*
X66149Y-105651D02*
X66262Y-106035D01*
X66417Y-106431D01*
X66614Y-106836D01*
X66854Y-107253D01*
X67137Y-107679D01*
X67462Y-108117D01*
X68240Y-109023D01*
X68693Y-109492D01*
X64178Y-110545D01*
X63664Y-110047D01*
X62682Y-109193D01*
X62214Y-108836D01*
X61323Y-108266D01*
X60901Y-108052D01*
X60494Y-107885D01*
X60102Y-107766D01*
X59725Y-107694D01*
X66079Y-105277D01*
X66149Y-105651D01*
D02*
G37*
G36*
X135347Y-114850D02*
X135315Y-114722D01*
X135221Y-114606D01*
X135063Y-114505D01*
X134843Y-114417D01*
X134559Y-114342D01*
X134213Y-114281D01*
X133867Y-114241D01*
X133307Y-114281D01*
X132960Y-114342D01*
X132677Y-114417D01*
X132457Y-114505D01*
X132299Y-114606D01*
X132205Y-114722D01*
X132173Y-114850D01*
Y-110347D01*
X132205Y-110475D01*
X132299Y-110590D01*
X132457Y-110692D01*
X132677Y-110780D01*
X132960Y-110854D01*
X133307Y-110915D01*
X133653Y-110955D01*
X134213Y-110915D01*
X134559Y-110854D01*
X134843Y-110780D01*
X135063Y-110692D01*
X135221Y-110590D01*
X135315Y-110475D01*
X135347Y-110347D01*
Y-114850D01*
D02*
G37*
G36*
X173583Y-106674D02*
Y-108012D01*
X177072D01*
X177199Y-108217D01*
X177261Y-108512D01*
X174591Y-111181D01*
X174341Y-111555D01*
X174253Y-111996D01*
Y-112081D01*
X173811Y-112574D01*
X173004Y-112574D01*
X172504Y-112574D01*
X168004D01*
Y-112574D01*
X167807D01*
X167478Y-112210D01*
X167438Y-112112D01*
X173083Y-106467D01*
X173583Y-106674D01*
D02*
G37*
G36*
X175911Y-112408D02*
X175926Y-112580D01*
X175951Y-112732D01*
X175986Y-112864D01*
X176031Y-112975D01*
X176086Y-113066D01*
X176151Y-113137D01*
X176226Y-113188D01*
X176311Y-113218D01*
X176406Y-113228D01*
X174406D01*
X174501Y-113218D01*
X174586Y-113188D01*
X174661Y-113137D01*
X174726Y-113066D01*
X174781Y-112975D01*
X174826Y-112864D01*
X174861Y-112732D01*
X174886Y-112580D01*
X174901Y-112408D01*
X174906Y-112216D01*
X175906D01*
X175911Y-112408D01*
D02*
G37*
G36*
X165908Y-112651D02*
X165924Y-112879D01*
X165938Y-112971D01*
X165956Y-113050D01*
X165978Y-113114D01*
X166004Y-113164D01*
X166034Y-113199D01*
X166068Y-113221D01*
X166107Y-113228D01*
X164705D01*
X164743Y-113221D01*
X164777Y-113199D01*
X164807Y-113164D01*
X164833Y-113114D01*
X164855Y-113050D01*
X164873Y-112971D01*
X164887Y-112879D01*
X164898Y-112772D01*
X164906Y-112515D01*
X165906D01*
X165908Y-112651D01*
D02*
G37*
G36*
X142242Y-99580D02*
Y-132567D01*
X142329Y-133008D01*
X142579Y-133382D01*
X148964Y-139767D01*
X149338Y-140016D01*
X149779Y-140104D01*
X149874Y-140199D01*
X149874Y-141354D01*
X149874Y-141854D01*
Y-142800D01*
X149350D01*
X132716Y-126165D01*
X132752Y-125984D01*
X132611Y-125277D01*
X132211Y-124678D01*
X131612Y-124278D01*
X130905Y-124137D01*
X130199Y-124278D01*
X129599Y-124678D01*
X129199Y-125277D01*
X129059Y-125984D01*
X129199Y-126691D01*
X129599Y-127290D01*
X130199Y-127690D01*
X130905Y-127831D01*
X131086Y-127795D01*
X147908Y-144616D01*
X147829Y-144782D01*
X147613Y-145028D01*
X146996Y-144905D01*
X146289Y-145046D01*
X145931Y-145286D01*
X126810Y-126165D01*
X126846Y-125984D01*
X126706Y-125277D01*
X126305Y-124678D01*
X126171Y-124588D01*
X125815Y-124233D01*
X125824Y-124202D01*
X125843Y-124174D01*
X125860Y-124082D01*
X125887Y-123993D01*
X125883Y-123960D01*
X125890Y-123928D01*
X125882Y-122934D01*
X126234Y-122579D01*
X132815D01*
Y-116791D01*
X127500D01*
X127433Y-116284D01*
X127312Y-115992D01*
X127646Y-115492D01*
X128740D01*
Y-112598D01*
X129921D01*
Y-115492D01*
X132171D01*
X132173Y-115492D01*
X132175Y-115492D01*
X132815D01*
Y-115053D01*
X132878Y-115028D01*
X133098Y-114970D01*
X133386Y-114920D01*
X133852Y-114886D01*
X134120Y-114917D01*
X134422Y-114970D01*
X134641Y-115028D01*
X134705Y-115053D01*
Y-115492D01*
X135345D01*
X135347Y-115492D01*
X135348Y-115492D01*
X137599D01*
Y-112598D01*
Y-109705D01*
X136662D01*
X136395Y-109205D01*
X136548Y-108974D01*
X136689Y-108268D01*
X136548Y-107561D01*
X136529Y-107531D01*
X136548Y-107503D01*
X137140Y-106910D01*
X137202Y-106857D01*
X137313Y-106774D01*
X137418Y-106705D01*
X137517Y-106649D01*
X137610Y-106607D01*
X137696Y-106576D01*
X137777Y-106555D01*
X137801Y-106552D01*
X140356D01*
X140678Y-106488D01*
X140951Y-106305D01*
X141133Y-106032D01*
X141197Y-105710D01*
Y-104329D01*
X141133Y-104007D01*
X140955Y-103740D01*
X141133Y-103473D01*
X141197Y-103152D01*
Y-103051D01*
X137402D01*
Y-101870D01*
X141197D01*
Y-101770D01*
X141133Y-101448D01*
X140955Y-101181D01*
X141133Y-100914D01*
X141197Y-100593D01*
Y-99242D01*
X141269Y-99179D01*
X141666Y-99004D01*
X142242Y-99580D01*
D02*
G37*
G36*
X159281Y-115635D02*
Y-116164D01*
X159008Y-116550D01*
X153669D01*
X151404Y-114286D01*
Y-108411D01*
X151866Y-108220D01*
X159281Y-115635D01*
D02*
G37*
G36*
X58587Y-116748D02*
X58577Y-116653D01*
X58547Y-116568D01*
X58496Y-116493D01*
X58425Y-116428D01*
X58334Y-116373D01*
X58223Y-116328D01*
X58091Y-116293D01*
X57939Y-116268D01*
X57767Y-116253D01*
X57575Y-116248D01*
Y-115248D01*
X57767Y-115243D01*
X57939Y-115228D01*
X58091Y-115203D01*
X58223Y-115168D01*
X58334Y-115123D01*
X58425Y-115068D01*
X58496Y-115003D01*
X58547Y-114928D01*
X58577Y-114843D01*
X58587Y-114748D01*
Y-116748D01*
D02*
G37*
G36*
X59058Y-114537D02*
X59229Y-114686D01*
X59399Y-114818D01*
X59568Y-114932D01*
X59736Y-115029D01*
X59904Y-115108D01*
X60070Y-115169D01*
X60236Y-115213D01*
X60401Y-115239D01*
X60565Y-115248D01*
Y-116248D01*
X60401Y-116257D01*
X60236Y-116283D01*
X60070Y-116327D01*
X59904Y-116388D01*
X59736Y-116467D01*
X59568Y-116564D01*
X59399Y-116678D01*
X59229Y-116810D01*
X59058Y-116959D01*
X58886Y-117126D01*
Y-114370D01*
X59058Y-114537D01*
D02*
G37*
G36*
X70205Y-113072D02*
X70323Y-113220D01*
X70520Y-113351D01*
X70795Y-113465D01*
X71149Y-113561D01*
X71583Y-113640D01*
X72094Y-113701D01*
X72159Y-113704D01*
X73437Y-113610D01*
X73791Y-113536D01*
X74067Y-113448D01*
X74264Y-113346D01*
X74382Y-113231D01*
X74422Y-113102D01*
Y-118394D01*
X74382Y-118265D01*
X74264Y-118150D01*
X74067Y-118048D01*
X73791Y-117960D01*
X73437Y-117886D01*
X73004Y-117825D01*
X72505Y-117788D01*
X71583Y-117856D01*
X71149Y-117935D01*
X70795Y-118031D01*
X70520Y-118145D01*
X70323Y-118276D01*
X70205Y-118424D01*
X70165Y-118590D01*
X70111Y-118630D01*
X70063Y-118748D01*
X70021Y-118945D01*
X69984Y-119220D01*
X69937Y-119865D01*
X70063Y-122000D01*
X70111Y-122118D01*
X70165Y-122158D01*
X69889D01*
X69882Y-122527D01*
X65945D01*
X65943Y-122158D01*
X65662D01*
X65715Y-122118D01*
X65764Y-122000D01*
X65806Y-121803D01*
X65843Y-121528D01*
X65889Y-120883D01*
X65764Y-118748D01*
X65715Y-118630D01*
X65662Y-118590D01*
X65938D01*
X65945Y-118221D01*
X69882D01*
X69883Y-118590D01*
X70165D01*
Y-112906D01*
X70205Y-113072D01*
D02*
G37*
G36*
X50858Y-117844D02*
X50882Y-118083D01*
X50904Y-118185D01*
X50932Y-118273D01*
X50966Y-118350D01*
X51007Y-118414D01*
X51053Y-118466D01*
X51106Y-118505D01*
X51165Y-118532D01*
X49543D01*
X49603Y-118505D01*
X49655Y-118466D01*
X49702Y-118414D01*
X49742Y-118350D01*
X49777Y-118273D01*
X49805Y-118185D01*
X49826Y-118083D01*
X49842Y-117970D01*
X49851Y-117844D01*
X49854Y-117705D01*
X50854D01*
X50858Y-117844D01*
D02*
G37*
G36*
X217163Y-117205D02*
X217194Y-117290D01*
X217244Y-117365D01*
X217315Y-117430D01*
X217406Y-117485D01*
X217518Y-117530D01*
X217649Y-117565D01*
X217801Y-117590D01*
X217973Y-117605D01*
X218165Y-117610D01*
Y-118610D01*
X217973Y-118615D01*
X217801Y-118630D01*
X217649Y-118655D01*
X217518Y-118690D01*
X217406Y-118735D01*
X217315Y-118790D01*
X217244Y-118855D01*
X217194Y-118930D01*
X217163Y-119015D01*
X217153Y-119110D01*
Y-117110D01*
X217163Y-117205D01*
D02*
G37*
G36*
X207504Y-121708D02*
X207807Y-121708D01*
X208361Y-121708D01*
X208574Y-122117D01*
X208496Y-122233D01*
X200922D01*
X200481Y-122321D01*
X200107Y-122570D01*
X181456Y-141222D01*
X180913Y-141057D01*
X180840Y-140687D01*
X180439Y-140088D01*
X179841Y-139688D01*
X179134Y-139547D01*
X178427Y-139688D01*
X178413Y-139697D01*
X171085Y-132370D01*
Y-121708D01*
X172504D01*
X172807Y-121708D01*
X173307Y-121708D01*
X177504D01*
X177807Y-121708D01*
X178307Y-121708D01*
X182504D01*
X182807Y-121708D01*
X183307Y-121708D01*
X187504D01*
X187807Y-121708D01*
X188307Y-121708D01*
X192504D01*
X192807Y-121708D01*
X193307Y-121708D01*
X197504D01*
X197807Y-121708D01*
X198307Y-121708D01*
X202504D01*
X202807Y-121708D01*
X203307Y-121708D01*
X207504D01*
D02*
G37*
G36*
X168781Y-132847D02*
X168869Y-133288D01*
X169118Y-133662D01*
X177396Y-141939D01*
X177428Y-142100D01*
X177828Y-142699D01*
X178427Y-143099D01*
X178797Y-143173D01*
X178962Y-143716D01*
X173507Y-149171D01*
X173046Y-148924D01*
X173106Y-148622D01*
X172966Y-147915D01*
X172565Y-147316D01*
X171967Y-146916D01*
X171260Y-146775D01*
X171079Y-146812D01*
X164845Y-140578D01*
Y-125250D01*
X165466Y-125126D01*
X166065Y-124726D01*
X166465Y-124127D01*
X166606Y-123421D01*
X166465Y-122714D01*
X166127Y-122208D01*
X166235Y-121870D01*
X166348Y-121708D01*
X167807D01*
Y-121708D01*
X168004D01*
Y-121708D01*
X168781D01*
Y-132847D01*
D02*
G37*
G36*
X211311Y-121076D02*
X211226Y-121106D01*
X211151Y-121156D01*
X211086Y-121226D01*
X211031Y-121316D01*
X210986Y-121426D01*
X210951Y-121556D01*
X210926Y-121706D01*
X210911Y-121876D01*
X210906Y-122066D01*
X209906D01*
X209901Y-121876D01*
X209886Y-121706D01*
X209861Y-121556D01*
X209826Y-121426D01*
X209781Y-121316D01*
X209726Y-121226D01*
X209661Y-121156D01*
X209586Y-121106D01*
X209501Y-121076D01*
X209406Y-121066D01*
X211406D01*
X211311Y-121076D01*
D02*
G37*
G36*
X120981Y-120464D02*
X121008Y-120629D01*
X121051Y-120795D01*
X121113Y-120962D01*
X121192Y-121129D01*
X121289Y-121298D01*
X121403Y-121467D01*
X121534Y-121637D01*
X121684Y-121808D01*
X121850Y-121979D01*
X121272D01*
X121217Y-122016D01*
X121152Y-122087D01*
X121097Y-122178D01*
X121052Y-122289D01*
X121017Y-122421D01*
X120992Y-122573D01*
X120977Y-122745D01*
X120972Y-122937D01*
X119972D01*
X119967Y-122745D01*
X119952Y-122573D01*
X119927Y-122421D01*
X119892Y-122289D01*
X119847Y-122178D01*
X119792Y-122087D01*
X119727Y-122016D01*
X119673Y-121979D01*
X119095D01*
X119261Y-121808D01*
X119411Y-121637D01*
X119542Y-121467D01*
X119656Y-121298D01*
X119753Y-121129D01*
X119832Y-120962D01*
X119893Y-120795D01*
X119937Y-120629D01*
X119964Y-120464D01*
X119972Y-120300D01*
X120972D01*
X120981Y-120464D01*
D02*
G37*
G36*
X150528Y-124862D02*
X150519Y-124784D01*
X150491Y-124714D01*
X150445Y-124653D01*
X150381Y-124600D01*
X150298Y-124554D01*
X150196Y-124518D01*
X150076Y-124489D01*
X149938Y-124468D01*
X149782Y-124456D01*
X149606Y-124452D01*
Y-123452D01*
X149782Y-123448D01*
X149938Y-123436D01*
X150076Y-123415D01*
X150196Y-123387D01*
X150298Y-123350D01*
X150381Y-123304D01*
X150445Y-123251D01*
X150491Y-123190D01*
X150519Y-123120D01*
X150528Y-123042D01*
Y-124862D01*
D02*
G37*
G36*
X164354Y-124530D02*
X164193Y-125166D01*
X163193Y-124637D01*
X163580Y-123348D01*
X164354Y-124530D01*
D02*
G37*
G36*
X78654Y-124974D02*
X78666Y-125126D01*
X78685Y-125261D01*
X78713Y-125378D01*
X78749Y-125477D01*
X78793Y-125557D01*
X78844Y-125620D01*
X78904Y-125665D01*
X78972Y-125692D01*
X79047Y-125701D01*
X77252D01*
X77327Y-125692D01*
X77395Y-125665D01*
X77455Y-125620D01*
X77506Y-125557D01*
X77550Y-125477D01*
X77586Y-125378D01*
X77614Y-125261D01*
X77634Y-125126D01*
X77646Y-124974D01*
X77650Y-124803D01*
X78650D01*
X78654Y-124974D01*
D02*
G37*
G36*
X79361Y-126381D02*
X79211Y-126551D01*
X79080Y-126722D01*
X78966Y-126891D01*
X78869Y-127059D01*
X78790Y-127226D01*
X78729Y-127393D01*
X78685Y-127559D01*
X78658Y-127724D01*
X78650Y-127888D01*
X77650D01*
X77641Y-127724D01*
X77614Y-127559D01*
X77571Y-127393D01*
X77509Y-127226D01*
X77430Y-127059D01*
X77333Y-126891D01*
X77219Y-126722D01*
X77088Y-126551D01*
X76938Y-126381D01*
X76772Y-126209D01*
X79527D01*
X79361Y-126381D01*
D02*
G37*
G36*
X221803Y-127417D02*
X221803D01*
Y-127613D01*
X221803D01*
Y-128863D01*
X200032D01*
X199840Y-128401D01*
X202074Y-126167D01*
X221803D01*
Y-127417D01*
D02*
G37*
G36*
X150528Y-129847D02*
X150519Y-129772D01*
X150492Y-129705D01*
X150446Y-129646D01*
X150383Y-129594D01*
X150301Y-129551D01*
X150201Y-129515D01*
X150084Y-129488D01*
X149948Y-129468D01*
X149794Y-129456D01*
X149621Y-129452D01*
Y-128452D01*
X149794Y-128448D01*
X149948Y-128436D01*
X150084Y-128417D01*
X150201Y-128389D01*
X150301Y-128353D01*
X150383Y-128310D01*
X150446Y-128259D01*
X150492Y-128199D01*
X150519Y-128132D01*
X150528Y-128057D01*
Y-129847D01*
D02*
G37*
G36*
X221803Y-132417D02*
X221803D01*
Y-132613D01*
X221803D01*
Y-133691D01*
X197509D01*
X197318Y-133229D01*
X199379Y-131167D01*
X221803D01*
Y-132417D01*
D02*
G37*
G36*
X150528Y-134952D02*
X150518Y-134857D01*
X150487Y-134772D01*
X150437Y-134697D01*
X150366Y-134632D01*
X150275Y-134577D01*
X150164Y-134532D01*
X150032Y-134497D01*
X149880Y-134472D01*
X149708Y-134457D01*
X149516Y-134452D01*
Y-133452D01*
X149708Y-133447D01*
X149880Y-133432D01*
X150032Y-133407D01*
X150164Y-133372D01*
X150275Y-133327D01*
X150366Y-133272D01*
X150437Y-133207D01*
X150487Y-133132D01*
X150518Y-133047D01*
X150528Y-132952D01*
Y-134952D01*
D02*
G37*
G36*
X221803Y-137417D02*
X221803D01*
Y-137613D01*
X221803D01*
Y-138863D01*
X194861D01*
X194669Y-138401D01*
X197076Y-135995D01*
X221803D01*
Y-137417D01*
D02*
G37*
G36*
X102580Y-137897D02*
X102609Y-137944D01*
X102658Y-137986D01*
X102726Y-138022D01*
X102813Y-138052D01*
X102920Y-138077D01*
X103047Y-138097D01*
X103193Y-138111D01*
X103543Y-138122D01*
Y-139122D01*
X103358Y-139125D01*
X103047Y-139147D01*
X102920Y-139166D01*
X102813Y-139191D01*
X102726Y-139222D01*
X102658Y-139258D01*
X102609Y-139300D01*
X102580Y-139347D01*
X102570Y-139400D01*
Y-137844D01*
X102580Y-137897D01*
D02*
G37*
G36*
X150528Y-139689D02*
X150521Y-139644D01*
X150498Y-139604D01*
X150461Y-139568D01*
X150408Y-139537D01*
X150341Y-139511D01*
X150258Y-139490D01*
X150161Y-139473D01*
X150048Y-139462D01*
X149779Y-139452D01*
Y-138452D01*
X149921Y-138450D01*
X150161Y-138431D01*
X150258Y-138414D01*
X150341Y-138393D01*
X150408Y-138367D01*
X150461Y-138336D01*
X150498Y-138300D01*
X150521Y-138260D01*
X150528Y-138215D01*
Y-139689D01*
D02*
G37*
G36*
X102475Y-139842D02*
X102256Y-139706D01*
X101644Y-139381D01*
X101456Y-139302D01*
X101275Y-139237D01*
X101102Y-139187D01*
X100937Y-139151D01*
X100779Y-139129D01*
X100629Y-139122D01*
X100395Y-138122D01*
X100567Y-138112D01*
X100734Y-138083D01*
X100895Y-138035D01*
X101051Y-137967D01*
X101201Y-137880D01*
X101346Y-137774D01*
X101485Y-137648D01*
X101618Y-137503D01*
X101746Y-137338D01*
X101869Y-137154D01*
X102475Y-139842D01*
D02*
G37*
G36*
X221803Y-142417D02*
X221803D01*
Y-142613D01*
X221803D01*
Y-143863D01*
X192307D01*
X192100Y-143363D01*
X194296Y-141167D01*
X221803D01*
Y-142417D01*
D02*
G37*
G36*
X102500Y-147738D02*
X102537Y-147818D01*
X102597Y-147889D01*
X102682Y-147951D01*
X102790Y-148003D01*
X102923Y-148046D01*
X103080Y-148079D01*
X103261Y-148103D01*
X103466Y-148117D01*
X103695Y-148122D01*
Y-149122D01*
X103466Y-149127D01*
X103080Y-149165D01*
X102923Y-149198D01*
X102790Y-149241D01*
X102682Y-149293D01*
X102597Y-149355D01*
X102537Y-149426D01*
X102500Y-149506D01*
X102489Y-149597D01*
Y-147647D01*
X102500Y-147738D01*
D02*
G37*
G36*
X169449Y-148441D02*
X169413Y-148622D01*
X169554Y-149329D01*
X169954Y-149928D01*
X170553Y-150328D01*
X171260Y-150469D01*
X171562Y-150408D01*
X171809Y-150869D01*
X170208Y-152470D01*
X169715D01*
X169613Y-152316D01*
X169014Y-151916D01*
X168307Y-151776D01*
X167601Y-151916D01*
X167001Y-152316D01*
X166601Y-152915D01*
X166461Y-153622D01*
X166601Y-154329D01*
X167001Y-154928D01*
X167601Y-155328D01*
X168307Y-155468D01*
X168931Y-155344D01*
X169126Y-155554D01*
X169226Y-155757D01*
X166784Y-158198D01*
X164861D01*
X164824Y-158143D01*
X164225Y-157743D01*
X163890Y-157167D01*
X163896Y-157138D01*
Y-154563D01*
X163808Y-154122D01*
X163559Y-153748D01*
X163215Y-153405D01*
Y-142860D01*
X163677Y-142668D01*
X169449Y-148441D01*
D02*
G37*
G36*
X70854Y-153740D02*
X70763Y-153743D01*
X70672Y-153756D01*
X70582Y-153777D01*
X70492Y-153806D01*
X70402Y-153845D01*
X70313Y-153893D01*
X70225Y-153949D01*
X70137Y-154014D01*
X70049Y-154087D01*
X69962Y-154170D01*
X69255Y-153463D01*
X69337Y-153376D01*
X69411Y-153288D01*
X69476Y-153200D01*
X69532Y-153112D01*
X69580Y-153023D01*
X69618Y-152933D01*
X69648Y-152843D01*
X69669Y-152753D01*
X69682Y-152662D01*
X69685Y-152571D01*
X70854Y-153740D01*
D02*
G37*
G36*
X102489Y-152723D02*
X102525Y-152807D01*
X102586Y-152881D01*
X102672Y-152945D01*
X102781Y-152999D01*
X102915Y-153043D01*
X103074Y-153078D01*
X103256Y-153102D01*
X103464Y-153117D01*
X103695Y-153122D01*
Y-154122D01*
X103464Y-154127D01*
X103074Y-154166D01*
X102915Y-154201D01*
X102781Y-154245D01*
X102672Y-154299D01*
X102586Y-154363D01*
X102525Y-154437D01*
X102489Y-154521D01*
X102477Y-154615D01*
Y-152629D01*
X102489Y-152723D01*
D02*
G37*
G36*
X158373Y-153311D02*
X158393Y-153340D01*
X158427Y-153367D01*
X158474Y-153389D01*
X158535Y-153409D01*
X158609Y-153424D01*
X158696Y-153436D01*
X158912Y-153450D01*
X159040Y-153452D01*
Y-154452D01*
X158912Y-154454D01*
X158609Y-154480D01*
X158535Y-154496D01*
X158474Y-154515D01*
X158427Y-154537D01*
X158393Y-154563D01*
X158373Y-154593D01*
X158366Y-154626D01*
Y-153278D01*
X158373Y-153311D01*
D02*
G37*
G36*
X112906Y-155175D02*
X112918Y-155330D01*
X112938Y-155467D01*
X112966Y-155586D01*
X113002Y-155686D01*
X113046Y-155769D01*
X113098Y-155832D01*
X113158Y-155878D01*
X113226Y-155905D01*
X113302Y-155914D01*
X111501D01*
X111577Y-155905D01*
X111645Y-155878D01*
X111705Y-155832D01*
X111757Y-155769D01*
X111801Y-155686D01*
X111837Y-155586D01*
X111865Y-155467D01*
X111886Y-155330D01*
X111898Y-155175D01*
X111902Y-155002D01*
X112902D01*
X112906Y-155175D01*
D02*
G37*
G36*
X158368Y-157863D02*
X158373Y-157918D01*
X158382Y-157962D01*
X158394Y-157996D01*
X158410Y-158019D01*
X158430Y-158031D01*
X158452Y-158033D01*
X158479Y-158024D01*
X158509Y-158005D01*
X158543Y-157975D01*
X159250Y-158682D01*
X159082Y-158853D01*
X158587Y-159433D01*
X158507Y-159551D01*
X158446Y-159659D01*
X158401Y-159756D01*
X158375Y-159843D01*
X158366Y-159919D01*
Y-157798D01*
X158368Y-157863D01*
D02*
G37*
G36*
X139547Y-158582D02*
X139598Y-158639D01*
X139665Y-158688D01*
X139747Y-158731D01*
X139845Y-158768D01*
X139959Y-158798D01*
X140088Y-158821D01*
X140233Y-158837D01*
X140570Y-158850D01*
Y-159850D01*
X140394Y-159854D01*
X140088Y-159880D01*
X139959Y-159903D01*
X139845Y-159933D01*
X139747Y-159969D01*
X139665Y-160013D01*
X139598Y-160062D01*
X139547Y-160118D01*
X139512Y-160181D01*
Y-158519D01*
X139547Y-158582D01*
D02*
G37*
G36*
X168010Y-161614D02*
X166989Y-162531D01*
X166717Y-160983D01*
X166776Y-161021D01*
X166838Y-161046D01*
X166904Y-161056D01*
X166973Y-161053D01*
X167046Y-161037D01*
X167122Y-161006D01*
X167202Y-160962D01*
X167286Y-160904D01*
X167373Y-160832D01*
X167463Y-160746D01*
X168010Y-161614D01*
D02*
G37*
G36*
X102528Y-159406D02*
X102486Y-159484D01*
X102469Y-159572D01*
X102478Y-159672D01*
X102512Y-159783D01*
X102571Y-159905D01*
X102655Y-160038D01*
X102764Y-160182D01*
X102899Y-160338D01*
X103059Y-160505D01*
X102267Y-161127D01*
X102097Y-160964D01*
X101786Y-160709D01*
X101645Y-160617D01*
X101513Y-160548D01*
X101391Y-160502D01*
X101279Y-160480D01*
X101176Y-160482D01*
X101082Y-160507D01*
X100998Y-160556D01*
X102595Y-159340D01*
X102528Y-159406D01*
D02*
G37*
G36*
X144953Y-147567D02*
X145327Y-147816D01*
X145560Y-147863D01*
X145690Y-148058D01*
X146289Y-148458D01*
X146996Y-148599D01*
X147703Y-148458D01*
X148302Y-148058D01*
X148702Y-147459D01*
X148843Y-146752D01*
X148702Y-146045D01*
X148343Y-145508D01*
X148428Y-145273D01*
X148591Y-145048D01*
X148873Y-145104D01*
X149521D01*
X149874Y-145458D01*
X149874Y-146354D01*
X149874Y-146854D01*
Y-151050D01*
X149874Y-151354D01*
X149874Y-151854D01*
Y-156353D01*
X149874Y-156354D01*
Y-156551D01*
X149874D01*
X149874Y-156854D01*
Y-158003D01*
X149673Y-158137D01*
X149423Y-158511D01*
X149335Y-158952D01*
X149423Y-159393D01*
X149673Y-159767D01*
X149874Y-159901D01*
Y-161354D01*
X149874Y-161354D01*
Y-161550D01*
X149874D01*
X149874Y-161854D01*
Y-166353D01*
X149874D01*
Y-166551D01*
X149874D01*
Y-168472D01*
X146917Y-171430D01*
X146667Y-171803D01*
X146580Y-172244D01*
Y-173335D01*
X146080Y-173486D01*
X145892Y-173206D01*
X145293Y-172806D01*
X144587Y-172665D01*
X143880Y-172806D01*
X143474Y-172476D01*
X143539Y-172146D01*
X143414Y-171517D01*
X143596Y-171320D01*
X143820Y-171186D01*
X143978Y-171292D01*
X144685Y-171433D01*
X145392Y-171292D01*
X145991Y-170892D01*
X146391Y-170293D01*
X146531Y-169587D01*
X146391Y-168880D01*
X145991Y-168281D01*
X145392Y-167881D01*
X144685Y-167740D01*
X143978Y-167881D01*
X143663Y-168091D01*
X143306Y-167740D01*
X143301Y-167732D01*
X143441Y-167028D01*
X143316Y-166399D01*
X143498Y-166202D01*
X143721Y-166068D01*
X143880Y-166174D01*
X144587Y-166315D01*
X145293Y-166174D01*
X145892Y-165774D01*
X146292Y-165175D01*
X146433Y-164469D01*
X146292Y-163762D01*
X145892Y-163163D01*
X145293Y-162763D01*
X144587Y-162622D01*
X144433Y-162653D01*
X144008Y-162227D01*
X144071Y-161909D01*
X144008Y-161591D01*
X144433Y-161166D01*
X144587Y-161197D01*
X145293Y-161056D01*
X145892Y-160656D01*
X146292Y-160057D01*
X146433Y-159350D01*
X146292Y-158644D01*
X145892Y-158045D01*
X145293Y-157644D01*
X144587Y-157504D01*
X143880Y-157644D01*
X143281Y-158045D01*
X143178Y-158198D01*
X140487D01*
X140277Y-157954D01*
X140198Y-157835D01*
X140175Y-157735D01*
X140174Y-157680D01*
X140213Y-157482D01*
Y-157382D01*
X136417D01*
X132622D01*
Y-157482D01*
X132686Y-157804D01*
X132864Y-158071D01*
X132686Y-158338D01*
X132622Y-158660D01*
Y-160041D01*
X132686Y-160363D01*
X132864Y-160630D01*
X132686Y-160897D01*
X132622Y-161219D01*
Y-162600D01*
X132686Y-162922D01*
X132864Y-163189D01*
X132686Y-163456D01*
X132622Y-163778D01*
Y-165159D01*
X132686Y-165481D01*
X132864Y-165748D01*
X132686Y-166015D01*
X132622Y-166337D01*
Y-167719D01*
X132686Y-168040D01*
X132864Y-168307D01*
X132686Y-168574D01*
X132622Y-168896D01*
Y-170278D01*
X132686Y-170599D01*
X132864Y-170866D01*
X132686Y-171133D01*
X132622Y-171455D01*
Y-172836D01*
X132686Y-173158D01*
X132864Y-173425D01*
X132686Y-173692D01*
X132622Y-174014D01*
Y-175396D01*
X132686Y-175718D01*
X132864Y-175984D01*
X132686Y-176251D01*
X132622Y-176573D01*
Y-176673D01*
X136417D01*
Y-177854D01*
X132622D01*
Y-177955D01*
X132686Y-178277D01*
X132864Y-178543D01*
X132686Y-178810D01*
X132622Y-179132D01*
Y-180514D01*
X132686Y-180836D01*
X132868Y-181108D01*
X133141Y-181291D01*
X133463Y-181355D01*
X139372D01*
X139694Y-181291D01*
X139967Y-181108D01*
X140056Y-180975D01*
X144831D01*
X145272Y-180887D01*
X145645Y-180637D01*
X148546Y-177736D01*
X148796Y-177363D01*
X148884Y-176922D01*
Y-172721D01*
X149412Y-172193D01*
X149874Y-172384D01*
Y-173131D01*
X149865Y-173137D01*
X149615Y-173511D01*
X149528Y-173952D01*
X149615Y-174393D01*
X149865Y-174767D01*
X149874Y-174773D01*
Y-176354D01*
X149874D01*
Y-176550D01*
X149874D01*
Y-181268D01*
X149498Y-181654D01*
X149300Y-181572D01*
X148622Y-181483D01*
X147944Y-181572D01*
X147312Y-181834D01*
X146769Y-182250D01*
X146352Y-182793D01*
X146090Y-183425D01*
X146001Y-184103D01*
X146090Y-184782D01*
X146352Y-185414D01*
X146699Y-185866D01*
X146554Y-186366D01*
X144685D01*
X144439Y-186415D01*
X144231Y-186554D01*
X144092Y-186762D01*
X144043Y-187008D01*
Y-216535D01*
X127048D01*
X127046Y-216535D01*
X126923Y-216471D01*
X126630Y-216191D01*
X126616Y-216175D01*
X126499Y-201278D01*
X126473Y-201155D01*
X126449Y-201035D01*
X126448Y-201034D01*
X126448Y-201032D01*
X126378Y-200930D01*
X126309Y-200827D01*
X126308Y-200826D01*
X126307Y-200825D01*
X126286Y-200619D01*
X126703Y-200516D01*
X126724Y-200524D01*
X126838Y-200672D01*
X127381Y-201089D01*
X128013Y-201350D01*
X128691Y-201440D01*
X129369Y-201350D01*
X130001Y-201089D01*
X130544Y-200672D01*
X130961Y-200129D01*
X131222Y-199497D01*
X131312Y-198819D01*
X131222Y-198141D01*
X131115Y-197882D01*
X131449Y-197382D01*
X132175D01*
Y-191595D01*
X125859D01*
Y-190295D01*
X128101D01*
Y-187402D01*
Y-184508D01*
X125859D01*
Y-154553D01*
X125771Y-154112D01*
X125566Y-153805D01*
X125618Y-153543D01*
X125478Y-152837D01*
X125077Y-152238D01*
X125000Y-152186D01*
Y-149646D01*
X126319D01*
Y-142480D01*
X126319D01*
X126033Y-142120D01*
X125931Y-129199D01*
X126392Y-129006D01*
X144953Y-147567D01*
D02*
G37*
G36*
X159073Y-163051D02*
X158939Y-163193D01*
X158819Y-163334D01*
X158712Y-163476D01*
X158621Y-163617D01*
X158543Y-163758D01*
X158479Y-163900D01*
X158430Y-164041D01*
X158394Y-164183D01*
X158373Y-164324D01*
X158366Y-164465D01*
Y-162192D01*
X158373Y-162214D01*
X158394Y-162219D01*
X158430Y-162206D01*
X158479Y-162176D01*
X158543Y-162129D01*
X158621Y-162065D01*
X158939Y-161770D01*
X159073Y-161637D01*
Y-163051D01*
D02*
G37*
G36*
X139547Y-161141D02*
X139598Y-161198D01*
X139665Y-161247D01*
X139747Y-161290D01*
X139845Y-161327D01*
X139959Y-161356D01*
X140088Y-161380D01*
X140233Y-161396D01*
X140519Y-161407D01*
X140566Y-161406D01*
X140680Y-161396D01*
X140788Y-161380D01*
X140891Y-161357D01*
X140987Y-161328D01*
X141077Y-161292D01*
X141162Y-161249D01*
X141241Y-161200D01*
X141314Y-161145D01*
X141381Y-161083D01*
Y-162736D01*
X141314Y-162674D01*
X141241Y-162619D01*
X141162Y-162569D01*
X141077Y-162527D01*
X140987Y-162491D01*
X140891Y-162462D01*
X140788Y-162439D01*
X140680Y-162423D01*
X140566Y-162413D01*
X140496Y-162411D01*
X140394Y-162413D01*
X140088Y-162439D01*
X139959Y-162462D01*
X139845Y-162492D01*
X139747Y-162529D01*
X139665Y-162572D01*
X139598Y-162621D01*
X139547Y-162677D01*
X139512Y-162740D01*
Y-161079D01*
X139547Y-161141D01*
D02*
G37*
G36*
X109307Y-162740D02*
X109273Y-162677D01*
X109225Y-162621D01*
X109165Y-162572D01*
X109091Y-162529D01*
X109003Y-162492D01*
X108903Y-162462D01*
X108788Y-162439D01*
X108661Y-162423D01*
X108520Y-162413D01*
X108366Y-162409D01*
Y-161409D01*
X108520Y-161406D01*
X108788Y-161380D01*
X108903Y-161356D01*
X109003Y-161327D01*
X109091Y-161290D01*
X109165Y-161247D01*
X109225Y-161198D01*
X109273Y-161141D01*
X109307Y-161079D01*
Y-162740D01*
D02*
G37*
G36*
X108544Y-163427D02*
X109434Y-163481D01*
X109496Y-163501D01*
X109518Y-163524D01*
X109502Y-163550D01*
X109447Y-163580D01*
X109261Y-164925D01*
X109263Y-164830D01*
X109243Y-164745D01*
X109199Y-164670D01*
X109132Y-164605D01*
X109043Y-164550D01*
X108930Y-164505D01*
X108794Y-164470D01*
X108635Y-164445D01*
X108454Y-164430D01*
X108249Y-164425D01*
Y-163425D01*
X108544Y-163427D01*
D02*
G37*
G36*
X102536Y-162714D02*
X102595Y-162808D01*
X102675Y-162918D01*
X102895Y-163188D01*
X103377Y-163713D01*
X103799Y-164144D01*
X103307Y-165066D01*
X103131Y-164897D01*
X102831Y-164654D01*
X102708Y-164580D01*
X102602Y-164538D01*
X102513Y-164527D01*
X102442Y-164548D01*
X102389Y-164601D01*
X102352Y-164685D01*
X102334Y-164801D01*
X102497Y-162635D01*
X102536Y-162714D01*
D02*
G37*
G36*
X143743Y-165295D02*
X143676Y-165233D01*
X143603Y-165178D01*
X143524Y-165129D01*
X143440Y-165086D01*
X143349Y-165050D01*
X143253Y-165021D01*
X143150Y-164998D01*
X143042Y-164982D01*
X142928Y-164972D01*
X142808Y-164969D01*
Y-163969D01*
X142928Y-163965D01*
X143042Y-163955D01*
X143150Y-163939D01*
X143253Y-163916D01*
X143349Y-163887D01*
X143440Y-163851D01*
X143524Y-163809D01*
X143603Y-163760D01*
X143676Y-163704D01*
X143743Y-163642D01*
Y-165295D01*
D02*
G37*
G36*
X139547Y-163701D02*
X139598Y-163757D01*
X139665Y-163806D01*
X139747Y-163849D01*
X139845Y-163886D01*
X139959Y-163916D01*
X140088Y-163939D01*
X140233Y-163955D01*
X140570Y-163969D01*
Y-164969D01*
X140394Y-164972D01*
X140088Y-164998D01*
X139959Y-165022D01*
X139845Y-165051D01*
X139747Y-165088D01*
X139665Y-165131D01*
X139598Y-165180D01*
X139547Y-165237D01*
X139512Y-165299D01*
Y-163638D01*
X139547Y-163701D01*
D02*
G37*
G36*
X108610Y-165986D02*
X109447Y-166040D01*
X109503Y-166060D01*
X109522Y-166083D01*
X109503Y-166109D01*
X109447Y-166139D01*
X109261Y-167402D01*
X109263Y-167323D01*
X109243Y-167252D01*
X109203Y-167189D01*
X109142Y-167135D01*
X109059Y-167089D01*
X108956Y-167051D01*
X108831Y-167022D01*
X108685Y-167001D01*
X108519Y-166988D01*
X108331Y-166984D01*
Y-165984D01*
X108610Y-165986D01*
D02*
G37*
G36*
X139547Y-166260D02*
X139598Y-166316D01*
X139665Y-166366D01*
X139747Y-166409D01*
X139845Y-166445D01*
X139959Y-166475D01*
X140088Y-166498D01*
X140129Y-166502D01*
X140158Y-166498D01*
X140261Y-166475D01*
X140357Y-166446D01*
X140448Y-166410D01*
X140532Y-166367D01*
X140611Y-166319D01*
X140684Y-166263D01*
X140751Y-166201D01*
Y-167854D01*
X140684Y-167792D01*
X140611Y-167737D01*
X140532Y-167688D01*
X140448Y-167645D01*
X140357Y-167609D01*
X140261Y-167580D01*
X140158Y-167557D01*
X140134Y-167553D01*
X140088Y-167557D01*
X139959Y-167580D01*
X139845Y-167610D01*
X139747Y-167647D01*
X139665Y-167690D01*
X139598Y-167739D01*
X139547Y-167796D01*
X139512Y-167859D01*
Y-166197D01*
X139547Y-166260D01*
D02*
G37*
G36*
X58402Y-166601D02*
X58700Y-166843D01*
X58832Y-166925D01*
X58951Y-166981D01*
X59059Y-167012D01*
X59154Y-167017D01*
X59238Y-166996D01*
X59311Y-166948D01*
X59371Y-166876D01*
X58279Y-168595D01*
X58321Y-168505D01*
X58341Y-168406D01*
X58337Y-168299D01*
X58311Y-168182D01*
X58262Y-168056D01*
X58189Y-167921D01*
X58094Y-167777D01*
X57976Y-167623D01*
X57835Y-167461D01*
X57670Y-167290D01*
X58236Y-166441D01*
X58402Y-166601D01*
D02*
G37*
G36*
X102489Y-167723D02*
X102525Y-167807D01*
X102586Y-167881D01*
X102672Y-167945D01*
X102781Y-167999D01*
X102915Y-168043D01*
X103074Y-168078D01*
X103256Y-168102D01*
X103464Y-168117D01*
X103695Y-168122D01*
Y-169122D01*
X103464Y-169127D01*
X103074Y-169166D01*
X102915Y-169201D01*
X102781Y-169245D01*
X102672Y-169299D01*
X102586Y-169363D01*
X102525Y-169437D01*
X102489Y-169521D01*
X102477Y-169615D01*
Y-167629D01*
X102489Y-167723D01*
D02*
G37*
G36*
X109269Y-170296D02*
X109262Y-170256D01*
X109240Y-170220D01*
X109203Y-170189D01*
X109152Y-170162D01*
X109086Y-170139D01*
X109005Y-170120D01*
X108910Y-170105D01*
X108800Y-170095D01*
X108535Y-170087D01*
Y-169087D01*
X108675Y-169085D01*
X108910Y-169068D01*
X109005Y-169053D01*
X109086Y-169034D01*
X109152Y-169011D01*
X109203Y-168984D01*
X109240Y-168953D01*
X109262Y-168917D01*
X109269Y-168878D01*
Y-170296D01*
D02*
G37*
G36*
X143842Y-170413D02*
X143774Y-170351D01*
X143702Y-170296D01*
X143623Y-170247D01*
X143538Y-170204D01*
X143448Y-170168D01*
X143351Y-170139D01*
X143249Y-170116D01*
X143140Y-170100D01*
X143026Y-170090D01*
X142906Y-170087D01*
Y-169087D01*
X143026Y-169083D01*
X143140Y-169073D01*
X143249Y-169057D01*
X143351Y-169034D01*
X143448Y-169005D01*
X143538Y-168969D01*
X143623Y-168927D01*
X143702Y-168877D01*
X143774Y-168822D01*
X143842Y-168760D01*
Y-170413D01*
D02*
G37*
G36*
X139547Y-168819D02*
X139598Y-168875D01*
X139665Y-168924D01*
X139747Y-168967D01*
X139845Y-169004D01*
X139959Y-169034D01*
X140088Y-169057D01*
X140233Y-169073D01*
X140570Y-169087D01*
Y-170087D01*
X140394Y-170090D01*
X140088Y-170116D01*
X139959Y-170140D01*
X139845Y-170169D01*
X139747Y-170206D01*
X139665Y-170249D01*
X139598Y-170298D01*
X139547Y-170355D01*
X139512Y-170417D01*
Y-168756D01*
X139547Y-168819D01*
D02*
G37*
G36*
X159613Y-165175D02*
X160013Y-165774D01*
X160612Y-166174D01*
X161319Y-166315D01*
X162026Y-166174D01*
X162625Y-165774D01*
X162727Y-165621D01*
X163334D01*
X163542Y-166121D01*
X163242Y-166569D01*
X163102Y-167276D01*
X163242Y-167982D01*
X163643Y-168581D01*
X164242Y-168982D01*
X164494Y-169032D01*
X164686Y-169494D01*
X164635Y-169569D01*
X164495Y-170276D01*
X164549Y-170549D01*
X164139Y-171049D01*
X163508D01*
X163369Y-170840D01*
X162770Y-170440D01*
X162063Y-170299D01*
X161356Y-170440D01*
X160757Y-170840D01*
X160357Y-171439D01*
X160216Y-172146D01*
X160357Y-172852D01*
X160401Y-172919D01*
X160166Y-173360D01*
X159008D01*
Y-171551D01*
X159008Y-171550D01*
Y-171353D01*
X159008D01*
X159008Y-171050D01*
Y-166551D01*
X159008D01*
Y-166353D01*
X159008D01*
Y-164696D01*
X159508Y-164647D01*
X159613Y-165175D01*
D02*
G37*
G36*
X221803Y-147417D02*
X221803D01*
Y-147613D01*
X221803D01*
Y-148863D01*
X219080D01*
X218639Y-148951D01*
X218265Y-149200D01*
X213162Y-154304D01*
X212912Y-154677D01*
X212824Y-155118D01*
Y-168420D01*
X209515Y-171730D01*
X207323D01*
Y-151437D01*
X187462D01*
X187271Y-150975D01*
X192079Y-146167D01*
X221803D01*
Y-147417D01*
D02*
G37*
G36*
X186378Y-152521D02*
Y-171730D01*
X176029D01*
X175685Y-171386D01*
X175312Y-171136D01*
X174871Y-171049D01*
X168544D01*
X168133Y-170549D01*
X168188Y-170276D01*
X168152Y-170094D01*
X185916Y-152330D01*
X186378Y-152521D01*
D02*
G37*
G36*
X59142Y-171195D02*
X59461Y-171458D01*
X59607Y-171556D01*
X59744Y-171630D01*
X59872Y-171682D01*
X59991Y-171711D01*
X60101Y-171717D01*
X60203Y-171700D01*
X60295Y-171661D01*
X58517Y-172692D01*
X58592Y-172635D01*
X58642Y-172565D01*
X58665Y-172483D01*
X58662Y-172389D01*
X58633Y-172283D01*
X58578Y-172165D01*
X58496Y-172034D01*
X58389Y-171892D01*
X58255Y-171737D01*
X58095Y-171570D01*
X58969Y-171029D01*
X59142Y-171195D01*
D02*
G37*
G36*
X139547Y-171378D02*
X139598Y-171434D01*
X139665Y-171483D01*
X139747Y-171527D01*
X139845Y-171563D01*
X139959Y-171593D01*
X140088Y-171616D01*
X140185Y-171627D01*
X140257Y-171616D01*
X140359Y-171593D01*
X140455Y-171564D01*
X140546Y-171528D01*
X140631Y-171485D01*
X140709Y-171437D01*
X140782Y-171381D01*
X140849Y-171319D01*
Y-172972D01*
X140782Y-172910D01*
X140709Y-172855D01*
X140631Y-172806D01*
X140546Y-172763D01*
X140455Y-172727D01*
X140359Y-172698D01*
X140257Y-172675D01*
X140197Y-172666D01*
X140088Y-172675D01*
X139959Y-172699D01*
X139845Y-172728D01*
X139747Y-172765D01*
X139665Y-172808D01*
X139598Y-172857D01*
X139547Y-172914D01*
X139512Y-172977D01*
Y-171315D01*
X139547Y-171378D01*
D02*
G37*
G36*
X109307Y-172977D02*
X109272Y-172914D01*
X109221Y-172857D01*
X109154Y-172808D01*
X109072Y-172765D01*
X108974Y-172728D01*
X108860Y-172699D01*
X108731Y-172675D01*
X108586Y-172659D01*
X108249Y-172646D01*
Y-171646D01*
X108425Y-171642D01*
X108731Y-171616D01*
X108860Y-171593D01*
X108974Y-171563D01*
X109072Y-171527D01*
X109154Y-171483D01*
X109221Y-171434D01*
X109272Y-171378D01*
X109307Y-171315D01*
Y-172977D01*
D02*
G37*
G36*
X102489Y-172723D02*
X102525Y-172807D01*
X102586Y-172881D01*
X102672Y-172945D01*
X102781Y-172999D01*
X102915Y-173043D01*
X103074Y-173078D01*
X103256Y-173102D01*
X103464Y-173117D01*
X103695Y-173122D01*
Y-174122D01*
X103464Y-174127D01*
X103074Y-174166D01*
X102915Y-174201D01*
X102781Y-174245D01*
X102672Y-174299D01*
X102586Y-174363D01*
X102525Y-174437D01*
X102489Y-174521D01*
X102477Y-174615D01*
Y-172629D01*
X102489Y-172723D01*
D02*
G37*
G36*
X173070Y-175338D02*
X173003Y-175276D01*
X172930Y-175221D01*
X172851Y-175172D01*
X172767Y-175129D01*
X172676Y-175093D01*
X172580Y-175064D01*
X172477Y-175041D01*
X172369Y-175025D01*
X172255Y-175015D01*
X172135Y-175012D01*
Y-174012D01*
X172255Y-174008D01*
X172369Y-173999D01*
X172477Y-173982D01*
X172580Y-173959D01*
X172676Y-173930D01*
X172767Y-173894D01*
X172851Y-173852D01*
X172930Y-173803D01*
X173003Y-173747D01*
X173070Y-173685D01*
Y-175338D01*
D02*
G37*
G36*
X143890Y-175465D02*
X143816Y-175416D01*
X143737Y-175372D01*
X143653Y-175332D01*
X143564Y-175299D01*
X143469Y-175270D01*
X143370Y-175247D01*
X143266Y-175228D01*
X143156Y-175215D01*
X142921Y-175205D01*
X142737Y-174205D01*
X142858Y-174201D01*
X142972Y-174190D01*
X143078Y-174171D01*
X143177Y-174145D01*
X143269Y-174112D01*
X143353Y-174071D01*
X143431Y-174023D01*
X143501Y-173968D01*
X143564Y-173904D01*
X143619Y-173834D01*
X143890Y-175465D01*
D02*
G37*
G36*
X139547Y-173937D02*
X139598Y-173993D01*
X139665Y-174043D01*
X139747Y-174086D01*
X139845Y-174122D01*
X139959Y-174152D01*
X140088Y-174175D01*
X140233Y-174192D01*
X140570Y-174205D01*
Y-175205D01*
X140394Y-175208D01*
X140088Y-175235D01*
X139959Y-175258D01*
X139845Y-175287D01*
X139747Y-175324D01*
X139665Y-175367D01*
X139598Y-175417D01*
X139547Y-175473D01*
X139512Y-175536D01*
Y-173874D01*
X139547Y-173937D01*
D02*
G37*
G36*
X109307Y-175536D02*
X109272Y-175473D01*
X109221Y-175417D01*
X109154Y-175367D01*
X109072Y-175324D01*
X108974Y-175287D01*
X108860Y-175258D01*
X108731Y-175235D01*
X108586Y-175218D01*
X108249Y-175205D01*
Y-174205D01*
X108425Y-174202D01*
X108731Y-174175D01*
X108860Y-174152D01*
X108974Y-174122D01*
X109072Y-174086D01*
X109154Y-174043D01*
X109221Y-173993D01*
X109272Y-173937D01*
X109307Y-173874D01*
Y-175536D01*
D02*
G37*
G36*
X230293Y-174110D02*
X230324Y-174195D01*
X230374Y-174270D01*
X230445Y-174335D01*
X230536Y-174390D01*
X230647Y-174435D01*
X230779Y-174470D01*
X230931Y-174495D01*
X231103Y-174510D01*
X231295Y-174515D01*
Y-175515D01*
X231103Y-175520D01*
X230931Y-175535D01*
X230779Y-175560D01*
X230647Y-175595D01*
X230536Y-175640D01*
X230445Y-175695D01*
X230374Y-175760D01*
X230324Y-175835D01*
X230293Y-175920D01*
X230283Y-176015D01*
Y-174015D01*
X230293Y-174110D01*
D02*
G37*
G36*
X247782Y-177104D02*
X247814Y-177112D01*
X247966Y-177137D01*
X248138Y-177152D01*
X248331Y-177157D01*
Y-178157D01*
X248138Y-178162D01*
X247966Y-178177D01*
X247837Y-178199D01*
X247877Y-179006D01*
X247695Y-178844D01*
X247337Y-178573D01*
X247328Y-178568D01*
X247319Y-178657D01*
Y-178562D01*
X247161Y-178463D01*
X246988Y-178369D01*
X246817Y-178293D01*
X246648Y-178234D01*
X246482Y-178191D01*
X246318Y-178166D01*
X246156Y-178157D01*
X246104Y-177157D01*
X246271Y-177148D01*
X246437Y-177121D01*
X246602Y-177076D01*
X246766Y-177013D01*
X246930Y-176931D01*
X247093Y-176832D01*
X247256Y-176714D01*
X247319Y-176662D01*
Y-176657D01*
X247319Y-176661D01*
X247418Y-176579D01*
X247579Y-176425D01*
X247740Y-176253D01*
X247782Y-177104D01*
D02*
G37*
G36*
X221803Y-151521D02*
X221803Y-152417D01*
X221803Y-152917D01*
Y-157113D01*
X221803Y-157417D01*
X221803Y-157917D01*
Y-162113D01*
X221803Y-162417D01*
X221803Y-162917D01*
Y-167113D01*
X221803Y-167417D01*
X221803Y-167917D01*
Y-172113D01*
X221803Y-172417D01*
X221803Y-172917D01*
Y-177417D01*
X221803Y-177417D01*
Y-177613D01*
X221803D01*
X221803Y-177917D01*
Y-179425D01*
X226370D01*
Y-180605D01*
X221803D01*
Y-182113D01*
X221803Y-182417D01*
X221803D01*
Y-182613D01*
X221803D01*
Y-186366D01*
X159503D01*
X159008Y-186354D01*
Y-181551D01*
X159008D01*
Y-181353D01*
X159008D01*
Y-176550D01*
X159008D01*
Y-176354D01*
X159008D01*
Y-175664D01*
X164562D01*
X164829Y-176164D01*
X164632Y-176458D01*
X164492Y-177165D01*
X164632Y-177872D01*
X165033Y-178471D01*
X165632Y-178871D01*
X166338Y-179011D01*
X167045Y-178871D01*
X167644Y-178471D01*
X167690Y-178401D01*
X167715Y-178386D01*
X167748Y-178369D01*
X167788Y-178353D01*
X167836Y-178339D01*
X167893Y-178326D01*
X167953Y-178317D01*
X177166D01*
X177607Y-178229D01*
X177980Y-177980D01*
X178953Y-177007D01*
X179134Y-177043D01*
X179841Y-176903D01*
X180439Y-176503D01*
X180840Y-175903D01*
X180980Y-175197D01*
X180849Y-174534D01*
X180865Y-174409D01*
X181065Y-174034D01*
X209992D01*
X210433Y-173946D01*
X210807Y-173696D01*
X214791Y-169712D01*
X215041Y-169339D01*
X215128Y-168898D01*
Y-155595D01*
X219557Y-151167D01*
X221449D01*
X221803Y-151521D01*
D02*
G37*
G36*
X167249Y-176400D02*
X167322Y-176456D01*
X167400Y-176505D01*
X167485Y-176547D01*
X167576Y-176583D01*
X167672Y-176613D01*
X167774Y-176636D01*
X167883Y-176652D01*
X167997Y-176662D01*
X168117Y-176665D01*
Y-177665D01*
X167997Y-177668D01*
X167883Y-177678D01*
X167774Y-177694D01*
X167672Y-177717D01*
X167576Y-177747D01*
X167485Y-177783D01*
X167400Y-177825D01*
X167322Y-177874D01*
X167249Y-177930D01*
X167182Y-177992D01*
Y-176338D01*
X167249Y-176400D01*
D02*
G37*
G36*
X139547Y-176496D02*
X139598Y-176552D01*
X139665Y-176602D01*
X139747Y-176645D01*
X139845Y-176681D01*
X139959Y-176711D01*
X140088Y-176734D01*
X140233Y-176751D01*
X140389Y-176757D01*
X140458Y-176751D01*
X140566Y-176734D01*
X140668Y-176711D01*
X140765Y-176682D01*
X140855Y-176646D01*
X140940Y-176604D01*
X141019Y-176555D01*
X141092Y-176499D01*
X141159Y-176437D01*
Y-178091D01*
X141092Y-178029D01*
X141019Y-177973D01*
X140940Y-177924D01*
X140855Y-177881D01*
X140765Y-177846D01*
X140668Y-177816D01*
X140566Y-177793D01*
X140458Y-177777D01*
X140369Y-177769D01*
X140088Y-177794D01*
X139959Y-177817D01*
X139845Y-177847D01*
X139747Y-177883D01*
X139665Y-177926D01*
X139598Y-177976D01*
X139547Y-178032D01*
X139512Y-178095D01*
Y-176433D01*
X139547Y-176496D01*
D02*
G37*
G36*
X115515Y-176441D02*
X115566Y-176449D01*
X115647Y-176455D01*
X116284Y-176472D01*
X117089Y-176476D01*
Y-178051D01*
X115496Y-178095D01*
Y-176433D01*
X115515Y-176441D01*
D02*
G37*
G36*
X102656Y-178917D02*
X102624Y-179002D01*
X102627Y-179077D01*
X102664Y-179142D01*
X102736Y-179197D01*
X102843Y-179243D01*
X102984Y-179278D01*
X103160Y-179303D01*
X103370Y-179318D01*
X103615Y-179323D01*
X102785Y-180323D01*
X102592Y-180325D01*
X101918Y-180374D01*
X101774Y-180397D01*
X101516Y-180454D01*
X101402Y-180489D01*
X101298Y-180528D01*
X102723Y-178821D01*
X102656Y-178917D01*
D02*
G37*
G36*
X230326Y-178290D02*
X230418Y-178322D01*
X230572Y-178350D01*
X230787Y-178374D01*
X231802Y-178424D01*
X233371Y-178440D01*
Y-181590D01*
X232786Y-181592D01*
X230326Y-181739D01*
X230295Y-181775D01*
Y-178255D01*
X230326Y-178290D01*
D02*
G37*
G36*
X155346Y-180710D02*
X155261Y-180740D01*
X155186Y-180791D01*
X155121Y-180862D01*
X155066Y-180953D01*
X155021Y-181064D01*
X154986Y-181195D01*
X154961Y-181347D01*
X154952Y-181452D01*
X154961Y-181557D01*
X154986Y-181709D01*
X155021Y-181840D01*
X155066Y-181951D01*
X155121Y-182042D01*
X155186Y-182113D01*
X155261Y-182164D01*
X155346Y-182194D01*
X155441Y-182204D01*
X153441D01*
X153536Y-182194D01*
X153621Y-182164D01*
X153696Y-182113D01*
X153761Y-182042D01*
X153816Y-181951D01*
X153861Y-181840D01*
X153896Y-181709D01*
X153921Y-181557D01*
X153930Y-181452D01*
X153921Y-181347D01*
X153896Y-181195D01*
X153861Y-181064D01*
X153816Y-180953D01*
X153761Y-180862D01*
X153696Y-180791D01*
X153621Y-180740D01*
X153536Y-180710D01*
X153441Y-180700D01*
X155441D01*
X155346Y-180710D01*
D02*
G37*
G36*
X239577Y-180504D02*
X239575Y-180552D01*
X239567Y-182087D01*
X239579Y-183686D01*
X236405D01*
X236408Y-183669D01*
X236410Y-183622D01*
X236417Y-182087D01*
X236405Y-180488D01*
X239579D01*
X239577Y-180504D01*
D02*
G37*
G36*
X150199Y-182892D02*
X150370Y-183041D01*
X150522Y-183159D01*
X150528Y-183103D01*
Y-183163D01*
X150540Y-183173D01*
X150710Y-183287D01*
X150878Y-183384D01*
X151046Y-183463D01*
X151212Y-183524D01*
X151378Y-183568D01*
X151543Y-183595D01*
X151707Y-183603D01*
Y-184603D01*
X151543Y-184612D01*
X151378Y-184638D01*
X151212Y-184682D01*
X151046Y-184744D01*
X150878Y-184823D01*
X150710Y-184919D01*
X150540Y-185034D01*
X150528Y-185043D01*
Y-185103D01*
X150522Y-185048D01*
X150370Y-185165D01*
X150199Y-185315D01*
X150028Y-185481D01*
Y-184648D01*
X149880Y-184623D01*
X149708Y-184608D01*
X149516Y-184603D01*
Y-183603D01*
X149708Y-183598D01*
X149880Y-183583D01*
X150028Y-183559D01*
Y-182725D01*
X150199Y-182892D01*
D02*
G37*
G36*
X121544Y-181961D02*
X121675Y-183732D01*
X121754Y-184166D01*
X121850Y-184520D01*
X121964Y-184795D01*
X122095Y-184992D01*
X122243Y-185110D01*
X122409Y-185150D01*
X116725D01*
X116891Y-185110D01*
X117039Y-184992D01*
X117170Y-184795D01*
X117284Y-184520D01*
X117380Y-184166D01*
X117459Y-183732D01*
X117520Y-183221D01*
X117590Y-181961D01*
X117598Y-181213D01*
X121536D01*
X121544Y-181961D01*
D02*
G37*
G36*
X116725Y-185415D02*
X117754Y-185433D01*
Y-189370D01*
X117006Y-189373D01*
X116725Y-189390D01*
Y-189653D01*
X116685Y-189600D01*
X116567Y-189551D01*
X116370Y-189509D01*
X116095Y-189472D01*
X115747Y-189447D01*
X113974Y-189551D01*
X113856Y-189600D01*
X113817Y-189653D01*
Y-189389D01*
X112788Y-189370D01*
Y-185433D01*
X113536Y-185430D01*
X113817Y-185414D01*
Y-185150D01*
X113856Y-185204D01*
X113974Y-185252D01*
X114171Y-185294D01*
X114447Y-185331D01*
X114795Y-185356D01*
X116567Y-185252D01*
X116685Y-185204D01*
X116725Y-185150D01*
Y-185415D01*
D02*
G37*
G36*
X230293Y-184110D02*
X230324Y-184195D01*
X230374Y-184270D01*
X230445Y-184335D01*
X230536Y-184390D01*
X230647Y-184435D01*
X230779Y-184470D01*
X230931Y-184495D01*
X231103Y-184510D01*
X231295Y-184515D01*
Y-185515D01*
X231103Y-185520D01*
X230931Y-185535D01*
X230779Y-185560D01*
X230647Y-185595D01*
X230536Y-185640D01*
X230445Y-185695D01*
X230374Y-185760D01*
X230324Y-185835D01*
X230293Y-185920D01*
X230283Y-186015D01*
Y-184015D01*
X230293Y-184110D01*
D02*
G37*
G36*
X66149Y-183485D02*
X66262Y-183870D01*
X66417Y-184265D01*
X66614Y-184671D01*
X66854Y-185087D01*
X67137Y-185514D01*
X67462Y-185952D01*
X68240Y-186858D01*
X68693Y-187327D01*
X64178Y-188379D01*
X63664Y-187881D01*
X62682Y-187027D01*
X62214Y-186671D01*
X61323Y-186101D01*
X60901Y-185887D01*
X60494Y-185720D01*
X60102Y-185600D01*
X59725Y-185528D01*
X66079Y-183111D01*
X66149Y-183485D01*
D02*
G37*
G36*
X108132Y-189653D02*
X108098Y-189600D01*
X107996Y-189551D01*
X107825Y-189509D01*
X107587Y-189472D01*
X106905Y-189415D01*
X105372Y-189373D01*
X104724Y-189370D01*
Y-185433D01*
X105372Y-185430D01*
X107996Y-185252D01*
X108098Y-185204D01*
X108132Y-185150D01*
Y-189653D01*
D02*
G37*
G36*
X79154Y-187670D02*
X79213Y-188339D01*
X79311Y-188929D01*
X79449Y-189441D01*
X79626Y-189874D01*
X79843Y-190229D01*
X80098Y-190504D01*
X80394Y-190701D01*
X80728Y-190819D01*
X81102Y-190858D01*
X74422D01*
Y-196150D01*
X74382Y-195909D01*
X74264Y-195693D01*
X74067Y-195503D01*
X73791Y-195338D01*
X73437Y-195199D01*
X73004Y-195085D01*
X72492Y-194996D01*
X72263Y-194971D01*
X71583Y-195022D01*
X71149Y-195100D01*
X70795Y-195196D01*
X70520Y-195310D01*
X70323Y-195441D01*
X70205Y-195590D01*
X70165Y-195756D01*
X70111Y-195795D01*
X70063Y-195913D01*
X70021Y-196110D01*
X69984Y-196386D01*
X69950Y-196853D01*
X70063Y-198772D01*
X70111Y-198890D01*
X70165Y-198929D01*
X69896D01*
X69882Y-199693D01*
X65945D01*
X65942Y-198945D01*
X65941Y-198929D01*
X65662D01*
X65715Y-198890D01*
X65764Y-198772D01*
X65806Y-198575D01*
X65843Y-198299D01*
X65877Y-197832D01*
X65764Y-195913D01*
X65715Y-195795D01*
X65662Y-195756D01*
X65931D01*
X65945Y-194992D01*
X69882D01*
X69885Y-195740D01*
X69886Y-195756D01*
X70165D01*
Y-190071D01*
X70205Y-190237D01*
X70323Y-190386D01*
X70520Y-190517D01*
X70795Y-190630D01*
X71149Y-190726D01*
X71583Y-190805D01*
X72094Y-190866D01*
X72654Y-190897D01*
X74422Y-190858D01*
X74569Y-190819D01*
X74701Y-190701D01*
X74817Y-190504D01*
X74918Y-190229D01*
X75003Y-189874D01*
X75073Y-189441D01*
X75127Y-188929D01*
X75189Y-187670D01*
X75197Y-186922D01*
X79134D01*
X79154Y-187670D01*
D02*
G37*
G36*
X58664Y-191702D02*
X58835Y-191851D01*
X59005Y-191983D01*
X59174Y-192097D01*
X59342Y-192194D01*
X59510Y-192273D01*
X59677Y-192334D01*
X59842Y-192378D01*
X60008Y-192405D01*
X60172Y-192413D01*
Y-193413D01*
X60008Y-193422D01*
X59842Y-193448D01*
X59677Y-193492D01*
X59510Y-193554D01*
X59342Y-193633D01*
X59174Y-193729D01*
X59005Y-193844D01*
X58835Y-193975D01*
X58664Y-194124D01*
X58492Y-194291D01*
Y-193655D01*
X58425Y-193593D01*
X58334Y-193538D01*
X58223Y-193493D01*
X58091Y-193458D01*
X57939Y-193433D01*
X57767Y-193418D01*
X57575Y-193413D01*
Y-192413D01*
X57767Y-192408D01*
X57939Y-192393D01*
X58091Y-192368D01*
X58223Y-192333D01*
X58334Y-192288D01*
X58425Y-192233D01*
X58492Y-192172D01*
Y-191535D01*
X58664Y-191702D01*
D02*
G37*
G36*
X129200Y-195898D02*
X129226Y-196063D01*
X129270Y-196229D01*
X129332Y-196396D01*
X129411Y-196563D01*
X129505Y-196728D01*
X129691D01*
X129596Y-196738D01*
X129528Y-196762D01*
X129621Y-196900D01*
X129753Y-197071D01*
X129902Y-197241D01*
X130069Y-197413D01*
X129208D01*
X129196Y-197548D01*
X129191Y-197740D01*
X128191D01*
X128186Y-197548D01*
X128174Y-197413D01*
X127313D01*
X127480Y-197241D01*
X127629Y-197071D01*
X127761Y-196900D01*
X127854Y-196762D01*
X127786Y-196738D01*
X127691Y-196728D01*
X127877D01*
X127971Y-196563D01*
X128050Y-196396D01*
X128112Y-196229D01*
X128156Y-196063D01*
X128182Y-195898D01*
X128191Y-195734D01*
X129191D01*
X129200Y-195898D01*
D02*
G37*
G36*
X120194D02*
X120220Y-196063D01*
X120264Y-196229D01*
X120326Y-196396D01*
X120405Y-196563D01*
X120499Y-196728D01*
X120685D01*
X120590Y-196738D01*
X120522Y-196762D01*
X120615Y-196900D01*
X120747Y-197071D01*
X120896Y-197241D01*
X121063Y-197413D01*
X120202D01*
X120190Y-197548D01*
X120185Y-197740D01*
X119185D01*
X119180Y-197548D01*
X119168Y-197413D01*
X118307D01*
X118474Y-197241D01*
X118623Y-197071D01*
X118755Y-196900D01*
X118848Y-196762D01*
X118780Y-196738D01*
X118685Y-196728D01*
X118871D01*
X118966Y-196563D01*
X119045Y-196396D01*
X119106Y-196229D01*
X119150Y-196063D01*
X119176Y-195898D01*
X119185Y-195734D01*
X120185D01*
X120194Y-195898D01*
D02*
G37*
G36*
X111483D02*
X111510Y-196063D01*
X111553Y-196229D01*
X111615Y-196396D01*
X111694Y-196563D01*
X111788Y-196728D01*
X111974D01*
X111879Y-196738D01*
X111811Y-196762D01*
X111905Y-196900D01*
X112036Y-197071D01*
X112186Y-197241D01*
X112352Y-197413D01*
X111491D01*
X111479Y-197548D01*
X111474Y-197740D01*
X110474D01*
X110469Y-197548D01*
X110458Y-197413D01*
X109597D01*
X109763Y-197241D01*
X109913Y-197071D01*
X110044Y-196900D01*
X110137Y-196762D01*
X110069Y-196738D01*
X109974Y-196728D01*
X110160D01*
X110255Y-196563D01*
X110334Y-196396D01*
X110395Y-196229D01*
X110439Y-196063D01*
X110466Y-195898D01*
X110474Y-195734D01*
X111474D01*
X111483Y-195898D01*
D02*
G37*
%LPC*%
G36*
X49984Y-7967D02*
X33724D01*
Y-24227D01*
X49984D01*
Y-7967D01*
D02*
G37*
G36*
X113819Y-34508D02*
X109409D01*
Y-38130D01*
X110462D01*
Y-41004D01*
X108031D01*
Y-47185D01*
X115197D01*
Y-41004D01*
X112766D01*
Y-38130D01*
X113819D01*
Y-34508D01*
D02*
G37*
G36*
X33465Y-58258D02*
X32632Y-58368D01*
X31856Y-58689D01*
X31190Y-59201D01*
X30679Y-59867D01*
X30358Y-60642D01*
X30248Y-61475D01*
X30358Y-62307D01*
X30679Y-63083D01*
X31190Y-63749D01*
X31856Y-64261D01*
X32632Y-64582D01*
X33465Y-64691D01*
X34297Y-64582D01*
X35073Y-64261D01*
X35739Y-63749D01*
X36250Y-63083D01*
X36571Y-62307D01*
X36681Y-61475D01*
X36571Y-60642D01*
X36250Y-59867D01*
X35739Y-59201D01*
X35073Y-58689D01*
X34297Y-58368D01*
X33465Y-58258D01*
D02*
G37*
G36*
Y-66719D02*
X32632Y-66829D01*
X31856Y-67150D01*
X31190Y-67661D01*
X30679Y-68327D01*
X30358Y-69103D01*
X30248Y-69936D01*
X30358Y-70768D01*
X30679Y-71544D01*
X31190Y-72210D01*
X31856Y-72721D01*
X32632Y-73042D01*
X33465Y-73152D01*
X34297Y-73042D01*
X35073Y-72721D01*
X35739Y-72210D01*
X36250Y-71544D01*
X36571Y-70768D01*
X36681Y-69936D01*
X36571Y-69103D01*
X36250Y-68327D01*
X35739Y-67661D01*
X35073Y-67150D01*
X34297Y-66829D01*
X33465Y-66719D01*
D02*
G37*
G36*
Y-75223D02*
X32632Y-75333D01*
X31856Y-75654D01*
X31190Y-76165D01*
X30679Y-76831D01*
X30358Y-77607D01*
X30248Y-78439D01*
X30358Y-79272D01*
X30679Y-80048D01*
X31190Y-80714D01*
X31856Y-81225D01*
X32632Y-81546D01*
X33465Y-81656D01*
X34297Y-81546D01*
X35073Y-81225D01*
X35739Y-80714D01*
X36250Y-80048D01*
X36571Y-79272D01*
X36681Y-78439D01*
X36571Y-77607D01*
X36250Y-76831D01*
X35739Y-76165D01*
X35073Y-75654D01*
X34297Y-75333D01*
X33465Y-75223D01*
D02*
G37*
G36*
Y-83758D02*
X32632Y-83868D01*
X31856Y-84189D01*
X31190Y-84701D01*
X30679Y-85367D01*
X30358Y-86142D01*
X30248Y-86975D01*
X30358Y-87807D01*
X30679Y-88583D01*
X31190Y-89249D01*
X31856Y-89761D01*
X32632Y-90082D01*
X33465Y-90191D01*
X34297Y-90082D01*
X35073Y-89761D01*
X35739Y-89249D01*
X36250Y-88583D01*
X36571Y-87807D01*
X36681Y-86975D01*
X36571Y-86142D01*
X36250Y-85367D01*
X35739Y-84701D01*
X35073Y-84189D01*
X34297Y-83868D01*
X33465Y-83758D01*
D02*
G37*
G36*
Y-92258D02*
X32632Y-92368D01*
X31856Y-92689D01*
X31190Y-93200D01*
X30679Y-93867D01*
X30358Y-94642D01*
X30248Y-95475D01*
X30358Y-96307D01*
X30679Y-97083D01*
X31190Y-97749D01*
X31856Y-98260D01*
X32632Y-98582D01*
X33465Y-98691D01*
X34297Y-98582D01*
X35073Y-98260D01*
X35739Y-97749D01*
X36250Y-97083D01*
X36571Y-96307D01*
X36681Y-95475D01*
X36571Y-94642D01*
X36250Y-93867D01*
X35739Y-93200D01*
X35073Y-92689D01*
X34297Y-92368D01*
X33465Y-92258D01*
D02*
G37*
G36*
Y-100758D02*
X32632Y-100868D01*
X31856Y-101189D01*
X31190Y-101700D01*
X30679Y-102367D01*
X30358Y-103142D01*
X30248Y-103975D01*
X30358Y-104807D01*
X30679Y-105583D01*
X31190Y-106249D01*
X31856Y-106761D01*
X32632Y-107082D01*
X33465Y-107191D01*
X34297Y-107082D01*
X35073Y-106761D01*
X35739Y-106249D01*
X36250Y-105583D01*
X36571Y-104807D01*
X36681Y-103975D01*
X36571Y-103142D01*
X36250Y-102367D01*
X35739Y-101700D01*
X35073Y-101189D01*
X34297Y-100868D01*
X33465Y-100758D01*
D02*
G37*
G36*
X117630Y-109704D02*
X117628Y-109705D01*
X116988D01*
Y-109834D01*
X115450Y-109924D01*
X114955Y-109889D01*
X114902Y-109881D01*
Y-109705D01*
X114261D01*
X114260Y-109704D01*
X114258Y-109705D01*
X112008D01*
Y-112598D01*
Y-115492D01*
X114258D01*
X114260Y-115492D01*
X114261Y-115492D01*
X114902D01*
Y-115363D01*
X116440Y-115272D01*
X116934Y-115308D01*
X116988Y-115315D01*
Y-115492D01*
X117628D01*
X117630Y-115492D01*
X117632Y-115492D01*
X119882D01*
Y-112598D01*
Y-109705D01*
X117632D01*
X117630Y-109704D01*
D02*
G37*
G36*
X123957Y-109705D02*
X121063D01*
Y-112008D01*
X123957D01*
Y-109705D01*
D02*
G37*
G36*
X110827D02*
X107933D01*
Y-112008D01*
X110827D01*
Y-109705D01*
D02*
G37*
G36*
Y-113189D02*
X107933D01*
Y-115492D01*
X110827D01*
Y-113189D01*
D02*
G37*
G36*
X33465Y-109258D02*
X32632Y-109368D01*
X31856Y-109689D01*
X31190Y-110201D01*
X30679Y-110867D01*
X30358Y-111642D01*
X30248Y-112475D01*
X30358Y-113307D01*
X30679Y-114083D01*
X31190Y-114749D01*
X31856Y-115261D01*
X32632Y-115582D01*
X33465Y-115691D01*
X34297Y-115582D01*
X35073Y-115261D01*
X35739Y-114749D01*
X36250Y-114083D01*
X36571Y-113307D01*
X36681Y-112475D01*
X36571Y-111642D01*
X36250Y-110867D01*
X35739Y-110201D01*
X35073Y-109689D01*
X34297Y-109368D01*
X33465Y-109258D01*
D02*
G37*
G36*
X81878Y-112460D02*
X81876Y-112461D01*
X78740D01*
Y-115748D01*
Y-119035D01*
X81876D01*
X81878Y-119036D01*
X81880Y-119035D01*
X82520D01*
Y-118631D01*
X82672Y-118582D01*
X82952Y-118523D01*
X85045Y-118369D01*
X86221D01*
X86899Y-118280D01*
X87531Y-118018D01*
X88074Y-117601D01*
X88664Y-117011D01*
X89081Y-116468D01*
X89343Y-115836D01*
X89432Y-115157D01*
X89343Y-114479D01*
X89081Y-113847D01*
X88664Y-113304D01*
X88121Y-112888D01*
X87489Y-112626D01*
X86811Y-112537D01*
X86133Y-112626D01*
X85501Y-112888D01*
X85191Y-113125D01*
X84427Y-113111D01*
X83364Y-113032D01*
X82973Y-112977D01*
X82672Y-112914D01*
X82520Y-112865D01*
Y-112461D01*
X81880D01*
X81878Y-112460D01*
D02*
G37*
G36*
X63721Y-121516D02*
X57933D01*
Y-121769D01*
X57433Y-122207D01*
X57244Y-122182D01*
X56566Y-122272D01*
X55934Y-122533D01*
X55391Y-122950D01*
X54974Y-123493D01*
X54712Y-124125D01*
X54623Y-124803D01*
X54712Y-125481D01*
X54974Y-126114D01*
X55391Y-126656D01*
X55934Y-127073D01*
X56566Y-127335D01*
X57244Y-127424D01*
X57433Y-127399D01*
X57933Y-127838D01*
Y-128484D01*
X63721D01*
Y-121516D01*
D02*
G37*
G36*
X114902Y-116791D02*
X107933D01*
Y-122579D01*
X108503D01*
X108833Y-122955D01*
X108797Y-123228D01*
X108886Y-123907D01*
X109148Y-124539D01*
X109564Y-125082D01*
X110107Y-125498D01*
X110739Y-125760D01*
X111417Y-125849D01*
X112096Y-125760D01*
X112728Y-125498D01*
X113270Y-125082D01*
X113687Y-124539D01*
X113949Y-123907D01*
X114038Y-123228D01*
X114002Y-122955D01*
X114332Y-122579D01*
X114902D01*
Y-116791D01*
D02*
G37*
G36*
X70807Y-125591D02*
X68504D01*
Y-128484D01*
X70807D01*
Y-125591D01*
D02*
G37*
G36*
X67323D02*
X65020D01*
Y-128484D01*
X67323D01*
Y-125591D01*
D02*
G37*
G36*
X50354Y-126247D02*
X49522Y-126356D01*
X48746Y-126678D01*
X48080Y-127189D01*
X47569Y-127855D01*
X47247Y-128631D01*
X47138Y-129463D01*
X47247Y-130296D01*
X47569Y-131071D01*
X48080Y-131737D01*
X48746Y-132249D01*
X49522Y-132570D01*
X50354Y-132680D01*
X51187Y-132570D01*
X51963Y-132249D01*
X52629Y-131737D01*
X53140Y-131071D01*
X53461Y-130296D01*
X53571Y-129463D01*
X53461Y-128631D01*
X53140Y-127855D01*
X52629Y-127189D01*
X51963Y-126678D01*
X51187Y-126356D01*
X50354Y-126247D01*
D02*
G37*
G36*
X33465Y-126258D02*
X32632Y-126368D01*
X31856Y-126689D01*
X31190Y-127200D01*
X30679Y-127867D01*
X30358Y-128642D01*
X30248Y-129475D01*
X30358Y-130307D01*
X30679Y-131083D01*
X31190Y-131749D01*
X31856Y-132261D01*
X32632Y-132582D01*
X33465Y-132691D01*
X34297Y-132582D01*
X35073Y-132261D01*
X35739Y-131749D01*
X36250Y-131083D01*
X36571Y-130307D01*
X36681Y-129475D01*
X36571Y-128642D01*
X36250Y-127867D01*
X35739Y-127200D01*
X35073Y-126689D01*
X34297Y-126368D01*
X33465Y-126258D01*
D02*
G37*
G36*
Y-134758D02*
X32632Y-134868D01*
X31856Y-135189D01*
X31190Y-135701D01*
X30679Y-136367D01*
X30358Y-137142D01*
X30248Y-137975D01*
X30358Y-138807D01*
X30679Y-139583D01*
X31190Y-140249D01*
X31856Y-140761D01*
X32632Y-141082D01*
X33465Y-141191D01*
X34297Y-141082D01*
X35073Y-140761D01*
X35739Y-140249D01*
X36250Y-139583D01*
X36571Y-138807D01*
X36681Y-137975D01*
X36571Y-137142D01*
X36250Y-136367D01*
X35739Y-135701D01*
X35073Y-135189D01*
X34297Y-134868D01*
X33465Y-134758D01*
D02*
G37*
G36*
Y-143258D02*
X32632Y-143368D01*
X31856Y-143689D01*
X31190Y-144201D01*
X30679Y-144867D01*
X30358Y-145642D01*
X30248Y-146475D01*
X30358Y-147307D01*
X30679Y-148083D01*
X31190Y-148749D01*
X31856Y-149260D01*
X32632Y-149582D01*
X33465Y-149691D01*
X34297Y-149582D01*
X35073Y-149260D01*
X35739Y-148749D01*
X36250Y-148083D01*
X36571Y-147307D01*
X36681Y-146475D01*
X36571Y-145642D01*
X36250Y-144867D01*
X35739Y-144201D01*
X35073Y-143689D01*
X34297Y-143368D01*
X33465Y-143258D01*
D02*
G37*
G36*
Y-151758D02*
X32632Y-151868D01*
X31856Y-152189D01*
X31190Y-152700D01*
X30679Y-153367D01*
X30358Y-154142D01*
X30248Y-154975D01*
X30358Y-155807D01*
X30679Y-156583D01*
X31190Y-157249D01*
X31856Y-157761D01*
X32632Y-158082D01*
X33465Y-158191D01*
X34297Y-158082D01*
X35073Y-157761D01*
X35739Y-157249D01*
X36250Y-156583D01*
X36571Y-155807D01*
X36681Y-154975D01*
X36571Y-154142D01*
X36250Y-153367D01*
X35739Y-152700D01*
X35073Y-152189D01*
X34297Y-151868D01*
X33465Y-151758D01*
D02*
G37*
G36*
X123051Y-187992D02*
X120158D01*
Y-190295D01*
X123051D01*
Y-187992D01*
D02*
G37*
G36*
X82520Y-194095D02*
X78740D01*
Y-196791D01*
X82520D01*
Y-194095D01*
D02*
G37*
G36*
X63721Y-198287D02*
X57933D01*
Y-198831D01*
X57557Y-199161D01*
X57480Y-199151D01*
X56802Y-199240D01*
X56170Y-199502D01*
X55627Y-199918D01*
X55211Y-200461D01*
X54949Y-201093D01*
X54860Y-201772D01*
X54949Y-202450D01*
X55211Y-203082D01*
X55627Y-203625D01*
X56170Y-204041D01*
X56802Y-204303D01*
X57480Y-204392D01*
X57557Y-204382D01*
X57933Y-204712D01*
Y-205256D01*
X63721D01*
Y-198287D01*
D02*
G37*
G36*
X70807Y-202362D02*
X68504D01*
Y-205256D01*
X70807D01*
Y-202362D01*
D02*
G37*
G36*
X67323D02*
X65020D01*
Y-205256D01*
X67323D01*
Y-202362D01*
D02*
G37*
G36*
X49984Y-192219D02*
X33724D01*
Y-208479D01*
X49984D01*
Y-192219D01*
D02*
G37*
G36*
X82520Y-202815D02*
X73779D01*
Y-209390D01*
X75304D01*
X75529Y-209646D01*
X75618Y-210324D01*
X75880Y-210956D01*
X76296Y-211499D01*
X76839Y-211915D01*
X77471Y-212177D01*
X78150Y-212266D01*
X78828Y-212177D01*
X79460Y-211915D01*
X80003Y-211499D01*
X80419Y-210956D01*
X80681Y-210324D01*
X80770Y-209646D01*
X80995Y-209390D01*
X82520D01*
Y-202815D01*
D02*
G37*
%LPD*%
G36*
X117630Y-110620D02*
X118197Y-110630D01*
Y-114567D01*
X117630Y-114569D01*
Y-114850D01*
X117591Y-114796D01*
X117473Y-114748D01*
X117276Y-114706D01*
X117000Y-114669D01*
X116444Y-114629D01*
X114417Y-114748D01*
X114299Y-114796D01*
X114260Y-114850D01*
Y-114577D01*
X113693Y-114567D01*
Y-110630D01*
X114260Y-110628D01*
Y-110347D01*
X114299Y-110400D01*
X114417Y-110449D01*
X114614Y-110491D01*
X114890Y-110528D01*
X115446Y-110568D01*
X117473Y-110449D01*
X117591Y-110400D01*
X117630Y-110347D01*
Y-110620D01*
D02*
G37*
G36*
X81917Y-113231D02*
X82035Y-113346D01*
X82232Y-113448D01*
X82508Y-113536D01*
X82862Y-113610D01*
X83295Y-113671D01*
X84397Y-113752D01*
X85815Y-113779D01*
Y-117717D01*
X85067Y-117723D01*
X82862Y-117886D01*
X82508Y-117960D01*
X82232Y-118048D01*
X82035Y-118150D01*
X81917Y-118265D01*
X81878Y-118394D01*
Y-113102D01*
X81917Y-113231D01*
D02*
G37*
G36*
X58587Y-125803D02*
X58577Y-125708D01*
X58547Y-125623D01*
X58496Y-125548D01*
X58425Y-125483D01*
X58334Y-125428D01*
X58223Y-125383D01*
X58091Y-125348D01*
X57939Y-125323D01*
X57767Y-125308D01*
X57575Y-125303D01*
Y-124303D01*
X57767Y-124298D01*
X57939Y-124283D01*
X58091Y-124258D01*
X58223Y-124223D01*
X58334Y-124178D01*
X58425Y-124123D01*
X58496Y-124058D01*
X58547Y-123983D01*
X58577Y-123898D01*
X58587Y-123803D01*
Y-125803D01*
D02*
G37*
G36*
X58821Y-123592D02*
X58992Y-123741D01*
X59162Y-123873D01*
X59332Y-123987D01*
X59500Y-124084D01*
X59667Y-124163D01*
X59834Y-124224D01*
X60000Y-124268D01*
X60165Y-124294D01*
X60329Y-124303D01*
Y-125303D01*
X60165Y-125312D01*
X60000Y-125338D01*
X59834Y-125382D01*
X59667Y-125444D01*
X59500Y-125523D01*
X59332Y-125619D01*
X59162Y-125733D01*
X58992Y-125865D01*
X58821Y-126014D01*
X58650Y-126181D01*
Y-123425D01*
X58821Y-123592D01*
D02*
G37*
G36*
X111917Y-120143D02*
X111926Y-120308D01*
X111952Y-120473D01*
X111996Y-120638D01*
X112058Y-120805D01*
X112137Y-120973D01*
X112233Y-121141D01*
X112348Y-121310D01*
X112479Y-121480D01*
X112628Y-121651D01*
X112795Y-121823D01*
X110039Y-121823D01*
X110206Y-121651D01*
X110355Y-121480D01*
X110487Y-121310D01*
X110601Y-121141D01*
X110698Y-120972D01*
X110777Y-120805D01*
X110838Y-120638D01*
X110882Y-120472D01*
X110909Y-120307D01*
X110917Y-120143D01*
X111917Y-120143D01*
D02*
G37*
G36*
X112322Y-121935D02*
X112237Y-121965D01*
X112162Y-122016D01*
X112097Y-122087D01*
X112042Y-122178D01*
X111997Y-122289D01*
X111962Y-122421D01*
X111937Y-122573D01*
X111922Y-122745D01*
X111917Y-122937D01*
X110917D01*
X110912Y-122745D01*
X110897Y-122573D01*
X110872Y-122421D01*
X110837Y-122289D01*
X110792Y-122178D01*
X110737Y-122087D01*
X110672Y-122016D01*
X110597Y-121965D01*
X110512Y-121935D01*
X110417Y-121925D01*
X112417D01*
X112322Y-121935D01*
D02*
G37*
G36*
X58587Y-202772D02*
X58577Y-202677D01*
X58547Y-202592D01*
X58496Y-202517D01*
X58425Y-202452D01*
X58334Y-202397D01*
X58223Y-202352D01*
X58091Y-202317D01*
X57939Y-202292D01*
X57767Y-202277D01*
X57575Y-202272D01*
Y-201272D01*
X57767Y-201267D01*
X57939Y-201252D01*
X58091Y-201227D01*
X58223Y-201192D01*
X58334Y-201147D01*
X58425Y-201092D01*
X58496Y-201027D01*
X58547Y-200952D01*
X58577Y-200867D01*
X58587Y-200772D01*
Y-202772D01*
D02*
G37*
G36*
X59058Y-200560D02*
X59229Y-200710D01*
X59399Y-200841D01*
X59568Y-200956D01*
X59736Y-201052D01*
X59904Y-201131D01*
X60070Y-201193D01*
X60236Y-201237D01*
X60401Y-201263D01*
X60565Y-201272D01*
Y-202272D01*
X60401Y-202280D01*
X60236Y-202307D01*
X60070Y-202351D01*
X59904Y-202412D01*
X59736Y-202491D01*
X59568Y-202588D01*
X59399Y-202702D01*
X59229Y-202834D01*
X59058Y-202983D01*
X58886Y-203150D01*
Y-200394D01*
X59058Y-200560D01*
D02*
G37*
G36*
X78658Y-206725D02*
X78685Y-206890D01*
X78729Y-207056D01*
X78790Y-207222D01*
X78869Y-207390D01*
X78966Y-207558D01*
X79080Y-207727D01*
X79211Y-207897D01*
X79361Y-208068D01*
X79527Y-208240D01*
X76772D01*
X76938Y-208068D01*
X77088Y-207897D01*
X77219Y-207727D01*
X77333Y-207558D01*
X77430Y-207390D01*
X77509Y-207222D01*
X77571Y-207056D01*
X77614Y-206890D01*
X77641Y-206725D01*
X77650Y-206561D01*
X78650D01*
X78658Y-206725D01*
D02*
G37*
G36*
X78972Y-208745D02*
X78904Y-208772D01*
X78844Y-208818D01*
X78793Y-208881D01*
X78749Y-208963D01*
X78713Y-209063D01*
X78685Y-209182D01*
X78666Y-209318D01*
X78654Y-209473D01*
X78650Y-209646D01*
X77650D01*
X77646Y-209473D01*
X77634Y-209318D01*
X77614Y-209182D01*
X77586Y-209063D01*
X77550Y-208963D01*
X77506Y-208881D01*
X77455Y-208818D01*
X77395Y-208772D01*
X77327Y-208745D01*
X77252Y-208736D01*
X79047D01*
X78972Y-208745D01*
D02*
G37*
%LPC*%
G36*
X131693Y-11811D02*
X128799D01*
Y-14114D01*
X131693D01*
Y-11811D01*
D02*
G37*
G36*
X222972Y-6063D02*
X216535D01*
Y-9449D01*
X222972D01*
Y-6063D01*
D02*
G37*
G36*
X243110Y-5361D02*
X242432Y-5451D01*
X241800Y-5712D01*
X241257Y-6129D01*
X241232Y-6161D01*
X236968D01*
Y-9783D01*
X241217D01*
X241257Y-9835D01*
X241800Y-10252D01*
X242432Y-10514D01*
X243110Y-10603D01*
X243789Y-10514D01*
X244421Y-10252D01*
X244964Y-9835D01*
X245380Y-9293D01*
X245642Y-8660D01*
X245731Y-7982D01*
X245642Y-7304D01*
X245380Y-6672D01*
X244964Y-6129D01*
X244421Y-5712D01*
X243789Y-5451D01*
X243110Y-5361D01*
D02*
G37*
G36*
X222972Y-10630D02*
X216535D01*
Y-14016D01*
X222972D01*
Y-10630D01*
D02*
G37*
G36*
X215354Y-6063D02*
X208917D01*
Y-7949D01*
X208914Y-7951D01*
X208826Y-8010D01*
X208815Y-8027D01*
X208800Y-8038D01*
X208746Y-8130D01*
X208741Y-8137D01*
X208636Y-8160D01*
X208282Y-8197D01*
X207874D01*
X207244Y-8322D01*
X206710Y-8679D01*
X206353Y-9213D01*
X206228Y-9843D01*
X206353Y-10472D01*
X206710Y-11006D01*
X207244Y-11363D01*
X207874Y-11488D01*
X208341D01*
X208418Y-11494D01*
X208626Y-11523D01*
X208741Y-11548D01*
X208746Y-11555D01*
X208800Y-11647D01*
X208815Y-11659D01*
X208826Y-11675D01*
X208914Y-11734D01*
X208917Y-11736D01*
Y-14016D01*
X215354D01*
Y-10039D01*
Y-6063D01*
D02*
G37*
G36*
X194882Y-7222D02*
X194204Y-7311D01*
X193571Y-7573D01*
X193029Y-7989D01*
X192612Y-8532D01*
X192350Y-9164D01*
X192261Y-9843D01*
X192271Y-9919D01*
X191941Y-10295D01*
X191398D01*
Y-16083D01*
X198366D01*
Y-10295D01*
X197822D01*
X197493Y-9919D01*
X197503Y-9843D01*
X197413Y-9164D01*
X197152Y-8532D01*
X196735Y-7989D01*
X196192Y-7573D01*
X195560Y-7311D01*
X194882Y-7222D01*
D02*
G37*
G36*
X241378Y-11870D02*
X236968D01*
Y-15492D01*
X238021D01*
Y-18258D01*
X235984D01*
Y-24439D01*
X243150D01*
Y-18258D01*
X240325D01*
Y-15492D01*
X241378D01*
Y-11870D01*
D02*
G37*
G36*
X187087Y-34439D02*
X185902Y-34556D01*
X184763Y-34902D01*
X183713Y-35463D01*
X182793Y-36218D01*
X182038Y-37138D01*
X181476Y-38188D01*
X181131Y-39327D01*
X181014Y-40512D01*
X181131Y-41697D01*
X181476Y-42836D01*
X182038Y-43886D01*
X182793Y-44806D01*
X183713Y-45561D01*
X184763Y-46122D01*
X185902Y-46468D01*
X187087Y-46584D01*
X188271Y-46468D01*
X189410Y-46122D01*
X190460Y-45561D01*
X191381Y-44806D01*
X192136Y-43886D01*
X192697Y-42836D01*
X193043Y-41697D01*
X193159Y-40512D01*
X193043Y-39327D01*
X192697Y-38188D01*
X192136Y-37138D01*
X191381Y-36218D01*
X190460Y-35463D01*
X189410Y-34902D01*
X188271Y-34556D01*
X187087Y-34439D01*
D02*
G37*
G36*
X208602Y-46811D02*
X202028D01*
Y-48213D01*
X201528Y-48606D01*
X201181Y-48560D01*
X200503Y-48650D01*
X199871Y-48911D01*
X199328Y-49328D01*
X198911Y-49871D01*
X198650Y-50503D01*
X198560Y-51181D01*
X198650Y-51859D01*
X198911Y-52491D01*
X199328Y-53034D01*
X199871Y-53451D01*
X200503Y-53713D01*
X201181Y-53802D01*
X201528Y-53756D01*
X202028Y-54149D01*
Y-55551D01*
X208602D01*
Y-46811D01*
D02*
G37*
G36*
X168347Y-39429D02*
X161181D01*
Y-45610D01*
X161249D01*
Y-48675D01*
X160749Y-48791D01*
X160123Y-48310D01*
X159323Y-47978D01*
X158465Y-47865D01*
X157606Y-47978D01*
X157101Y-48188D01*
X155089Y-46176D01*
Y-45610D01*
X157520D01*
Y-39429D01*
X150354D01*
Y-45610D01*
X152785D01*
Y-46653D01*
X152873Y-47094D01*
X153122Y-47468D01*
X155471Y-49817D01*
X155262Y-50323D01*
X155149Y-51181D01*
X155262Y-52039D01*
X155593Y-52839D01*
X156120Y-53526D01*
X156807Y-54053D01*
X157606Y-54384D01*
X158465Y-54497D01*
X159323Y-54384D01*
X160123Y-54053D01*
X160749Y-53572D01*
X161249Y-53687D01*
Y-56463D01*
X160917Y-56650D01*
X160783Y-56691D01*
X160123Y-56184D01*
X159323Y-55852D01*
X158465Y-55739D01*
X157606Y-55852D01*
X156807Y-56184D01*
X156120Y-56710D01*
X155593Y-57397D01*
X155262Y-58197D01*
X155149Y-59055D01*
X155262Y-59913D01*
X155593Y-60713D01*
X156120Y-61400D01*
X156807Y-61927D01*
X157606Y-62258D01*
X158465Y-62371D01*
X159323Y-62258D01*
X160123Y-61927D01*
X160809Y-61400D01*
X161336Y-60713D01*
X161668Y-59913D01*
X161738Y-59380D01*
X163216Y-57901D01*
X163466Y-57527D01*
X163554Y-57086D01*
Y-45610D01*
X168347D01*
Y-39429D01*
D02*
G37*
G36*
X168307Y-47865D02*
X167449Y-47978D01*
X166649Y-48310D01*
X165963Y-48836D01*
X165436Y-49523D01*
X165104Y-50323D01*
X164991Y-51181D01*
X165104Y-52039D01*
X165436Y-52839D01*
X165963Y-53526D01*
X166649Y-54053D01*
X167449Y-54384D01*
X168307Y-54497D01*
X169165Y-54384D01*
X169965Y-54053D01*
X170652Y-53526D01*
X171179Y-52839D01*
X171510Y-52039D01*
X171623Y-51181D01*
X171510Y-50323D01*
X171179Y-49523D01*
X170652Y-48836D01*
X169965Y-48310D01*
X169165Y-47978D01*
X168307Y-47865D01*
D02*
G37*
G36*
X221201Y-51772D02*
X217913D01*
X214626D01*
Y-55551D01*
X215666D01*
Y-56693D01*
X215837Y-57553D01*
X216324Y-58282D01*
X217053Y-58769D01*
X217913Y-58941D01*
X218774Y-58769D01*
X219503Y-58282D01*
X219990Y-57553D01*
X220161Y-56693D01*
Y-55551D01*
X221201D01*
Y-51772D01*
D02*
G37*
G36*
X184882Y-57661D02*
X179725D01*
Y-64394D01*
X181151D01*
Y-66235D01*
X179119Y-68268D01*
X176240D01*
Y-75433D01*
X182421D01*
Y-68268D01*
X182421Y-68268D01*
X182421D01*
X182730Y-67915D01*
X183118Y-67527D01*
X183368Y-67154D01*
X183455Y-66713D01*
Y-64394D01*
X184882D01*
Y-57661D01*
D02*
G37*
G36*
X140356Y-80456D02*
X137992D01*
Y-81398D01*
X141197D01*
Y-81297D01*
X141133Y-80975D01*
X140951Y-80703D01*
X140678Y-80520D01*
X140356Y-80456D01*
D02*
G37*
G36*
X243543Y-78799D02*
X234803D01*
Y-85374D01*
X236796D01*
X237189Y-85874D01*
X237143Y-86221D01*
X237232Y-86899D01*
X237494Y-87531D01*
X237911Y-88074D01*
X238453Y-88490D01*
X239086Y-88752D01*
X239764Y-88841D01*
X240442Y-88752D01*
X241074Y-88490D01*
X241617Y-88074D01*
X242034Y-87531D01*
X242295Y-86899D01*
X242385Y-86221D01*
X242339Y-85874D01*
X242732Y-85374D01*
X243543D01*
Y-78799D01*
D02*
G37*
G36*
X231142D02*
X222401D01*
Y-85374D01*
X224198D01*
X224590Y-85874D01*
X224545Y-86221D01*
X224634Y-86899D01*
X224896Y-87531D01*
X225312Y-88074D01*
X225855Y-88490D01*
X226487Y-88752D01*
X227165Y-88841D01*
X227844Y-88752D01*
X228476Y-88490D01*
X229019Y-88074D01*
X229435Y-87531D01*
X229697Y-86899D01*
X229786Y-86221D01*
X229741Y-85874D01*
X230133Y-85374D01*
X231142D01*
Y-78799D01*
D02*
G37*
G36*
X218347D02*
X209606D01*
Y-85374D01*
X211599D01*
X211992Y-85874D01*
X211946Y-86221D01*
X212035Y-86899D01*
X212297Y-87531D01*
X212714Y-88074D01*
X213257Y-88490D01*
X213889Y-88752D01*
X214567Y-88841D01*
X215245Y-88752D01*
X215877Y-88490D01*
X216420Y-88074D01*
X216837Y-87531D01*
X217098Y-86899D01*
X217188Y-86221D01*
X217142Y-85874D01*
X217535Y-85374D01*
X218347D01*
Y-78799D01*
D02*
G37*
G36*
X205551D02*
X196811D01*
Y-85374D01*
X198411D01*
X198689Y-85790D01*
X198650Y-85885D01*
X198560Y-86563D01*
X198650Y-87241D01*
X198911Y-87873D01*
X199328Y-88416D01*
X199871Y-88833D01*
X200503Y-89095D01*
X201181Y-89184D01*
X201859Y-89095D01*
X202491Y-88833D01*
X203034Y-88416D01*
X203451Y-87873D01*
X203713Y-87241D01*
X203802Y-86563D01*
X203713Y-85885D01*
X203673Y-85790D01*
X203951Y-85374D01*
X205551D01*
Y-78799D01*
D02*
G37*
G36*
X232283Y-89899D02*
X231605Y-89988D01*
X230973Y-90250D01*
X230430Y-90667D01*
X230014Y-91209D01*
X229752Y-91841D01*
X229663Y-92520D01*
X229734Y-93063D01*
X229429Y-93563D01*
X229173D01*
Y-99744D01*
X236339D01*
Y-93563D01*
X235138D01*
X234833Y-93063D01*
X234904Y-92520D01*
X234815Y-91841D01*
X234553Y-91209D01*
X234137Y-90667D01*
X233594Y-90250D01*
X232962Y-89988D01*
X232283Y-89899D01*
D02*
G37*
G36*
X207874D02*
X207196Y-89988D01*
X206564Y-90250D01*
X206021Y-90667D01*
X205604Y-91209D01*
X205343Y-91841D01*
X205253Y-92520D01*
X205325Y-93063D01*
X205020Y-93563D01*
X204488D01*
Y-99744D01*
X211653D01*
Y-93563D01*
X210728D01*
X210423Y-93063D01*
X210495Y-92520D01*
X210406Y-91841D01*
X210144Y-91209D01*
X209727Y-90667D01*
X209184Y-90250D01*
X208552Y-89988D01*
X207874Y-89899D01*
D02*
G37*
G36*
X196850D02*
X196172Y-89988D01*
X195540Y-90250D01*
X194997Y-90667D01*
X194581Y-91209D01*
X194319Y-91841D01*
X194229Y-92520D01*
X194301Y-93063D01*
X193996Y-93563D01*
X193268D01*
Y-99744D01*
X200433D01*
Y-93563D01*
X199705D01*
X199400Y-93063D01*
X199471Y-92520D01*
X199382Y-91841D01*
X199120Y-91209D01*
X198704Y-90667D01*
X198161Y-90250D01*
X197529Y-89988D01*
X196850Y-89899D01*
D02*
G37*
G36*
X177165D02*
X176487Y-89988D01*
X175855Y-90250D01*
X175312Y-90667D01*
X174896Y-91209D01*
X174634Y-91841D01*
X174545Y-92520D01*
X174616Y-93063D01*
X174311Y-93563D01*
X173583D01*
Y-99744D01*
X180748D01*
Y-93563D01*
X180019D01*
X179715Y-93063D01*
X179786Y-92520D01*
X179697Y-91841D01*
X179435Y-91209D01*
X179019Y-90667D01*
X178476Y-90250D01*
X177844Y-89988D01*
X177165Y-89899D01*
D02*
G37*
G36*
X238189Y-131237D02*
X237511Y-131327D01*
X236879Y-131589D01*
X236336Y-132005D01*
X235919Y-132548D01*
X235657Y-133180D01*
X235568Y-133858D01*
X235585Y-133990D01*
X235256Y-134365D01*
X233819D01*
Y-140940D01*
X242559D01*
Y-134365D01*
X241122D01*
X240792Y-133990D01*
X240810Y-133858D01*
X240721Y-133180D01*
X240459Y-132548D01*
X240042Y-132005D01*
X239499Y-131589D01*
X238867Y-131327D01*
X238189Y-131237D01*
D02*
G37*
G36*
X242559Y-146964D02*
X238779D01*
Y-149661D01*
X242559D01*
Y-146964D01*
D02*
G37*
G36*
X237598D02*
X233819D01*
Y-149661D01*
X237598D01*
Y-146964D01*
D02*
G37*
G36*
X242559Y-150842D02*
X238779D01*
Y-153539D01*
X242559D01*
Y-150842D01*
D02*
G37*
G36*
X237598D02*
X233819D01*
Y-153539D01*
X237598D01*
Y-150842D01*
D02*
G37*
G36*
X248366Y-156850D02*
X245866D01*
Y-159843D01*
X248366D01*
Y-156850D01*
D02*
G37*
G36*
X244685D02*
X242185D01*
Y-159843D01*
X244685D01*
Y-156850D01*
D02*
G37*
G36*
X248366Y-161024D02*
X245866D01*
Y-164016D01*
X248366D01*
Y-161024D01*
D02*
G37*
G36*
X244685D02*
X242185D01*
Y-164016D01*
X244685D01*
Y-161024D01*
D02*
G37*
G36*
X240886Y-174173D02*
X238583D01*
Y-177067D01*
X240886D01*
Y-174173D01*
D02*
G37*
%LPD*%
G36*
X241704Y-7481D02*
X241736Y-7482D01*
Y-8482D01*
X241704Y-8483D01*
Y-9360D01*
X241533Y-9193D01*
X241362Y-9044D01*
X241192Y-8912D01*
X241023Y-8798D01*
X240854Y-8702D01*
X240847Y-8698D01*
X240815Y-8727D01*
X240764Y-8802D01*
X240734Y-8887D01*
X240724Y-8982D01*
Y-8640D01*
X240687Y-8623D01*
X240520Y-8561D01*
X240354Y-8517D01*
X240189Y-8491D01*
X240025Y-8482D01*
Y-7482D01*
X240189Y-7473D01*
X240354Y-7447D01*
X240520Y-7403D01*
X240687Y-7342D01*
X240724Y-7324D01*
Y-6982D01*
X240734Y-7077D01*
X240764Y-7162D01*
X240815Y-7237D01*
X240847Y-7266D01*
X240854Y-7263D01*
X241023Y-7166D01*
X241192Y-7052D01*
X241362Y-6920D01*
X241533Y-6771D01*
X241704Y-6604D01*
Y-7481D01*
D02*
G37*
G36*
X209571Y-8663D02*
X209575Y-8665D01*
X209702Y-8716D01*
X209843Y-8760D01*
X209998Y-8795D01*
X210167Y-8823D01*
X210351Y-8843D01*
X210760Y-8858D01*
Y-10827D01*
X210548Y-10831D01*
X210167Y-10862D01*
X209998Y-10890D01*
X209843Y-10925D01*
X209702Y-10968D01*
X209575Y-11020D01*
X209571Y-11022D01*
Y-11528D01*
X209554Y-11394D01*
X209503Y-11275D01*
X209418Y-11170D01*
X209376Y-11138D01*
X209364Y-11146D01*
X209280Y-11220D01*
Y-11069D01*
X209147Y-11002D01*
X208960Y-10939D01*
X208740Y-10890D01*
X208485Y-10855D01*
X208196Y-10834D01*
X207874Y-10827D01*
Y-8858D01*
X208196Y-8851D01*
X208740Y-8795D01*
X208960Y-8746D01*
X209147Y-8683D01*
X209280Y-8616D01*
Y-8465D01*
X209364Y-8539D01*
X209376Y-8547D01*
X209418Y-8515D01*
X209503Y-8410D01*
X209554Y-8291D01*
X209571Y-8157D01*
Y-8663D01*
D02*
G37*
G36*
X195387Y-10130D02*
X195402Y-10301D01*
X195427Y-10453D01*
X195462Y-10585D01*
X195507Y-10696D01*
X195562Y-10787D01*
X195627Y-10858D01*
X195702Y-10909D01*
X195787Y-10939D01*
X195882Y-10949D01*
X193882D01*
X193977Y-10939D01*
X194062Y-10909D01*
X194137Y-10858D01*
X194202Y-10787D01*
X194257Y-10696D01*
X194302Y-10585D01*
X194337Y-10453D01*
X194362Y-10301D01*
X194377Y-10130D01*
X194382Y-9937D01*
X195382D01*
X195387Y-10130D01*
D02*
G37*
G36*
X196093Y-11420D02*
X195944Y-11591D01*
X195812Y-11761D01*
X195698Y-11930D01*
X195601Y-12098D01*
X195522Y-12266D01*
X195461Y-12433D01*
X195417Y-12598D01*
X195391Y-12763D01*
X195382Y-12928D01*
X194382D01*
X194373Y-12763D01*
X194347Y-12598D01*
X194303Y-12433D01*
X194241Y-12266D01*
X194162Y-12098D01*
X194066Y-11930D01*
X193952Y-11761D01*
X193820Y-11591D01*
X193671Y-11420D01*
X193504Y-11248D01*
X196260D01*
X196093Y-11420D01*
D02*
G37*
G36*
X219498Y-54913D02*
X219496Y-54961D01*
X219488Y-56496D01*
X216339D01*
X216326Y-54897D01*
X219500D01*
X219498Y-54913D01*
D02*
G37*
G36*
X239683Y-83248D02*
X239713Y-83414D01*
X239762Y-83573D01*
X239830Y-83724D01*
X239919Y-83868D01*
X240027Y-84003D01*
X240155Y-84131D01*
X240302Y-84250D01*
X240470Y-84362D01*
X240656Y-84466D01*
X239849Y-84720D01*
X240173D01*
X240078Y-84730D01*
X239993Y-84761D01*
X239918Y-84811D01*
X239853Y-84882D01*
X239798Y-84973D01*
X239753Y-85084D01*
X239718Y-85216D01*
X239693Y-85368D01*
X239678Y-85540D01*
X239673Y-85732D01*
X238673D01*
X238668Y-85540D01*
X238653Y-85368D01*
X238628Y-85216D01*
X238601Y-85113D01*
X238028Y-85293D01*
X238150Y-85056D01*
X238293Y-84739D01*
X238268Y-84730D01*
X238173Y-84720D01*
X238301D01*
X238441Y-84410D01*
X238512Y-84215D01*
X238615Y-83858D01*
X238647Y-83695D01*
X238667Y-83543D01*
X238673Y-83401D01*
X239673Y-83073D01*
X239683Y-83248D01*
D02*
G37*
G36*
X227281Y-83245D02*
X227310Y-83412D01*
X227358Y-83574D01*
X227426Y-83731D01*
X227512Y-83883D01*
X227618Y-84030D01*
X227743Y-84172D01*
X227888Y-84308D01*
X228051Y-84440D01*
X228234Y-84567D01*
X227487Y-84720D01*
X227772D01*
X227677Y-84730D01*
X227592Y-84761D01*
X227517Y-84811D01*
X227452Y-84882D01*
X227397Y-84973D01*
X227352Y-85084D01*
X227317Y-85216D01*
X227292Y-85368D01*
X227277Y-85540D01*
X227272Y-85732D01*
X226272D01*
X226267Y-85540D01*
X226252Y-85368D01*
X226227Y-85216D01*
X226192Y-85084D01*
X226154Y-84992D01*
X225534Y-85119D01*
X225674Y-84904D01*
X225780Y-84721D01*
X225772Y-84720D01*
X225780D01*
X225910Y-84495D01*
X226006Y-84301D01*
X226154Y-83935D01*
X226205Y-83762D01*
X226242Y-83596D01*
X226264Y-83437D01*
X226272Y-83285D01*
X227272Y-83074D01*
X227281Y-83245D01*
D02*
G37*
G36*
X214486Y-83248D02*
X214516Y-83414D01*
X214565Y-83573D01*
X214634Y-83724D01*
X214722Y-83868D01*
X214830Y-84003D01*
X214958Y-84131D01*
X215106Y-84250D01*
X215273Y-84362D01*
X215460Y-84466D01*
X214652Y-84720D01*
X214976D01*
X214881Y-84730D01*
X214796Y-84761D01*
X214721Y-84811D01*
X214656Y-84882D01*
X214601Y-84973D01*
X214556Y-85084D01*
X214521Y-85216D01*
X214496Y-85368D01*
X214481Y-85540D01*
X214476Y-85732D01*
X213476D01*
X213471Y-85540D01*
X213456Y-85368D01*
X213431Y-85216D01*
X213404Y-85113D01*
X212831Y-85293D01*
X212953Y-85056D01*
X213096Y-84739D01*
X213071Y-84730D01*
X212976Y-84720D01*
X213105D01*
X213244Y-84410D01*
X213315Y-84215D01*
X213418Y-83858D01*
X213451Y-83695D01*
X213470Y-83543D01*
X213476Y-83400D01*
X214476Y-83073D01*
X214486Y-83248D01*
D02*
G37*
G36*
X201681Y-83478D02*
X201690Y-83642D01*
X201716Y-83807D01*
X201760Y-83973D01*
X201822Y-84140D01*
X201901Y-84307D01*
X201997Y-84475D01*
X202111Y-84645D01*
X202170Y-84720D01*
X202181D01*
X202171Y-84721D01*
X202243Y-84815D01*
X202392Y-84986D01*
X202559Y-85157D01*
X201742Y-85157D01*
X201726Y-85216D01*
X201701Y-85368D01*
X201686Y-85540D01*
X201681Y-85732D01*
X200681D01*
X200676Y-85540D01*
X200661Y-85368D01*
X200636Y-85216D01*
X200621Y-85157D01*
X199803Y-85157D01*
X199970Y-84986D01*
X200119Y-84815D01*
X200192Y-84721D01*
X200181Y-84720D01*
X200192D01*
X200251Y-84645D01*
X200365Y-84475D01*
X200462Y-84307D01*
X200541Y-84140D01*
X200602Y-83973D01*
X200646Y-83807D01*
X200672Y-83642D01*
X200681Y-83478D01*
X201681Y-83478D01*
D02*
G37*
G36*
X233261Y-93397D02*
X233276Y-93569D01*
X233300Y-93716D01*
X233959Y-93554D01*
X233825Y-93777D01*
X233614Y-94190D01*
X233661Y-94207D01*
X233756Y-94217D01*
X233601D01*
X233509Y-94397D01*
X233432Y-94587D01*
X233319Y-94942D01*
X233284Y-95107D01*
X233263Y-95264D01*
X233256Y-95412D01*
X232256Y-95669D01*
X232246Y-95496D01*
X232217Y-95329D01*
X232168Y-95169D01*
X232100Y-95014D01*
X232013Y-94866D01*
X231906Y-94723D01*
X231779Y-94587D01*
X231633Y-94457D01*
X231468Y-94333D01*
X231283Y-94215D01*
X232101Y-94013D01*
X232131Y-93964D01*
X232176Y-93853D01*
X232211Y-93721D01*
X232236Y-93569D01*
X232251Y-93397D01*
X232256Y-93205D01*
X233256D01*
X233261Y-93397D01*
D02*
G37*
G36*
X208576D02*
X208591Y-93569D01*
X208616Y-93721D01*
X208651Y-93853D01*
X208651Y-93854D01*
X209386Y-93781D01*
X209231Y-93974D01*
X209063Y-94216D01*
X209071Y-94217D01*
X209062D01*
X208970Y-94349D01*
X208864Y-94531D01*
X208774Y-94709D01*
X208701Y-94884D01*
X208644Y-95054D01*
X208603Y-95220D01*
X208579Y-95383D01*
X208571Y-95542D01*
X207571Y-95646D01*
X207561Y-95477D01*
X207534Y-95311D01*
X207487Y-95147D01*
X207422Y-94985D01*
X207339Y-94825D01*
X207237Y-94667D01*
X207116Y-94511D01*
X206977Y-94357D01*
X206820Y-94206D01*
X206644Y-94056D01*
X207438Y-93976D01*
X207446Y-93964D01*
X207491Y-93853D01*
X207526Y-93721D01*
X207551Y-93569D01*
X207566Y-93397D01*
X207571Y-93205D01*
X208571D01*
X208576Y-93397D01*
D02*
G37*
G36*
X197355D02*
X197370Y-93569D01*
X197395Y-93721D01*
X197430Y-93853D01*
X197460Y-93925D01*
X198228D01*
X198062Y-94097D01*
X197912Y-94268D01*
X197781Y-94438D01*
X197667Y-94607D01*
X197570Y-94776D01*
X197491Y-94943D01*
X197429Y-95110D01*
X197386Y-95276D01*
X197359Y-95441D01*
X197350Y-95605D01*
X196350D01*
X196342Y-95441D01*
X196315Y-95276D01*
X196271Y-95110D01*
X196210Y-94943D01*
X196131Y-94776D01*
X196034Y-94607D01*
X195920Y-94438D01*
X195789Y-94268D01*
X195639Y-94097D01*
X195472Y-93925D01*
X196241D01*
X196270Y-93853D01*
X196305Y-93721D01*
X196330Y-93569D01*
X196345Y-93397D01*
X196350Y-93205D01*
X197350D01*
X197355Y-93397D01*
D02*
G37*
G36*
X177670D02*
X177685Y-93569D01*
X177710Y-93721D01*
X177745Y-93853D01*
X177775Y-93925D01*
X178543D01*
X178376Y-94097D01*
X178227Y-94268D01*
X178096Y-94438D01*
X177981Y-94607D01*
X177885Y-94776D01*
X177806Y-94943D01*
X177744Y-95110D01*
X177700Y-95276D01*
X177674Y-95441D01*
X177665Y-95605D01*
X176665D01*
X176657Y-95441D01*
X176630Y-95276D01*
X176586Y-95110D01*
X176525Y-94943D01*
X176446Y-94776D01*
X176349Y-94607D01*
X176235Y-94438D01*
X176103Y-94268D01*
X175954Y-94097D01*
X175787Y-93925D01*
X176556D01*
X176585Y-93853D01*
X176620Y-93721D01*
X176645Y-93569D01*
X176660Y-93397D01*
X176665Y-93205D01*
X177665D01*
X177670Y-93397D01*
D02*
G37*
G36*
X238694Y-134200D02*
X238709Y-134372D01*
X238734Y-134523D01*
X238769Y-134655D01*
X238814Y-134766D01*
X238869Y-134857D01*
X238934Y-134928D01*
X239009Y-134979D01*
X239094Y-135009D01*
X239189Y-135019D01*
X237189D01*
X237284Y-135009D01*
X237369Y-134979D01*
X237444Y-134928D01*
X237509Y-134857D01*
X237564Y-134766D01*
X237609Y-134655D01*
X237644Y-134523D01*
X237669Y-134372D01*
X237684Y-134200D01*
X237689Y-134007D01*
X238689D01*
X238694Y-134200D01*
D02*
G37*
G36*
X239400Y-135436D02*
X239251Y-135607D01*
X239119Y-135777D01*
X239005Y-135946D01*
X238909Y-136114D01*
X238829Y-136282D01*
X238768Y-136448D01*
X238724Y-136614D01*
X238698Y-136779D01*
X238689Y-136943D01*
X237689D01*
X237680Y-136779D01*
X237654Y-136614D01*
X237610Y-136448D01*
X237548Y-136282D01*
X237470Y-136114D01*
X237373Y-135946D01*
X237259Y-135777D01*
X237127Y-135607D01*
X236978Y-135436D01*
X236811Y-135264D01*
X239567D01*
X239400Y-135436D01*
D02*
G37*
%LPC*%
G36*
X141673Y-109705D02*
X138779D01*
Y-112008D01*
X141673D01*
Y-109705D01*
D02*
G37*
G36*
Y-113189D02*
X138779D01*
Y-115492D01*
X141673D01*
Y-113189D01*
D02*
G37*
G36*
Y-116791D02*
X134705D01*
Y-122579D01*
X135036D01*
X135371Y-123079D01*
X135264Y-123337D01*
X135174Y-124015D01*
X135264Y-124694D01*
X135525Y-125326D01*
X135942Y-125869D01*
X136485Y-126285D01*
X137117Y-126547D01*
X137795Y-126636D01*
X138473Y-126547D01*
X139105Y-126285D01*
X139648Y-125869D01*
X140065Y-125326D01*
X140326Y-124694D01*
X140416Y-124015D01*
X140326Y-123337D01*
X140219Y-123079D01*
X140554Y-122579D01*
X141673D01*
Y-116791D01*
D02*
G37*
%LPD*%
G36*
X138304Y-121095D02*
X138330Y-121260D01*
X138374Y-121425D01*
X138435Y-121592D01*
X138514Y-121760D01*
X138609Y-121925D01*
X138795D01*
X138700Y-121935D01*
X138632Y-121959D01*
X138725Y-122097D01*
X138857Y-122267D01*
X139006Y-122438D01*
X139173Y-122610D01*
X138312D01*
X138300Y-122745D01*
X138295Y-122937D01*
X137295D01*
X137290Y-122745D01*
X137278Y-122610D01*
X136417D01*
X136584Y-122438D01*
X136733Y-122267D01*
X136865Y-122097D01*
X136958Y-121959D01*
X136890Y-121935D01*
X136795Y-121925D01*
X136981D01*
X137075Y-121760D01*
X137154Y-121592D01*
X137216Y-121425D01*
X137260Y-121260D01*
X137286Y-121095D01*
X137295Y-120930D01*
X138295D01*
X138304Y-121095D01*
D02*
G37*
%LPC*%
G36*
X139372Y-155260D02*
X137008D01*
Y-156201D01*
X140213D01*
Y-156100D01*
X140149Y-155779D01*
X139967Y-155506D01*
X139694Y-155324D01*
X139372Y-155260D01*
D02*
G37*
G36*
X135827D02*
X133463D01*
X133141Y-155324D01*
X132868Y-155506D01*
X132686Y-155779D01*
X132622Y-156100D01*
Y-156201D01*
X135827D01*
Y-155260D01*
D02*
G37*
G36*
X136959Y-184508D02*
X134065D01*
Y-185130D01*
X133677Y-185154D01*
X132175D01*
Y-184508D01*
X129281D01*
Y-187402D01*
Y-190295D01*
X132175D01*
Y-189649D01*
X133861D01*
X133999Y-189658D01*
X134065Y-189665D01*
Y-190295D01*
X136959D01*
Y-187402D01*
Y-184508D01*
D02*
G37*
G36*
X141033D02*
X138140D01*
Y-186811D01*
X141033D01*
Y-184508D01*
D02*
G37*
G36*
Y-187992D02*
X138140D01*
Y-190295D01*
X141033D01*
Y-187992D01*
D02*
G37*
G36*
Y-191595D02*
X134065D01*
Y-197382D01*
X134791D01*
X135125Y-197882D01*
X135018Y-198141D01*
X134928Y-198819D01*
X135018Y-199497D01*
X135280Y-200129D01*
X135696Y-200672D01*
X136239Y-201089D01*
X136871Y-201350D01*
X137549Y-201440D01*
X138227Y-201350D01*
X138860Y-201089D01*
X139402Y-200672D01*
X139819Y-200129D01*
X140081Y-199497D01*
X140170Y-198819D01*
X140081Y-198141D01*
X139974Y-197882D01*
X140308Y-197382D01*
X141033D01*
Y-191595D01*
D02*
G37*
%LPD*%
G36*
X134719Y-189234D02*
X134700Y-189185D01*
X134645Y-189142D01*
X134553Y-189103D01*
X134424Y-189069D01*
X134258Y-189041D01*
X134055Y-189018D01*
X133538Y-188987D01*
X132874Y-188976D01*
Y-185827D01*
X133224Y-185824D01*
X134258Y-185762D01*
X134424Y-185734D01*
X134553Y-185700D01*
X134645Y-185662D01*
X134700Y-185618D01*
X134719Y-185569D01*
Y-189234D01*
D02*
G37*
G36*
X138058Y-195898D02*
X138084Y-196063D01*
X138128Y-196229D01*
X138190Y-196396D01*
X138269Y-196563D01*
X138363Y-196728D01*
X138549D01*
X138454Y-196738D01*
X138386Y-196762D01*
X138479Y-196900D01*
X138611Y-197071D01*
X138760Y-197241D01*
X138927Y-197413D01*
X138066D01*
X138054Y-197548D01*
X138049Y-197740D01*
X137049D01*
X137044Y-197548D01*
X137032Y-197413D01*
X136171D01*
X136338Y-197241D01*
X136487Y-197071D01*
X136619Y-196900D01*
X136712Y-196762D01*
X136644Y-196738D01*
X136549Y-196728D01*
X136735D01*
X136830Y-196563D01*
X136909Y-196396D01*
X136970Y-196229D01*
X137014Y-196063D01*
X137040Y-195898D01*
X137049Y-195734D01*
X138049D01*
X138058Y-195898D01*
D02*
G37*
D10*
X215748Y-9843D02*
X215945Y-10039D01*
X207874Y-9843D02*
X215748D01*
X147236Y-12982D02*
X154232D01*
X146654Y-12400D02*
X147236Y-12982D01*
D14*
X112402Y-177264D02*
X117717D01*
X118110Y-177657D01*
D15*
X163693Y-141055D02*
Y-123421D01*
X171405Y-87053D02*
Y-76333D01*
X151429Y-68752D02*
X163825D01*
X171405Y-76333D01*
X161207Y-154738D02*
X162063Y-153882D01*
X116565Y-70866D02*
X117549Y-71850D01*
X116565Y-70866D02*
Y-67549D01*
X105118Y-56102D02*
X116565Y-67549D01*
X98819Y-122689D02*
X118551Y-142421D01*
Y-148397D02*
Y-142421D01*
X105760Y-132728D02*
X114961Y-141929D01*
Y-146063D02*
Y-141929D01*
X124707Y-197220D02*
Y-154553D01*
Y-197220D02*
X124836Y-197349D01*
Y-199967D02*
Y-197349D01*
X123772Y-201031D02*
X124836Y-199967D01*
X118551Y-148397D02*
X124707Y-154553D01*
X180384Y-15482D02*
X181102Y-14764D01*
X173327Y-15482D02*
X180384D01*
X178150Y-30512D02*
Y-28726D01*
X179476Y-27400D01*
Y-22188D01*
X178353Y-21065D02*
X179476Y-22188D01*
X178150Y-21065D02*
X178353D01*
X178150D02*
Y-20600D01*
X178031Y-20482D02*
X178150Y-20600D01*
X173327Y-20482D02*
X178031D01*
X154441Y-183952D02*
X154592Y-184103D01*
X148622D02*
X154592D01*
X155001Y-174512D02*
X173914D01*
X163693Y-141055D02*
X171260Y-148622D01*
X168307Y-153622D02*
X170685D01*
X165984Y-161909D02*
X167008D01*
X166972Y-164469D02*
X196598Y-134843D01*
X161319Y-164469D02*
X166972D01*
X167008Y-161909D02*
X198902Y-130015D01*
X136417Y-159350D02*
X144587D01*
X158896Y-158328D02*
Y-157776D01*
X161207Y-160210D02*
Y-154738D01*
X167262Y-159350D02*
X201597Y-125015D01*
X163617Y-159350D02*
X167262D01*
X136417Y-164469D02*
X144587D01*
X136417Y-169587D02*
X144685D01*
X136417Y-172146D02*
X141693D01*
X136417Y-174705D02*
X144394D01*
X136417Y-167028D02*
X141595D01*
X163518Y-159449D02*
X163617Y-159350D01*
X157465Y-163952D02*
X161207Y-160210D01*
X164948Y-167323D02*
Y-167276D01*
X162063Y-172146D02*
X162118Y-172201D01*
X201597Y-125015D02*
X226370D01*
X198902Y-130015D02*
X226370D01*
X196598Y-134843D02*
X226198D01*
X162063Y-113134D02*
X171653Y-103544D01*
Y-89110D01*
X172999Y-104921D02*
X177165D01*
X165406Y-112515D02*
X172999Y-104921D01*
X165406Y-117141D02*
Y-112515D01*
X214094Y-104331D02*
X216791Y-101634D01*
X208661Y-104331D02*
X214094D01*
X208071Y-104921D02*
X208661Y-104331D01*
X163728Y-14156D02*
Y-7025D01*
Y-24606D02*
Y-14156D01*
X172483Y-25482D02*
X173327D01*
X164764Y-33201D02*
X172483Y-25482D01*
X164764Y-34252D02*
Y-33201D01*
X157890Y-53110D02*
Y-50606D01*
X158465Y-51181D01*
X153937Y-46653D02*
X157890Y-50606D01*
X153937Y-46653D02*
Y-42520D01*
X146457Y-63779D02*
X151429Y-68752D01*
X146457Y-63779D02*
Y-28740D01*
X167298Y-172587D02*
X167684Y-172201D01*
X165384Y-172587D02*
X167298D01*
X164998Y-172201D02*
X165384Y-172587D01*
X162118Y-172201D02*
X164998D01*
X166338Y-177165D02*
X177166D01*
X166341Y-170276D02*
X191602Y-145015D01*
X177166Y-177165D02*
X179134Y-175197D01*
X171259Y-63976D02*
X173036Y-65752D01*
Y-87728D02*
Y-65752D01*
X163693Y-123421D02*
X164759D01*
X162063Y-153882D02*
Y-113134D01*
X160433Y-152559D02*
Y-115157D01*
X158272Y-158952D02*
X158896Y-158328D01*
X154441Y-158952D02*
X158272D01*
X154441Y-153952D02*
X159040D01*
X169933Y-132847D02*
Y-117613D01*
Y-132847D02*
X178480Y-141394D01*
X179134D01*
X169933Y-117613D02*
X170406Y-117141D01*
X160433Y-111496D02*
X170024Y-101905D01*
Y-88435D01*
X151882Y-106606D02*
X160433Y-115157D01*
X150252Y-114763D02*
Y-96118D01*
X151882Y-106606D02*
Y-95443D01*
X141529Y-85091D02*
X151882Y-95443D01*
X148622Y-122968D02*
Y-96793D01*
X141494Y-89665D02*
X148622Y-96793D01*
X137402Y-89665D02*
X141494D01*
X146654Y-125984D02*
Y-97130D01*
X141748Y-92224D02*
X146654Y-97130D01*
X137402Y-92224D02*
X141748D01*
X170024Y-88435D02*
X171405Y-87053D01*
X171653Y-89110D02*
X173036Y-87728D01*
X154232Y-15482D02*
X162402D01*
X173914Y-28543D02*
X174212Y-28842D01*
Y-53149D02*
Y-28842D01*
X159449Y-60039D02*
X162402Y-57086D01*
Y-42520D01*
X158504Y-60984D02*
X159449Y-60039D01*
X157890Y-60984D02*
X158504D01*
X162402Y-42520D02*
X164764D01*
X113386Y-81988D02*
Y-78937D01*
X113189Y-78740D02*
X113386Y-78937D01*
X146722Y-17982D02*
X154232D01*
X146457Y-17717D02*
X146722Y-17982D01*
X129921Y-22638D02*
Y-17519D01*
X194882Y-13189D02*
Y-9843D01*
Y-13189D02*
X194882Y-13189D01*
X186024Y-13189D02*
Y-9843D01*
X186024Y-13189D02*
X186024Y-13189D01*
X239183Y-7982D02*
X243110D01*
X239173Y-7972D02*
X239183Y-7982D01*
X201181Y-51181D02*
Y-50827D01*
X216375Y-118110D02*
X218504D01*
X215406Y-117141D02*
X216375Y-118110D01*
X232283Y-92520D02*
X232362D01*
X232756Y-92913D01*
X208071Y-96654D02*
Y-92716D01*
X207874Y-92520D02*
X208071Y-92716D01*
X196850Y-92520D02*
X196850D01*
Y-96654D02*
Y-92520D01*
X177165Y-96654D02*
Y-92520D01*
X238189Y-137653D02*
Y-133858D01*
X137795Y-124015D02*
Y-120291D01*
X137689Y-120185D02*
X137795Y-120291D01*
X137689Y-120185D02*
X138189Y-119685D01*
X69473Y-153952D02*
X70866Y-152559D01*
X62535Y-153952D02*
X69473D01*
X62280Y-158697D02*
X70949D01*
X70866Y-158464D02*
X71024Y-158622D01*
X62205D02*
X62280Y-158697D01*
X70866Y-158464D02*
Y-158464D01*
X98819Y-122689D02*
Y-105787D01*
X62205Y-138622D02*
X68098Y-132728D01*
X105760D01*
X154441Y-173952D02*
X155001Y-174512D01*
X191602Y-145015D02*
X226370D01*
X174871Y-172201D02*
X175552Y-172882D01*
X167684Y-172201D02*
X174871D01*
X159040Y-153952D02*
X160433Y-152559D01*
X154441Y-163952D02*
X157465D01*
X170685Y-153622D02*
X170764Y-153543D01*
X144394Y-174705D02*
X144587Y-174512D01*
X147732Y-176922D02*
Y-172244D01*
X151024Y-168952D01*
X154441D01*
X144831Y-179823D02*
X147732Y-176922D01*
X136417Y-179823D02*
X144831D01*
X175552Y-172882D02*
X209992D01*
X150487Y-158952D02*
X154441D01*
X125000Y-125984D02*
X145768Y-146752D01*
X146996D01*
X66890Y-56102D02*
X105118D01*
X62205Y-60787D02*
X66890Y-56102D01*
X128347Y-104191D02*
X129331Y-105175D01*
X128347Y-104191D02*
Y-84252D01*
X130610Y-81988D01*
X130906Y-97805D02*
X133002Y-99902D01*
X130906Y-97805D02*
Y-95443D01*
X133002Y-99902D02*
X137402D01*
X130610Y-81988D02*
X137402D01*
X117717Y-52362D02*
X123425D01*
X111614D02*
X117717D01*
X117717Y-18898D02*
X123032D01*
X112402D02*
X117717D01*
X117717Y-18898D02*
X117717Y-18898D01*
X117717Y-52362D02*
Y-18898D01*
X112402Y-155002D02*
X112598Y-154805D01*
X112402Y-156791D02*
Y-155002D01*
X138041Y-22982D02*
X154232D01*
X130413Y-30610D02*
X138041Y-22982D01*
X123425Y-30610D02*
X130413D01*
X168396Y-20482D02*
X173327D01*
X98819Y-60787D02*
X103740D01*
X78150Y-128346D02*
Y-124803D01*
X57244D02*
X60827D01*
Y-125000D02*
Y-124803D01*
X57480Y-115748D02*
X60827D01*
X98819Y-138622D02*
X103543D01*
Y-138189D01*
X138189Y-119685D02*
X138189D01*
X111417Y-123228D02*
X111417D01*
Y-119685D01*
X120472Y-123385D02*
Y-119685D01*
X237795Y-51181D02*
Y-51181D01*
X241142D01*
X206890Y-37205D02*
X210236D01*
X177018Y-83071D02*
X180187D01*
X177018D02*
Y-82677D01*
X201181Y-86563D02*
X201181D01*
Y-82087D01*
X213976Y-86221D02*
Y-82087D01*
Y-86221D02*
X214567D01*
X239173D02*
Y-82087D01*
Y-86221D02*
X239764D01*
X226772D02*
Y-82087D01*
Y-86221D02*
X227165D01*
X232756Y-96654D02*
Y-92913D01*
X177165Y-96654D02*
X177165D01*
X245079Y-186516D02*
X249213D01*
Y-186221D01*
X245079Y-177657D02*
X249213D01*
Y-177559D01*
X245079Y-177657D02*
Y-169783D01*
X226370Y-185015D02*
X232283D01*
X154441Y-183952D02*
Y-178952D01*
X164948Y-167323D02*
X166511D01*
X136417Y-177264D02*
X142002D01*
X213976Y-168898D02*
Y-155118D01*
X209992Y-172882D02*
X213976Y-168898D01*
X98819Y-200382D02*
Y-183622D01*
X110974Y-198819D02*
Y-194488D01*
X137549Y-198819D02*
Y-194488D01*
X128691Y-198819D02*
Y-194488D01*
X119685Y-198819D02*
Y-194488D01*
X119567D02*
X119685D01*
X57480Y-201772D02*
X60827D01*
X57087D02*
X57480D01*
X98819Y-179823D02*
X112402D01*
X98819D02*
Y-178622D01*
X57087Y-192913D02*
X60827D01*
X78150Y-209646D02*
Y-206102D01*
X112402Y-10630D02*
Y-7677D01*
X115157Y-4921D01*
X162402Y-15482D02*
X163728Y-14156D01*
X122047Y-202756D02*
X123772Y-201031D01*
X101193Y-202756D02*
X122047D01*
X98819Y-200382D02*
X101193Y-202756D01*
X170764Y-153543D02*
X200922Y-123385D01*
X209575D01*
X210406Y-122554D01*
Y-117141D01*
Y-113728D02*
X216791Y-107343D01*
X210406Y-117141D02*
Y-113728D01*
X149606Y-123952D02*
X154441D01*
X148622Y-122968D02*
X149606Y-123952D01*
X123032Y-10630D02*
X126772Y-6890D01*
X146654D01*
X147746Y-7982D01*
X154232D01*
X161417D01*
X137945Y-85091D02*
X141529D01*
X137402Y-84547D02*
X137945Y-85091D01*
X149779Y-138952D02*
X154441D01*
X143394Y-132567D02*
X149779Y-138952D01*
X143394Y-132567D02*
Y-99102D01*
X141634Y-97343D02*
X143394Y-99102D01*
X137402Y-97343D02*
X141634D01*
X153937Y-25778D02*
X154232Y-25482D01*
X153937Y-34252D02*
Y-25778D01*
X190886Y-104921D02*
X196850D01*
X187598Y-101634D02*
X190886Y-104921D01*
X239173Y-20955D02*
Y-13681D01*
Y-20955D02*
X239567Y-21348D01*
X123425Y-44094D02*
Y-36319D01*
X168883Y-12982D02*
X173327D01*
X168300Y-12400D02*
X168883D01*
X167177Y-11276D02*
X168300Y-12400D01*
X167177Y-11276D02*
Y-4776D01*
X164370Y-1968D02*
X167177Y-4776D01*
X107283Y-1968D02*
X164370D01*
X103346Y-5906D02*
X107283Y-1968D01*
X103346Y-25098D02*
Y-5906D01*
Y-25098D02*
X108858Y-30610D01*
X111614D01*
Y-44094D02*
Y-36319D01*
X59732Y-100787D02*
X62205D01*
X57138Y-103382D02*
X59732Y-100787D01*
X57138Y-110922D02*
Y-103382D01*
X50354Y-117705D02*
X57138Y-110922D01*
X50354Y-120992D02*
Y-117705D01*
X60008Y-95787D02*
X62205D01*
X59278Y-96518D02*
X60008Y-95787D01*
X58150Y-96518D02*
X59278D01*
X54331Y-100337D02*
X58150Y-96518D01*
X54331Y-105225D02*
Y-100337D01*
X50354Y-109201D02*
X54331Y-105225D01*
X50354Y-112488D02*
Y-109201D01*
X57244Y-90787D02*
X62205D01*
X54043Y-93988D02*
X57244Y-90787D01*
X54043Y-97313D02*
Y-93988D01*
X50354Y-101002D02*
X54043Y-97313D01*
X50354Y-103984D02*
Y-101002D01*
X56976Y-85787D02*
X62205D01*
X50354Y-92409D02*
X56976Y-85787D01*
X50354Y-95480D02*
Y-92409D01*
X56543Y-80787D02*
X62205D01*
X50354Y-86976D02*
X56543Y-80787D01*
X53039Y-75787D02*
X62205D01*
X50354Y-78472D02*
X53039Y-75787D01*
X51173Y-70787D02*
X62205D01*
X50354Y-69968D02*
X51173Y-70787D01*
X47488Y-65787D02*
X62205D01*
X41339Y-71937D02*
X47488Y-65787D01*
X41339Y-113134D02*
Y-71937D01*
X33465Y-121008D02*
X41339Y-113134D01*
X112843Y-86563D02*
X113386Y-87106D01*
X109882Y-86563D02*
X112843D01*
X107476Y-84157D02*
X109882Y-86563D01*
X107476Y-84157D02*
Y-73224D01*
X105039Y-70787D02*
X107476Y-73224D01*
X98819Y-70787D02*
X105039D01*
X112843Y-89122D02*
X113386Y-89665D01*
X109882Y-89122D02*
X112843D01*
X105846Y-85086D02*
X109882Y-89122D01*
X105846Y-85086D02*
Y-77500D01*
X104134Y-75787D02*
X105846Y-77500D01*
X98819Y-75787D02*
X104134D01*
X112843Y-91681D02*
X113386Y-92224D01*
X109882Y-91681D02*
X112843D01*
X104217Y-86015D02*
X109882Y-91681D01*
X104217Y-86015D02*
Y-83311D01*
X101693Y-80787D02*
X104217Y-83311D01*
X98819Y-80787D02*
X101693D01*
X109165Y-94783D02*
X113386D01*
X100169Y-85787D02*
X109165Y-94783D01*
X98819Y-85787D02*
X100169D01*
X108760Y-97343D02*
X113386D01*
X102205Y-90787D02*
X108760Y-97343D01*
X98819Y-90787D02*
X102205D01*
X108169Y-99902D02*
X113386D01*
X104055Y-95787D02*
X108169Y-99902D01*
X98819Y-95787D02*
X104055D01*
X109685Y-105020D02*
X113386D01*
X105453Y-100787D02*
X109685Y-105020D01*
X98819Y-100787D02*
X105453D01*
X60854Y-178622D02*
X62205D01*
X50354Y-168122D02*
X60854Y-178622D01*
X50354Y-168122D02*
Y-155008D01*
Y-146504D02*
X54043Y-150193D01*
Y-166811D02*
Y-150193D01*
Y-166811D02*
X60854Y-173622D01*
X62205D01*
X59709Y-168622D02*
X62205D01*
X55673Y-164586D02*
X59709Y-168622D01*
X55673Y-164586D02*
Y-141394D01*
X52280Y-138000D02*
X55673Y-141394D01*
X50354Y-138000D02*
X52280D01*
X71157Y-163622D02*
X74654Y-160126D01*
X62205Y-163622D02*
X71157D01*
X62205Y-153622D02*
X62535Y-153952D01*
X62205Y-148622D02*
X68602D01*
X70571Y-146653D01*
X70866D01*
X62205Y-143622D02*
X67992D01*
X70866Y-140748D01*
X98819Y-143622D02*
X105433D01*
X108169Y-146358D01*
Y-155071D02*
Y-146358D01*
X108122Y-155118D02*
X108169Y-155071D01*
X108122Y-158031D02*
Y-155118D01*
Y-158031D02*
X108898Y-158807D01*
X111858D01*
X112402Y-159350D01*
X108366Y-161909D02*
X112402D01*
X106299Y-159843D02*
X108366Y-161909D01*
X106299Y-159843D02*
Y-151181D01*
X103740Y-148622D02*
X106299Y-151181D01*
X98819Y-148622D02*
X103740D01*
X111858Y-163925D02*
X112402Y-164469D01*
X108077Y-163925D02*
X111858D01*
X104669Y-160518D02*
X108077Y-163925D01*
X104669Y-160518D02*
Y-154276D01*
X104016Y-153622D02*
X104669Y-154276D01*
X98819Y-153622D02*
X104016D01*
X112402Y-167028D02*
Y-166484D01*
X100469Y-158622D02*
X108331Y-166484D01*
X98819Y-158622D02*
X100469D01*
X108535Y-169587D02*
X112402D01*
X102571Y-163622D02*
X108535Y-169587D01*
X98819Y-163622D02*
X102571D01*
X107579Y-172146D02*
X112402D01*
X104055Y-168622D02*
X107579Y-172146D01*
X98819Y-168622D02*
X104055D01*
X105807Y-174705D02*
X112402D01*
X104724Y-173622D02*
X105807Y-174705D01*
X98819Y-173622D02*
X104724D01*
X185689Y-109252D02*
X187598Y-107343D01*
X178150Y-109252D02*
X185689D01*
X175406Y-111996D02*
X178150Y-109252D01*
X175406Y-117141D02*
Y-111996D01*
X232756Y-113629D02*
Y-104921D01*
X226370Y-120015D02*
X232756Y-113629D01*
X147732Y-133952D02*
X154441D01*
X145024Y-131244D02*
X147732Y-133952D01*
X145024Y-131244D02*
Y-97805D01*
X142002Y-94783D02*
X145024Y-97805D01*
X137402Y-94783D02*
X142002D01*
X149621Y-128952D02*
X154441D01*
X146654Y-125984D02*
X149621Y-128952D01*
X134843Y-107579D02*
X137402Y-105020D01*
X134843Y-108268D02*
Y-107579D01*
X150680Y-173952D02*
X154441D01*
X232761Y-175015D02*
X237992Y-169783D01*
X226370Y-175015D02*
X232761D01*
X237402Y-169193D02*
X237992Y-169783D01*
X237402Y-169193D02*
Y-161909D01*
X136417D02*
X142224D01*
X226198Y-134843D02*
X226370Y-135015D01*
X193819Y-140015D02*
X226370D01*
X166511Y-167323D02*
X193819Y-140015D01*
X225307Y-143952D02*
X226370Y-145015D01*
X219080Y-150015D02*
X226370D01*
X213976Y-155118D02*
X219080Y-150015D01*
X136417Y-174705D02*
X136909Y-175197D01*
X136417Y-179823D02*
X136713Y-180118D01*
X130905Y-125984D02*
X148873Y-143952D01*
X154441D01*
X150252Y-114763D02*
X154441Y-118952D01*
X141240Y-87106D02*
X150252Y-96118D01*
X137402Y-87106D02*
X141240D01*
X132045Y-102461D02*
X137402D01*
X131890Y-102616D02*
X132045Y-102461D01*
X115157Y-4921D02*
X161625D01*
X163728Y-7025D01*
X112843Y-84004D02*
X113386Y-84547D01*
X109882Y-84004D02*
X112843D01*
X109106Y-83228D02*
X109882Y-84004D01*
X109106Y-83228D02*
Y-67768D01*
X107126Y-65787D02*
X109106Y-67768D01*
X98819Y-65787D02*
X107126D01*
X182303Y-66713D02*
Y-61028D01*
X179331Y-69685D02*
X182303Y-66713D01*
X179331Y-71850D02*
Y-69685D01*
X168883Y-12982D02*
Y-12400D01*
X108331Y-166484D02*
X112402D01*
D18*
X98819Y-105787D02*
D03*
Y-183622D02*
D03*
D19*
Y-100787D02*
D03*
Y-95787D02*
D03*
Y-90787D02*
D03*
Y-85787D02*
D03*
Y-80787D02*
D03*
Y-75787D02*
D03*
Y-70787D02*
D03*
Y-65787D02*
D03*
Y-60787D02*
D03*
X62205Y-105787D02*
D03*
Y-100787D02*
D03*
Y-95787D02*
D03*
Y-90787D02*
D03*
Y-85787D02*
D03*
Y-80787D02*
D03*
Y-75787D02*
D03*
Y-70787D02*
D03*
Y-65787D02*
D03*
Y-60787D02*
D03*
X98819Y-178622D02*
D03*
Y-173622D02*
D03*
Y-168622D02*
D03*
Y-163622D02*
D03*
Y-158622D02*
D03*
Y-153622D02*
D03*
Y-148622D02*
D03*
Y-143622D02*
D03*
Y-138622D02*
D03*
X62205Y-183622D02*
D03*
Y-178622D02*
D03*
Y-173622D02*
D03*
Y-168622D02*
D03*
Y-163622D02*
D03*
Y-158622D02*
D03*
Y-153622D02*
D03*
Y-148622D02*
D03*
Y-143622D02*
D03*
Y-138622D02*
D03*
D20*
X67913Y-192913D02*
D03*
X60827D02*
D03*
X67913Y-201772D02*
D03*
X60827D02*
D03*
X237992Y-177657D02*
D03*
X245079D02*
D03*
X237992Y-169783D02*
D03*
X245079D02*
D03*
X237992Y-186516D02*
D03*
X245079D02*
D03*
X67913Y-125000D02*
D03*
X60827D02*
D03*
X67913Y-115748D02*
D03*
X60827D02*
D03*
D21*
X78150Y-193504D02*
D03*
Y-206102D02*
D03*
X239173Y-69488D02*
D03*
Y-82087D02*
D03*
X226772Y-69488D02*
D03*
Y-82087D02*
D03*
X213976Y-69488D02*
D03*
Y-82087D02*
D03*
X201181Y-69488D02*
D03*
Y-82087D02*
D03*
X78150Y-115748D02*
D03*
Y-128346D02*
D03*
X238189Y-150251D02*
D03*
Y-137653D02*
D03*
D22*
X173327Y-25482D02*
D03*
Y-22982D02*
D03*
Y-20482D02*
D03*
Y-17982D02*
D03*
Y-15482D02*
D03*
Y-12982D02*
D03*
Y-10482D02*
D03*
Y-7982D02*
D03*
X154232Y-25482D02*
D03*
Y-22982D02*
D03*
Y-20482D02*
D03*
Y-17982D02*
D03*
Y-15482D02*
D03*
Y-12982D02*
D03*
Y-10482D02*
D03*
Y-7982D02*
D03*
D23*
X141142Y-11220D02*
D03*
Y-18307D02*
D03*
X132283Y-11220D02*
D03*
Y-18307D02*
D03*
X194882Y-20276D02*
D03*
Y-13189D02*
D03*
X186024Y-20276D02*
D03*
Y-13189D02*
D03*
X129331Y-112598D02*
D03*
Y-119685D02*
D03*
X138189Y-112598D02*
D03*
Y-119685D02*
D03*
X120472Y-112598D02*
D03*
Y-119685D02*
D03*
X111417Y-112598D02*
D03*
Y-119685D02*
D03*
X110974Y-194488D02*
D03*
Y-187402D02*
D03*
X119567Y-194488D02*
D03*
Y-187402D02*
D03*
X137549Y-194488D02*
D03*
Y-187402D02*
D03*
X128691Y-194488D02*
D03*
Y-187402D02*
D03*
D24*
X123032Y-18898D02*
D03*
Y-10630D02*
D03*
X112402Y-18898D02*
D03*
Y-10630D02*
D03*
X123425Y-52362D02*
D03*
Y-44094D02*
D03*
X111614Y-52362D02*
D03*
Y-44094D02*
D03*
X239567Y-29616D02*
D03*
Y-21348D02*
D03*
X164764Y-34252D02*
D03*
Y-42520D02*
D03*
X153937Y-34252D02*
D03*
Y-42520D02*
D03*
X177165Y-104921D02*
D03*
Y-96654D02*
D03*
X196850Y-104921D02*
D03*
Y-96654D02*
D03*
X208071Y-104921D02*
D03*
Y-96654D02*
D03*
X232756Y-104921D02*
D03*
Y-96654D02*
D03*
D25*
X123425Y-30610D02*
D03*
Y-36319D02*
D03*
X111614Y-30610D02*
D03*
Y-36319D02*
D03*
X239173Y-7972D02*
D03*
Y-13681D02*
D03*
X187598Y-101634D02*
D03*
Y-107343D02*
D03*
X216791Y-101634D02*
D03*
Y-107343D02*
D03*
D26*
X116339Y-72210D02*
D03*
X124606D02*
D03*
X187598Y-71850D02*
D03*
X179331D02*
D03*
X245276Y-160433D02*
D03*
X237008D02*
D03*
X114961Y-146063D02*
D03*
X123228D02*
D03*
D27*
X217913Y-51181D02*
D03*
X205315D02*
D03*
X228543D02*
D03*
X241142D02*
D03*
D28*
X240177Y-39370D02*
D03*
X234232D02*
D03*
X176358Y-61028D02*
D03*
X182303D02*
D03*
D29*
X206890Y-37205D02*
D03*
X215945D02*
D03*
X225000D02*
D03*
D30*
X215945Y-10039D02*
D03*
D31*
X189911Y-82677D02*
D03*
X177018D02*
D03*
D32*
X196850Y-161909D02*
D03*
D33*
X215406Y-117141D02*
D03*
X165406D02*
D03*
X170406D02*
D03*
X175406D02*
D03*
X180406D02*
D03*
X185406D02*
D03*
X190406D02*
D03*
X195406D02*
D03*
X200406D02*
D03*
X205406D02*
D03*
X210406D02*
D03*
D34*
X154441Y-118952D02*
D03*
X226370Y-120015D02*
D03*
X154441Y-183952D02*
D03*
Y-178952D02*
D03*
Y-173952D02*
D03*
Y-168952D02*
D03*
Y-163952D02*
D03*
Y-158952D02*
D03*
Y-153952D02*
D03*
Y-148952D02*
D03*
Y-143952D02*
D03*
Y-138952D02*
D03*
Y-133952D02*
D03*
Y-128952D02*
D03*
Y-123952D02*
D03*
X226370Y-125015D02*
D03*
Y-130015D02*
D03*
Y-135015D02*
D03*
Y-140015D02*
D03*
Y-145015D02*
D03*
Y-150015D02*
D03*
Y-155015D02*
D03*
Y-160015D02*
D03*
Y-165015D02*
D03*
Y-170015D02*
D03*
Y-175015D02*
D03*
Y-180015D02*
D03*
Y-185015D02*
D03*
D35*
X113386Y-81988D02*
D03*
Y-84547D02*
D03*
Y-87106D02*
D03*
Y-89665D02*
D03*
Y-92224D02*
D03*
Y-94783D02*
D03*
Y-97343D02*
D03*
Y-99902D02*
D03*
Y-102461D02*
D03*
Y-105020D02*
D03*
X137402Y-81988D02*
D03*
Y-84547D02*
D03*
Y-87106D02*
D03*
Y-89665D02*
D03*
Y-92224D02*
D03*
Y-94783D02*
D03*
Y-97343D02*
D03*
Y-99902D02*
D03*
Y-102461D02*
D03*
Y-105020D02*
D03*
X136417Y-179823D02*
D03*
Y-177264D02*
D03*
Y-174705D02*
D03*
Y-172146D02*
D03*
Y-169587D02*
D03*
Y-167028D02*
D03*
Y-164469D02*
D03*
Y-161909D02*
D03*
Y-159350D02*
D03*
Y-156791D02*
D03*
X112402Y-179823D02*
D03*
Y-177264D02*
D03*
Y-174705D02*
D03*
Y-172146D02*
D03*
Y-169587D02*
D03*
Y-167028D02*
D03*
Y-164469D02*
D03*
Y-161909D02*
D03*
Y-159350D02*
D03*
Y-156791D02*
D03*
D62*
X180187Y-17982D02*
X182480Y-20276D01*
X173327Y-17982D02*
X180187D01*
D63*
X178150Y-30512D02*
X213494D01*
X215945Y-32963D01*
Y-37205D02*
Y-32963D01*
Y-46693D02*
Y-37205D01*
X199803Y-68110D02*
X201181Y-69488D01*
X199803Y-68110D02*
Y-64961D01*
X187598Y-71850D02*
X189961Y-69488D01*
X201181D01*
X226772Y-52953D02*
X228543Y-51181D01*
X226772Y-69488D02*
Y-52953D01*
X239567Y-29616D02*
X247047Y-37096D01*
Y-61614D02*
Y-37096D01*
X239173Y-69488D02*
X247047Y-61614D01*
X239173Y-69488D02*
X239173D01*
X236309Y-29616D02*
X239567D01*
X226969Y-20276D02*
X236309Y-29616D01*
X194882Y-20276D02*
X226969D01*
X167732Y-59055D02*
X168307D01*
X174395D01*
X176358Y-61028D01*
X77165Y-192520D02*
X77559Y-192913D01*
X77165Y-192520D02*
Y-185827D01*
X78150Y-115748D02*
X86221D01*
X86811Y-115157D01*
X110974Y-187402D02*
X110974Y-187402D01*
X104724Y-187402D02*
X110974D01*
X228543Y-51181D02*
X234842Y-44882D01*
X237368D01*
X237408Y-44842D01*
X237835D01*
X240177Y-42500D01*
Y-39370D01*
X227165D02*
X234232D01*
X225000Y-37205D02*
X227165Y-39370D01*
X111417Y-112598D02*
X120472D01*
X62205Y-105787D02*
X67913Y-111496D01*
Y-115748D02*
Y-111496D01*
Y-115748D02*
X78150D01*
X67913Y-125000D02*
Y-115748D01*
X62205Y-183622D02*
X67913Y-189331D01*
Y-192913D02*
Y-189331D01*
Y-192913D02*
X77559D01*
X67913Y-201772D02*
Y-192913D01*
X118110Y-177657D02*
X119567Y-179114D01*
Y-187402D02*
Y-179114D01*
X110974Y-187402D02*
X119567D01*
X226772Y-69488D02*
X239173D01*
X213976D02*
X226772D01*
X201181D02*
X213976D01*
X182480Y-20276D02*
X186024D01*
X194882D01*
X215945Y-46693D02*
X218307Y-49055D01*
X189911Y-82677D02*
Y-74163D01*
X187598Y-71850D02*
X189911Y-74163D01*
D64*
X217913Y-56496D02*
Y-51181D01*
Y-56693D02*
Y-56496D01*
X237992Y-182087D02*
Y-177657D01*
Y-186516D02*
Y-182087D01*
X132874Y-187402D02*
X137549D01*
X128691D02*
X132874D01*
X132283Y-11220D02*
X141142D01*
X235728Y-177657D02*
X237992D01*
X233371Y-180015D02*
X235728Y-177657D01*
X226370Y-180015D02*
X233371D01*
X129331Y-105175D02*
X131890Y-102616D01*
X129331Y-112598D02*
Y-105175D01*
Y-112598D02*
X138189D01*
X145474Y-11220D02*
X146654Y-12400D01*
X141142Y-11220D02*
X145474D01*
D65*
X41854Y-200349D02*
D03*
Y-16097D02*
D03*
D66*
X33465Y-61475D02*
D03*
Y-69936D02*
D03*
Y-78439D02*
D03*
Y-86975D02*
D03*
Y-95475D02*
D03*
Y-103975D02*
D03*
Y-112475D02*
D03*
Y-120975D02*
D03*
Y-129475D02*
D03*
Y-137975D02*
D03*
Y-146475D02*
D03*
Y-154975D02*
D03*
X50354Y-61432D02*
D03*
Y-69936D02*
D03*
Y-78439D02*
D03*
Y-86944D02*
D03*
Y-95447D02*
D03*
Y-103951D02*
D03*
Y-112455D02*
D03*
Y-120959D02*
D03*
Y-129463D02*
D03*
Y-137967D02*
D03*
Y-146471D02*
D03*
D67*
Y-154975D02*
D03*
D68*
X168307Y-59055D02*
D03*
D69*
X158465D02*
D03*
Y-51181D02*
D03*
X168307D02*
D03*
D70*
X139685Y-40512D02*
D03*
X187087D02*
D03*
D71*
X158465Y-81693D02*
D03*
D72*
X121063Y-77756D02*
D03*
X181102Y-14764D02*
D03*
X148622Y-184103D02*
D03*
X199803Y-64961D02*
D03*
X113189Y-78740D02*
D03*
X146457Y-17717D02*
D03*
X136719Y-15637D02*
D03*
X129921Y-22638D02*
D03*
X194882Y-9843D02*
D03*
X186024D02*
D03*
X243110Y-7982D02*
D03*
X201181Y-51181D02*
D03*
X218504Y-118110D02*
D03*
X232283Y-92520D02*
D03*
X207874D02*
D03*
X196850D02*
D03*
X177165D02*
D03*
X238189Y-133858D02*
D03*
X124902Y-116962D02*
D03*
X137795Y-124015D02*
D03*
X106299Y-125787D02*
D03*
X83661Y-135827D02*
D03*
X91535Y-187402D02*
D03*
X77165Y-185827D02*
D03*
X112598Y-154805D02*
D03*
X207874Y-9843D02*
D03*
X146654Y-12400D02*
D03*
X86811Y-115157D02*
D03*
X104724Y-187402D02*
D03*
X103740Y-60787D02*
D03*
X78150Y-124803D02*
D03*
X57244D02*
D03*
X57480Y-115748D02*
D03*
X103543Y-138189D02*
D03*
X111417Y-123228D02*
D03*
X120472Y-123385D02*
D03*
X237795Y-51181D02*
D03*
X210236Y-37205D02*
D03*
X180187Y-83071D02*
D03*
X201181Y-86563D02*
D03*
X214567Y-86221D02*
D03*
X239764D02*
D03*
X227165D02*
D03*
X249213Y-186221D02*
D03*
Y-177559D02*
D03*
X232283Y-185015D02*
D03*
X110974Y-198819D02*
D03*
X137549D02*
D03*
X128691D02*
D03*
X119685D02*
D03*
X57480Y-201772D02*
D03*
X57087Y-192913D02*
D03*
X78150Y-209646D02*
D03*
D73*
X142224Y-30512D02*
D03*
X178150D02*
D03*
X220472Y-74803D02*
D03*
X217913Y-56496D02*
D03*
X241142Y-155512D02*
D03*
X237992Y-182087D02*
D03*
X163228Y-182913D02*
D03*
X173914Y-174512D02*
D03*
X171260Y-148622D02*
D03*
X168307Y-153622D02*
D03*
X132874Y-187402D02*
D03*
X123772Y-153543D02*
D03*
X165984Y-161909D02*
D03*
X144587Y-159350D02*
D03*
X158896Y-157776D02*
D03*
X161319Y-164469D02*
D03*
X144587D02*
D03*
X144685Y-169587D02*
D03*
X141693Y-172146D02*
D03*
X141595Y-167028D02*
D03*
X163518Y-159449D02*
D03*
X164948Y-167276D02*
D03*
X162063Y-172146D02*
D03*
X163728Y-24606D02*
D03*
X166338Y-177165D02*
D03*
X166341Y-170276D02*
D03*
X179134Y-175197D02*
D03*
X171259Y-63976D02*
D03*
X164759Y-123421D02*
D03*
X160433Y-111496D02*
D03*
X173914Y-28543D02*
D03*
X174212Y-53149D02*
D03*
X70866Y-158464D02*
D03*
X179134Y-141394D02*
D03*
X144587Y-174512D02*
D03*
X146996Y-146752D02*
D03*
X130906Y-95443D02*
D03*
X146457Y-28740D02*
D03*
X142002Y-177264D02*
D03*
X161417Y-7982D02*
D03*
X74654Y-160126D02*
D03*
X70866Y-152559D02*
D03*
Y-146653D02*
D03*
Y-140748D02*
D03*
X134843Y-108268D02*
D03*
X125000Y-125984D02*
D03*
X142224Y-161909D02*
D03*
X130905Y-125984D02*
D03*
M02*
