M48
;Layer_Color=9474304
;FILE_FORMAT=2:5
INCH,LZ
;TYPE=PLATED
T1F00S00C0.01181
T2F00S00C0.01968
T3F00S00C0.03700
T4F00S00C0.03937
T5F00S00C0.09449
T6F00S00C0.12600
T7F00S00C0.12992
%
T01
X0070866Y-0158464
X0074654Y-0160126
X0070866Y-0152559
Y-0146653
Y-0140748
X0123772Y-0153543
X0144587Y-015935
X0142224Y-0161909
X0144587Y-0164469
X0144685Y-0169587
X0144587Y-0174512
X0141693Y-0172146
X0141595Y-0167028
X0142002Y-0177264
X0132874Y-0187402
X0163228Y-0182913
X0166338Y-0177165
X0166341Y-0170276
X0164948Y-0167276
X0165984Y-0161909
X0163518Y-0159449
X0158896Y-0157776
X0161319Y-0164469
X0162063Y-0172146
X0173914Y-0174512
X0179134Y-0175197
X0168307Y-0153622
X017126Y-0148622
X0179134Y-0141394
X0164759Y-0123421
X0160433Y-0111496
X0134843Y-0108268
X0130906Y-0095443
X0130905Y-0125984
X0125
X0146996Y-0146752
X0171259Y-0063976
X0174212Y-0053149
X0217913Y-0056496
X0220472Y-0074803
X0241142Y-0155512
X0237992Y-0182087
X017815Y-0030512
X0173914Y-0028543
X0163728Y-0024606
X0161417Y-0007982
X0146457Y-002874
X0142224Y-0030512
T02
X005748Y-0201772
X0057087Y-0192913
X007815Y-0209646
X0110974Y-0198819
X0119685
X0128691
X0137549
X0148622Y-0184103
X0104724Y-0187402
X0091535
X0077165Y-0185827
X0083661Y-0135827
X007815Y-0124803
X0086811Y-0115157
X005748Y-0115748
X0057244Y-0124803
X0106299Y-0125787
X0111417Y-0123228
X0120472Y-0123385
X0124902Y-0116962
X0137795Y-0124015
X0103543Y-0138189
X0112598Y-0154805
X0113189Y-007874
X0121063Y-0077756
X010374Y-0060787
X0180187Y-0083071
X0177165Y-009252
X019685
X0201181Y-0086563
X0207874Y-009252
X0199803Y-0064961
X0201181Y-0051181
X0210236Y-0037205
X0237795Y-0051181
X0239764Y-0086221
X0227165
X0232283Y-009252
X0214567Y-0086221
X0218504Y-011811
X0238189Y-0133858
X0249213Y-0177559
Y-0186221
X0232283Y-0185015
X024311Y-0007982
X0207874Y-0009843
X0194882
X0186024
X0181102Y-0014764
X0146654Y-00124
X0146457Y-0017717
X0136719Y-0015637
X0129921Y-0022638
T03
X0033465Y-0154975
Y-0146475
Y-0137975
Y-0129475
Y-0120975
Y-0112475
Y-0103975
Y-0095475
Y-0086975
Y-0078439
Y-0069936
Y-0061475
X0050354Y-0061432
Y-0069936
Y-0078439
Y-0086944
Y-0095447
Y-0103951
Y-0112455
Y-0120959
Y-0129463
Y-0137967
Y-0146471
Y-0154975
T04
X0158465Y-0059055
Y-0051181
X0168307
Y-0059055
T05
X0139685Y-0040512
X0187087
T06
X0041854Y-0200349
Y-0016097
T07
X0158465Y-0081693
M30
