G04*
G04 #@! TF.GenerationSoftware,Altium Limited,Altium Designer,18.1.7 (191)*
G04*
G04 Layer_Color=65535*
%FSLAX25Y25*%
%MOIN*%
G70*
G01*
G75*
%ADD10C,0.01968*%
%ADD11C,0.00984*%
%ADD12C,0.02362*%
%ADD13C,0.00787*%
%ADD14C,0.01575*%
%ADD15C,0.01000*%
%ADD16C,0.00700*%
%ADD17R,0.02362X0.06299*%
G36*
X209464Y-205808D02*
X209031D01*
X207791Y-202781D01*
X208247D01*
X208598Y-203696D01*
X209871D01*
X210199Y-202781D01*
X210622D01*
X209464Y-205808D01*
D02*
G37*
G36*
X192080D02*
X191647D01*
X190407Y-202781D01*
X190863D01*
X191214Y-203696D01*
X192487D01*
X192815Y-202781D01*
X193238D01*
X192080Y-205808D01*
D02*
G37*
G36*
X188931D02*
X188531D01*
Y-204309D01*
X187029Y-205808D01*
X186485D01*
X187754Y-204581D01*
X186429Y-202781D01*
X186960D01*
X188036Y-204309D01*
X188531Y-203830D01*
Y-202781D01*
X188931D01*
Y-205808D01*
D02*
G37*
G36*
X207476D02*
X207066D01*
X205476Y-203430D01*
Y-205808D01*
X205092D01*
Y-202781D01*
X205505D01*
X207093Y-205155D01*
Y-202781D01*
X207476D01*
Y-205808D01*
D02*
G37*
G36*
X199021D02*
X198611D01*
X197020Y-203430D01*
Y-205808D01*
X196636D01*
Y-202781D01*
X197049D01*
X198637Y-205155D01*
Y-202781D01*
X199021D01*
Y-205808D01*
D02*
G37*
G36*
X195967D02*
X195557D01*
X193966Y-203430D01*
Y-205808D01*
X193582D01*
Y-202781D01*
X193996D01*
X195583Y-205155D01*
Y-202781D01*
X195967D01*
Y-205808D01*
D02*
G37*
G36*
X203649Y-205451D02*
X204646D01*
Y-205808D01*
X202252D01*
Y-205451D01*
X203249D01*
Y-202781D01*
X203649D01*
Y-205451D01*
D02*
G37*
G36*
X201828Y-205808D02*
X199637D01*
Y-205451D01*
X201428D01*
Y-204526D01*
X199752D01*
Y-204168D01*
X201428D01*
Y-203138D01*
X199568D01*
Y-202781D01*
X201828D01*
Y-205808D01*
D02*
G37*
G36*
X186084D02*
X183893D01*
Y-205451D01*
X185684D01*
Y-204526D01*
X184008D01*
Y-204168D01*
X185684D01*
Y-203138D01*
X183825D01*
Y-202781D01*
X186084D01*
Y-205808D01*
D02*
G37*
G36*
X183264D02*
X181072D01*
Y-205451D01*
X182863D01*
Y-204526D01*
X181187D01*
Y-204168D01*
X182863D01*
Y-203138D01*
X181004D01*
Y-202781D01*
X183264D01*
Y-205808D01*
D02*
G37*
G36*
X180453D02*
X179206D01*
X179141Y-205805D01*
X179065Y-205802D01*
X178990Y-205795D01*
X178918Y-205788D01*
X178882Y-205785D01*
X178852Y-205779D01*
X178849D01*
X178842Y-205775D01*
X178829D01*
X178816Y-205772D01*
X178796Y-205766D01*
X178773Y-205762D01*
X178721Y-205746D01*
X178662Y-205726D01*
X178599Y-205700D01*
X178537Y-205670D01*
X178478Y-205634D01*
X178475D01*
X178472Y-205631D01*
X178452Y-205615D01*
X178426Y-205592D01*
X178390Y-205559D01*
X178353Y-205520D01*
X178311Y-205467D01*
X178271Y-205411D01*
X178235Y-205342D01*
Y-205339D01*
X178232Y-205332D01*
X178226Y-205323D01*
X178219Y-205310D01*
X178212Y-205293D01*
X178206Y-205270D01*
X178186Y-205221D01*
X178170Y-205159D01*
X178153Y-205090D01*
X178144Y-205011D01*
X178140Y-204929D01*
Y-204926D01*
Y-204913D01*
Y-204893D01*
X178144Y-204864D01*
X178147Y-204831D01*
X178153Y-204795D01*
X178160Y-204752D01*
X178170Y-204703D01*
X178183Y-204654D01*
X178199Y-204601D01*
X178219Y-204549D01*
X178245Y-204493D01*
X178271Y-204437D01*
X178304Y-204381D01*
X178344Y-204329D01*
X178386Y-204276D01*
X178390Y-204273D01*
X178399Y-204267D01*
X178412Y-204253D01*
X178435Y-204234D01*
X178462Y-204214D01*
X178498Y-204191D01*
X178540Y-204168D01*
X178590Y-204145D01*
X178649Y-204119D01*
X178711Y-204096D01*
X178786Y-204073D01*
X178865Y-204053D01*
X178957Y-204037D01*
X179055Y-204024D01*
X179160Y-204014D01*
X179278Y-204011D01*
X180052D01*
Y-202781D01*
X180453D01*
Y-205808D01*
D02*
G37*
G36*
X172036Y-202735D02*
X172072D01*
X172112Y-202738D01*
X172161Y-202745D01*
X172210Y-202751D01*
X172321Y-202768D01*
X172440Y-202794D01*
X172554Y-202830D01*
X172610Y-202850D01*
X172663Y-202876D01*
X172666Y-202879D01*
X172676Y-202882D01*
X172689Y-202892D01*
X172705Y-202902D01*
X172728Y-202919D01*
X172754Y-202938D01*
X172781Y-202958D01*
X172810Y-202984D01*
X172876Y-203043D01*
X172938Y-203115D01*
X172997Y-203201D01*
X173023Y-203250D01*
X173046Y-203299D01*
Y-203302D01*
X173050Y-203312D01*
X173056Y-203328D01*
X173063Y-203351D01*
X173073Y-203378D01*
X173082Y-203414D01*
X173092Y-203453D01*
X173102Y-203499D01*
X173115Y-203552D01*
X173125Y-203607D01*
X173135Y-203670D01*
X173142Y-203738D01*
X173151Y-203811D01*
X173155Y-203889D01*
X173161Y-203971D01*
Y-204060D01*
Y-205808D01*
X172761D01*
Y-204060D01*
Y-204057D01*
Y-204044D01*
Y-204024D01*
Y-203994D01*
X172758Y-203961D01*
Y-203925D01*
X172754Y-203883D01*
X172751Y-203840D01*
X172745Y-203745D01*
X172731Y-203650D01*
X172712Y-203558D01*
X172702Y-203515D01*
X172689Y-203479D01*
Y-203476D01*
X172686Y-203473D01*
X172682Y-203463D01*
X172676Y-203450D01*
X172656Y-203414D01*
X172630Y-203374D01*
X172597Y-203325D01*
X172554Y-203279D01*
X172502Y-203233D01*
X172440Y-203191D01*
X172436D01*
X172430Y-203187D01*
X172420Y-203181D01*
X172407Y-203174D01*
X172390Y-203168D01*
X172367Y-203161D01*
X172345Y-203151D01*
X172318Y-203141D01*
X172253Y-203125D01*
X172177Y-203109D01*
X172092Y-203096D01*
X172000Y-203092D01*
X171957D01*
X171928Y-203096D01*
X171892Y-203099D01*
X171849Y-203102D01*
X171803Y-203109D01*
X171754Y-203118D01*
X171652Y-203141D01*
X171600Y-203158D01*
X171547Y-203178D01*
X171498Y-203201D01*
X171452Y-203227D01*
X171410Y-203256D01*
X171370Y-203292D01*
X171367Y-203296D01*
X171360Y-203302D01*
X171354Y-203315D01*
X171341Y-203332D01*
X171328Y-203355D01*
X171311Y-203384D01*
X171292Y-203420D01*
X171275Y-203463D01*
X171259Y-203512D01*
X171239Y-203568D01*
X171223Y-203630D01*
X171210Y-203699D01*
X171196Y-203778D01*
X171187Y-203863D01*
X171183Y-203958D01*
X171180Y-204060D01*
Y-205808D01*
X170780D01*
Y-204060D01*
Y-204053D01*
Y-204040D01*
Y-204017D01*
Y-203984D01*
X170783Y-203945D01*
X170786Y-203903D01*
X170790Y-203853D01*
X170793Y-203798D01*
X170806Y-203683D01*
X170823Y-203561D01*
X170849Y-203443D01*
X170865Y-203387D01*
X170885Y-203335D01*
Y-203332D01*
X170888Y-203322D01*
X170895Y-203309D01*
X170905Y-203289D01*
X170918Y-203266D01*
X170931Y-203240D01*
X170970Y-203181D01*
X170993Y-203145D01*
X171019Y-203112D01*
X171052Y-203073D01*
X171085Y-203036D01*
X171124Y-203000D01*
X171164Y-202964D01*
X171210Y-202932D01*
X171259Y-202899D01*
X171262Y-202895D01*
X171272Y-202892D01*
X171285Y-202882D01*
X171308Y-202872D01*
X171334Y-202859D01*
X171367Y-202846D01*
X171403Y-202830D01*
X171449Y-202817D01*
X171495Y-202800D01*
X171547Y-202784D01*
X171606Y-202771D01*
X171669Y-202758D01*
X171738Y-202748D01*
X171810Y-202738D01*
X171885Y-202735D01*
X171964Y-202731D01*
X172007D01*
X172036Y-202735D01*
D02*
G37*
G36*
X169343Y-205451D02*
X170340D01*
Y-205808D01*
X167946D01*
Y-205451D01*
X168943D01*
Y-202781D01*
X169343D01*
Y-205451D01*
D02*
G37*
G36*
X175205Y-202735D02*
X175241Y-202738D01*
X175287Y-202741D01*
X175332Y-202748D01*
X175388Y-202758D01*
X175444Y-202768D01*
X175506Y-202781D01*
X175569Y-202797D01*
X175634Y-202817D01*
X175700Y-202840D01*
X175766Y-202869D01*
X175831Y-202899D01*
X175897Y-202935D01*
X175900Y-202938D01*
X175910Y-202945D01*
X175929Y-202958D01*
X175952Y-202974D01*
X175979Y-202994D01*
X176012Y-203020D01*
X176048Y-203050D01*
X176087Y-203082D01*
X176130Y-203122D01*
X176169Y-203165D01*
X176212Y-203210D01*
X176254Y-203260D01*
X176297Y-203315D01*
X176336Y-203371D01*
X176372Y-203433D01*
X176408Y-203499D01*
X176412Y-203502D01*
X176415Y-203515D01*
X176425Y-203535D01*
X176435Y-203561D01*
X176448Y-203594D01*
X176461Y-203633D01*
X176477Y-203676D01*
X176494Y-203729D01*
X176510Y-203781D01*
X176526Y-203840D01*
X176540Y-203903D01*
X176553Y-203968D01*
X176572Y-204106D01*
X176576Y-204181D01*
X176579Y-204253D01*
Y-204257D01*
Y-204263D01*
Y-204273D01*
Y-204286D01*
X176576Y-204306D01*
Y-204326D01*
X176572Y-204378D01*
X176566Y-204440D01*
X176556Y-204516D01*
X176546Y-204594D01*
X176530Y-204683D01*
X176507Y-204778D01*
X176480Y-204873D01*
X176448Y-204972D01*
X176408Y-205070D01*
X176362Y-205169D01*
X176310Y-205260D01*
X176248Y-205352D01*
X176175Y-205434D01*
X176172Y-205437D01*
X176156Y-205454D01*
X176133Y-205474D01*
X176103Y-205500D01*
X176061Y-205533D01*
X176015Y-205569D01*
X175959Y-205608D01*
X175893Y-205647D01*
X175821Y-205687D01*
X175742Y-205726D01*
X175657Y-205762D01*
X175562Y-205795D01*
X175464Y-205821D01*
X175359Y-205841D01*
X175247Y-205857D01*
X175129Y-205861D01*
X175090D01*
X175060Y-205857D01*
X175021Y-205854D01*
X174978Y-205851D01*
X174932Y-205844D01*
X174880Y-205834D01*
X174821Y-205824D01*
X174762Y-205811D01*
X174699Y-205795D01*
X174634Y-205775D01*
X174568Y-205752D01*
X174503Y-205726D01*
X174440Y-205697D01*
X174375Y-205661D01*
X174372Y-205657D01*
X174358Y-205651D01*
X174342Y-205641D01*
X174319Y-205625D01*
X174290Y-205605D01*
X174260Y-205578D01*
X174224Y-205549D01*
X174185Y-205516D01*
X174142Y-205477D01*
X174099Y-205434D01*
X174057Y-205388D01*
X174014Y-205339D01*
X173975Y-205287D01*
X173932Y-205228D01*
X173896Y-205165D01*
X173860Y-205100D01*
X173856Y-205096D01*
X173853Y-205083D01*
X173843Y-205064D01*
X173834Y-205037D01*
X173817Y-205005D01*
X173804Y-204962D01*
X173788Y-204916D01*
X173771Y-204864D01*
X173755Y-204808D01*
X173738Y-204745D01*
X173722Y-204677D01*
X173709Y-204608D01*
X173699Y-204532D01*
X173689Y-204453D01*
X173686Y-204375D01*
X173683Y-204290D01*
Y-204283D01*
Y-204270D01*
Y-204244D01*
X173686Y-204211D01*
X173689Y-204171D01*
X173693Y-204125D01*
X173699Y-204073D01*
X173706Y-204014D01*
X173715Y-203952D01*
X173729Y-203886D01*
X173742Y-203817D01*
X173761Y-203748D01*
X173784Y-203676D01*
X173807Y-203607D01*
X173837Y-203535D01*
X173870Y-203466D01*
X173873Y-203463D01*
X173880Y-203450D01*
X173889Y-203430D01*
X173902Y-203407D01*
X173922Y-203378D01*
X173945Y-203342D01*
X173975Y-203302D01*
X174004Y-203260D01*
X174040Y-203217D01*
X174080Y-203171D01*
X174126Y-203125D01*
X174171Y-203079D01*
X174221Y-203036D01*
X174276Y-202994D01*
X174335Y-202951D01*
X174398Y-202915D01*
X174401Y-202912D01*
X174414Y-202909D01*
X174431Y-202899D01*
X174457Y-202886D01*
X174490Y-202872D01*
X174526Y-202856D01*
X174568Y-202840D01*
X174618Y-202823D01*
X174670Y-202807D01*
X174726Y-202790D01*
X174788Y-202774D01*
X174850Y-202761D01*
X174988Y-202738D01*
X175060Y-202735D01*
X175132Y-202731D01*
X175175D01*
X175205Y-202735D01*
D02*
G37*
G36*
X232515Y-186396D02*
X232522Y-186389D01*
X232538Y-186373D01*
X232568Y-186350D01*
X232610Y-186317D01*
X232660Y-186277D01*
X232722Y-186235D01*
X232791Y-186189D01*
X232870Y-186140D01*
X232873D01*
X232879Y-186133D01*
X232889Y-186127D01*
X232906Y-186120D01*
X232925Y-186107D01*
X232948Y-186097D01*
X233001Y-186068D01*
X233060Y-186038D01*
X233125Y-186005D01*
X233194Y-185976D01*
X233260Y-185950D01*
Y-186307D01*
X233257Y-186310D01*
X233247Y-186314D01*
X233230Y-186323D01*
X233207Y-186333D01*
X233181Y-186346D01*
X233148Y-186366D01*
X233112Y-186386D01*
X233076Y-186405D01*
X232991Y-186458D01*
X232899Y-186520D01*
X232804Y-186586D01*
X232715Y-186661D01*
X232712Y-186665D01*
X232705Y-186671D01*
X232692Y-186681D01*
X232676Y-186697D01*
X232660Y-186717D01*
X232637Y-186737D01*
X232587Y-186793D01*
X232532Y-186852D01*
X232476Y-186920D01*
X232427Y-186993D01*
X232384Y-187068D01*
X232145D01*
Y-184031D01*
X232515D01*
Y-186396D01*
D02*
G37*
G36*
X215236Y-108968D02*
X216554D01*
Y-109309D01*
X215170Y-111271D01*
X214865D01*
Y-109309D01*
X214455D01*
Y-108968D01*
X214865D01*
Y-108243D01*
X215236D01*
Y-108968D01*
D02*
G37*
G36*
X217752Y-110608D02*
X217758Y-110602D01*
X217775Y-110585D01*
X217804Y-110562D01*
X217847Y-110529D01*
X217896Y-110490D01*
X217958Y-110448D01*
X218027Y-110401D01*
X218106Y-110352D01*
X218109D01*
X218116Y-110346D01*
X218125Y-110339D01*
X218142Y-110333D01*
X218162Y-110320D01*
X218184Y-110310D01*
X218237Y-110280D01*
X218296Y-110251D01*
X218362Y-110218D01*
X218430Y-110188D01*
X218496Y-110162D01*
Y-110520D01*
X218493Y-110523D01*
X218483Y-110526D01*
X218466Y-110536D01*
X218444Y-110546D01*
X218417Y-110559D01*
X218385Y-110579D01*
X218349Y-110598D01*
X218312Y-110618D01*
X218227Y-110670D01*
X218135Y-110733D01*
X218040Y-110798D01*
X217952Y-110874D01*
X217948Y-110877D01*
X217942Y-110884D01*
X217929Y-110894D01*
X217912Y-110910D01*
X217896Y-110930D01*
X217873Y-110949D01*
X217824Y-111005D01*
X217768Y-111064D01*
X217712Y-111133D01*
X217663Y-111205D01*
X217620Y-111281D01*
X217381D01*
Y-108243D01*
X217752D01*
Y-110608D01*
D02*
G37*
G36*
X147693Y-183050D02*
X147719D01*
X147755Y-183053D01*
X147794Y-183060D01*
X147837Y-183066D01*
X147886Y-183076D01*
X147939Y-183089D01*
X147991Y-183106D01*
X148047Y-183122D01*
X148102Y-183145D01*
X148158Y-183174D01*
X148211Y-183204D01*
X148266Y-183240D01*
X148316Y-183283D01*
X148319Y-183286D01*
X148326Y-183292D01*
X148339Y-183306D01*
X148358Y-183325D01*
X148378Y-183348D01*
X148401Y-183378D01*
X148424Y-183411D01*
X148450Y-183450D01*
X148476Y-183489D01*
X148503Y-183538D01*
X148529Y-183588D01*
X148552Y-183643D01*
X148572Y-183703D01*
X148591Y-183765D01*
X148604Y-183830D01*
X148614Y-183899D01*
X148243Y-183949D01*
Y-183945D01*
X148240Y-183935D01*
X148237Y-183919D01*
X148230Y-183896D01*
X148224Y-183870D01*
X148217Y-183840D01*
X148194Y-183771D01*
X148165Y-183696D01*
X148129Y-183621D01*
X148083Y-183552D01*
X148057Y-183522D01*
X148030Y-183493D01*
X148027D01*
X148024Y-183486D01*
X148014Y-183479D01*
X148004Y-183470D01*
X147971Y-183450D01*
X147925Y-183424D01*
X147870Y-183397D01*
X147807Y-183378D01*
X147732Y-183361D01*
X147653Y-183355D01*
X147627D01*
X147607Y-183358D01*
X147588Y-183361D01*
X147558Y-183365D01*
X147499Y-183378D01*
X147427Y-183397D01*
X147351Y-183430D01*
X147315Y-183453D01*
X147279Y-183476D01*
X147243Y-183502D01*
X147207Y-183535D01*
X147204Y-183538D01*
X147201Y-183545D01*
X147191Y-183555D01*
X147178Y-183568D01*
X147164Y-183584D01*
X147151Y-183607D01*
X147135Y-183630D01*
X147115Y-183660D01*
X147082Y-183725D01*
X147056Y-183801D01*
X147033Y-183889D01*
X147030Y-183935D01*
X147027Y-183984D01*
Y-183988D01*
Y-183994D01*
Y-184011D01*
X147030Y-184027D01*
X147033Y-184050D01*
X147037Y-184073D01*
X147046Y-184132D01*
X147069Y-184201D01*
X147099Y-184270D01*
X147118Y-184306D01*
X147142Y-184339D01*
X147168Y-184372D01*
X147197Y-184404D01*
X147201Y-184408D01*
X147204Y-184411D01*
X147214Y-184421D01*
X147227Y-184431D01*
X147243Y-184444D01*
X147263Y-184457D01*
X147312Y-184490D01*
X147374Y-184519D01*
X147447Y-184545D01*
X147529Y-184565D01*
X147574Y-184568D01*
X147620Y-184572D01*
X147640D01*
X147663Y-184568D01*
X147693D01*
X147732Y-184562D01*
X147775Y-184555D01*
X147827Y-184545D01*
X147883Y-184532D01*
X147843Y-184857D01*
X147837D01*
X147820Y-184854D01*
X147801Y-184851D01*
X147758D01*
X147742Y-184854D01*
X147719D01*
X147696Y-184857D01*
X147640Y-184867D01*
X147574Y-184880D01*
X147502Y-184903D01*
X147427Y-184932D01*
X147355Y-184975D01*
X147351D01*
X147345Y-184982D01*
X147338Y-184988D01*
X147325Y-184998D01*
X147292Y-185028D01*
X147256Y-185070D01*
X147223Y-185123D01*
X147191Y-185188D01*
X147178Y-185224D01*
X147171Y-185267D01*
X147164Y-185310D01*
X147161Y-185356D01*
Y-185359D01*
Y-185365D01*
Y-185375D01*
X147164Y-185392D01*
X147168Y-185428D01*
X147178Y-185477D01*
X147194Y-185529D01*
X147220Y-185585D01*
X147256Y-185644D01*
X147276Y-185670D01*
X147302Y-185697D01*
X147309Y-185703D01*
X147328Y-185716D01*
X147358Y-185739D01*
X147397Y-185766D01*
X147450Y-185789D01*
X147512Y-185811D01*
X147581Y-185825D01*
X147660Y-185831D01*
X147679D01*
X147696Y-185828D01*
X147715D01*
X147735Y-185825D01*
X147788Y-185815D01*
X147843Y-185798D01*
X147906Y-185772D01*
X147965Y-185739D01*
X148024Y-185693D01*
X148030Y-185687D01*
X148047Y-185667D01*
X148073Y-185638D01*
X148099Y-185592D01*
X148132Y-185536D01*
X148161Y-185464D01*
X148188Y-185382D01*
X148207Y-185287D01*
X148578Y-185352D01*
Y-185356D01*
X148575Y-185369D01*
X148572Y-185388D01*
X148565Y-185415D01*
X148555Y-185444D01*
X148545Y-185480D01*
X148532Y-185520D01*
X148516Y-185562D01*
X148473Y-185657D01*
X148450Y-185703D01*
X148421Y-185752D01*
X148388Y-185798D01*
X148352Y-185844D01*
X148312Y-185890D01*
X148270Y-185930D01*
X148266Y-185933D01*
X148260Y-185939D01*
X148243Y-185949D01*
X148227Y-185962D01*
X148201Y-185979D01*
X148175Y-185995D01*
X148142Y-186015D01*
X148102Y-186035D01*
X148063Y-186051D01*
X148017Y-186071D01*
X147968Y-186087D01*
X147915Y-186103D01*
X147856Y-186117D01*
X147798Y-186126D01*
X147735Y-186133D01*
X147669Y-186136D01*
X147627D01*
X147604Y-186133D01*
X147581Y-186130D01*
X147519Y-186123D01*
X147450Y-186110D01*
X147371Y-186090D01*
X147292Y-186064D01*
X147214Y-186028D01*
X147210D01*
X147204Y-186025D01*
X147194Y-186018D01*
X147178Y-186008D01*
X147142Y-185985D01*
X147096Y-185952D01*
X147043Y-185910D01*
X146991Y-185861D01*
X146938Y-185805D01*
X146892Y-185739D01*
Y-185736D01*
X146889Y-185733D01*
X146882Y-185720D01*
X146876Y-185706D01*
X146866Y-185690D01*
X146856Y-185670D01*
X146836Y-185621D01*
X146817Y-185562D01*
X146797Y-185497D01*
X146784Y-185424D01*
X146781Y-185349D01*
Y-185346D01*
Y-185339D01*
Y-185329D01*
Y-185316D01*
X146787Y-185277D01*
X146794Y-185231D01*
X146807Y-185175D01*
X146827Y-185116D01*
X146853Y-185054D01*
X146889Y-184992D01*
Y-184988D01*
X146892Y-184985D01*
X146909Y-184965D01*
X146932Y-184936D01*
X146968Y-184900D01*
X147010Y-184857D01*
X147066Y-184814D01*
X147128Y-184775D01*
X147201Y-184736D01*
X147197D01*
X147187Y-184732D01*
X147174Y-184729D01*
X147155Y-184722D01*
X147135Y-184716D01*
X147109Y-184706D01*
X147046Y-184680D01*
X146981Y-184644D01*
X146912Y-184601D01*
X146843Y-184545D01*
X146784Y-184476D01*
X146781Y-184473D01*
X146777Y-184467D01*
X146771Y-184457D01*
X146761Y-184441D01*
X146748Y-184424D01*
X146735Y-184401D01*
X146722Y-184375D01*
X146709Y-184342D01*
X146695Y-184309D01*
X146682Y-184273D01*
X146656Y-184191D01*
X146640Y-184096D01*
X146633Y-184044D01*
Y-183991D01*
Y-183988D01*
Y-183975D01*
X146636Y-183952D01*
Y-183925D01*
X146643Y-183889D01*
X146650Y-183850D01*
X146656Y-183807D01*
X146669Y-183758D01*
X146686Y-183706D01*
X146705Y-183653D01*
X146728Y-183598D01*
X146758Y-183542D01*
X146791Y-183483D01*
X146830Y-183427D01*
X146872Y-183371D01*
X146925Y-183319D01*
X146928Y-183315D01*
X146938Y-183306D01*
X146955Y-183292D01*
X146977Y-183276D01*
X147004Y-183256D01*
X147040Y-183233D01*
X147079Y-183207D01*
X147125Y-183184D01*
X147174Y-183158D01*
X147230Y-183132D01*
X147289Y-183109D01*
X147355Y-183089D01*
X147424Y-183073D01*
X147496Y-183060D01*
X147571Y-183050D01*
X147653Y-183046D01*
X147669D01*
X147693Y-183050D01*
D02*
G37*
G36*
X145315Y-183053D02*
X145347D01*
X145383Y-183056D01*
X145429Y-183063D01*
X145478Y-183073D01*
X145531Y-183082D01*
X145587Y-183096D01*
X145646Y-183115D01*
X145705Y-183135D01*
X145767Y-183161D01*
X145826Y-183191D01*
X145885Y-183227D01*
X145944Y-183266D01*
X145997Y-183312D01*
X146000Y-183315D01*
X146010Y-183325D01*
X146023Y-183338D01*
X146039Y-183361D01*
X146059Y-183388D01*
X146082Y-183417D01*
X146108Y-183453D01*
X146131Y-183496D01*
X146157Y-183542D01*
X146184Y-183591D01*
X146207Y-183647D01*
X146226Y-183703D01*
X146243Y-183765D01*
X146256Y-183834D01*
X146266Y-183903D01*
X146269Y-183975D01*
Y-183978D01*
Y-183988D01*
Y-184004D01*
X146266Y-184024D01*
Y-184050D01*
X146262Y-184080D01*
X146256Y-184113D01*
X146249Y-184149D01*
X146233Y-184224D01*
X146207Y-184306D01*
X146171Y-184388D01*
X146148Y-184427D01*
X146121Y-184467D01*
X146118Y-184470D01*
X146115Y-184476D01*
X146105Y-184486D01*
X146092Y-184500D01*
X146079Y-184516D01*
X146059Y-184532D01*
X146036Y-184555D01*
X146010Y-184575D01*
X145951Y-184621D01*
X145879Y-184667D01*
X145793Y-184706D01*
X145695Y-184739D01*
X145698D01*
X145705Y-184742D01*
X145718Y-184749D01*
X145731Y-184755D01*
X145751Y-184762D01*
X145774Y-184775D01*
X145823Y-184801D01*
X145879Y-184834D01*
X145934Y-184877D01*
X145990Y-184923D01*
X146036Y-184978D01*
Y-184982D01*
X146039Y-184985D01*
X146046Y-184995D01*
X146053Y-185008D01*
X146072Y-185041D01*
X146092Y-185083D01*
X146112Y-185139D01*
X146131Y-185205D01*
X146144Y-185277D01*
X146148Y-185356D01*
Y-185359D01*
Y-185369D01*
X146144Y-185388D01*
Y-185411D01*
X146141Y-185438D01*
X146134Y-185470D01*
X146128Y-185506D01*
X146118Y-185549D01*
X146105Y-185592D01*
X146089Y-185634D01*
X146072Y-185680D01*
X146049Y-185730D01*
X146020Y-185775D01*
X145990Y-185821D01*
X145954Y-185867D01*
X145911Y-185910D01*
X145908Y-185913D01*
X145902Y-185920D01*
X145888Y-185930D01*
X145869Y-185946D01*
X145846Y-185962D01*
X145816Y-185982D01*
X145783Y-186002D01*
X145744Y-186025D01*
X145702Y-186044D01*
X145652Y-186064D01*
X145603Y-186084D01*
X145547Y-186100D01*
X145485Y-186117D01*
X145423Y-186126D01*
X145354Y-186133D01*
X145282Y-186136D01*
X145242D01*
X145216Y-186133D01*
X145183Y-186130D01*
X145144Y-186123D01*
X145101Y-186117D01*
X145052Y-186107D01*
X145003Y-186094D01*
X144950Y-186081D01*
X144898Y-186061D01*
X144845Y-186038D01*
X144790Y-186012D01*
X144740Y-185979D01*
X144688Y-185946D01*
X144642Y-185903D01*
X144639Y-185900D01*
X144632Y-185893D01*
X144619Y-185880D01*
X144603Y-185864D01*
X144586Y-185841D01*
X144567Y-185815D01*
X144544Y-185782D01*
X144521Y-185749D01*
X144498Y-185710D01*
X144475Y-185667D01*
X144455Y-185621D01*
X144439Y-185572D01*
X144422Y-185520D01*
X144409Y-185464D01*
X144403Y-185405D01*
X144399Y-185346D01*
Y-185343D01*
Y-185336D01*
Y-185326D01*
Y-185310D01*
X144403Y-185293D01*
X144406Y-185270D01*
X144413Y-185221D01*
X144426Y-185165D01*
X144445Y-185103D01*
X144475Y-185041D01*
X144511Y-184978D01*
Y-184975D01*
X144518Y-184972D01*
X144531Y-184952D01*
X144557Y-184926D01*
X144593Y-184890D01*
X144642Y-184854D01*
X144698Y-184811D01*
X144767Y-184775D01*
X144845Y-184739D01*
X144842D01*
X144832Y-184736D01*
X144819Y-184729D01*
X144799Y-184722D01*
X144777Y-184713D01*
X144750Y-184700D01*
X144688Y-184667D01*
X144619Y-184627D01*
X144550Y-184575D01*
X144481Y-184516D01*
X144422Y-184444D01*
X144419Y-184441D01*
X144416Y-184434D01*
X144409Y-184424D01*
X144399Y-184408D01*
X144389Y-184388D01*
X144376Y-184365D01*
X144363Y-184339D01*
X144347Y-184309D01*
X144321Y-184240D01*
X144298Y-184158D01*
X144281Y-184066D01*
X144275Y-184017D01*
Y-183965D01*
Y-183962D01*
Y-183949D01*
X144278Y-183929D01*
Y-183899D01*
X144285Y-183867D01*
X144288Y-183827D01*
X144298Y-183784D01*
X144307Y-183739D01*
X144324Y-183686D01*
X144340Y-183634D01*
X144363Y-183581D01*
X144389Y-183525D01*
X144422Y-183470D01*
X144458Y-183417D01*
X144501Y-183361D01*
X144550Y-183312D01*
X144553Y-183309D01*
X144563Y-183302D01*
X144580Y-183289D01*
X144599Y-183273D01*
X144629Y-183250D01*
X144662Y-183230D01*
X144701Y-183204D01*
X144744Y-183181D01*
X144793Y-183158D01*
X144849Y-183132D01*
X144908Y-183112D01*
X144970Y-183092D01*
X145039Y-183073D01*
X145111Y-183060D01*
X145190Y-183053D01*
X145272Y-183050D01*
X145291D01*
X145315Y-183053D01*
D02*
G37*
%LPC*%
G36*
X209756Y-204021D02*
X208723D01*
X209041Y-204860D01*
Y-204864D01*
X209048Y-204877D01*
X209054Y-204896D01*
X209064Y-204926D01*
X209077Y-204955D01*
X209090Y-204995D01*
X209107Y-205037D01*
X209123Y-205083D01*
X209156Y-205185D01*
X209192Y-205290D01*
X209228Y-205395D01*
X209258Y-205493D01*
Y-205490D01*
X209261Y-205480D01*
X209264Y-205464D01*
X209267Y-205444D01*
X209274Y-205415D01*
X209280Y-205385D01*
X209290Y-205349D01*
X209300Y-205310D01*
X209310Y-205267D01*
X209323Y-205221D01*
X209353Y-205123D01*
X209385Y-205018D01*
X209422Y-204909D01*
X209756Y-204021D01*
D02*
G37*
G36*
X192372D02*
X191339D01*
X191657Y-204860D01*
Y-204864D01*
X191664Y-204877D01*
X191670Y-204896D01*
X191680Y-204926D01*
X191693Y-204955D01*
X191706Y-204995D01*
X191723Y-205037D01*
X191739Y-205083D01*
X191772Y-205185D01*
X191808Y-205290D01*
X191844Y-205395D01*
X191874Y-205493D01*
Y-205490D01*
X191877Y-205480D01*
X191880Y-205464D01*
X191883Y-205444D01*
X191890Y-205415D01*
X191896Y-205385D01*
X191906Y-205349D01*
X191916Y-205310D01*
X191926Y-205267D01*
X191939Y-205221D01*
X191969Y-205123D01*
X192001Y-205018D01*
X192038Y-204909D01*
X192372Y-204021D01*
D02*
G37*
G36*
X180052Y-204368D02*
X179236D01*
X179209Y-204372D01*
X179177D01*
X179141Y-204375D01*
X179098Y-204381D01*
X179055Y-204388D01*
X178963Y-204404D01*
X178872Y-204431D01*
X178829Y-204447D01*
X178790Y-204467D01*
X178750Y-204486D01*
X178718Y-204513D01*
X178714Y-204516D01*
X178711Y-204519D01*
X178701Y-204529D01*
X178691Y-204539D01*
X178665Y-204572D01*
X178636Y-204618D01*
X178606Y-204677D01*
X178580Y-204745D01*
X178560Y-204827D01*
X178557Y-204870D01*
X178553Y-204919D01*
Y-204923D01*
Y-204929D01*
Y-204939D01*
Y-204952D01*
X178560Y-204988D01*
X178567Y-205031D01*
X178576Y-205083D01*
X178596Y-205136D01*
X178619Y-205191D01*
X178652Y-205244D01*
X178655Y-205251D01*
X178668Y-205267D01*
X178691Y-205290D01*
X178718Y-205316D01*
X178757Y-205346D01*
X178799Y-205375D01*
X178849Y-205401D01*
X178904Y-205421D01*
X178908D01*
X178924Y-205424D01*
X178950Y-205431D01*
X178990Y-205437D01*
X179013D01*
X179039Y-205441D01*
X179072Y-205444D01*
X179104Y-205447D01*
X179144D01*
X179183Y-205451D01*
X180052D01*
Y-204368D01*
D02*
G37*
G36*
X175136Y-203073D02*
X175116D01*
X175093Y-203076D01*
X175060Y-203079D01*
X175021Y-203082D01*
X174978Y-203089D01*
X174926Y-203099D01*
X174873Y-203112D01*
X174814Y-203128D01*
X174755Y-203148D01*
X174693Y-203174D01*
X174631Y-203207D01*
X174568Y-203243D01*
X174506Y-203282D01*
X174447Y-203332D01*
X174391Y-203387D01*
X174388Y-203391D01*
X174378Y-203404D01*
X174365Y-203420D01*
X174345Y-203447D01*
X174322Y-203479D01*
X174296Y-203519D01*
X174270Y-203565D01*
X174244Y-203620D01*
X174217Y-203679D01*
X174188Y-203748D01*
X174165Y-203820D01*
X174142Y-203903D01*
X174122Y-203991D01*
X174109Y-204083D01*
X174099Y-204185D01*
X174096Y-204290D01*
Y-204293D01*
Y-204306D01*
Y-204326D01*
X174099Y-204352D01*
Y-204385D01*
X174102Y-204421D01*
X174106Y-204463D01*
X174112Y-204509D01*
X174126Y-204611D01*
X174148Y-204719D01*
X174181Y-204827D01*
X174224Y-204936D01*
Y-204939D01*
X174230Y-204949D01*
X174237Y-204962D01*
X174247Y-204982D01*
X174260Y-205005D01*
X174276Y-205031D01*
X174316Y-205093D01*
X174368Y-205162D01*
X174431Y-205231D01*
X174503Y-205300D01*
X174588Y-205362D01*
X174591Y-205365D01*
X174598Y-205369D01*
X174611Y-205375D01*
X174631Y-205385D01*
X174654Y-205398D01*
X174680Y-205411D01*
X174709Y-205424D01*
X174745Y-205441D01*
X174785Y-205454D01*
X174824Y-205467D01*
X174916Y-205493D01*
X175018Y-205510D01*
X175073Y-205516D01*
X175149D01*
X175169Y-205513D01*
X175201D01*
X175237Y-205506D01*
X175280Y-205500D01*
X175326Y-205490D01*
X175378Y-205480D01*
X175434Y-205464D01*
X175493Y-205444D01*
X175556Y-205421D01*
X175615Y-205392D01*
X175677Y-205359D01*
X175739Y-205319D01*
X175802Y-205274D01*
X175861Y-205221D01*
X175864Y-205218D01*
X175874Y-205208D01*
X175890Y-205188D01*
X175907Y-205165D01*
X175933Y-205133D01*
X175956Y-205093D01*
X175985Y-205044D01*
X176012Y-204991D01*
X176041Y-204926D01*
X176070Y-204854D01*
X176093Y-204775D01*
X176117Y-204686D01*
X176136Y-204591D01*
X176153Y-204486D01*
X176162Y-204372D01*
X176166Y-204247D01*
Y-204240D01*
Y-204224D01*
X176162Y-204194D01*
Y-204155D01*
X176156Y-204109D01*
X176149Y-204057D01*
X176143Y-203998D01*
X176130Y-203935D01*
X176113Y-203866D01*
X176093Y-203794D01*
X176070Y-203725D01*
X176041Y-203653D01*
X176008Y-203581D01*
X175969Y-203512D01*
X175926Y-203447D01*
X175874Y-203384D01*
X175871Y-203381D01*
X175861Y-203371D01*
X175844Y-203355D01*
X175821Y-203335D01*
X175792Y-203312D01*
X175756Y-203286D01*
X175716Y-203256D01*
X175670Y-203230D01*
X175621Y-203201D01*
X175562Y-203171D01*
X175503Y-203145D01*
X175437Y-203122D01*
X175369Y-203102D01*
X175293Y-203086D01*
X175218Y-203076D01*
X175136Y-203073D01*
D02*
G37*
G36*
X216190Y-109309D02*
X215236D01*
Y-110674D01*
X216190Y-109309D01*
D02*
G37*
G36*
X145272Y-183355D02*
X145246D01*
X145226Y-183358D01*
X145203Y-183361D01*
X145177Y-183365D01*
X145114Y-183378D01*
X145045Y-183397D01*
X144970Y-183427D01*
X144934Y-183447D01*
X144898Y-183470D01*
X144862Y-183496D01*
X144829Y-183525D01*
X144826Y-183529D01*
X144823Y-183532D01*
X144813Y-183542D01*
X144803Y-183555D01*
X144790Y-183574D01*
X144773Y-183594D01*
X144757Y-183617D01*
X144740Y-183643D01*
X144711Y-183706D01*
X144681Y-183781D01*
X144662Y-183863D01*
X144659Y-183909D01*
X144655Y-183958D01*
Y-183962D01*
Y-183971D01*
Y-183984D01*
X144659Y-184004D01*
X144662Y-184027D01*
X144665Y-184053D01*
X144678Y-184116D01*
X144698Y-184185D01*
X144731Y-184260D01*
X144750Y-184296D01*
X144777Y-184332D01*
X144803Y-184368D01*
X144836Y-184401D01*
X144839Y-184404D01*
X144842Y-184408D01*
X144852Y-184417D01*
X144868Y-184427D01*
X144885Y-184444D01*
X144904Y-184457D01*
X144931Y-184473D01*
X144957Y-184490D01*
X145023Y-184522D01*
X145098Y-184552D01*
X145187Y-184572D01*
X145232Y-184575D01*
X145282Y-184578D01*
X145308D01*
X145324Y-184575D01*
X145347Y-184572D01*
X145373Y-184568D01*
X145436Y-184555D01*
X145505Y-184536D01*
X145577Y-184506D01*
X145613Y-184486D01*
X145649Y-184463D01*
X145685Y-184434D01*
X145718Y-184404D01*
X145721Y-184401D01*
X145724Y-184398D01*
X145734Y-184388D01*
X145744Y-184375D01*
X145757Y-184355D01*
X145770Y-184335D01*
X145787Y-184312D01*
X145803Y-184286D01*
X145836Y-184224D01*
X145862Y-184149D01*
X145882Y-184063D01*
X145885Y-184021D01*
X145888Y-183971D01*
Y-183968D01*
Y-183965D01*
Y-183945D01*
X145885Y-183912D01*
X145879Y-183873D01*
X145872Y-183827D01*
X145859Y-183775D01*
X145839Y-183719D01*
X145816Y-183663D01*
X145813Y-183657D01*
X145803Y-183640D01*
X145783Y-183611D01*
X145761Y-183578D01*
X145728Y-183542D01*
X145692Y-183506D01*
X145646Y-183466D01*
X145593Y-183433D01*
X145590D01*
X145587Y-183430D01*
X145567Y-183420D01*
X145537Y-183407D01*
X145495Y-183394D01*
X145449Y-183381D01*
X145393Y-183368D01*
X145334Y-183358D01*
X145272Y-183355D01*
D02*
G37*
G36*
Y-184883D02*
X145252D01*
X145236Y-184887D01*
X145216D01*
X145196Y-184890D01*
X145147Y-184900D01*
X145091Y-184916D01*
X145032Y-184939D01*
X144973Y-184972D01*
X144918Y-185018D01*
X144911Y-185024D01*
X144895Y-185041D01*
X144875Y-185070D01*
X144849Y-185110D01*
X144823Y-185155D01*
X144803Y-185214D01*
X144786Y-185277D01*
X144780Y-185346D01*
Y-185349D01*
Y-185356D01*
Y-185365D01*
X144783Y-185382D01*
X144786Y-185418D01*
X144796Y-185467D01*
X144813Y-185520D01*
X144839Y-185579D01*
X144875Y-185634D01*
X144895Y-185664D01*
X144921Y-185690D01*
Y-185693D01*
X144927Y-185697D01*
X144947Y-185713D01*
X144977Y-185736D01*
X145019Y-185762D01*
X145069Y-185785D01*
X145131Y-185808D01*
X145200Y-185825D01*
X145236Y-185831D01*
X145295D01*
X145311Y-185828D01*
X145328D01*
X145351Y-185825D01*
X145400Y-185815D01*
X145456Y-185798D01*
X145515Y-185772D01*
X145574Y-185739D01*
X145629Y-185693D01*
X145636Y-185687D01*
X145652Y-185670D01*
X145672Y-185641D01*
X145698Y-185602D01*
X145724Y-185556D01*
X145744Y-185500D01*
X145761Y-185438D01*
X145767Y-185369D01*
Y-185365D01*
Y-185359D01*
Y-185349D01*
X145764Y-185333D01*
Y-185313D01*
X145761Y-185293D01*
X145751Y-185244D01*
X145734Y-185188D01*
X145711Y-185129D01*
X145679Y-185070D01*
X145633Y-185018D01*
X145626Y-185011D01*
X145606Y-184998D01*
X145577Y-184975D01*
X145534Y-184952D01*
X145485Y-184926D01*
X145423Y-184903D01*
X145351Y-184890D01*
X145272Y-184883D01*
D02*
G37*
%LPD*%
D10*
X81762Y-108287D02*
G03*
X79262Y-108287I-1250J0D01*
G01*
X81762Y-186122D02*
G03*
X79262Y-186122I-1250J0D01*
G01*
X81762Y-108287D02*
X90413D01*
X70610D02*
X79262D01*
X70610D02*
Y-58287D01*
X90413D01*
Y-108287D02*
Y-58287D01*
X81762Y-186122D02*
X90413D01*
X70610D02*
X79262D01*
X70610D02*
Y-136122D01*
X90413D01*
Y-186122D02*
Y-136122D01*
D11*
X154724Y-5029D02*
G03*
X154724Y-5029I-492J0D01*
G01*
X203248Y-37205D02*
G03*
X203248Y-37205I-492J0D01*
G01*
X137894Y-108071D02*
G03*
X137894Y-108071I-492J0D01*
G01*
X136909Y-182874D02*
G03*
X136909Y-182874I-492J0D01*
G01*
D12*
X129921Y-102559D02*
G03*
X129921Y-102559I-1181J0D01*
G01*
X128937Y-177362D02*
G03*
X128937Y-177362I-1181J0D01*
G01*
D13*
X64173Y-195374D02*
X64567D01*
X64173Y-190453D02*
X64567D01*
X64173Y-204232D02*
X64567D01*
X64173Y-199311D02*
X64567D01*
X81496Y-201968D02*
Y-197638D01*
X74803Y-201968D02*
Y-197638D01*
X160630Y-26575D02*
X166929D01*
X160630Y-6890D02*
X166929D01*
Y-26575D02*
Y-6890D01*
X160630Y-26575D02*
Y-6890D01*
X143602Y-14961D02*
Y-14567D01*
X138681Y-14961D02*
Y-14567D01*
X134744Y-14961D02*
Y-14567D01*
X129823Y-14961D02*
Y-14567D01*
X120472Y-14961D02*
Y-14567D01*
X125591Y-14961D02*
Y-14567D01*
X109843Y-14961D02*
Y-14567D01*
X114961Y-14961D02*
Y-14567D01*
X120866Y-48425D02*
Y-48031D01*
X125984Y-48425D02*
Y-48031D01*
X109055Y-48425D02*
Y-48031D01*
X114173Y-48425D02*
Y-48031D01*
X120275Y-69651D02*
X120669D01*
X120275Y-74769D02*
X120669D01*
X209449Y-54528D02*
X213780D01*
X209449Y-47835D02*
X213780D01*
X232677D02*
X237008D01*
X232677Y-54528D02*
X237008D01*
Y-25679D02*
Y-25285D01*
X242126Y-25679D02*
Y-25285D01*
X202756Y-32283D02*
X229134D01*
X202756Y-14961D02*
X229134D01*
X202756Y-32283D02*
Y-14961D01*
X229134Y-32283D02*
Y-14961D01*
X192421Y-16929D02*
Y-16535D01*
X197343Y-16929D02*
Y-16535D01*
X183563Y-16929D02*
Y-16535D01*
X188484Y-16929D02*
Y-16535D01*
X167323Y-38583D02*
Y-38189D01*
X162205Y-38583D02*
Y-38189D01*
X156496Y-38583D02*
Y-38189D01*
X151378Y-38583D02*
Y-38189D01*
X181496Y-85827D02*
X185433D01*
X181496Y-79528D02*
X185433D01*
Y-85827D02*
Y-79528D01*
X183268Y-74409D02*
X183661D01*
X183268Y-69291D02*
X183661D01*
X174606Y-100984D02*
Y-100591D01*
X179724Y-100984D02*
Y-100591D01*
X194291Y-100984D02*
Y-100591D01*
X199409Y-100984D02*
Y-100591D01*
X205512Y-100984D02*
Y-100591D01*
X210630Y-100984D02*
Y-100591D01*
X230197Y-100984D02*
Y-100591D01*
X235315Y-100984D02*
Y-100591D01*
X242520Y-77953D02*
Y-73622D01*
X235827Y-77953D02*
Y-73622D01*
X230118Y-77953D02*
Y-73622D01*
X223425Y-77953D02*
Y-73622D01*
X217323Y-77953D02*
Y-73622D01*
X210630Y-77953D02*
Y-73622D01*
X204528Y-77953D02*
Y-73622D01*
X197835Y-77953D02*
Y-73622D01*
X241339Y-175197D02*
X241732D01*
X241339Y-180118D02*
X241732D01*
X241339Y-167323D02*
X241732D01*
X241339Y-172244D02*
X241732D01*
X241339Y-184055D02*
X241732D01*
X241339Y-188976D02*
X241732D01*
X240945Y-162992D02*
X241339D01*
X240945Y-157874D02*
X241339D01*
X131791Y-116339D02*
Y-115945D01*
X126870Y-116339D02*
Y-115945D01*
X140650Y-116339D02*
Y-115945D01*
X135728Y-116339D02*
Y-115945D01*
X122933Y-116339D02*
Y-115945D01*
X118012Y-116339D02*
Y-115945D01*
X118897Y-143504D02*
X119291D01*
X118897Y-148622D02*
X119291D01*
X113878Y-116339D02*
Y-115945D01*
X108957Y-116339D02*
Y-115945D01*
X81496Y-124213D02*
Y-119882D01*
X74803Y-124213D02*
Y-119882D01*
X64173Y-127461D02*
X64567D01*
X64173Y-122539D02*
X64567D01*
X64173Y-118209D02*
X64567D01*
X64173Y-113287D02*
X64567D01*
X118110Y-80512D02*
X132677D01*
X118110Y-106496D02*
X132677D01*
X118110D02*
Y-80512D01*
X132677Y-106496D02*
Y-80512D01*
X234842Y-146117D02*
Y-141787D01*
X241535Y-146117D02*
Y-141787D01*
X131693Y-181299D02*
Y-155315D01*
X117126Y-181299D02*
Y-155315D01*
Y-181299D02*
X131693D01*
X117126Y-155315D02*
X131693D01*
X108514Y-191142D02*
Y-190748D01*
X113435Y-191142D02*
Y-190748D01*
X117106Y-191142D02*
Y-190748D01*
X122028Y-191142D02*
Y-190748D01*
X135089Y-191142D02*
Y-190748D01*
X140010Y-191142D02*
Y-190748D01*
X126230Y-191142D02*
Y-190748D01*
X131152Y-191142D02*
Y-190748D01*
X65945Y-52903D02*
Y-56102D01*
X67544D01*
X68077Y-55569D01*
Y-53437D01*
X67544Y-52903D01*
X65945D01*
X70743Y-56102D02*
Y-52903D01*
X69144Y-54503D01*
X71276D01*
X67093Y-207964D02*
X66560Y-207431D01*
X65494D01*
X64961Y-207964D01*
Y-210097D01*
X65494Y-210630D01*
X66560D01*
X67093Y-210097D01*
X68160Y-210630D02*
X69226D01*
X68693D01*
Y-207431D01*
X68160Y-207964D01*
X70825D02*
X71359Y-207431D01*
X72425D01*
X72958Y-207964D01*
Y-208497D01*
X72425Y-209030D01*
X72958Y-209564D01*
Y-210097D01*
X72425Y-210630D01*
X71359D01*
X70825Y-210097D01*
Y-209564D01*
X71359Y-209030D01*
X70825Y-208497D01*
Y-207964D01*
X71359Y-209030D02*
X72425D01*
X67093Y-212885D02*
X66560Y-212352D01*
X65494D01*
X64961Y-212885D01*
Y-215018D01*
X65494Y-215551D01*
X66560D01*
X67093Y-215018D01*
X68160Y-215551D02*
X69226D01*
X68693D01*
Y-212352D01*
X68160Y-212885D01*
X70825Y-212352D02*
X72958D01*
Y-212885D01*
X70825Y-215018D01*
Y-215551D01*
X83948Y-206529D02*
X83415Y-207062D01*
Y-208128D01*
X83948Y-208661D01*
X86081D01*
X86614Y-208128D01*
Y-207062D01*
X86081Y-206529D01*
X86614Y-205462D02*
Y-204396D01*
Y-204929D01*
X83415D01*
X83948Y-205462D01*
X86081Y-202797D02*
X86614Y-202263D01*
Y-201197D01*
X86081Y-200664D01*
X83948D01*
X83415Y-201197D01*
Y-202263D01*
X83948Y-202797D01*
X84482D01*
X85015Y-202263D01*
Y-200664D01*
X161417Y-2706D02*
Y-5372D01*
X161951Y-5906D01*
X163017D01*
X163550Y-5372D01*
Y-2706D01*
X164616Y-5906D02*
X165683D01*
X165149D01*
Y-2706D01*
X164616Y-3240D01*
X140937Y-4757D02*
X140403Y-5290D01*
Y-6357D01*
X140937Y-6890D01*
X143069D01*
X143602Y-6357D01*
Y-5290D01*
X143069Y-4757D01*
X140403Y-3691D02*
Y-1558D01*
X140937D01*
X143069Y-3691D01*
X143602D01*
X131193Y-4757D02*
X130659Y-5290D01*
Y-6357D01*
X131193Y-6890D01*
X133325D01*
X133858Y-6357D01*
Y-5290D01*
X133325Y-4757D01*
X131193Y-3691D02*
X130659Y-3158D01*
Y-2091D01*
X131193Y-1558D01*
X131726D01*
X132259Y-2091D01*
X132792Y-1558D01*
X133325D01*
X133858Y-2091D01*
Y-3158D01*
X133325Y-3691D01*
X132792D01*
X132259Y-3158D01*
X131726Y-3691D01*
X131193D01*
X132259Y-3158D02*
Y-2091D01*
X125000Y-6890D02*
X121801D01*
Y-5290D01*
X122334Y-4757D01*
X123400D01*
X123934Y-5290D01*
Y-6890D01*
Y-5823D02*
X125000Y-4757D01*
Y-1558D02*
Y-3691D01*
X122867Y-1558D01*
X122334D01*
X121801Y-2091D01*
Y-3158D01*
X122334Y-3691D01*
X114173Y-6890D02*
X110974D01*
Y-5290D01*
X111507Y-4757D01*
X112574D01*
X113107Y-5290D01*
Y-6890D01*
Y-5823D02*
X114173Y-4757D01*
X111507Y-3691D02*
X110974Y-3158D01*
Y-2091D01*
X111507Y-1558D01*
X112041D01*
X112574Y-2091D01*
Y-2624D01*
Y-2091D01*
X113107Y-1558D01*
X113640D01*
X114173Y-2091D01*
Y-3158D01*
X113640Y-3691D01*
X105069Y-37402D02*
X108268D01*
Y-35802D01*
X107735Y-35269D01*
X105602D01*
X105069Y-35802D01*
Y-37402D01*
X105602Y-32070D02*
X105069Y-32603D01*
Y-33669D01*
X105602Y-34203D01*
X106135D01*
X106668Y-33669D01*
Y-32603D01*
X107201Y-32070D01*
X107735D01*
X108268Y-32603D01*
Y-33669D01*
X107735Y-34203D01*
X108268Y-28871D02*
Y-31004D01*
X106135Y-28871D01*
X105602D01*
X105069Y-29404D01*
Y-30470D01*
X105602Y-31004D01*
X100541Y-37402D02*
X103740D01*
Y-35802D01*
X103207Y-35269D01*
X101074D01*
X100541Y-35802D01*
Y-37402D01*
X101074Y-32070D02*
X100541Y-32603D01*
Y-33669D01*
X101074Y-34203D01*
X101608D01*
X102141Y-33669D01*
Y-32603D01*
X102674Y-32070D01*
X103207D01*
X103740Y-32603D01*
Y-33669D01*
X103207Y-34203D01*
X103740Y-31004D02*
Y-29937D01*
Y-30470D01*
X100541D01*
X101074Y-31004D01*
X106299Y-54500D02*
X103100D01*
Y-52900D01*
X103633Y-52367D01*
X104700D01*
X105233Y-52900D01*
Y-54500D01*
Y-53434D02*
X106299Y-52367D01*
X103100Y-49168D02*
Y-51301D01*
X104700D01*
X104167Y-50235D01*
Y-49701D01*
X104700Y-49168D01*
X105766D01*
X106299Y-49701D01*
Y-50768D01*
X105766Y-51301D01*
X102362Y-54500D02*
X99163D01*
Y-52900D01*
X99696Y-52367D01*
X100763D01*
X101296Y-52900D01*
Y-54500D01*
Y-53434D02*
X102362Y-52367D01*
Y-49701D02*
X99163D01*
X100763Y-51301D01*
Y-49168D01*
X112205Y-66929D02*
Y-63730D01*
X113804D01*
X114337Y-64263D01*
Y-65330D01*
X113804Y-65863D01*
X112205D01*
X113271D02*
X114337Y-66929D01*
X115404D02*
X116470D01*
X115937D01*
Y-63730D01*
X115404Y-64263D01*
X119669Y-66929D02*
Y-63730D01*
X118070Y-65330D01*
X120202D01*
X204889Y-43594D02*
X204355Y-43061D01*
X203289D01*
X202756Y-43594D01*
Y-45727D01*
X203289Y-46260D01*
X204355D01*
X204889Y-45727D01*
X208087Y-46260D02*
X205955D01*
X208087Y-44127D01*
Y-43594D01*
X207554Y-43061D01*
X206488D01*
X205955Y-43594D01*
X209154Y-46260D02*
X210220D01*
X209687D01*
Y-43061D01*
X209154Y-43594D01*
X227526D02*
X226993Y-43061D01*
X225927D01*
X225394Y-43594D01*
Y-45727D01*
X225927Y-46260D01*
X226993D01*
X227526Y-45727D01*
X230725Y-46260D02*
X228593D01*
X230725Y-44127D01*
Y-43594D01*
X230192Y-43061D01*
X229126D01*
X228593Y-43594D01*
X231792D02*
X232325Y-43061D01*
X233391D01*
X233924Y-43594D01*
Y-45727D01*
X233391Y-46260D01*
X232325D01*
X231792Y-45727D01*
Y-43594D01*
X232283Y-31250D02*
Y-34449D01*
X234416D01*
X237615D02*
X235482D01*
X237615Y-32316D01*
Y-31783D01*
X237082Y-31250D01*
X236016D01*
X235482Y-31783D01*
X250000Y-31496D02*
X246801D01*
Y-29897D01*
X247334Y-29363D01*
X248400D01*
X248934Y-29897D01*
Y-31496D01*
Y-30430D02*
X250000Y-29363D01*
X246801Y-26164D02*
X247334Y-27231D01*
X248400Y-28297D01*
X249467D01*
X250000Y-27764D01*
Y-26698D01*
X249467Y-26164D01*
X248934D01*
X248400Y-26698D01*
Y-28297D01*
X246801Y-14764D02*
X250000D01*
Y-13164D01*
X249467Y-12631D01*
X247334D01*
X246801Y-13164D01*
Y-14764D01*
X247334Y-9432D02*
X246801Y-9965D01*
Y-11032D01*
X247334Y-11565D01*
X247867D01*
X248400Y-11032D01*
Y-9965D01*
X248934Y-9432D01*
X249467D01*
X250000Y-9965D01*
Y-11032D01*
X249467Y-11565D01*
X247334Y-8366D02*
X246801Y-7833D01*
Y-6766D01*
X247334Y-6233D01*
X247867D01*
X248400Y-6766D01*
Y-7299D01*
Y-6766D01*
X248934Y-6233D01*
X249467D01*
X250000Y-6766D01*
Y-7833D01*
X249467Y-8366D01*
X224500Y-9201D02*
Y-11866D01*
X225033Y-12400D01*
X226099D01*
X226633Y-11866D01*
Y-9201D01*
X229298Y-12400D02*
Y-9201D01*
X227699Y-10800D01*
X229832D01*
X194185Y-4757D02*
X193651Y-5290D01*
Y-6357D01*
X194185Y-6890D01*
X196317D01*
X196850Y-6357D01*
Y-5290D01*
X196317Y-4757D01*
X193651Y-1558D02*
X194185Y-2624D01*
X195251Y-3691D01*
X196317D01*
X196850Y-3158D01*
Y-2091D01*
X196317Y-1558D01*
X195784D01*
X195251Y-2091D01*
Y-3691D01*
X185326Y-4757D02*
X184793Y-5290D01*
Y-6357D01*
X185326Y-6890D01*
X187459D01*
X187992Y-6357D01*
Y-5290D01*
X187459Y-4757D01*
X184793Y-1558D02*
Y-3691D01*
X186393D01*
X185860Y-2624D01*
Y-2091D01*
X186393Y-1558D01*
X187459D01*
X187992Y-2091D01*
Y-3158D01*
X187459Y-3691D01*
X178150Y-45276D02*
X174951D01*
Y-43676D01*
X175484Y-43143D01*
X176550D01*
X177083Y-43676D01*
Y-45276D01*
Y-44209D02*
X178150Y-43143D01*
X174951Y-42077D02*
Y-39944D01*
X175484D01*
X177617Y-42077D01*
X178150D01*
X173228Y-45276D02*
X170029D01*
Y-43676D01*
X170563Y-43143D01*
X171629D01*
X172162Y-43676D01*
Y-45276D01*
Y-44209D02*
X173228Y-43143D01*
X170563Y-42077D02*
X170029Y-41543D01*
Y-40477D01*
X170563Y-39944D01*
X171096D01*
X171629Y-40477D01*
X172162Y-39944D01*
X172695D01*
X173228Y-40477D01*
Y-41543D01*
X172695Y-42077D01*
X172162D01*
X171629Y-41543D01*
X171096Y-42077D01*
X170563D01*
X171629Y-41543D02*
Y-40477D01*
X186024Y-59793D02*
Y-62992D01*
X188156D01*
X189223D02*
X190289D01*
X189756D01*
Y-59793D01*
X189223Y-60326D01*
X175197Y-86368D02*
Y-89567D01*
X176796D01*
X177330Y-89034D01*
Y-86901D01*
X176796Y-86368D01*
X175197D01*
X178396Y-89567D02*
X179462D01*
X178929D01*
Y-86368D01*
X178396Y-86901D01*
X169291Y-72835D02*
Y-69636D01*
X170891D01*
X171424Y-70169D01*
Y-71235D01*
X170891Y-71768D01*
X169291D01*
X170358D02*
X171424Y-72835D01*
X172490D02*
X173557D01*
X173023D01*
Y-69636D01*
X172490Y-70169D01*
X172244Y-107283D02*
X169045D01*
Y-105684D01*
X169578Y-105151D01*
X170645D01*
X171178Y-105684D01*
Y-107283D01*
Y-106217D02*
X172244Y-105151D01*
Y-104085D02*
Y-103018D01*
Y-103551D01*
X169045D01*
X169578Y-104085D01*
X172244Y-101419D02*
Y-100352D01*
Y-100885D01*
X169045D01*
X169578Y-101419D01*
X191600Y-96457D02*
X188401D01*
Y-94857D01*
X188934Y-94324D01*
X190000D01*
X190534Y-94857D01*
Y-96457D01*
Y-95390D02*
X191600Y-94324D01*
Y-93258D02*
Y-92191D01*
Y-92725D01*
X188401D01*
X188934Y-93258D01*
Y-90592D02*
X188401Y-90059D01*
Y-88992D01*
X188934Y-88459D01*
X189467D01*
X190000Y-88992D01*
Y-89526D01*
Y-88992D01*
X190534Y-88459D01*
X191067D01*
X191600Y-88992D01*
Y-90059D01*
X191067Y-90592D01*
X183888Y-96457D02*
X187087D01*
Y-94857D01*
X186554Y-94324D01*
X184421D01*
X183888Y-94857D01*
Y-96457D01*
X184421Y-91125D02*
X183888Y-91658D01*
Y-92725D01*
X184421Y-93258D01*
X184954D01*
X185487Y-92725D01*
Y-91658D01*
X186020Y-91125D01*
X186554D01*
X187087Y-91658D01*
Y-92725D01*
X186554Y-93258D01*
X187087Y-88459D02*
X183888D01*
X185487Y-90059D01*
Y-87926D01*
X216535Y-96457D02*
X213336D01*
Y-94857D01*
X213870Y-94324D01*
X214936D01*
X215469Y-94857D01*
Y-96457D01*
Y-95390D02*
X216535Y-94324D01*
Y-93258D02*
Y-92191D01*
Y-92725D01*
X213336D01*
X213870Y-93258D01*
X213336Y-88459D02*
Y-90592D01*
X214936D01*
X214403Y-89526D01*
Y-88992D01*
X214936Y-88459D01*
X216002D01*
X216535Y-88992D01*
Y-90059D01*
X216002Y-90592D01*
X218258Y-96457D02*
X221457D01*
Y-94857D01*
X220923Y-94324D01*
X218791D01*
X218258Y-94857D01*
Y-96457D01*
X218791Y-91125D02*
X218258Y-91658D01*
Y-92725D01*
X218791Y-93258D01*
X219324D01*
X219857Y-92725D01*
Y-91658D01*
X220390Y-91125D01*
X220923D01*
X221457Y-91658D01*
Y-92725D01*
X220923Y-93258D01*
X218258Y-87926D02*
Y-90059D01*
X219857D01*
X219324Y-88992D01*
Y-88459D01*
X219857Y-87926D01*
X220923D01*
X221457Y-88459D01*
Y-89526D01*
X220923Y-90059D01*
X240945Y-107283D02*
X237746D01*
Y-105684D01*
X238279Y-105151D01*
X239345D01*
X239879Y-105684D01*
Y-107283D01*
Y-106217D02*
X240945Y-105151D01*
Y-104085D02*
Y-103018D01*
Y-103551D01*
X237746D01*
X238279Y-104085D01*
Y-101419D02*
X237746Y-100885D01*
Y-99819D01*
X238279Y-99286D01*
X240412D01*
X240945Y-99819D01*
Y-100885D01*
X240412Y-101419D01*
X238279D01*
X239854Y-62828D02*
X239321Y-63361D01*
Y-64428D01*
X239854Y-64961D01*
X241986D01*
X242520Y-64428D01*
Y-63361D01*
X241986Y-62828D01*
X242520Y-59629D02*
Y-61762D01*
X240387Y-59629D01*
X239854D01*
X239321Y-60162D01*
Y-61229D01*
X239854Y-61762D01*
X227452Y-62828D02*
X226919Y-63361D01*
Y-64428D01*
X227452Y-64961D01*
X229585D01*
X230118Y-64428D01*
Y-63361D01*
X229585Y-62828D01*
X230118Y-60162D02*
X226919D01*
X228519Y-61762D01*
Y-59629D01*
X215700Y-62828D02*
X215167Y-63361D01*
Y-64428D01*
X215700Y-64961D01*
X217833D01*
X218366Y-64428D01*
Y-63361D01*
X217833Y-62828D01*
X215700Y-61762D02*
X215167Y-61229D01*
Y-60162D01*
X215700Y-59629D01*
X216234D01*
X216767Y-60162D01*
Y-60695D01*
Y-60162D01*
X217300Y-59629D01*
X217833D01*
X218366Y-60162D01*
Y-61229D01*
X217833Y-61762D01*
X203043Y-62267D02*
X202510Y-62801D01*
Y-63867D01*
X203043Y-64400D01*
X205175D01*
X205709Y-63867D01*
Y-62801D01*
X205175Y-62267D01*
X205709Y-61201D02*
Y-60135D01*
Y-60668D01*
X202510D01*
X203043Y-61201D01*
X239337Y-202059D02*
X238804Y-201525D01*
X237738D01*
X237205Y-202059D01*
Y-204191D01*
X237738Y-204724D01*
X238804D01*
X239337Y-204191D01*
X240404Y-204724D02*
X241470D01*
X240937D01*
Y-201525D01*
X240404Y-202059D01*
X243070D02*
X243603Y-201525D01*
X244669D01*
X245202Y-202059D01*
Y-204191D01*
X244669Y-204724D01*
X243603D01*
X243070Y-204191D01*
Y-202059D01*
X239337Y-197137D02*
X238804Y-196604D01*
X237738D01*
X237205Y-197137D01*
Y-199270D01*
X237738Y-199803D01*
X238804D01*
X239337Y-199270D01*
X240404D02*
X240937Y-199803D01*
X242003D01*
X242536Y-199270D01*
Y-197137D01*
X242003Y-196604D01*
X240937D01*
X240404Y-197137D01*
Y-197670D01*
X240937Y-198204D01*
X242536D01*
X239337Y-206980D02*
X238804Y-206447D01*
X237738D01*
X237205Y-206980D01*
Y-209113D01*
X237738Y-209646D01*
X238804D01*
X239337Y-209113D01*
X240404Y-209646D02*
X241470D01*
X240937D01*
Y-206447D01*
X240404Y-206980D01*
X243070Y-209646D02*
X244136D01*
X243603D01*
Y-206447D01*
X243070Y-206980D01*
X237205Y-194882D02*
Y-191683D01*
X238804D01*
X239337Y-192216D01*
Y-193282D01*
X238804Y-193816D01*
X237205D01*
X238271D02*
X239337Y-194882D01*
X240404Y-194349D02*
X240937Y-194882D01*
X242003D01*
X242536Y-194349D01*
Y-192216D01*
X242003Y-191683D01*
X240937D01*
X240404Y-192216D01*
Y-192749D01*
X240937Y-193282D01*
X242536D01*
X150591Y-110088D02*
Y-113287D01*
X152190D01*
X152723Y-112754D01*
Y-110622D01*
X152190Y-110088D01*
X150591D01*
X155922Y-113287D02*
X153789D01*
X155922Y-111155D01*
Y-110622D01*
X155389Y-110088D01*
X154323D01*
X153789Y-110622D01*
X128240Y-133694D02*
X127707Y-134227D01*
Y-135294D01*
X128240Y-135827D01*
X130372D01*
X130906Y-135294D01*
Y-134227D01*
X130372Y-133694D01*
X130906Y-132628D02*
Y-131562D01*
Y-132095D01*
X127707D01*
X128240Y-132628D01*
X130906Y-128363D02*
X127707D01*
X129306Y-129962D01*
Y-127829D01*
X137344Y-133694D02*
X136811Y-134227D01*
Y-135294D01*
X137344Y-135827D01*
X139477D01*
X140010Y-135294D01*
Y-134227D01*
X139477Y-133694D01*
X140010Y-132628D02*
Y-131562D01*
Y-132095D01*
X136811D01*
X137344Y-132628D01*
Y-129962D02*
X136811Y-129429D01*
Y-128363D01*
X137344Y-127829D01*
X137877D01*
X138410Y-128363D01*
Y-128896D01*
Y-128363D01*
X138944Y-127829D01*
X139477D01*
X140010Y-128363D01*
Y-129429D01*
X139477Y-129962D01*
X119362Y-133989D02*
X118829Y-134522D01*
Y-135589D01*
X119362Y-136122D01*
X121494D01*
X122028Y-135589D01*
Y-134522D01*
X121494Y-133989D01*
X122028Y-132923D02*
Y-131857D01*
Y-132390D01*
X118829D01*
X119362Y-132923D01*
X118829Y-128125D02*
Y-130257D01*
X120428D01*
X119895Y-129191D01*
Y-128658D01*
X120428Y-128125D01*
X121494D01*
X122028Y-128658D01*
Y-129724D01*
X121494Y-130257D01*
X112205Y-141394D02*
Y-138195D01*
X113804D01*
X114337Y-138728D01*
Y-139794D01*
X113804Y-140327D01*
X112205D01*
X113271D02*
X114337Y-141394D01*
X115404D02*
X116470D01*
X115937D01*
Y-138195D01*
X115404Y-138728D01*
X120202Y-141394D02*
X118070D01*
X120202Y-139261D01*
Y-138728D01*
X119669Y-138195D01*
X118603D01*
X118070Y-138728D01*
X109933Y-133989D02*
X109399Y-134522D01*
Y-135589D01*
X109933Y-136122D01*
X112065D01*
X112598Y-135589D01*
Y-134522D01*
X112065Y-133989D01*
X112598Y-132923D02*
Y-131857D01*
Y-132390D01*
X109399D01*
X109933Y-132923D01*
X109399Y-128125D02*
X109933Y-129191D01*
X110999Y-130257D01*
X112065D01*
X112598Y-129724D01*
Y-128658D01*
X112065Y-128125D01*
X111532D01*
X110999Y-128658D01*
Y-130257D01*
X90838Y-117749D02*
X90305Y-118282D01*
Y-119349D01*
X90838Y-119882D01*
X92971D01*
X93504Y-119349D01*
Y-118282D01*
X92971Y-117749D01*
X93504Y-114550D02*
Y-116683D01*
X91371Y-114550D01*
X90838D01*
X90305Y-115083D01*
Y-116150D01*
X90838Y-116683D01*
X90305Y-111351D02*
X90838Y-112417D01*
X91904Y-113484D01*
X92971D01*
X93504Y-112951D01*
Y-111884D01*
X92971Y-111351D01*
X92438D01*
X91904Y-111884D01*
Y-113484D01*
X86778Y-126797D02*
X86245Y-126264D01*
X85179D01*
X84646Y-126797D01*
Y-128930D01*
X85179Y-129463D01*
X86245D01*
X86778Y-128930D01*
X89977Y-129463D02*
X87845D01*
X89977Y-127331D01*
Y-126797D01*
X89444Y-126264D01*
X88378D01*
X87845Y-126797D01*
X92643Y-129463D02*
Y-126264D01*
X91044Y-127864D01*
X93176D01*
X65945Y-130659D02*
Y-133858D01*
X67544D01*
X68077Y-133325D01*
Y-131193D01*
X67544Y-130659D01*
X65945D01*
X69144Y-131193D02*
X69677Y-130659D01*
X70743D01*
X71276Y-131193D01*
Y-131726D01*
X70743Y-132259D01*
X70210D01*
X70743D01*
X71276Y-132792D01*
Y-133325D01*
X70743Y-133858D01*
X69677D01*
X69144Y-133325D01*
X86778Y-122137D02*
X86245Y-121604D01*
X85179D01*
X84646Y-122137D01*
Y-124270D01*
X85179Y-124803D01*
X86245D01*
X86778Y-124270D01*
X89977Y-124803D02*
X87845D01*
X89977Y-122670D01*
Y-122137D01*
X89444Y-121604D01*
X88378D01*
X87845Y-122137D01*
X93176Y-121604D02*
X91044D01*
Y-123204D01*
X92110Y-122670D01*
X92643D01*
X93176Y-123204D01*
Y-124270D01*
X92643Y-124803D01*
X91577D01*
X91044Y-124270D01*
X134744Y-75541D02*
Y-78207D01*
X135277Y-78740D01*
X136344D01*
X136877Y-78207D01*
Y-75541D01*
X137943Y-76074D02*
X138476Y-75541D01*
X139542D01*
X140076Y-76074D01*
Y-76608D01*
X139542Y-77141D01*
X139009D01*
X139542D01*
X140076Y-77674D01*
Y-78207D01*
X139542Y-78740D01*
X138476D01*
X137943Y-78207D01*
X237098Y-127789D02*
X236565Y-128322D01*
Y-129388D01*
X237098Y-129921D01*
X239231D01*
X239764Y-129388D01*
Y-128322D01*
X239231Y-127789D01*
X239764Y-126722D02*
Y-125656D01*
Y-126189D01*
X236565D01*
X237098Y-126722D01*
X239764Y-121924D02*
Y-124056D01*
X237631Y-121924D01*
X237098D01*
X236565Y-122457D01*
Y-123523D01*
X237098Y-124056D01*
X108000Y-147301D02*
Y-149967D01*
X108533Y-150500D01*
X109599D01*
X110133Y-149967D01*
Y-147301D01*
X113332Y-150500D02*
X111199D01*
X113332Y-148367D01*
Y-147834D01*
X112799Y-147301D01*
X111732D01*
X111199Y-147834D01*
X136433Y-178534D02*
X135899Y-178001D01*
X134833D01*
X134300Y-178534D01*
Y-180667D01*
X134833Y-181200D01*
X135899D01*
X136433Y-180667D01*
X139632Y-181200D02*
X137499D01*
X139632Y-179067D01*
Y-178534D01*
X139099Y-178001D01*
X138032D01*
X137499Y-178534D01*
X140698D02*
X141231Y-178001D01*
X142297D01*
X142831Y-178534D01*
Y-179067D01*
X142297Y-179601D01*
X142831Y-180134D01*
Y-180667D01*
X142297Y-181200D01*
X141231D01*
X140698Y-180667D01*
Y-180134D01*
X141231Y-179601D01*
X140698Y-179067D01*
Y-178534D01*
X141231Y-179601D02*
X142297D01*
X127533Y-178534D02*
X126999Y-178001D01*
X125933D01*
X125400Y-178534D01*
Y-180667D01*
X125933Y-181200D01*
X126999D01*
X127533Y-180667D01*
X130732Y-181200D02*
X128599D01*
X130732Y-179067D01*
Y-178534D01*
X130199Y-178001D01*
X129132D01*
X128599Y-178534D01*
X131798Y-178001D02*
X133931D01*
Y-178534D01*
X131798Y-180667D01*
Y-181200D01*
X109833Y-178534D02*
X109300Y-178001D01*
X108233D01*
X107700Y-178534D01*
Y-180667D01*
X108233Y-181200D01*
X109300D01*
X109833Y-180667D01*
X113032Y-181200D02*
X110899D01*
X113032Y-179067D01*
Y-178534D01*
X112498Y-178001D01*
X111432D01*
X110899Y-178534D01*
X114098D02*
X114631Y-178001D01*
X115697D01*
X116231Y-178534D01*
Y-179067D01*
X115697Y-179601D01*
X115164D01*
X115697D01*
X116231Y-180134D01*
Y-180667D01*
X115697Y-181200D01*
X114631D01*
X114098Y-180667D01*
X118433Y-178534D02*
X117900Y-178001D01*
X116833D01*
X116300Y-178534D01*
Y-180667D01*
X116833Y-181200D01*
X117900D01*
X118433Y-180667D01*
X121632Y-181200D02*
X119499D01*
X121632Y-179067D01*
Y-178534D01*
X121098Y-178001D01*
X120032D01*
X119499Y-178534D01*
X124831Y-181200D02*
X122698D01*
X124831Y-179067D01*
Y-178534D01*
X124297Y-178001D01*
X123231D01*
X122698Y-178534D01*
D14*
X121850Y-27461D02*
X125000D01*
X110039D02*
X113189D01*
X237598Y-4823D02*
X240748D01*
X186024Y-98484D02*
X189173D01*
X215217D02*
X218366D01*
D15*
X152551Y-115133D02*
X162394D01*
X152551Y-116117D02*
Y-115133D01*
X218496D02*
X228339D01*
Y-117102D02*
Y-115133D01*
X152551Y-216511D02*
Y-185015D01*
Y-216511D02*
X228339D01*
Y-186983D01*
D16*
X291339Y-120140D02*
Y-116808D01*
X290672Y-116142D01*
X289339D01*
X288673Y-116808D01*
Y-120140D01*
X284674Y-116142D02*
X287340D01*
X284674Y-118807D01*
Y-119474D01*
X285340Y-120140D01*
X286673D01*
X287340Y-119474D01*
X289370Y-72896D02*
Y-69564D01*
X288704Y-68898D01*
X287371D01*
X286704Y-69564D01*
Y-72896D01*
X285371Y-72230D02*
X284705Y-72896D01*
X283372D01*
X282706Y-72230D01*
Y-71563D01*
X283372Y-70897D01*
X284038D01*
X283372D01*
X282706Y-70231D01*
Y-69564D01*
X283372Y-68898D01*
X284705D01*
X285371Y-69564D01*
D17*
X184251Y-82677D02*
D03*
M02*
