G04*
G04 #@! TF.GenerationSoftware,Altium Limited,Altium Designer,18.1.7 (191)*
G04*
G04 Layer_Color=32768*
%FSLAX25Y25*%
%MOIN*%
G70*
G01*
G75*
%ADD74C,0.00394*%
%ADD75C,0.00197*%
D74*
X161417Y-31536D02*
X165355D01*
X163386Y-33504D02*
Y-29567D01*
X64370Y-194882D02*
Y-190945D01*
X62402Y-192913D02*
X66339D01*
X64370Y-203740D02*
Y-199803D01*
X62402Y-201772D02*
X66339D01*
X76181Y-199803D02*
X80118D01*
X78150Y-201772D02*
Y-197835D01*
X163780Y-18701D02*
Y-14764D01*
X161811Y-16732D02*
X165748D01*
X139173Y-14764D02*
X143110D01*
X141142Y-16732D02*
Y-12795D01*
X130315Y-14764D02*
X134252D01*
X132283Y-16732D02*
Y-12795D01*
X121063Y-14764D02*
X125000D01*
X123032Y-16732D02*
Y-12795D01*
X110433Y-14764D02*
X114370D01*
X112402Y-16732D02*
Y-12795D01*
X123425Y-34449D02*
Y-32480D01*
X122441Y-33465D02*
X124409D01*
X111614Y-34449D02*
Y-32480D01*
X110630Y-33465D02*
X112598D01*
X121457Y-48228D02*
X125394D01*
X123425Y-50197D02*
Y-46260D01*
X109646Y-48228D02*
X113583D01*
X111614Y-50197D02*
Y-46260D01*
X120472Y-74178D02*
Y-70241D01*
X118504Y-72210D02*
X122441D01*
X211614Y-53150D02*
Y-49213D01*
X209646Y-51181D02*
X213583D01*
X234843Y-53150D02*
Y-49213D01*
X232874Y-51181D02*
X236811D01*
X235236Y-39370D02*
X239173D01*
X237205Y-41339D02*
Y-37402D01*
X237598Y-25482D02*
X241535D01*
X239567Y-27451D02*
Y-23514D01*
X239173Y-11811D02*
Y-9843D01*
X238189Y-10827D02*
X240157D01*
X215945Y-25591D02*
Y-21654D01*
X213976Y-23622D02*
X217913D01*
X192913Y-16732D02*
X196850D01*
X194882Y-18701D02*
Y-14764D01*
X184055Y-16732D02*
X187992D01*
X186024Y-18701D02*
Y-14764D01*
X162795Y-38386D02*
X166732D01*
X164764Y-40354D02*
Y-36417D01*
X151969Y-38386D02*
X155906D01*
X153937Y-40354D02*
Y-36417D01*
X177362Y-61028D02*
X181299D01*
X179331Y-62996D02*
Y-59059D01*
X181496Y-82677D02*
X185433D01*
X183465Y-84646D02*
Y-80709D01*
Y-73819D02*
Y-69882D01*
X181496Y-71850D02*
X185433D01*
X175197Y-100787D02*
X179134D01*
X177165Y-102756D02*
Y-98819D01*
X194882Y-100787D02*
X198819D01*
X196850Y-102756D02*
Y-98819D01*
X187598Y-105472D02*
Y-103504D01*
X186614Y-104488D02*
X188583D01*
X206102Y-100787D02*
X210039D01*
X208071Y-102756D02*
Y-98819D01*
X216791Y-105472D02*
Y-103504D01*
X215807Y-104488D02*
X217776D01*
X230787Y-100787D02*
X234724D01*
X232756Y-102756D02*
Y-98819D01*
X237205Y-75787D02*
X241142D01*
X239173Y-77756D02*
Y-73819D01*
X224803Y-75787D02*
X228740D01*
X226772Y-77756D02*
Y-73819D01*
X212008Y-75787D02*
X215945D01*
X213976Y-77756D02*
Y-73819D01*
X199213Y-75787D02*
X203150D01*
X201181Y-77756D02*
Y-73819D01*
X241535Y-179626D02*
Y-175689D01*
X239567Y-177657D02*
X243504D01*
X241535Y-171752D02*
Y-167815D01*
X239567Y-169783D02*
X243504D01*
X241535Y-188484D02*
Y-184547D01*
X239567Y-186516D02*
X243504D01*
X241142Y-162402D02*
Y-158465D01*
X239173Y-160433D02*
X243110D01*
X127362Y-116142D02*
X131299D01*
X129331Y-118110D02*
Y-114173D01*
X136220Y-116142D02*
X140157D01*
X138189Y-118110D02*
Y-114173D01*
X118504Y-116142D02*
X122441D01*
X120472Y-118110D02*
Y-114173D01*
X119095Y-148031D02*
Y-144094D01*
X117126Y-146063D02*
X121063D01*
X109449Y-116142D02*
X113386D01*
X111417Y-118110D02*
Y-114173D01*
X76181Y-122047D02*
X80118D01*
X78150Y-124016D02*
Y-120079D01*
X64370Y-126968D02*
Y-123031D01*
X62402Y-125000D02*
X66339D01*
X64370Y-117717D02*
Y-113780D01*
X62402Y-115748D02*
X66339D01*
X125394Y-95472D02*
Y-91535D01*
X123425Y-93504D02*
X127362D01*
X236221Y-143952D02*
X240158D01*
X238189Y-145921D02*
Y-141983D01*
X122441Y-168307D02*
X126378D01*
X124409Y-170276D02*
Y-166339D01*
X110974Y-192913D02*
Y-188976D01*
X109006Y-190945D02*
X112943D01*
X119567Y-192913D02*
Y-188976D01*
X117598Y-190945D02*
X121535D01*
X137549Y-192913D02*
Y-188976D01*
X135581Y-190945D02*
X139518D01*
X128691Y-192913D02*
Y-188976D01*
X126722Y-190945D02*
X130659D01*
D75*
X192894Y-63425D02*
Y354D01*
X133878D02*
X192894D01*
X133878Y-63425D02*
Y354D01*
Y-63425D02*
X192894D01*
X57480Y-196850D02*
X71260D01*
X57480Y-188976D02*
X71260D01*
Y-196850D02*
Y-188976D01*
X57480Y-196850D02*
Y-188976D01*
Y-205709D02*
X71260D01*
X57480Y-197835D02*
X71260D01*
Y-205709D02*
Y-197835D01*
X57480Y-205709D02*
Y-197835D01*
X83858Y-210827D02*
Y-188780D01*
X72441Y-210827D02*
Y-188780D01*
X83858D01*
X72441Y-210827D02*
X83858D01*
X147244Y-28740D02*
X180315D01*
X147244Y-4724D02*
X180315D01*
Y-28740D02*
Y-4724D01*
X147244Y-28740D02*
Y-4724D01*
X145079Y-21654D02*
Y-7874D01*
X137205Y-21654D02*
Y-7874D01*
X145079D01*
X137205Y-21654D02*
X145079D01*
X136220D02*
Y-7874D01*
X128346Y-21654D02*
Y-7874D01*
X136220D01*
X128346Y-21654D02*
X136220D01*
X118110Y-23425D02*
Y-6102D01*
X127953Y-23425D02*
Y-6102D01*
X118110Y-23425D02*
X127953D01*
X118110Y-6102D02*
X127953D01*
X107480Y-23425D02*
Y-6102D01*
X117323Y-23425D02*
Y-6102D01*
X107480Y-23425D02*
X117323D01*
X107480Y-6102D02*
X117323D01*
X125394Y-37894D02*
Y-29035D01*
X121457D02*
X125394D01*
X121457Y-37894D02*
Y-29035D01*
Y-37894D02*
X125394D01*
X113583D02*
Y-29035D01*
X109646D02*
X113583D01*
X109646Y-37894D02*
Y-29035D01*
Y-37894D02*
X113583D01*
X118504Y-56890D02*
Y-39567D01*
X128346Y-56890D02*
Y-39567D01*
X118504Y-56890D02*
X128346D01*
X118504Y-39567D02*
X128346D01*
X106693Y-56890D02*
Y-39567D01*
X116535Y-56890D02*
Y-39567D01*
X106693Y-56890D02*
X116535D01*
X106693Y-39567D02*
X116535D01*
X111811Y-67289D02*
X129134D01*
X111811Y-77131D02*
X129134D01*
X111811D02*
Y-67289D01*
X129134Y-77131D02*
Y-67289D01*
X200591Y-56890D02*
X222638D01*
X200591Y-45472D02*
X222638D01*
Y-56890D02*
Y-45472D01*
X200591Y-56890D02*
Y-45472D01*
X223819D02*
X245866D01*
X223819Y-56890D02*
X245866D01*
X223819D02*
Y-45472D01*
X245866Y-56890D02*
Y-45472D01*
X242520Y-42717D02*
Y-36024D01*
X231890Y-42717D02*
Y-36024D01*
Y-42717D02*
X242520D01*
X231890Y-36024D02*
X242520D01*
X234646Y-34144D02*
Y-16821D01*
X244488Y-34144D02*
Y-16821D01*
X234646Y-34144D02*
X244488D01*
X234646Y-16821D02*
X244488D01*
X241142Y-15256D02*
Y-6398D01*
X237205D02*
X241142D01*
X237205Y-15256D02*
Y-6398D01*
Y-15256D02*
X241142D01*
X200787Y-42520D02*
X231102D01*
X200787Y-4724D02*
X231102D01*
X200787Y-42520D02*
Y-4724D01*
X231102Y-42520D02*
Y-4724D01*
X190945Y-23622D02*
Y-9843D01*
X198819Y-23622D02*
Y-9843D01*
X190945Y-23622D02*
X198819D01*
X190945Y-9843D02*
X198819D01*
X182087Y-23622D02*
Y-9843D01*
X189961Y-23622D02*
Y-9843D01*
X182087Y-23622D02*
X189961D01*
X182087Y-9843D02*
X189961D01*
X169685Y-47047D02*
Y-29724D01*
X159843Y-47047D02*
Y-29724D01*
X169685D01*
X159843Y-47047D02*
X169685D01*
X158858D02*
Y-29724D01*
X149016Y-47047D02*
Y-29724D01*
X158858D01*
X149016Y-47047D02*
X158858D01*
X174016Y-64374D02*
Y-57681D01*
X184646Y-64374D02*
Y-57681D01*
X174016D02*
X184646D01*
X174016Y-64374D02*
X184646D01*
X174823Y-86220D02*
X192106D01*
Y-79134D01*
X174823Y-86220D02*
Y-79134D01*
X192106D01*
X174803Y-76772D02*
X192126D01*
X174803Y-66929D02*
X192126D01*
Y-76772D02*
Y-66929D01*
X174803Y-76772D02*
Y-66929D01*
X172244Y-109449D02*
Y-92126D01*
X182087Y-109449D02*
Y-92126D01*
X172244Y-109449D02*
X182087D01*
X172244Y-92126D02*
X182087D01*
X191929Y-109449D02*
Y-92126D01*
X201772Y-109449D02*
Y-92126D01*
X191929Y-109449D02*
X201772D01*
X191929Y-92126D02*
X201772D01*
X189567Y-108917D02*
Y-100059D01*
X185630D02*
X189567D01*
X185630Y-108917D02*
Y-100059D01*
Y-108917D02*
X189567D01*
X203150Y-109449D02*
Y-92126D01*
X212992Y-109449D02*
Y-92126D01*
X203150Y-109449D02*
X212992D01*
X203150Y-92126D02*
X212992D01*
X218760Y-108917D02*
Y-100059D01*
X214823D02*
X218760D01*
X214823Y-108917D02*
Y-100059D01*
Y-108917D02*
X218760D01*
X227835Y-109449D02*
Y-92126D01*
X237677Y-109449D02*
Y-92126D01*
X227835Y-109449D02*
X237677D01*
X227835Y-92126D02*
X237677D01*
X244882Y-86811D02*
Y-64764D01*
X233465Y-86811D02*
Y-64764D01*
X244882D01*
X233465Y-86811D02*
X244882D01*
X232480D02*
Y-64764D01*
X221063Y-86811D02*
Y-64764D01*
X232480D01*
X221063Y-86811D02*
X232480D01*
X219685D02*
Y-64764D01*
X208268Y-86811D02*
Y-64764D01*
X219685D01*
X208268Y-86811D02*
X219685D01*
X206890D02*
Y-64764D01*
X195472Y-86811D02*
Y-64764D01*
X206890D01*
X195472Y-86811D02*
X206890D01*
X234646Y-173720D02*
X248425D01*
X234646Y-181595D02*
X248425D01*
X234646D02*
Y-173720D01*
X248425Y-181595D02*
Y-173720D01*
X234646Y-165846D02*
X248425D01*
X234646Y-173720D02*
X248425D01*
X234646D02*
Y-165846D01*
X248425Y-173720D02*
Y-165846D01*
X234646Y-182579D02*
X248425D01*
X234646Y-190453D02*
X248425D01*
X234646D02*
Y-182579D01*
X248425Y-190453D02*
Y-182579D01*
X232480Y-165354D02*
X249803D01*
X232480Y-155512D02*
X249803D01*
Y-165354D02*
Y-155512D01*
X232480Y-165354D02*
Y-155512D01*
X133268Y-123031D02*
Y-109252D01*
X125394Y-123031D02*
Y-109252D01*
X133268D01*
X125394Y-123031D02*
X133268D01*
X142126D02*
Y-109252D01*
X134252Y-123031D02*
Y-109252D01*
X142126D01*
X134252Y-123031D02*
X142126D01*
X124409D02*
Y-109252D01*
X116535Y-123031D02*
Y-109252D01*
X124409D01*
X116535Y-123031D02*
X124409D01*
X110433Y-141142D02*
X127756D01*
X110433Y-150984D02*
X127756D01*
X110433D02*
Y-141142D01*
X127756Y-150984D02*
Y-141142D01*
X115354Y-123031D02*
Y-109252D01*
X107480Y-123031D02*
Y-109252D01*
X115354D01*
X107480Y-123031D02*
X115354D01*
X83858Y-133071D02*
Y-111024D01*
X72441Y-133071D02*
Y-111024D01*
X83858D01*
X72441Y-133071D02*
X83858D01*
X57480Y-128937D02*
X71260D01*
X57480Y-121063D02*
X71260D01*
Y-128937D02*
Y-121063D01*
X57480Y-128937D02*
Y-121063D01*
Y-119685D02*
X71260D01*
X57480Y-111811D02*
X71260D01*
Y-119685D02*
Y-111811D01*
X57480Y-119685D02*
Y-111811D01*
X108268Y-78543D02*
X142520D01*
X108268Y-108465D02*
X142520D01*
X108268D02*
Y-78543D01*
X142520Y-108465D02*
Y-78543D01*
X232480Y-154976D02*
Y-132928D01*
X243898Y-154976D02*
Y-132928D01*
X232480Y-154976D02*
X243898D01*
X232480Y-132928D02*
X243898D01*
X141535Y-183268D02*
Y-153346D01*
X107283Y-183268D02*
Y-153346D01*
Y-183268D02*
X141535D01*
X107283Y-153346D02*
X141535D01*
X107037Y-197835D02*
X114911D01*
X107037Y-184055D02*
X114911D01*
X107037Y-197835D02*
Y-184055D01*
X114911Y-197835D02*
Y-184055D01*
X115630Y-197835D02*
X123504D01*
X115630Y-184055D02*
X123504D01*
X115630Y-197835D02*
Y-184055D01*
X123504Y-197835D02*
Y-184055D01*
X133612Y-197835D02*
X141486D01*
X133612Y-184055D02*
X141486D01*
X133612Y-197835D02*
Y-184055D01*
X141486Y-197835D02*
Y-184055D01*
X124754Y-197835D02*
X132628D01*
X124754Y-184055D02*
X132628D01*
X124754Y-197835D02*
Y-184055D01*
X132628Y-197835D02*
Y-184055D01*
M02*
