G04*
G04 #@! TF.GenerationSoftware,Altium Limited,Altium Designer,18.1.7 (191)*
G04*
G04 Layer_Color=32896*
%FSLAX25Y25*%
%MOIN*%
G70*
G01*
G75*
%ADD11C,0.00984*%
%ADD12C,0.00787*%
%ADD66C,0.01000*%
G36*
X244495Y-206663D02*
X243878D01*
Y-205959D01*
X244495D01*
Y-206663D01*
D02*
G37*
G36*
X221803D02*
X221186D01*
Y-205959D01*
X221803D01*
Y-206663D01*
D02*
G37*
G36*
X233160Y-210999D02*
X232587D01*
Y-210545D01*
X232516Y-210638D01*
X232439Y-210720D01*
X232357Y-210791D01*
X232276Y-210857D01*
X232188Y-210906D01*
X232106Y-210949D01*
X232024Y-210988D01*
X231942Y-211015D01*
X231872Y-211037D01*
X231801Y-211053D01*
X231735Y-211064D01*
X231680Y-211070D01*
X231637Y-211075D01*
X231604Y-211081D01*
X231577D01*
X231456Y-211075D01*
X231342Y-211059D01*
X231233Y-211031D01*
X231129Y-210999D01*
X231031Y-210960D01*
X230938Y-210922D01*
X230856Y-210873D01*
X230774Y-210824D01*
X230709Y-210780D01*
X230643Y-210731D01*
X230588Y-210693D01*
X230545Y-210649D01*
X230512Y-210622D01*
X230485Y-210595D01*
X230468Y-210578D01*
X230463Y-210573D01*
X230381Y-210469D01*
X230310Y-210365D01*
X230244Y-210251D01*
X230190Y-210131D01*
X230146Y-210010D01*
X230108Y-209885D01*
X230075Y-209770D01*
X230053Y-209655D01*
X230031Y-209546D01*
X230020Y-209442D01*
X230010Y-209355D01*
X229999Y-209273D01*
Y-209208D01*
X229993Y-209164D01*
Y-209131D01*
Y-209120D01*
X229999Y-208973D01*
X230010Y-208837D01*
X230031Y-208711D01*
X230048Y-208602D01*
X230059Y-208553D01*
X230070Y-208509D01*
X230081Y-208471D01*
X230092Y-208438D01*
X230097Y-208411D01*
X230102Y-208394D01*
X230108Y-208383D01*
Y-208378D01*
X230152Y-208252D01*
X230201Y-208138D01*
X230250Y-208034D01*
X230299Y-207946D01*
X230348Y-207881D01*
X230381Y-207826D01*
X230403Y-207794D01*
X230414Y-207783D01*
X230490Y-207695D01*
X230572Y-207619D01*
X230654Y-207553D01*
X230730Y-207499D01*
X230801Y-207455D01*
X230856Y-207428D01*
X230878Y-207417D01*
X230894Y-207406D01*
X230900Y-207400D01*
X230905D01*
X231020Y-207357D01*
X231129Y-207324D01*
X231238Y-207297D01*
X231336Y-207280D01*
X231418Y-207270D01*
X231456D01*
X231484Y-207264D01*
X231544D01*
X231653Y-207270D01*
X231762Y-207286D01*
X231860Y-207308D01*
X231959Y-207340D01*
X232046Y-207379D01*
X232128Y-207417D01*
X232205Y-207466D01*
X232270Y-207510D01*
X232336Y-207553D01*
X232390Y-207597D01*
X232434Y-207641D01*
X232472Y-207679D01*
X232505Y-207712D01*
X232527Y-207734D01*
X232538Y-207750D01*
X232543Y-207755D01*
Y-205959D01*
X233160D01*
Y-210999D01*
D02*
G37*
G36*
X240984D02*
X240367D01*
Y-209006D01*
X240362Y-208853D01*
X240351Y-208716D01*
X240335Y-208602D01*
X240318Y-208509D01*
X240302Y-208432D01*
X240285Y-208378D01*
X240280Y-208362D01*
X240274Y-208345D01*
X240269Y-208334D01*
X240225Y-208247D01*
X240171Y-208170D01*
X240116Y-208105D01*
X240056Y-208050D01*
X240007Y-208007D01*
X239963Y-207974D01*
X239936Y-207952D01*
X239925Y-207946D01*
X239832Y-207897D01*
X239739Y-207859D01*
X239652Y-207837D01*
X239576Y-207816D01*
X239505Y-207804D01*
X239450Y-207799D01*
X239406D01*
X239275Y-207810D01*
X239161Y-207832D01*
X239068Y-207865D01*
X238986Y-207903D01*
X238920Y-207946D01*
X238877Y-207979D01*
X238849Y-208001D01*
X238838Y-208012D01*
X238800Y-208056D01*
X238773Y-208099D01*
X238724Y-208209D01*
X238685Y-208318D01*
X238664Y-208432D01*
X238647Y-208531D01*
X238642Y-208574D01*
Y-208613D01*
X238636Y-208645D01*
Y-208667D01*
Y-208684D01*
Y-208689D01*
Y-210999D01*
X238019D01*
Y-208689D01*
Y-208591D01*
X238025Y-208498D01*
X238030Y-208411D01*
X238041Y-208334D01*
X238052Y-208258D01*
X238063Y-208192D01*
X238074Y-208132D01*
X238085Y-208078D01*
X238096Y-208028D01*
X238107Y-207985D01*
X238118Y-207952D01*
X238129Y-207919D01*
X238140Y-207897D01*
X238145Y-207881D01*
X238151Y-207875D01*
Y-207870D01*
X238205Y-207772D01*
X238271Y-207679D01*
X238347Y-207603D01*
X238412Y-207542D01*
X238478Y-207493D01*
X238533Y-207455D01*
X238555Y-207444D01*
X238571Y-207433D01*
X238576Y-207428D01*
X238582D01*
X238697Y-207373D01*
X238817Y-207335D01*
X238931Y-207302D01*
X239040Y-207286D01*
X239139Y-207275D01*
X239177Y-207270D01*
X239215Y-207264D01*
X239281D01*
X239401Y-207270D01*
X239515Y-207286D01*
X239625Y-207313D01*
X239728Y-207340D01*
X239821Y-207384D01*
X239914Y-207422D01*
X239996Y-207471D01*
X240067Y-207515D01*
X240138Y-207564D01*
X240198Y-207613D01*
X240247Y-207652D01*
X240291Y-207690D01*
X240323Y-207723D01*
X240345Y-207750D01*
X240362Y-207766D01*
X240367Y-207772D01*
Y-205959D01*
X240984D01*
Y-210999D01*
D02*
G37*
G36*
X247252Y-207275D02*
X247411Y-207302D01*
X247553Y-207340D01*
X247618Y-207362D01*
X247678Y-207384D01*
X247733Y-207411D01*
X247776Y-207433D01*
X247820Y-207455D01*
X247853Y-207471D01*
X247880Y-207488D01*
X247902Y-207499D01*
X247913Y-207504D01*
X247918Y-207510D01*
X248044Y-207608D01*
X248159Y-207717D01*
X248252Y-207832D01*
X248328Y-207941D01*
X248388Y-208039D01*
X248415Y-208083D01*
X248432Y-208121D01*
X248448Y-208149D01*
X248459Y-208170D01*
X248470Y-208187D01*
Y-208192D01*
X248530Y-208362D01*
X248579Y-208531D01*
X248612Y-208689D01*
X248634Y-208837D01*
X248639Y-208908D01*
X248645Y-208967D01*
X248650Y-209017D01*
Y-209066D01*
X248656Y-209104D01*
Y-209131D01*
Y-209148D01*
Y-209153D01*
X248650Y-209295D01*
X248639Y-209426D01*
X248617Y-209557D01*
X248590Y-209677D01*
X248563Y-209792D01*
X248524Y-209901D01*
X248486Y-209999D01*
X248448Y-210092D01*
X248410Y-210174D01*
X248377Y-210245D01*
X248339Y-210311D01*
X248311Y-210360D01*
X248284Y-210403D01*
X248262Y-210431D01*
X248252Y-210453D01*
X248246Y-210458D01*
X248164Y-210551D01*
X248077Y-210638D01*
X247984Y-210709D01*
X247886Y-210769D01*
X247793Y-210824D01*
X247694Y-210868D01*
X247596Y-210900D01*
X247503Y-210933D01*
X247416Y-210955D01*
X247340Y-210971D01*
X247263Y-210982D01*
X247203Y-210988D01*
X247148Y-210993D01*
X247110Y-210999D01*
X247078D01*
X246968Y-210993D01*
X246859Y-210977D01*
X246761Y-210955D01*
X246668Y-210922D01*
X246575Y-210889D01*
X246493Y-210846D01*
X246417Y-210807D01*
X246346Y-210758D01*
X246286Y-210715D01*
X246226Y-210671D01*
X246182Y-210633D01*
X246138Y-210600D01*
X246111Y-210567D01*
X246084Y-210545D01*
X246073Y-210529D01*
X246068Y-210524D01*
Y-210633D01*
Y-210731D01*
X246073Y-210818D01*
Y-210900D01*
X246078Y-210971D01*
Y-211037D01*
X246084Y-211091D01*
X246089Y-211141D01*
X246095Y-211184D01*
Y-211217D01*
X246100Y-211250D01*
X246106Y-211272D01*
Y-211288D01*
X246111Y-211299D01*
Y-211310D01*
X246149Y-211419D01*
X246199Y-211517D01*
X246253Y-211599D01*
X246302Y-211665D01*
X246357Y-211719D01*
X246395Y-211758D01*
X246422Y-211785D01*
X246428Y-211790D01*
X246433D01*
X246526Y-211850D01*
X246635Y-211889D01*
X246744Y-211921D01*
X246848Y-211943D01*
X246947Y-211954D01*
X246985Y-211960D01*
X247023D01*
X247050Y-211965D01*
X247094D01*
X247236Y-211960D01*
X247361Y-211938D01*
X247465Y-211910D01*
X247558Y-211878D01*
X247629Y-211845D01*
X247678Y-211818D01*
X247711Y-211796D01*
X247722Y-211790D01*
X247782Y-211736D01*
X247826Y-211670D01*
X247864Y-211605D01*
X247891Y-211534D01*
X247907Y-211474D01*
X247918Y-211424D01*
X247929Y-211392D01*
Y-211386D01*
Y-211381D01*
X248530Y-211299D01*
Y-211408D01*
X248519Y-211506D01*
X248503Y-211599D01*
X248475Y-211687D01*
X248448Y-211763D01*
X248415Y-211840D01*
X248382Y-211905D01*
X248344Y-211960D01*
X248306Y-212014D01*
X248273Y-212058D01*
X248240Y-212096D01*
X248208Y-212129D01*
X248186Y-212151D01*
X248164Y-212167D01*
X248153Y-212178D01*
X248148Y-212183D01*
X248071Y-212233D01*
X247984Y-212282D01*
X247902Y-212320D01*
X247809Y-212353D01*
X247635Y-212407D01*
X247465Y-212440D01*
X247389Y-212451D01*
X247318Y-212462D01*
X247252Y-212467D01*
X247198Y-212473D01*
X247154Y-212478D01*
X247089D01*
X246892Y-212467D01*
X246712Y-212445D01*
X246630Y-212429D01*
X246559Y-212413D01*
X246488Y-212396D01*
X246422Y-212374D01*
X246362Y-212353D01*
X246313Y-212336D01*
X246269Y-212320D01*
X246231Y-212304D01*
X246204Y-212287D01*
X246182Y-212282D01*
X246171Y-212271D01*
X246166D01*
X246035Y-212189D01*
X245920Y-212096D01*
X245827Y-212003D01*
X245751Y-211910D01*
X245691Y-211834D01*
X245647Y-211769D01*
X245631Y-211741D01*
X245620Y-211725D01*
X245614Y-211714D01*
Y-211708D01*
X245582Y-211637D01*
X245554Y-211556D01*
X245532Y-211463D01*
X245511Y-211370D01*
X245483Y-211168D01*
X245461Y-210971D01*
X245456Y-210878D01*
X245450Y-210791D01*
X245445Y-210709D01*
X245440Y-210638D01*
Y-210584D01*
Y-210540D01*
Y-210513D01*
Y-210502D01*
Y-207346D01*
X246007D01*
Y-207794D01*
X246089Y-207701D01*
X246171Y-207619D01*
X246264Y-207548D01*
X246351Y-207488D01*
X246444Y-207433D01*
X246532Y-207395D01*
X246619Y-207357D01*
X246701Y-207330D01*
X246777Y-207308D01*
X246848Y-207291D01*
X246914Y-207280D01*
X246968Y-207270D01*
X247012D01*
X247050Y-207264D01*
X247165D01*
X247252Y-207275D01*
D02*
G37*
G36*
X209333Y-207270D02*
X209458Y-207291D01*
X209567Y-207313D01*
X209666Y-207346D01*
X209742Y-207373D01*
X209775Y-207390D01*
X209802Y-207400D01*
X209824Y-207411D01*
X209840Y-207422D01*
X209846Y-207428D01*
X209851D01*
X209955Y-207493D01*
X210042Y-207564D01*
X210119Y-207635D01*
X210184Y-207706D01*
X210239Y-207766D01*
X210277Y-207816D01*
X210299Y-207848D01*
X210310Y-207854D01*
Y-207346D01*
X210861D01*
Y-210999D01*
X210244D01*
Y-209104D01*
Y-209011D01*
X210239Y-208929D01*
X210233Y-208847D01*
X210228Y-208776D01*
X210223Y-208705D01*
X210212Y-208645D01*
X210206Y-208591D01*
X210195Y-208536D01*
X210184Y-208492D01*
X210179Y-208454D01*
X210168Y-208421D01*
X210162Y-208394D01*
X210157Y-208372D01*
X210152Y-208356D01*
X210146Y-208350D01*
Y-208345D01*
X210102Y-208252D01*
X210053Y-208170D01*
X209999Y-208099D01*
X209944Y-208045D01*
X209900Y-207996D01*
X209862Y-207968D01*
X209835Y-207946D01*
X209824Y-207941D01*
X209737Y-207892D01*
X209655Y-207859D01*
X209573Y-207832D01*
X209496Y-207816D01*
X209431Y-207804D01*
X209382Y-207799D01*
X209338D01*
X209218Y-207810D01*
X209114Y-207832D01*
X209032Y-207865D01*
X208961Y-207903D01*
X208912Y-207941D01*
X208874Y-207974D01*
X208852Y-207996D01*
X208847Y-208007D01*
X208798Y-208094D01*
X208759Y-208192D01*
X208732Y-208296D01*
X208710Y-208394D01*
X208699Y-208487D01*
Y-208525D01*
X208694Y-208558D01*
Y-208591D01*
Y-208613D01*
Y-208624D01*
Y-208629D01*
Y-210999D01*
X208077D01*
Y-208880D01*
X208071Y-208776D01*
X208066Y-208684D01*
X208055Y-208591D01*
X208039Y-208509D01*
X208017Y-208438D01*
X207995Y-208367D01*
X207973Y-208307D01*
X207946Y-208252D01*
X207924Y-208209D01*
X207902Y-208165D01*
X207880Y-208132D01*
X207858Y-208105D01*
X207842Y-208083D01*
X207831Y-208067D01*
X207820Y-208061D01*
Y-208056D01*
X207771Y-208012D01*
X207716Y-207968D01*
X207613Y-207908D01*
X207504Y-207859D01*
X207400Y-207832D01*
X207312Y-207810D01*
X207274Y-207804D01*
X207241D01*
X207214Y-207799D01*
X207176D01*
X207099Y-207804D01*
X207029Y-207816D01*
X206963Y-207832D01*
X206908Y-207848D01*
X206865Y-207870D01*
X206832Y-207886D01*
X206810Y-207897D01*
X206805Y-207903D01*
X206750Y-207941D01*
X206701Y-207985D01*
X206668Y-208028D01*
X206635Y-208072D01*
X206613Y-208110D01*
X206597Y-208138D01*
X206586Y-208159D01*
Y-208165D01*
X206564Y-208236D01*
X206553Y-208318D01*
X206542Y-208405D01*
X206532Y-208492D01*
Y-208574D01*
X206526Y-208640D01*
Y-208662D01*
Y-208684D01*
Y-208695D01*
Y-208700D01*
Y-210999D01*
X205909D01*
Y-208492D01*
X205915Y-208378D01*
X205920Y-208274D01*
X205937Y-208176D01*
X205953Y-208083D01*
X205975Y-208001D01*
X206002Y-207925D01*
X206029Y-207859D01*
X206057Y-207799D01*
X206084Y-207745D01*
X206111Y-207695D01*
X206133Y-207657D01*
X206160Y-207624D01*
X206177Y-207603D01*
X206193Y-207586D01*
X206199Y-207575D01*
X206204Y-207570D01*
X206259Y-207515D01*
X206324Y-207466D01*
X206390Y-207428D01*
X206455Y-207395D01*
X206597Y-207340D01*
X206728Y-207302D01*
X206794Y-207291D01*
X206854Y-207280D01*
X206903Y-207275D01*
X206952Y-207270D01*
X206985Y-207264D01*
X207039D01*
X207165Y-207270D01*
X207285Y-207291D01*
X207400Y-207324D01*
X207509Y-207362D01*
X207607Y-207411D01*
X207700Y-207466D01*
X207787Y-207526D01*
X207864Y-207581D01*
X207935Y-207641D01*
X207995Y-207701D01*
X208050Y-207755D01*
X208088Y-207804D01*
X208126Y-207843D01*
X208148Y-207875D01*
X208164Y-207897D01*
X208170Y-207903D01*
X208219Y-207794D01*
X208273Y-207701D01*
X208333Y-207624D01*
X208394Y-207553D01*
X208453Y-207504D01*
X208497Y-207466D01*
X208530Y-207439D01*
X208535Y-207433D01*
X208541D01*
X208645Y-207379D01*
X208754Y-207335D01*
X208863Y-207308D01*
X208967Y-207286D01*
X209060Y-207275D01*
X209098Y-207270D01*
X209136Y-207264D01*
X209202D01*
X209333Y-207270D01*
D02*
G37*
G36*
X229070Y-208050D02*
X228366D01*
Y-207346D01*
X229070D01*
Y-208050D01*
D02*
G37*
G36*
X219335Y-209109D02*
X220668Y-210999D01*
X219914Y-210999D01*
X218942Y-209595D01*
X218762Y-209874D01*
X218008Y-210999D01*
X217255D01*
X218582Y-209109D01*
X217348Y-207346D01*
X218090D01*
X218702Y-208209D01*
X218800Y-208345D01*
X218849Y-208416D01*
X218893Y-208476D01*
X218931Y-208531D01*
X218959Y-208574D01*
X218980Y-208602D01*
X218986Y-208613D01*
X219024Y-208553D01*
X219062Y-208482D01*
X219106Y-208416D01*
X219144Y-208356D01*
X219182Y-208296D01*
X219210Y-208252D01*
X219232Y-208225D01*
X219237Y-208214D01*
X219816Y-207346D01*
X220569Y-207346D01*
X219335Y-209109D01*
D02*
G37*
G36*
X189120Y-210999D02*
X188530D01*
X187143Y-207346D01*
X187782D01*
X188595Y-209579D01*
X188650Y-209727D01*
X188694Y-209858D01*
X188732Y-209978D01*
X188765Y-210076D01*
X188792Y-210158D01*
X188803Y-210191D01*
X188808Y-210223D01*
X188814Y-210245D01*
X188819Y-210262D01*
X188825Y-210267D01*
Y-210273D01*
X188868Y-210131D01*
X188907Y-209994D01*
X188945Y-209868D01*
X188983Y-209759D01*
X189016Y-209666D01*
X189027Y-209628D01*
X189038Y-209595D01*
X189049Y-209568D01*
X189054Y-209552D01*
X189060Y-209541D01*
Y-209535D01*
X189846Y-207346D01*
X190501D01*
X189120Y-210999D01*
D02*
G37*
G36*
X175863D02*
X175169D01*
X174110Y-207160D01*
X174083Y-207067D01*
X174056Y-206969D01*
X174028Y-206865D01*
X174006Y-206773D01*
X173985Y-206696D01*
X173979Y-206658D01*
X173974Y-206631D01*
X173963Y-206603D01*
Y-206587D01*
X173957Y-206576D01*
Y-206571D01*
X173952Y-206592D01*
X173941Y-206625D01*
X173930Y-206663D01*
X173919Y-206707D01*
X173892Y-206805D01*
X173864Y-206904D01*
X173837Y-207002D01*
X173826Y-207046D01*
X173815Y-207084D01*
X173804Y-207117D01*
X173799Y-207138D01*
X173793Y-207155D01*
Y-207160D01*
X172740Y-210999D01*
X172090D01*
X170709Y-205959D01*
X171380D01*
X172172Y-209202D01*
X172226Y-209426D01*
X172276Y-209634D01*
X172297Y-209727D01*
X172319Y-209819D01*
X172336Y-209901D01*
X172352Y-209978D01*
X172368Y-210049D01*
X172385Y-210109D01*
X172396Y-210163D01*
X172407Y-210212D01*
X172412Y-210245D01*
X172417Y-210273D01*
X172423Y-210289D01*
Y-210294D01*
X172478Y-209978D01*
X172538Y-209666D01*
X172570Y-209513D01*
X172603Y-209366D01*
X172636Y-209224D01*
X172669Y-209093D01*
X172701Y-208967D01*
X172729Y-208858D01*
X172756Y-208760D01*
X172778Y-208678D01*
X172794Y-208607D01*
X172811Y-208558D01*
X172816Y-208525D01*
X172822Y-208514D01*
X173537Y-205959D01*
X174339D01*
X175300Y-209366D01*
X175311Y-209399D01*
X175322Y-209442D01*
X175333Y-209497D01*
X175349Y-209563D01*
X175371Y-209639D01*
X175388Y-209716D01*
X175431Y-209879D01*
X175448Y-209956D01*
X175470Y-210032D01*
X175486Y-210103D01*
X175497Y-210169D01*
X175513Y-210218D01*
X175519Y-210262D01*
X175530Y-210283D01*
Y-210294D01*
X175563Y-210103D01*
X175601Y-209918D01*
X175634Y-209748D01*
X175650Y-209666D01*
X175666Y-209590D01*
X175683Y-209519D01*
X175699Y-209459D01*
X175710Y-209404D01*
X175721Y-209355D01*
X175732Y-209317D01*
X175737Y-209290D01*
X175743Y-209273D01*
Y-209268D01*
X176502Y-205959D01*
X177190D01*
X175863Y-210999D01*
D02*
G37*
G36*
X242835Y-206445D02*
Y-207346D01*
X243294D01*
Y-207826D01*
X242835D01*
Y-209934D01*
Y-210032D01*
X242830Y-210125D01*
Y-210207D01*
X242824Y-210283D01*
X242819Y-210349D01*
X242813Y-210409D01*
X242808Y-210464D01*
X242797Y-210507D01*
X242792Y-210545D01*
X242786Y-210578D01*
X242780Y-210606D01*
X242775Y-210627D01*
X242770Y-210655D01*
X242764Y-210666D01*
X242731Y-210726D01*
X242693Y-210780D01*
X242650Y-210829D01*
X242606Y-210868D01*
X242562Y-210900D01*
X242529Y-210922D01*
X242508Y-210939D01*
X242502Y-210944D01*
X242426Y-210977D01*
X242344Y-211004D01*
X242256Y-211020D01*
X242169Y-211037D01*
X242093Y-211042D01*
X242033Y-211048D01*
X241978D01*
X241814Y-211037D01*
X241738Y-211031D01*
X241667Y-211020D01*
X241601Y-211010D01*
X241552Y-211004D01*
X241519Y-210993D01*
X241508D01*
X241590Y-210447D01*
X241650Y-210453D01*
X241705Y-210458D01*
X241754Y-210464D01*
X241792D01*
X241825Y-210469D01*
X241918D01*
X241962Y-210464D01*
X241994Y-210453D01*
X242027Y-210447D01*
X242049Y-210436D01*
X242065Y-210431D01*
X242076Y-210425D01*
X242082D01*
X242125Y-210387D01*
X242158Y-210349D01*
X242180Y-210316D01*
X242185Y-210311D01*
Y-210305D01*
X242196Y-210267D01*
X242202Y-210218D01*
X242213Y-210163D01*
Y-210109D01*
X242218Y-210054D01*
Y-210010D01*
Y-209978D01*
Y-209972D01*
Y-209967D01*
Y-207826D01*
X241590D01*
Y-207346D01*
X242218D01*
Y-206074D01*
X242835Y-206445D01*
D02*
G37*
G36*
X216622Y-206445D02*
Y-207346D01*
X217080D01*
Y-207826D01*
X216622D01*
Y-209934D01*
Y-210032D01*
X216616Y-210125D01*
Y-210207D01*
X216611Y-210283D01*
X216605Y-210349D01*
X216600Y-210409D01*
X216594Y-210464D01*
X216583Y-210507D01*
X216578Y-210545D01*
X216572Y-210578D01*
X216567Y-210606D01*
X216562Y-210627D01*
X216556Y-210655D01*
X216551Y-210666D01*
X216518Y-210726D01*
X216480Y-210780D01*
X216436Y-210829D01*
X216392Y-210868D01*
X216349Y-210900D01*
X216316Y-210922D01*
X216294Y-210939D01*
X216289Y-210944D01*
X216212Y-210977D01*
X216130Y-211004D01*
X216043Y-211020D01*
X215956Y-211037D01*
X215879Y-211042D01*
X215819Y-211048D01*
X215764D01*
X215601Y-211037D01*
X215524Y-211031D01*
X215453Y-211020D01*
X215388Y-211010D01*
X215339Y-211004D01*
X215306Y-210993D01*
X215295D01*
X215377Y-210447D01*
X215437Y-210453D01*
X215492Y-210458D01*
X215541Y-210464D01*
X215579D01*
X215612Y-210469D01*
X215704D01*
X215748Y-210464D01*
X215781Y-210453D01*
X215814Y-210447D01*
X215835Y-210436D01*
X215852Y-210431D01*
X215863Y-210425D01*
X215868D01*
X215912Y-210387D01*
X215945Y-210349D01*
X215967Y-210316D01*
X215972Y-210311D01*
Y-210305D01*
X215983Y-210267D01*
X215988Y-210218D01*
X215999Y-210163D01*
Y-210109D01*
X216005Y-210054D01*
Y-210010D01*
Y-209978D01*
Y-209972D01*
Y-209967D01*
Y-207826D01*
X215377D01*
Y-207346D01*
X216005D01*
Y-206074D01*
X216622Y-206445D01*
D02*
G37*
G36*
X167875Y-205877D02*
X168011Y-205883D01*
X168142Y-205899D01*
X168263Y-205921D01*
X168383Y-205943D01*
X168492Y-205970D01*
X168596Y-205997D01*
X168688Y-206025D01*
X168770Y-206057D01*
X168847Y-206085D01*
X168912Y-206112D01*
X168967Y-206134D01*
X169010Y-206156D01*
X169043Y-206172D01*
X169065Y-206177D01*
X169070Y-206183D01*
X169174Y-206243D01*
X169273Y-206314D01*
X169365Y-206385D01*
X169447Y-206461D01*
X169529Y-206543D01*
X169600Y-206620D01*
X169666Y-206696D01*
X169726Y-206773D01*
X169775Y-206849D01*
X169824Y-206915D01*
X169862Y-206975D01*
X169895Y-207029D01*
X169917Y-207073D01*
X169933Y-207106D01*
X169944Y-207127D01*
X169950Y-207133D01*
X170004Y-207253D01*
X170048Y-207373D01*
X170092Y-207493D01*
X170124Y-207613D01*
X170179Y-207843D01*
X170201Y-207952D01*
X170217Y-208056D01*
X170228Y-208149D01*
X170239Y-208236D01*
X170244Y-208312D01*
X170250Y-208378D01*
X170255Y-208432D01*
Y-208471D01*
Y-208492D01*
Y-208503D01*
X170250Y-208640D01*
X170244Y-208776D01*
X170228Y-208902D01*
X170206Y-209028D01*
X170184Y-209142D01*
X170157Y-209257D01*
X170130Y-209361D01*
X170103Y-209454D01*
X170075Y-209541D01*
X170048Y-209617D01*
X170021Y-209683D01*
X169999Y-209743D01*
X169977Y-209787D01*
X169960Y-209819D01*
X169955Y-209841D01*
X169950Y-209847D01*
X169889Y-209956D01*
X169819Y-210059D01*
X169748Y-210152D01*
X169677Y-210245D01*
X169600Y-210327D01*
X169524Y-210398D01*
X169447Y-210469D01*
X169376Y-210529D01*
X169305Y-210584D01*
X169240Y-210633D01*
X169180Y-210671D01*
X169131Y-210704D01*
X169092Y-210731D01*
X169060Y-210748D01*
X169038Y-210758D01*
X169032Y-210764D01*
X168918Y-210819D01*
X168798Y-210868D01*
X168683Y-210911D01*
X168568Y-210944D01*
X168448Y-210977D01*
X168339Y-211004D01*
X168230Y-211026D01*
X168131Y-211042D01*
X168039Y-211053D01*
X167951Y-211064D01*
X167875Y-211070D01*
X167809Y-211075D01*
X167755Y-211081D01*
X167684D01*
X167482Y-211070D01*
X167285Y-211048D01*
X167105Y-211020D01*
X167023Y-210999D01*
X166941Y-210982D01*
X166870Y-210966D01*
X166810Y-210944D01*
X166750Y-210928D01*
X166706Y-210917D01*
X166663Y-210900D01*
X166635Y-210895D01*
X166619Y-210884D01*
X166613D01*
X166417Y-210802D01*
X166231Y-210709D01*
X166062Y-210611D01*
X165980Y-210562D01*
X165909Y-210518D01*
X165844Y-210474D01*
X165784Y-210431D01*
X165729Y-210398D01*
X165685Y-210365D01*
X165647Y-210338D01*
X165620Y-210316D01*
X165603Y-210305D01*
X165598Y-210300D01*
Y-208427D01*
X167733D01*
Y-209022D01*
X166253D01*
Y-209967D01*
X166340Y-210038D01*
X166439Y-210098D01*
X166543Y-210158D01*
X166646Y-210212D01*
X166739Y-210256D01*
X166777Y-210278D01*
X166810Y-210294D01*
X166843Y-210305D01*
X166865Y-210316D01*
X166876Y-210322D01*
X166881D01*
X167034Y-210376D01*
X167187Y-210414D01*
X167329Y-210447D01*
X167454Y-210464D01*
X167514Y-210469D01*
X167564Y-210474D01*
X167607Y-210480D01*
X167646D01*
X167678Y-210485D01*
X167722D01*
X167908Y-210474D01*
X168082Y-210453D01*
X168241Y-210414D01*
X168317Y-210398D01*
X168383Y-210376D01*
X168443Y-210354D01*
X168497Y-210338D01*
X168546Y-210316D01*
X168590Y-210300D01*
X168623Y-210289D01*
X168645Y-210278D01*
X168661Y-210267D01*
X168667D01*
X168748Y-210223D01*
X168825Y-210174D01*
X168956Y-210070D01*
X169070Y-209956D01*
X169169Y-209847D01*
X169240Y-209748D01*
X169273Y-209705D01*
X169294Y-209672D01*
X169316Y-209639D01*
X169327Y-209617D01*
X169333Y-209601D01*
X169338Y-209595D01*
X169414Y-209415D01*
X169469Y-209224D01*
X169513Y-209038D01*
X169540Y-208858D01*
X169546Y-208776D01*
X169556Y-208700D01*
X169562Y-208634D01*
Y-208574D01*
X169567Y-208531D01*
Y-208492D01*
Y-208471D01*
Y-208465D01*
X169556Y-208263D01*
X169535Y-208072D01*
X169507Y-207903D01*
X169491Y-207821D01*
X169469Y-207750D01*
X169453Y-207684D01*
X169436Y-207624D01*
X169420Y-207575D01*
X169404Y-207531D01*
X169393Y-207493D01*
X169382Y-207471D01*
X169376Y-207455D01*
Y-207450D01*
X169333Y-207351D01*
X169283Y-207259D01*
X169229Y-207171D01*
X169180Y-207100D01*
X169136Y-207040D01*
X169098Y-206991D01*
X169076Y-206964D01*
X169065Y-206953D01*
X168983Y-206871D01*
X168890Y-206800D01*
X168803Y-206734D01*
X168716Y-206680D01*
X168639Y-206636D01*
X168579Y-206609D01*
X168557Y-206598D01*
X168541Y-206587D01*
X168530Y-206581D01*
X168525D01*
X168394Y-206532D01*
X168263Y-206500D01*
X168126Y-206472D01*
X168006Y-206456D01*
X167946Y-206451D01*
X167897Y-206445D01*
X167848D01*
X167809Y-206439D01*
X167733D01*
X167596Y-206445D01*
X167465Y-206461D01*
X167351Y-206483D01*
X167247Y-206505D01*
X167165Y-206532D01*
X167127Y-206543D01*
X167099Y-206554D01*
X167078Y-206565D01*
X167061Y-206571D01*
X167050Y-206576D01*
X167045D01*
X166936Y-206631D01*
X166837Y-206685D01*
X166755Y-206745D01*
X166684Y-206800D01*
X166635Y-206855D01*
X166597Y-206893D01*
X166570Y-206920D01*
X166564Y-206931D01*
X166504Y-207018D01*
X166450Y-207117D01*
X166401Y-207215D01*
X166357Y-207313D01*
X166324Y-207400D01*
X166313Y-207439D01*
X166302Y-207466D01*
X166291Y-207493D01*
X166286Y-207515D01*
X166280Y-207526D01*
Y-207531D01*
X165674Y-207368D01*
X165729Y-207188D01*
X165789Y-207024D01*
X165822Y-206953D01*
X165855Y-206882D01*
X165882Y-206822D01*
X165915Y-206767D01*
X165942Y-206713D01*
X165969Y-206669D01*
X165997Y-206631D01*
X166013Y-206598D01*
X166035Y-206576D01*
X166046Y-206560D01*
X166051Y-206549D01*
X166057Y-206543D01*
X166160Y-206429D01*
X166270Y-206330D01*
X166384Y-206248D01*
X166499Y-206177D01*
X166597Y-206123D01*
X166641Y-206101D01*
X166679Y-206085D01*
X166706Y-206068D01*
X166728Y-206057D01*
X166745Y-206052D01*
X166750D01*
X166919Y-205992D01*
X167089Y-205948D01*
X167258Y-205915D01*
X167411Y-205893D01*
X167482Y-205888D01*
X167542Y-205883D01*
X167596Y-205877D01*
X167646Y-205872D01*
X167738D01*
X167875Y-205877D01*
D02*
G37*
G36*
X237086Y-209612D02*
Y-209748D01*
X237080Y-209868D01*
X237075Y-209967D01*
X237069Y-210049D01*
X237064Y-210109D01*
X237058Y-210158D01*
X237053Y-210180D01*
Y-210191D01*
X237026Y-210289D01*
X236998Y-210376D01*
X236966Y-210453D01*
X236933Y-210518D01*
X236906Y-210573D01*
X236884Y-210616D01*
X236867Y-210638D01*
X236862Y-210649D01*
X236807Y-210715D01*
X236742Y-210775D01*
X236671Y-210829D01*
X236605Y-210873D01*
X236540Y-210911D01*
X236491Y-210939D01*
X236458Y-210955D01*
X236452Y-210960D01*
X236447D01*
X236338Y-210999D01*
X236234Y-211031D01*
X236130Y-211053D01*
X236037Y-211064D01*
X235956Y-211075D01*
X235895Y-211081D01*
X235841D01*
X235704Y-211075D01*
X235579Y-211053D01*
X235464Y-211026D01*
X235349Y-210982D01*
X235246Y-210939D01*
X235153Y-210884D01*
X235066Y-210829D01*
X234984Y-210769D01*
X234913Y-210715D01*
X234853Y-210660D01*
X234798Y-210606D01*
X234754Y-210562D01*
X234722Y-210518D01*
X234700Y-210491D01*
X234683Y-210469D01*
X234678Y-210464D01*
Y-210999D01*
X234126D01*
Y-207346D01*
X234743D01*
Y-209306D01*
X234749Y-209470D01*
X234760Y-209612D01*
X234776Y-209732D01*
X234793Y-209836D01*
X234804Y-209879D01*
X234814Y-209912D01*
X234825Y-209945D01*
X234831Y-209972D01*
X234836Y-209988D01*
X234842Y-210005D01*
X234847Y-210010D01*
Y-210016D01*
X234891Y-210103D01*
X234945Y-210180D01*
X235005Y-210245D01*
X235060Y-210300D01*
X235115Y-210343D01*
X235158Y-210376D01*
X235186Y-210398D01*
X235191Y-210403D01*
X235197D01*
X235289Y-210453D01*
X235377Y-210485D01*
X235464Y-210513D01*
X235546Y-210529D01*
X235617Y-210540D01*
X235666Y-210545D01*
X235715D01*
X235814Y-210540D01*
X235906Y-210524D01*
X235988Y-210502D01*
X236054Y-210474D01*
X236108Y-210453D01*
X236152Y-210431D01*
X236174Y-210414D01*
X236185Y-210409D01*
X236250Y-210354D01*
X236305Y-210289D01*
X236349Y-210229D01*
X236381Y-210169D01*
X236409Y-210114D01*
X236425Y-210065D01*
X236431Y-210038D01*
X236436Y-210027D01*
X236441Y-209994D01*
X236447Y-209950D01*
X236452Y-209852D01*
X236463Y-209743D01*
Y-209634D01*
X236469Y-209535D01*
Y-209492D01*
Y-209448D01*
Y-209415D01*
Y-209393D01*
Y-209377D01*
Y-209371D01*
Y-207346D01*
X237086D01*
Y-209612D01*
D02*
G37*
G36*
X213411Y-207270D02*
X213548Y-207286D01*
X213668Y-207313D01*
X213788Y-207346D01*
X213897Y-207384D01*
X214001Y-207428D01*
X214094Y-207471D01*
X214176Y-207521D01*
X214252Y-207570D01*
X214318Y-207613D01*
X214378Y-207657D01*
X214421Y-207695D01*
X214459Y-207728D01*
X214487Y-207755D01*
X214503Y-207772D01*
X214509Y-207777D01*
X214591Y-207875D01*
X214662Y-207985D01*
X214727Y-208099D01*
X214782Y-208214D01*
X214825Y-208334D01*
X214864Y-208454D01*
X214896Y-208569D01*
X214918Y-208684D01*
X214940Y-208787D01*
X214951Y-208891D01*
X214962Y-208978D01*
X214973Y-209055D01*
Y-209120D01*
X214978Y-209170D01*
Y-209197D01*
Y-209208D01*
X214973Y-209372D01*
X214956Y-209524D01*
X214934Y-209666D01*
X214907Y-209797D01*
X214869Y-209923D01*
X214831Y-210038D01*
X214787Y-210141D01*
X214743Y-210234D01*
X214705Y-210316D01*
X214662Y-210387D01*
X214623Y-210447D01*
X214585Y-210496D01*
X214558Y-210540D01*
X214536Y-210567D01*
X214520Y-210584D01*
X214514Y-210589D01*
X214421Y-210677D01*
X214323Y-210753D01*
X214225Y-210819D01*
X214116Y-210873D01*
X214012Y-210922D01*
X213903Y-210960D01*
X213799Y-210993D01*
X213701Y-211020D01*
X213608Y-211037D01*
X213520Y-211053D01*
X213444Y-211064D01*
X213373Y-211075D01*
X213318D01*
X213275Y-211081D01*
X213242D01*
X213127Y-211075D01*
X213013Y-211070D01*
X212909Y-211053D01*
X212811Y-211031D01*
X212718Y-211010D01*
X212636Y-210982D01*
X212554Y-210955D01*
X212483Y-210928D01*
X212418Y-210900D01*
X212363Y-210873D01*
X212314Y-210846D01*
X212270Y-210824D01*
X212243Y-210802D01*
X212215Y-210786D01*
X212205Y-210780D01*
X212199Y-210775D01*
X212123Y-210715D01*
X212057Y-210649D01*
X211997Y-210578D01*
X211937Y-210507D01*
X211839Y-210360D01*
X211762Y-210223D01*
X211735Y-210158D01*
X211708Y-210098D01*
X211686Y-210043D01*
X211669Y-209994D01*
X211653Y-209956D01*
X211642Y-209928D01*
X211637Y-209907D01*
Y-209901D01*
X212281Y-209819D01*
X212336Y-209956D01*
X212401Y-210076D01*
X212467Y-210180D01*
X212527Y-210256D01*
X212581Y-210322D01*
X212625Y-210365D01*
X212652Y-210387D01*
X212658Y-210398D01*
X212663D01*
X212756Y-210458D01*
X212854Y-210496D01*
X212953Y-210529D01*
X213040Y-210551D01*
X213122Y-210562D01*
X213187Y-210567D01*
X213209Y-210573D01*
X213242D01*
X213324Y-210567D01*
X213406Y-210556D01*
X213482Y-210545D01*
X213553Y-210524D01*
X213684Y-210474D01*
X213793Y-210414D01*
X213843Y-210387D01*
X213886Y-210354D01*
X213919Y-210327D01*
X213952Y-210305D01*
X213974Y-210283D01*
X213990Y-210267D01*
X214001Y-210262D01*
X214006Y-210256D01*
X214061Y-210191D01*
X214110Y-210125D01*
X214148Y-210049D01*
X214187Y-209978D01*
X214247Y-209819D01*
X214290Y-209672D01*
X214307Y-209601D01*
X214318Y-209535D01*
X214329Y-209481D01*
X214334Y-209426D01*
X214339Y-209388D01*
X214345Y-209355D01*
Y-209333D01*
Y-209328D01*
X211620D01*
X211615Y-209257D01*
Y-209202D01*
Y-209175D01*
Y-209164D01*
X211620Y-209000D01*
X211637Y-208847D01*
X211659Y-208700D01*
X211686Y-208563D01*
X211724Y-208438D01*
X211762Y-208323D01*
X211806Y-208220D01*
X211844Y-208127D01*
X211888Y-208045D01*
X211931Y-207968D01*
X211970Y-207908D01*
X212008Y-207859D01*
X212035Y-207816D01*
X212057Y-207788D01*
X212073Y-207772D01*
X212079Y-207766D01*
X212166Y-207679D01*
X212265Y-207603D01*
X212363Y-207531D01*
X212461Y-207477D01*
X212559Y-207428D01*
X212663Y-207384D01*
X212756Y-207351D01*
X212849Y-207324D01*
X212936Y-207308D01*
X213018Y-207291D01*
X213089Y-207280D01*
X213155Y-207270D01*
X213204D01*
X213242Y-207264D01*
X213275D01*
X213411Y-207270D01*
D02*
G37*
G36*
X203632D02*
X203769Y-207286D01*
X203889Y-207313D01*
X204009Y-207346D01*
X204118Y-207384D01*
X204222Y-207428D01*
X204315Y-207471D01*
X204397Y-207521D01*
X204473Y-207570D01*
X204539Y-207613D01*
X204599Y-207657D01*
X204642Y-207695D01*
X204681Y-207728D01*
X204708Y-207755D01*
X204724Y-207772D01*
X204730Y-207777D01*
X204812Y-207875D01*
X204883Y-207985D01*
X204948Y-208099D01*
X205003Y-208214D01*
X205047Y-208334D01*
X205085Y-208454D01*
X205118Y-208569D01*
X205139Y-208684D01*
X205161Y-208787D01*
X205172Y-208891D01*
X205183Y-208978D01*
X205194Y-209055D01*
Y-209120D01*
X205199Y-209170D01*
Y-209197D01*
Y-209208D01*
X205194Y-209372D01*
X205177Y-209524D01*
X205156Y-209666D01*
X205128Y-209797D01*
X205090Y-209923D01*
X205052Y-210038D01*
X205008Y-210141D01*
X204965Y-210234D01*
X204926Y-210316D01*
X204883Y-210387D01*
X204844Y-210447D01*
X204806Y-210496D01*
X204779Y-210540D01*
X204757Y-210567D01*
X204741Y-210584D01*
X204735Y-210589D01*
X204642Y-210677D01*
X204544Y-210753D01*
X204446Y-210819D01*
X204337Y-210873D01*
X204233Y-210922D01*
X204124Y-210960D01*
X204020Y-210993D01*
X203922Y-211020D01*
X203829Y-211037D01*
X203742Y-211053D01*
X203665Y-211064D01*
X203594Y-211075D01*
X203539D01*
X203496Y-211081D01*
X203463D01*
X203348Y-211075D01*
X203234Y-211070D01*
X203130Y-211053D01*
X203032Y-211031D01*
X202939Y-211010D01*
X202857Y-210982D01*
X202775Y-210955D01*
X202704Y-210928D01*
X202639Y-210900D01*
X202584Y-210873D01*
X202535Y-210846D01*
X202491Y-210824D01*
X202464Y-210802D01*
X202437Y-210786D01*
X202426Y-210780D01*
X202420Y-210775D01*
X202344Y-210715D01*
X202278Y-210649D01*
X202218Y-210578D01*
X202158Y-210507D01*
X202060Y-210360D01*
X201983Y-210223D01*
X201956Y-210158D01*
X201929Y-210098D01*
X201907Y-210043D01*
X201891Y-209994D01*
X201874Y-209956D01*
X201863Y-209928D01*
X201858Y-209907D01*
Y-209901D01*
X202502Y-209819D01*
X202557Y-209956D01*
X202622Y-210076D01*
X202688Y-210180D01*
X202748Y-210256D01*
X202802Y-210322D01*
X202846Y-210365D01*
X202873Y-210387D01*
X202879Y-210398D01*
X202884D01*
X202977Y-210458D01*
X203075Y-210496D01*
X203174Y-210529D01*
X203261Y-210551D01*
X203343Y-210562D01*
X203409Y-210567D01*
X203430Y-210573D01*
X203463D01*
X203545Y-210567D01*
X203627Y-210556D01*
X203703Y-210545D01*
X203774Y-210524D01*
X203905Y-210474D01*
X204014Y-210414D01*
X204064Y-210387D01*
X204107Y-210354D01*
X204140Y-210327D01*
X204173Y-210305D01*
X204195Y-210283D01*
X204211Y-210267D01*
X204222Y-210262D01*
X204227Y-210256D01*
X204282Y-210191D01*
X204331Y-210125D01*
X204369Y-210049D01*
X204408Y-209978D01*
X204468Y-209819D01*
X204511Y-209672D01*
X204528Y-209601D01*
X204539Y-209535D01*
X204550Y-209481D01*
X204555Y-209426D01*
X204560Y-209388D01*
X204566Y-209355D01*
Y-209333D01*
Y-209328D01*
X201841D01*
X201836Y-209257D01*
Y-209202D01*
Y-209175D01*
Y-209164D01*
X201841Y-209000D01*
X201858Y-208847D01*
X201880Y-208700D01*
X201907Y-208563D01*
X201945Y-208438D01*
X201983Y-208323D01*
X202027Y-208220D01*
X202065Y-208127D01*
X202109Y-208045D01*
X202153Y-207968D01*
X202191Y-207908D01*
X202229Y-207859D01*
X202256Y-207816D01*
X202278Y-207788D01*
X202295Y-207772D01*
X202300Y-207766D01*
X202387Y-207679D01*
X202486Y-207603D01*
X202584Y-207531D01*
X202682Y-207477D01*
X202781Y-207428D01*
X202884Y-207384D01*
X202977Y-207351D01*
X203070Y-207324D01*
X203157Y-207308D01*
X203239Y-207291D01*
X203310Y-207280D01*
X203376Y-207270D01*
X203425D01*
X203463Y-207264D01*
X203496D01*
X203632Y-207270D01*
D02*
G37*
G36*
X192674D02*
X192811Y-207286D01*
X192931Y-207313D01*
X193051Y-207346D01*
X193160Y-207384D01*
X193264Y-207428D01*
X193357Y-207471D01*
X193438Y-207521D01*
X193515Y-207570D01*
X193580Y-207613D01*
X193640Y-207657D01*
X193684Y-207695D01*
X193722Y-207728D01*
X193750Y-207755D01*
X193766Y-207772D01*
X193772Y-207777D01*
X193853Y-207875D01*
X193924Y-207985D01*
X193990Y-208099D01*
X194045Y-208214D01*
X194088Y-208334D01*
X194126Y-208454D01*
X194159Y-208569D01*
X194181Y-208684D01*
X194203Y-208787D01*
X194214Y-208891D01*
X194225Y-208978D01*
X194236Y-209055D01*
Y-209120D01*
X194241Y-209170D01*
Y-209197D01*
Y-209208D01*
X194236Y-209372D01*
X194219Y-209524D01*
X194197Y-209666D01*
X194170Y-209797D01*
X194132Y-209923D01*
X194094Y-210038D01*
X194050Y-210141D01*
X194006Y-210234D01*
X193968Y-210316D01*
X193924Y-210387D01*
X193886Y-210447D01*
X193848Y-210496D01*
X193821Y-210540D01*
X193799Y-210567D01*
X193782Y-210584D01*
X193777Y-210589D01*
X193684Y-210677D01*
X193586Y-210753D01*
X193488Y-210819D01*
X193378Y-210873D01*
X193275Y-210922D01*
X193166Y-210960D01*
X193062Y-210993D01*
X192964Y-211020D01*
X192871Y-211037D01*
X192783Y-211053D01*
X192707Y-211064D01*
X192636Y-211075D01*
X192581D01*
X192538Y-211081D01*
X192505D01*
X192390Y-211075D01*
X192276Y-211070D01*
X192172Y-211053D01*
X192074Y-211031D01*
X191981Y-211010D01*
X191899Y-210982D01*
X191817Y-210955D01*
X191746Y-210928D01*
X191680Y-210900D01*
X191626Y-210873D01*
X191577Y-210846D01*
X191533Y-210824D01*
X191506Y-210802D01*
X191478Y-210786D01*
X191467Y-210780D01*
X191462Y-210775D01*
X191386Y-210715D01*
X191320Y-210649D01*
X191260Y-210578D01*
X191200Y-210507D01*
X191102Y-210360D01*
X191025Y-210223D01*
X190998Y-210158D01*
X190971Y-210098D01*
X190949Y-210043D01*
X190932Y-209994D01*
X190916Y-209956D01*
X190905Y-209928D01*
X190900Y-209907D01*
Y-209901D01*
X191544Y-209819D01*
X191598Y-209956D01*
X191664Y-210076D01*
X191729Y-210180D01*
X191790Y-210256D01*
X191844Y-210322D01*
X191888Y-210365D01*
X191915Y-210387D01*
X191921Y-210398D01*
X191926D01*
X192019Y-210458D01*
X192117Y-210496D01*
X192216Y-210529D01*
X192303Y-210551D01*
X192385Y-210562D01*
X192450Y-210567D01*
X192472Y-210573D01*
X192505D01*
X192587Y-210567D01*
X192669Y-210556D01*
X192745Y-210545D01*
X192816Y-210524D01*
X192947Y-210474D01*
X193056Y-210414D01*
X193105Y-210387D01*
X193149Y-210354D01*
X193182Y-210327D01*
X193215Y-210305D01*
X193236Y-210283D01*
X193253Y-210267D01*
X193264Y-210262D01*
X193269Y-210256D01*
X193324Y-210191D01*
X193373Y-210125D01*
X193411Y-210049D01*
X193449Y-209978D01*
X193509Y-209819D01*
X193553Y-209672D01*
X193570Y-209601D01*
X193580Y-209535D01*
X193591Y-209481D01*
X193597Y-209426D01*
X193602Y-209388D01*
X193608Y-209355D01*
Y-209333D01*
Y-209328D01*
X190883D01*
X190878Y-209257D01*
Y-209202D01*
Y-209175D01*
Y-209164D01*
X190883Y-209000D01*
X190900Y-208847D01*
X190921Y-208700D01*
X190949Y-208563D01*
X190987Y-208438D01*
X191025Y-208323D01*
X191069Y-208220D01*
X191107Y-208127D01*
X191151Y-208045D01*
X191194Y-207968D01*
X191233Y-207908D01*
X191271Y-207859D01*
X191298Y-207816D01*
X191320Y-207788D01*
X191336Y-207772D01*
X191342Y-207766D01*
X191429Y-207679D01*
X191527Y-207603D01*
X191626Y-207531D01*
X191724Y-207477D01*
X191822Y-207428D01*
X191926Y-207384D01*
X192019Y-207351D01*
X192112Y-207324D01*
X192199Y-207308D01*
X192281Y-207291D01*
X192352Y-207280D01*
X192418Y-207270D01*
X192467D01*
X192505Y-207264D01*
X192538D01*
X192674Y-207270D01*
D02*
G37*
G36*
X185238D02*
X185374Y-207286D01*
X185494Y-207313D01*
X185614Y-207346D01*
X185723Y-207384D01*
X185827Y-207428D01*
X185920Y-207471D01*
X186002Y-207521D01*
X186078Y-207570D01*
X186144Y-207613D01*
X186204Y-207657D01*
X186248Y-207695D01*
X186286Y-207728D01*
X186313Y-207755D01*
X186330Y-207772D01*
X186335Y-207777D01*
X186417Y-207875D01*
X186488Y-207985D01*
X186554Y-208099D01*
X186608Y-208214D01*
X186652Y-208334D01*
X186690Y-208454D01*
X186723Y-208569D01*
X186745Y-208684D01*
X186766Y-208787D01*
X186777Y-208891D01*
X186788Y-208978D01*
X186799Y-209055D01*
Y-209120D01*
X186805Y-209170D01*
Y-209197D01*
Y-209208D01*
X186799Y-209372D01*
X186783Y-209524D01*
X186761Y-209666D01*
X186734Y-209797D01*
X186695Y-209923D01*
X186657Y-210038D01*
X186614Y-210141D01*
X186570Y-210234D01*
X186532Y-210316D01*
X186488Y-210387D01*
X186450Y-210447D01*
X186411Y-210496D01*
X186384Y-210540D01*
X186362Y-210567D01*
X186346Y-210584D01*
X186340Y-210589D01*
X186248Y-210677D01*
X186149Y-210753D01*
X186051Y-210819D01*
X185942Y-210873D01*
X185838Y-210922D01*
X185729Y-210960D01*
X185625Y-210993D01*
X185527Y-211020D01*
X185434Y-211037D01*
X185347Y-211053D01*
X185270Y-211064D01*
X185199Y-211075D01*
X185145D01*
X185101Y-211081D01*
X185068D01*
X184954Y-211075D01*
X184839Y-211070D01*
X184735Y-211053D01*
X184637Y-211031D01*
X184544Y-211010D01*
X184462Y-210982D01*
X184380Y-210955D01*
X184309Y-210928D01*
X184244Y-210900D01*
X184189Y-210873D01*
X184140Y-210846D01*
X184097Y-210824D01*
X184069Y-210802D01*
X184042Y-210786D01*
X184031Y-210780D01*
X184026Y-210775D01*
X183949Y-210715D01*
X183884Y-210649D01*
X183824Y-210578D01*
X183763Y-210507D01*
X183665Y-210360D01*
X183589Y-210223D01*
X183561Y-210158D01*
X183534Y-210098D01*
X183512Y-210043D01*
X183496Y-209994D01*
X183479Y-209956D01*
X183469Y-209928D01*
X183463Y-209907D01*
Y-209901D01*
X184107Y-209819D01*
X184162Y-209956D01*
X184228Y-210076D01*
X184293Y-210180D01*
X184353Y-210256D01*
X184408Y-210322D01*
X184451Y-210365D01*
X184479Y-210387D01*
X184484Y-210398D01*
X184490D01*
X184582Y-210458D01*
X184681Y-210496D01*
X184779Y-210529D01*
X184866Y-210551D01*
X184948Y-210562D01*
X185014Y-210567D01*
X185036Y-210573D01*
X185068D01*
X185150Y-210567D01*
X185232Y-210556D01*
X185309Y-210545D01*
X185380Y-210524D01*
X185511Y-210474D01*
X185620Y-210414D01*
X185669Y-210387D01*
X185713Y-210354D01*
X185745Y-210327D01*
X185778Y-210305D01*
X185800Y-210283D01*
X185816Y-210267D01*
X185827Y-210262D01*
X185833Y-210256D01*
X185887Y-210191D01*
X185936Y-210125D01*
X185975Y-210049D01*
X186013Y-209978D01*
X186073Y-209819D01*
X186117Y-209672D01*
X186133Y-209601D01*
X186144Y-209535D01*
X186155Y-209481D01*
X186160Y-209426D01*
X186166Y-209388D01*
X186171Y-209355D01*
Y-209333D01*
Y-209328D01*
X183447D01*
X183441Y-209257D01*
Y-209202D01*
Y-209175D01*
Y-209164D01*
X183447Y-209000D01*
X183463Y-208847D01*
X183485Y-208700D01*
X183512Y-208563D01*
X183551Y-208438D01*
X183589Y-208323D01*
X183632Y-208220D01*
X183671Y-208127D01*
X183714Y-208045D01*
X183758Y-207968D01*
X183796Y-207908D01*
X183834Y-207859D01*
X183862Y-207816D01*
X183884Y-207788D01*
X183900Y-207772D01*
X183905Y-207766D01*
X183993Y-207679D01*
X184091Y-207603D01*
X184189Y-207531D01*
X184288Y-207477D01*
X184386Y-207428D01*
X184490Y-207384D01*
X184582Y-207351D01*
X184675Y-207324D01*
X184763Y-207308D01*
X184845Y-207291D01*
X184915Y-207280D01*
X184981Y-207270D01*
X185030D01*
X185068Y-207264D01*
X185101D01*
X185238Y-207270D01*
D02*
G37*
G36*
X244495Y-210999D02*
X243878D01*
Y-207346D01*
X244495D01*
Y-210999D01*
D02*
G37*
G36*
X229070D02*
X228366D01*
Y-210294D01*
X229070D01*
Y-210999D01*
D02*
G37*
G36*
X221803D02*
X221186D01*
Y-207346D01*
X221803D01*
Y-210999D01*
D02*
G37*
G36*
X181104Y-207270D02*
X181235Y-207291D01*
X181356Y-207319D01*
X181470Y-207357D01*
X181574Y-207406D01*
X181667Y-207455D01*
X181754Y-207510D01*
X181831Y-207564D01*
X181902Y-207624D01*
X181962Y-207679D01*
X182011Y-207728D01*
X182049Y-207777D01*
X182082Y-207816D01*
X182109Y-207843D01*
X182120Y-207865D01*
X182125Y-207870D01*
Y-207346D01*
X182682D01*
Y-210999D01*
X182065D01*
Y-209006D01*
X182060Y-208880D01*
X182054Y-208760D01*
X182038Y-208656D01*
X182022Y-208558D01*
X182000Y-208471D01*
X181978Y-208394D01*
X181951Y-208323D01*
X181923Y-208263D01*
X181896Y-208209D01*
X181869Y-208165D01*
X181847Y-208132D01*
X181825Y-208099D01*
X181809Y-208078D01*
X181792Y-208061D01*
X181787Y-208056D01*
X181781Y-208050D01*
X181727Y-208007D01*
X181667Y-207968D01*
X181552Y-207903D01*
X181437Y-207859D01*
X181334Y-207832D01*
X181241Y-207810D01*
X181197Y-207804D01*
X181164D01*
X181137Y-207799D01*
X181099D01*
X181006Y-207804D01*
X180924Y-207816D01*
X180853Y-207837D01*
X180788Y-207854D01*
X180739Y-207875D01*
X180700Y-207897D01*
X180673Y-207908D01*
X180668Y-207914D01*
X180602Y-207957D01*
X180547Y-208007D01*
X180504Y-208056D01*
X180471Y-208105D01*
X180444Y-208149D01*
X180427Y-208181D01*
X180416Y-208203D01*
X180411Y-208214D01*
X180384Y-208291D01*
X180367Y-208378D01*
X180351Y-208471D01*
X180345Y-208563D01*
X180340Y-208645D01*
X180334Y-208684D01*
Y-208716D01*
Y-208738D01*
Y-208760D01*
Y-208771D01*
Y-208776D01*
Y-210999D01*
X179718D01*
Y-208755D01*
Y-208678D01*
Y-208607D01*
X179723Y-208536D01*
Y-208476D01*
X179728Y-208421D01*
Y-208372D01*
X179734Y-208291D01*
X179745Y-208230D01*
X179750Y-208187D01*
X179756Y-208159D01*
Y-208154D01*
X179778Y-208056D01*
X179810Y-207968D01*
X179838Y-207892D01*
X179870Y-207826D01*
X179903Y-207772D01*
X179925Y-207728D01*
X179941Y-207706D01*
X179947Y-207695D01*
X180001Y-207624D01*
X180067Y-207564D01*
X180138Y-207515D01*
X180203Y-207466D01*
X180269Y-207433D01*
X180318Y-207406D01*
X180351Y-207390D01*
X180356Y-207384D01*
X180362D01*
X180466Y-207346D01*
X180569Y-207313D01*
X180673Y-207291D01*
X180766Y-207280D01*
X180848Y-207270D01*
X180880D01*
X180913Y-207264D01*
X180968D01*
X181104Y-207270D01*
D02*
G37*
G36*
X164615Y-210999D02*
X163949D01*
Y-208951D01*
X162661Y-208951D01*
X162464Y-208946D01*
X162289Y-208929D01*
X162125Y-208908D01*
X161972Y-208880D01*
X161841Y-208847D01*
X161716Y-208809D01*
X161612Y-208771D01*
X161514Y-208727D01*
X161432Y-208689D01*
X161361Y-208651D01*
X161301Y-208613D01*
X161257Y-208580D01*
X161219Y-208547D01*
X161197Y-208525D01*
X161181Y-208514D01*
X161175Y-208509D01*
X161104Y-208421D01*
X161039Y-208334D01*
X160984Y-208241D01*
X160941Y-208149D01*
X160897Y-208056D01*
X160864Y-207968D01*
X160837Y-207881D01*
X160815Y-207799D01*
X160799Y-207717D01*
X160788Y-207646D01*
X160777Y-207586D01*
X160771Y-207532D01*
X160766Y-207482D01*
Y-207450D01*
Y-207428D01*
Y-207422D01*
X160771Y-207286D01*
X160788Y-207155D01*
X160815Y-207040D01*
X160842Y-206936D01*
X160875Y-206855D01*
X160886Y-206816D01*
X160897Y-206789D01*
X160908Y-206767D01*
X160919Y-206751D01*
X160924Y-206740D01*
Y-206734D01*
X160984Y-206620D01*
X161050Y-206527D01*
X161121Y-206440D01*
X161181Y-206374D01*
X161241Y-206319D01*
X161285Y-206281D01*
X161317Y-206254D01*
X161323Y-206248D01*
X161328D01*
X161426Y-206188D01*
X161530Y-206139D01*
X161634Y-206096D01*
X161732Y-206063D01*
X161820Y-206035D01*
X161858Y-206030D01*
X161891Y-206019D01*
X161913Y-206014D01*
X161934D01*
X161945Y-206008D01*
X161951D01*
X162000Y-205997D01*
X162060Y-205992D01*
X162180Y-205981D01*
X162306Y-205970D01*
X162431Y-205964D01*
X162540Y-205959D01*
X164615Y-205959D01*
Y-210999D01*
D02*
G37*
G36*
X159805Y-210999D02*
X159139D01*
Y-205959D01*
X159805D01*
Y-210999D01*
D02*
G37*
G36*
X157992D02*
X156076D01*
X155901Y-210993D01*
X155743Y-210988D01*
X155606Y-210971D01*
X155541Y-210966D01*
X155486Y-210955D01*
X155437Y-210949D01*
X155393Y-210944D01*
X155355Y-210933D01*
X155322Y-210928D01*
X155295Y-210922D01*
X155279D01*
X155268Y-210917D01*
X155262D01*
X155142Y-210884D01*
X155033Y-210846D01*
X154940Y-210802D01*
X154864Y-210764D01*
X154798Y-210726D01*
X154749Y-210698D01*
X154722Y-210677D01*
X154711Y-210671D01*
X154629Y-210600D01*
X154558Y-210524D01*
X154492Y-210447D01*
X154443Y-210371D01*
X154400Y-210305D01*
X154367Y-210251D01*
X154356Y-210229D01*
X154345Y-210212D01*
X154340Y-210207D01*
Y-210202D01*
X154290Y-210087D01*
X154252Y-209967D01*
X154225Y-209858D01*
X154203Y-209754D01*
X154192Y-209666D01*
Y-209634D01*
X154187Y-209601D01*
Y-209574D01*
Y-209557D01*
Y-209546D01*
Y-209541D01*
Y-209459D01*
X154198Y-209383D01*
X154225Y-209235D01*
X154269Y-209104D01*
X154312Y-208995D01*
X154334Y-208946D01*
X154356Y-208902D01*
X154378Y-208864D01*
X154400Y-208831D01*
X154416Y-208809D01*
X154427Y-208793D01*
X154432Y-208782D01*
X154438Y-208776D01*
X154536Y-208662D01*
X154651Y-208569D01*
X154765Y-208487D01*
X154880Y-208427D01*
X154978Y-208378D01*
X155022Y-208362D01*
X155060Y-208345D01*
X155093Y-208334D01*
X155115Y-208323D01*
X155131Y-208318D01*
X155137D01*
X155011Y-208247D01*
X154907Y-208170D01*
X154815Y-208094D01*
X154744Y-208023D01*
X154683Y-207957D01*
X154645Y-207908D01*
X154629Y-207887D01*
X154618Y-207870D01*
X154613Y-207865D01*
Y-207859D01*
X154552Y-207750D01*
X154509Y-207646D01*
X154476Y-207542D01*
X154454Y-207450D01*
X154443Y-207368D01*
X154432Y-207308D01*
Y-207286D01*
Y-207270D01*
Y-207259D01*
Y-207253D01*
X154443Y-207122D01*
X154465Y-207002D01*
X154498Y-206887D01*
X154531Y-206789D01*
X154569Y-206707D01*
X154585Y-206669D01*
X154602Y-206642D01*
X154618Y-206620D01*
X154623Y-206603D01*
X154634Y-206592D01*
Y-206587D01*
X154716Y-206478D01*
X154804Y-206380D01*
X154891Y-206298D01*
X154978Y-206232D01*
X155060Y-206183D01*
X155120Y-206145D01*
X155148Y-206134D01*
X155164Y-206123D01*
X155175Y-206117D01*
X155180D01*
X155322Y-206063D01*
X155470Y-206025D01*
X155628Y-205997D01*
X155770Y-205981D01*
X155841Y-205970D01*
X155901Y-205964D01*
X155961D01*
X156010Y-205959D01*
X157992D01*
Y-210999D01*
D02*
G37*
G36*
X224233Y-207270D02*
X224331Y-207275D01*
X224424Y-207286D01*
X224500Y-207302D01*
X224571Y-207319D01*
X224621Y-207330D01*
X224653Y-207335D01*
X224659Y-207340D01*
X224664D01*
X224752Y-207368D01*
X224833Y-207400D01*
X224899Y-207433D01*
X224954Y-207461D01*
X224997Y-207482D01*
X225030Y-207504D01*
X225052Y-207515D01*
X225057Y-207521D01*
X225128Y-207575D01*
X225188Y-207630D01*
X225243Y-207690D01*
X225281Y-207745D01*
X225320Y-207794D01*
X225341Y-207832D01*
X225358Y-207854D01*
X225363Y-207865D01*
X225401Y-207941D01*
X225429Y-208023D01*
X225445Y-208099D01*
X225456Y-208170D01*
X225467Y-208230D01*
X225472Y-208274D01*
Y-208307D01*
Y-208312D01*
Y-208318D01*
X225467Y-208416D01*
X225450Y-208509D01*
X225429Y-208591D01*
X225407Y-208662D01*
X225385Y-208722D01*
X225363Y-208771D01*
X225347Y-208798D01*
X225341Y-208809D01*
X225287Y-208886D01*
X225221Y-208957D01*
X225156Y-209011D01*
X225090Y-209060D01*
X225030Y-209104D01*
X224986Y-209131D01*
X224954Y-209148D01*
X224948Y-209153D01*
X224943D01*
X224888Y-209175D01*
X224823Y-209202D01*
X224757Y-209230D01*
X224681Y-209251D01*
X224522Y-209301D01*
X224369Y-209350D01*
X224293Y-209371D01*
X224222Y-209393D01*
X224156Y-209410D01*
X224102Y-209426D01*
X224058Y-209437D01*
X224020Y-209448D01*
X223998Y-209454D01*
X223993D01*
X223905Y-209475D01*
X223823Y-209497D01*
X223747Y-209519D01*
X223681Y-209541D01*
X223621Y-209557D01*
X223572Y-209574D01*
X223529Y-209590D01*
X223485Y-209606D01*
X223452Y-209617D01*
X223425Y-209628D01*
X223387Y-209645D01*
X223365Y-209655D01*
X223359Y-209661D01*
X223299Y-209710D01*
X223250Y-209765D01*
X223217Y-209819D01*
X223196Y-209874D01*
X223185Y-209917D01*
X223174Y-209961D01*
Y-209983D01*
Y-209994D01*
X223185Y-210081D01*
X223206Y-210158D01*
X223239Y-210229D01*
X223277Y-210289D01*
X223316Y-210338D01*
X223348Y-210371D01*
X223370Y-210398D01*
X223381Y-210403D01*
X223468Y-210458D01*
X223567Y-210502D01*
X223676Y-210529D01*
X223780Y-210551D01*
X223873Y-210562D01*
X223911Y-210567D01*
X223949D01*
X223976Y-210573D01*
X224020D01*
X224167Y-210562D01*
X224298Y-210540D01*
X224413Y-210513D01*
X224506Y-210474D01*
X224582Y-210442D01*
X224637Y-210409D01*
X224670Y-210387D01*
X224675Y-210382D01*
X224681D01*
X224763Y-210300D01*
X224823Y-210212D01*
X224872Y-210114D01*
X224910Y-210021D01*
X224937Y-209939D01*
X224948Y-209907D01*
X224954Y-209874D01*
X224959Y-209847D01*
Y-209830D01*
X224965Y-209819D01*
Y-209814D01*
X225576Y-209912D01*
X225554Y-210016D01*
X225527Y-210120D01*
X225494Y-210212D01*
X225461Y-210294D01*
X225423Y-210376D01*
X225385Y-210447D01*
X225347Y-210513D01*
X225303Y-210573D01*
X225265Y-210622D01*
X225227Y-210666D01*
X225194Y-210704D01*
X225167Y-210736D01*
X225139Y-210758D01*
X225123Y-210775D01*
X225112Y-210786D01*
X225107Y-210791D01*
X225030Y-210840D01*
X224954Y-210884D01*
X224866Y-210928D01*
X224779Y-210960D01*
X224593Y-211010D01*
X224419Y-211042D01*
X224337Y-211059D01*
X224260Y-211064D01*
X224189Y-211070D01*
X224135Y-211075D01*
X224085Y-211081D01*
X224014D01*
X223856Y-211075D01*
X223714Y-211059D01*
X223583Y-211031D01*
X223468Y-211004D01*
X223419Y-210993D01*
X223376Y-210982D01*
X223338Y-210966D01*
X223305Y-210955D01*
X223277Y-210944D01*
X223261Y-210939D01*
X223250Y-210933D01*
X223245D01*
X223125Y-210873D01*
X223021Y-210807D01*
X222933Y-210736D01*
X222857Y-210666D01*
X222802Y-210606D01*
X222759Y-210556D01*
X222737Y-210524D01*
X222726Y-210518D01*
Y-210513D01*
X222666Y-210409D01*
X222617Y-210305D01*
X222584Y-210207D01*
X222562Y-210120D01*
X222551Y-210043D01*
X222540Y-209983D01*
Y-209961D01*
Y-209945D01*
Y-209934D01*
Y-209928D01*
X222546Y-209814D01*
X222562Y-209710D01*
X222589Y-209623D01*
X222617Y-209546D01*
X222644Y-209481D01*
X222671Y-209437D01*
X222688Y-209410D01*
X222693Y-209399D01*
X222753Y-209322D01*
X222819Y-209257D01*
X222890Y-209202D01*
X222955Y-209159D01*
X223010Y-209120D01*
X223059Y-209099D01*
X223092Y-209082D01*
X223097Y-209077D01*
X223103D01*
X223157Y-209055D01*
X223217Y-209033D01*
X223283Y-209006D01*
X223354Y-208984D01*
X223501Y-208935D01*
X223654Y-208891D01*
X223725Y-208869D01*
X223796Y-208847D01*
X223856Y-208831D01*
X223905Y-208815D01*
X223955Y-208804D01*
X223987Y-208793D01*
X224009Y-208787D01*
X224014D01*
X224096Y-208766D01*
X224167Y-208744D01*
X224233Y-208727D01*
X224293Y-208711D01*
X224342Y-208695D01*
X224386Y-208684D01*
X224424Y-208673D01*
X224457Y-208662D01*
X224506Y-208645D01*
X224539Y-208634D01*
X224555Y-208629D01*
X224560D01*
X224615Y-208602D01*
X224664Y-208574D01*
X224708Y-208547D01*
X224741Y-208520D01*
X224768Y-208498D01*
X224784Y-208482D01*
X224795Y-208471D01*
X224801Y-208465D01*
X224823Y-208427D01*
X224839Y-208389D01*
X224861Y-208318D01*
X224866Y-208291D01*
X224872Y-208269D01*
Y-208252D01*
Y-208247D01*
X224866Y-208176D01*
X224844Y-208116D01*
X224817Y-208056D01*
X224779Y-208007D01*
X224746Y-207968D01*
X224719Y-207941D01*
X224697Y-207919D01*
X224692Y-207914D01*
X224653Y-207886D01*
X224615Y-207865D01*
X224522Y-207832D01*
X224419Y-207804D01*
X224320Y-207788D01*
X224227Y-207777D01*
X224189D01*
X224156Y-207772D01*
X224085D01*
X223955Y-207777D01*
X223845Y-207799D01*
X223747Y-207821D01*
X223665Y-207854D01*
X223605Y-207881D01*
X223561Y-207908D01*
X223534Y-207930D01*
X223523Y-207936D01*
X223458Y-208001D01*
X223403Y-208072D01*
X223359Y-208143D01*
X223327Y-208214D01*
X223305Y-208274D01*
X223294Y-208329D01*
X223283Y-208362D01*
Y-208367D01*
Y-208372D01*
X222677Y-208291D01*
X222704Y-208165D01*
X222737Y-208056D01*
X222770Y-207957D01*
X222808Y-207875D01*
X222841Y-207816D01*
X222868Y-207766D01*
X222890Y-207739D01*
X222895Y-207728D01*
X222961Y-207652D01*
X223037Y-207586D01*
X223114Y-207526D01*
X223190Y-207477D01*
X223267Y-207439D01*
X223321Y-207411D01*
X223343Y-207400D01*
X223359Y-207395D01*
X223370Y-207390D01*
X223376D01*
X223501Y-207346D01*
X223627Y-207319D01*
X223758Y-207297D01*
X223873Y-207280D01*
X223976Y-207270D01*
X224020D01*
X224058Y-207264D01*
X224129D01*
X224233Y-207270D01*
D02*
G37*
G36*
X199980Y-207270D02*
X200078Y-207275D01*
X200171Y-207286D01*
X200247Y-207302D01*
X200318Y-207319D01*
X200367Y-207330D01*
X200400Y-207335D01*
X200406Y-207340D01*
X200411D01*
X200498Y-207368D01*
X200580Y-207400D01*
X200646Y-207433D01*
X200700Y-207461D01*
X200744Y-207482D01*
X200777Y-207504D01*
X200799Y-207515D01*
X200804Y-207521D01*
X200875Y-207575D01*
X200935Y-207630D01*
X200990Y-207690D01*
X201028Y-207745D01*
X201066Y-207794D01*
X201088Y-207832D01*
X201104Y-207854D01*
X201110Y-207865D01*
X201148Y-207941D01*
X201175Y-208023D01*
X201192Y-208099D01*
X201203Y-208170D01*
X201214Y-208230D01*
X201219Y-208274D01*
Y-208307D01*
Y-208312D01*
Y-208318D01*
X201214Y-208416D01*
X201197Y-208509D01*
X201175Y-208591D01*
X201153Y-208662D01*
X201132Y-208722D01*
X201110Y-208771D01*
X201093Y-208798D01*
X201088Y-208809D01*
X201033Y-208886D01*
X200968Y-208957D01*
X200902Y-209011D01*
X200837Y-209060D01*
X200777Y-209104D01*
X200733Y-209131D01*
X200700Y-209148D01*
X200695Y-209153D01*
X200689D01*
X200635Y-209175D01*
X200569Y-209202D01*
X200504Y-209230D01*
X200427Y-209251D01*
X200269Y-209301D01*
X200116Y-209350D01*
X200040Y-209372D01*
X199969Y-209393D01*
X199903Y-209410D01*
X199849Y-209426D01*
X199805Y-209437D01*
X199767Y-209448D01*
X199745Y-209454D01*
X199739D01*
X199652Y-209475D01*
X199570Y-209497D01*
X199494Y-209519D01*
X199428Y-209541D01*
X199368Y-209557D01*
X199319Y-209574D01*
X199275Y-209590D01*
X199232Y-209606D01*
X199199Y-209617D01*
X199171Y-209628D01*
X199133Y-209645D01*
X199111Y-209655D01*
X199106Y-209661D01*
X199046Y-209710D01*
X198997Y-209765D01*
X198964Y-209819D01*
X198942Y-209874D01*
X198931Y-209918D01*
X198920Y-209961D01*
Y-209983D01*
Y-209994D01*
X198931Y-210081D01*
X198953Y-210158D01*
X198986Y-210229D01*
X199024Y-210289D01*
X199062Y-210338D01*
X199095Y-210371D01*
X199117Y-210398D01*
X199128Y-210403D01*
X199215Y-210458D01*
X199313Y-210502D01*
X199423Y-210529D01*
X199526Y-210551D01*
X199619Y-210562D01*
X199657Y-210567D01*
X199696D01*
X199723Y-210573D01*
X199767D01*
X199914Y-210562D01*
X200045Y-210540D01*
X200160Y-210513D01*
X200253Y-210474D01*
X200329Y-210442D01*
X200384Y-210409D01*
X200416Y-210387D01*
X200422Y-210382D01*
X200427D01*
X200509Y-210300D01*
X200569Y-210212D01*
X200618Y-210114D01*
X200657Y-210021D01*
X200684Y-209939D01*
X200695Y-209907D01*
X200700Y-209874D01*
X200706Y-209847D01*
Y-209830D01*
X200711Y-209819D01*
Y-209814D01*
X201323Y-209912D01*
X201301Y-210016D01*
X201274Y-210120D01*
X201241Y-210212D01*
X201208Y-210294D01*
X201170Y-210376D01*
X201132Y-210447D01*
X201093Y-210513D01*
X201050Y-210573D01*
X201011Y-210622D01*
X200973Y-210666D01*
X200941Y-210704D01*
X200913Y-210737D01*
X200886Y-210758D01*
X200870Y-210775D01*
X200859Y-210786D01*
X200853Y-210791D01*
X200777Y-210840D01*
X200700Y-210884D01*
X200613Y-210928D01*
X200526Y-210960D01*
X200340Y-211010D01*
X200165Y-211042D01*
X200083Y-211059D01*
X200007Y-211064D01*
X199936Y-211070D01*
X199881Y-211075D01*
X199832Y-211081D01*
X199761D01*
X199603Y-211075D01*
X199461Y-211059D01*
X199330Y-211031D01*
X199215Y-211004D01*
X199166Y-210993D01*
X199122Y-210982D01*
X199084Y-210966D01*
X199051Y-210955D01*
X199024Y-210944D01*
X199008Y-210939D01*
X198997Y-210933D01*
X198991D01*
X198871Y-210873D01*
X198767Y-210807D01*
X198680Y-210737D01*
X198604Y-210666D01*
X198549Y-210606D01*
X198505Y-210556D01*
X198484Y-210524D01*
X198473Y-210518D01*
Y-210513D01*
X198413Y-210409D01*
X198363Y-210305D01*
X198331Y-210207D01*
X198309Y-210120D01*
X198298Y-210043D01*
X198287Y-209983D01*
Y-209961D01*
Y-209945D01*
Y-209934D01*
Y-209928D01*
X198293Y-209814D01*
X198309Y-209710D01*
X198336Y-209623D01*
X198363Y-209546D01*
X198391Y-209481D01*
X198418Y-209437D01*
X198434Y-209410D01*
X198440Y-209399D01*
X198500Y-209322D01*
X198565Y-209257D01*
X198636Y-209202D01*
X198702Y-209159D01*
X198757Y-209120D01*
X198806Y-209099D01*
X198838Y-209082D01*
X198844Y-209077D01*
X198849D01*
X198904Y-209055D01*
X198964Y-209033D01*
X199030Y-209006D01*
X199100Y-208984D01*
X199248Y-208935D01*
X199401Y-208891D01*
X199472Y-208869D01*
X199543Y-208847D01*
X199603Y-208831D01*
X199652Y-208815D01*
X199701Y-208804D01*
X199734Y-208793D01*
X199756Y-208787D01*
X199761D01*
X199843Y-208766D01*
X199914Y-208744D01*
X199980Y-208727D01*
X200040Y-208711D01*
X200089Y-208695D01*
X200132Y-208684D01*
X200171Y-208673D01*
X200203Y-208662D01*
X200253Y-208645D01*
X200285Y-208634D01*
X200302Y-208629D01*
X200307D01*
X200362Y-208602D01*
X200411Y-208574D01*
X200455Y-208547D01*
X200487Y-208520D01*
X200515Y-208498D01*
X200531Y-208482D01*
X200542Y-208471D01*
X200547Y-208465D01*
X200569Y-208427D01*
X200586Y-208389D01*
X200607Y-208318D01*
X200613Y-208291D01*
X200618Y-208269D01*
Y-208252D01*
Y-208247D01*
X200613Y-208176D01*
X200591Y-208116D01*
X200564Y-208056D01*
X200526Y-208007D01*
X200493Y-207968D01*
X200465Y-207941D01*
X200444Y-207919D01*
X200438Y-207914D01*
X200400Y-207886D01*
X200362Y-207865D01*
X200269Y-207832D01*
X200165Y-207804D01*
X200067Y-207788D01*
X199974Y-207777D01*
X199936D01*
X199903Y-207772D01*
X199832D01*
X199701Y-207777D01*
X199592Y-207799D01*
X199494Y-207821D01*
X199412Y-207854D01*
X199352Y-207881D01*
X199308Y-207908D01*
X199281Y-207930D01*
X199270Y-207936D01*
X199204Y-208001D01*
X199150Y-208072D01*
X199106Y-208143D01*
X199073Y-208214D01*
X199051Y-208274D01*
X199040Y-208329D01*
X199030Y-208362D01*
Y-208367D01*
Y-208372D01*
X198424Y-208291D01*
X198451Y-208165D01*
X198484Y-208056D01*
X198516Y-207957D01*
X198555Y-207875D01*
X198587Y-207816D01*
X198615Y-207766D01*
X198636Y-207739D01*
X198642Y-207728D01*
X198707Y-207652D01*
X198784Y-207586D01*
X198860Y-207526D01*
X198937Y-207477D01*
X199013Y-207439D01*
X199068Y-207411D01*
X199090Y-207400D01*
X199106Y-207395D01*
X199117Y-207390D01*
X199122D01*
X199248Y-207346D01*
X199373Y-207319D01*
X199505Y-207297D01*
X199619Y-207280D01*
X199723Y-207270D01*
X199767D01*
X199805Y-207264D01*
X199876D01*
X199980Y-207270D01*
D02*
G37*
G36*
X196458D02*
X196556Y-207275D01*
X196649Y-207286D01*
X196725Y-207302D01*
X196796Y-207319D01*
X196846Y-207330D01*
X196878Y-207335D01*
X196884Y-207340D01*
X196889D01*
X196977Y-207368D01*
X197058Y-207400D01*
X197124Y-207433D01*
X197179Y-207461D01*
X197222Y-207482D01*
X197255Y-207504D01*
X197277Y-207515D01*
X197282Y-207521D01*
X197353Y-207575D01*
X197413Y-207630D01*
X197468Y-207690D01*
X197506Y-207745D01*
X197544Y-207794D01*
X197566Y-207832D01*
X197583Y-207854D01*
X197588Y-207865D01*
X197626Y-207941D01*
X197654Y-208023D01*
X197670Y-208099D01*
X197681Y-208170D01*
X197692Y-208230D01*
X197697Y-208274D01*
Y-208307D01*
Y-208312D01*
Y-208318D01*
X197692Y-208416D01*
X197676Y-208509D01*
X197654Y-208591D01*
X197632Y-208662D01*
X197610Y-208722D01*
X197588Y-208771D01*
X197572Y-208798D01*
X197566Y-208809D01*
X197512Y-208886D01*
X197446Y-208957D01*
X197381Y-209011D01*
X197315Y-209060D01*
X197255Y-209104D01*
X197211Y-209131D01*
X197179Y-209148D01*
X197173Y-209153D01*
X197168D01*
X197113Y-209175D01*
X197048Y-209202D01*
X196982Y-209230D01*
X196906Y-209251D01*
X196747Y-209301D01*
X196594Y-209350D01*
X196518Y-209372D01*
X196447Y-209393D01*
X196381Y-209410D01*
X196327Y-209426D01*
X196283Y-209437D01*
X196245Y-209448D01*
X196223Y-209454D01*
X196218D01*
X196130Y-209475D01*
X196048Y-209497D01*
X195972Y-209519D01*
X195906Y-209541D01*
X195846Y-209557D01*
X195797Y-209574D01*
X195754Y-209590D01*
X195710Y-209606D01*
X195677Y-209617D01*
X195650Y-209628D01*
X195612Y-209645D01*
X195590Y-209655D01*
X195584Y-209661D01*
X195524Y-209710D01*
X195475Y-209765D01*
X195442Y-209819D01*
X195421Y-209874D01*
X195410Y-209918D01*
X195399Y-209961D01*
Y-209983D01*
Y-209994D01*
X195410Y-210081D01*
X195431Y-210158D01*
X195464Y-210229D01*
X195502Y-210289D01*
X195541Y-210338D01*
X195573Y-210371D01*
X195595Y-210398D01*
X195606Y-210403D01*
X195694Y-210458D01*
X195792Y-210502D01*
X195901Y-210529D01*
X196005Y-210551D01*
X196098Y-210562D01*
X196136Y-210567D01*
X196174D01*
X196201Y-210573D01*
X196245D01*
X196392Y-210562D01*
X196523Y-210540D01*
X196638Y-210513D01*
X196731Y-210474D01*
X196807Y-210442D01*
X196862Y-210409D01*
X196895Y-210387D01*
X196900Y-210382D01*
X196906D01*
X196987Y-210300D01*
X197048Y-210212D01*
X197097Y-210114D01*
X197135Y-210021D01*
X197162Y-209939D01*
X197173Y-209907D01*
X197179Y-209874D01*
X197184Y-209847D01*
Y-209830D01*
X197189Y-209819D01*
Y-209814D01*
X197801Y-209912D01*
X197779Y-210016D01*
X197752Y-210120D01*
X197719Y-210212D01*
X197686Y-210294D01*
X197648Y-210376D01*
X197610Y-210447D01*
X197572Y-210513D01*
X197528Y-210573D01*
X197490Y-210622D01*
X197452Y-210666D01*
X197419Y-210704D01*
X197392Y-210737D01*
X197364Y-210758D01*
X197348Y-210775D01*
X197337Y-210786D01*
X197332Y-210791D01*
X197255Y-210840D01*
X197179Y-210884D01*
X197091Y-210928D01*
X197004Y-210960D01*
X196818Y-211010D01*
X196643Y-211042D01*
X196562Y-211059D01*
X196485Y-211064D01*
X196414Y-211070D01*
X196360Y-211075D01*
X196310Y-211081D01*
X196239D01*
X196081Y-211075D01*
X195939Y-211059D01*
X195808Y-211031D01*
X195694Y-211004D01*
X195644Y-210993D01*
X195601Y-210982D01*
X195563Y-210966D01*
X195530Y-210955D01*
X195502Y-210944D01*
X195486Y-210939D01*
X195475Y-210933D01*
X195470D01*
X195350Y-210873D01*
X195246Y-210807D01*
X195158Y-210737D01*
X195082Y-210666D01*
X195027Y-210606D01*
X194984Y-210556D01*
X194962Y-210524D01*
X194951Y-210518D01*
Y-210513D01*
X194891Y-210409D01*
X194842Y-210305D01*
X194809Y-210207D01*
X194787Y-210120D01*
X194776Y-210043D01*
X194765Y-209983D01*
Y-209961D01*
Y-209945D01*
Y-209934D01*
Y-209928D01*
X194771Y-209814D01*
X194787Y-209710D01*
X194814Y-209623D01*
X194842Y-209546D01*
X194869Y-209481D01*
X194896Y-209437D01*
X194913Y-209410D01*
X194918Y-209399D01*
X194978Y-209322D01*
X195044Y-209257D01*
X195115Y-209202D01*
X195180Y-209159D01*
X195235Y-209120D01*
X195284Y-209099D01*
X195317Y-209082D01*
X195322Y-209077D01*
X195328D01*
X195382Y-209055D01*
X195442Y-209033D01*
X195508Y-209006D01*
X195579Y-208984D01*
X195726Y-208935D01*
X195879Y-208891D01*
X195950Y-208869D01*
X196021Y-208847D01*
X196081Y-208831D01*
X196130Y-208815D01*
X196179Y-208804D01*
X196212Y-208793D01*
X196234Y-208787D01*
X196239D01*
X196321Y-208766D01*
X196392Y-208744D01*
X196458Y-208727D01*
X196518Y-208711D01*
X196567Y-208695D01*
X196611Y-208684D01*
X196649Y-208673D01*
X196682Y-208662D01*
X196731Y-208645D01*
X196764Y-208634D01*
X196780Y-208629D01*
X196785D01*
X196840Y-208602D01*
X196889Y-208574D01*
X196933Y-208547D01*
X196966Y-208520D01*
X196993Y-208498D01*
X197009Y-208482D01*
X197020Y-208471D01*
X197026Y-208465D01*
X197048Y-208427D01*
X197064Y-208389D01*
X197086Y-208318D01*
X197091Y-208291D01*
X197097Y-208269D01*
Y-208252D01*
Y-208247D01*
X197091Y-208176D01*
X197069Y-208116D01*
X197042Y-208056D01*
X197004Y-208007D01*
X196971Y-207968D01*
X196944Y-207941D01*
X196922Y-207919D01*
X196916Y-207914D01*
X196878Y-207886D01*
X196840Y-207865D01*
X196747Y-207832D01*
X196643Y-207804D01*
X196545Y-207788D01*
X196452Y-207777D01*
X196414D01*
X196381Y-207772D01*
X196310D01*
X196179Y-207777D01*
X196070Y-207799D01*
X195972Y-207821D01*
X195890Y-207854D01*
X195830Y-207881D01*
X195786Y-207908D01*
X195759Y-207930D01*
X195748Y-207936D01*
X195683Y-208001D01*
X195628Y-208072D01*
X195584Y-208143D01*
X195552Y-208214D01*
X195530Y-208274D01*
X195519Y-208329D01*
X195508Y-208362D01*
Y-208367D01*
Y-208372D01*
X194902Y-208291D01*
X194929Y-208165D01*
X194962Y-208056D01*
X194995Y-207957D01*
X195033Y-207875D01*
X195066Y-207816D01*
X195093Y-207766D01*
X195115Y-207739D01*
X195120Y-207728D01*
X195186Y-207652D01*
X195262Y-207586D01*
X195339Y-207526D01*
X195415Y-207477D01*
X195492Y-207439D01*
X195546Y-207411D01*
X195568Y-207400D01*
X195584Y-207395D01*
X195595Y-207390D01*
X195601D01*
X195726Y-207346D01*
X195852Y-207319D01*
X195983Y-207297D01*
X196098Y-207280D01*
X196201Y-207270D01*
X196245D01*
X196283Y-207264D01*
X196354D01*
X196458Y-207270D01*
D02*
G37*
G36*
X179232Y-211086D02*
X178735D01*
X177271Y-205877D01*
X177768D01*
X179232Y-211086D01*
D02*
G37*
G36*
X199190Y-198366D02*
X199316Y-198377D01*
X199431Y-198393D01*
X199540Y-198421D01*
X199644Y-198448D01*
X199736Y-198481D01*
X199824Y-198513D01*
X199900Y-198546D01*
X199971Y-198584D01*
X200031Y-198617D01*
X200086Y-198650D01*
X200129Y-198677D01*
X200162Y-198705D01*
X200184Y-198721D01*
X200200Y-198732D01*
X200206Y-198737D01*
X200282Y-198808D01*
X200348Y-198890D01*
X200408Y-198972D01*
X200462Y-199065D01*
X200506Y-199152D01*
X200550Y-199240D01*
X200583Y-199332D01*
X200610Y-199414D01*
X200637Y-199496D01*
X200654Y-199573D01*
X200670Y-199644D01*
X200681Y-199704D01*
X200686Y-199753D01*
X200692Y-199786D01*
X200697Y-199808D01*
Y-199818D01*
X200064Y-199884D01*
X200058Y-199797D01*
X200053Y-199715D01*
X200020Y-199573D01*
X199977Y-199442D01*
X199955Y-199387D01*
X199927Y-199338D01*
X199906Y-199294D01*
X199878Y-199256D01*
X199856Y-199223D01*
X199840Y-199196D01*
X199818Y-199174D01*
X199807Y-199158D01*
X199802Y-199152D01*
X199796Y-199147D01*
X199742Y-199098D01*
X199687Y-199054D01*
X199627Y-199021D01*
X199567Y-198988D01*
X199447Y-198939D01*
X199332Y-198907D01*
X199234Y-198890D01*
X199190Y-198879D01*
X199152D01*
X199119Y-198874D01*
X198999D01*
X198923Y-198885D01*
X198786Y-198912D01*
X198672Y-198956D01*
X198568Y-198999D01*
X198491Y-199049D01*
X198459Y-199070D01*
X198431Y-199092D01*
X198409Y-199109D01*
X198393Y-199119D01*
X198388Y-199125D01*
X198382Y-199130D01*
X198333Y-199180D01*
X198295Y-199229D01*
X198257Y-199278D01*
X198229Y-199332D01*
X198180Y-199436D01*
X198147Y-199534D01*
X198131Y-199616D01*
X198120Y-199655D01*
Y-199687D01*
X198115Y-199709D01*
Y-199731D01*
Y-199742D01*
Y-199747D01*
X198120Y-199813D01*
X198126Y-199879D01*
X198158Y-200009D01*
X198207Y-200135D01*
X198262Y-200250D01*
X198317Y-200348D01*
X198338Y-200386D01*
X198366Y-200425D01*
X198382Y-200452D01*
X198399Y-200474D01*
X198404Y-200484D01*
X198409Y-200490D01*
X198470Y-200566D01*
X198540Y-200648D01*
X198622Y-200736D01*
X198710Y-200823D01*
X198890Y-201003D01*
X199076Y-201172D01*
X199163Y-201254D01*
X199250Y-201325D01*
X199327Y-201391D01*
X199392Y-201446D01*
X199447Y-201495D01*
X199485Y-201527D01*
X199512Y-201555D01*
X199523Y-201560D01*
X199622Y-201642D01*
X199709Y-201718D01*
X199796Y-201789D01*
X199873Y-201860D01*
X199949Y-201926D01*
X200015Y-201992D01*
X200075Y-202046D01*
X200129Y-202101D01*
X200179Y-202150D01*
X200217Y-202193D01*
X200255Y-202232D01*
X200282Y-202259D01*
X200310Y-202286D01*
X200326Y-202303D01*
X200331Y-202314D01*
X200337Y-202319D01*
X200435Y-202439D01*
X200517Y-202559D01*
X200588Y-202674D01*
X200643Y-202778D01*
X200686Y-202865D01*
X200703Y-202903D01*
X200719Y-202931D01*
X200730Y-202958D01*
X200735Y-202974D01*
X200741Y-202985D01*
Y-202991D01*
X200768Y-203067D01*
X200785Y-203144D01*
X200801Y-203215D01*
X200806Y-203280D01*
X200812Y-203335D01*
Y-203378D01*
Y-203406D01*
Y-203417D01*
X197476D01*
Y-202821D01*
X199960D01*
X199873Y-202701D01*
X199829Y-202647D01*
X199785Y-202598D01*
X199747Y-202554D01*
X199720Y-202521D01*
X199698Y-202499D01*
X199693Y-202494D01*
X199660Y-202461D01*
X199616Y-202417D01*
X199567Y-202374D01*
X199512Y-202325D01*
X199398Y-202215D01*
X199278Y-202112D01*
X199163Y-202013D01*
X199114Y-201970D01*
X199065Y-201931D01*
X199032Y-201899D01*
X198999Y-201877D01*
X198983Y-201860D01*
X198977Y-201855D01*
X198857Y-201751D01*
X198743Y-201653D01*
X198639Y-201566D01*
X198546Y-201478D01*
X198459Y-201402D01*
X198382Y-201325D01*
X198311Y-201260D01*
X198246Y-201200D01*
X198191Y-201151D01*
X198147Y-201101D01*
X198109Y-201063D01*
X198076Y-201030D01*
X198055Y-201003D01*
X198033Y-200987D01*
X198027Y-200976D01*
X198022Y-200971D01*
X197918Y-200850D01*
X197836Y-200741D01*
X197765Y-200637D01*
X197705Y-200545D01*
X197661Y-200468D01*
X197629Y-200408D01*
X197618Y-200386D01*
X197612Y-200370D01*
X197607Y-200364D01*
Y-200359D01*
X197563Y-200250D01*
X197536Y-200141D01*
X197514Y-200042D01*
X197498Y-199950D01*
X197487Y-199873D01*
X197481Y-199813D01*
Y-199791D01*
Y-199775D01*
Y-199769D01*
Y-199764D01*
X197487Y-199655D01*
X197498Y-199551D01*
X197520Y-199453D01*
X197547Y-199354D01*
X197580Y-199267D01*
X197618Y-199185D01*
X197656Y-199109D01*
X197694Y-199043D01*
X197732Y-198978D01*
X197771Y-198923D01*
X197809Y-198874D01*
X197842Y-198836D01*
X197869Y-198808D01*
X197891Y-198781D01*
X197902Y-198770D01*
X197907Y-198765D01*
X197989Y-198694D01*
X198076Y-198634D01*
X198169Y-198579D01*
X198267Y-198530D01*
X198360Y-198492D01*
X198459Y-198459D01*
X198551Y-198432D01*
X198644Y-198410D01*
X198726Y-198393D01*
X198808Y-198382D01*
X198879Y-198372D01*
X198939Y-198366D01*
X198988Y-198361D01*
X199059D01*
X199190Y-198366D01*
D02*
G37*
G36*
X204738Y-198486D02*
X204819Y-198606D01*
X204912Y-198721D01*
X205005Y-198819D01*
X205087Y-198912D01*
X205125Y-198945D01*
X205153Y-198978D01*
X205180Y-199005D01*
X205202Y-199021D01*
X205213Y-199032D01*
X205218Y-199038D01*
X205365Y-199163D01*
X205524Y-199272D01*
X205677Y-199376D01*
X205819Y-199463D01*
X205879Y-199496D01*
X205939Y-199529D01*
X205993Y-199562D01*
X206037Y-199584D01*
X206075Y-199600D01*
X206103Y-199616D01*
X206119Y-199622D01*
X206124Y-199627D01*
Y-200222D01*
X206015Y-200179D01*
X205901Y-200130D01*
X205791Y-200075D01*
X205693Y-200026D01*
X205606Y-199977D01*
X205568Y-199960D01*
X205535Y-199938D01*
X205507Y-199928D01*
X205491Y-199917D01*
X205480Y-199906D01*
X205475D01*
X205344Y-199824D01*
X205229Y-199747D01*
X205125Y-199676D01*
X205043Y-199611D01*
X204972Y-199556D01*
X204923Y-199518D01*
X204896Y-199491D01*
X204885Y-199480D01*
Y-203417D01*
X204268D01*
Y-198361D01*
X204667D01*
X204738Y-198486D01*
D02*
G37*
G36*
X220795Y-203416D02*
X220129D01*
Y-201041D01*
X217514Y-201042D01*
Y-203417D01*
X216848D01*
Y-198377D01*
X217514D01*
Y-200446D01*
X220129Y-200446D01*
Y-198377D01*
X220795D01*
Y-203416D01*
D02*
G37*
G36*
X233343D02*
X232704D01*
Y-199463D01*
X230061Y-203416D01*
X229373D01*
Y-198377D01*
X230012D01*
Y-202336D01*
X232660Y-198377D01*
X233343D01*
Y-203416D01*
D02*
G37*
G36*
X208947Y-203417D02*
X208358D01*
X206971Y-199764D01*
X207610D01*
X208423Y-201997D01*
X208478Y-202144D01*
X208521Y-202275D01*
X208560Y-202396D01*
X208592Y-202494D01*
X208620Y-202576D01*
X208631Y-202608D01*
X208636Y-202641D01*
X208642Y-202663D01*
X208647Y-202679D01*
X208652Y-202685D01*
Y-202690D01*
X208696Y-202548D01*
X208734Y-202412D01*
X208773Y-202286D01*
X208811Y-202177D01*
X208844Y-202084D01*
X208855Y-202046D01*
X208865Y-202013D01*
X208876Y-201986D01*
X208882Y-201970D01*
X208887Y-201959D01*
Y-201953D01*
X209674Y-199764D01*
X210329D01*
X208947Y-203417D01*
D02*
G37*
G36*
X246141Y-198295D02*
X246261Y-198301D01*
X246485Y-198339D01*
X246594Y-198361D01*
X246692Y-198388D01*
X246791Y-198415D01*
X246878Y-198442D01*
X246954Y-198470D01*
X247025Y-198497D01*
X247091Y-198524D01*
X247140Y-198546D01*
X247184Y-198568D01*
X247211Y-198584D01*
X247233Y-198590D01*
X247238Y-198595D01*
X247337Y-198655D01*
X247435Y-198721D01*
X247522Y-198792D01*
X247604Y-198863D01*
X247680Y-198939D01*
X247751Y-199010D01*
X247812Y-199087D01*
X247872Y-199152D01*
X247921Y-199223D01*
X247964Y-199283D01*
X248003Y-199338D01*
X248035Y-199387D01*
X248057Y-199431D01*
X248074Y-199458D01*
X248085Y-199480D01*
X248090Y-199485D01*
X248145Y-199594D01*
X248188Y-199715D01*
X248226Y-199829D01*
X248265Y-199944D01*
X248319Y-200179D01*
X248336Y-200288D01*
X248352Y-200392D01*
X248363Y-200490D01*
X248374Y-200577D01*
X248379Y-200659D01*
X248385Y-200730D01*
X248390Y-200785D01*
Y-200829D01*
Y-200850D01*
Y-200861D01*
X248385Y-200992D01*
X248379Y-201123D01*
X248347Y-201375D01*
X248330Y-201495D01*
X248308Y-201604D01*
X248281Y-201708D01*
X248259Y-201806D01*
X248232Y-201893D01*
X248210Y-201975D01*
X248188Y-202041D01*
X248166Y-202101D01*
X248150Y-202144D01*
X248139Y-202183D01*
X248134Y-202204D01*
X248128Y-202210D01*
X248074Y-202325D01*
X248019Y-202434D01*
X247959Y-202532D01*
X247894Y-202625D01*
X247828Y-202712D01*
X247768Y-202789D01*
X247702Y-202860D01*
X247642Y-202925D01*
X247582Y-202985D01*
X247528Y-203034D01*
X247479Y-203073D01*
X247435Y-203111D01*
X247402Y-203138D01*
X247375Y-203154D01*
X247358Y-203165D01*
X247353Y-203171D01*
X247255Y-203231D01*
X247151Y-203280D01*
X247042Y-203324D01*
X246927Y-203362D01*
X246818Y-203389D01*
X246709Y-203416D01*
X246599Y-203438D01*
X246496Y-203455D01*
X246397Y-203471D01*
X246310Y-203482D01*
X246228Y-203487D01*
X246163Y-203493D01*
X246103Y-203498D01*
X246026D01*
X245879Y-203493D01*
X245742Y-203482D01*
X245611Y-203460D01*
X245486Y-203433D01*
X245366Y-203400D01*
X245256Y-203362D01*
X245158Y-203324D01*
X245065Y-203286D01*
X244978Y-203247D01*
X244907Y-203209D01*
X244841Y-203171D01*
X244792Y-203138D01*
X244748Y-203111D01*
X244721Y-203089D01*
X244699Y-203078D01*
X244694Y-203073D01*
X244596Y-202985D01*
X244503Y-202892D01*
X244421Y-202794D01*
X244344Y-202696D01*
X244273Y-202592D01*
X244213Y-202483D01*
X244159Y-202385D01*
X244110Y-202281D01*
X244066Y-202188D01*
X244033Y-202101D01*
X244001Y-202019D01*
X243979Y-201953D01*
X243957Y-201893D01*
X243946Y-201855D01*
X243935Y-201828D01*
Y-201817D01*
X244601Y-201647D01*
X244628Y-201762D01*
X244667Y-201871D01*
X244705Y-201975D01*
X244743Y-202068D01*
X244787Y-202155D01*
X244830Y-202232D01*
X244874Y-202303D01*
X244918Y-202368D01*
X244962Y-202423D01*
X245000Y-202472D01*
X245038Y-202516D01*
X245065Y-202548D01*
X245093Y-202576D01*
X245114Y-202592D01*
X245125Y-202603D01*
X245131Y-202608D01*
X245207Y-202663D01*
X245284Y-202712D01*
X245360Y-202756D01*
X245442Y-202794D01*
X245524Y-202827D01*
X245600Y-202854D01*
X245753Y-202892D01*
X245819Y-202903D01*
X245884Y-202914D01*
X245939Y-202920D01*
X245988Y-202925D01*
X246026Y-202931D01*
X246081D01*
X246168Y-202925D01*
X246250Y-202920D01*
X246408Y-202892D01*
X246556Y-202854D01*
X246681Y-202811D01*
X246736Y-202789D01*
X246785Y-202772D01*
X246829Y-202750D01*
X246867Y-202734D01*
X246900Y-202718D01*
X246922Y-202707D01*
X246933Y-202696D01*
X246938D01*
X247009Y-202647D01*
X247075Y-202597D01*
X247195Y-202483D01*
X247293Y-202368D01*
X247375Y-202248D01*
X247435Y-202144D01*
X247462Y-202101D01*
X247484Y-202057D01*
X247495Y-202024D01*
X247506Y-202002D01*
X247517Y-201986D01*
Y-201981D01*
X247577Y-201795D01*
X247626Y-201604D01*
X247659Y-201413D01*
X247670Y-201325D01*
X247680Y-201238D01*
X247686Y-201156D01*
X247691Y-201085D01*
X247697Y-201020D01*
Y-200965D01*
X247702Y-200916D01*
Y-200883D01*
Y-200861D01*
Y-200856D01*
X247697Y-200670D01*
X247680Y-200495D01*
X247653Y-200332D01*
X247642Y-200255D01*
X247626Y-200184D01*
X247609Y-200124D01*
X247599Y-200064D01*
X247582Y-200015D01*
X247571Y-199971D01*
X247566Y-199938D01*
X247555Y-199911D01*
X247550Y-199895D01*
Y-199889D01*
X247479Y-199720D01*
X247397Y-199573D01*
X247309Y-199447D01*
X247260Y-199392D01*
X247216Y-199338D01*
X247173Y-199294D01*
X247134Y-199256D01*
X247096Y-199218D01*
X247069Y-199190D01*
X247042Y-199169D01*
X247020Y-199152D01*
X247009Y-199147D01*
X247004Y-199141D01*
X246927Y-199092D01*
X246851Y-199048D01*
X246769Y-199010D01*
X246687Y-198978D01*
X246523Y-198928D01*
X246365Y-198890D01*
X246299Y-198879D01*
X246234Y-198874D01*
X246174Y-198868D01*
X246124Y-198863D01*
X246081Y-198857D01*
X245933D01*
X245846Y-198868D01*
X245682Y-198896D01*
X245540Y-198939D01*
X245480Y-198961D01*
X245420Y-198983D01*
X245366Y-199005D01*
X245322Y-199027D01*
X245284Y-199048D01*
X245251Y-199070D01*
X245223Y-199087D01*
X245207Y-199098D01*
X245196Y-199103D01*
X245191Y-199109D01*
X245131Y-199158D01*
X245071Y-199212D01*
X244972Y-199338D01*
X244880Y-199474D01*
X244809Y-199606D01*
X244754Y-199726D01*
X244727Y-199775D01*
X244710Y-199818D01*
X244694Y-199857D01*
X244689Y-199889D01*
X244677Y-199906D01*
Y-199911D01*
X244022Y-199758D01*
X244066Y-199633D01*
X244115Y-199513D01*
X244164Y-199398D01*
X244224Y-199294D01*
X244279Y-199196D01*
X244339Y-199109D01*
X244399Y-199027D01*
X244459Y-198956D01*
X244519Y-198890D01*
X244568Y-198836D01*
X244618Y-198786D01*
X244661Y-198748D01*
X244694Y-198715D01*
X244721Y-198694D01*
X244738Y-198683D01*
X244743Y-198677D01*
X244841Y-198606D01*
X244945Y-198552D01*
X245049Y-198497D01*
X245158Y-198453D01*
X245267Y-198415D01*
X245371Y-198382D01*
X245475Y-198361D01*
X245573Y-198339D01*
X245666Y-198322D01*
X245748Y-198311D01*
X245824Y-198301D01*
X245890Y-198295D01*
X245944Y-198290D01*
X246015D01*
X246141Y-198295D01*
D02*
G37*
G36*
X243100Y-203416D02*
X239338D01*
Y-202821D01*
X242434D01*
Y-201107D01*
X239643D01*
Y-200512D01*
X242434D01*
Y-198972D01*
X239452D01*
Y-198377D01*
X243100D01*
Y-203416D01*
D02*
G37*
G36*
X238409D02*
X237743D01*
Y-201178D01*
X236886D01*
X236810Y-201183D01*
X236744Y-201189D01*
X236690D01*
X236651Y-201194D01*
X236624Y-201200D01*
X236608Y-201205D01*
X236602D01*
X236542Y-201222D01*
X236488Y-201243D01*
X236438Y-201265D01*
X236389Y-201287D01*
X236351Y-201309D01*
X236324Y-201325D01*
X236302Y-201336D01*
X236296Y-201342D01*
X236242Y-201380D01*
X236182Y-201435D01*
X236122Y-201489D01*
X236073Y-201544D01*
X236023Y-201593D01*
X235991Y-201637D01*
X235969Y-201664D01*
X235958Y-201669D01*
Y-201675D01*
X235881Y-201773D01*
X235800Y-201882D01*
X235723Y-201997D01*
X235647Y-202112D01*
X235581Y-202210D01*
X235548Y-202254D01*
X235527Y-202292D01*
X235505Y-202325D01*
X235488Y-202346D01*
X235483Y-202363D01*
X235477Y-202368D01*
X234811Y-203416D01*
X233976D01*
X234850Y-202046D01*
X234948Y-201904D01*
X235046Y-201773D01*
X235139Y-201658D01*
X235221Y-201560D01*
X235292Y-201484D01*
X235325Y-201451D01*
X235352Y-201424D01*
X235374Y-201402D01*
X235390Y-201385D01*
X235396Y-201380D01*
X235401Y-201375D01*
X235456Y-201331D01*
X235521Y-201282D01*
X235587Y-201243D01*
X235652Y-201205D01*
X235712Y-201172D01*
X235761Y-201145D01*
X235794Y-201129D01*
X235800Y-201123D01*
X235805D01*
X235674Y-201101D01*
X235548Y-201074D01*
X235434Y-201041D01*
X235330Y-201009D01*
X235232Y-200971D01*
X235144Y-200932D01*
X235068Y-200894D01*
X234997Y-200856D01*
X234931Y-200818D01*
X234877Y-200779D01*
X234833Y-200747D01*
X234795Y-200719D01*
X234768Y-200692D01*
X234746Y-200676D01*
X234735Y-200665D01*
X234729Y-200659D01*
X234669Y-200588D01*
X234615Y-200517D01*
X234566Y-200441D01*
X234527Y-200364D01*
X234495Y-200288D01*
X234467Y-200212D01*
X234424Y-200070D01*
X234407Y-200004D01*
X234396Y-199944D01*
X234391Y-199889D01*
X234385Y-199840D01*
X234380Y-199808D01*
Y-199775D01*
Y-199758D01*
Y-199753D01*
X234391Y-199600D01*
X234413Y-199458D01*
X234446Y-199332D01*
X234484Y-199218D01*
X234506Y-199169D01*
X234527Y-199125D01*
X234544Y-199087D01*
X234560Y-199054D01*
X234571Y-199027D01*
X234582Y-199010D01*
X234593Y-198999D01*
Y-198994D01*
X234675Y-198874D01*
X234768Y-198775D01*
X234860Y-198688D01*
X234953Y-198623D01*
X235030Y-198574D01*
X235095Y-198541D01*
X235122Y-198530D01*
X235139Y-198519D01*
X235150Y-198513D01*
X235155D01*
X235226Y-198492D01*
X235297Y-198470D01*
X235461Y-198437D01*
X235630Y-198410D01*
X235794Y-198393D01*
X235876Y-198388D01*
X235947Y-198382D01*
X236007D01*
X236067Y-198377D01*
X238409D01*
Y-203416D01*
D02*
G37*
G36*
X215767Y-203417D02*
X212616D01*
Y-202821D01*
X215101D01*
Y-198377D01*
X215767D01*
Y-203417D01*
D02*
G37*
G36*
X202335D02*
X201631D01*
Y-202712D01*
X202335D01*
Y-203417D01*
D02*
G37*
G36*
X224284Y-198295D02*
X224470Y-198322D01*
X224645Y-198355D01*
X224809Y-198399D01*
X224967Y-198453D01*
X225109Y-198513D01*
X225240Y-198579D01*
X225360Y-198644D01*
X225469Y-198710D01*
X225562Y-198775D01*
X225639Y-198836D01*
X225710Y-198890D01*
X225759Y-198934D01*
X225797Y-198967D01*
X225824Y-198994D01*
X225830Y-198999D01*
X225950Y-199136D01*
X226054Y-199289D01*
X226141Y-199442D01*
X226217Y-199606D01*
X226283Y-199769D01*
X226337Y-199933D01*
X226381Y-200091D01*
X226419Y-200250D01*
X226447Y-200397D01*
X226463Y-200528D01*
X226479Y-200654D01*
X226490Y-200758D01*
X226496Y-200845D01*
Y-200878D01*
X226501Y-200910D01*
Y-200932D01*
Y-200949D01*
Y-200959D01*
Y-200965D01*
X226496Y-201085D01*
X226490Y-201211D01*
X226458Y-201440D01*
X226436Y-201549D01*
X226414Y-201653D01*
X226386Y-201751D01*
X226359Y-201839D01*
X226332Y-201926D01*
X226305Y-201997D01*
X226283Y-202063D01*
X226261Y-202117D01*
X226245Y-202161D01*
X226228Y-202193D01*
X226223Y-202215D01*
X226217Y-202221D01*
X226157Y-202330D01*
X226097Y-202434D01*
X226032Y-202527D01*
X225961Y-202619D01*
X225890Y-202701D01*
X225819Y-202778D01*
X225753Y-202849D01*
X225682Y-202914D01*
X225617Y-202969D01*
X225557Y-203018D01*
X225502Y-203062D01*
X225458Y-203094D01*
X225420Y-203122D01*
X225387Y-203144D01*
X225371Y-203154D01*
X225365Y-203160D01*
X225256Y-203220D01*
X225147Y-203269D01*
X225038Y-203318D01*
X224929Y-203357D01*
X224819Y-203389D01*
X224716Y-203416D01*
X224612Y-203438D01*
X224519Y-203455D01*
X224426Y-203471D01*
X224350Y-203482D01*
X224273Y-203487D01*
X224214Y-203493D01*
X224164Y-203498D01*
X224093D01*
X223973Y-203493D01*
X223853Y-203487D01*
X223624Y-203449D01*
X223520Y-203428D01*
X223416Y-203400D01*
X223323Y-203373D01*
X223236Y-203346D01*
X223154Y-203318D01*
X223083Y-203291D01*
X223023Y-203264D01*
X222969Y-203242D01*
X222925Y-203220D01*
X222898Y-203204D01*
X222876Y-203198D01*
X222870Y-203193D01*
X222767Y-203133D01*
X222668Y-203062D01*
X222575Y-202991D01*
X222494Y-202920D01*
X222417Y-202843D01*
X222341Y-202767D01*
X222275Y-202690D01*
X222215Y-202619D01*
X222166Y-202548D01*
X222117Y-202483D01*
X222079Y-202423D01*
X222046Y-202374D01*
X222024Y-202336D01*
X222008Y-202303D01*
X221997Y-202281D01*
X221991Y-202275D01*
X221937Y-202161D01*
X221887Y-202041D01*
X221849Y-201926D01*
X221811Y-201806D01*
X221778Y-201691D01*
X221756Y-201576D01*
X221735Y-201467D01*
X221718Y-201364D01*
X221707Y-201265D01*
X221696Y-201178D01*
X221691Y-201101D01*
X221686Y-201036D01*
X221680Y-200981D01*
Y-200938D01*
Y-200916D01*
Y-200905D01*
X221686Y-200763D01*
X221691Y-200632D01*
X221707Y-200501D01*
X221724Y-200375D01*
X221745Y-200261D01*
X221773Y-200146D01*
X221800Y-200042D01*
X221827Y-199949D01*
X221855Y-199862D01*
X221882Y-199786D01*
X221904Y-199715D01*
X221931Y-199660D01*
X221948Y-199616D01*
X221964Y-199584D01*
X221969Y-199562D01*
X221975Y-199556D01*
X222035Y-199447D01*
X222095Y-199343D01*
X222166Y-199245D01*
X222232Y-199158D01*
X222302Y-199076D01*
X222373Y-198999D01*
X222444Y-198928D01*
X222515Y-198863D01*
X222581Y-198808D01*
X222641Y-198759D01*
X222690Y-198715D01*
X222739Y-198683D01*
X222778Y-198655D01*
X222805Y-198639D01*
X222827Y-198628D01*
X222832Y-198623D01*
X222941Y-198563D01*
X223045Y-198513D01*
X223154Y-198470D01*
X223263Y-198432D01*
X223373Y-198399D01*
X223476Y-198372D01*
X223575Y-198350D01*
X223673Y-198333D01*
X223760Y-198317D01*
X223837Y-198306D01*
X223908Y-198301D01*
X223973Y-198295D01*
X224022Y-198290D01*
X224088D01*
X224284Y-198295D01*
D02*
G37*
G36*
X202319Y-190492D02*
X202445Y-190503D01*
X202559Y-190519D01*
X202668Y-190547D01*
X202772Y-190574D01*
X202865Y-190607D01*
X202952Y-190639D01*
X203029Y-190672D01*
X203100Y-190710D01*
X203160Y-190743D01*
X203215Y-190776D01*
X203258Y-190803D01*
X203291Y-190831D01*
X203313Y-190847D01*
X203329Y-190858D01*
X203335Y-190863D01*
X203411Y-190934D01*
X203477Y-191016D01*
X203537Y-191098D01*
X203591Y-191191D01*
X203635Y-191278D01*
X203679Y-191366D01*
X203711Y-191458D01*
X203739Y-191540D01*
X203766Y-191622D01*
X203782Y-191699D01*
X203799Y-191770D01*
X203810Y-191830D01*
X203815Y-191879D01*
X203821Y-191912D01*
X203826Y-191934D01*
Y-191944D01*
X203193Y-192010D01*
X203187Y-191923D01*
X203182Y-191841D01*
X203149Y-191699D01*
X203105Y-191568D01*
X203083Y-191513D01*
X203056Y-191464D01*
X203034Y-191420D01*
X203007Y-191382D01*
X202985Y-191349D01*
X202969Y-191322D01*
X202947Y-191300D01*
X202936Y-191284D01*
X202931Y-191278D01*
X202925Y-191273D01*
X202870Y-191224D01*
X202816Y-191180D01*
X202756Y-191147D01*
X202696Y-191114D01*
X202576Y-191065D01*
X202461Y-191033D01*
X202363Y-191016D01*
X202319Y-191005D01*
X202281D01*
X202248Y-191000D01*
X202128D01*
X202051Y-191011D01*
X201915Y-191038D01*
X201800Y-191082D01*
X201697Y-191125D01*
X201620Y-191174D01*
X201587Y-191196D01*
X201560Y-191218D01*
X201538Y-191235D01*
X201522Y-191245D01*
X201517Y-191251D01*
X201511Y-191256D01*
X201462Y-191306D01*
X201424Y-191355D01*
X201385Y-191404D01*
X201358Y-191458D01*
X201309Y-191562D01*
X201276Y-191660D01*
X201260Y-191742D01*
X201249Y-191781D01*
Y-191813D01*
X201243Y-191835D01*
Y-191857D01*
Y-191868D01*
Y-191873D01*
X201249Y-191939D01*
X201254Y-192004D01*
X201287Y-192136D01*
X201336Y-192261D01*
X201391Y-192376D01*
X201446Y-192474D01*
X201467Y-192512D01*
X201495Y-192551D01*
X201511Y-192578D01*
X201527Y-192600D01*
X201533Y-192611D01*
X201538Y-192616D01*
X201598Y-192692D01*
X201669Y-192774D01*
X201751Y-192862D01*
X201839Y-192949D01*
X202019Y-193129D01*
X202204Y-193298D01*
X202292Y-193380D01*
X202379Y-193451D01*
X202456Y-193517D01*
X202521Y-193571D01*
X202576Y-193621D01*
X202614Y-193653D01*
X202641Y-193681D01*
X202652Y-193686D01*
X202750Y-193768D01*
X202838Y-193844D01*
X202925Y-193915D01*
X203002Y-193986D01*
X203078Y-194052D01*
X203144Y-194117D01*
X203204Y-194172D01*
X203258Y-194227D01*
X203307Y-194276D01*
X203346Y-194319D01*
X203384Y-194358D01*
X203411Y-194385D01*
X203438Y-194412D01*
X203455Y-194429D01*
X203460Y-194440D01*
X203466Y-194445D01*
X203564Y-194565D01*
X203646Y-194685D01*
X203717Y-194800D01*
X203771Y-194904D01*
X203815Y-194991D01*
X203832Y-195029D01*
X203848Y-195057D01*
X203859Y-195084D01*
X203864Y-195100D01*
X203870Y-195111D01*
Y-195117D01*
X203897Y-195193D01*
X203913Y-195270D01*
X203930Y-195341D01*
X203935Y-195406D01*
X203941Y-195461D01*
Y-195504D01*
Y-195532D01*
Y-195543D01*
X200605D01*
Y-194947D01*
X203089D01*
X203002Y-194827D01*
X202958Y-194773D01*
X202914Y-194723D01*
X202876Y-194680D01*
X202849Y-194647D01*
X202827Y-194625D01*
X202821Y-194620D01*
X202789Y-194587D01*
X202745Y-194543D01*
X202696Y-194500D01*
X202641Y-194450D01*
X202527Y-194341D01*
X202406Y-194238D01*
X202292Y-194139D01*
X202243Y-194096D01*
X202193Y-194057D01*
X202161Y-194025D01*
X202128Y-194003D01*
X202112Y-193986D01*
X202106Y-193981D01*
X201986Y-193877D01*
X201871Y-193779D01*
X201768Y-193692D01*
X201675Y-193604D01*
X201587Y-193528D01*
X201511Y-193451D01*
X201440Y-193386D01*
X201375Y-193326D01*
X201320Y-193277D01*
X201276Y-193228D01*
X201238Y-193189D01*
X201205Y-193157D01*
X201183Y-193129D01*
X201162Y-193113D01*
X201156Y-193102D01*
X201151Y-193096D01*
X201047Y-192976D01*
X200965Y-192867D01*
X200894Y-192763D01*
X200834Y-192671D01*
X200790Y-192594D01*
X200758Y-192534D01*
X200747Y-192512D01*
X200741Y-192496D01*
X200736Y-192490D01*
Y-192485D01*
X200692Y-192376D01*
X200665Y-192266D01*
X200643Y-192168D01*
X200626Y-192075D01*
X200616Y-191999D01*
X200610Y-191939D01*
Y-191917D01*
Y-191901D01*
Y-191895D01*
Y-191890D01*
X200616Y-191781D01*
X200626Y-191677D01*
X200648Y-191579D01*
X200676Y-191480D01*
X200708Y-191393D01*
X200747Y-191311D01*
X200785Y-191235D01*
X200823Y-191169D01*
X200861Y-191103D01*
X200900Y-191049D01*
X200938Y-191000D01*
X200971Y-190962D01*
X200998Y-190934D01*
X201020Y-190907D01*
X201030Y-190896D01*
X201036Y-190891D01*
X201118Y-190820D01*
X201205Y-190760D01*
X201298Y-190705D01*
X201396Y-190656D01*
X201489Y-190618D01*
X201587Y-190585D01*
X201680Y-190558D01*
X201773Y-190536D01*
X201855Y-190519D01*
X201937Y-190508D01*
X202008Y-190498D01*
X202068Y-190492D01*
X202117Y-190487D01*
X202188D01*
X202319Y-190492D01*
D02*
G37*
G36*
X194167Y-190612D02*
X194249Y-190732D01*
X194342Y-190847D01*
X194435Y-190945D01*
X194517Y-191038D01*
X194555Y-191071D01*
X194582Y-191103D01*
X194610Y-191131D01*
X194631Y-191147D01*
X194642Y-191158D01*
X194648Y-191164D01*
X194795Y-191289D01*
X194954Y-191398D01*
X195106Y-191502D01*
X195248Y-191589D01*
X195308Y-191622D01*
X195369Y-191655D01*
X195423Y-191688D01*
X195467Y-191710D01*
X195505Y-191726D01*
X195532Y-191742D01*
X195549Y-191748D01*
X195554Y-191753D01*
Y-192348D01*
X195445Y-192305D01*
X195330Y-192256D01*
X195221Y-192201D01*
X195123Y-192152D01*
X195035Y-192103D01*
X194997Y-192086D01*
X194965Y-192064D01*
X194937Y-192054D01*
X194921Y-192043D01*
X194910Y-192032D01*
X194904D01*
X194773Y-191950D01*
X194659Y-191873D01*
X194555Y-191802D01*
X194473Y-191737D01*
X194402Y-191682D01*
X194353Y-191644D01*
X194326Y-191617D01*
X194315Y-191606D01*
Y-195543D01*
X193698D01*
Y-190487D01*
X194096D01*
X194167Y-190612D01*
D02*
G37*
G36*
X178814Y-195543D02*
X178224D01*
X176837Y-191890D01*
X177476D01*
X178290Y-194123D01*
X178344Y-194270D01*
X178388Y-194401D01*
X178426Y-194521D01*
X178459Y-194620D01*
X178486Y-194702D01*
X178497Y-194734D01*
X178503Y-194767D01*
X178508Y-194789D01*
X178514Y-194805D01*
X178519Y-194811D01*
Y-194816D01*
X178563Y-194674D01*
X178601Y-194538D01*
X178639Y-194412D01*
X178677Y-194303D01*
X178710Y-194210D01*
X178721Y-194172D01*
X178732Y-194139D01*
X178743Y-194112D01*
X178748Y-194096D01*
X178754Y-194085D01*
Y-194079D01*
X179540Y-191890D01*
X180195D01*
X178814Y-195543D01*
D02*
G37*
G36*
X247724Y-195543D02*
X247031D01*
X245972Y-191704D01*
X245944Y-191611D01*
X245917Y-191513D01*
X245890Y-191409D01*
X245868Y-191316D01*
X245846Y-191240D01*
X245841Y-191202D01*
X245835Y-191174D01*
X245824Y-191147D01*
Y-191131D01*
X245819Y-191120D01*
Y-191114D01*
X245813Y-191136D01*
X245802Y-191169D01*
X245792Y-191207D01*
X245781Y-191251D01*
X245753Y-191349D01*
X245726Y-191447D01*
X245699Y-191546D01*
X245688Y-191589D01*
X245677Y-191628D01*
X245666Y-191660D01*
X245661Y-191682D01*
X245655Y-191699D01*
Y-191704D01*
X244601Y-195543D01*
X243952D01*
X242570Y-190503D01*
X243242D01*
X244034Y-193746D01*
X244088Y-193970D01*
X244137Y-194177D01*
X244159Y-194270D01*
X244181Y-194363D01*
X244197Y-194445D01*
X244214Y-194521D01*
X244230Y-194592D01*
X244246Y-194652D01*
X244257Y-194707D01*
X244268Y-194756D01*
X244274Y-194789D01*
X244279Y-194816D01*
X244285Y-194833D01*
Y-194838D01*
X244339Y-194521D01*
X244399Y-194210D01*
X244432Y-194057D01*
X244465Y-193910D01*
X244498Y-193768D01*
X244530Y-193637D01*
X244563Y-193511D01*
X244590Y-193402D01*
X244618Y-193304D01*
X244639Y-193222D01*
X244656Y-193151D01*
X244672Y-193102D01*
X244678Y-193069D01*
X244683Y-193058D01*
X245398Y-190503D01*
X246201D01*
X247162Y-193910D01*
X247173Y-193943D01*
X247184Y-193986D01*
X247195Y-194041D01*
X247211Y-194106D01*
X247233Y-194183D01*
X247249Y-194259D01*
X247293Y-194423D01*
X247309Y-194500D01*
X247331Y-194576D01*
X247348Y-194647D01*
X247359Y-194713D01*
X247375Y-194762D01*
X247380Y-194805D01*
X247391Y-194827D01*
Y-194838D01*
X247424Y-194647D01*
X247462Y-194461D01*
X247495Y-194292D01*
X247512Y-194210D01*
X247528Y-194134D01*
X247544Y-194063D01*
X247561Y-194003D01*
X247572Y-193948D01*
X247583Y-193899D01*
X247593Y-193861D01*
X247599Y-193833D01*
X247604Y-193817D01*
Y-193812D01*
X248363Y-190503D01*
X249051D01*
X247724Y-195543D01*
D02*
G37*
G36*
X239737Y-190421D02*
X239873Y-190427D01*
X240004Y-190443D01*
X240124Y-190465D01*
X240244Y-190487D01*
X240353Y-190514D01*
X240457Y-190541D01*
X240550Y-190568D01*
X240632Y-190601D01*
X240708Y-190629D01*
X240774Y-190656D01*
X240828Y-190678D01*
X240872Y-190700D01*
X240905Y-190716D01*
X240927Y-190721D01*
X240932Y-190727D01*
X241036Y-190787D01*
X241134Y-190858D01*
X241227Y-190929D01*
X241309Y-191005D01*
X241391Y-191087D01*
X241462Y-191164D01*
X241527Y-191240D01*
X241587Y-191316D01*
X241636Y-191393D01*
X241686Y-191458D01*
X241724Y-191518D01*
X241757Y-191573D01*
X241778Y-191617D01*
X241795Y-191649D01*
X241806Y-191671D01*
X241811Y-191677D01*
X241866Y-191797D01*
X241910Y-191917D01*
X241953Y-192037D01*
X241986Y-192157D01*
X242041Y-192387D01*
X242062Y-192496D01*
X242079Y-192600D01*
X242090Y-192692D01*
X242101Y-192780D01*
X242106Y-192856D01*
X242112Y-192922D01*
X242117Y-192976D01*
Y-193015D01*
Y-193036D01*
Y-193047D01*
X242112Y-193184D01*
X242106Y-193320D01*
X242090Y-193446D01*
X242068Y-193571D01*
X242046Y-193686D01*
X242019Y-193801D01*
X241991Y-193904D01*
X241964Y-193997D01*
X241937Y-194085D01*
X241910Y-194161D01*
X241882Y-194227D01*
X241860Y-194287D01*
X241839Y-194330D01*
X241822Y-194363D01*
X241817Y-194385D01*
X241811Y-194390D01*
X241751Y-194500D01*
X241680Y-194603D01*
X241609Y-194696D01*
X241538Y-194789D01*
X241462Y-194871D01*
X241385Y-194942D01*
X241309Y-195013D01*
X241238Y-195073D01*
X241167Y-195128D01*
X241102Y-195177D01*
X241041Y-195215D01*
X240992Y-195248D01*
X240954Y-195275D01*
X240921Y-195291D01*
X240899Y-195302D01*
X240894Y-195308D01*
X240779Y-195362D01*
X240659Y-195412D01*
X240545Y-195455D01*
X240430Y-195488D01*
X240310Y-195521D01*
X240201Y-195548D01*
X240091Y-195570D01*
X239993Y-195586D01*
X239900Y-195597D01*
X239813Y-195608D01*
X239737Y-195614D01*
X239671Y-195619D01*
X239616Y-195624D01*
X239545D01*
X239343Y-195614D01*
X239147Y-195592D01*
X238967Y-195564D01*
X238885Y-195543D01*
X238803Y-195526D01*
X238732Y-195510D01*
X238672Y-195488D01*
X238612Y-195472D01*
X238568Y-195461D01*
X238524Y-195444D01*
X238497Y-195439D01*
X238481Y-195428D01*
X238475D01*
X238279Y-195346D01*
X238093Y-195253D01*
X237924Y-195155D01*
X237842Y-195106D01*
X237771Y-195062D01*
X237705Y-195018D01*
X237645Y-194975D01*
X237591Y-194942D01*
X237547Y-194909D01*
X237509Y-194882D01*
X237481Y-194860D01*
X237465Y-194849D01*
X237460Y-194844D01*
Y-192971D01*
X239595D01*
Y-193566D01*
X238115D01*
Y-194511D01*
X238202Y-194582D01*
X238300Y-194642D01*
X238404Y-194702D01*
X238508Y-194756D01*
X238601Y-194800D01*
X238639Y-194822D01*
X238672Y-194838D01*
X238704Y-194849D01*
X238726Y-194860D01*
X238737Y-194866D01*
X238743D01*
X238896Y-194920D01*
X239049Y-194958D01*
X239191Y-194991D01*
X239316Y-195007D01*
X239376Y-195013D01*
X239425Y-195018D01*
X239469Y-195024D01*
X239507D01*
X239540Y-195029D01*
X239584D01*
X239769Y-195018D01*
X239944Y-194997D01*
X240102Y-194958D01*
X240179Y-194942D01*
X240244Y-194920D01*
X240304Y-194898D01*
X240359Y-194882D01*
X240408Y-194860D01*
X240452Y-194844D01*
X240484Y-194833D01*
X240506Y-194822D01*
X240523Y-194811D01*
X240528D01*
X240610Y-194767D01*
X240686Y-194718D01*
X240817Y-194614D01*
X240932Y-194500D01*
X241031Y-194390D01*
X241102Y-194292D01*
X241134Y-194248D01*
X241156Y-194216D01*
X241178Y-194183D01*
X241189Y-194161D01*
X241194Y-194145D01*
X241200Y-194139D01*
X241276Y-193959D01*
X241331Y-193768D01*
X241374Y-193582D01*
X241402Y-193402D01*
X241407Y-193320D01*
X241418Y-193244D01*
X241424Y-193178D01*
Y-193118D01*
X241429Y-193075D01*
Y-193036D01*
Y-193015D01*
Y-193009D01*
X241418Y-192807D01*
X241396Y-192616D01*
X241369Y-192447D01*
X241353Y-192365D01*
X241331Y-192294D01*
X241314Y-192228D01*
X241298Y-192168D01*
X241282Y-192119D01*
X241265Y-192075D01*
X241254Y-192037D01*
X241243Y-192015D01*
X241238Y-191999D01*
Y-191993D01*
X241194Y-191895D01*
X241145Y-191802D01*
X241090Y-191715D01*
X241041Y-191644D01*
X240998Y-191584D01*
X240960Y-191535D01*
X240938Y-191508D01*
X240927Y-191497D01*
X240845Y-191415D01*
X240752Y-191344D01*
X240665Y-191278D01*
X240577Y-191224D01*
X240501Y-191180D01*
X240441Y-191153D01*
X240419Y-191142D01*
X240403Y-191131D01*
X240392Y-191125D01*
X240386D01*
X240255Y-191076D01*
X240124Y-191043D01*
X239988Y-191016D01*
X239867Y-191000D01*
X239807Y-190994D01*
X239758Y-190989D01*
X239709D01*
X239671Y-190983D01*
X239595D01*
X239458Y-190989D01*
X239327Y-191005D01*
X239212Y-191027D01*
X239109Y-191049D01*
X239027Y-191076D01*
X238988Y-191087D01*
X238961Y-191098D01*
X238939Y-191109D01*
X238923Y-191114D01*
X238912Y-191120D01*
X238907D01*
X238797Y-191174D01*
X238699Y-191229D01*
X238617Y-191289D01*
X238546Y-191344D01*
X238497Y-191398D01*
X238459Y-191437D01*
X238432Y-191464D01*
X238426Y-191475D01*
X238366Y-191562D01*
X238311Y-191660D01*
X238262Y-191759D01*
X238219Y-191857D01*
X238186Y-191944D01*
X238175Y-191983D01*
X238164Y-192010D01*
X238153Y-192037D01*
X238148Y-192059D01*
X238142Y-192070D01*
Y-192075D01*
X237536Y-191912D01*
X237591Y-191731D01*
X237651Y-191568D01*
X237684Y-191497D01*
X237716Y-191426D01*
X237744Y-191366D01*
X237776Y-191311D01*
X237804Y-191256D01*
X237831Y-191213D01*
X237858Y-191174D01*
X237875Y-191142D01*
X237896Y-191120D01*
X237907Y-191103D01*
X237913Y-191093D01*
X237918Y-191087D01*
X238022Y-190972D01*
X238131Y-190874D01*
X238246Y-190792D01*
X238361Y-190721D01*
X238459Y-190667D01*
X238503Y-190645D01*
X238541Y-190629D01*
X238568Y-190612D01*
X238590Y-190601D01*
X238606Y-190596D01*
X238612D01*
X238781Y-190536D01*
X238950Y-190492D01*
X239120Y-190459D01*
X239272Y-190437D01*
X239343Y-190432D01*
X239403Y-190427D01*
X239458Y-190421D01*
X239507Y-190416D01*
X239600D01*
X239737Y-190421D01*
D02*
G37*
G36*
X182368Y-191813D02*
X182505Y-191830D01*
X182625Y-191857D01*
X182745Y-191890D01*
X182854Y-191928D01*
X182958Y-191972D01*
X183051Y-192015D01*
X183133Y-192064D01*
X183209Y-192114D01*
X183275Y-192157D01*
X183335Y-192201D01*
X183378Y-192239D01*
X183417Y-192272D01*
X183444Y-192299D01*
X183460Y-192316D01*
X183466Y-192321D01*
X183548Y-192419D01*
X183619Y-192529D01*
X183684Y-192643D01*
X183739Y-192758D01*
X183782Y-192878D01*
X183821Y-192998D01*
X183853Y-193113D01*
X183875Y-193228D01*
X183897Y-193331D01*
X183908Y-193435D01*
X183919Y-193522D01*
X183930Y-193599D01*
Y-193664D01*
X183935Y-193713D01*
Y-193741D01*
Y-193752D01*
X183930Y-193915D01*
X183913Y-194068D01*
X183892Y-194210D01*
X183864Y-194341D01*
X183826Y-194467D01*
X183788Y-194582D01*
X183744Y-194685D01*
X183701Y-194778D01*
X183662Y-194860D01*
X183619Y-194931D01*
X183580Y-194991D01*
X183542Y-195040D01*
X183515Y-195084D01*
X183493Y-195111D01*
X183477Y-195128D01*
X183471Y-195133D01*
X183378Y-195220D01*
X183280Y-195297D01*
X183182Y-195362D01*
X183073Y-195417D01*
X182969Y-195466D01*
X182860Y-195504D01*
X182756Y-195537D01*
X182658Y-195564D01*
X182565Y-195581D01*
X182477Y-195597D01*
X182401Y-195608D01*
X182330Y-195619D01*
X182275D01*
X182232Y-195624D01*
X182199D01*
X182084Y-195619D01*
X181970Y-195614D01*
X181866Y-195597D01*
X181768Y-195575D01*
X181675Y-195553D01*
X181593Y-195526D01*
X181511Y-195499D01*
X181440Y-195472D01*
X181375Y-195444D01*
X181320Y-195417D01*
X181271Y-195390D01*
X181227Y-195368D01*
X181200Y-195346D01*
X181173Y-195330D01*
X181162Y-195324D01*
X181156Y-195319D01*
X181080Y-195259D01*
X181014Y-195193D01*
X180954Y-195122D01*
X180894Y-195051D01*
X180796Y-194904D01*
X180719Y-194767D01*
X180692Y-194702D01*
X180665Y-194642D01*
X180643Y-194587D01*
X180626Y-194538D01*
X180610Y-194500D01*
X180599Y-194472D01*
X180594Y-194450D01*
Y-194445D01*
X181238Y-194363D01*
X181293Y-194500D01*
X181358Y-194620D01*
X181424Y-194723D01*
X181484Y-194800D01*
X181538Y-194866D01*
X181582Y-194909D01*
X181609Y-194931D01*
X181615Y-194942D01*
X181620D01*
X181713Y-195002D01*
X181811Y-195040D01*
X181910Y-195073D01*
X181997Y-195095D01*
X182079Y-195106D01*
X182144Y-195111D01*
X182166Y-195117D01*
X182199D01*
X182281Y-195111D01*
X182363Y-195100D01*
X182439Y-195089D01*
X182510Y-195068D01*
X182641Y-195018D01*
X182750Y-194958D01*
X182800Y-194931D01*
X182843Y-194898D01*
X182876Y-194871D01*
X182909Y-194849D01*
X182931Y-194827D01*
X182947Y-194811D01*
X182958Y-194805D01*
X182963Y-194800D01*
X183018Y-194734D01*
X183067Y-194669D01*
X183105Y-194592D01*
X183144Y-194521D01*
X183204Y-194363D01*
X183247Y-194216D01*
X183264Y-194145D01*
X183275Y-194079D01*
X183285Y-194025D01*
X183291Y-193970D01*
X183296Y-193932D01*
X183302Y-193899D01*
Y-193877D01*
Y-193872D01*
X180577D01*
X180572Y-193801D01*
Y-193746D01*
Y-193719D01*
Y-193708D01*
X180577Y-193544D01*
X180594Y-193391D01*
X180616Y-193244D01*
X180643Y-193107D01*
X180681Y-192982D01*
X180719Y-192867D01*
X180763Y-192763D01*
X180801Y-192671D01*
X180845Y-192589D01*
X180889Y-192512D01*
X180927Y-192452D01*
X180965Y-192403D01*
X180992Y-192359D01*
X181014Y-192332D01*
X181030Y-192316D01*
X181036Y-192310D01*
X181123Y-192223D01*
X181222Y-192146D01*
X181320Y-192075D01*
X181418Y-192021D01*
X181517Y-191972D01*
X181620Y-191928D01*
X181713Y-191895D01*
X181806Y-191868D01*
X181893Y-191852D01*
X181975Y-191835D01*
X182046Y-191824D01*
X182112Y-191813D01*
X182161D01*
X182199Y-191808D01*
X182232D01*
X182368Y-191813D01*
D02*
G37*
G36*
X236477Y-195543D02*
X235811D01*
Y-193495D01*
X234522D01*
X234326Y-193490D01*
X234151Y-193473D01*
X233987Y-193451D01*
X233834Y-193424D01*
X233703Y-193391D01*
X233578Y-193353D01*
X233474Y-193315D01*
X233376Y-193271D01*
X233294Y-193233D01*
X233223Y-193195D01*
X233163Y-193157D01*
X233119Y-193124D01*
X233081Y-193091D01*
X233059Y-193069D01*
X233043Y-193058D01*
X233037Y-193053D01*
X232966Y-192965D01*
X232901Y-192878D01*
X232846Y-192785D01*
X232802Y-192692D01*
X232759Y-192600D01*
X232726Y-192512D01*
X232698Y-192425D01*
X232677Y-192343D01*
X232660Y-192261D01*
X232649Y-192190D01*
X232639Y-192130D01*
X232633Y-192075D01*
X232628Y-192026D01*
Y-191993D01*
Y-191972D01*
Y-191966D01*
X232633Y-191830D01*
X232649Y-191699D01*
X232677Y-191584D01*
X232704Y-191480D01*
X232737Y-191398D01*
X232748Y-191360D01*
X232759Y-191333D01*
X232769Y-191311D01*
X232780Y-191295D01*
X232786Y-191284D01*
Y-191278D01*
X232846Y-191164D01*
X232911Y-191071D01*
X232982Y-190983D01*
X233043Y-190918D01*
X233103Y-190863D01*
X233146Y-190825D01*
X233179Y-190798D01*
X233185Y-190792D01*
X233190D01*
X233288Y-190732D01*
X233392Y-190683D01*
X233496Y-190639D01*
X233594Y-190607D01*
X233681Y-190579D01*
X233719Y-190574D01*
X233752Y-190563D01*
X233774Y-190558D01*
X233796D01*
X233807Y-190552D01*
X233812D01*
X233861Y-190541D01*
X233922Y-190536D01*
X234042Y-190525D01*
X234167Y-190514D01*
X234293Y-190508D01*
X234402Y-190503D01*
X236477D01*
Y-195543D01*
D02*
G37*
G36*
X231667D02*
X231000D01*
Y-190503D01*
X231667D01*
Y-195543D01*
D02*
G37*
G36*
X229854D02*
X227937D01*
X227763Y-195537D01*
X227604Y-195532D01*
X227468Y-195515D01*
X227402Y-195510D01*
X227348Y-195499D01*
X227299Y-195493D01*
X227255Y-195488D01*
X227217Y-195477D01*
X227184Y-195472D01*
X227157Y-195466D01*
X227140D01*
X227129Y-195461D01*
X227124D01*
X227004Y-195428D01*
X226894Y-195390D01*
X226802Y-195346D01*
X226725Y-195308D01*
X226660Y-195270D01*
X226611Y-195242D01*
X226583Y-195220D01*
X226572Y-195215D01*
X226490Y-195144D01*
X226419Y-195068D01*
X226354Y-194991D01*
X226305Y-194915D01*
X226261Y-194849D01*
X226228Y-194794D01*
X226218Y-194773D01*
X226207Y-194756D01*
X226201Y-194751D01*
Y-194745D01*
X226152Y-194631D01*
X226114Y-194511D01*
X226086Y-194401D01*
X226065Y-194298D01*
X226054Y-194210D01*
Y-194177D01*
X226048Y-194145D01*
Y-194117D01*
Y-194101D01*
Y-194090D01*
Y-194085D01*
Y-194003D01*
X226059Y-193926D01*
X226086Y-193779D01*
X226130Y-193648D01*
X226174Y-193539D01*
X226196Y-193490D01*
X226218Y-193446D01*
X226239Y-193408D01*
X226261Y-193375D01*
X226278Y-193353D01*
X226289Y-193337D01*
X226294Y-193326D01*
X226299Y-193320D01*
X226398Y-193206D01*
X226512Y-193113D01*
X226627Y-193031D01*
X226742Y-192971D01*
X226840Y-192922D01*
X226884Y-192905D01*
X226922Y-192889D01*
X226955Y-192878D01*
X226976Y-192867D01*
X226993Y-192862D01*
X226998D01*
X226873Y-192791D01*
X226769Y-192714D01*
X226676Y-192638D01*
X226605Y-192567D01*
X226545Y-192501D01*
X226507Y-192452D01*
X226490Y-192430D01*
X226480Y-192414D01*
X226474Y-192409D01*
Y-192403D01*
X226414Y-192294D01*
X226370Y-192190D01*
X226338Y-192086D01*
X226316Y-191993D01*
X226305Y-191912D01*
X226294Y-191852D01*
Y-191830D01*
Y-191813D01*
Y-191802D01*
Y-191797D01*
X226305Y-191666D01*
X226327Y-191546D01*
X226360Y-191431D01*
X226392Y-191333D01*
X226430Y-191251D01*
X226447Y-191213D01*
X226463Y-191185D01*
X226480Y-191164D01*
X226485Y-191147D01*
X226496Y-191136D01*
Y-191131D01*
X226578Y-191022D01*
X226665Y-190923D01*
X226753Y-190841D01*
X226840Y-190776D01*
X226922Y-190727D01*
X226982Y-190689D01*
X227009Y-190678D01*
X227026Y-190667D01*
X227036Y-190661D01*
X227042D01*
X227184Y-190607D01*
X227331Y-190568D01*
X227490Y-190541D01*
X227632Y-190525D01*
X227703Y-190514D01*
X227763Y-190508D01*
X227823D01*
X227872Y-190503D01*
X229854D01*
Y-195543D01*
D02*
G37*
G36*
X219469Y-191164D02*
X217001D01*
X217088Y-191267D01*
X217176Y-191376D01*
X217339Y-191600D01*
X217492Y-191819D01*
X217563Y-191928D01*
X217629Y-192026D01*
X217684Y-192125D01*
X217738Y-192212D01*
X217782Y-192288D01*
X217826Y-192354D01*
X217853Y-192409D01*
X217875Y-192452D01*
X217891Y-192474D01*
X217897Y-192485D01*
X218044Y-192780D01*
X218169Y-193069D01*
X218230Y-193206D01*
X218279Y-193342D01*
X218328Y-193473D01*
X218372Y-193593D01*
X218410Y-193702D01*
X218443Y-193801D01*
X218470Y-193894D01*
X218492Y-193970D01*
X218513Y-194030D01*
X218524Y-194074D01*
X218530Y-194101D01*
X218535Y-194112D01*
X218573Y-194265D01*
X218612Y-194412D01*
X218639Y-194554D01*
X218666Y-194691D01*
X218688Y-194816D01*
X218705Y-194937D01*
X218721Y-195040D01*
X218732Y-195144D01*
X218743Y-195231D01*
X218748Y-195313D01*
X218754Y-195379D01*
X218759Y-195439D01*
X218765Y-195483D01*
Y-195515D01*
Y-195537D01*
Y-195543D01*
X218131D01*
X218109Y-195270D01*
X218093Y-195139D01*
X218071Y-195013D01*
X218055Y-194893D01*
X218033Y-194778D01*
X218017Y-194669D01*
X217995Y-194571D01*
X217978Y-194483D01*
X217956Y-194401D01*
X217940Y-194330D01*
X217924Y-194270D01*
X217913Y-194227D01*
X217902Y-194188D01*
X217897Y-194167D01*
Y-194161D01*
X217793Y-193828D01*
X217733Y-193664D01*
X217673Y-193506D01*
X217613Y-193359D01*
X217552Y-193211D01*
X217492Y-193075D01*
X217438Y-192949D01*
X217383Y-192834D01*
X217334Y-192731D01*
X217285Y-192638D01*
X217247Y-192561D01*
X217214Y-192496D01*
X217192Y-192452D01*
X217176Y-192425D01*
X217170Y-192414D01*
X217083Y-192261D01*
X216990Y-192114D01*
X216903Y-191972D01*
X216821Y-191846D01*
X216739Y-191726D01*
X216657Y-191611D01*
X216581Y-191508D01*
X216510Y-191415D01*
X216444Y-191333D01*
X216389Y-191262D01*
X216335Y-191202D01*
X216291Y-191147D01*
X216259Y-191109D01*
X216231Y-191076D01*
X216215Y-191060D01*
X216209Y-191054D01*
Y-190568D01*
X219469D01*
Y-191164D01*
D02*
G37*
G36*
X215248Y-195543D02*
X214544D01*
Y-194838D01*
X215248D01*
Y-195543D01*
D02*
G37*
G36*
X209685Y-191164D02*
X207217D01*
X207304Y-191267D01*
X207391Y-191376D01*
X207555Y-191600D01*
X207708Y-191819D01*
X207779Y-191928D01*
X207845Y-192026D01*
X207899Y-192125D01*
X207954Y-192212D01*
X207997Y-192288D01*
X208041Y-192354D01*
X208068Y-192409D01*
X208090Y-192452D01*
X208107Y-192474D01*
X208112Y-192485D01*
X208260Y-192780D01*
X208385Y-193069D01*
X208445Y-193206D01*
X208494Y-193342D01*
X208543Y-193473D01*
X208587Y-193593D01*
X208625Y-193702D01*
X208658Y-193801D01*
X208685Y-193894D01*
X208707Y-193970D01*
X208729Y-194030D01*
X208740Y-194074D01*
X208746Y-194101D01*
X208751Y-194112D01*
X208789Y-194265D01*
X208827Y-194412D01*
X208855Y-194554D01*
X208882Y-194691D01*
X208904Y-194816D01*
X208920Y-194937D01*
X208937Y-195040D01*
X208947Y-195144D01*
X208958Y-195231D01*
X208964Y-195313D01*
X208969Y-195379D01*
X208975Y-195439D01*
X208980Y-195483D01*
Y-195515D01*
Y-195537D01*
Y-195543D01*
X208347D01*
X208325Y-195270D01*
X208309Y-195139D01*
X208287Y-195013D01*
X208271Y-194893D01*
X208249Y-194778D01*
X208232Y-194669D01*
X208210Y-194571D01*
X208194Y-194483D01*
X208172Y-194401D01*
X208156Y-194330D01*
X208139Y-194270D01*
X208128Y-194227D01*
X208118Y-194188D01*
X208112Y-194167D01*
Y-194161D01*
X208008Y-193828D01*
X207948Y-193664D01*
X207888Y-193506D01*
X207828Y-193359D01*
X207768Y-193211D01*
X207708Y-193075D01*
X207653Y-192949D01*
X207599Y-192834D01*
X207550Y-192731D01*
X207501Y-192638D01*
X207462Y-192561D01*
X207430Y-192496D01*
X207408Y-192452D01*
X207391Y-192425D01*
X207386Y-192414D01*
X207299Y-192261D01*
X207206Y-192114D01*
X207118Y-191972D01*
X207036Y-191846D01*
X206955Y-191726D01*
X206873Y-191611D01*
X206796Y-191508D01*
X206725Y-191415D01*
X206660Y-191333D01*
X206605Y-191262D01*
X206551Y-191202D01*
X206507Y-191147D01*
X206474Y-191109D01*
X206447Y-191076D01*
X206431Y-191060D01*
X206425Y-191054D01*
Y-190568D01*
X209685D01*
Y-191164D01*
D02*
G37*
G36*
X205464Y-195543D02*
X204760D01*
Y-194838D01*
X205464D01*
Y-195543D01*
D02*
G37*
G36*
X184809Y-191813D02*
X184885Y-191830D01*
X184951Y-191846D01*
X185011Y-191868D01*
X185055Y-191895D01*
X185093Y-191912D01*
X185115Y-191928D01*
X185126Y-191934D01*
X185158Y-191961D01*
X185196Y-191993D01*
X185262Y-192064D01*
X185328Y-192152D01*
X185388Y-192239D01*
X185442Y-192316D01*
X185480Y-192387D01*
X185497Y-192409D01*
X185508Y-192430D01*
X185519Y-192441D01*
Y-191890D01*
X186076D01*
Y-195543D01*
X185459D01*
Y-193631D01*
X185453Y-193490D01*
X185442Y-193353D01*
X185426Y-193233D01*
X185409Y-193124D01*
X185393Y-193036D01*
X185382Y-192998D01*
X185377Y-192965D01*
X185371Y-192944D01*
X185366Y-192927D01*
X185360Y-192916D01*
Y-192911D01*
X185328Y-192834D01*
X185295Y-192763D01*
X185257Y-192709D01*
X185218Y-192660D01*
X185186Y-192621D01*
X185158Y-192594D01*
X185136Y-192578D01*
X185131Y-192572D01*
X185065Y-192529D01*
X185005Y-192501D01*
X184945Y-192480D01*
X184885Y-192463D01*
X184836Y-192452D01*
X184798Y-192447D01*
X184765D01*
X184678Y-192452D01*
X184596Y-192469D01*
X184520Y-192490D01*
X184454Y-192512D01*
X184394Y-192540D01*
X184350Y-192561D01*
X184323Y-192578D01*
X184312Y-192583D01*
X184094Y-192010D01*
X184214Y-191944D01*
X184334Y-191895D01*
X184438Y-191857D01*
X184536Y-191835D01*
X184618Y-191819D01*
X184651Y-191813D01*
X184678D01*
X184700Y-191808D01*
X184732D01*
X184809Y-191813D01*
D02*
G37*
G36*
X176117Y-195543D02*
X175412D01*
Y-194838D01*
X176117D01*
Y-195543D01*
D02*
G37*
G36*
X221882Y-190492D02*
X221981Y-190498D01*
X222073Y-190514D01*
X222161Y-190530D01*
X222237Y-190552D01*
X222314Y-190579D01*
X222385Y-190607D01*
X222445Y-190634D01*
X222505Y-190661D01*
X222554Y-190689D01*
X222598Y-190710D01*
X222630Y-190738D01*
X222658Y-190754D01*
X222679Y-190770D01*
X222690Y-190776D01*
X222696Y-190781D01*
X222761Y-190841D01*
X222821Y-190902D01*
X222931Y-191038D01*
X223029Y-191174D01*
X223105Y-191311D01*
X223138Y-191376D01*
X223165Y-191431D01*
X223187Y-191486D01*
X223209Y-191529D01*
X223220Y-191568D01*
X223231Y-191600D01*
X223242Y-191617D01*
Y-191622D01*
X223275Y-191726D01*
X223302Y-191841D01*
X223345Y-192075D01*
X223378Y-192316D01*
X223389Y-192430D01*
X223400Y-192545D01*
X223406Y-192649D01*
X223411Y-192747D01*
X223416Y-192834D01*
Y-192911D01*
X223422Y-192971D01*
Y-193020D01*
Y-193047D01*
Y-193058D01*
X223416Y-193315D01*
X223400Y-193555D01*
X223378Y-193773D01*
X223345Y-193975D01*
X223307Y-194161D01*
X223264Y-194330D01*
X223220Y-194478D01*
X223171Y-194614D01*
X223127Y-194729D01*
X223083Y-194833D01*
X223040Y-194915D01*
X223002Y-194986D01*
X222969Y-195040D01*
X222947Y-195078D01*
X222931Y-195100D01*
X222925Y-195106D01*
X222843Y-195199D01*
X222756Y-195275D01*
X222663Y-195346D01*
X222570Y-195406D01*
X222477Y-195455D01*
X222379Y-195499D01*
X222286Y-195532D01*
X222199Y-195559D01*
X222112Y-195581D01*
X222035Y-195597D01*
X221964Y-195608D01*
X221904Y-195614D01*
X221855Y-195619D01*
X221817Y-195624D01*
X221784D01*
X221680Y-195619D01*
X221587Y-195614D01*
X221495Y-195597D01*
X221407Y-195581D01*
X221325Y-195553D01*
X221254Y-195532D01*
X221183Y-195504D01*
X221123Y-195477D01*
X221063Y-195450D01*
X221014Y-195422D01*
X220970Y-195395D01*
X220938Y-195373D01*
X220910Y-195357D01*
X220888Y-195341D01*
X220878Y-195335D01*
X220872Y-195330D01*
X220807Y-195270D01*
X220741Y-195210D01*
X220632Y-195073D01*
X220539Y-194937D01*
X220463Y-194800D01*
X220430Y-194734D01*
X220403Y-194674D01*
X220381Y-194625D01*
X220359Y-194576D01*
X220342Y-194543D01*
X220337Y-194511D01*
X220326Y-194494D01*
Y-194489D01*
X220293Y-194385D01*
X220266Y-194270D01*
X220217Y-194036D01*
X220184Y-193795D01*
X220173Y-193681D01*
X220162Y-193566D01*
X220157Y-193462D01*
X220151Y-193364D01*
X220146Y-193282D01*
X220141Y-193206D01*
Y-193146D01*
Y-193096D01*
Y-193069D01*
Y-193058D01*
Y-192922D01*
X220146Y-192791D01*
X220151Y-192671D01*
X220157Y-192556D01*
X220168Y-192452D01*
X220179Y-192354D01*
X220190Y-192266D01*
X220195Y-192185D01*
X220206Y-192114D01*
X220217Y-192054D01*
X220228Y-191999D01*
X220239Y-191955D01*
X220244Y-191917D01*
X220250Y-191895D01*
X220255Y-191879D01*
Y-191873D01*
X220299Y-191715D01*
X220354Y-191568D01*
X220403Y-191442D01*
X220452Y-191333D01*
X220479Y-191289D01*
X220495Y-191245D01*
X220517Y-191207D01*
X220534Y-191180D01*
X220550Y-191158D01*
X220555Y-191142D01*
X220566Y-191131D01*
Y-191125D01*
X220643Y-191016D01*
X220730Y-190918D01*
X220812Y-190836D01*
X220894Y-190770D01*
X220965Y-190716D01*
X221020Y-190683D01*
X221041Y-190667D01*
X221058Y-190656D01*
X221069Y-190650D01*
X221074D01*
X221194Y-190596D01*
X221314Y-190558D01*
X221434Y-190525D01*
X221544Y-190508D01*
X221642Y-190498D01*
X221680Y-190492D01*
X221719Y-190487D01*
X221784D01*
X221882Y-190492D01*
D02*
G37*
G36*
X212098Y-190492D02*
X212196Y-190498D01*
X212289Y-190514D01*
X212376Y-190530D01*
X212453Y-190552D01*
X212529Y-190579D01*
X212600Y-190607D01*
X212660Y-190634D01*
X212720Y-190661D01*
X212770Y-190689D01*
X212813Y-190710D01*
X212846Y-190738D01*
X212873Y-190754D01*
X212895Y-190770D01*
X212906Y-190776D01*
X212912Y-190781D01*
X212977Y-190841D01*
X213037Y-190902D01*
X213146Y-191038D01*
X213245Y-191174D01*
X213321Y-191311D01*
X213354Y-191376D01*
X213381Y-191431D01*
X213403Y-191486D01*
X213425Y-191529D01*
X213436Y-191568D01*
X213447Y-191600D01*
X213457Y-191617D01*
Y-191622D01*
X213490Y-191726D01*
X213517Y-191841D01*
X213561Y-192075D01*
X213594Y-192316D01*
X213605Y-192430D01*
X213616Y-192545D01*
X213621Y-192649D01*
X213627Y-192747D01*
X213632Y-192834D01*
Y-192911D01*
X213638Y-192971D01*
Y-193020D01*
Y-193047D01*
Y-193058D01*
X213632Y-193315D01*
X213616Y-193555D01*
X213594Y-193773D01*
X213561Y-193975D01*
X213523Y-194161D01*
X213479Y-194330D01*
X213436Y-194478D01*
X213387Y-194614D01*
X213343Y-194729D01*
X213299Y-194833D01*
X213256Y-194915D01*
X213217Y-194986D01*
X213184Y-195040D01*
X213163Y-195078D01*
X213146Y-195100D01*
X213141Y-195106D01*
X213059Y-195199D01*
X212971Y-195275D01*
X212879Y-195346D01*
X212786Y-195406D01*
X212693Y-195455D01*
X212595Y-195499D01*
X212502Y-195532D01*
X212415Y-195559D01*
X212327Y-195581D01*
X212251Y-195597D01*
X212180Y-195608D01*
X212120Y-195614D01*
X212071Y-195619D01*
X212032Y-195624D01*
X212000D01*
X211896Y-195619D01*
X211803Y-195614D01*
X211710Y-195597D01*
X211623Y-195581D01*
X211541Y-195553D01*
X211470Y-195532D01*
X211399Y-195504D01*
X211339Y-195477D01*
X211279Y-195450D01*
X211230Y-195422D01*
X211186Y-195395D01*
X211153Y-195373D01*
X211126Y-195357D01*
X211104Y-195341D01*
X211093Y-195335D01*
X211088Y-195330D01*
X211022Y-195270D01*
X210957Y-195210D01*
X210848Y-195073D01*
X210755Y-194937D01*
X210678Y-194800D01*
X210646Y-194734D01*
X210618Y-194674D01*
X210596Y-194625D01*
X210575Y-194576D01*
X210558Y-194543D01*
X210553Y-194511D01*
X210542Y-194494D01*
Y-194489D01*
X210509Y-194385D01*
X210482Y-194270D01*
X210433Y-194036D01*
X210400Y-193795D01*
X210389Y-193681D01*
X210378Y-193566D01*
X210373Y-193462D01*
X210367Y-193364D01*
X210362Y-193282D01*
X210356Y-193206D01*
Y-193146D01*
Y-193096D01*
Y-193069D01*
Y-193058D01*
Y-192922D01*
X210362Y-192791D01*
X210367Y-192671D01*
X210373Y-192556D01*
X210384Y-192452D01*
X210394Y-192354D01*
X210405Y-192266D01*
X210411Y-192185D01*
X210422Y-192114D01*
X210433Y-192054D01*
X210444Y-191999D01*
X210455Y-191955D01*
X210460Y-191917D01*
X210465Y-191895D01*
X210471Y-191879D01*
Y-191873D01*
X210514Y-191715D01*
X210569Y-191568D01*
X210618Y-191442D01*
X210667Y-191333D01*
X210695Y-191289D01*
X210711Y-191245D01*
X210733Y-191207D01*
X210749Y-191180D01*
X210766Y-191158D01*
X210771Y-191142D01*
X210782Y-191131D01*
Y-191125D01*
X210858Y-191016D01*
X210946Y-190918D01*
X211028Y-190836D01*
X211110Y-190770D01*
X211181Y-190716D01*
X211235Y-190683D01*
X211257Y-190667D01*
X211274Y-190656D01*
X211284Y-190650D01*
X211290D01*
X211410Y-190596D01*
X211530Y-190558D01*
X211650Y-190525D01*
X211759Y-190508D01*
X211858Y-190498D01*
X211896Y-190492D01*
X211934Y-190487D01*
X212000D01*
X212098Y-190492D01*
D02*
G37*
G36*
X198399D02*
X198497Y-190498D01*
X198590Y-190514D01*
X198677Y-190530D01*
X198754Y-190552D01*
X198830Y-190579D01*
X198901Y-190607D01*
X198961Y-190634D01*
X199021Y-190661D01*
X199070Y-190689D01*
X199114Y-190710D01*
X199147Y-190738D01*
X199174Y-190754D01*
X199196Y-190770D01*
X199207Y-190776D01*
X199212Y-190781D01*
X199278Y-190841D01*
X199338Y-190902D01*
X199447Y-191038D01*
X199545Y-191174D01*
X199622Y-191311D01*
X199655Y-191376D01*
X199682Y-191431D01*
X199704Y-191486D01*
X199726Y-191529D01*
X199736Y-191568D01*
X199747Y-191600D01*
X199758Y-191617D01*
Y-191622D01*
X199791Y-191726D01*
X199818Y-191841D01*
X199862Y-192075D01*
X199895Y-192316D01*
X199906Y-192430D01*
X199917Y-192545D01*
X199922Y-192649D01*
X199928Y-192747D01*
X199933Y-192834D01*
Y-192911D01*
X199938Y-192971D01*
Y-193020D01*
Y-193047D01*
Y-193058D01*
X199933Y-193315D01*
X199917Y-193555D01*
X199895Y-193773D01*
X199862Y-193975D01*
X199824Y-194161D01*
X199780Y-194330D01*
X199736Y-194478D01*
X199687Y-194614D01*
X199644Y-194729D01*
X199600Y-194833D01*
X199556Y-194915D01*
X199518Y-194986D01*
X199485Y-195040D01*
X199463Y-195078D01*
X199447Y-195100D01*
X199442Y-195106D01*
X199360Y-195199D01*
X199272Y-195275D01*
X199180Y-195346D01*
X199087Y-195406D01*
X198994Y-195455D01*
X198896Y-195499D01*
X198803Y-195532D01*
X198715Y-195559D01*
X198628Y-195581D01*
X198552Y-195597D01*
X198481Y-195608D01*
X198421Y-195614D01*
X198372Y-195619D01*
X198333Y-195624D01*
X198301D01*
X198197Y-195619D01*
X198104Y-195614D01*
X198011Y-195597D01*
X197924Y-195581D01*
X197842Y-195553D01*
X197771Y-195532D01*
X197700Y-195504D01*
X197640Y-195477D01*
X197580Y-195450D01*
X197531Y-195422D01*
X197487Y-195395D01*
X197454Y-195373D01*
X197427Y-195357D01*
X197405Y-195341D01*
X197394Y-195335D01*
X197389Y-195330D01*
X197323Y-195270D01*
X197258Y-195210D01*
X197149Y-195073D01*
X197056Y-194937D01*
X196979Y-194800D01*
X196946Y-194734D01*
X196919Y-194674D01*
X196897Y-194625D01*
X196876Y-194576D01*
X196859Y-194543D01*
X196854Y-194511D01*
X196843Y-194494D01*
Y-194489D01*
X196810Y-194385D01*
X196783Y-194270D01*
X196733Y-194036D01*
X196701Y-193795D01*
X196690Y-193681D01*
X196679Y-193566D01*
X196673Y-193462D01*
X196668Y-193364D01*
X196662Y-193282D01*
X196657Y-193206D01*
Y-193146D01*
Y-193096D01*
Y-193069D01*
Y-193058D01*
Y-192922D01*
X196662Y-192791D01*
X196668Y-192671D01*
X196673Y-192556D01*
X196684Y-192452D01*
X196695Y-192354D01*
X196706Y-192266D01*
X196712Y-192185D01*
X196723Y-192114D01*
X196733Y-192054D01*
X196744Y-191999D01*
X196755Y-191955D01*
X196761Y-191917D01*
X196766Y-191895D01*
X196772Y-191879D01*
Y-191873D01*
X196815Y-191715D01*
X196870Y-191568D01*
X196919Y-191442D01*
X196968Y-191333D01*
X196996Y-191289D01*
X197012Y-191245D01*
X197034Y-191207D01*
X197050Y-191180D01*
X197067Y-191158D01*
X197072Y-191142D01*
X197083Y-191131D01*
Y-191125D01*
X197159Y-191016D01*
X197247Y-190918D01*
X197329Y-190836D01*
X197411Y-190770D01*
X197482Y-190716D01*
X197536Y-190683D01*
X197558Y-190667D01*
X197574Y-190656D01*
X197585Y-190650D01*
X197591D01*
X197711Y-190596D01*
X197831Y-190558D01*
X197951Y-190525D01*
X198060Y-190508D01*
X198159Y-190498D01*
X198197Y-190492D01*
X198235Y-190487D01*
X198301D01*
X198399Y-190492D01*
D02*
G37*
G36*
X190596D02*
X190711Y-190503D01*
X190815Y-190519D01*
X190919Y-190547D01*
X191011Y-190574D01*
X191093Y-190607D01*
X191175Y-190639D01*
X191246Y-190672D01*
X191312Y-190710D01*
X191366Y-190743D01*
X191416Y-190776D01*
X191454Y-190803D01*
X191486Y-190831D01*
X191508Y-190847D01*
X191519Y-190858D01*
X191525Y-190863D01*
X191596Y-190934D01*
X191656Y-191011D01*
X191705Y-191087D01*
X191754Y-191164D01*
X191792Y-191245D01*
X191820Y-191322D01*
X191847Y-191393D01*
X191869Y-191464D01*
X191885Y-191535D01*
X191896Y-191595D01*
X191907Y-191649D01*
X191912Y-191693D01*
Y-191731D01*
X191918Y-191764D01*
Y-191781D01*
Y-191786D01*
X191912Y-191917D01*
X191891Y-192037D01*
X191858Y-192146D01*
X191825Y-192239D01*
X191792Y-192310D01*
X191759Y-192365D01*
X191748Y-192387D01*
X191738Y-192403D01*
X191732Y-192409D01*
Y-192414D01*
X191656Y-192507D01*
X191563Y-192583D01*
X191470Y-192654D01*
X191377Y-192709D01*
X191295Y-192753D01*
X191257Y-192774D01*
X191224Y-192785D01*
X191202Y-192796D01*
X191181Y-192807D01*
X191170Y-192813D01*
X191164D01*
X191328Y-192867D01*
X191470Y-192933D01*
X191590Y-193009D01*
X191689Y-193086D01*
X191732Y-193118D01*
X191770Y-193157D01*
X191803Y-193184D01*
X191825Y-193211D01*
X191847Y-193233D01*
X191863Y-193249D01*
X191869Y-193260D01*
X191874Y-193266D01*
X191918Y-193331D01*
X191956Y-193397D01*
X192016Y-193533D01*
X192060Y-193670D01*
X192087Y-193795D01*
X192098Y-193855D01*
X192109Y-193910D01*
X192114Y-193959D01*
Y-194003D01*
X192120Y-194036D01*
Y-194063D01*
Y-194079D01*
Y-194085D01*
X192114Y-194205D01*
X192098Y-194319D01*
X192076Y-194434D01*
X192049Y-194538D01*
X192016Y-194631D01*
X191978Y-194723D01*
X191934Y-194805D01*
X191891Y-194882D01*
X191852Y-194953D01*
X191809Y-195013D01*
X191770Y-195062D01*
X191738Y-195106D01*
X191710Y-195144D01*
X191689Y-195166D01*
X191672Y-195182D01*
X191667Y-195188D01*
X191579Y-195264D01*
X191481Y-195330D01*
X191383Y-195390D01*
X191284Y-195439D01*
X191181Y-195483D01*
X191082Y-195515D01*
X190984Y-195548D01*
X190891Y-195570D01*
X190804Y-195586D01*
X190722Y-195603D01*
X190646Y-195614D01*
X190585Y-195619D01*
X190531D01*
X190493Y-195624D01*
X190460D01*
X190323Y-195619D01*
X190192Y-195608D01*
X190072Y-195586D01*
X189958Y-195553D01*
X189854Y-195521D01*
X189756Y-195488D01*
X189663Y-195444D01*
X189581Y-195406D01*
X189510Y-195368D01*
X189444Y-195324D01*
X189390Y-195291D01*
X189341Y-195253D01*
X189308Y-195226D01*
X189281Y-195204D01*
X189264Y-195193D01*
X189259Y-195188D01*
X189177Y-195106D01*
X189106Y-195013D01*
X189046Y-194925D01*
X188991Y-194833D01*
X188947Y-194740D01*
X188909Y-194652D01*
X188882Y-194565D01*
X188855Y-194478D01*
X188838Y-194401D01*
X188822Y-194330D01*
X188816Y-194265D01*
X188806Y-194210D01*
Y-194161D01*
X188800Y-194128D01*
Y-194106D01*
Y-194101D01*
Y-194014D01*
X188811Y-193932D01*
X188838Y-193779D01*
X188877Y-193642D01*
X188920Y-193528D01*
X188947Y-193479D01*
X188969Y-193435D01*
X188991Y-193397D01*
X189008Y-193364D01*
X189024Y-193337D01*
X189035Y-193320D01*
X189040Y-193309D01*
X189046Y-193304D01*
X189144Y-193184D01*
X189259Y-193086D01*
X189373Y-192998D01*
X189488Y-192933D01*
X189592Y-192878D01*
X189636Y-192856D01*
X189674Y-192840D01*
X189707Y-192829D01*
X189728Y-192818D01*
X189745Y-192813D01*
X189750D01*
X189619Y-192753D01*
X189505Y-192692D01*
X189412Y-192621D01*
X189330Y-192561D01*
X189270Y-192501D01*
X189226Y-192458D01*
X189204Y-192425D01*
X189193Y-192419D01*
Y-192414D01*
X189133Y-192310D01*
X189084Y-192207D01*
X189051Y-192103D01*
X189029Y-192010D01*
X189018Y-191928D01*
X189013Y-191890D01*
X189008Y-191862D01*
Y-191835D01*
Y-191819D01*
Y-191808D01*
Y-191802D01*
X189013Y-191704D01*
X189024Y-191606D01*
X189046Y-191513D01*
X189073Y-191426D01*
X189100Y-191344D01*
X189133Y-191267D01*
X189171Y-191196D01*
X189210Y-191131D01*
X189248Y-191076D01*
X189286Y-191022D01*
X189319Y-190978D01*
X189346Y-190940D01*
X189373Y-190912D01*
X189395Y-190891D01*
X189406Y-190880D01*
X189412Y-190874D01*
X189488Y-190803D01*
X189575Y-190749D01*
X189657Y-190694D01*
X189750Y-190650D01*
X189838Y-190612D01*
X189925Y-190579D01*
X190012Y-190558D01*
X190094Y-190536D01*
X190176Y-190519D01*
X190247Y-190508D01*
X190313Y-190498D01*
X190367Y-190492D01*
X190411Y-190487D01*
X190476D01*
X190596Y-190492D01*
D02*
G37*
G36*
X172966D02*
X173064Y-190498D01*
X173157Y-190514D01*
X173245Y-190530D01*
X173321Y-190552D01*
X173398Y-190579D01*
X173468Y-190607D01*
X173529Y-190634D01*
X173589Y-190661D01*
X173638Y-190689D01*
X173681Y-190710D01*
X173714Y-190738D01*
X173741Y-190754D01*
X173763Y-190770D01*
X173774Y-190776D01*
X173780Y-190781D01*
X173845Y-190841D01*
X173905Y-190902D01*
X174014Y-191038D01*
X174113Y-191174D01*
X174189Y-191311D01*
X174222Y-191376D01*
X174249Y-191431D01*
X174271Y-191486D01*
X174293Y-191529D01*
X174304Y-191568D01*
X174315Y-191600D01*
X174326Y-191617D01*
Y-191622D01*
X174358Y-191726D01*
X174386Y-191841D01*
X174429Y-192075D01*
X174462Y-192316D01*
X174473Y-192430D01*
X174484Y-192545D01*
X174489Y-192649D01*
X174495Y-192747D01*
X174500Y-192834D01*
Y-192911D01*
X174506Y-192971D01*
Y-193020D01*
Y-193047D01*
Y-193058D01*
X174500Y-193315D01*
X174484Y-193555D01*
X174462Y-193773D01*
X174429Y-193975D01*
X174391Y-194161D01*
X174347Y-194330D01*
X174304Y-194478D01*
X174255Y-194614D01*
X174211Y-194729D01*
X174167Y-194833D01*
X174124Y-194915D01*
X174085Y-194986D01*
X174053Y-195040D01*
X174031Y-195078D01*
X174014Y-195100D01*
X174009Y-195106D01*
X173927Y-195199D01*
X173840Y-195275D01*
X173747Y-195346D01*
X173654Y-195406D01*
X173561Y-195455D01*
X173463Y-195499D01*
X173370Y-195532D01*
X173283Y-195559D01*
X173195Y-195581D01*
X173119Y-195597D01*
X173048Y-195608D01*
X172988Y-195614D01*
X172939Y-195619D01*
X172901Y-195624D01*
X172868D01*
X172764Y-195619D01*
X172671Y-195614D01*
X172579Y-195597D01*
X172491Y-195581D01*
X172409Y-195553D01*
X172338Y-195532D01*
X172267Y-195504D01*
X172207Y-195477D01*
X172147Y-195450D01*
X172098Y-195422D01*
X172054Y-195395D01*
X172021Y-195373D01*
X171994Y-195357D01*
X171972Y-195341D01*
X171961Y-195335D01*
X171956Y-195330D01*
X171890Y-195270D01*
X171825Y-195210D01*
X171716Y-195073D01*
X171623Y-194937D01*
X171546Y-194800D01*
X171514Y-194734D01*
X171486Y-194674D01*
X171465Y-194625D01*
X171443Y-194576D01*
X171426Y-194543D01*
X171421Y-194511D01*
X171410Y-194494D01*
Y-194489D01*
X171377Y-194385D01*
X171350Y-194270D01*
X171301Y-194036D01*
X171268Y-193795D01*
X171257Y-193681D01*
X171246Y-193566D01*
X171241Y-193462D01*
X171235Y-193364D01*
X171230Y-193282D01*
X171224Y-193206D01*
Y-193146D01*
Y-193096D01*
Y-193069D01*
Y-193058D01*
Y-192922D01*
X171230Y-192791D01*
X171235Y-192671D01*
X171241Y-192556D01*
X171252Y-192452D01*
X171263Y-192354D01*
X171274Y-192266D01*
X171279Y-192185D01*
X171290Y-192114D01*
X171301Y-192054D01*
X171312Y-191999D01*
X171323Y-191955D01*
X171328Y-191917D01*
X171334Y-191895D01*
X171339Y-191879D01*
Y-191873D01*
X171383Y-191715D01*
X171437Y-191568D01*
X171486Y-191442D01*
X171536Y-191333D01*
X171563Y-191289D01*
X171579Y-191245D01*
X171601Y-191207D01*
X171617Y-191180D01*
X171634Y-191158D01*
X171639Y-191142D01*
X171650Y-191131D01*
Y-191125D01*
X171727Y-191016D01*
X171814Y-190918D01*
X171896Y-190836D01*
X171978Y-190770D01*
X172049Y-190716D01*
X172103Y-190683D01*
X172125Y-190667D01*
X172142Y-190656D01*
X172153Y-190650D01*
X172158D01*
X172278Y-190596D01*
X172398Y-190558D01*
X172518Y-190525D01*
X172628Y-190508D01*
X172726Y-190498D01*
X172764Y-190492D01*
X172802Y-190487D01*
X172868D01*
X172966Y-190492D01*
D02*
G37*
%LPC*%
G36*
X231637Y-207772D02*
X231598D01*
X231522Y-207777D01*
X231451Y-207788D01*
X231385Y-207804D01*
X231320Y-207826D01*
X231205Y-207881D01*
X231102Y-207941D01*
X231020Y-208007D01*
X230987Y-208034D01*
X230960Y-208061D01*
X230938Y-208083D01*
X230921Y-208099D01*
X230916Y-208110D01*
X230910Y-208116D01*
X230861Y-208181D01*
X230818Y-208258D01*
X230780Y-208340D01*
X230747Y-208421D01*
X230698Y-208596D01*
X230659Y-208771D01*
X230648Y-208847D01*
X230643Y-208924D01*
X230638Y-208995D01*
X230632Y-209055D01*
X230627Y-209099D01*
Y-209137D01*
Y-209159D01*
Y-209170D01*
X230632Y-209295D01*
X230638Y-209415D01*
X230654Y-209524D01*
X230676Y-209628D01*
X230698Y-209721D01*
X230719Y-209808D01*
X230747Y-209890D01*
X230774Y-209956D01*
X230807Y-210021D01*
X230834Y-210076D01*
X230856Y-210120D01*
X230878Y-210158D01*
X230900Y-210185D01*
X230916Y-210207D01*
X230921Y-210218D01*
X230927Y-210223D01*
X230981Y-210283D01*
X231042Y-210338D01*
X231102Y-210387D01*
X231162Y-210425D01*
X231222Y-210458D01*
X231276Y-210485D01*
X231385Y-210529D01*
X231484Y-210556D01*
X231522Y-210562D01*
X231560Y-210567D01*
X231588Y-210573D01*
X231626D01*
X231719Y-210567D01*
X231801Y-210551D01*
X231882Y-210529D01*
X231959Y-210496D01*
X232030Y-210464D01*
X232095Y-210420D01*
X232155Y-210382D01*
X232210Y-210332D01*
X232254Y-210289D01*
X232297Y-210245D01*
X232336Y-210207D01*
X232363Y-210174D01*
X232385Y-210141D01*
X232401Y-210120D01*
X232412Y-210103D01*
X232417Y-210098D01*
X232450Y-210038D01*
X232477Y-209972D01*
X232499Y-209901D01*
X232516Y-209825D01*
X232548Y-209666D01*
X232570Y-209513D01*
X232576Y-209437D01*
X232581Y-209371D01*
X232587Y-209306D01*
Y-209257D01*
X232592Y-209208D01*
Y-209175D01*
Y-209153D01*
Y-209148D01*
X232587Y-209028D01*
X232581Y-208913D01*
X232565Y-208804D01*
X232548Y-208705D01*
X232521Y-208618D01*
X232499Y-208531D01*
X232472Y-208454D01*
X232445Y-208389D01*
X232417Y-208329D01*
X232390Y-208274D01*
X232363Y-208230D01*
X232341Y-208192D01*
X232325Y-208165D01*
X232308Y-208143D01*
X232303Y-208132D01*
X232297Y-208127D01*
X232243Y-208067D01*
X232183Y-208012D01*
X232123Y-207963D01*
X232063Y-207919D01*
X232002Y-207886D01*
X231948Y-207859D01*
X231839Y-207816D01*
X231740Y-207788D01*
X231702Y-207783D01*
X231664Y-207777D01*
X231637Y-207772D01*
D02*
G37*
G36*
X247072Y-207777D02*
X247034D01*
X246957Y-207783D01*
X246881Y-207794D01*
X246810Y-207810D01*
X246744Y-207832D01*
X246624Y-207886D01*
X246521Y-207946D01*
X246433Y-208012D01*
X246400Y-208039D01*
X246373Y-208067D01*
X246346Y-208088D01*
X246329Y-208105D01*
X246324Y-208116D01*
X246319Y-208121D01*
X246264Y-208187D01*
X246220Y-208263D01*
X246177Y-208340D01*
X246144Y-208421D01*
X246089Y-208591D01*
X246057Y-208755D01*
X246046Y-208831D01*
X246035Y-208902D01*
X246029Y-208967D01*
X246024Y-209022D01*
X246018Y-209066D01*
Y-209104D01*
Y-209126D01*
Y-209131D01*
X246024Y-209257D01*
X246029Y-209377D01*
X246046Y-209486D01*
X246062Y-209584D01*
X246084Y-209677D01*
X246111Y-209765D01*
X246138Y-209841D01*
X246160Y-209907D01*
X246188Y-209967D01*
X246215Y-210016D01*
X246242Y-210059D01*
X246264Y-210098D01*
X246280Y-210125D01*
X246297Y-210141D01*
X246302Y-210152D01*
X246308Y-210158D01*
X246362Y-210218D01*
X246422Y-210267D01*
X246482Y-210311D01*
X246543Y-210349D01*
X246603Y-210376D01*
X246663Y-210403D01*
X246772Y-210442D01*
X246870Y-210469D01*
X246914Y-210474D01*
X246952Y-210480D01*
X246979Y-210485D01*
X247023D01*
X247099Y-210480D01*
X247176Y-210469D01*
X247247Y-210453D01*
X247318Y-210436D01*
X247438Y-210382D01*
X247542Y-210322D01*
X247624Y-210262D01*
X247656Y-210234D01*
X247689Y-210207D01*
X247711Y-210191D01*
X247727Y-210174D01*
X247733Y-210163D01*
X247738Y-210158D01*
X247787Y-210092D01*
X247831Y-210016D01*
X247869Y-209939D01*
X247902Y-209858D01*
X247951Y-209683D01*
X247984Y-209508D01*
X248000Y-209432D01*
X248006Y-209355D01*
X248011Y-209284D01*
X248017Y-209230D01*
X248022Y-209180D01*
Y-209142D01*
Y-209115D01*
Y-209109D01*
X248017Y-208989D01*
X248011Y-208875D01*
X247995Y-208771D01*
X247978Y-208673D01*
X247957Y-208585D01*
X247935Y-208503D01*
X247907Y-208432D01*
X247880Y-208367D01*
X247853Y-208307D01*
X247826Y-208258D01*
X247804Y-208214D01*
X247782Y-208176D01*
X247765Y-208149D01*
X247749Y-208132D01*
X247744Y-208121D01*
X247738Y-208116D01*
X247684Y-208056D01*
X247624Y-208007D01*
X247564Y-207957D01*
X247503Y-207919D01*
X247449Y-207886D01*
X247389Y-207859D01*
X247280Y-207821D01*
X247181Y-207794D01*
X247138Y-207788D01*
X247105Y-207783D01*
X247072Y-207777D01*
D02*
G37*
G36*
X213318Y-207772D02*
X213275D01*
X213187Y-207777D01*
X213105Y-207788D01*
X213029Y-207804D01*
X212958Y-207826D01*
X212827Y-207886D01*
X212767Y-207919D01*
X212712Y-207952D01*
X212669Y-207985D01*
X212625Y-208017D01*
X212587Y-208050D01*
X212559Y-208078D01*
X212538Y-208099D01*
X212516Y-208116D01*
X212510Y-208127D01*
X212505Y-208132D01*
X212439Y-208225D01*
X212385Y-208334D01*
X212347Y-208449D01*
X212314Y-208563D01*
X212292Y-208662D01*
X212286Y-208705D01*
X212281Y-208744D01*
X212276Y-208776D01*
X212270Y-208798D01*
Y-208815D01*
Y-208820D01*
X214312D01*
X214301Y-208733D01*
X214290Y-208651D01*
X214252Y-208503D01*
X214197Y-208372D01*
X214170Y-208312D01*
X214143Y-208263D01*
X214116Y-208214D01*
X214088Y-208176D01*
X214061Y-208143D01*
X214039Y-208110D01*
X214023Y-208088D01*
X214006Y-208072D01*
X214001Y-208067D01*
X213995Y-208061D01*
X213941Y-208012D01*
X213881Y-207963D01*
X213821Y-207925D01*
X213761Y-207892D01*
X213635Y-207843D01*
X213526Y-207810D01*
X213422Y-207788D01*
X213384Y-207783D01*
X213346Y-207777D01*
X213318Y-207772D01*
D02*
G37*
G36*
X203539D02*
X203496D01*
X203409Y-207777D01*
X203327Y-207788D01*
X203250Y-207804D01*
X203179Y-207826D01*
X203048Y-207886D01*
X202988Y-207919D01*
X202934Y-207952D01*
X202890Y-207985D01*
X202846Y-208017D01*
X202808Y-208050D01*
X202781Y-208078D01*
X202759Y-208099D01*
X202737Y-208116D01*
X202731Y-208127D01*
X202726Y-208132D01*
X202660Y-208225D01*
X202606Y-208334D01*
X202568Y-208449D01*
X202535Y-208563D01*
X202513Y-208662D01*
X202508Y-208705D01*
X202502Y-208744D01*
X202497Y-208776D01*
X202491Y-208798D01*
Y-208815D01*
Y-208820D01*
X204533D01*
X204522Y-208733D01*
X204511Y-208651D01*
X204473Y-208503D01*
X204419Y-208372D01*
X204391Y-208312D01*
X204364Y-208263D01*
X204337Y-208214D01*
X204309Y-208176D01*
X204282Y-208143D01*
X204260Y-208110D01*
X204244Y-208088D01*
X204227Y-208072D01*
X204222Y-208067D01*
X204217Y-208061D01*
X204162Y-208012D01*
X204102Y-207963D01*
X204042Y-207925D01*
X203982Y-207892D01*
X203856Y-207843D01*
X203747Y-207810D01*
X203643Y-207788D01*
X203605Y-207783D01*
X203567Y-207777D01*
X203539Y-207772D01*
D02*
G37*
G36*
X192581D02*
X192538D01*
X192450Y-207777D01*
X192368Y-207788D01*
X192292Y-207804D01*
X192221Y-207826D01*
X192090Y-207886D01*
X192030Y-207919D01*
X191975Y-207952D01*
X191932Y-207985D01*
X191888Y-208017D01*
X191850Y-208050D01*
X191822Y-208078D01*
X191800Y-208099D01*
X191779Y-208116D01*
X191773Y-208127D01*
X191768Y-208132D01*
X191702Y-208225D01*
X191648Y-208334D01*
X191609Y-208449D01*
X191577Y-208563D01*
X191555Y-208662D01*
X191549Y-208705D01*
X191544Y-208744D01*
X191538Y-208776D01*
X191533Y-208798D01*
Y-208815D01*
Y-208820D01*
X193575D01*
X193564Y-208733D01*
X193553Y-208651D01*
X193515Y-208503D01*
X193460Y-208372D01*
X193433Y-208312D01*
X193406Y-208263D01*
X193378Y-208214D01*
X193351Y-208176D01*
X193324Y-208143D01*
X193302Y-208110D01*
X193286Y-208088D01*
X193269Y-208072D01*
X193264Y-208067D01*
X193258Y-208061D01*
X193204Y-208012D01*
X193144Y-207963D01*
X193084Y-207925D01*
X193024Y-207892D01*
X192898Y-207843D01*
X192789Y-207810D01*
X192685Y-207788D01*
X192647Y-207783D01*
X192609Y-207777D01*
X192581Y-207772D01*
D02*
G37*
G36*
X185145D02*
X185101D01*
X185014Y-207777D01*
X184932Y-207788D01*
X184855Y-207804D01*
X184784Y-207826D01*
X184653Y-207886D01*
X184593Y-207919D01*
X184539Y-207952D01*
X184495Y-207985D01*
X184451Y-208017D01*
X184413Y-208050D01*
X184386Y-208078D01*
X184364Y-208099D01*
X184342Y-208116D01*
X184337Y-208127D01*
X184331Y-208132D01*
X184266Y-208225D01*
X184211Y-208334D01*
X184173Y-208449D01*
X184140Y-208563D01*
X184118Y-208662D01*
X184113Y-208705D01*
X184107Y-208744D01*
X184102Y-208776D01*
X184097Y-208798D01*
Y-208815D01*
Y-208820D01*
X186138D01*
X186128Y-208733D01*
X186117Y-208651D01*
X186078Y-208503D01*
X186024Y-208372D01*
X185996Y-208312D01*
X185969Y-208263D01*
X185942Y-208214D01*
X185915Y-208176D01*
X185887Y-208143D01*
X185865Y-208110D01*
X185849Y-208088D01*
X185833Y-208072D01*
X185827Y-208067D01*
X185822Y-208061D01*
X185767Y-208012D01*
X185707Y-207963D01*
X185647Y-207925D01*
X185587Y-207892D01*
X185461Y-207843D01*
X185352Y-207810D01*
X185248Y-207788D01*
X185210Y-207783D01*
X185172Y-207777D01*
X185145Y-207772D01*
D02*
G37*
G36*
X163949Y-206554D02*
X162502Y-206554D01*
X162437Y-206560D01*
X162371D01*
X162317Y-206565D01*
X162262Y-206571D01*
X162218Y-206576D01*
X162180D01*
X162115Y-206587D01*
X162071Y-206598D01*
X162043Y-206603D01*
X162038D01*
X161945Y-206636D01*
X161863Y-206680D01*
X161792Y-206729D01*
X161727Y-206778D01*
X161683Y-206822D01*
X161645Y-206860D01*
X161623Y-206887D01*
X161618Y-206898D01*
X161563Y-206986D01*
X161525Y-207078D01*
X161492Y-207166D01*
X161476Y-207253D01*
X161465Y-207324D01*
X161454Y-207384D01*
Y-207406D01*
Y-207422D01*
Y-207433D01*
Y-207439D01*
X161459Y-207521D01*
X161465Y-207592D01*
X161497Y-207728D01*
X161541Y-207843D01*
X161590Y-207941D01*
X161639Y-208017D01*
X161683Y-208072D01*
X161699Y-208088D01*
X161716Y-208105D01*
X161721Y-208110D01*
X161727Y-208116D01*
X161781Y-208159D01*
X161847Y-208192D01*
X161913Y-208225D01*
X161984Y-208252D01*
X162136Y-208296D01*
X162289Y-208323D01*
X162360Y-208334D01*
X162431Y-208345D01*
X162491Y-208351D01*
X162546D01*
X162590Y-208356D01*
X163949Y-208356D01*
Y-206554D01*
D02*
G37*
G36*
X157326Y-206554D02*
X156223D01*
X156130Y-206560D01*
X156048D01*
X155972Y-206565D01*
X155901Y-206571D01*
X155841Y-206576D01*
X155781Y-206581D01*
X155732Y-206587D01*
X155693Y-206598D01*
X155655Y-206603D01*
X155623Y-206609D01*
X155601Y-206614D01*
X155579Y-206620D01*
X155568D01*
X155557Y-206625D01*
X155475Y-206658D01*
X155410Y-206696D01*
X155350Y-206740D01*
X155300Y-206784D01*
X155262Y-206822D01*
X155235Y-206855D01*
X155219Y-206876D01*
X155213Y-206887D01*
X155169Y-206958D01*
X155142Y-207035D01*
X155120Y-207111D01*
X155104Y-207182D01*
X155093Y-207242D01*
X155087Y-207286D01*
Y-207319D01*
Y-207324D01*
Y-207330D01*
X155093Y-207428D01*
X155109Y-207510D01*
X155131Y-207586D01*
X155153Y-207652D01*
X155175Y-207701D01*
X155197Y-207739D01*
X155213Y-207761D01*
X155219Y-207772D01*
X155273Y-207832D01*
X155333Y-207887D01*
X155399Y-207930D01*
X155459Y-207963D01*
X155513Y-207990D01*
X155557Y-208007D01*
X155590Y-208017D01*
X155595Y-208023D01*
X155601D01*
X155639Y-208034D01*
X155683Y-208039D01*
X155781Y-208056D01*
X155890Y-208067D01*
X155994Y-208072D01*
X156087D01*
X156130Y-208078D01*
X157326D01*
Y-206554D01*
D02*
G37*
G36*
Y-208673D02*
X156163D01*
X155994Y-208678D01*
X155846Y-208684D01*
X155781Y-208695D01*
X155721Y-208700D01*
X155666Y-208705D01*
X155612Y-208716D01*
X155568Y-208722D01*
X155530Y-208733D01*
X155502Y-208738D01*
X155475Y-208744D01*
X155453Y-208749D01*
X155437Y-208755D01*
X155431Y-208760D01*
X155426D01*
X155333Y-208798D01*
X155257Y-208842D01*
X155186Y-208886D01*
X155126Y-208935D01*
X155082Y-208979D01*
X155049Y-209017D01*
X155027Y-209038D01*
X155022Y-209049D01*
X154973Y-209131D01*
X154935Y-209213D01*
X154913Y-209295D01*
X154891Y-209372D01*
X154880Y-209442D01*
X154875Y-209492D01*
Y-209513D01*
Y-209530D01*
Y-209535D01*
Y-209541D01*
X154880Y-209628D01*
X154891Y-209710D01*
X154907Y-209781D01*
X154924Y-209841D01*
X154946Y-209896D01*
X154962Y-209934D01*
X154973Y-209956D01*
X154978Y-209967D01*
X155017Y-210032D01*
X155060Y-210087D01*
X155104Y-210136D01*
X155142Y-210174D01*
X155180Y-210207D01*
X155208Y-210229D01*
X155229Y-210240D01*
X155235Y-210245D01*
X155295Y-210278D01*
X155360Y-210305D01*
X155420Y-210332D01*
X155481Y-210349D01*
X155535Y-210365D01*
X155579Y-210376D01*
X155606Y-210382D01*
X155617D01*
X155672Y-210387D01*
X155743Y-210393D01*
X155819Y-210398D01*
X155890D01*
X155961Y-210403D01*
X157326D01*
Y-208673D01*
D02*
G37*
G36*
X237743Y-198934D02*
X236045D01*
X235952Y-198945D01*
X235865Y-198956D01*
X235783Y-198972D01*
X235712Y-198988D01*
X235647Y-199010D01*
X235587Y-199027D01*
X235532Y-199048D01*
X235483Y-199070D01*
X235445Y-199092D01*
X235406Y-199114D01*
X235379Y-199130D01*
X235357Y-199147D01*
X235341Y-199158D01*
X235335Y-199163D01*
X235330Y-199169D01*
X235286Y-199212D01*
X235243Y-199261D01*
X235177Y-199354D01*
X235133Y-199453D01*
X235101Y-199545D01*
X235079Y-199627D01*
X235073Y-199665D01*
Y-199693D01*
X235068Y-199720D01*
Y-199736D01*
Y-199747D01*
Y-199753D01*
X235073Y-199840D01*
X235090Y-199928D01*
X235112Y-200004D01*
X235133Y-200070D01*
X235161Y-200130D01*
X235183Y-200168D01*
X235199Y-200195D01*
X235204Y-200206D01*
X235259Y-200277D01*
X235325Y-200343D01*
X235390Y-200392D01*
X235450Y-200435D01*
X235510Y-200468D01*
X235554Y-200490D01*
X235587Y-200501D01*
X235592Y-200506D01*
X235598D01*
X235701Y-200539D01*
X235816Y-200561D01*
X235936Y-200577D01*
X236051Y-200588D01*
X236155Y-200594D01*
X236198D01*
X236236Y-200599D01*
X237743D01*
Y-198934D01*
D02*
G37*
G36*
X224121Y-198863D02*
X223995D01*
X223902Y-198874D01*
X223733Y-198901D01*
X223580Y-198945D01*
X223515Y-198967D01*
X223449Y-198988D01*
X223389Y-199016D01*
X223340Y-199038D01*
X223296Y-199059D01*
X223258Y-199081D01*
X223225Y-199098D01*
X223203Y-199109D01*
X223192Y-199114D01*
X223187Y-199119D01*
X223045Y-199223D01*
X222925Y-199338D01*
X222821Y-199453D01*
X222734Y-199567D01*
X222668Y-199671D01*
X222641Y-199715D01*
X222619Y-199753D01*
X222603Y-199786D01*
X222592Y-199808D01*
X222581Y-199824D01*
Y-199829D01*
X222510Y-200009D01*
X222455Y-200190D01*
X222417Y-200370D01*
X222395Y-200539D01*
X222384Y-200616D01*
X222379Y-200687D01*
X222373Y-200747D01*
Y-200801D01*
X222368Y-200845D01*
Y-200878D01*
Y-200900D01*
Y-200905D01*
X222373Y-201080D01*
X222390Y-201249D01*
X222412Y-201402D01*
X222444Y-201549D01*
X222483Y-201686D01*
X222521Y-201806D01*
X222570Y-201921D01*
X222614Y-202019D01*
X222657Y-202112D01*
X222701Y-202188D01*
X222745Y-202254D01*
X222783Y-202308D01*
X222816Y-202352D01*
X222837Y-202379D01*
X222854Y-202401D01*
X222859Y-202406D01*
X222952Y-202499D01*
X223050Y-202581D01*
X223154Y-202647D01*
X223258Y-202707D01*
X223362Y-202761D01*
X223465Y-202805D01*
X223564Y-202838D01*
X223662Y-202865D01*
X223749Y-202887D01*
X223837Y-202903D01*
X223908Y-202914D01*
X223973Y-202920D01*
X224028Y-202925D01*
X224066Y-202931D01*
X224099D01*
X224235Y-202925D01*
X224361Y-202909D01*
X224486Y-202882D01*
X224601Y-202849D01*
X224710Y-202811D01*
X224809Y-202767D01*
X224907Y-202718D01*
X224989Y-202668D01*
X225065Y-202625D01*
X225131Y-202576D01*
X225191Y-202532D01*
X225240Y-202494D01*
X225278Y-202461D01*
X225306Y-202434D01*
X225322Y-202417D01*
X225327Y-202412D01*
X225415Y-202308D01*
X225486Y-202199D01*
X225551Y-202084D01*
X225606Y-201964D01*
X225655Y-201844D01*
X225693Y-201729D01*
X225726Y-201609D01*
X225753Y-201495D01*
X225775Y-201391D01*
X225786Y-201293D01*
X225797Y-201205D01*
X225808Y-201129D01*
Y-201063D01*
X225813Y-201014D01*
Y-200987D01*
Y-200976D01*
X225808Y-200768D01*
X225791Y-200577D01*
X225764Y-200403D01*
X225731Y-200244D01*
X225693Y-200097D01*
X225655Y-199966D01*
X225606Y-199846D01*
X225557Y-199736D01*
X225513Y-199649D01*
X225464Y-199567D01*
X225426Y-199502D01*
X225382Y-199447D01*
X225355Y-199409D01*
X225327Y-199376D01*
X225311Y-199360D01*
X225306Y-199354D01*
X225207Y-199267D01*
X225103Y-199190D01*
X225000Y-199125D01*
X224896Y-199070D01*
X224798Y-199021D01*
X224694Y-198983D01*
X224596Y-198950D01*
X224503Y-198923D01*
X224415Y-198907D01*
X224339Y-198890D01*
X224268Y-198879D01*
X224208Y-198868D01*
X224153D01*
X224121Y-198863D01*
D02*
G37*
G36*
X182275Y-192316D02*
X182232D01*
X182144Y-192321D01*
X182062Y-192332D01*
X181986Y-192348D01*
X181915Y-192370D01*
X181784Y-192430D01*
X181724Y-192463D01*
X181669Y-192496D01*
X181626Y-192529D01*
X181582Y-192561D01*
X181544Y-192594D01*
X181517Y-192621D01*
X181495Y-192643D01*
X181473Y-192660D01*
X181467Y-192671D01*
X181462Y-192676D01*
X181396Y-192769D01*
X181342Y-192878D01*
X181304Y-192993D01*
X181271Y-193107D01*
X181249Y-193206D01*
X181244Y-193249D01*
X181238Y-193288D01*
X181233Y-193320D01*
X181227Y-193342D01*
Y-193359D01*
Y-193364D01*
X183269D01*
X183258Y-193277D01*
X183247Y-193195D01*
X183209Y-193047D01*
X183154Y-192916D01*
X183127Y-192856D01*
X183100Y-192807D01*
X183073Y-192758D01*
X183045Y-192720D01*
X183018Y-192687D01*
X182996Y-192654D01*
X182980Y-192632D01*
X182963Y-192616D01*
X182958Y-192611D01*
X182952Y-192605D01*
X182898Y-192556D01*
X182838Y-192507D01*
X182778Y-192469D01*
X182718Y-192436D01*
X182592Y-192387D01*
X182483Y-192354D01*
X182379Y-192332D01*
X182341Y-192327D01*
X182303Y-192321D01*
X182275Y-192316D01*
D02*
G37*
G36*
X235811Y-191098D02*
X234364D01*
X234298Y-191103D01*
X234233D01*
X234178Y-191109D01*
X234124Y-191114D01*
X234080Y-191120D01*
X234042D01*
X233976Y-191131D01*
X233932Y-191142D01*
X233905Y-191147D01*
X233900D01*
X233807Y-191180D01*
X233725Y-191224D01*
X233654Y-191273D01*
X233589Y-191322D01*
X233545Y-191366D01*
X233507Y-191404D01*
X233485Y-191431D01*
X233479Y-191442D01*
X233425Y-191529D01*
X233386Y-191622D01*
X233354Y-191710D01*
X233337Y-191797D01*
X233326Y-191868D01*
X233315Y-191928D01*
Y-191950D01*
Y-191966D01*
Y-191977D01*
Y-191983D01*
X233321Y-192064D01*
X233326Y-192136D01*
X233359Y-192272D01*
X233403Y-192387D01*
X233452Y-192485D01*
X233501Y-192561D01*
X233545Y-192616D01*
X233561Y-192632D01*
X233578Y-192649D01*
X233583Y-192654D01*
X233589Y-192660D01*
X233643Y-192703D01*
X233709Y-192736D01*
X233774Y-192769D01*
X233845Y-192796D01*
X233998Y-192840D01*
X234151Y-192867D01*
X234222Y-192878D01*
X234293Y-192889D01*
X234353Y-192894D01*
X234407D01*
X234451Y-192900D01*
X235811D01*
Y-191098D01*
D02*
G37*
G36*
X229188D02*
X228085D01*
X227992Y-191103D01*
X227910D01*
X227834Y-191109D01*
X227763Y-191114D01*
X227703Y-191120D01*
X227643Y-191125D01*
X227593Y-191131D01*
X227555Y-191142D01*
X227517Y-191147D01*
X227484Y-191153D01*
X227462Y-191158D01*
X227441Y-191164D01*
X227430D01*
X227419Y-191169D01*
X227337Y-191202D01*
X227271Y-191240D01*
X227211Y-191284D01*
X227162Y-191327D01*
X227124Y-191366D01*
X227097Y-191398D01*
X227080Y-191420D01*
X227075Y-191431D01*
X227031Y-191502D01*
X227004Y-191579D01*
X226982Y-191655D01*
X226965Y-191726D01*
X226955Y-191786D01*
X226949Y-191830D01*
Y-191862D01*
Y-191868D01*
Y-191873D01*
X226955Y-191972D01*
X226971Y-192054D01*
X226993Y-192130D01*
X227015Y-192195D01*
X227036Y-192245D01*
X227058Y-192283D01*
X227075Y-192305D01*
X227080Y-192316D01*
X227135Y-192376D01*
X227195Y-192430D01*
X227260Y-192474D01*
X227320Y-192507D01*
X227375Y-192534D01*
X227419Y-192550D01*
X227451Y-192561D01*
X227457Y-192567D01*
X227462D01*
X227501Y-192578D01*
X227544Y-192583D01*
X227643Y-192600D01*
X227752Y-192611D01*
X227855Y-192616D01*
X227948D01*
X227992Y-192621D01*
X229188D01*
Y-191098D01*
D02*
G37*
G36*
Y-193217D02*
X228025D01*
X227855Y-193222D01*
X227708Y-193228D01*
X227643Y-193238D01*
X227583Y-193244D01*
X227528Y-193249D01*
X227473Y-193260D01*
X227430Y-193266D01*
X227391Y-193277D01*
X227364Y-193282D01*
X227337Y-193288D01*
X227315Y-193293D01*
X227299Y-193298D01*
X227293Y-193304D01*
X227288D01*
X227195Y-193342D01*
X227118Y-193386D01*
X227047Y-193430D01*
X226987Y-193479D01*
X226944Y-193522D01*
X226911Y-193561D01*
X226889Y-193582D01*
X226884Y-193593D01*
X226835Y-193675D01*
X226796Y-193757D01*
X226774Y-193839D01*
X226753Y-193915D01*
X226742Y-193986D01*
X226736Y-194036D01*
Y-194057D01*
Y-194074D01*
Y-194079D01*
Y-194085D01*
X226742Y-194172D01*
X226753Y-194254D01*
X226769Y-194325D01*
X226785Y-194385D01*
X226807Y-194440D01*
X226824Y-194478D01*
X226835Y-194500D01*
X226840Y-194511D01*
X226878Y-194576D01*
X226922Y-194631D01*
X226965Y-194680D01*
X227004Y-194718D01*
X227042Y-194751D01*
X227069Y-194773D01*
X227091Y-194784D01*
X227097Y-194789D01*
X227157Y-194822D01*
X227222Y-194849D01*
X227282Y-194876D01*
X227342Y-194893D01*
X227397Y-194909D01*
X227441Y-194920D01*
X227468Y-194925D01*
X227479D01*
X227533Y-194931D01*
X227604Y-194937D01*
X227681Y-194942D01*
X227752D01*
X227823Y-194947D01*
X229188D01*
Y-193217D01*
D02*
G37*
G36*
X221828Y-191000D02*
X221789D01*
X221708Y-191005D01*
X221637Y-191016D01*
X221560Y-191038D01*
X221495Y-191065D01*
X221369Y-191131D01*
X221265Y-191202D01*
X221222Y-191240D01*
X221183Y-191278D01*
X221151Y-191316D01*
X221118Y-191344D01*
X221096Y-191371D01*
X221080Y-191393D01*
X221074Y-191404D01*
X221069Y-191409D01*
X221014Y-191497D01*
X220970Y-191595D01*
X220932Y-191715D01*
X220900Y-191841D01*
X220872Y-191972D01*
X220845Y-192108D01*
X220812Y-192387D01*
X220796Y-192518D01*
X220790Y-192643D01*
X220785Y-192758D01*
X220779Y-192856D01*
X220774Y-192944D01*
Y-192976D01*
Y-193004D01*
Y-193026D01*
Y-193042D01*
Y-193053D01*
Y-193058D01*
X220779Y-193282D01*
X220785Y-193484D01*
X220801Y-193670D01*
X220818Y-193839D01*
X220839Y-193992D01*
X220867Y-194123D01*
X220894Y-194243D01*
X220921Y-194347D01*
X220949Y-194434D01*
X220976Y-194511D01*
X220998Y-194576D01*
X221025Y-194625D01*
X221041Y-194664D01*
X221058Y-194685D01*
X221063Y-194702D01*
X221069Y-194707D01*
X221123Y-194778D01*
X221183Y-194844D01*
X221243Y-194898D01*
X221304Y-194942D01*
X221364Y-194986D01*
X221424Y-195018D01*
X221478Y-195046D01*
X221533Y-195068D01*
X221631Y-195095D01*
X221675Y-195106D01*
X221713Y-195111D01*
X221740D01*
X221768Y-195117D01*
X221784D01*
X221860Y-195111D01*
X221937Y-195100D01*
X222008Y-195078D01*
X222073Y-195051D01*
X222199Y-194991D01*
X222303Y-194915D01*
X222385Y-194838D01*
X222417Y-194805D01*
X222445Y-194778D01*
X222472Y-194751D01*
X222488Y-194729D01*
X222494Y-194718D01*
X222499Y-194713D01*
X222548Y-194625D01*
X222592Y-194521D01*
X222636Y-194407D01*
X222669Y-194281D01*
X222696Y-194145D01*
X222718Y-194008D01*
X222750Y-193730D01*
X222767Y-193599D01*
X222772Y-193473D01*
X222778Y-193359D01*
X222783Y-193260D01*
X222789Y-193178D01*
Y-193140D01*
Y-193113D01*
Y-193091D01*
Y-193075D01*
Y-193064D01*
Y-193058D01*
X222783Y-192834D01*
X222772Y-192632D01*
X222761Y-192441D01*
X222740Y-192272D01*
X222718Y-192119D01*
X222690Y-191977D01*
X222658Y-191857D01*
X222630Y-191748D01*
X222603Y-191649D01*
X222570Y-191573D01*
X222543Y-191508D01*
X222521Y-191453D01*
X222499Y-191409D01*
X222483Y-191382D01*
X222477Y-191366D01*
X222472Y-191360D01*
X222423Y-191295D01*
X222368Y-191240D01*
X222314Y-191191D01*
X222259Y-191153D01*
X222199Y-191114D01*
X222144Y-191087D01*
X222035Y-191043D01*
X221937Y-191016D01*
X221893Y-191011D01*
X221860Y-191005D01*
X221828Y-191000D01*
D02*
G37*
G36*
X212043Y-191000D02*
X212005D01*
X211923Y-191005D01*
X211852Y-191016D01*
X211776Y-191038D01*
X211710Y-191065D01*
X211585Y-191131D01*
X211481Y-191202D01*
X211437Y-191240D01*
X211399Y-191278D01*
X211366Y-191316D01*
X211333Y-191344D01*
X211312Y-191371D01*
X211295Y-191393D01*
X211290Y-191404D01*
X211284Y-191409D01*
X211230Y-191497D01*
X211186Y-191595D01*
X211148Y-191715D01*
X211115Y-191841D01*
X211088Y-191972D01*
X211061Y-192108D01*
X211028Y-192387D01*
X211011Y-192518D01*
X211006Y-192643D01*
X211000Y-192758D01*
X210995Y-192856D01*
X210990Y-192944D01*
Y-192976D01*
Y-193004D01*
Y-193026D01*
Y-193042D01*
Y-193053D01*
Y-193058D01*
X210995Y-193282D01*
X211000Y-193484D01*
X211017Y-193670D01*
X211033Y-193839D01*
X211055Y-193992D01*
X211082Y-194123D01*
X211110Y-194243D01*
X211137Y-194347D01*
X211164Y-194434D01*
X211192Y-194511D01*
X211213Y-194576D01*
X211241Y-194625D01*
X211257Y-194664D01*
X211274Y-194685D01*
X211279Y-194702D01*
X211284Y-194707D01*
X211339Y-194778D01*
X211399Y-194844D01*
X211459Y-194898D01*
X211519Y-194942D01*
X211579Y-194986D01*
X211639Y-195018D01*
X211694Y-195046D01*
X211749Y-195068D01*
X211847Y-195095D01*
X211891Y-195106D01*
X211929Y-195111D01*
X211956D01*
X211983Y-195117D01*
X212000D01*
X212076Y-195111D01*
X212153Y-195100D01*
X212224Y-195078D01*
X212289Y-195051D01*
X212415Y-194991D01*
X212518Y-194915D01*
X212600Y-194838D01*
X212633Y-194805D01*
X212660Y-194778D01*
X212688Y-194751D01*
X212704Y-194729D01*
X212709Y-194718D01*
X212715Y-194713D01*
X212764Y-194625D01*
X212808Y-194521D01*
X212851Y-194407D01*
X212884Y-194281D01*
X212912Y-194145D01*
X212933Y-194008D01*
X212966Y-193730D01*
X212983Y-193599D01*
X212988Y-193473D01*
X212993Y-193359D01*
X212999Y-193260D01*
X213004Y-193178D01*
Y-193140D01*
Y-193113D01*
Y-193091D01*
Y-193075D01*
Y-193064D01*
Y-193058D01*
X212999Y-192834D01*
X212988Y-192632D01*
X212977Y-192441D01*
X212955Y-192272D01*
X212933Y-192119D01*
X212906Y-191977D01*
X212873Y-191857D01*
X212846Y-191748D01*
X212819Y-191649D01*
X212786Y-191573D01*
X212759Y-191508D01*
X212737Y-191453D01*
X212715Y-191409D01*
X212699Y-191382D01*
X212693Y-191366D01*
X212688Y-191360D01*
X212638Y-191295D01*
X212584Y-191240D01*
X212529Y-191191D01*
X212475Y-191153D01*
X212415Y-191114D01*
X212360Y-191087D01*
X212251Y-191043D01*
X212153Y-191016D01*
X212109Y-191011D01*
X212076Y-191005D01*
X212043Y-191000D01*
D02*
G37*
G36*
X198344D02*
X198306D01*
X198224Y-191005D01*
X198153Y-191016D01*
X198077Y-191038D01*
X198011Y-191065D01*
X197886Y-191131D01*
X197782Y-191202D01*
X197738Y-191240D01*
X197700Y-191278D01*
X197667Y-191316D01*
X197634Y-191344D01*
X197613Y-191371D01*
X197596Y-191393D01*
X197591Y-191404D01*
X197585Y-191409D01*
X197531Y-191497D01*
X197487Y-191595D01*
X197449Y-191715D01*
X197416Y-191841D01*
X197389Y-191972D01*
X197361Y-192108D01*
X197329Y-192387D01*
X197312Y-192518D01*
X197307Y-192643D01*
X197301Y-192758D01*
X197296Y-192856D01*
X197290Y-192944D01*
Y-192976D01*
Y-193004D01*
Y-193026D01*
Y-193042D01*
Y-193053D01*
Y-193058D01*
X197296Y-193282D01*
X197301Y-193484D01*
X197318Y-193670D01*
X197334Y-193839D01*
X197356Y-193992D01*
X197383Y-194123D01*
X197411Y-194243D01*
X197438Y-194347D01*
X197465Y-194434D01*
X197492Y-194511D01*
X197514Y-194576D01*
X197542Y-194625D01*
X197558Y-194664D01*
X197574Y-194685D01*
X197580Y-194702D01*
X197585Y-194707D01*
X197640Y-194778D01*
X197700Y-194844D01*
X197760Y-194898D01*
X197820Y-194942D01*
X197880Y-194986D01*
X197940Y-195018D01*
X197995Y-195046D01*
X198049Y-195068D01*
X198148Y-195095D01*
X198191Y-195106D01*
X198230Y-195111D01*
X198257D01*
X198284Y-195117D01*
X198301D01*
X198377Y-195111D01*
X198453Y-195100D01*
X198524Y-195078D01*
X198590Y-195051D01*
X198715Y-194991D01*
X198819Y-194915D01*
X198901Y-194838D01*
X198934Y-194805D01*
X198961Y-194778D01*
X198988Y-194751D01*
X199005Y-194729D01*
X199010Y-194718D01*
X199016Y-194713D01*
X199065Y-194625D01*
X199109Y-194521D01*
X199152Y-194407D01*
X199185Y-194281D01*
X199212Y-194145D01*
X199234Y-194008D01*
X199267Y-193730D01*
X199283Y-193599D01*
X199289Y-193473D01*
X199294Y-193359D01*
X199300Y-193260D01*
X199305Y-193178D01*
Y-193140D01*
Y-193113D01*
Y-193091D01*
Y-193075D01*
Y-193064D01*
Y-193058D01*
X199300Y-192834D01*
X199289Y-192632D01*
X199278Y-192441D01*
X199256Y-192272D01*
X199234Y-192119D01*
X199207Y-191977D01*
X199174Y-191857D01*
X199147Y-191748D01*
X199119Y-191649D01*
X199087Y-191573D01*
X199059Y-191508D01*
X199038Y-191453D01*
X199016Y-191409D01*
X198999Y-191382D01*
X198994Y-191366D01*
X198988Y-191360D01*
X198939Y-191295D01*
X198885Y-191240D01*
X198830Y-191191D01*
X198775Y-191153D01*
X198715Y-191114D01*
X198661Y-191087D01*
X198552Y-191043D01*
X198453Y-191016D01*
X198410Y-191011D01*
X198377Y-191005D01*
X198344Y-191000D01*
D02*
G37*
G36*
X190498Y-190994D02*
X190400D01*
X190340Y-191005D01*
X190225Y-191033D01*
X190121Y-191071D01*
X190040Y-191109D01*
X189969Y-191153D01*
X189919Y-191191D01*
X189887Y-191218D01*
X189876Y-191224D01*
Y-191229D01*
X189832Y-191273D01*
X189799Y-191322D01*
X189739Y-191415D01*
X189696Y-191513D01*
X189668Y-191600D01*
X189652Y-191682D01*
X189646Y-191742D01*
X189641Y-191770D01*
Y-191786D01*
Y-191797D01*
Y-191802D01*
X189652Y-191917D01*
X189679Y-192021D01*
X189712Y-192119D01*
X189756Y-192196D01*
X189799Y-192261D01*
X189832Y-192310D01*
X189859Y-192338D01*
X189870Y-192348D01*
X189963Y-192425D01*
X190061Y-192480D01*
X190160Y-192518D01*
X190252Y-192545D01*
X190334Y-192561D01*
X190367Y-192567D01*
X190400D01*
X190427Y-192572D01*
X190460D01*
X190591Y-192561D01*
X190711Y-192540D01*
X190815Y-192501D01*
X190897Y-192458D01*
X190968Y-192419D01*
X191017Y-192381D01*
X191050Y-192359D01*
X191061Y-192348D01*
X191137Y-192261D01*
X191192Y-192163D01*
X191230Y-192064D01*
X191257Y-191972D01*
X191273Y-191890D01*
X191279Y-191857D01*
Y-191824D01*
X191284Y-191797D01*
Y-191781D01*
Y-191770D01*
Y-191764D01*
X191273Y-191649D01*
X191246Y-191546D01*
X191213Y-191453D01*
X191170Y-191376D01*
X191126Y-191311D01*
X191093Y-191262D01*
X191066Y-191235D01*
X191055Y-191224D01*
X190962Y-191147D01*
X190864Y-191093D01*
X190766Y-191049D01*
X190673Y-191022D01*
X190591Y-191005D01*
X190553Y-191000D01*
X190525D01*
X190498Y-190994D01*
D02*
G37*
G36*
X190520Y-193080D02*
X190476D01*
X190394Y-193086D01*
X190318Y-193091D01*
X190171Y-193124D01*
X190045Y-193173D01*
X189936Y-193228D01*
X189892Y-193255D01*
X189848Y-193282D01*
X189816Y-193304D01*
X189788Y-193331D01*
X189761Y-193348D01*
X189745Y-193364D01*
X189739Y-193369D01*
X189734Y-193375D01*
X189679Y-193430D01*
X189636Y-193490D01*
X189592Y-193550D01*
X189559Y-193610D01*
X189505Y-193735D01*
X189472Y-193850D01*
X189450Y-193954D01*
X189444Y-193997D01*
X189439Y-194036D01*
X189434Y-194068D01*
Y-194090D01*
Y-194106D01*
Y-194112D01*
X189439Y-194194D01*
X189444Y-194270D01*
X189477Y-194407D01*
X189526Y-194532D01*
X189575Y-194636D01*
X189603Y-194680D01*
X189630Y-194718D01*
X189657Y-194751D01*
X189679Y-194784D01*
X189696Y-194805D01*
X189712Y-194822D01*
X189717Y-194827D01*
X189723Y-194833D01*
X189778Y-194882D01*
X189838Y-194925D01*
X189898Y-194964D01*
X189958Y-194997D01*
X190083Y-195046D01*
X190198Y-195078D01*
X190302Y-195100D01*
X190345Y-195106D01*
X190384Y-195111D01*
X190416Y-195117D01*
X190460D01*
X190564Y-195111D01*
X190662Y-195095D01*
X190755Y-195073D01*
X190831Y-195051D01*
X190902Y-195029D01*
X190951Y-195007D01*
X190984Y-194991D01*
X190990Y-194986D01*
X190995D01*
X191082Y-194931D01*
X191159Y-194866D01*
X191219Y-194805D01*
X191273Y-194745D01*
X191312Y-194691D01*
X191344Y-194642D01*
X191361Y-194614D01*
X191366Y-194603D01*
X191404Y-194511D01*
X191437Y-194418D01*
X191459Y-194330D01*
X191470Y-194254D01*
X191481Y-194188D01*
X191486Y-194134D01*
Y-194101D01*
Y-194096D01*
Y-194090D01*
X191481Y-194008D01*
X191475Y-193937D01*
X191443Y-193795D01*
X191399Y-193670D01*
X191344Y-193566D01*
X191317Y-193522D01*
X191290Y-193484D01*
X191268Y-193451D01*
X191246Y-193419D01*
X191230Y-193397D01*
X191213Y-193380D01*
X191208Y-193375D01*
X191202Y-193369D01*
X191148Y-193320D01*
X191088Y-193271D01*
X191028Y-193233D01*
X190968Y-193200D01*
X190848Y-193151D01*
X190733Y-193118D01*
X190629Y-193096D01*
X190585Y-193091D01*
X190547Y-193086D01*
X190520Y-193080D01*
D02*
G37*
G36*
X172912Y-191000D02*
X172873D01*
X172791Y-191005D01*
X172720Y-191016D01*
X172644Y-191038D01*
X172579Y-191065D01*
X172453Y-191131D01*
X172349Y-191202D01*
X172306Y-191240D01*
X172267Y-191278D01*
X172234Y-191316D01*
X172202Y-191344D01*
X172180Y-191371D01*
X172163Y-191393D01*
X172158Y-191404D01*
X172153Y-191409D01*
X172098Y-191497D01*
X172054Y-191595D01*
X172016Y-191715D01*
X171983Y-191841D01*
X171956Y-191972D01*
X171929Y-192108D01*
X171896Y-192387D01*
X171880Y-192518D01*
X171874Y-192643D01*
X171869Y-192758D01*
X171863Y-192856D01*
X171858Y-192944D01*
Y-192976D01*
Y-193004D01*
Y-193026D01*
Y-193042D01*
Y-193053D01*
Y-193058D01*
X171863Y-193282D01*
X171869Y-193484D01*
X171885Y-193670D01*
X171901Y-193839D01*
X171923Y-193992D01*
X171951Y-194123D01*
X171978Y-194243D01*
X172005Y-194347D01*
X172032Y-194434D01*
X172060Y-194511D01*
X172082Y-194576D01*
X172109Y-194625D01*
X172125Y-194664D01*
X172142Y-194685D01*
X172147Y-194702D01*
X172153Y-194707D01*
X172207Y-194778D01*
X172267Y-194844D01*
X172327Y-194898D01*
X172387Y-194942D01*
X172447Y-194986D01*
X172508Y-195018D01*
X172562Y-195046D01*
X172617Y-195068D01*
X172715Y-195095D01*
X172759Y-195106D01*
X172797Y-195111D01*
X172824D01*
X172852Y-195117D01*
X172868D01*
X172944Y-195111D01*
X173021Y-195100D01*
X173092Y-195078D01*
X173157Y-195051D01*
X173283Y-194991D01*
X173387Y-194915D01*
X173468Y-194838D01*
X173501Y-194805D01*
X173529Y-194778D01*
X173556Y-194751D01*
X173572Y-194729D01*
X173578Y-194718D01*
X173583Y-194713D01*
X173632Y-194625D01*
X173676Y-194521D01*
X173720Y-194407D01*
X173752Y-194281D01*
X173780Y-194145D01*
X173802Y-194008D01*
X173834Y-193730D01*
X173851Y-193599D01*
X173856Y-193473D01*
X173862Y-193359D01*
X173867Y-193260D01*
X173872Y-193178D01*
Y-193140D01*
Y-193113D01*
Y-193091D01*
Y-193075D01*
Y-193064D01*
Y-193058D01*
X173867Y-192834D01*
X173856Y-192632D01*
X173845Y-192441D01*
X173823Y-192272D01*
X173802Y-192119D01*
X173774Y-191977D01*
X173741Y-191857D01*
X173714Y-191748D01*
X173687Y-191649D01*
X173654Y-191573D01*
X173627Y-191508D01*
X173605Y-191453D01*
X173583Y-191409D01*
X173567Y-191382D01*
X173561Y-191366D01*
X173556Y-191360D01*
X173507Y-191295D01*
X173452Y-191240D01*
X173398Y-191191D01*
X173343Y-191153D01*
X173283Y-191114D01*
X173228Y-191087D01*
X173119Y-191043D01*
X173021Y-191016D01*
X172977Y-191011D01*
X172944Y-191005D01*
X172912Y-191000D01*
D02*
G37*
%LPD*%
D11*
X168799Y-65394D02*
G03*
X168799Y-65394I-492J0D01*
G01*
D12*
X139370Y-40D02*
X187402D01*
X139370Y-33531D02*
Y-40D01*
X187402Y-33531D02*
Y-40D01*
X139370Y-63032D02*
Y-47492D01*
X187402Y-63032D02*
Y-47492D01*
X139370Y-63032D02*
X153370D01*
X173402D02*
X187402D01*
X65005Y-3120D02*
Y-1954D01*
Y-2537D01*
X67921D01*
X68504Y-1954D01*
Y-1371D01*
X67921Y-787D01*
X68504Y-6619D02*
Y-4286D01*
X66171Y-6619D01*
X65588D01*
X65005Y-6036D01*
Y-4869D01*
X65588Y-4286D01*
X141368Y-64415D02*
X142534D01*
X141951D01*
Y-67330D01*
X142534Y-67913D01*
X143118D01*
X143701Y-67330D01*
X140202Y-67913D02*
X139036D01*
X139619D01*
Y-64415D01*
X140202Y-64998D01*
D66*
X-29012Y-37357D02*
X154D01*
X-29012Y-175152D02*
Y-37357D01*
Y-175152D02*
X154D01*
Y-179089D02*
Y-175152D01*
X154Y-743D02*
X63902D01*
Y-215703D02*
Y-743D01*
X154Y-215703D02*
X63902D01*
X154Y-743D02*
X154Y-215703D01*
M02*
