G04*
G04 #@! TF.GenerationSoftware,Altium Limited,Altium Designer,18.1.7 (191)*
G04*
G04 Layer_Color=8421504*
%FSLAX25Y25*%
%MOIN*%
G70*
G01*
G75*
%ADD16R,0.05709X0.04528*%
G04:AMPARAMS|DCode=17|XSize=17.72mil|YSize=62.99mil|CornerRadius=1.95mil|HoleSize=0mil|Usage=FLASHONLY|Rotation=270.000|XOffset=0mil|YOffset=0mil|HoleType=Round|Shape=RoundedRectangle|*
%AMROUNDEDRECTD17*
21,1,0.01772,0.05909,0,0,270.0*
21,1,0.01382,0.06299,0,0,270.0*
1,1,0.00390,-0.02955,-0.00691*
1,1,0.00390,-0.02955,0.00691*
1,1,0.00390,0.02955,0.00691*
1,1,0.00390,0.02955,-0.00691*
%
%ADD17ROUNDEDRECTD17*%
%ADD18R,0.03150X0.02362*%
G04:AMPARAMS|DCode=19|XSize=17.72mil|YSize=41.34mil|CornerRadius=1.95mil|HoleSize=0mil|Usage=FLASHONLY|Rotation=270.000|XOffset=0mil|YOffset=0mil|HoleType=Round|Shape=RoundedRectangle|*
%AMROUNDEDRECTD19*
21,1,0.01772,0.03744,0,0,270.0*
21,1,0.01382,0.04134,0,0,270.0*
1,1,0.00390,-0.01872,-0.00691*
1,1,0.00390,-0.01872,0.00691*
1,1,0.00390,0.01872,0.00691*
1,1,0.00390,0.01872,-0.00691*
%
%ADD19ROUNDEDRECTD19*%
%ADD20R,0.04528X0.05709*%
%ADD21R,0.07874X0.03937*%
%ADD22O,0.07874X0.03937*%
%ADD23R,0.04724X0.04724*%
%ADD24R,0.05906X0.04921*%
%ADD25R,0.07874X0.03543*%
%ADD26R,0.03543X0.07874*%
%ADD27R,0.19685X0.19685*%
%ADD28R,0.04803X0.03602*%
%ADD29R,0.07480X0.05315*%
%ADD30O,0.10039X0.01575*%
%ADD31R,0.05315X0.07480*%
%ADD32R,0.03898X0.05472*%
%ADD33R,0.03937X0.06693*%
%ADD34R,0.12795X0.06693*%
%ADD35R,0.03602X0.04803*%
%ADD36R,0.04921X0.05906*%
D16*
X136762Y-189764D02*
D03*
Y-196850D02*
D03*
X127904Y-189764D02*
D03*
Y-196850D02*
D03*
X118780Y-189764D02*
D03*
Y-196850D02*
D03*
X110187Y-189764D02*
D03*
Y-196850D02*
D03*
X141142Y-11220D02*
D03*
Y-18307D02*
D03*
X132283Y-11220D02*
D03*
Y-18307D02*
D03*
X194882Y-20276D02*
D03*
Y-13189D02*
D03*
X186024Y-20276D02*
D03*
Y-13189D02*
D03*
X128150Y-112598D02*
D03*
Y-119685D02*
D03*
X137008Y-112598D02*
D03*
Y-119685D02*
D03*
X119291Y-112598D02*
D03*
Y-119685D02*
D03*
X110236Y-112598D02*
D03*
Y-119685D02*
D03*
D17*
X113976Y-159154D02*
D03*
Y-161713D02*
D03*
Y-164272D02*
D03*
Y-166831D02*
D03*
Y-169390D02*
D03*
Y-171949D02*
D03*
Y-174508D02*
D03*
Y-177067D02*
D03*
Y-179626D02*
D03*
Y-182185D02*
D03*
X137992Y-159154D02*
D03*
Y-161713D02*
D03*
Y-164272D02*
D03*
Y-166831D02*
D03*
Y-169390D02*
D03*
Y-171949D02*
D03*
Y-174508D02*
D03*
Y-177067D02*
D03*
Y-179626D02*
D03*
Y-182185D02*
D03*
X113583Y-82579D02*
D03*
Y-85138D02*
D03*
Y-87697D02*
D03*
Y-90256D02*
D03*
Y-92815D02*
D03*
Y-95374D02*
D03*
Y-97933D02*
D03*
Y-100492D02*
D03*
Y-103051D02*
D03*
Y-105610D02*
D03*
X137599Y-82579D02*
D03*
Y-85138D02*
D03*
Y-87697D02*
D03*
Y-90256D02*
D03*
Y-92815D02*
D03*
Y-95374D02*
D03*
Y-97933D02*
D03*
Y-100492D02*
D03*
Y-103051D02*
D03*
Y-105610D02*
D03*
D18*
X188543Y-100295D02*
D03*
Y-106004D02*
D03*
X131102Y-30217D02*
D03*
Y-35925D02*
D03*
X196024Y-28346D02*
D03*
Y-34055D02*
D03*
X239173Y-7972D02*
D03*
Y-13681D02*
D03*
X205512Y-100310D02*
D03*
Y-106018D02*
D03*
X232283Y-100110D02*
D03*
Y-105819D02*
D03*
D19*
X80413Y-121063D02*
D03*
Y-118504D02*
D03*
Y-115945D02*
D03*
X70768D02*
D03*
Y-121063D02*
D03*
D20*
X77165Y-129528D02*
D03*
X70079D02*
D03*
X109843Y-137008D02*
D03*
X116929D02*
D03*
X109843Y-128150D02*
D03*
X116929D02*
D03*
X237992Y-177657D02*
D03*
X245079D02*
D03*
X237992Y-169783D02*
D03*
X245079D02*
D03*
X237992Y-186516D02*
D03*
X245079D02*
D03*
X109449Y-51575D02*
D03*
X116535D02*
D03*
X109390Y-60236D02*
D03*
X116476D02*
D03*
D21*
X61417Y-138268D02*
D03*
X62205Y-60827D02*
D03*
D22*
X61417Y-143268D02*
D03*
Y-148268D02*
D03*
Y-153268D02*
D03*
Y-158268D02*
D03*
Y-163268D02*
D03*
Y-168268D02*
D03*
Y-173268D02*
D03*
Y-178268D02*
D03*
Y-183268D02*
D03*
X98032Y-138268D02*
D03*
Y-143268D02*
D03*
Y-148268D02*
D03*
Y-153268D02*
D03*
Y-158268D02*
D03*
Y-163268D02*
D03*
Y-168268D02*
D03*
Y-173268D02*
D03*
Y-178268D02*
D03*
Y-183268D02*
D03*
X98819Y-105827D02*
D03*
Y-100827D02*
D03*
Y-95827D02*
D03*
Y-90827D02*
D03*
Y-85827D02*
D03*
Y-80827D02*
D03*
Y-75827D02*
D03*
Y-70827D02*
D03*
Y-65827D02*
D03*
Y-60827D02*
D03*
X62205Y-105827D02*
D03*
Y-100827D02*
D03*
Y-95827D02*
D03*
Y-90827D02*
D03*
Y-85827D02*
D03*
Y-80827D02*
D03*
Y-75827D02*
D03*
Y-70827D02*
D03*
Y-65827D02*
D03*
D23*
X76917Y-139768D02*
D03*
Y-145768D02*
D03*
Y-151768D02*
D03*
Y-157768D02*
D03*
Y-163768D02*
D03*
Y-169768D02*
D03*
Y-175768D02*
D03*
X83917Y-181768D02*
D03*
Y-175768D02*
D03*
Y-169768D02*
D03*
Y-163768D02*
D03*
Y-157768D02*
D03*
Y-151768D02*
D03*
Y-145768D02*
D03*
Y-139768D02*
D03*
X76917Y-181768D02*
D03*
X77705Y-104327D02*
D03*
X84705Y-62327D02*
D03*
Y-68327D02*
D03*
Y-74327D02*
D03*
Y-80327D02*
D03*
Y-86327D02*
D03*
Y-92327D02*
D03*
Y-98327D02*
D03*
Y-104327D02*
D03*
X77705Y-98327D02*
D03*
Y-92327D02*
D03*
Y-86327D02*
D03*
Y-80327D02*
D03*
Y-74327D02*
D03*
Y-68327D02*
D03*
Y-62327D02*
D03*
D24*
X179921Y-102953D02*
D03*
Y-94685D02*
D03*
X83858Y-36811D02*
D03*
Y-45079D02*
D03*
X123032Y-18898D02*
D03*
Y-10630D02*
D03*
X112402Y-18898D02*
D03*
Y-10630D02*
D03*
X131102Y-58858D02*
D03*
Y-50590D02*
D03*
X196024Y-58858D02*
D03*
Y-50590D02*
D03*
X239567Y-29616D02*
D03*
Y-21348D02*
D03*
X164764Y-34252D02*
D03*
Y-42520D02*
D03*
X153937Y-34252D02*
D03*
Y-42520D02*
D03*
X213779Y-102953D02*
D03*
Y-94685D02*
D03*
X240551Y-102953D02*
D03*
Y-94685D02*
D03*
X224409Y-94685D02*
D03*
Y-102953D02*
D03*
D25*
X155098Y-185433D02*
D03*
Y-180433D02*
D03*
Y-175433D02*
D03*
Y-170433D02*
D03*
X155079Y-165433D02*
D03*
Y-160433D02*
D03*
X155098Y-155433D02*
D03*
Y-150433D02*
D03*
Y-145433D02*
D03*
X155079Y-140433D02*
D03*
Y-135433D02*
D03*
X155098Y-130433D02*
D03*
X155079Y-125433D02*
D03*
X222047Y-185039D02*
D03*
Y-180039D02*
D03*
Y-175039D02*
D03*
Y-170039D02*
D03*
Y-165039D02*
D03*
Y-160039D02*
D03*
Y-155039D02*
D03*
Y-150039D02*
D03*
Y-145039D02*
D03*
Y-140039D02*
D03*
Y-135039D02*
D03*
Y-130039D02*
D03*
Y-125039D02*
D03*
Y-120039D02*
D03*
X155079Y-120079D02*
D03*
D26*
X166024Y-115748D02*
D03*
X171024D02*
D03*
X176024D02*
D03*
X181024D02*
D03*
X186024D02*
D03*
X191024D02*
D03*
X196024D02*
D03*
X201024D02*
D03*
X206024D02*
D03*
X211083D02*
D03*
D27*
X192527Y-161934D02*
D03*
D28*
X74654Y-47451D02*
D03*
Y-34557D02*
D03*
D29*
X99606Y-127274D02*
D03*
Y-114676D02*
D03*
X239173Y-69488D02*
D03*
Y-82087D02*
D03*
X226772Y-69488D02*
D03*
Y-82087D02*
D03*
X213976Y-69488D02*
D03*
Y-82087D02*
D03*
X201181Y-69488D02*
D03*
Y-82087D02*
D03*
X99606Y-50394D02*
D03*
Y-37795D02*
D03*
X238189Y-150251D02*
D03*
Y-137653D02*
D03*
D30*
X173327Y-25482D02*
D03*
Y-22982D02*
D03*
Y-20482D02*
D03*
Y-17982D02*
D03*
Y-15482D02*
D03*
Y-12982D02*
D03*
Y-10482D02*
D03*
Y-7982D02*
D03*
X154232Y-25482D02*
D03*
Y-22982D02*
D03*
Y-20482D02*
D03*
Y-17982D02*
D03*
Y-15482D02*
D03*
Y-12982D02*
D03*
Y-10482D02*
D03*
Y-7982D02*
D03*
D31*
X217913Y-51181D02*
D03*
X205315D02*
D03*
X228543D02*
D03*
X241142D02*
D03*
D32*
X240177Y-39370D02*
D03*
X234232D02*
D03*
X176358Y-61028D02*
D03*
X182303D02*
D03*
D33*
X206890Y-37205D02*
D03*
X215945D02*
D03*
X225000D02*
D03*
D34*
X215945Y-10039D02*
D03*
D35*
X189911Y-82677D02*
D03*
X177018D02*
D03*
D36*
X187598Y-71850D02*
D03*
X179331D02*
D03*
X245276Y-160433D02*
D03*
X237008D02*
D03*
M02*
