G04*
G04 #@! TF.GenerationSoftware,Altium Limited,Altium Designer,18.1.7 (191)*
G04*
G04 Layer_Physical_Order=2*
G04 Layer_Color=16711680*
%FSLAX25Y25*%
%MOIN*%
G70*
G01*
G75*
%ADD10C,0.02362*%
%ADD13C,0.01575*%
%ADD66C,0.01000*%
%ADD67C,0.01968*%
%ADD68C,0.01181*%
%ADD69C,0.03937*%
%ADD70C,0.11811*%
%ADD71R,0.03937X0.03937*%
%ADD72R,0.15000X0.15000*%
%ADD73C,0.05118*%
%ADD74R,0.05118X0.05118*%
%ADD75R,0.05315X0.05315*%
%ADD76C,0.05315*%
%ADD77C,0.10827*%
%ADD78C,0.23622*%
%ADD79C,0.03937*%
%ADD80C,0.02362*%
G36*
X251969Y-186366D02*
X144685D01*
X144439Y-186415D01*
X144231Y-186554D01*
X144092Y-186762D01*
X144043Y-187008D01*
Y-216535D01*
X0D01*
Y0D01*
X251969D01*
Y-186366D01*
D02*
G37*
%LPC*%
G36*
X148083Y-6763D02*
X147376Y-6904D01*
X146777Y-7304D01*
X146377Y-7903D01*
X146236Y-8610D01*
X146272Y-8791D01*
X144854Y-10209D01*
X144605Y-10582D01*
X144517Y-11023D01*
Y-23788D01*
X144363Y-23891D01*
X143963Y-24490D01*
X143823Y-25197D01*
X143963Y-25903D01*
X144363Y-26502D01*
X144962Y-26903D01*
X145669Y-27043D01*
X145780Y-27021D01*
X146205Y-27446D01*
X146133Y-27807D01*
X146274Y-28514D01*
X146674Y-29113D01*
X147273Y-29513D01*
X147980Y-29654D01*
X148687Y-29513D01*
X149286Y-29113D01*
X149686Y-28514D01*
X149827Y-27807D01*
X149686Y-27101D01*
X149286Y-26502D01*
X149183Y-26433D01*
Y-17550D01*
X149337Y-17447D01*
X149737Y-16848D01*
X149878Y-16142D01*
X149737Y-15435D01*
X149337Y-14836D01*
X148738Y-14436D01*
X148031Y-14295D01*
X147325Y-14436D01*
X147262Y-14478D01*
X146821Y-14242D01*
Y-11501D01*
X147901Y-10420D01*
X148083Y-10456D01*
X148789Y-10316D01*
X149388Y-9915D01*
X149788Y-9316D01*
X149929Y-8610D01*
X149788Y-7903D01*
X149388Y-7304D01*
X148789Y-6904D01*
X148083Y-6763D01*
D02*
G37*
G36*
X49984Y-7967D02*
X42445D01*
Y-15507D01*
X49984D01*
Y-7967D01*
D02*
G37*
G36*
X41264D02*
X33724D01*
Y-15507D01*
X41264D01*
Y-7967D01*
D02*
G37*
G36*
X75169Y-15145D02*
Y-21063D01*
X81088D01*
X81020Y-20372D01*
X80646Y-19140D01*
X80039Y-18005D01*
X79222Y-17010D01*
X78227Y-16193D01*
X77092Y-15586D01*
X75860Y-15213D01*
X75169Y-15145D01*
D02*
G37*
G36*
X73988D02*
X73298Y-15213D01*
X72066Y-15586D01*
X70930Y-16193D01*
X69935Y-17010D01*
X69118Y-18005D01*
X68512Y-19140D01*
X68138Y-20372D01*
X68070Y-21063D01*
X73988D01*
Y-15145D01*
D02*
G37*
G36*
X49984Y-16688D02*
X42445D01*
Y-24227D01*
X49984D01*
Y-16688D01*
D02*
G37*
G36*
X41264D02*
X33724D01*
Y-24227D01*
X41264D01*
Y-16688D01*
D02*
G37*
G36*
X73988Y-22244D02*
X68070D01*
X68138Y-22935D01*
X68512Y-24167D01*
X69118Y-25302D01*
X69935Y-26297D01*
X70930Y-27114D01*
X72066Y-27721D01*
X73298Y-28094D01*
X73988Y-28162D01*
Y-22244D01*
D02*
G37*
G36*
X81088D02*
X75169D01*
Y-28162D01*
X75860Y-28094D01*
X77092Y-27721D01*
X78227Y-27114D01*
X79222Y-26297D01*
X80039Y-25302D01*
X80646Y-24167D01*
X81020Y-22935D01*
X81088Y-22244D01*
D02*
G37*
G36*
X90551Y-15087D02*
X89270Y-15213D01*
X88038Y-15586D01*
X86903Y-16193D01*
X85908Y-17010D01*
X85091Y-18005D01*
X84484Y-19140D01*
X84110Y-20372D01*
X83984Y-21654D01*
X84110Y-22935D01*
X84484Y-24167D01*
X85091Y-25302D01*
X85908Y-26297D01*
X86903Y-27114D01*
X88038Y-27721D01*
X89270Y-28094D01*
X90551Y-28221D01*
X91832Y-28094D01*
X93064Y-27721D01*
X94200Y-27114D01*
X95195Y-26297D01*
X96012Y-25302D01*
X96618Y-24167D01*
X96992Y-22935D01*
X97118Y-21654D01*
X96992Y-20372D01*
X96618Y-19140D01*
X96012Y-18005D01*
X95195Y-17010D01*
X94200Y-16193D01*
X93064Y-15586D01*
X91832Y-15213D01*
X90551Y-15087D01*
D02*
G37*
G36*
X187677Y-34497D02*
Y-39921D01*
X193101D01*
X193043Y-39327D01*
X192697Y-38188D01*
X192136Y-37138D01*
X191381Y-36218D01*
X190460Y-35463D01*
X189410Y-34902D01*
X188271Y-34556D01*
X187677Y-34497D01*
D02*
G37*
G36*
X186496D02*
X185902Y-34556D01*
X184763Y-34902D01*
X183713Y-35463D01*
X182793Y-36218D01*
X182038Y-37138D01*
X181476Y-38188D01*
X181131Y-39327D01*
X181072Y-39921D01*
X186496D01*
Y-34497D01*
D02*
G37*
G36*
X140276D02*
Y-39921D01*
X145700D01*
X145641Y-39327D01*
X145295Y-38188D01*
X144734Y-37138D01*
X143979Y-36218D01*
X143059Y-35463D01*
X142009Y-34902D01*
X140870Y-34556D01*
X140276Y-34497D01*
D02*
G37*
G36*
X139094D02*
X138500Y-34556D01*
X137361Y-34902D01*
X136311Y-35463D01*
X135391Y-36218D01*
X134636Y-37138D01*
X134075Y-38188D01*
X133729Y-39327D01*
X133671Y-39921D01*
X139094D01*
Y-34497D01*
D02*
G37*
G36*
X180709Y-12327D02*
X180002Y-12467D01*
X179403Y-12868D01*
X179003Y-13467D01*
X178862Y-14173D01*
X179003Y-14880D01*
X179403Y-15479D01*
X179557Y-15582D01*
Y-22835D01*
X179644Y-23276D01*
X179894Y-23649D01*
X180867Y-24622D01*
X180831Y-24803D01*
X180971Y-25510D01*
X181371Y-26109D01*
X181817Y-26407D01*
X181666Y-26907D01*
X166535D01*
X165857Y-26996D01*
X165225Y-27258D01*
X164682Y-27674D01*
X146454Y-45903D01*
X143430D01*
X143252Y-45403D01*
X143979Y-44806D01*
X144734Y-43886D01*
X145295Y-42836D01*
X145641Y-41697D01*
X145700Y-41102D01*
X133671D01*
X133706Y-41459D01*
X133229Y-41719D01*
X132854Y-41431D01*
X132222Y-41169D01*
X131544Y-41080D01*
X110236D01*
X109558Y-41169D01*
X108926Y-41431D01*
X108383Y-41848D01*
X107966Y-42390D01*
X107705Y-43023D01*
X107615Y-43701D01*
X107705Y-44379D01*
X107966Y-45011D01*
X108383Y-45554D01*
X108571Y-45698D01*
X108401Y-46198D01*
X94095D01*
X93416Y-46287D01*
X92784Y-46549D01*
X92241Y-46966D01*
X67832Y-71375D01*
X67415Y-71918D01*
X67154Y-72550D01*
X67064Y-73228D01*
Y-103850D01*
X67154Y-104528D01*
X67415Y-105160D01*
X67832Y-105703D01*
X69197Y-107068D01*
Y-108680D01*
X67832Y-110045D01*
X67415Y-110588D01*
X67154Y-111220D01*
X67064Y-111898D01*
Y-123263D01*
X66564Y-123591D01*
X66230Y-123453D01*
X65552Y-123363D01*
X64874Y-123453D01*
X64242Y-123714D01*
X63699Y-124131D01*
X63282Y-124674D01*
X63069Y-125188D01*
X62569Y-125088D01*
Y-123456D01*
X62723Y-123353D01*
X63123Y-122754D01*
X63264Y-122047D01*
X63123Y-121341D01*
X62723Y-120741D01*
X62124Y-120341D01*
X61417Y-120201D01*
X60711Y-120341D01*
X60112Y-120741D01*
X59711Y-121341D01*
X59571Y-122047D01*
X59711Y-122754D01*
X60112Y-123353D01*
X60265Y-123455D01*
Y-127332D01*
X60112Y-127435D01*
X59711Y-128034D01*
X59571Y-128740D01*
X59711Y-129447D01*
X60112Y-130046D01*
X60711Y-130446D01*
X61417Y-130587D01*
X62124Y-130446D01*
X62723Y-130046D01*
X63123Y-129447D01*
X63264Y-128740D01*
X63123Y-128034D01*
X62723Y-127435D01*
X62610Y-127359D01*
X62616Y-126992D01*
X63117Y-126896D01*
X63282Y-127295D01*
X63699Y-127838D01*
X64242Y-128254D01*
X64874Y-128516D01*
X65552Y-128605D01*
X66230Y-128516D01*
X66564Y-128377D01*
X67064Y-128705D01*
Y-182912D01*
X67154Y-183590D01*
X67415Y-184222D01*
X67832Y-184765D01*
X68481Y-185414D01*
Y-187027D01*
X67832Y-187676D01*
X67415Y-188219D01*
X67154Y-188851D01*
X67064Y-189530D01*
Y-193701D01*
X67154Y-194379D01*
X67415Y-195011D01*
X67832Y-195554D01*
X68226Y-195948D01*
X68768Y-196364D01*
X69400Y-196626D01*
X70079Y-196715D01*
X70757Y-196626D01*
X71389Y-196364D01*
X71932Y-195948D01*
X72348Y-195405D01*
X72610Y-194773D01*
X72700Y-194095D01*
X72610Y-193416D01*
X72348Y-192784D01*
X72306Y-192729D01*
Y-190615D01*
X72956Y-189965D01*
X73372Y-189423D01*
X73634Y-188791D01*
X73723Y-188112D01*
Y-184329D01*
X73634Y-183651D01*
X73372Y-183018D01*
X72956Y-182476D01*
X72306Y-181826D01*
Y-131382D01*
X72768Y-131191D01*
X75714Y-134137D01*
X76256Y-134553D01*
X76889Y-134815D01*
X77567Y-134904D01*
X90945D01*
X91623Y-134815D01*
X92255Y-134553D01*
X92798Y-134137D01*
X93215Y-133594D01*
X93476Y-132962D01*
X93566Y-132283D01*
X93476Y-131605D01*
X93215Y-130973D01*
X92798Y-130430D01*
X92255Y-130014D01*
X91623Y-129752D01*
X90945Y-129663D01*
X78652D01*
X72306Y-123316D01*
Y-112984D01*
X73671Y-111619D01*
X74087Y-111076D01*
X74349Y-110444D01*
X74438Y-109766D01*
Y-105982D01*
X74349Y-105304D01*
X74087Y-104672D01*
X73671Y-104129D01*
X72306Y-102764D01*
Y-74314D01*
X95180Y-51440D01*
X112205D01*
X112883Y-51350D01*
X113515Y-51089D01*
X114058Y-50672D01*
X118408Y-46322D01*
X130458D01*
X134513Y-50377D01*
X135056Y-50793D01*
X135688Y-51055D01*
X136366Y-51145D01*
X147539D01*
X148218Y-51055D01*
X148850Y-50793D01*
X149392Y-50377D01*
X167621Y-32148D01*
X202362D01*
X203041Y-32059D01*
X203673Y-31797D01*
X204215Y-31381D01*
X204632Y-30838D01*
X204894Y-30206D01*
X204983Y-29528D01*
X204894Y-28849D01*
X204632Y-28217D01*
X204215Y-27674D01*
X203673Y-27258D01*
X203041Y-26996D01*
X202362Y-26907D01*
X183689D01*
X183537Y-26407D01*
X183983Y-26109D01*
X184383Y-25510D01*
X184524Y-24803D01*
X184383Y-24096D01*
X183983Y-23497D01*
X183384Y-23097D01*
X182677Y-22957D01*
X182496Y-22993D01*
X181861Y-22357D01*
Y-15582D01*
X182014Y-15479D01*
X182415Y-14880D01*
X182555Y-14173D01*
X182415Y-13467D01*
X182014Y-12868D01*
X181415Y-12467D01*
X180709Y-12327D01*
D02*
G37*
G36*
X193101Y-41102D02*
X187677D01*
Y-46526D01*
X188271Y-46468D01*
X189410Y-46122D01*
X190460Y-45561D01*
X191381Y-44806D01*
X192136Y-43886D01*
X192697Y-42836D01*
X193043Y-41697D01*
X193101Y-41102D01*
D02*
G37*
G36*
X186496D02*
X181072D01*
X181131Y-41697D01*
X181476Y-42836D01*
X182038Y-43886D01*
X182793Y-44806D01*
X183713Y-45561D01*
X184763Y-46122D01*
X185902Y-46468D01*
X186496Y-46526D01*
Y-41102D01*
D02*
G37*
G36*
X168898Y-47943D02*
Y-50591D01*
X171545D01*
X171510Y-50323D01*
X171179Y-49523D01*
X170652Y-48836D01*
X169965Y-48310D01*
X169165Y-47978D01*
X168898Y-47943D01*
D02*
G37*
G36*
X167717D02*
X167449Y-47978D01*
X166649Y-48310D01*
X165963Y-48836D01*
X165436Y-49523D01*
X165104Y-50323D01*
X165069Y-50591D01*
X167717D01*
Y-47943D01*
D02*
G37*
G36*
X171545Y-51772D02*
X168898D01*
Y-54419D01*
X169165Y-54384D01*
X169965Y-54053D01*
X170652Y-53526D01*
X171179Y-52839D01*
X171510Y-52039D01*
X171545Y-51772D01*
D02*
G37*
G36*
X167717D02*
X165069D01*
X165104Y-52039D01*
X165436Y-52839D01*
X165963Y-53526D01*
X166649Y-54053D01*
X167449Y-54384D01*
X167717Y-54419D01*
Y-51772D01*
D02*
G37*
G36*
X158465Y-47865D02*
X157606Y-47978D01*
X156807Y-48310D01*
X156120Y-48836D01*
X155593Y-49523D01*
X155262Y-50323D01*
X155149Y-51181D01*
X155262Y-52039D01*
X155593Y-52839D01*
X156120Y-53526D01*
X156807Y-54053D01*
X157606Y-54384D01*
X158465Y-54497D01*
X159323Y-54384D01*
X160123Y-54053D01*
X160809Y-53526D01*
X161336Y-52839D01*
X161668Y-52039D01*
X161781Y-51181D01*
X161668Y-50323D01*
X161336Y-49523D01*
X160809Y-48836D01*
X160123Y-48310D01*
X159323Y-47978D01*
X158465Y-47865D01*
D02*
G37*
G36*
X49764Y-58293D02*
X49522Y-58325D01*
X48746Y-58646D01*
X48080Y-59157D01*
X47569Y-59824D01*
X47247Y-60599D01*
X47216Y-60841D01*
X49764D01*
Y-58293D01*
D02*
G37*
G36*
X34055Y-58336D02*
Y-60884D01*
X36603D01*
X36571Y-60642D01*
X36250Y-59867D01*
X35739Y-59201D01*
X35073Y-58689D01*
X34297Y-58368D01*
X34055Y-58336D01*
D02*
G37*
G36*
X32874D02*
X32632Y-58368D01*
X31856Y-58689D01*
X31190Y-59201D01*
X30679Y-59867D01*
X30358Y-60642D01*
X30326Y-60884D01*
X32874D01*
Y-58336D01*
D02*
G37*
G36*
X186894Y-54395D02*
X186215Y-54484D01*
X185583Y-54746D01*
X185040Y-55162D01*
X184624Y-55705D01*
X184362Y-56337D01*
X184273Y-57016D01*
X184362Y-57694D01*
X184624Y-58326D01*
X185040Y-58869D01*
X185248Y-59028D01*
Y-61244D01*
X184555Y-61937D01*
X171595D01*
Y-55768D01*
X165020D01*
Y-61937D01*
X160931D01*
X160761Y-61437D01*
X160809Y-61400D01*
X161336Y-60713D01*
X161668Y-59913D01*
X161781Y-59055D01*
X161668Y-58197D01*
X161336Y-57397D01*
X160809Y-56710D01*
X160123Y-56184D01*
X159323Y-55852D01*
X158465Y-55739D01*
X157606Y-55852D01*
X156807Y-56184D01*
X156120Y-56710D01*
X155593Y-57397D01*
X155262Y-58197D01*
X155149Y-59055D01*
X155262Y-59913D01*
X155593Y-60713D01*
X156120Y-61400D01*
X156168Y-61437D01*
X155999Y-61937D01*
X137839D01*
X137680Y-61730D01*
X137137Y-61313D01*
X136505Y-61051D01*
X135827Y-60962D01*
X135149Y-61051D01*
X134516Y-61313D01*
X133974Y-61730D01*
X133557Y-62272D01*
X133295Y-62904D01*
X133206Y-63583D01*
X133295Y-64261D01*
X133557Y-64893D01*
X133974Y-65436D01*
X134516Y-65852D01*
X135149Y-66114D01*
X135827Y-66203D01*
X136505Y-66114D01*
X137137Y-65852D01*
X137680Y-65436D01*
X137839Y-65228D01*
X185236D01*
X185866Y-65103D01*
X186400Y-64746D01*
X188057Y-63089D01*
X188414Y-62555D01*
X188539Y-61925D01*
Y-59028D01*
X188747Y-58869D01*
X189163Y-58326D01*
X189425Y-57694D01*
X189514Y-57016D01*
X189425Y-56337D01*
X189163Y-55705D01*
X188747Y-55162D01*
X188204Y-54746D01*
X187572Y-54484D01*
X186894Y-54395D01*
D02*
G37*
G36*
X49764Y-62022D02*
X47216D01*
X47247Y-62264D01*
X47569Y-63040D01*
X48080Y-63706D01*
X48746Y-64217D01*
X49522Y-64539D01*
X49764Y-64570D01*
Y-62022D01*
D02*
G37*
G36*
X36603Y-62066D02*
X34055D01*
Y-64614D01*
X34297Y-64582D01*
X35073Y-64261D01*
X35739Y-63749D01*
X36250Y-63083D01*
X36571Y-62307D01*
X36603Y-62066D01*
D02*
G37*
G36*
X32874D02*
X30326D01*
X30358Y-62307D01*
X30679Y-63083D01*
X31190Y-63749D01*
X31856Y-64261D01*
X32632Y-64582D01*
X32874Y-64614D01*
Y-62066D01*
D02*
G37*
G36*
X34055Y-66797D02*
Y-69345D01*
X36603D01*
X36571Y-69103D01*
X36250Y-68327D01*
X35739Y-67661D01*
X35073Y-67150D01*
X34297Y-66829D01*
X34055Y-66797D01*
D02*
G37*
G36*
X32874D02*
X32632Y-66829D01*
X31856Y-67150D01*
X31190Y-67661D01*
X30679Y-68327D01*
X30358Y-69103D01*
X30326Y-69345D01*
X32874D01*
Y-66797D01*
D02*
G37*
G36*
X36603Y-70526D02*
X34055D01*
Y-73074D01*
X34297Y-73042D01*
X35073Y-72721D01*
X35739Y-72210D01*
X36250Y-71544D01*
X36571Y-70768D01*
X36603Y-70526D01*
D02*
G37*
G36*
X32874D02*
X30326D01*
X30358Y-70768D01*
X30679Y-71544D01*
X31190Y-72210D01*
X31856Y-72721D01*
X32632Y-73042D01*
X32874Y-73074D01*
Y-70526D01*
D02*
G37*
G36*
X50945Y-58293D02*
Y-61432D01*
Y-64570D01*
X51187Y-64539D01*
X51963Y-64217D01*
X52629Y-63706D01*
X53140Y-63040D01*
X53432Y-62334D01*
X53706Y-62281D01*
X53961Y-62298D01*
X54324Y-62841D01*
X54923Y-63241D01*
X55630Y-63382D01*
X55811Y-63346D01*
X63076Y-70611D01*
Y-72998D01*
X62614Y-73190D01*
X58545Y-69121D01*
X58172Y-68871D01*
X57731Y-68783D01*
X53329D01*
X53140Y-68327D01*
X52629Y-67661D01*
X51963Y-67150D01*
X51187Y-66829D01*
X50354Y-66719D01*
X49522Y-66829D01*
X48746Y-67150D01*
X48080Y-67661D01*
X47569Y-68327D01*
X47247Y-69103D01*
X47138Y-69936D01*
X47247Y-70768D01*
X47569Y-71544D01*
X48080Y-72210D01*
X48746Y-72721D01*
X49522Y-73042D01*
X49948Y-73098D01*
X49915Y-73598D01*
X46903D01*
X46462Y-73686D01*
X46088Y-73936D01*
X42886Y-77138D01*
X42636Y-77512D01*
X42549Y-77953D01*
Y-97298D01*
X42636Y-97739D01*
X42886Y-98112D01*
X47436Y-102663D01*
X47247Y-103119D01*
X47138Y-103951D01*
X47247Y-104784D01*
X47569Y-105560D01*
X48080Y-106226D01*
X48746Y-106737D01*
X49522Y-107058D01*
X50354Y-107168D01*
X51187Y-107058D01*
X51963Y-106737D01*
X52629Y-106226D01*
X53140Y-105560D01*
X53461Y-104784D01*
X53571Y-103951D01*
X53461Y-103119D01*
X53140Y-102343D01*
X52629Y-101677D01*
X51963Y-101166D01*
X51187Y-100844D01*
X50354Y-100735D01*
X49522Y-100844D01*
X49066Y-101033D01*
X44853Y-96820D01*
Y-78430D01*
X47200Y-76083D01*
X47486Y-76119D01*
X47708Y-76650D01*
X47569Y-76831D01*
X47247Y-77607D01*
X47138Y-78439D01*
X47247Y-79272D01*
X47569Y-80048D01*
X48080Y-80714D01*
X48746Y-81225D01*
X49522Y-81546D01*
X50354Y-81656D01*
X51187Y-81546D01*
X51963Y-81225D01*
X52629Y-80714D01*
X53140Y-80048D01*
X53461Y-79272D01*
X53571Y-78439D01*
X53461Y-77607D01*
X53373Y-77395D01*
X53651Y-76979D01*
X54497D01*
X54600Y-77132D01*
X55199Y-77533D01*
X55905Y-77673D01*
X56612Y-77533D01*
X57211Y-77132D01*
X57612Y-76533D01*
X57752Y-75827D01*
X57612Y-75120D01*
X57211Y-74521D01*
X56612Y-74121D01*
X55905Y-73980D01*
X55199Y-74121D01*
X54600Y-74521D01*
X54497Y-74675D01*
X53436D01*
X52697Y-73936D01*
X52323Y-73686D01*
X51882Y-73598D01*
X50794D01*
X50761Y-73098D01*
X51187Y-73042D01*
X51963Y-72721D01*
X52629Y-72210D01*
X53140Y-71544D01*
X53329Y-71088D01*
X57254D01*
X61446Y-75280D01*
Y-89050D01*
X56415Y-94082D01*
X55905Y-93980D01*
X55199Y-94121D01*
X54600Y-94521D01*
X54200Y-95120D01*
X54059Y-95827D01*
X54200Y-96533D01*
X54600Y-97132D01*
X55199Y-97533D01*
X55905Y-97673D01*
X56612Y-97533D01*
X57211Y-97132D01*
X57612Y-96533D01*
X57708Y-96047D01*
X59803Y-93952D01*
X60265Y-94143D01*
Y-108434D01*
X60112Y-108537D01*
X59711Y-109136D01*
X59571Y-109843D01*
X59711Y-110549D01*
X60112Y-111148D01*
X60711Y-111548D01*
X61417Y-111689D01*
X62124Y-111548D01*
X62723Y-111148D01*
X63123Y-110549D01*
X63264Y-109843D01*
X63123Y-109136D01*
X62723Y-108537D01*
X62569Y-108434D01*
Y-93491D01*
X65043Y-91017D01*
X65293Y-90644D01*
X65380Y-90203D01*
Y-70134D01*
X65293Y-69693D01*
X65043Y-69319D01*
X57440Y-61717D01*
X57476Y-61535D01*
X57336Y-60829D01*
X56936Y-60230D01*
X56336Y-59829D01*
X55630Y-59689D01*
X54923Y-59829D01*
X54324Y-60230D01*
X53984Y-60739D01*
X53600Y-60719D01*
X53471Y-60675D01*
X53461Y-60599D01*
X53140Y-59824D01*
X52629Y-59157D01*
X51963Y-58646D01*
X51187Y-58325D01*
X50945Y-58293D01*
D02*
G37*
G36*
X34055Y-75301D02*
Y-77849D01*
X36603D01*
X36571Y-77607D01*
X36250Y-76831D01*
X35739Y-76165D01*
X35073Y-75654D01*
X34297Y-75333D01*
X34055Y-75301D01*
D02*
G37*
G36*
X32874D02*
X32632Y-75333D01*
X31856Y-75654D01*
X31190Y-76165D01*
X30679Y-76831D01*
X30358Y-77607D01*
X30326Y-77849D01*
X32874D01*
Y-75301D01*
D02*
G37*
G36*
X135827Y-75726D02*
X135149Y-75815D01*
X134516Y-76077D01*
X133974Y-76493D01*
X133557Y-77036D01*
X133295Y-77668D01*
X133206Y-78347D01*
X133245Y-78643D01*
X133179Y-78670D01*
X132753Y-78738D01*
X132408Y-78222D01*
X131809Y-77822D01*
X131102Y-77681D01*
X130396Y-77822D01*
X129797Y-78222D01*
X129396Y-78821D01*
X129256Y-79528D01*
X129396Y-80234D01*
X129797Y-80833D01*
X129950Y-80936D01*
Y-92830D01*
X119079Y-103701D01*
X118898Y-103665D01*
X118191Y-103806D01*
X117592Y-104206D01*
X117192Y-104805D01*
X117051Y-105512D01*
X117192Y-106218D01*
X117592Y-106817D01*
X118191Y-107218D01*
X118898Y-107358D01*
X119604Y-107218D01*
X120203Y-106817D01*
X120604Y-106218D01*
X120744Y-105512D01*
X120708Y-105331D01*
X126004Y-100035D01*
X126504Y-100242D01*
Y-104484D01*
X126296Y-104643D01*
X125880Y-105185D01*
X125618Y-105818D01*
X125529Y-106496D01*
X125618Y-107174D01*
X125880Y-107806D01*
X125984Y-107942D01*
X125738Y-108442D01*
X109875D01*
X108110Y-106677D01*
X108146Y-106496D01*
X108005Y-105789D01*
X107605Y-105190D01*
X107006Y-104790D01*
X106299Y-104649D01*
X105593Y-104790D01*
X104993Y-105190D01*
X104593Y-105789D01*
X104453Y-106496D01*
X104593Y-107203D01*
X104993Y-107802D01*
X105593Y-108202D01*
X106299Y-108343D01*
X106480Y-108306D01*
X108583Y-110409D01*
X108957Y-110659D01*
X109398Y-110747D01*
X154303D01*
X154716Y-110664D01*
X154747Y-110686D01*
X154943Y-111144D01*
X154304Y-111784D01*
X154054Y-112158D01*
X153966Y-112598D01*
Y-114733D01*
X153812Y-114836D01*
X153412Y-115435D01*
X153272Y-116142D01*
X153412Y-116848D01*
X153812Y-117447D01*
X154411Y-117848D01*
X155118Y-117988D01*
X155825Y-117848D01*
X156424Y-117447D01*
X156824Y-116848D01*
X156965Y-116142D01*
X156824Y-115435D01*
X156424Y-114836D01*
X156270Y-114733D01*
Y-113076D01*
X159661Y-109685D01*
X159843Y-109721D01*
X160502Y-109589D01*
X160634Y-109612D01*
X161002Y-109808D01*
Y-125558D01*
X160032Y-126528D01*
X159782Y-126902D01*
X159694Y-127342D01*
Y-128233D01*
X159541Y-128335D01*
X159141Y-128934D01*
X159000Y-129641D01*
X159141Y-130348D01*
X159541Y-130947D01*
X160140Y-131347D01*
X160846Y-131488D01*
X161553Y-131347D01*
X162152Y-130947D01*
X162552Y-130348D01*
X162578Y-130218D01*
X163040Y-130027D01*
X163073Y-130049D01*
X163779Y-130189D01*
X164486Y-130049D01*
X165085Y-129648D01*
X165486Y-129049D01*
X165626Y-128343D01*
X165486Y-127636D01*
X165085Y-127037D01*
X164936Y-126937D01*
Y-105454D01*
X164848Y-105013D01*
X164598Y-104640D01*
X160321Y-100363D01*
X159947Y-100113D01*
X159506Y-100025D01*
X152168D01*
X144160Y-92018D01*
Y-79703D01*
X144304Y-79487D01*
X144445Y-78780D01*
X144304Y-78074D01*
X143904Y-77474D01*
X143305Y-77074D01*
X142598Y-76934D01*
X141892Y-77074D01*
X141310Y-77463D01*
X140912Y-76867D01*
X140313Y-76467D01*
X139606Y-76326D01*
X138900Y-76467D01*
X138301Y-76867D01*
X137824Y-76681D01*
X137680Y-76493D01*
X137137Y-76077D01*
X136505Y-75815D01*
X135827Y-75726D01*
D02*
G37*
G36*
X36603Y-79030D02*
X34055D01*
Y-81578D01*
X34297Y-81546D01*
X35073Y-81225D01*
X35739Y-80714D01*
X36250Y-80048D01*
X36571Y-79272D01*
X36603Y-79030D01*
D02*
G37*
G36*
X32874D02*
X30326D01*
X30358Y-79272D01*
X30679Y-80048D01*
X31190Y-80714D01*
X31856Y-81225D01*
X32632Y-81546D01*
X32874Y-81578D01*
Y-79030D01*
D02*
G37*
G36*
X108267Y-80838D02*
X107714Y-80948D01*
X107246Y-81261D01*
X106932Y-81730D01*
X106822Y-82283D01*
X106932Y-82836D01*
X107246Y-83305D01*
X107640Y-83699D01*
X108108Y-84012D01*
X108661Y-84122D01*
X109214Y-84012D01*
X109683Y-83699D01*
X109996Y-83230D01*
X110107Y-82677D01*
X109996Y-82124D01*
X109683Y-81655D01*
X109289Y-81261D01*
X108820Y-80948D01*
X108267Y-80838D01*
D02*
G37*
G36*
X121752Y-83291D02*
X121045Y-83432D01*
X120446Y-83832D01*
X120046Y-84431D01*
X119905Y-85138D01*
X119973Y-85476D01*
X119547Y-85901D01*
X119291Y-85850D01*
X118585Y-85991D01*
X117986Y-86391D01*
X117585Y-86990D01*
X117445Y-87697D01*
X117585Y-88403D01*
X117986Y-89002D01*
X118047Y-89043D01*
Y-93579D01*
X117044Y-94582D01*
X108156D01*
X107920Y-94141D01*
X108005Y-94014D01*
X108146Y-93307D01*
X108005Y-92601D01*
X107605Y-92001D01*
X107006Y-91601D01*
X106299Y-91461D01*
X105593Y-91601D01*
X104993Y-92001D01*
X104891Y-92155D01*
X100083D01*
X93936Y-86008D01*
X93972Y-85827D01*
X93832Y-85120D01*
X93432Y-84521D01*
X92833Y-84121D01*
X92126Y-83980D01*
X91419Y-84121D01*
X90820Y-84521D01*
X90420Y-85120D01*
X90280Y-85827D01*
X90420Y-86533D01*
X90820Y-87132D01*
X91419Y-87533D01*
X92126Y-87673D01*
X92307Y-87637D01*
X98752Y-94082D01*
X98734Y-94248D01*
X98581Y-94582D01*
X93473D01*
X93432Y-94521D01*
X92833Y-94121D01*
X92126Y-93980D01*
X91419Y-94121D01*
X90820Y-94521D01*
X90420Y-95120D01*
X90280Y-95827D01*
X90294Y-95899D01*
X83766Y-102427D01*
X83496Y-102831D01*
X83401Y-103307D01*
X83496Y-103783D01*
X83766Y-104187D01*
X84791Y-105213D01*
X84531Y-105473D01*
X84262Y-105876D01*
X84167Y-106353D01*
Y-116764D01*
X84106Y-116805D01*
X83706Y-117404D01*
X83565Y-118110D01*
X83706Y-118817D01*
X84106Y-119416D01*
X84705Y-119816D01*
X85411Y-119957D01*
X86118Y-119816D01*
X86717Y-119416D01*
X87117Y-118817D01*
X87258Y-118110D01*
X87117Y-117404D01*
X86717Y-116805D01*
X86656Y-116764D01*
Y-106868D01*
X87431Y-106093D01*
X87701Y-105689D01*
X87796Y-105213D01*
X87701Y-104736D01*
X87431Y-104333D01*
X86405Y-103307D01*
X92054Y-97659D01*
X92126Y-97673D01*
X92833Y-97533D01*
X93432Y-97132D01*
X93473Y-97071D01*
X117559D01*
X118035Y-96976D01*
X118439Y-96707D01*
X120100Y-95046D01*
X120385Y-95103D01*
X120600Y-95233D01*
Y-97062D01*
X118027Y-99635D01*
X93928D01*
X93825Y-99482D01*
X93226Y-99081D01*
X92520Y-98941D01*
X91813Y-99081D01*
X91214Y-99482D01*
X90814Y-100081D01*
X90673Y-100787D01*
X90814Y-101494D01*
X91214Y-102093D01*
X91813Y-102493D01*
X92520Y-102634D01*
X93226Y-102493D01*
X93825Y-102093D01*
X93928Y-101939D01*
X118504D01*
X118945Y-101852D01*
X119319Y-101602D01*
X122567Y-98354D01*
X122816Y-97980D01*
X122904Y-97539D01*
Y-86546D01*
X123058Y-86443D01*
X123458Y-85844D01*
X123598Y-85138D01*
X123458Y-84431D01*
X123058Y-83832D01*
X122459Y-83432D01*
X121752Y-83291D01*
D02*
G37*
G36*
X34055Y-83836D02*
Y-86384D01*
X36603D01*
X36571Y-86142D01*
X36250Y-85367D01*
X35739Y-84701D01*
X35073Y-84189D01*
X34297Y-83868D01*
X34055Y-83836D01*
D02*
G37*
G36*
X32874D02*
X32632Y-83868D01*
X31856Y-84189D01*
X31190Y-84701D01*
X30679Y-85367D01*
X30358Y-86142D01*
X30326Y-86384D01*
X32874D01*
Y-83836D01*
D02*
G37*
G36*
X36603Y-87565D02*
X34055D01*
Y-90114D01*
X34297Y-90082D01*
X35073Y-89761D01*
X35739Y-89249D01*
X36250Y-88583D01*
X36571Y-87807D01*
X36603Y-87565D01*
D02*
G37*
G36*
X32874D02*
X30326D01*
X30358Y-87807D01*
X30679Y-88583D01*
X31190Y-89249D01*
X31856Y-89761D01*
X32632Y-90082D01*
X32874Y-90114D01*
Y-87565D01*
D02*
G37*
G36*
X50354Y-83727D02*
X49522Y-83837D01*
X48746Y-84158D01*
X48080Y-84669D01*
X47569Y-85335D01*
X47247Y-86111D01*
X47138Y-86944D01*
X47247Y-87776D01*
X47569Y-88552D01*
X48080Y-89218D01*
X48746Y-89729D01*
X49522Y-90050D01*
X50354Y-90160D01*
X51187Y-90050D01*
X51963Y-89729D01*
X52629Y-89218D01*
X53140Y-88552D01*
X53461Y-87776D01*
X53571Y-86944D01*
X53461Y-86111D01*
X53140Y-85335D01*
X52629Y-84669D01*
X51963Y-84158D01*
X51187Y-83837D01*
X50354Y-83727D01*
D02*
G37*
G36*
X56575Y-78980D02*
X55868Y-79121D01*
X55269Y-79521D01*
X54869Y-80120D01*
X54728Y-80827D01*
X54764Y-81008D01*
X54697Y-81075D01*
X54448Y-81449D01*
X54360Y-81890D01*
Y-89813D01*
X51643Y-92530D01*
X51187Y-92341D01*
X50354Y-92231D01*
X49522Y-92341D01*
X48746Y-92662D01*
X48080Y-93173D01*
X47569Y-93839D01*
X47247Y-94615D01*
X47138Y-95447D01*
X47247Y-96280D01*
X47569Y-97056D01*
X48080Y-97722D01*
X48746Y-98233D01*
X49522Y-98554D01*
X50354Y-98664D01*
X51187Y-98554D01*
X51963Y-98233D01*
X52629Y-97722D01*
X53140Y-97056D01*
X53461Y-96280D01*
X53571Y-95447D01*
X53461Y-94615D01*
X53272Y-94159D01*
X56326Y-91105D01*
X56576Y-90731D01*
X56664Y-90290D01*
Y-82656D01*
X57281Y-82533D01*
X57881Y-82132D01*
X58281Y-81533D01*
X58421Y-80827D01*
X58281Y-80120D01*
X57881Y-79521D01*
X57281Y-79121D01*
X56575Y-78980D01*
D02*
G37*
G36*
X89488Y-88980D02*
X88782Y-89121D01*
X88182Y-89521D01*
X87782Y-90120D01*
X87642Y-90827D01*
X87656Y-90899D01*
X76325Y-102230D01*
X76055Y-102634D01*
X75960Y-103110D01*
Y-108102D01*
X75899Y-108143D01*
X75499Y-108742D01*
X75358Y-109449D01*
X75499Y-110155D01*
X75899Y-110755D01*
X76498Y-111155D01*
X77205Y-111295D01*
X77911Y-111155D01*
X78510Y-110755D01*
X78911Y-110155D01*
X79051Y-109449D01*
X78911Y-108742D01*
X78510Y-108143D01*
X78449Y-108102D01*
Y-103626D01*
X89416Y-92659D01*
X89488Y-92673D01*
X90195Y-92533D01*
X90794Y-92132D01*
X91194Y-91533D01*
X91335Y-90827D01*
X91194Y-90120D01*
X90794Y-89521D01*
X90195Y-89121D01*
X89488Y-88980D01*
D02*
G37*
G36*
X158465Y-69214D02*
X156512Y-69367D01*
X154608Y-69824D01*
X152799Y-70574D01*
X151129Y-71597D01*
X149640Y-72869D01*
X148369Y-74358D01*
X147345Y-76028D01*
X146596Y-77837D01*
X146139Y-79741D01*
X145985Y-81693D01*
X146139Y-83645D01*
X146596Y-85549D01*
X147345Y-87358D01*
X148369Y-89028D01*
X149640Y-90517D01*
X151129Y-91789D01*
X152799Y-92812D01*
X154608Y-93562D01*
X156512Y-94019D01*
X158465Y-94172D01*
X160417Y-94019D01*
X162321Y-93562D01*
X164130Y-92812D01*
X165800Y-91789D01*
X167289Y-90517D01*
X168561Y-89028D01*
X169584Y-87358D01*
X170333Y-85549D01*
X170790Y-83645D01*
X170944Y-81693D01*
X170790Y-79741D01*
X170333Y-77837D01*
X169584Y-76028D01*
X168561Y-74358D01*
X167289Y-72869D01*
X165800Y-71597D01*
X164130Y-70574D01*
X162321Y-69824D01*
X160417Y-69367D01*
X158465Y-69214D01*
D02*
G37*
G36*
X34055Y-92336D02*
Y-94884D01*
X36603D01*
X36571Y-94642D01*
X36250Y-93867D01*
X35739Y-93200D01*
X35073Y-92689D01*
X34297Y-92368D01*
X34055Y-92336D01*
D02*
G37*
G36*
X32874D02*
X32632Y-92368D01*
X31856Y-92689D01*
X31190Y-93200D01*
X30679Y-93867D01*
X30358Y-94642D01*
X30326Y-94884D01*
X32874D01*
Y-92336D01*
D02*
G37*
G36*
X36603Y-96065D02*
X34055D01*
Y-98614D01*
X34297Y-98582D01*
X35073Y-98260D01*
X35739Y-97749D01*
X36250Y-97083D01*
X36571Y-96307D01*
X36603Y-96065D01*
D02*
G37*
G36*
X32874D02*
X30326D01*
X30358Y-96307D01*
X30679Y-97083D01*
X31190Y-97749D01*
X31856Y-98260D01*
X32632Y-98582D01*
X32874Y-98614D01*
Y-96065D01*
D02*
G37*
G36*
X217322Y-95791D02*
X216616Y-95932D01*
X216017Y-96332D01*
X215616Y-96931D01*
X215476Y-97638D01*
X215616Y-98344D01*
X216017Y-98943D01*
X216411Y-99337D01*
X217010Y-99737D01*
X217716Y-99878D01*
X218423Y-99737D01*
X219022Y-99337D01*
X219422Y-98738D01*
X219563Y-98032D01*
X219422Y-97325D01*
X219022Y-96726D01*
X218628Y-96332D01*
X218029Y-95932D01*
X217322Y-95791D01*
D02*
G37*
G36*
X34055Y-100836D02*
Y-103384D01*
X36603D01*
X36571Y-103142D01*
X36250Y-102367D01*
X35739Y-101700D01*
X35073Y-101189D01*
X34297Y-100868D01*
X34055Y-100836D01*
D02*
G37*
G36*
X32874D02*
X32632Y-100868D01*
X31856Y-101189D01*
X31190Y-101700D01*
X30679Y-102367D01*
X30358Y-103142D01*
X30326Y-103384D01*
X32874D01*
Y-100836D01*
D02*
G37*
G36*
X36603Y-104566D02*
X34055D01*
Y-107114D01*
X34297Y-107082D01*
X35073Y-106761D01*
X35739Y-106249D01*
X36250Y-105583D01*
X36571Y-104807D01*
X36603Y-104566D01*
D02*
G37*
G36*
X32874D02*
X30326D01*
X30358Y-104807D01*
X30679Y-105583D01*
X31190Y-106249D01*
X31856Y-106761D01*
X32632Y-107082D01*
X32874Y-107114D01*
Y-104566D01*
D02*
G37*
G36*
X34055Y-109336D02*
Y-111884D01*
X36603D01*
X36571Y-111642D01*
X36250Y-110867D01*
X35739Y-110201D01*
X35073Y-109689D01*
X34297Y-109368D01*
X34055Y-109336D01*
D02*
G37*
G36*
X32874D02*
X32632Y-109368D01*
X31856Y-109689D01*
X31190Y-110201D01*
X30679Y-110867D01*
X30358Y-111642D01*
X30326Y-111884D01*
X32874D01*
Y-109336D01*
D02*
G37*
G36*
X36603Y-113066D02*
X34055D01*
Y-115614D01*
X34297Y-115582D01*
X35073Y-115261D01*
X35739Y-114749D01*
X36250Y-114083D01*
X36571Y-113307D01*
X36603Y-113066D01*
D02*
G37*
G36*
X32874D02*
X30326D01*
X30358Y-113307D01*
X30679Y-114083D01*
X31190Y-114749D01*
X31856Y-115261D01*
X32632Y-115582D01*
X32874Y-115614D01*
Y-113066D01*
D02*
G37*
G36*
X50354Y-109239D02*
X49522Y-109348D01*
X48746Y-109670D01*
X48080Y-110181D01*
X47569Y-110847D01*
X47247Y-111623D01*
X47138Y-112455D01*
X47247Y-113288D01*
X47569Y-114064D01*
X48080Y-114730D01*
X48746Y-115241D01*
X49522Y-115562D01*
X50354Y-115672D01*
X51187Y-115562D01*
X51963Y-115241D01*
X52629Y-114730D01*
X53140Y-114064D01*
X53461Y-113288D01*
X53571Y-112455D01*
X53461Y-111623D01*
X53140Y-110847D01*
X52629Y-110181D01*
X51963Y-109670D01*
X51187Y-109348D01*
X50354Y-109239D01*
D02*
G37*
G36*
Y-117743D02*
X49522Y-117852D01*
X48746Y-118174D01*
X48080Y-118685D01*
X47569Y-119351D01*
X47247Y-120127D01*
X47138Y-120959D01*
X47247Y-121792D01*
X47569Y-122568D01*
X48080Y-123234D01*
X48746Y-123745D01*
X49522Y-124066D01*
X50354Y-124176D01*
X51187Y-124066D01*
X51963Y-123745D01*
X52629Y-123234D01*
X53140Y-122568D01*
X53461Y-121792D01*
X53571Y-120959D01*
X53461Y-120127D01*
X53140Y-119351D01*
X52629Y-118685D01*
X51963Y-118174D01*
X51187Y-117852D01*
X50354Y-117743D01*
D02*
G37*
G36*
X33465Y-117758D02*
X32632Y-117868D01*
X31856Y-118189D01*
X31190Y-118701D01*
X30679Y-119367D01*
X30358Y-120142D01*
X30248Y-120975D01*
X30358Y-121807D01*
X30679Y-122583D01*
X31190Y-123249D01*
X31856Y-123760D01*
X32632Y-124082D01*
X33465Y-124191D01*
X34297Y-124082D01*
X35073Y-123760D01*
X35739Y-123249D01*
X36250Y-122583D01*
X36571Y-121807D01*
X36681Y-120975D01*
X36571Y-120142D01*
X36250Y-119367D01*
X35739Y-118701D01*
X35073Y-118189D01*
X34297Y-117868D01*
X33465Y-117758D01*
D02*
G37*
G36*
X50354Y-126247D02*
X49522Y-126356D01*
X48746Y-126678D01*
X48080Y-127189D01*
X47569Y-127855D01*
X47247Y-128631D01*
X47138Y-129463D01*
X47247Y-130296D01*
X47569Y-131071D01*
X48080Y-131737D01*
X48746Y-132249D01*
X49522Y-132570D01*
X50354Y-132680D01*
X51187Y-132570D01*
X51963Y-132249D01*
X52629Y-131737D01*
X53140Y-131071D01*
X53461Y-130296D01*
X53571Y-129463D01*
X53461Y-128631D01*
X53140Y-127855D01*
X52629Y-127189D01*
X51963Y-126678D01*
X51187Y-126356D01*
X50354Y-126247D01*
D02*
G37*
G36*
X33465Y-126258D02*
X32632Y-126368D01*
X31856Y-126689D01*
X31190Y-127200D01*
X30679Y-127867D01*
X30358Y-128642D01*
X30248Y-129475D01*
X30358Y-130307D01*
X30679Y-131083D01*
X31190Y-131749D01*
X31856Y-132261D01*
X32632Y-132582D01*
X33465Y-132691D01*
X34297Y-132582D01*
X35073Y-132261D01*
X35739Y-131749D01*
X36250Y-131083D01*
X36571Y-130307D01*
X36681Y-129475D01*
X36571Y-128642D01*
X36250Y-127867D01*
X35739Y-127200D01*
X35073Y-126689D01*
X34297Y-126368D01*
X33465Y-126258D01*
D02*
G37*
G36*
X170524Y-140279D02*
X169817Y-140420D01*
X169218Y-140820D01*
X169115Y-140974D01*
X141566D01*
X141463Y-140820D01*
X140864Y-140420D01*
X140157Y-140279D01*
X139451Y-140420D01*
X138852Y-140820D01*
X138452Y-141419D01*
X138311Y-142126D01*
X138452Y-142833D01*
X138852Y-143432D01*
X139451Y-143832D01*
X140157Y-143973D01*
X140864Y-143832D01*
X141463Y-143432D01*
X141566Y-143278D01*
X169115D01*
X169218Y-143432D01*
X169817Y-143832D01*
X170524Y-143973D01*
X171230Y-143832D01*
X171829Y-143432D01*
X172230Y-142833D01*
X172370Y-142126D01*
X172230Y-141419D01*
X171829Y-140820D01*
X171230Y-140420D01*
X170524Y-140279D01*
D02*
G37*
G36*
X33465Y-134758D02*
X32632Y-134868D01*
X31856Y-135189D01*
X31190Y-135701D01*
X30679Y-136367D01*
X30358Y-137142D01*
X30248Y-137975D01*
X30358Y-138807D01*
X30679Y-139583D01*
X31190Y-140249D01*
X31856Y-140761D01*
X32632Y-141082D01*
X33465Y-141191D01*
X34297Y-141082D01*
X35073Y-140761D01*
X35739Y-140249D01*
X36250Y-139583D01*
X36571Y-138807D01*
X36681Y-137975D01*
X36571Y-137142D01*
X36250Y-136367D01*
X35739Y-135701D01*
X35073Y-135189D01*
X34297Y-134868D01*
X33465Y-134758D01*
D02*
G37*
G36*
X191732Y-63592D02*
X191054Y-63681D01*
X190422Y-63943D01*
X189879Y-64359D01*
X189463Y-64902D01*
X189201Y-65534D01*
X189111Y-66213D01*
X189201Y-66891D01*
X189463Y-67523D01*
X189879Y-68066D01*
X190086Y-68225D01*
Y-113196D01*
X170020Y-133262D01*
X133990D01*
X133360Y-133388D01*
X132826Y-133744D01*
X131120Y-135450D01*
X130763Y-135984D01*
X130638Y-136614D01*
Y-137358D01*
X130430Y-137517D01*
X130014Y-138060D01*
X129752Y-138692D01*
X129663Y-139370D01*
X129752Y-140048D01*
X130014Y-140681D01*
X130430Y-141223D01*
X130973Y-141640D01*
X131605Y-141902D01*
X132283Y-141991D01*
X132962Y-141902D01*
X133594Y-141640D01*
X134137Y-141223D01*
X134553Y-140681D01*
X134815Y-140048D01*
X134904Y-139370D01*
X134815Y-138692D01*
X134553Y-138060D01*
X134137Y-137517D01*
X134251Y-136974D01*
X134671Y-136554D01*
X170702D01*
X171332Y-136429D01*
X171866Y-136072D01*
X192896Y-115042D01*
X193253Y-114508D01*
X193378Y-113878D01*
Y-68225D01*
X193586Y-68066D01*
X194002Y-67523D01*
X194264Y-66891D01*
X194353Y-66213D01*
X194264Y-65534D01*
X194002Y-64902D01*
X193586Y-64359D01*
X193043Y-63943D01*
X192411Y-63681D01*
X191732Y-63592D01*
D02*
G37*
G36*
X50354Y-143255D02*
X49522Y-143364D01*
X48746Y-143685D01*
X48080Y-144197D01*
X47569Y-144863D01*
X47247Y-145639D01*
X47138Y-146471D01*
X47247Y-147304D01*
X47569Y-148079D01*
X48080Y-148746D01*
X48746Y-149257D01*
X49522Y-149578D01*
X50354Y-149688D01*
X51187Y-149578D01*
X51963Y-149257D01*
X52629Y-148746D01*
X53140Y-148079D01*
X53461Y-147304D01*
X53571Y-146471D01*
X53461Y-145639D01*
X53140Y-144863D01*
X52629Y-144197D01*
X51963Y-143685D01*
X51187Y-143364D01*
X50354Y-143255D01*
D02*
G37*
G36*
X33465Y-143258D02*
X32632Y-143368D01*
X31856Y-143689D01*
X31190Y-144201D01*
X30679Y-144867D01*
X30358Y-145642D01*
X30248Y-146475D01*
X30358Y-147307D01*
X30679Y-148083D01*
X31190Y-148749D01*
X31856Y-149260D01*
X32632Y-149582D01*
X33465Y-149691D01*
X34297Y-149582D01*
X35073Y-149260D01*
X35739Y-148749D01*
X36250Y-148083D01*
X36571Y-147307D01*
X36681Y-146475D01*
X36571Y-145642D01*
X36250Y-144867D01*
X35739Y-144201D01*
X35073Y-143689D01*
X34297Y-143368D01*
X33465Y-143258D01*
D02*
G37*
G36*
X202559Y-151732D02*
X200551D01*
Y-153740D01*
X202559D01*
Y-151732D01*
D02*
G37*
G36*
X199370D02*
X197362D01*
Y-153740D01*
X199370D01*
Y-151732D01*
D02*
G37*
G36*
X187598D02*
X185591D01*
Y-153740D01*
X187598D01*
Y-151732D01*
D02*
G37*
G36*
X184409D02*
X182402D01*
Y-153740D01*
X184409D01*
Y-151732D01*
D02*
G37*
G36*
X202559Y-154921D02*
X200551D01*
Y-156929D01*
X202559D01*
Y-154921D01*
D02*
G37*
G36*
X199370D02*
X197362D01*
Y-156929D01*
X199370D01*
Y-154921D01*
D02*
G37*
G36*
X187598Y-154921D02*
X185591D01*
Y-156929D01*
X187598D01*
Y-154921D01*
D02*
G37*
G36*
X184409D02*
X182402D01*
Y-156929D01*
X184409D01*
Y-154921D01*
D02*
G37*
G36*
X33465Y-151758D02*
X32632Y-151868D01*
X31856Y-152189D01*
X31190Y-152700D01*
X30679Y-153367D01*
X30358Y-154142D01*
X30248Y-154975D01*
X30358Y-155807D01*
X30679Y-156583D01*
X31190Y-157249D01*
X31856Y-157761D01*
X32632Y-158082D01*
X33465Y-158191D01*
X34297Y-158082D01*
X35073Y-157761D01*
X35739Y-157249D01*
X36250Y-156583D01*
X36571Y-155807D01*
X36681Y-154975D01*
X36571Y-154142D01*
X36250Y-153367D01*
X35739Y-152700D01*
X35073Y-152189D01*
X34297Y-151868D01*
X33465Y-151758D01*
D02*
G37*
G36*
X108661Y-157216D02*
X108108Y-157326D01*
X107639Y-157639D01*
X107326Y-158108D01*
X107216Y-158661D01*
X107326Y-159214D01*
X107639Y-159683D01*
X107640Y-159683D01*
X108108Y-159996D01*
X108661Y-160106D01*
X109214Y-159996D01*
X109683Y-159683D01*
X109996Y-159214D01*
X110107Y-158661D01*
X109996Y-158108D01*
X109683Y-157640D01*
X109683Y-157639D01*
X109214Y-157326D01*
X108661Y-157216D01*
D02*
G37*
G36*
X148031Y-159866D02*
X147325Y-160007D01*
X146726Y-160407D01*
X146326Y-161006D01*
X146185Y-161713D01*
X146299Y-162287D01*
X145950Y-162592D01*
X145894Y-162617D01*
X145817Y-162566D01*
X145110Y-162425D01*
X144404Y-162566D01*
X143805Y-162966D01*
X143404Y-163565D01*
X143264Y-164272D01*
X143404Y-164978D01*
X143805Y-165577D01*
X144404Y-165978D01*
X145110Y-166118D01*
X145451Y-166560D01*
X145398Y-166831D01*
X145535Y-167519D01*
X145470Y-167620D01*
X145207Y-167943D01*
X144685Y-167839D01*
X143978Y-167979D01*
X143379Y-168379D01*
X142979Y-168978D01*
X142839Y-169685D01*
X142979Y-170392D01*
X143379Y-170991D01*
X143978Y-171391D01*
X144685Y-171531D01*
X144983Y-171472D01*
X145408Y-171898D01*
X145398Y-171949D01*
X145465Y-172286D01*
X145394Y-172396D01*
X145031Y-172671D01*
X144488Y-172563D01*
X143782Y-172704D01*
X143183Y-173104D01*
X142782Y-173703D01*
X142642Y-174409D01*
X142782Y-175116D01*
X143183Y-175715D01*
X143782Y-176115D01*
X144488Y-176256D01*
X145195Y-176115D01*
X145321Y-176031D01*
X145681Y-176392D01*
X145636Y-176459D01*
X145496Y-177165D01*
X145636Y-177872D01*
X146037Y-178471D01*
X146636Y-178871D01*
X147342Y-179012D01*
X148049Y-178871D01*
X148648Y-178471D01*
X148751Y-178317D01*
X164733D01*
X164836Y-178471D01*
X165435Y-178871D01*
X166142Y-179012D01*
X166848Y-178871D01*
X167447Y-178471D01*
X167848Y-177872D01*
X167988Y-177165D01*
X167848Y-176459D01*
X167582Y-176061D01*
X167833Y-175561D01*
X171987D01*
X172226Y-175722D01*
X172933Y-175862D01*
X173640Y-175722D01*
X174239Y-175321D01*
X174639Y-174722D01*
X174779Y-174016D01*
X174639Y-173309D01*
X174239Y-172710D01*
X173640Y-172310D01*
X172933Y-172169D01*
X172759Y-172204D01*
X172268Y-171792D01*
X172256Y-171731D01*
X172430Y-171258D01*
X172620Y-171195D01*
X172881Y-171143D01*
X172967Y-171086D01*
X173228Y-171137D01*
X173935Y-170997D01*
X174534Y-170597D01*
X174934Y-169998D01*
X175075Y-169291D01*
X174934Y-168584D01*
X174534Y-167985D01*
X173935Y-167585D01*
X173228Y-167445D01*
X172705Y-167548D01*
X172320Y-167244D01*
X172272Y-167164D01*
X172319Y-166929D01*
X172272Y-166694D01*
X172320Y-166613D01*
X172705Y-166309D01*
X173228Y-166413D01*
X173935Y-166273D01*
X174534Y-165873D01*
X174934Y-165274D01*
X175075Y-164567D01*
X174934Y-163860D01*
X174534Y-163261D01*
X173935Y-162861D01*
X173228Y-162720D01*
X172993Y-162767D01*
X172912Y-162719D01*
X172609Y-162334D01*
X172713Y-161811D01*
X172572Y-161104D01*
X172172Y-160505D01*
X171573Y-160105D01*
X170866Y-159965D01*
X170159Y-160105D01*
X169561Y-160505D01*
X169458Y-160659D01*
X149506D01*
X149337Y-160407D01*
X148738Y-160007D01*
X148031Y-159866D01*
D02*
G37*
G36*
X105512Y-159965D02*
X104805Y-160105D01*
X104206Y-160505D01*
X104104Y-160659D01*
X99213D01*
X98772Y-160747D01*
X98398Y-160996D01*
X90918Y-168477D01*
X90668Y-168851D01*
X90580Y-169291D01*
Y-176544D01*
X90427Y-176647D01*
X90026Y-177246D01*
X89886Y-177953D01*
X90026Y-178659D01*
X90427Y-179258D01*
X91026Y-179659D01*
X91732Y-179799D01*
X92439Y-179659D01*
X93038Y-179258D01*
X93438Y-178659D01*
X93579Y-177953D01*
X93438Y-177246D01*
X93038Y-176647D01*
X92884Y-176544D01*
Y-169769D01*
X99690Y-162963D01*
X104104D01*
X104206Y-163117D01*
X104805Y-163517D01*
X105512Y-163657D01*
X106218Y-163517D01*
X106536Y-163305D01*
X106782Y-163457D01*
X106941Y-163635D01*
X106815Y-164272D01*
X106851Y-164453D01*
X103516Y-167788D01*
X103266Y-168161D01*
X103179Y-168602D01*
Y-172214D01*
X103025Y-172316D01*
X102625Y-172915D01*
X102484Y-173622D01*
X102625Y-174329D01*
X103025Y-174928D01*
X103624Y-175328D01*
X104331Y-175469D01*
X105037Y-175328D01*
X105636Y-174928D01*
X106037Y-174329D01*
X106177Y-173622D01*
X106037Y-172915D01*
X105636Y-172316D01*
X105483Y-172214D01*
Y-169079D01*
X108480Y-166082D01*
X108661Y-166118D01*
X109368Y-165978D01*
X109967Y-165577D01*
X110367Y-164978D01*
X110508Y-164272D01*
X110367Y-163565D01*
X109967Y-162966D01*
X109368Y-162566D01*
X108661Y-162425D01*
X107955Y-162566D01*
X107637Y-162778D01*
X107392Y-162626D01*
X107232Y-162448D01*
X107358Y-161811D01*
X107218Y-161104D01*
X106817Y-160505D01*
X106218Y-160105D01*
X105512Y-159965D01*
D02*
G37*
G36*
X202953Y-167087D02*
X200945D01*
Y-169095D01*
X202953D01*
Y-167087D01*
D02*
G37*
G36*
X199764D02*
X197756D01*
Y-169095D01*
X199764D01*
Y-167087D01*
D02*
G37*
G36*
X187598D02*
X185591D01*
Y-169095D01*
X187598D01*
Y-167087D01*
D02*
G37*
G36*
X184409D02*
X182402D01*
Y-169095D01*
X184409D01*
Y-167087D01*
D02*
G37*
G36*
X202953Y-170276D02*
X200945D01*
Y-172283D01*
X202953D01*
Y-170276D01*
D02*
G37*
G36*
X199764D02*
X197756D01*
Y-172283D01*
X199764D01*
Y-170276D01*
D02*
G37*
G36*
X187598Y-170276D02*
X185591D01*
Y-172283D01*
X187598D01*
Y-170276D01*
D02*
G37*
G36*
X184409D02*
X182402D01*
Y-172283D01*
X184409D01*
Y-170276D01*
D02*
G37*
G36*
X50354Y-134751D02*
X49522Y-134860D01*
X48746Y-135181D01*
X48080Y-135693D01*
X47569Y-136359D01*
X47247Y-137135D01*
X47138Y-137967D01*
X47247Y-138800D01*
X47569Y-139575D01*
X48080Y-140242D01*
X48746Y-140753D01*
X49522Y-141074D01*
X50354Y-141184D01*
X51187Y-141074D01*
X51643Y-140885D01*
X54360Y-143602D01*
Y-151741D01*
X54206Y-151844D01*
X54043Y-152087D01*
X53543Y-151936D01*
Y-151786D01*
X47165D01*
Y-158164D01*
X53543D01*
Y-154363D01*
X54043Y-154212D01*
X54206Y-154455D01*
X54805Y-154856D01*
X55512Y-154996D01*
X56218Y-154856D01*
X56818Y-154455D01*
X57218Y-153856D01*
X57358Y-153150D01*
X57218Y-152443D01*
X56818Y-151844D01*
X56664Y-151741D01*
Y-143124D01*
X56576Y-142684D01*
X56326Y-142310D01*
X53449Y-139432D01*
X53480Y-139106D01*
X53530Y-138990D01*
X54039Y-138859D01*
X54412Y-139108D01*
X55118Y-139248D01*
X55299Y-139212D01*
X57903Y-141816D01*
Y-177869D01*
X55693Y-180079D01*
X55512Y-180043D01*
X54805Y-180184D01*
X54206Y-180584D01*
X53806Y-181183D01*
X53665Y-181890D01*
X53806Y-182596D01*
X54206Y-183195D01*
X54805Y-183596D01*
X55512Y-183736D01*
X56218Y-183596D01*
X56818Y-183195D01*
X57218Y-182596D01*
X57358Y-181890D01*
X57322Y-181709D01*
X59870Y-179161D01*
X60119Y-178787D01*
X60207Y-178347D01*
Y-141339D01*
X60119Y-140898D01*
X59870Y-140524D01*
X56929Y-137583D01*
X56965Y-137402D01*
X56824Y-136695D01*
X56424Y-136096D01*
X55825Y-135696D01*
X55118Y-135555D01*
X54412Y-135696D01*
X53812Y-136096D01*
X53664Y-136318D01*
X53393Y-136339D01*
X53084Y-136286D01*
X52629Y-135693D01*
X51963Y-135181D01*
X51187Y-134860D01*
X50354Y-134751D01*
D02*
G37*
G36*
X229921Y-157245D02*
X229831D01*
X229153Y-157335D01*
X228521Y-157596D01*
X227978Y-158013D01*
X209925Y-176066D01*
X209508Y-176609D01*
X209246Y-177241D01*
X209157Y-177919D01*
X209246Y-178598D01*
X209508Y-179230D01*
X209925Y-179773D01*
X210467Y-180189D01*
X211099Y-180451D01*
X211778Y-180540D01*
X212456Y-180451D01*
X213088Y-180189D01*
X213631Y-179773D01*
X231387Y-162016D01*
X231774Y-161719D01*
X232191Y-161177D01*
X232453Y-160544D01*
X232542Y-159866D01*
X232453Y-159188D01*
X232191Y-158556D01*
X231774Y-158013D01*
X231232Y-157596D01*
X230600Y-157335D01*
X229921Y-157245D01*
D02*
G37*
G36*
X49984Y-192219D02*
X42445D01*
Y-199758D01*
X49984D01*
Y-192219D01*
D02*
G37*
G36*
X41264D02*
X33724D01*
Y-199758D01*
X41264D01*
Y-192219D01*
D02*
G37*
G36*
X49984Y-200939D02*
X42445D01*
Y-208479D01*
X49984D01*
Y-200939D01*
D02*
G37*
G36*
X41264D02*
X33724D01*
Y-208479D01*
X41264D01*
Y-200939D01*
D02*
G37*
%LPD*%
G36*
X138454Y-80012D02*
Y-91398D01*
X138542Y-91839D01*
X138792Y-92213D01*
X150201Y-103622D01*
X150574Y-103872D01*
X151015Y-103959D01*
X155807D01*
X156120Y-104385D01*
X156055Y-104798D01*
X155905Y-104868D01*
X155553Y-104938D01*
X155037Y-104593D01*
X154330Y-104453D01*
X153624Y-104593D01*
X153025Y-104993D01*
X152922Y-105147D01*
X134348D01*
X133982Y-104600D01*
X133383Y-104200D01*
X132677Y-104059D01*
X131970Y-104200D01*
X131371Y-104600D01*
X130971Y-105199D01*
X130969Y-105207D01*
X130449Y-105258D01*
X130419Y-105185D01*
X130003Y-104643D01*
X129796Y-104484D01*
Y-100249D01*
X130389Y-99655D01*
X130850Y-99901D01*
X130830Y-100000D01*
X130971Y-100706D01*
X131371Y-101305D01*
X131970Y-101706D01*
X132677Y-101846D01*
X133384Y-101706D01*
X133983Y-101305D01*
X134383Y-100706D01*
X134523Y-100000D01*
X134383Y-99293D01*
X133983Y-98694D01*
X133384Y-98294D01*
X132677Y-98153D01*
X132578Y-98173D01*
X132332Y-97712D01*
X136990Y-93054D01*
X137347Y-92520D01*
X137473Y-91890D01*
Y-80359D01*
X137680Y-80200D01*
X137954Y-79842D01*
X138454Y-80012D01*
D02*
G37*
D10*
X217322Y-97638D02*
X217716Y-98032D01*
D13*
X68103Y-125984D02*
X69685Y-124402D01*
X65552Y-125984D02*
X68103D01*
X108661Y-158661D02*
X108661Y-158661D01*
X108267Y-82283D02*
X108661Y-82677D01*
D66*
X148031Y-27653D02*
X148083Y-27705D01*
X143008Y-92495D02*
Y-79190D01*
X142598Y-78780D02*
X143008Y-79190D01*
X139606Y-91398D02*
X151015Y-102807D01*
X139606Y-91398D02*
Y-78173D01*
X143008Y-92495D02*
X151690Y-101177D01*
X159506D01*
X151015Y-102807D02*
X158831D01*
X132283Y-106299D02*
X154330D01*
X109398Y-109594D02*
X154303D01*
X106299Y-106496D02*
X109398Y-109594D01*
X154303D02*
X156641Y-107256D01*
X91732Y-177953D02*
Y-169291D01*
X99213Y-161811D02*
X105512D01*
X91732Y-169291D02*
X99213Y-161811D01*
X156641Y-106351D02*
X157874Y-105118D01*
X163784Y-128339D02*
Y-105454D01*
X162153Y-126035D02*
Y-106129D01*
X158831Y-102807D02*
X162153Y-106129D01*
X159506Y-101177D02*
X163784Y-105454D01*
X156641Y-107256D02*
Y-106351D01*
X180709Y-22835D02*
Y-14173D01*
Y-22835D02*
X182677Y-24803D01*
X155118Y-112598D02*
X159843Y-107874D01*
X160846Y-127342D02*
X162153Y-126035D01*
X163779Y-128343D02*
X163784Y-128339D01*
X155118Y-116142D02*
Y-112598D01*
X55630Y-61535D02*
X64228Y-70134D01*
Y-90203D02*
Y-70134D01*
X61417Y-93014D02*
X64228Y-90203D01*
X61417Y-109843D02*
Y-93014D01*
Y-122047D02*
X61417Y-122047D01*
X61417Y-128740D02*
Y-122047D01*
X140157Y-142126D02*
X170524D01*
X55512Y-181890D02*
X59055Y-178347D01*
Y-141339D01*
X55118Y-137402D02*
X59055Y-141339D01*
X50354Y-137967D02*
X55512Y-143124D01*
Y-153150D02*
Y-143124D01*
X132283Y-106299D02*
X132677Y-105905D01*
X148031Y-27653D02*
Y-16142D01*
X147980Y-27807D02*
X148083Y-27705D01*
X145669Y-11023D02*
X148083Y-8610D01*
X145669Y-25197D02*
Y-11023D01*
X160846Y-129641D02*
Y-127342D01*
X166142Y-177165D02*
X166142Y-177165D01*
X147342Y-177165D02*
X166142D01*
X144488Y-174409D02*
X172539D01*
X172933Y-174016D01*
Y-164272D02*
X173228Y-164567D01*
X148130Y-161811D02*
X170866D01*
X170374Y-171949D02*
X170472Y-172047D01*
X172440Y-170079D02*
X173228Y-169291D01*
X171772Y-170079D02*
X172440D01*
X171430Y-169736D02*
X171772Y-170079D01*
X169515Y-169736D02*
X171430D01*
X169173Y-170079D02*
X169515Y-169736D01*
X148642Y-170079D02*
X169173D01*
X147244Y-171949D02*
X170374D01*
X146287Y-169638D02*
X148201D01*
X145846Y-170079D02*
X146287Y-169638D01*
X148201D02*
X148642Y-170079D01*
X145079D02*
X145846D01*
X144685Y-169685D02*
X145079Y-170079D01*
X147342Y-166929D02*
X170472D01*
X147244Y-166831D02*
X147342Y-166929D01*
X145110Y-164272D02*
X172933D01*
X148031Y-161713D02*
X148130Y-161811D01*
X104331Y-173622D02*
Y-168602D01*
X108661Y-164272D01*
X50354Y-69936D02*
X57731D01*
X62598Y-74803D01*
Y-89527D02*
Y-74803D01*
X56299Y-95827D02*
X62598Y-89527D01*
X55905Y-95827D02*
X56299D01*
X43701Y-97298D02*
X50354Y-103951D01*
X43701Y-97298D02*
Y-77953D01*
X46903Y-74751D01*
X51882D01*
X52959Y-75827D01*
X55905D01*
X50354Y-95447D02*
X55512Y-90290D01*
Y-81890D01*
X56575Y-80827D01*
X118898Y-105512D02*
X131102Y-93307D01*
Y-79528D01*
X121752Y-97539D02*
Y-85138D01*
X99606Y-93307D02*
X106299D01*
X92126Y-85827D02*
X99606Y-93307D01*
X118504Y-100787D02*
X121752Y-97539D01*
X92520Y-100787D02*
X118504D01*
D67*
X135827Y-91890D02*
Y-78347D01*
X128150Y-99567D02*
X135827Y-91890D01*
X186894Y-61925D02*
Y-57016D01*
X185236Y-63583D02*
X186894Y-61925D01*
X191732Y-113878D02*
Y-66213D01*
X135827Y-63583D02*
X185236D01*
X132283Y-136614D02*
X133990Y-134908D01*
X170702D01*
X191732Y-113878D01*
X132283Y-139370D02*
Y-136614D01*
X128150Y-106496D02*
Y-99567D01*
D68*
X85411Y-118110D02*
Y-106353D01*
X86551Y-105213D01*
X84646Y-103307D02*
X86551Y-105213D01*
X84646Y-103307D02*
X92126Y-95827D01*
X77205Y-103110D02*
X89488Y-90827D01*
X77205Y-109449D02*
Y-103110D01*
X119291Y-94095D02*
Y-87697D01*
X92126Y-95827D02*
X117559D01*
X119291Y-94095D01*
D69*
X229831Y-159866D02*
X229921D01*
X211778Y-177919D02*
X229831Y-159866D01*
X69685Y-193701D02*
X70079Y-194095D01*
X69685Y-193701D02*
Y-189530D01*
X71102Y-188112D01*
Y-184329D01*
X69685Y-182912D02*
X71102Y-184329D01*
X69685Y-182912D02*
Y-124402D01*
Y-103850D02*
Y-73228D01*
Y-103850D02*
X71817Y-105982D01*
Y-109766D02*
Y-105982D01*
X69685Y-111898D02*
X71817Y-109766D01*
X69685Y-124402D02*
Y-111898D01*
Y-73228D02*
X94095Y-48819D01*
X69685Y-124402D02*
X77567Y-132283D01*
X117323Y-43701D02*
X131544D01*
X110236D02*
X117323D01*
X112205Y-48819D02*
X117323Y-43701D01*
X94095Y-48819D02*
X112205D01*
X77567Y-132283D02*
X90945D01*
X131544Y-43701D02*
X136366Y-48524D01*
X147539D01*
X166535Y-29528D01*
X202362D01*
D70*
X74579Y-21654D02*
D03*
X90551D02*
D03*
D71*
X199961Y-154331D02*
D03*
X185000D02*
D03*
Y-169685D02*
D03*
X200354D02*
D03*
D72*
X41854Y-200349D02*
D03*
Y-16097D02*
D03*
D73*
X33465Y-61475D02*
D03*
Y-69936D02*
D03*
Y-78439D02*
D03*
Y-86975D02*
D03*
Y-95475D02*
D03*
Y-103975D02*
D03*
Y-112475D02*
D03*
Y-120975D02*
D03*
Y-129475D02*
D03*
Y-137975D02*
D03*
Y-146475D02*
D03*
Y-154975D02*
D03*
X50354Y-61432D02*
D03*
Y-69936D02*
D03*
Y-78439D02*
D03*
Y-86944D02*
D03*
Y-95447D02*
D03*
Y-103951D02*
D03*
Y-112455D02*
D03*
Y-120959D02*
D03*
Y-129463D02*
D03*
Y-137967D02*
D03*
Y-146471D02*
D03*
D74*
Y-154975D02*
D03*
D75*
X168307Y-59055D02*
D03*
D76*
X158465D02*
D03*
Y-51181D02*
D03*
X168307D02*
D03*
D77*
X139685Y-40512D02*
D03*
X187087D02*
D03*
D78*
X158465Y-81693D02*
D03*
D79*
X135827Y-78347D02*
D03*
X80413Y-113307D02*
D03*
X65552Y-125984D02*
D03*
X186894Y-57016D02*
D03*
X191732Y-66213D02*
D03*
X229921Y-159866D02*
D03*
X211778Y-177919D02*
D03*
X248819Y-175984D02*
D03*
X248326Y-182677D02*
D03*
X135827Y-63583D02*
D03*
X137008Y-122982D02*
D03*
X132283Y-139370D02*
D03*
X124016Y-119685D02*
D03*
X70079Y-194095D02*
D03*
X90945Y-132283D02*
D03*
X110236Y-43701D02*
D03*
X120079Y-60236D02*
D03*
X120472Y-51575D02*
D03*
X202362Y-29528D02*
D03*
X166279Y-15354D02*
D03*
X162077Y-17982D02*
D03*
X108661Y-158661D02*
D03*
X128150Y-106496D02*
D03*
X108267Y-82283D02*
D03*
X80709Y-125591D02*
D03*
X67251Y-107874D02*
D03*
X66535Y-186221D02*
D03*
X120472Y-137008D02*
D03*
Y-130315D02*
D03*
X130315Y-123032D02*
D03*
X106693Y-117716D02*
D03*
X95612Y-118110D02*
D03*
X72047Y-45276D02*
D03*
X103150Y-41339D02*
D03*
X130315Y-21260D02*
D03*
X138189Y-21654D02*
D03*
X181890Y-10236D02*
D03*
X199370Y-13189D02*
D03*
X235138Y-7972D02*
D03*
X238189Y-55118D02*
D03*
X209449Y-47244D02*
D03*
Y-41339D02*
D03*
X175736Y-102953D02*
D03*
X174016Y-85679D02*
D03*
X197244Y-79134D02*
D03*
X210329Y-78439D02*
D03*
X223125D02*
D03*
X235039Y-79134D02*
D03*
X244094Y-97638D02*
D03*
X219882Y-102953D02*
D03*
X217322Y-97638D02*
D03*
X211024Y-120866D02*
D03*
X238189Y-141732D02*
D03*
X248819Y-169291D02*
D03*
X216535Y-185039D02*
D03*
X161024Y-185433D02*
D03*
X136762Y-200541D02*
D03*
X127904Y-200837D02*
D03*
X118780Y-200620D02*
D03*
X110187Y-200738D02*
D03*
D80*
X142598Y-78780D02*
D03*
X139606Y-78173D02*
D03*
X85411Y-118110D02*
D03*
X105512Y-161811D02*
D03*
X157874Y-105118D02*
D03*
X106299Y-106496D02*
D03*
X180709Y-14173D02*
D03*
X182677Y-24803D02*
D03*
X159843Y-107874D02*
D03*
X55630Y-61535D02*
D03*
X61417Y-109843D02*
D03*
X61417Y-122047D02*
D03*
X61417Y-128740D02*
D03*
X140157Y-142126D02*
D03*
X170524D02*
D03*
X55512Y-181890D02*
D03*
X55118Y-137402D02*
D03*
X89488Y-90827D02*
D03*
X77205Y-109449D02*
D03*
X55512Y-153150D02*
D03*
X132677Y-100000D02*
D03*
X132677Y-105905D02*
D03*
X148031Y-16142D02*
D03*
X147980Y-27807D02*
D03*
X148083Y-8610D02*
D03*
X145669Y-25197D02*
D03*
X160846Y-129641D02*
D03*
X163779Y-128343D02*
D03*
X166142Y-177165D02*
D03*
X147342Y-177165D02*
D03*
X154330Y-106299D02*
D03*
X155118Y-116142D02*
D03*
X144488Y-174409D02*
D03*
X172933Y-174016D02*
D03*
X173228Y-164567D02*
D03*
X170866Y-161811D02*
D03*
X170472Y-172047D02*
D03*
X173228Y-169291D02*
D03*
X147244Y-171949D02*
D03*
X144685Y-169685D02*
D03*
X170472Y-166929D02*
D03*
X147244Y-166831D02*
D03*
X145110Y-164272D02*
D03*
X148031Y-161713D02*
D03*
X104331Y-173622D02*
D03*
X108661Y-164272D02*
D03*
X91732Y-177953D02*
D03*
X55905Y-95827D02*
D03*
Y-75827D02*
D03*
X56575Y-80827D02*
D03*
X131102Y-79528D02*
D03*
X121752Y-85138D02*
D03*
X119291Y-87697D02*
D03*
X118898Y-105512D02*
D03*
X106299Y-93307D02*
D03*
X92126Y-85827D02*
D03*
Y-95827D02*
D03*
X92520Y-100787D02*
D03*
M02*
