M72
M48
T1F00S00C0.0280
T2F00S00C0.0320
T3F00S00C0.0350
T4F00S00C0.0360
T5F00S00C0.0920
T6F00S00C0.1000
T7F00S00C0.1250
%
T01
X32505Y0363
Y0373
Y0383
X32755Y03775
X3267Y03975
X3262Y0422
X3252
Y0432
X3262
Y0442
X3252
X323Y04175
X32195Y04125
X3287Y03715
X33375Y04025
X33005Y04475
X3304Y0468
X3314Y04685
X3294
X34265Y04335
Y0425
X34305Y0476
Y04845
Y05015
Y051
X3335Y05
X32389Y05025
X324Y0527
X3231
X3226Y05465
X3235Y05635
X3253Y05725
X3175Y053
X3075
Y052
X3098Y0505
Y0495
T02
X3364Y036
Y037
Y038
Y039
Y04
Y041
Y042
Y043
Y044
Y045
X3394
Y044
Y043
Y042
Y041
Y04
Y039
Y038
Y037
Y036
Y047
Y048
Y049
Y05
Y051
Y052
Y053
Y054
Y055
Y056
X3364
Y055
Y054
Y053
Y052
Y051
Y05
Y049
Y048
Y047
T03
X342Y04165
Y0425
Y04335
Y0442
Y04505
Y0459
Y04675
X3437
Y0459
Y04505
Y0442
Y04335
Y0425
Y04165
Y0476
Y04845
Y0493
Y05015
Y051
X342
Y05015
Y0493
Y04845
Y0476
T04
X3057Y053
X3065
Y054
X3057
T05
X30465Y0511
Y0559
T06
X3246Y0466
T07
X34285Y037108
Y055542
M30
