%FSLAX24Y24*%
%MOIN*%
G70*
G01*
G75*
%ADD10C,0.0120*%
%ADD11R,0.0600X0.0600*%
%ADD12R,0.0160X0.0750*%
%ADD13R,0.0750X0.0160*%
%ADD14O,0.0160X0.1000*%
%ADD15O,0.1000X0.0160*%
%ADD16R,0.1300X0.0700*%
%ADD17O,0.0240X0.0800*%
%ADD18R,0.0360X0.0500*%
%ADD19R,0.0360X0.0360*%
%ADD20R,0.1000X0.0800*%
%ADD21R,0.1000X0.0900*%
%ADD22R,0.0315X0.0551*%
%ADD23O,0.0787X0.1496*%
%ADD24R,0.0394X0.0730*%
%ADD25C,0.0280*%
%ADD26C,0.0160*%
%ADD27C,0.0240*%
%ADD28C,0.0140*%
%ADD29C,0.0100*%
%ADD30O,0.0700X0.0600*%
%ADD31C,0.0700*%
%ADD32C,0.2000*%
%ADD33R,0.0700X0.0600*%
%ADD34O,0.0700X0.0850*%
%ADD35C,0.0620*%
%ADD36R,0.0620X0.0620*%
%ADD37R,0.0700X0.0700*%
%ADD38C,0.0800*%
%ADD39C,0.0500*%
%ADD40C,0.0080*%
D29*
X306000Y58100D02*
Y57600D01*
X306100Y57500D01*
X306300D01*
X306400Y57600D01*
Y58100D01*
X307000Y58000D02*
X306900Y58100D01*
X306700D01*
X306600Y58000D01*
Y57900D01*
X306700Y57800D01*
X306900D01*
X307000Y57700D01*
Y57600D01*
X306900Y57500D01*
X306700D01*
X306600Y57600D01*
X307200Y58100D02*
Y57500D01*
X307500D01*
X307599Y57600D01*
Y57700D01*
X307500Y57800D01*
X307200D01*
X307500D01*
X307599Y57900D01*
Y58000D01*
X307500Y58100D01*
X307200D01*
X308699Y57500D02*
X308399Y57800D01*
X308699Y58100D01*
X308999Y57800D02*
X309399D01*
X309599Y57500D02*
X309899Y57800D01*
X309599Y58100D01*
X311098Y58000D02*
X310998Y58100D01*
X310798D01*
X310698Y58000D01*
Y57600D01*
X310798Y57500D01*
X310998D01*
X311098Y57600D01*
Y57800D01*
X310898D01*
X311298Y57500D02*
Y58100D01*
X311598D01*
X311698Y58000D01*
Y57800D01*
X311598Y57700D01*
X311298D01*
X311898Y58100D02*
X312098D01*
X311998D01*
Y57500D01*
X311898D01*
X312098D01*
X312398Y58100D02*
Y57500D01*
X312698D01*
X312798Y57600D01*
Y57700D01*
X312698Y57800D01*
X312398D01*
X312698D01*
X312798Y57900D01*
Y58000D01*
X312698Y58100D01*
X312398D01*
D40*
X323650Y44800D02*
X323783D01*
X323717D01*
Y45200D01*
X323650Y45133D01*
X310000Y55400D02*
Y55200D01*
X310100Y55100D01*
X310200Y55200D01*
Y55400D01*
X310300D02*
Y55100D01*
X310450D01*
X310500Y55150D01*
Y55200D01*
X310450Y55250D01*
X310300D01*
X310450D01*
X310500Y55300D01*
Y55350D01*
X310450Y55400D01*
X310300D01*
X310600D02*
Y55150D01*
X310650Y55100D01*
X310750D01*
X310800Y55150D01*
Y55400D01*
X311100Y55350D02*
X311050Y55400D01*
X310950D01*
X310900Y55350D01*
Y55300D01*
X310950Y55250D01*
X311050D01*
X311100Y55200D01*
Y55150D01*
X311050Y55100D01*
X310950D01*
X310900Y55150D01*
X306000Y49500D02*
Y49900D01*
X306200D01*
X306267Y49833D01*
Y49700D01*
X306200Y49633D01*
X306000D01*
X306400Y49900D02*
Y49500D01*
X306533Y49633D01*
X306666Y49500D01*
Y49900D01*
X306800Y49500D02*
Y49900D01*
X307000D01*
X307066Y49833D01*
Y49700D01*
X307000Y49633D01*
X306800D01*
X306933D02*
X307066Y49500D01*
X307599Y49900D02*
Y49500D01*
X307866D01*
X308266Y49900D02*
X307999D01*
Y49500D01*
X308266D01*
X307999Y49700D02*
X308133D01*
X308399Y49900D02*
Y49500D01*
X308599D01*
X308666Y49567D01*
Y49833D01*
X308599Y49900D01*
X308399D01*
X306000Y57150D02*
Y56750D01*
X306200D01*
X306267Y56817D01*
Y56883D01*
X306200Y56950D01*
X306000D01*
X306200D01*
X306267Y57017D01*
Y57083D01*
X306200Y57150D01*
X306000D01*
X306400Y56750D02*
Y56817D01*
X306467D01*
Y56750D01*
X306400D01*
X307400Y57083D02*
X307333Y57150D01*
X307200D01*
X307133Y57083D01*
Y56817D01*
X307200Y56750D01*
X307333D01*
X307400Y56817D01*
Y56950D01*
X307266D01*
X307533Y56750D02*
X307666D01*
X307599D01*
Y57150D01*
X307533D01*
X307933Y57017D02*
X308066D01*
X308133Y56950D01*
Y56750D01*
X307933D01*
X307866Y56817D01*
X307933Y56883D01*
X308133D01*
X308266Y57017D02*
X308533D01*
X308266Y56750D01*
X308533D01*
X308732Y57017D02*
X308866D01*
X308932Y56950D01*
Y56750D01*
X308732D01*
X308666Y56817D01*
X308732Y56883D01*
X308932D01*
X309066Y57017D02*
Y56750D01*
Y56883D01*
X309132Y56950D01*
X309199Y57017D01*
X309266D01*
X309532Y56683D02*
X309599Y56750D01*
Y56817D01*
X309532D01*
Y56750D01*
X309599D01*
X309532Y56683D01*
X309466Y56617D01*
X310532Y57150D02*
X310265D01*
Y56950D01*
X310399D01*
X310265D01*
Y56750D01*
X310932Y57150D02*
X310665D01*
Y56750D01*
X310932D01*
X310665Y56950D02*
X310798D01*
X311132Y56683D02*
X311198Y56750D01*
Y56817D01*
X311132D01*
Y56750D01*
X311198D01*
X311132Y56683D01*
X311065Y56617D01*
X311865Y57150D02*
Y56750D01*
X312131D01*
X312265D02*
Y57150D01*
X312465D01*
X312531Y57083D01*
Y56950D01*
X312465Y56883D01*
X312265D01*
X312931Y57083D02*
X312864Y57150D01*
X312731D01*
X312665Y57083D01*
Y57017D01*
X312731Y56950D01*
X312864D01*
X312931Y56883D01*
Y56817D01*
X312864Y56750D01*
X312731D01*
X312665Y56817D01*
X313264Y57150D02*
X313131D01*
X313064Y57083D01*
Y56817D01*
X313131Y56750D01*
X313264D01*
X313331Y56817D01*
Y57083D01*
X313264Y57150D01*
X313531Y56683D02*
X313598Y56750D01*
Y56817D01*
X313531D01*
Y56750D01*
X313598D01*
X313531Y56683D01*
X313464Y56617D01*
X314531Y56750D02*
X314264D01*
X314531Y57017D01*
Y57083D01*
X314464Y57150D01*
X314331D01*
X314264Y57083D01*
X314664D02*
X314731Y57150D01*
X314864D01*
X314930Y57083D01*
Y56817D01*
X314864Y56750D01*
X314731D01*
X314664Y56817D01*
Y57083D01*
X315064D02*
X315130Y57150D01*
X315264D01*
X315330Y57083D01*
Y56817D01*
X315264Y56750D01*
X315130D01*
X315064Y56817D01*
Y57083D01*
X315464D02*
X315530Y57150D01*
X315664D01*
X315730Y57083D01*
Y57017D01*
X315664Y56950D01*
X315597D01*
X315664D01*
X315730Y56883D01*
Y56817D01*
X315664Y56750D01*
X315530D01*
X315464Y56817D01*
X316263Y57150D02*
Y56883D01*
X316397Y56750D01*
X316530Y56883D01*
Y57150D01*
X316663Y56750D02*
X316797D01*
X316730D01*
Y57150D01*
X316663Y57083D01*
X316996Y56750D02*
Y56817D01*
X317063D01*
Y56750D01*
X316996D01*
X317330D02*
X317463D01*
X317396D01*
Y57150D01*
X317330Y57083D01*
M02*
