%FSLAX24Y24*%
%MOIN*%
G70*
G01*
G75*
%ADD10C,0.0120*%
%ADD11R,0.0600X0.0600*%
%ADD12R,0.0160X0.0750*%
%ADD13R,0.0750X0.0160*%
%ADD14O,0.0160X0.1000*%
%ADD15O,0.1000X0.0160*%
%ADD16R,0.1300X0.0700*%
%ADD17O,0.0240X0.0800*%
%ADD18R,0.0360X0.0500*%
%ADD19R,0.0360X0.0360*%
%ADD20R,0.1000X0.0800*%
%ADD21R,0.1000X0.0900*%
%ADD22R,0.0315X0.0551*%
%ADD23O,0.0787X0.1496*%
%ADD24R,0.0394X0.0730*%
%ADD25C,0.0280*%
%ADD26C,0.0160*%
%ADD27C,0.0240*%
%ADD28C,0.0140*%
%ADD29C,0.0100*%
%ADD30O,0.0700X0.0600*%
%ADD31C,0.0700*%
%ADD32C,0.2000*%
%ADD33R,0.0700X0.0600*%
%ADD34O,0.0700X0.0850*%
%ADD35C,0.0620*%
%ADD36R,0.0620X0.0620*%
%ADD37R,0.0700X0.0700*%
%ADD38C,0.0800*%
%ADD39C,0.0500*%
D10*
X322582Y41850D02*
X322570Y41754D01*
X322580Y41658D01*
X322611Y41567D01*
X322662Y41484D01*
X322730Y41416D01*
X322811Y41364D01*
X322902Y41331D01*
X322998Y41320D01*
X323094Y41330D01*
X323185Y41362D01*
X323267Y41413D01*
X323336Y41481D01*
X323387Y41563D01*
X323419Y41654D01*
X323430Y41750D01*
X322560Y41950D02*
X322582Y41850D01*
X322560Y41950D02*
X322582Y41850D01*
X323430Y41750D02*
X323417Y41855D01*
X323379Y41953D01*
X323318Y42040D01*
X323238Y42108D01*
X323143Y42155D01*
X323040Y42178D01*
X324030Y42030D02*
X324108Y41978D01*
X324200Y41960D01*
X324030Y42030D02*
X324108Y41978D01*
X324200Y41960D01*
X324874Y37800D02*
X324783Y37758D01*
X324702Y37699D01*
X324633Y37627D01*
X324578Y37542D01*
X324541Y37449D01*
X324522Y37350D01*
Y37250D01*
X324541Y37151D01*
X324578Y37058D01*
X324633Y36973D01*
X324702Y36901D01*
X324783Y36842D01*
X324874Y36800D01*
X324783Y36758D01*
X324701Y36699D01*
X324632Y36626D01*
X324578Y36541D01*
X324541Y36447D01*
X324522Y36348D01*
X324523Y36248D01*
X324542Y36149D01*
X324580Y36056D01*
X324634Y35971D01*
X324704Y35899D01*
X324786Y35840D01*
X324878Y35799D01*
X324976Y35775D01*
X325076Y35771D01*
X325176Y35785D01*
X325271Y35818D01*
X325358Y35869D01*
X325434Y35935D01*
X325496Y36014D01*
X325542Y36103D01*
X325570Y36200D01*
X325580Y36300D01*
Y36300D02*
X325572Y36393D01*
X325547Y36483D01*
X325508Y36567D01*
X325454Y36643D01*
X325387Y36709D01*
X325311Y36761D01*
X325226Y36800D01*
X325311Y36839D01*
X325387Y36891D01*
X325454Y36957D01*
X325508Y37033D01*
X325547Y37117D01*
X325572Y37207D01*
X325580Y37300D01*
X325572Y37393D01*
X325547Y37483D01*
X325508Y37567D01*
X325454Y37643D01*
X325387Y37709D01*
X325311Y37761D01*
X325226Y37800D01*
X325580Y38300D02*
X325570Y38400D01*
X325542Y38497D01*
X325496Y38586D01*
X325434Y38665D01*
X325358Y38731D01*
X325271Y38782D01*
X325176Y38815D01*
X325076Y38829D01*
X324976Y38825D01*
X324878Y38801D01*
X324786Y38760D01*
X324704Y38701D01*
X324634Y38629D01*
X324580Y38544D01*
X324542Y38451D01*
X324523Y38352D01*
X324522Y38252D01*
X324541Y38153D01*
X324578Y38059D01*
X324632Y37974D01*
X324701Y37901D01*
X324783Y37842D01*
X324874Y37800D01*
X325226D02*
X325311Y37839D01*
X325387Y37891D01*
X325454Y37957D01*
X325508Y38033D01*
X325547Y38117D01*
X325572Y38207D01*
X325580Y38300D01*
X324773Y41960D02*
X324830Y41879D01*
X324902Y41811D01*
X324986Y41759D01*
X325079Y41725D01*
X325177Y41711D01*
X325276Y41716D01*
X325371Y41741D01*
X325460Y41785D01*
X325538Y41845D01*
X325602Y41921D01*
X325650Y42007D01*
X325680Y42102D01*
X325690Y42200D01*
Y42200D02*
X325680Y42298D01*
X325650Y42393D01*
X325602Y42479D01*
X325538Y42555D01*
X325460Y42615D01*
X325371Y42659D01*
X325276Y42684D01*
X325177Y42689D01*
X325079Y42675D01*
X324986Y42641D01*
X324902Y42589D01*
X324830Y42521D01*
X324773Y42440D01*
X326690Y42200D02*
X326680Y42299D01*
X326650Y42393D01*
X326602Y42480D01*
X326538Y42555D01*
X326459Y42616D01*
X326370Y42660D01*
X326274Y42684D01*
X326175Y42689D01*
X326077Y42674D01*
X325984Y42640D01*
X325900Y42587D01*
X325828Y42519D01*
X325772Y42438D01*
X325732Y42347D01*
X325713Y42250D01*
Y42150D01*
X325732Y42053D01*
X325772Y41962D01*
X325828Y41881D01*
X325900Y41813D01*
X325984Y41760D01*
X326077Y41726D01*
X326175Y41711D01*
X326274Y41716D01*
X326370Y41740D01*
X326459Y41784D01*
X326538Y41845D01*
X326602Y41920D01*
X326650Y42007D01*
X326680Y42101D01*
X326690Y42200D01*
X325690Y43200D02*
X325680Y43299D01*
X325650Y43393D01*
X325602Y43480D01*
X325538Y43555D01*
X325459Y43616D01*
X325370Y43660D01*
X325274Y43684D01*
X325175Y43689D01*
X325077Y43674D01*
X324984Y43640D01*
X324900Y43587D01*
X324828Y43519D01*
X324772Y43438D01*
X324732Y43347D01*
X324713Y43250D01*
Y43150D01*
X324732Y43053D01*
X324772Y42962D01*
X324828Y42881D01*
X324900Y42813D01*
X324984Y42760D01*
X325077Y42726D01*
X325175Y42711D01*
X325274Y42716D01*
X325370Y42741D01*
X325459Y42784D01*
X325538Y42845D01*
X325602Y42920D01*
X325650Y43007D01*
X325680Y43101D01*
X325690Y43200D01*
X325799Y43482D02*
X325750Y43393D01*
X325719Y43296D01*
X325710Y43194D01*
X325722Y43093D01*
X325755Y42996D01*
X325806Y42908D01*
X325875Y42833D01*
X325959Y42774D01*
X326052Y42733D01*
X326152Y42712D01*
X326254Y42713D01*
X326354Y42735D01*
X326447Y42777D01*
X326529Y42837D01*
X326597Y42913D01*
X326648Y43001D01*
X326679Y43099D01*
X326690Y43200D01*
X325730Y43530D02*
X325799Y43482D01*
X326690Y43200D02*
X326682Y43291D01*
X326656Y43379D01*
X326615Y43460D01*
X325730Y43530D02*
X325799Y43482D01*
X326230Y44689D02*
X326129Y44685D01*
X326031Y44660D01*
X325940Y44615D01*
X326635Y43974D02*
X326676Y44084D01*
X326690Y44200D01*
X326689Y44236D01*
X325530Y45620D02*
X325478Y45542D01*
X325460Y45450D01*
X325530Y45620D02*
X325478Y45542D01*
X325460Y45450D01*
X323440Y46384D02*
X323462Y46287D01*
X323493Y46192D01*
X323531Y46100D01*
X323577Y46011D01*
X323631Y45927D01*
X323691Y45848D01*
X323758Y45774D01*
X323830Y45706D01*
X323909Y45644D01*
X323992Y45589D01*
X324079Y45541D01*
X324171Y45501D01*
X324265Y45469D01*
X324361Y45444D01*
X324460Y45428D01*
X324559Y45421D01*
X324659Y45421D01*
X324758Y45431D01*
X324856Y45448D01*
X324953Y45474D01*
X325046Y45508D01*
X325137Y45549D01*
X325224Y45598D01*
X325306Y45655D01*
X325383Y45717D01*
X325455Y45787D01*
X325521Y45862D01*
X325580Y45942D01*
X325632Y46027D01*
X325676Y46116D01*
X325713Y46209D01*
X325742Y46304D01*
X325763Y46402D01*
X325776Y46500D01*
X325780Y46600D01*
X325776Y46700D01*
X325763Y46798D01*
X325742Y46896D01*
X325713Y46991D01*
X325676Y47084D01*
X325632Y47173D01*
X325580Y47258D01*
X325521Y47338D01*
X325455Y47413D01*
X325383Y47483D01*
X325306Y47545D01*
X325224Y47602D01*
X325137Y47651D01*
X325046Y47692D01*
X324953Y47726D01*
X324856Y47752D01*
X324758Y47769D01*
X324659Y47779D01*
X324559Y47779D01*
X324460Y47772D01*
X324361Y47756D01*
X324265Y47731D01*
X324171Y47699D01*
X324079Y47659D01*
X323992Y47611D01*
X323909Y47556D01*
X323830Y47494D01*
X323758Y47426D01*
X323691Y47352D01*
X323631Y47273D01*
X323577Y47189D01*
X323531Y47100D01*
X323493Y47008D01*
X323462Y46913D01*
X323440Y46816D01*
X320880Y47500D02*
X320863Y47588D01*
X320813Y47663D01*
X320738Y47712D01*
X320650Y47730D01*
X320880Y47500D02*
X320863Y47588D01*
X320813Y47663D01*
X320738Y47712D01*
X320650Y47730D01*
X327633Y38172D02*
X327533Y38180D01*
X327434Y38164D01*
X327341Y38126D01*
X327260Y38067D01*
X327194Y37991D01*
X327148Y37902D01*
X327124Y37805D01*
X327122Y37705D01*
X327144Y37607D01*
X327188Y37517D01*
X327252Y37440D01*
X327332Y37379D01*
X327424Y37339D01*
X327522Y37321D01*
X327622Y37326D01*
X327719Y37354D01*
X327806Y37404D01*
X327879Y37473D01*
X327934Y37556D01*
X327968Y37650D01*
X327980Y37750D01*
Y37750D02*
X327972Y37833D01*
X329130Y37150D02*
X329118Y37250D01*
X329084Y37344D01*
X329029Y37427D01*
X328956Y37496D01*
X328869Y37546D01*
X328772Y37574D01*
X328672Y37579D01*
X328574Y37561D01*
X328482Y37521D01*
X328402Y37460D01*
X328338Y37383D01*
X328294Y37293D01*
X328272Y37195D01*
X328274Y37095D01*
X328298Y36998D01*
X328344Y36909D01*
X328410Y36833D01*
X328491Y36774D01*
X328584Y36736D01*
X328683Y36720D01*
X328783Y36728D01*
X327130Y39750D02*
X327122Y39830D01*
X326785Y40172D02*
X326685Y40180D01*
X326586Y40165D01*
X326493Y40127D01*
X326411Y40068D01*
X326345Y39993D01*
X326299Y39904D01*
X326274Y39807D01*
X326272Y39706D01*
X326294Y39608D01*
X326338Y39518D01*
X326401Y39441D01*
X326481Y39380D01*
X326573Y39339D01*
X326672Y39321D01*
X326772Y39326D01*
X326868Y39354D01*
X326955Y39404D01*
X327028Y39472D01*
X327084Y39556D01*
X327118Y39650D01*
X327130Y39750D01*
X328550Y38990D02*
X328458Y38972D01*
X328380Y38920D01*
X328550Y38990D02*
X328458Y38972D01*
X328380Y38920D01*
X330480Y35030D02*
X330558Y34978D01*
X330650Y34960D01*
X330480Y35030D02*
X330558Y34978D01*
X330650Y34960D01*
X329122Y37067D02*
X329130Y37150D01*
X333510Y40607D02*
X333435Y40543D01*
X333377Y40464D01*
X333338Y40374D01*
X333321Y40277D01*
X333326Y40179D01*
X333353Y40085D01*
X333401Y39999D01*
X333467Y39926D01*
X333548Y39870D01*
X333639Y39834D01*
X333736Y39820D01*
X333834Y39828D01*
X333928Y39858D01*
X334012Y39909D01*
X334083Y39977D01*
X334136Y40060D01*
X334169Y40152D01*
X334180Y40250D01*
X326700Y43460D02*
X326792Y43478D01*
X326870Y43530D01*
X326700Y43460D02*
X326792Y43478D01*
X326870Y43530D01*
X326776Y44324D02*
X326827Y44390D01*
X326859Y44467D01*
X326870Y44550D01*
X326776Y44323D02*
X326827Y44390D01*
X326859Y44467D01*
X326870Y44550D01*
X328550Y45790D02*
X328458Y45772D01*
X328380Y45720D01*
X328550Y45790D02*
X328458Y45772D01*
X328380Y45720D01*
X329909Y46999D02*
X329872Y47091D01*
X329819Y47174D01*
X329751Y47247D01*
X329671Y47305D01*
X329582Y47348D01*
X329486Y47373D01*
X329387Y47380D01*
X329289Y47368D01*
X329195Y47339D01*
X329107Y47292D01*
X329030Y47230D01*
X328966Y47154D01*
X328917Y47068D01*
X328885Y46974D01*
X328871Y46876D01*
X328875Y46778D01*
X328898Y46681D01*
X328938Y46591D01*
X328994Y46509D01*
X329065Y46440D01*
X329147Y46384D01*
X329238Y46345D01*
X329335Y46324D01*
X329434Y46321D01*
X329531Y46337D01*
X329625Y46370D01*
X329710Y46420D01*
X329785Y46485D01*
X329846Y46563D01*
X329891Y46651D01*
X331669Y44329D02*
X331721Y44408D01*
X331740Y44500D01*
X331669Y44329D02*
X331721Y44408D01*
X331740Y44500D01*
X333580Y43920D02*
X333528Y43842D01*
X333510Y43750D01*
X333580Y43920D02*
X333528Y43842D01*
X333510Y43750D01*
X329891Y46651D02*
X329927Y46561D01*
X329979Y46478D01*
X330045Y46407D01*
X330122Y46349D01*
X330210Y46305D01*
X330303Y46279D01*
X330400Y46270D01*
X330497Y46279D01*
X330590Y46305D01*
X330678Y46349D01*
X330755Y46407D01*
X330821Y46478D01*
X330873Y46561D01*
X330909Y46651D01*
X330891Y46999D02*
X330847Y47085D01*
X330788Y47161D01*
X330716Y47225D01*
X330634Y47276D01*
X330543Y47310D01*
X330448Y47328D01*
X330352D01*
X330257Y47310D01*
X330166Y47276D01*
X330084Y47225D01*
X330012Y47161D01*
X329953Y47085D01*
X329909Y46999D01*
X331740Y45550D02*
X331722Y45642D01*
X331670Y45720D01*
X331592Y45772D01*
X331500Y45790D01*
X331740Y45550D02*
X331722Y45642D01*
X331670Y45720D01*
X331592Y45772D01*
X331500Y45790D01*
X330909Y46651D02*
X330953Y46565D01*
X331013Y46488D01*
X331086Y46423D01*
X331169Y46373D01*
X331260Y46339D01*
X331356Y46322D01*
X331453Y46323D01*
X331549Y46341D01*
X331639Y46377D01*
X331721Y46429D01*
X331793Y46494D01*
X331851Y46572D01*
X331895Y46660D01*
X331921Y46753D01*
X331930Y46850D01*
X331920Y46950D01*
X331892Y47047D01*
X331846Y47137D01*
X331783Y47216D01*
X331707Y47282D01*
X331620Y47332D01*
X331525Y47365D01*
X331425Y47379D01*
X331324Y47375D01*
X331226Y47351D01*
X331135Y47309D01*
X331053Y47250D01*
X330983Y47177D01*
X330929Y47092D01*
X330891Y46999D01*
X305830Y51100D02*
X305826Y51200D01*
X305813Y51299D01*
X305792Y51397D01*
X305763Y51493D01*
X305725Y51586D01*
X305680Y51675D01*
X305628Y51761D01*
X305568Y51841D01*
X305502Y51916D01*
X305430Y51986D01*
X305352Y52049D01*
X305269Y52105D01*
X305181Y52154D01*
X305090Y52195D01*
X304996Y52228D01*
X304899Y52254D01*
X304800Y52270D01*
X304700Y52279D01*
X304600D01*
X304500Y52270D01*
X304401Y52254D01*
X304304Y52228D01*
X304210Y52195D01*
X304119Y52154D01*
X304031Y52105D01*
X303948Y52049D01*
X303870Y51986D01*
X303798Y51916D01*
X303732Y51841D01*
X303672Y51761D01*
X303620Y51675D01*
X303575Y51586D01*
X303537Y51493D01*
X303508Y51397D01*
X303487Y51299D01*
X303474Y51200D01*
X303470Y51100D01*
X303474Y51000D01*
X303487Y50901D01*
X303508Y50803D01*
X303537Y50707D01*
X303575Y50614D01*
X303620Y50525D01*
X303672Y50439D01*
X303732Y50359D01*
X303798Y50284D01*
X303870Y50214D01*
X303948Y50151D01*
X304031Y50095D01*
X304119Y50046D01*
X304210Y50005D01*
X304304Y49972D01*
X304401Y49946D01*
X304500Y49930D01*
X304600Y49921D01*
X304700D01*
X304800Y49930D01*
X304899Y49946D01*
X304996Y49972D01*
X305090Y50005D01*
X305181Y50046D01*
X305269Y50095D01*
X305352Y50151D01*
X305430Y50214D01*
X305502Y50284D01*
X305568Y50359D01*
X305628Y50439D01*
X305680Y50525D01*
X305725Y50614D01*
X305763Y50707D01*
X305792Y50803D01*
X305813Y50901D01*
X305826Y51000D01*
X305830Y51100D01*
X309506Y50000D02*
X309424Y49941D01*
X309353Y49870D01*
X309296Y49787D01*
X309254Y49695D01*
X309228Y49597D01*
X309220Y49497D01*
X309229Y49396D01*
X309256Y49299D01*
X309299Y49208D01*
X309357Y49125D01*
X309429Y49054D01*
X309512Y48997D01*
X309604Y48954D01*
X309701Y48928D01*
X309802Y48920D01*
X309902Y48929D01*
X310000Y48955D01*
X310091Y48998D01*
X310174Y49056D01*
X310245Y49128D01*
X310303Y49210D01*
X310345Y49302D01*
X310371Y49399D01*
X310380Y49500D01*
X305170Y52925D02*
X305179Y52827D01*
X305206Y52732D01*
X305251Y52644D01*
X305311Y52565D01*
X305384Y52499D01*
X305469Y52448D01*
X305561Y52413D01*
X305659Y52397D01*
X305758Y52398D01*
X305854Y52418D01*
X305946Y52455D01*
X306029Y52509D01*
X306100Y52577D01*
X310380Y50500D02*
X310371Y50601D01*
X310345Y50698D01*
X310303Y50790D01*
X310245Y50872D01*
X310174Y50944D01*
X310091Y51002D01*
X310000Y51045D01*
X309902Y51071D01*
X309802Y51080D01*
X309701Y51072D01*
X309604Y51046D01*
X309512Y51003D01*
X309429Y50946D01*
X309357Y50875D01*
X309299Y50792D01*
X309256Y50701D01*
X309229Y50604D01*
X309220Y50503D01*
X309228Y50403D01*
X309254Y50305D01*
X309296Y50213D01*
X309353Y50130D01*
X309424Y50059D01*
X309506Y50000D01*
X306100Y52577D02*
X306175Y52507D01*
X306262Y52452D01*
X306358Y52414D01*
X306459Y52397D01*
X306562Y52399D01*
X306663Y52421D01*
X306757Y52462D01*
X306842Y52520D01*
X306914Y52594D01*
X306970Y52680D01*
X305383Y53500D02*
X305310Y53434D01*
X305250Y53356D01*
X305206Y53268D01*
X305179Y53173D01*
X305170Y53075D01*
X306100Y53423D02*
X306017Y53500D01*
X306183D02*
X306100Y53423D01*
X306970Y53320D02*
X306903Y53419D01*
X306817Y53500D01*
X305170Y53925D02*
X305179Y53827D01*
X305206Y53732D01*
X305250Y53644D01*
X305310Y53566D01*
X305383Y53500D01*
X306017D02*
X306100Y53577D01*
X306183Y53500D01*
X306817D02*
X306896Y53573D01*
X306960Y53661D01*
X307004Y53760D01*
X307213Y52680D02*
X307293Y52623D01*
X307385Y52586D01*
X307482Y52570D01*
X307581Y52578D01*
X307675Y52607D01*
X307760Y52658D01*
X307831Y52726D01*
X307885Y52809D01*
X307919Y52902D01*
X307930Y53000D01*
X307919Y53098D01*
X307885Y53191D01*
X307831Y53274D01*
X307760Y53342D01*
X307675Y53393D01*
X307581Y53422D01*
X307482Y53430D01*
X307385Y53414D01*
X307293Y53377D01*
X307213Y53320D01*
X309370Y54170D02*
X309292Y54222D01*
X309200Y54240D01*
X309370Y54170D02*
X309292Y54222D01*
X309200Y54240D01*
X310380Y49500D02*
X310371Y49600D01*
X310346Y49697D01*
X310303Y49788D01*
X310246Y49870D01*
X310176Y49942D01*
X310094Y50000D01*
X310176Y50058D01*
X310246Y50130D01*
X310303Y50212D01*
X310346Y50303D01*
X310371Y50400D01*
X310380Y50500D01*
X311130Y51730D02*
X311208Y51679D01*
X311299Y51660D01*
X311130Y51730D02*
X311208Y51679D01*
X311299Y51660D01*
X319569Y52091D02*
X319620Y52130D01*
X319569Y52091D02*
X319620Y52130D01*
X319799Y51610D02*
X319891Y51628D01*
X319970Y51680D01*
X319799Y51610D02*
X319891Y51628D01*
X319970Y51680D01*
X317477Y53429D02*
X317379Y53413D01*
X317288Y53374D01*
X317209Y53316D01*
X317144Y53241D01*
X317098Y53154D01*
X317074Y53058D01*
X317072Y52959D01*
X317092Y52863D01*
X317135Y52773D01*
X317196Y52696D01*
X317273Y52635D01*
X317363Y52593D01*
X317459Y52572D01*
X317558Y52574D01*
X317654Y52598D01*
X317741Y52644D01*
X317816Y52709D01*
X317874Y52788D01*
X317913Y52879D01*
X317929Y52977D01*
X305541Y54581D02*
X305453Y54544D01*
X305373Y54492D01*
X305303Y54426D01*
X305246Y54349D01*
X305204Y54263D01*
X305179Y54170D01*
X305170Y54075D01*
X305830Y55900D02*
X305826Y56000D01*
X305813Y56099D01*
X305792Y56197D01*
X305763Y56293D01*
X305725Y56386D01*
X305680Y56475D01*
X305628Y56561D01*
X305568Y56641D01*
X305502Y56716D01*
X305430Y56786D01*
X305352Y56849D01*
X305269Y56905D01*
X305181Y56954D01*
X305090Y56995D01*
X304996Y57028D01*
X304899Y57054D01*
X304800Y57070D01*
X304700Y57079D01*
X304600D01*
X304500Y57070D01*
X304401Y57054D01*
X304304Y57028D01*
X304210Y56995D01*
X304119Y56954D01*
X304031Y56905D01*
X303948Y56849D01*
X303870Y56786D01*
X303798Y56716D01*
X303732Y56641D01*
X303672Y56561D01*
X303620Y56475D01*
X303575Y56386D01*
X303537Y56293D01*
X303508Y56197D01*
X303487Y56099D01*
X303474Y56000D01*
X303470Y55900D01*
X303474Y55800D01*
X303487Y55701D01*
X303508Y55603D01*
X303537Y55507D01*
X303575Y55414D01*
X303620Y55325D01*
X303672Y55239D01*
X303732Y55159D01*
X303798Y55084D01*
X303870Y55014D01*
X303948Y54951D01*
X304031Y54895D01*
X304119Y54846D01*
X304210Y54805D01*
X304304Y54772D01*
X304401Y54746D01*
X304500Y54730D01*
X304600Y54721D01*
X304700D01*
X304800Y54730D01*
X304899Y54746D01*
X304996Y54772D01*
X305090Y54805D01*
X305181Y54846D01*
X305269Y54895D01*
X305352Y54951D01*
X305430Y55014D01*
X305502Y55084D01*
X305568Y55159D01*
X305628Y55239D01*
X305680Y55325D01*
X305725Y55414D01*
X305763Y55507D01*
X305792Y55603D01*
X305813Y55701D01*
X305826Y55800D01*
X305830Y55900D01*
X307004Y54240D02*
X306963Y54333D01*
X306905Y54416D01*
X306833Y54487D01*
X306748Y54543D01*
X306654Y54582D01*
X306555Y54602D01*
X306453Y54603D01*
X306354Y54584D01*
X306259Y54547D01*
X306174Y54493D01*
X306100Y54423D01*
X306250Y55190D02*
X306158Y55172D01*
X306080Y55120D01*
X306250Y55190D02*
X306158Y55172D01*
X306080Y55120D01*
X309470D02*
X309392Y55172D01*
X309300Y55190D01*
X309470Y55120D02*
X309392Y55172D01*
X309300Y55190D01*
X322626Y49265D02*
X322577Y49189D01*
X322560Y49100D01*
X322626Y49265D02*
X322577Y49189D01*
X322560Y49100D01*
X324260Y50469D02*
X324199Y50549D01*
X324120Y50613D01*
X324029Y50657D01*
X323930Y50678D01*
X323829Y50676D01*
X323732Y50650D01*
X323643Y50602D01*
X323567Y50534D01*
X323510Y50451D01*
X323473Y50357D01*
X323460Y50257D01*
X323470Y50156D01*
X323819Y49826D02*
X323922Y49821D01*
X324023Y49841D01*
X324117Y49885D01*
X324197Y49949D01*
X324260Y50031D01*
X322860Y52000D02*
X322878Y51908D01*
X322930Y51830D01*
X322860Y52000D02*
X322878Y51908D01*
X322930Y51830D01*
X323530Y52700D02*
X323519Y52798D01*
X323486Y52890D01*
X323433Y52973D01*
X323362Y53041D01*
X323278Y53092D01*
X323184Y53122D01*
X323086Y53130D01*
X322989Y53116D01*
X322898Y53080D01*
X322817Y53024D01*
X322751Y52951D01*
X322703Y52865D01*
X322676Y52771D01*
X322671Y52673D01*
X322688Y52576D01*
X322727Y52486D01*
X322785Y52407D01*
X322860Y52343D01*
X323340D02*
X323419Y52412D01*
X323480Y52498D01*
X323517Y52596D01*
X323530Y52700D01*
X324430D02*
X324418Y52800D01*
X324384Y52894D01*
X324329Y52977D01*
X324256Y53046D01*
X324169Y53096D01*
X324072Y53124D01*
X323972Y53129D01*
X323874Y53111D01*
X323782Y53071D01*
X323702Y53010D01*
X323638Y52933D01*
X323594Y52843D01*
X323572Y52745D01*
X323574Y52645D01*
X323598Y52548D01*
X323644Y52459D01*
X323710Y52383D01*
X323791Y52324D01*
X323884Y52286D01*
X323983Y52270D01*
X324083Y52278D01*
X324670Y49680D02*
X324722Y49758D01*
X324740Y49850D01*
X324670Y49680D02*
X324722Y49758D01*
X324740Y49850D01*
Y50600D02*
X324722Y50692D01*
X324670Y50770D01*
X324740Y50600D02*
X324722Y50692D01*
X324670Y50770D01*
X333213Y49680D02*
X333293Y49623D01*
X333385Y49586D01*
X333482Y49570D01*
X333581Y49578D01*
X333675Y49607D01*
X333760Y49658D01*
X333831Y49726D01*
X333885Y49809D01*
X333919Y49902D01*
X333930Y50000D01*
X333919Y50098D01*
X333885Y50191D01*
X333831Y50274D01*
X333760Y50342D01*
X333675Y50393D01*
X333581Y50422D01*
X333482Y50430D01*
X333385Y50414D01*
X333293Y50377D01*
X333213Y50320D01*
X324422Y52617D02*
X324430Y52700D01*
X324980Y52400D02*
X324991Y52317D01*
X325023Y52240D01*
X325074Y52174D01*
X324980Y52400D02*
X324991Y52317D01*
X325023Y52240D01*
X325074Y52173D01*
X326870Y51150D02*
X326859Y51233D01*
X326827Y51310D01*
X326776Y51376D01*
X326870Y51150D02*
X326859Y51233D01*
X326827Y51310D01*
X326776Y51377D01*
X322171Y54682D02*
X322178Y54567D01*
X322517Y54228D02*
X322612Y54220D01*
X322705Y54233D01*
X322794Y54266D01*
X322873Y54318D01*
X322939Y54386D01*
X322989Y54466D01*
X323020Y54556D01*
X323030Y54650D01*
X323018Y54750D01*
X322983Y54845D01*
X322928Y54929D01*
X322854Y54997D01*
X322766Y55047D01*
X322669Y55074D01*
X322568Y55079D01*
X322650Y58470D02*
X322567Y58459D01*
X322490Y58427D01*
X322424Y58376D01*
X322650Y58470D02*
X322567Y58459D01*
X322490Y58427D01*
X322423Y58376D01*
X323417Y55928D02*
X323512Y55920D01*
X323605Y55933D01*
X323694Y55966D01*
X323773Y56018D01*
X323839Y56086D01*
X323889Y56166D01*
X323920Y56256D01*
X323930Y56350D01*
X323918Y56451D01*
X323882Y56547D01*
X323825Y56632D01*
X323749Y56700D01*
X323659Y56749D01*
X323561Y56776D01*
X323459Y56778D01*
X323359Y56756D01*
X323267Y56711D01*
X323188Y56646D01*
X323127Y56564D01*
X323087Y56470D01*
X323070Y56369D01*
X323078Y56267D01*
X325730Y57250D02*
X325719Y57347D01*
X325686Y57439D01*
X325633Y57522D01*
X325563Y57590D01*
X325480Y57641D01*
X325387Y57671D01*
X325290Y57680D01*
X325193Y57666D01*
X325102Y57631D01*
X325021Y57577D01*
X324954Y57505D01*
X324905Y57420D01*
X324877Y57327D01*
X324870Y57229D01*
X324886Y57133D01*
X324923Y57042D01*
X324980Y56963D01*
X325620D02*
X325680Y57049D01*
X325717Y57146D01*
X325730Y57250D01*
X336350Y36480D02*
X336250Y36470D01*
X336155Y36439D01*
X336068Y36388D01*
X335993Y36321D01*
X335934Y36240D01*
X335893Y36148D01*
X335873Y36050D01*
Y35950D01*
X335893Y35852D01*
X335934Y35760D01*
X335993Y35679D01*
X336068Y35612D01*
X336155Y35561D01*
X336250Y35530D01*
X336350Y35520D01*
X336308Y37478D02*
X336212Y37460D01*
X336122Y37422D01*
X336041Y37367D01*
X335973Y37297D01*
X335921Y37215D01*
X335886Y37124D01*
X335871Y37028D01*
X335875Y36930D01*
X335899Y36836D01*
X335942Y36748D01*
X336001Y36670D01*
X336075Y36607D01*
X336160Y36559D01*
X336253Y36530D01*
X336350Y36520D01*
X336450Y35520D02*
X336544Y35529D01*
X336634Y35557D01*
X336717Y35601D01*
X336789Y35661D01*
X336849Y35733D01*
X336893Y35816D01*
X336921Y35906D01*
X336930Y36000D01*
Y37000D02*
X336919Y37101D01*
X336888Y37197D01*
X336836Y37285D01*
X336768Y37360D01*
X336685Y37418D01*
X336592Y37459D01*
X336492Y37478D01*
X334500Y38510D02*
X334592Y38528D01*
X334670Y38580D01*
X334500Y38510D02*
X334592Y38528D01*
X334670Y38580D01*
X335670Y39580D02*
X335722Y39658D01*
X335740Y39750D01*
X335670Y39580D02*
X335722Y39658D01*
X335740Y39750D01*
X334180Y40250D02*
X334167Y40354D01*
X334130Y40452D01*
X334069Y40538D01*
X333990Y40607D01*
X336492Y37478D02*
X336594Y37507D01*
X336688Y37555D01*
X336770Y37621D01*
X336838Y37702D01*
X336888Y37794D01*
X336920Y37895D01*
X336930Y38000D01*
X336224Y38500D02*
X336134Y38458D01*
X336053Y38401D01*
X335984Y38329D01*
X335930Y38246D01*
X335893Y38154D01*
X335873Y38056D01*
X335872Y37957D01*
X335889Y37859D01*
X335924Y37766D01*
X335976Y37682D01*
X336043Y37608D01*
X336123Y37548D01*
X336212Y37505D01*
X336308Y37478D01*
X336930Y38000D02*
X336922Y38093D01*
X336897Y38183D01*
X336858Y38267D01*
X336804Y38343D01*
X336737Y38409D01*
X336661Y38461D01*
X336576Y38500D01*
X336661Y38539D01*
X336737Y38591D01*
X336804Y38657D01*
X336858Y38733D01*
X336897Y38817D01*
X336922Y38907D01*
X336930Y39000D01*
X336224Y39500D02*
X336133Y39458D01*
X336052Y39399D01*
X335983Y39327D01*
X335928Y39242D01*
X335891Y39149D01*
X335872Y39050D01*
Y38950D01*
X335891Y38851D01*
X335928Y38758D01*
X335983Y38673D01*
X336052Y38601D01*
X336133Y38542D01*
X336224Y38500D01*
Y40500D02*
X336133Y40458D01*
X336052Y40399D01*
X335983Y40327D01*
X335928Y40242D01*
X335891Y40149D01*
X335872Y40050D01*
Y39950D01*
X335891Y39851D01*
X335928Y39758D01*
X335983Y39673D01*
X336052Y39601D01*
X336133Y39542D01*
X336224Y39500D01*
X336930Y39000D02*
X336922Y39093D01*
X336897Y39183D01*
X336858Y39267D01*
X336804Y39343D01*
X336737Y39409D01*
X336661Y39461D01*
X336576Y39500D01*
X336661Y39539D01*
X336737Y39591D01*
X336804Y39657D01*
X336858Y39733D01*
X336897Y39817D01*
X336922Y39907D01*
X336930Y40000D01*
X336922Y40093D01*
X336897Y40183D01*
X336858Y40267D01*
X336804Y40343D01*
X336737Y40409D01*
X336661Y40461D01*
X336576Y40500D01*
X336930Y36000D02*
X336925Y36072D01*
X337476Y36624D02*
X337527Y36690D01*
X337559Y36767D01*
X337570Y36850D01*
X337476Y36623D02*
X337527Y36690D01*
X337559Y36767D01*
X337570Y36850D01*
X338600Y34960D02*
X338692Y34978D01*
X338770Y35030D01*
X338600Y34960D02*
X338692Y34978D01*
X338770Y35030D01*
X338410Y36750D02*
X338428Y36658D01*
X338480Y36580D01*
X338410Y36750D02*
X338428Y36658D01*
X338480Y36580D01*
X339224Y38500D02*
X339132Y38457D01*
X339050Y38398D01*
X338981Y38324D01*
X338927Y38239D01*
X338890Y38144D01*
Y38856D02*
X338927Y38761D01*
X338981Y38676D01*
X339050Y38602D01*
X339132Y38543D01*
X339224Y38500D01*
Y39500D02*
X339132Y39457D01*
X339050Y39398D01*
X338981Y39324D01*
X338927Y39239D01*
X338890Y39144D01*
Y39856D02*
X338927Y39761D01*
X338981Y39676D01*
X339050Y39602D01*
X339132Y39543D01*
X339224Y39500D01*
Y40500D02*
X339132Y40457D01*
X339050Y40398D01*
X338981Y40324D01*
X338927Y40239D01*
X338890Y40144D01*
X336224Y41500D02*
X336133Y41458D01*
X336052Y41399D01*
X335983Y41327D01*
X335928Y41242D01*
X335891Y41149D01*
X335872Y41050D01*
Y40950D01*
X335891Y40851D01*
X335928Y40758D01*
X335983Y40673D01*
X336052Y40601D01*
X336133Y40542D01*
X336224Y40500D01*
X336576D02*
X336661Y40539D01*
X336737Y40591D01*
X336804Y40657D01*
X336858Y40733D01*
X336897Y40817D01*
X336922Y40907D01*
X336930Y41000D01*
X336922Y41093D01*
X336897Y41183D01*
X336858Y41267D01*
X336804Y41343D01*
X336737Y41409D01*
X336661Y41461D01*
X336576Y41500D01*
X336224Y42500D02*
X336133Y42458D01*
X336052Y42399D01*
X335983Y42327D01*
X335928Y42242D01*
X335891Y42149D01*
X335872Y42050D01*
Y41950D01*
X335891Y41851D01*
X335928Y41758D01*
X335983Y41673D01*
X336052Y41601D01*
X336133Y41542D01*
X336224Y41500D01*
X336576D02*
X336661Y41539D01*
X336737Y41591D01*
X336804Y41657D01*
X336858Y41733D01*
X336897Y41817D01*
X336922Y41907D01*
X336930Y42000D01*
X336922Y42093D01*
X336897Y42183D01*
X336858Y42267D01*
X336804Y42343D01*
X336737Y42409D01*
X336661Y42461D01*
X336576Y42500D01*
X336661Y42539D01*
X336737Y42591D01*
X336804Y42657D01*
X336858Y42733D01*
X336897Y42817D01*
X336922Y42907D01*
X336930Y43000D01*
X336224Y43500D02*
X336133Y43458D01*
X336052Y43399D01*
X335983Y43327D01*
X335928Y43242D01*
X335891Y43149D01*
X335872Y43050D01*
Y42950D01*
X335891Y42851D01*
X335928Y42758D01*
X335983Y42673D01*
X336052Y42601D01*
X336133Y42542D01*
X336224Y42500D01*
X336930Y43000D02*
X336922Y43093D01*
X336897Y43183D01*
X336858Y43267D01*
X336804Y43343D01*
X336737Y43409D01*
X336661Y43461D01*
X336576Y43500D01*
X335330Y44270D02*
X335278Y44192D01*
X335260Y44100D01*
X335330Y44270D02*
X335278Y44192D01*
X335260Y44100D01*
X335170Y44830D02*
X335222Y44908D01*
X335240Y45000D01*
X335170Y44830D02*
X335222Y44908D01*
X335240Y45000D01*
X335893Y44153D02*
X335873Y44054D01*
X335872Y43953D01*
X335891Y43854D01*
X335927Y43760D01*
X335981Y43675D01*
X336051Y43601D01*
X336133Y43542D01*
X336224Y43500D01*
X336930Y45000D02*
X336920Y45101D01*
X336891Y45199D01*
X336844Y45289D01*
X336781Y45368D01*
X336704Y45434D01*
X336615Y45484D01*
X336519Y45516D01*
X336418Y45530D01*
X336317Y45523D01*
X336218Y45498D01*
X336127Y45454D01*
X336045Y45394D01*
X335976Y45319D01*
X335923Y45232D01*
X335888Y45137D01*
X335871Y45036D01*
X335874Y44935D01*
X335896Y44836D01*
X336576Y43500D02*
X336661Y43539D01*
X336737Y43591D01*
X336804Y43657D01*
X336858Y43733D01*
X336897Y43817D01*
X336922Y43907D01*
X336930Y44000D01*
X336922Y44093D01*
X336897Y44183D01*
X336858Y44267D01*
X336804Y44343D01*
X336737Y44409D01*
X336661Y44461D01*
X336576Y44500D01*
X336661Y44539D01*
X336737Y44591D01*
X336804Y44657D01*
X336858Y44733D01*
X336897Y44817D01*
X336922Y44907D01*
X336930Y45000D01*
X339193Y36546D02*
X339270Y36527D01*
X339350Y36520D01*
X339450D02*
X339544Y36529D01*
X339634Y36557D01*
X339717Y36601D01*
X339789Y36661D01*
X339849Y36733D01*
X339893Y36816D01*
X339921Y36906D01*
X339930Y37000D01*
X339308Y37478D02*
X339214Y37460D01*
X339126Y37424D01*
X339046Y37372D01*
X338979Y37305D01*
X338926Y37225D01*
X338890Y37137D01*
Y37856D02*
X338926Y37764D01*
X338978Y37680D01*
X339044Y37607D01*
X339124Y37548D01*
X339212Y37504D01*
X339308Y37478D01*
X339930Y37000D02*
X339919Y37101D01*
X339888Y37197D01*
X339836Y37285D01*
X339768Y37360D01*
X339685Y37418D01*
X339592Y37459D01*
X339492Y37478D01*
X339594Y37507D01*
X339688Y37555D01*
X339770Y37621D01*
X339838Y37702D01*
X339888Y37794D01*
X339920Y37895D01*
X339930Y38000D01*
X339923Y38083D01*
X339904Y38164D01*
X339907Y38847D02*
X339924Y38923D01*
X339930Y39000D01*
X339923Y39083D01*
X339904Y39164D01*
X339907Y39847D02*
X339924Y39923D01*
X339930Y40000D01*
X339923Y40083D01*
X339904Y40164D01*
X338890Y40856D02*
X338927Y40761D01*
X338981Y40676D01*
X339050Y40602D01*
X339132Y40543D01*
X339224Y40500D01*
Y41500D02*
X339132Y41457D01*
X339050Y41398D01*
X338981Y41324D01*
X338927Y41239D01*
X338890Y41144D01*
X339907Y40847D02*
X339924Y40923D01*
X339930Y41000D01*
X339923Y41083D01*
X339904Y41164D01*
X338890Y41856D02*
X338927Y41761D01*
X338981Y41676D01*
X339050Y41602D01*
X339132Y41543D01*
X339224Y41500D01*
X339907Y41847D02*
X339924Y41923D01*
X339930Y42000D01*
X344030Y37108D02*
X344026Y37208D01*
X344013Y37308D01*
X343992Y37406D01*
X343963Y37501D01*
X343925Y37594D01*
X343880Y37684D01*
X343828Y37769D01*
X343768Y37850D01*
X343702Y37925D01*
X343630Y37994D01*
X343552Y38057D01*
X343469Y38113D01*
X343381Y38162D01*
X343290Y38203D01*
X343196Y38237D01*
X343099Y38262D01*
X343000Y38279D01*
X342900Y38287D01*
X342800D01*
X342700Y38279D01*
X342601Y38262D01*
X342504Y38237D01*
X342410Y38203D01*
X342319Y38162D01*
X342231Y38113D01*
X342148Y38057D01*
X342070Y37994D01*
X341998Y37925D01*
X341932Y37850D01*
X341872Y37769D01*
X341820Y37684D01*
X341775Y37594D01*
X341737Y37501D01*
X341708Y37406D01*
X341687Y37308D01*
X341674Y37208D01*
X341670Y37108D01*
X341674Y37008D01*
X341687Y36909D01*
X341708Y36811D01*
X341737Y36715D01*
X341775Y36622D01*
X341820Y36533D01*
X341872Y36448D01*
X341932Y36367D01*
X341998Y36292D01*
X342070Y36223D01*
X342148Y36160D01*
X342231Y36104D01*
X342319Y36055D01*
X342410Y36013D01*
X342504Y35980D01*
X342601Y35955D01*
X342700Y35938D01*
X342800Y35929D01*
X342900D01*
X343000Y35938D01*
X343099Y35955D01*
X343196Y35980D01*
X343290Y36013D01*
X343381Y36055D01*
X343469Y36104D01*
X343552Y36160D01*
X343630Y36223D01*
X343702Y36292D01*
X343768Y36367D01*
X343828Y36448D01*
X343880Y36533D01*
X343925Y36622D01*
X343963Y36715D01*
X343992Y36811D01*
X344013Y36909D01*
X344026Y37008D01*
X344030Y37108D01*
X341520Y39780D02*
X341572Y39858D01*
X341590Y39950D01*
X341520Y39780D02*
X341572Y39858D01*
X341590Y39950D01*
X341683Y42075D02*
X341590Y41986D01*
Y41314D02*
X341660Y41243D01*
X341743Y41187D01*
X341834Y41147D01*
X341932Y41124D01*
X342032Y41121D01*
X342130Y41136D01*
X342225Y41170D01*
X342311Y41221D01*
X342386Y41287D01*
X342447Y41366D01*
X342493Y41455D01*
X342521Y41550D01*
X342530Y41650D01*
Y41650D02*
X342521Y41748D01*
X342494Y41843D01*
X342450Y41931D01*
X342390Y42009D01*
X342317Y42075D01*
X343383D02*
X343311Y42009D01*
X343251Y41932D01*
X343207Y41844D01*
X343180Y41750D01*
X343170Y41653D01*
X343179Y41555D01*
X343205Y41461D01*
X343248Y41373D01*
X343307Y41294D01*
X343379Y41228D01*
X343462Y41176D01*
X343553Y41141D01*
X343650Y41122D01*
X343748Y41122D01*
X343844Y41140D01*
X343935Y41175D01*
X344019Y41227D01*
X344091Y41292D01*
X344150Y41371D01*
X344194Y41458D01*
X344221Y41552D01*
X344230Y41650D01*
X344221Y41748D01*
X344194Y41843D01*
X344150Y41931D01*
X344090Y42009D01*
X344017Y42075D01*
X339224Y42500D02*
X339132Y42457D01*
X339050Y42398D01*
X338981Y42324D01*
X338927Y42239D01*
X338890Y42144D01*
Y42856D02*
X338927Y42761D01*
X338981Y42676D01*
X339050Y42602D01*
X339132Y42543D01*
X339224Y42500D01*
X339930Y42000D02*
X339923Y42083D01*
X339904Y42164D01*
X339224Y43500D02*
X339132Y43457D01*
X339050Y43398D01*
X338981Y43324D01*
X338927Y43239D01*
X338890Y43144D01*
X339710Y43430D02*
X339645Y43470D01*
X339576Y43500D01*
X338890Y43856D02*
X338927Y43761D01*
X338981Y43676D01*
X339050Y43602D01*
X339132Y43543D01*
X339224Y43500D01*
X339576D02*
X339645Y43530D01*
X339710Y43570D01*
X339224Y44500D02*
X339132Y44457D01*
X339050Y44398D01*
X338981Y44324D01*
X338927Y44239D01*
X338890Y44144D01*
X339710Y44430D02*
X339645Y44470D01*
X339576Y44500D01*
X338890Y44856D02*
X338927Y44761D01*
X338981Y44676D01*
X339050Y44602D01*
X339132Y44543D01*
X339224Y44500D01*
X339576D02*
X339645Y44530D01*
X339710Y44570D01*
X341590Y42164D02*
X341683Y42075D01*
X342317D02*
X342399Y42151D01*
X341683Y42925D02*
X341590Y42836D01*
Y43014D02*
X341683Y42925D01*
X342399Y42849D02*
X342317Y42925D01*
X342399Y42151D02*
X342491Y42101D01*
X342592Y42074D01*
X342696Y42072D01*
X342798Y42096D01*
X342891Y42144D01*
X342970Y42213D01*
X343030Y42299D01*
X343067Y42396D01*
X343080Y42500D01*
X342585Y42925D02*
X342487Y42898D01*
X342399Y42849D01*
X342317Y42925D02*
X342399Y43001D01*
Y43699D02*
X342317Y43775D01*
X342399Y43001D02*
X342487Y42952D01*
X342585Y42925D01*
X341470Y44181D02*
X341496Y44036D01*
X342317Y43775D02*
X342390Y43841D01*
X342450Y43919D01*
X342494Y44007D01*
X342521Y44102D01*
X342530Y44200D01*
X342521Y44298D01*
X342494Y44393D01*
X342450Y44481D01*
X342390Y44559D01*
X342317Y44625D01*
X342390Y44691D01*
X342450Y44769D01*
X342494Y44857D01*
X342521Y44952D01*
X342530Y45050D01*
X343080Y43350D02*
X343067Y43454D01*
X343030Y43551D01*
X342970Y43637D01*
X342891Y43706D01*
X342798Y43754D01*
X342696Y43778D01*
X342592Y43776D01*
X342491Y43749D01*
X342399Y43699D01*
X339710Y45430D02*
X339622Y45481D01*
X339526Y45515D01*
X339426Y45529D01*
X339324Y45525D01*
X339226Y45500D01*
X339133Y45458D01*
X339051Y45399D01*
X338981Y45325D01*
X338927Y45239D01*
X338890Y45144D01*
X339780Y45720D02*
X339728Y45642D01*
X339710Y45550D01*
X339780Y45720D02*
X339728Y45642D01*
X339710Y45550D01*
X341470Y45031D02*
X341496Y44886D01*
X342530Y45050D02*
X342521Y45148D01*
X342494Y45243D01*
X342450Y45331D01*
X342390Y45409D01*
X342317Y45475D01*
X342390Y45541D01*
X342450Y45619D01*
X342494Y45707D01*
X342521Y45802D01*
X342530Y45900D01*
X341470Y45881D02*
X341496Y45736D01*
X342530Y45900D02*
X342521Y45998D01*
X342494Y46093D01*
X342450Y46181D01*
X342390Y46259D01*
X342317Y46325D01*
X343080Y42500D02*
X343068Y42601D01*
X343033Y42696D01*
X342976Y42780D01*
X342902Y42849D01*
X342813Y42898D01*
X342715Y42925D01*
X343383D02*
X343310Y42859D01*
X343250Y42781D01*
X343206Y42693D01*
X343179Y42598D01*
X343170Y42500D01*
X343179Y42402D01*
X343206Y42307D01*
X343250Y42219D01*
X343310Y42141D01*
X343383Y42075D01*
X344017D02*
X344090Y42141D01*
X344150Y42219D01*
X344194Y42307D01*
X344221Y42402D01*
X344230Y42500D01*
X344221Y42598D01*
X344194Y42693D01*
X344150Y42781D01*
X344090Y42859D01*
X344017Y42925D01*
X342715D02*
X342813Y42952D01*
X342902Y43001D01*
X342976Y43070D01*
X343033Y43154D01*
X343068Y43249D01*
X343080Y43350D01*
X343383Y43775D02*
X343310Y43709D01*
X343250Y43631D01*
X343206Y43543D01*
X343179Y43448D01*
X343170Y43350D01*
X343179Y43252D01*
X343206Y43157D01*
X343250Y43069D01*
X343310Y42991D01*
X343383Y42925D01*
X344017D02*
X344090Y42991D01*
X344150Y43069D01*
X344194Y43157D01*
X344221Y43252D01*
X344230Y43350D01*
X343383Y44625D02*
X343310Y44559D01*
X343250Y44481D01*
X343206Y44393D01*
X343179Y44298D01*
X343170Y44200D01*
X343179Y44102D01*
X343206Y44007D01*
X343250Y43919D01*
X343310Y43841D01*
X343383Y43775D01*
X343383Y45475D02*
X343310Y45409D01*
X343250Y45331D01*
X343206Y45243D01*
X343179Y45148D01*
X343170Y45050D01*
X343179Y44952D01*
X343206Y44857D01*
X343250Y44769D01*
X343310Y44691D01*
X343383Y44625D01*
X343383Y46325D02*
X343310Y46259D01*
X343250Y46181D01*
X343206Y46093D01*
X343179Y45998D01*
X343170Y45900D01*
X343179Y45802D01*
X343206Y45707D01*
X343250Y45619D01*
X343310Y45541D01*
X343383Y45475D01*
X344230Y43350D02*
X344221Y43448D01*
X344194Y43543D01*
X344150Y43631D01*
X344090Y43709D01*
X344017Y43775D01*
X344090Y43841D01*
X344150Y43919D01*
X344194Y44007D01*
X344221Y44102D01*
X344230Y44200D01*
X344221Y44298D01*
X344194Y44393D01*
X344150Y44481D01*
X344090Y44559D01*
X344017Y44625D01*
X344090Y44691D01*
X344150Y44769D01*
X344194Y44857D01*
X344221Y44952D01*
X344230Y45050D01*
X344221Y45148D01*
X344194Y45243D01*
X344150Y45331D01*
X344090Y45409D01*
X344017Y45475D01*
X344090Y45541D01*
X344150Y45619D01*
X344194Y45707D01*
X344221Y45802D01*
X344230Y45900D01*
X344221Y45998D01*
X344194Y46093D01*
X344150Y46181D01*
X344090Y46259D01*
X344017Y46325D01*
X336224Y48500D02*
X336133Y48458D01*
X336052Y48399D01*
X335983Y48327D01*
X335928Y48242D01*
X335891Y48149D01*
X335872Y48050D01*
Y47950D01*
X335891Y47851D01*
X335928Y47758D01*
X335983Y47673D01*
X336052Y47601D01*
X336133Y47542D01*
X336224Y47500D01*
X336136Y47459D01*
X336056Y47403D01*
X335988Y47334D01*
X335934Y47253D01*
X335896Y47164D01*
X335874Y47069D01*
X335871Y46971D01*
X335885Y46875D01*
X335916Y46783D01*
X335964Y46698D01*
X336027Y46624D01*
X336102Y46562D01*
X336187Y46515D01*
X336279Y46484D01*
X336375Y46471D01*
X336472Y46475D01*
X336925Y46928D02*
X336930Y47000D01*
X336925Y47072D01*
X336224Y49500D02*
X336133Y49458D01*
X336052Y49399D01*
X335983Y49327D01*
X335928Y49242D01*
X335891Y49149D01*
X335872Y49050D01*
Y48950D01*
X335891Y48851D01*
X335928Y48758D01*
X335983Y48673D01*
X336052Y48601D01*
X336133Y48542D01*
X336224Y48500D01*
X336930Y48000D02*
X336922Y48093D01*
X336897Y48183D01*
X336858Y48267D01*
X336804Y48343D01*
X336737Y48409D01*
X336661Y48461D01*
X336576Y48500D01*
X336661Y48539D01*
X336737Y48591D01*
X336804Y48657D01*
X336858Y48733D01*
X336897Y48817D01*
X336922Y48907D01*
X336930Y49000D01*
X336922Y49093D01*
X336897Y49183D01*
X336858Y49267D01*
X336804Y49343D01*
X336737Y49409D01*
X336661Y49461D01*
X336576Y49500D01*
X336224Y50500D02*
X336133Y50458D01*
X336052Y50399D01*
X335983Y50327D01*
X335928Y50242D01*
X335891Y50149D01*
X335872Y50050D01*
Y49950D01*
X335891Y49851D01*
X335928Y49758D01*
X335983Y49673D01*
X336052Y49601D01*
X336133Y49542D01*
X336224Y49500D01*
Y51500D02*
X336133Y51458D01*
X336052Y51399D01*
X335983Y51327D01*
X335928Y51242D01*
X335891Y51149D01*
X335872Y51050D01*
Y50950D01*
X335891Y50851D01*
X335928Y50758D01*
X335983Y50673D01*
X336052Y50601D01*
X336133Y50542D01*
X336224Y50500D01*
X336576Y49500D02*
X336661Y49539D01*
X336737Y49591D01*
X336804Y49657D01*
X336858Y49733D01*
X336897Y49817D01*
X336922Y49907D01*
X336930Y50000D01*
X336922Y50093D01*
X336897Y50183D01*
X336858Y50267D01*
X336804Y50343D01*
X336737Y50409D01*
X336661Y50461D01*
X336576Y50500D01*
X336661Y50539D01*
X336737Y50591D01*
X336804Y50657D01*
X336858Y50733D01*
X336897Y50817D01*
X336922Y50907D01*
X336930Y51000D01*
X336922Y51093D01*
X336897Y51183D01*
X336858Y51267D01*
X336804Y51343D01*
X336737Y51409D01*
X336661Y51461D01*
X336576Y51500D01*
X336661Y51539D01*
X336737Y51591D01*
X336804Y51657D01*
X336858Y51733D01*
X336897Y51817D01*
X336922Y51907D01*
X336930Y52000D01*
X337570Y46150D02*
X337559Y46233D01*
X337527Y46310D01*
X337476Y46376D01*
X337570Y46150D02*
X337559Y46233D01*
X337527Y46310D01*
X337476Y46377D01*
X338480Y46420D02*
X338428Y46342D01*
X338410Y46250D01*
X338480Y46420D02*
X338428Y46342D01*
X338410Y46250D01*
X337576Y47724D02*
X337627Y47790D01*
X337659Y47867D01*
X337670Y47950D01*
X337576Y47723D02*
X337627Y47790D01*
X337659Y47867D01*
X337670Y47950D01*
X339308Y48478D02*
X339212Y48460D01*
X339122Y48422D01*
X339041Y48367D01*
X338973Y48297D01*
X338921Y48215D01*
X338886Y48124D01*
X338871Y48028D01*
X338875Y47930D01*
X338899Y47836D01*
X338942Y47748D01*
X339001Y47670D01*
X339075Y47607D01*
X339160Y47559D01*
X339253Y47530D01*
X339350Y47520D01*
X338896Y49164D02*
X338874Y49066D01*
X338871Y48966D01*
X338887Y48866D01*
X338922Y48772D01*
X338973Y48686D01*
X339040Y48611D01*
X339120Y48550D01*
X339211Y48505D01*
X339308Y48478D01*
X339450Y47520D02*
X339544Y47529D01*
X339634Y47557D01*
X339717Y47601D01*
X339789Y47661D01*
X339849Y47733D01*
X339893Y47816D01*
X339921Y47906D01*
X339930Y48000D01*
X339919Y48101D01*
X339888Y48197D01*
X339836Y48285D01*
X339768Y48360D01*
X339685Y48418D01*
X339592Y48459D01*
X339492Y48478D01*
X339594Y48507D01*
X339688Y48555D01*
X339770Y48621D01*
X339838Y48702D01*
X339888Y48794D01*
X339920Y48895D01*
X339930Y49000D01*
X339922Y49093D01*
X339897Y49183D01*
X339858Y49267D01*
X339804Y49343D01*
X339737Y49409D01*
X339661Y49461D01*
X339576Y49500D01*
X338460Y49700D02*
X338478Y49608D01*
X338530Y49530D01*
X338460Y49700D02*
X338478Y49608D01*
X338530Y49530D01*
X339224Y50500D02*
X339138Y50461D01*
X339061Y50407D01*
X338994Y50341D01*
X338940Y50263D01*
Y50737D02*
X338994Y50659D01*
X339061Y50593D01*
X339138Y50539D01*
X339224Y50500D01*
X339576Y49500D02*
X339661Y49539D01*
X339737Y49591D01*
X339804Y49657D01*
X339858Y49733D01*
X339897Y49817D01*
X339922Y49907D01*
X339930Y50000D01*
X339922Y50093D01*
X339897Y50183D01*
X339858Y50267D01*
X339804Y50343D01*
X339737Y50409D01*
X339661Y50461D01*
X339576Y50500D01*
X339661Y50539D01*
X339737Y50591D01*
X339804Y50657D01*
X339858Y50733D01*
X339897Y50817D01*
X339922Y50907D01*
X339930Y51000D01*
X339308Y51522D02*
X339218Y51498D01*
X339134Y51458D01*
X339058Y51405D01*
X338993Y51339D01*
X338940Y51263D01*
X339930Y51000D02*
X339920Y51105D01*
X339888Y51206D01*
X339838Y51298D01*
X339770Y51379D01*
X339688Y51445D01*
X339594Y51493D01*
X339492Y51522D01*
X338940Y51750D02*
X339009Y51662D01*
X339097Y51592D01*
X339198Y51545D01*
X339308Y51522D01*
X339492D02*
X339583Y51539D01*
X339668Y51572D01*
X339746Y51622D01*
X339812Y51685D01*
X339866Y51760D01*
X340170Y52170D02*
X340092Y52222D01*
X340000Y52240D01*
X340170Y52170D02*
X340092Y52222D01*
X340000Y52240D01*
X336224Y52500D02*
X336133Y52458D01*
X336052Y52399D01*
X335983Y52327D01*
X335928Y52242D01*
X335891Y52149D01*
X335872Y52050D01*
Y51950D01*
X335891Y51851D01*
X335928Y51758D01*
X335983Y51673D01*
X336052Y51601D01*
X336133Y51542D01*
X336224Y51500D01*
Y53500D02*
X336133Y53458D01*
X336052Y53399D01*
X335983Y53327D01*
X335928Y53242D01*
X335891Y53149D01*
X335872Y53050D01*
Y52950D01*
X335891Y52851D01*
X335928Y52758D01*
X335983Y52673D01*
X336052Y52601D01*
X336133Y52542D01*
X336224Y52500D01*
Y54500D02*
X336133Y54458D01*
X336052Y54399D01*
X335983Y54327D01*
X335928Y54242D01*
X335891Y54149D01*
X335872Y54050D01*
Y53950D01*
X335891Y53851D01*
X335928Y53758D01*
X335983Y53673D01*
X336052Y53601D01*
X336133Y53542D01*
X336224Y53500D01*
X335893Y55153D02*
X335873Y55054D01*
X335872Y54953D01*
X335891Y54854D01*
X335927Y54760D01*
X335981Y54675D01*
X336051Y54601D01*
X336133Y54542D01*
X336224Y54500D01*
X336930Y52000D02*
X336922Y52093D01*
X336897Y52183D01*
X336858Y52267D01*
X336804Y52343D01*
X336737Y52409D01*
X336661Y52461D01*
X336576Y52500D01*
X336661Y52539D01*
X336737Y52591D01*
X336804Y52657D01*
X336858Y52733D01*
X336897Y52817D01*
X336922Y52907D01*
X336930Y53000D01*
X336922Y53093D01*
X336897Y53183D01*
X336858Y53267D01*
X336804Y53343D01*
X336737Y53409D01*
X336661Y53461D01*
X336576Y53500D01*
X336661Y53539D01*
X336737Y53591D01*
X336804Y53657D01*
X336858Y53733D01*
X336897Y53817D01*
X336922Y53907D01*
X336930Y54000D01*
X336922Y54093D01*
X336897Y54183D01*
X336858Y54267D01*
X336804Y54343D01*
X336737Y54409D01*
X336661Y54461D01*
X336576Y54500D01*
X336661Y54539D01*
X336737Y54591D01*
X336804Y54657D01*
X336858Y54733D01*
X336897Y54817D01*
X336922Y54907D01*
X336930Y55000D01*
X334830Y54770D02*
X334778Y54692D01*
X334760Y54600D01*
X334830Y54770D02*
X334778Y54692D01*
X334760Y54600D01*
X336427Y58376D02*
X336360Y58427D01*
X336283Y58459D01*
X336200Y58470D01*
X336426Y58376D02*
X336360Y58427D01*
X336283Y58459D01*
X336200Y58470D01*
X336930Y55000D02*
X336922Y55093D01*
X336897Y55183D01*
X336858Y55267D01*
X336804Y55343D01*
X336737Y55409D01*
X336661Y55461D01*
X336576Y55500D01*
X336661Y55539D01*
X336737Y55591D01*
X336804Y55657D01*
X336858Y55733D01*
X336897Y55817D01*
X336922Y55907D01*
X336930Y56000D01*
X336920Y56101D01*
X336891Y56199D01*
X336844Y56289D01*
X336781Y56368D01*
X336704Y56434D01*
X336615Y56484D01*
X336519Y56516D01*
X336418Y56530D01*
X336317Y56523D01*
X336218Y56498D01*
X336127Y56454D01*
X336045Y56394D01*
X335976Y56319D01*
X335923Y56232D01*
X335888Y56137D01*
X335871Y56036D01*
X335874Y55935D01*
X335896Y55836D01*
X337670Y57000D02*
X337659Y57083D01*
X337627Y57160D01*
X337576Y57226D01*
X337670Y57000D02*
X337659Y57083D01*
X337627Y57160D01*
X337576Y57227D01*
X339350Y52480D02*
X339252Y52470D01*
X339159Y52440D01*
X339073Y52392D01*
X338999Y52328D01*
X338940Y52250D01*
Y52750D02*
X338999Y52672D01*
X339073Y52608D01*
X339159Y52560D01*
X339252Y52530D01*
X339350Y52520D01*
X339308Y53478D02*
X339198Y53455D01*
X339097Y53408D01*
X339009Y53338D01*
X338940Y53250D01*
Y53737D02*
X338993Y53661D01*
X339058Y53595D01*
X339134Y53542D01*
X339218Y53502D01*
X339308Y53478D01*
X339866Y52240D02*
X339807Y52321D01*
X339732Y52388D01*
X339645Y52439D01*
X339550Y52470D01*
X339450Y52480D01*
Y52520D02*
X339550Y52530D01*
X339645Y52561D01*
X339732Y52612D01*
X339807Y52679D01*
X339866Y52760D01*
X340170Y53170D02*
X340092Y53222D01*
X340000Y53240D01*
X340170Y53170D02*
X340092Y53222D01*
X340000Y53240D01*
X339866D02*
X339812Y53315D01*
X339746Y53378D01*
X339668Y53428D01*
X339583Y53461D01*
X339492Y53478D01*
X339587Y53504D01*
X339675Y53547D01*
X339754Y53605D01*
X339820Y53677D01*
X339873Y53760D01*
Y54240D02*
X339820Y54323D01*
X339754Y54395D01*
X339675Y54453D01*
X339587Y54496D01*
X339492Y54522D01*
X340170Y54170D02*
X340092Y54222D01*
X340000Y54240D01*
X340170Y54170D02*
X340092Y54222D01*
X340000Y54240D01*
X338530Y55320D02*
X338478Y55242D01*
X338460Y55150D01*
X338530Y55320D02*
X338478Y55242D01*
X338460Y55150D01*
X338959Y55722D02*
X338880Y55670D01*
X338959Y55722D02*
X338880Y55670D01*
X339308Y54522D02*
X339218Y54498D01*
X339134Y54458D01*
X339058Y54405D01*
X338993Y54339D01*
X338940Y54263D01*
Y54750D02*
X339009Y54662D01*
X339097Y54592D01*
X339198Y54545D01*
X339308Y54522D01*
X339492D02*
X339583Y54539D01*
X339668Y54572D01*
X339746Y54622D01*
X339812Y54685D01*
X339866Y54760D01*
X340170Y55170D02*
X340092Y55222D01*
X340000Y55240D01*
X340170Y55170D02*
X340092Y55222D01*
X340000Y55240D01*
X339350Y56480D02*
X339255Y56471D01*
X339164Y56442D01*
X339080Y56397D01*
X339007Y56336D01*
X338947Y56261D01*
X338904Y56177D01*
X338878Y56085D01*
X338870Y55990D01*
X338882Y55895D01*
X338911Y55805D01*
X338959Y55722D01*
X339853Y55740D02*
X339895Y55821D01*
X339921Y55909D01*
X339930Y56000D01*
X339921Y56094D01*
X339893Y56184D01*
X339849Y56267D01*
X339789Y56339D01*
X339717Y56399D01*
X339634Y56443D01*
X339544Y56471D01*
X339450Y56480D01*
X341470Y46731D02*
X341496Y46586D01*
X342317Y46325D02*
X342390Y46391D01*
X342450Y46469D01*
X342494Y46557D01*
X342521Y46652D01*
X342530Y46750D01*
X342521Y46848D01*
X342494Y46943D01*
X342450Y47031D01*
X342390Y47109D01*
X342317Y47175D01*
X341683Y48025D02*
X341613Y47962D01*
X341555Y47888D01*
X341511Y47805D01*
X341483Y47715D01*
X341470Y47621D01*
X341475Y47527D01*
X341496Y47436D01*
Y48614D02*
X341475Y48523D01*
X341470Y48429D01*
X341483Y48335D01*
X341511Y48245D01*
X341555Y48162D01*
X341613Y48088D01*
X341683Y48025D01*
X342317Y47175D02*
X342390Y47241D01*
X342450Y47319D01*
X342494Y47407D01*
X342521Y47502D01*
X342530Y47600D01*
X342521Y47698D01*
X342494Y47793D01*
X342450Y47881D01*
X342390Y47959D01*
X342317Y48025D01*
X342390Y48091D01*
X342450Y48169D01*
X342494Y48257D01*
X342521Y48352D01*
X342530Y48450D01*
X340560Y49650D02*
X340578Y49558D01*
X340630Y49480D01*
X340560Y49650D02*
X340578Y49558D01*
X340630Y49480D01*
X342530Y48450D02*
X342521Y48548D01*
X342494Y48643D01*
X342450Y48731D01*
X342390Y48809D01*
X342317Y48875D01*
X342390Y48941D01*
X342450Y49019D01*
X342494Y49107D01*
X342521Y49202D01*
X342530Y49300D01*
X341496Y49464D02*
X341470Y49319D01*
X342360Y49689D02*
X342317Y49725D01*
X342360Y49761D01*
X343383Y47175D02*
X343310Y47109D01*
X343250Y47031D01*
X343206Y46943D01*
X343179Y46848D01*
X343170Y46750D01*
X343179Y46652D01*
X343206Y46557D01*
X343250Y46469D01*
X343310Y46391D01*
X343383Y46325D01*
X342985Y48025D02*
X342891Y48000D01*
X342806Y47954D01*
X342733Y47890D01*
X342676Y47812D01*
X342638Y47723D01*
X342621Y47627D01*
X342626Y47530D01*
X342652Y47437D01*
X342699Y47352D01*
X342763Y47280D01*
X342842Y47224D01*
X342931Y47187D01*
X343027Y47171D01*
X343124Y47176D01*
X343217Y47204D01*
X343301Y47251D01*
Y47949D02*
X343213Y47998D01*
X343115Y48025D01*
X343301Y47251D02*
X343383Y47175D01*
Y48025D02*
X343301Y47949D01*
Y48799D02*
X343217Y48846D01*
X343124Y48874D01*
X343027Y48879D01*
X342931Y48863D01*
X342842Y48826D01*
X342763Y48770D01*
X342699Y48698D01*
X342652Y48613D01*
X342626Y48520D01*
X342621Y48423D01*
X342638Y48327D01*
X342676Y48238D01*
X342733Y48160D01*
X342806Y48096D01*
X342891Y48050D01*
X342985Y48025D01*
X343115D02*
X343213Y48052D01*
X343301Y48101D01*
X343383Y48025D01*
Y48875D02*
X343301Y48799D01*
X344017Y46325D02*
X344090Y46391D01*
X344150Y46469D01*
X344194Y46557D01*
X344221Y46652D01*
X344230Y46750D01*
X344221Y46848D01*
X344194Y46943D01*
X344150Y47031D01*
X344090Y47109D01*
X344017Y47175D01*
X344090Y47241D01*
X344150Y47319D01*
X344194Y47407D01*
X344221Y47502D01*
X344230Y47600D01*
X344221Y47698D01*
X344194Y47793D01*
X344150Y47881D01*
X344090Y47959D01*
X344017Y48025D01*
X344090Y48091D01*
X344150Y48169D01*
X344194Y48257D01*
X344221Y48352D01*
X344230Y48450D01*
X344221Y48548D01*
X344194Y48643D01*
X344150Y48731D01*
X344090Y48809D01*
X344017Y48875D01*
X342830Y49130D02*
X342908Y49078D01*
X343000Y49060D01*
X342830Y49130D02*
X342908Y49078D01*
X343000Y49060D01*
X342530Y49300D02*
X342524Y49377D01*
X342507Y49453D01*
X343227Y49060D02*
X343295Y48958D01*
X343383Y48875D01*
Y49725D02*
X343295Y49642D01*
X343227Y49540D01*
X342985Y50575D02*
X342910Y50557D01*
X342840Y50525D01*
X342888Y49752D02*
X342992Y49724D01*
X343101Y49723D01*
X343206Y49749D01*
X343301Y49801D01*
Y50499D02*
X343213Y50548D01*
X343115Y50575D01*
X342840Y50625D02*
X342910Y50593D01*
X342985Y50575D01*
X343301Y51349D02*
X343216Y51397D01*
X343123Y51424D01*
X343026Y51429D01*
X342930Y51413D01*
X342840Y51375D01*
X343301Y49801D02*
X343383Y49725D01*
Y50575D02*
X343301Y50499D01*
X343115Y50575D02*
X343213Y50602D01*
X343301Y50651D01*
X343383Y50575D01*
X344017Y48875D02*
X344090Y48941D01*
X344150Y49019D01*
X344194Y49107D01*
X344221Y49202D01*
X344230Y49300D01*
X344221Y49398D01*
X344194Y49493D01*
X344150Y49581D01*
X344090Y49659D01*
X344017Y49725D01*
X344090Y49791D01*
X344150Y49869D01*
X344194Y49957D01*
X344221Y50052D01*
X344230Y50150D01*
X344221Y50248D01*
X344194Y50343D01*
X344150Y50431D01*
X344090Y50509D01*
X344017Y50575D01*
X344090Y50641D01*
X344150Y50719D01*
X344194Y50807D01*
X344221Y50902D01*
X344230Y51000D01*
X344221Y51098D01*
X344194Y51193D01*
X344149Y51281D01*
X344089Y51360D01*
X344016Y51425D01*
X343932Y51477D01*
X343839Y51511D01*
X343742Y51528D01*
X343644Y51527D01*
X343547Y51507D01*
X343456Y51470D01*
X343373Y51417D01*
X343301Y51349D01*
X341690Y52550D02*
X341672Y52642D01*
X341620Y52720D01*
X340820Y55670D02*
X340742Y55722D01*
X340650Y55740D01*
X340820Y55670D02*
X340742Y55722D01*
X340650Y55740D01*
X341690Y52550D02*
X341672Y52642D01*
X341620Y52720D01*
X342240Y53000D02*
X342222Y53092D01*
X342170Y53170D01*
X342240Y53000D02*
X342222Y53092D01*
X342170Y53170D01*
X342840Y53550D02*
X342822Y53642D01*
X342770Y53720D01*
X342840Y53550D02*
X342822Y53642D01*
X342770Y53720D01*
X344030Y55542D02*
X344026Y55642D01*
X344013Y55741D01*
X343992Y55839D01*
X343963Y55935D01*
X343925Y56028D01*
X343880Y56117D01*
X343828Y56202D01*
X343768Y56283D01*
X343702Y56358D01*
X343630Y56427D01*
X343552Y56490D01*
X343469Y56546D01*
X343381Y56595D01*
X343290Y56637D01*
X343196Y56670D01*
X343099Y56695D01*
X343000Y56712D01*
X342900Y56721D01*
X342800D01*
X342700Y56712D01*
X342601Y56695D01*
X342504Y56670D01*
X342410Y56637D01*
X342319Y56595D01*
X342231Y56546D01*
X342148Y56490D01*
X342070Y56427D01*
X341998Y56358D01*
X341932Y56283D01*
X341872Y56202D01*
X341820Y56117D01*
X341775Y56028D01*
X341737Y55935D01*
X341708Y55839D01*
X341687Y55741D01*
X341674Y55642D01*
X341670Y55542D01*
X341674Y55442D01*
X341687Y55342D01*
X341708Y55244D01*
X341737Y55149D01*
X341775Y55056D01*
X341820Y54966D01*
X341872Y54881D01*
X341932Y54800D01*
X341998Y54725D01*
X342070Y54656D01*
X342148Y54593D01*
X342231Y54537D01*
X342319Y54488D01*
X342410Y54447D01*
X342504Y54413D01*
X342601Y54388D01*
X342700Y54371D01*
X342800Y54363D01*
X342900D01*
X343000Y54371D01*
X343099Y54388D01*
X343196Y54413D01*
X343290Y54447D01*
X343381Y54488D01*
X343469Y54537D01*
X343552Y54593D01*
X343630Y54656D01*
X343702Y54725D01*
X343768Y54800D01*
X343828Y54881D01*
X343880Y54966D01*
X343925Y55056D01*
X343963Y55149D01*
X343992Y55244D01*
X344013Y55342D01*
X344026Y55442D01*
X344030Y55542D01*
X326700Y39750D02*
X331500Y44500D01*
Y45550D01*
X328550D02*
X331500D01*
X326700Y43700D02*
X328550Y45550D01*
X325900Y43700D02*
X326700D01*
X325700Y43900D02*
X325900Y43700D01*
X325700Y43900D02*
Y45450D01*
X326050Y45800D01*
Y50650D01*
X324000Y52700D02*
X326050Y50650D01*
X325250Y57200D02*
X325300Y57250D01*
X342000Y43350D02*
X342650D01*
X324200Y42200D02*
X325200D01*
X323200Y43200D02*
X324200Y42200D01*
X323200Y43200D02*
Y48550D01*
X338600Y35200D02*
X339400Y36000D01*
X330650Y35200D02*
X338600D01*
X328700Y37150D02*
X330650Y35200D01*
X338650Y36750D02*
X339400Y36000D01*
X338650Y36750D02*
Y46250D01*
X339400Y47000D01*
X335500Y44100D02*
X336400Y45000D01*
X335500Y39750D02*
Y44100D01*
X334500Y38750D02*
X335500Y39750D01*
X328550Y38750D02*
X334500D01*
X327550Y37750D02*
X328550Y38750D01*
X322800Y41950D02*
X323000Y41750D01*
X322800Y41950D02*
Y49100D01*
X323890Y50250D01*
X339400Y40000D02*
X340650Y41250D01*
Y44550D01*
X342000Y45900D01*
X339400Y39000D02*
X341000Y40600D01*
Y44050D01*
X342000Y45050D01*
X339400Y38000D02*
X341350Y39950D01*
Y43550D01*
X342000Y44200D01*
Y41650D02*
X343700D01*
X342850Y40800D02*
X343700Y41650D01*
X342850Y37108D02*
Y40800D01*
X321950Y40400D02*
X325050Y37300D01*
X321950Y40400D02*
Y41250D01*
X327500Y42200D02*
X330050Y44750D01*
X326200Y42200D02*
X327500D01*
X325700Y42700D02*
X326200Y42200D01*
X324600Y42700D02*
X325700D01*
X324600D02*
Y46600D01*
X321950Y41250D02*
X325250D01*
X326200Y42200D01*
X342850Y54250D02*
Y55542D01*
Y54250D02*
X344400Y52700D01*
Y47450D02*
Y52700D01*
X343700Y46750D02*
X344400Y47450D01*
X321500Y41700D02*
X321950Y41250D01*
X321500Y41700D02*
Y47650D01*
X319650Y49500D02*
X321500Y47650D01*
X309800Y49500D02*
X319650D01*
X305700Y52700D02*
Y53000D01*
Y52700D02*
X306400Y52000D01*
X307500D01*
X338800Y56000D02*
X339400D01*
X338450Y55650D02*
X338800Y56000D01*
X338450Y48050D02*
Y55650D01*
Y48050D02*
X339000Y47500D01*
X340000D01*
Y46550D02*
Y47500D01*
X339400Y45950D02*
X340000Y46550D01*
X339400Y45000D02*
Y45950D01*
Y42000D02*
X339950Y42550D01*
Y45550D01*
X342000Y47600D01*
X339400Y41000D02*
X340300Y41900D01*
Y45050D01*
X342000Y46750D01*
X319800Y51850D02*
X322600Y54650D01*
X311300Y51900D02*
X319800Y51850D01*
X309200Y54000D02*
X311300Y51900D01*
X306500Y54000D02*
X309200D01*
X319450Y52300D02*
X323500Y56350D01*
X311950Y52300D02*
X319450D01*
X309300Y54950D02*
X311950Y52300D01*
X306250Y54950D02*
X309300D01*
X305700Y54400D02*
X306250Y54950D01*
X305700Y54000D02*
Y54400D01*
X343050Y48450D02*
X343700D01*
X343000Y49300D02*
X343700D01*
X342600Y49700D02*
X343000Y49300D01*
X342600Y49700D02*
Y53550D01*
X340650Y55500D02*
X342600Y53550D01*
X339050Y55500D02*
X340650D01*
X338700Y55150D02*
X339050Y55500D01*
X338700Y49700D02*
Y55150D01*
Y49700D02*
X339400Y49000D01*
X343050Y50150D02*
X343700D01*
X340800Y49650D02*
X342000Y48450D01*
X340800Y49650D02*
Y51200D01*
X340000Y52000D02*
X340800Y51200D01*
X339400Y52000D02*
X340000D01*
X341200Y50100D02*
X342000Y49300D01*
X341200Y50100D02*
Y51800D01*
X340000Y53000D02*
X341200Y51800D01*
X339400Y53000D02*
X340000D01*
X339400Y54000D02*
X340000D01*
X341450Y52550D01*
Y50350D02*
Y52550D01*
Y50350D02*
X341650Y50150D01*
X342000D01*
X339400Y55000D02*
X340000D01*
X342000Y53000D01*
Y51000D02*
Y53000D01*
Y42500D02*
X342650D01*
X333750Y40250D02*
Y43750D01*
X335000Y45000D01*
Y54600D01*
X336400Y56000D01*
X323100Y52000D02*
Y52700D01*
Y52000D02*
X324500Y50600D01*
Y49850D02*
Y50600D01*
X323200Y48550D02*
X324500Y49850D01*
X320880Y41400D02*
X322750D01*
X322560Y34730D02*
Y41950D01*
X320880Y36240D02*
X324523D01*
X320880Y41760D02*
X322570D01*
X320880Y41880D02*
X322570D01*
X320880Y41520D02*
X322637D01*
X320880Y41640D02*
X322584D01*
X322800Y34730D02*
Y41369D01*
X322680Y34730D02*
Y41463D01*
X323040Y34730D02*
Y41322D01*
X322920Y34730D02*
Y41328D01*
X323160Y34730D02*
Y41351D01*
X323280Y34730D02*
Y41424D01*
X323400Y34730D02*
Y41592D01*
X320880Y42000D02*
X322560D01*
X323400Y41908D02*
Y42661D01*
X320880Y42120D02*
X322560D01*
X323280Y42076D02*
Y42781D01*
X323350Y42000D02*
X324067D01*
X323040Y43021D02*
X324030Y42030D01*
X323640Y34730D02*
Y42421D01*
X323520Y34730D02*
Y42541D01*
X323880Y34730D02*
Y42181D01*
X323760Y34730D02*
Y42301D01*
X324120Y34730D02*
Y41974D01*
X324000Y34730D02*
Y42061D01*
X324240Y34730D02*
Y41960D01*
X320880Y36120D02*
X324552D01*
X320880Y36360D02*
X324523D01*
X320880Y35880D02*
X324727D01*
X320880Y36000D02*
X324613D01*
X320880Y36480D02*
X324552D01*
X320880Y36600D02*
X324613D01*
X320880Y36720D02*
X324727D01*
X320880Y36840D02*
X324787D01*
X320880Y37200D02*
X324530D01*
X320880Y37320D02*
X324520D01*
X320880Y36960D02*
X324643D01*
X320880Y37080D02*
X324568D01*
X320880Y37440D02*
X324539D01*
X320880Y37560D02*
X324588D01*
X320880Y37680D02*
X324681D01*
X320880Y37800D02*
X324874D01*
X320880Y37920D02*
X324681D01*
X320880Y38160D02*
X324539D01*
X320880Y38280D02*
X324520D01*
X320880Y38040D02*
X324588D01*
X320880Y38400D02*
X324530D01*
X320880Y38520D02*
X324568D01*
X320880Y38640D02*
X324643D01*
X320880Y38760D02*
X324787D01*
X320880Y39360D02*
X326519D01*
X320880Y39600D02*
X326297D01*
X320880Y39720D02*
X326271D01*
X320880Y39480D02*
X326365D01*
X320880Y39840D02*
X326280D01*
X323410Y41880D02*
X324829D01*
X324200Y41960D02*
X324773D01*
X320880Y39960D02*
X326325D01*
X320880Y40080D02*
X326424D01*
X323430Y41760D02*
X324984D01*
X320880Y42240D02*
X322560D01*
X320880Y42360D02*
X322560D01*
X320880Y42480D02*
X322560D01*
X320880Y42600D02*
X322560D01*
X320880Y42720D02*
X322560D01*
X320880Y42840D02*
X322560D01*
X320880Y42960D02*
X322560D01*
X320880Y43080D02*
X322560D01*
X323040Y42178D02*
Y43021D01*
Y42178D02*
Y43021D01*
Y42840D02*
X323221D01*
X323160Y42149D02*
Y42901D01*
X320880Y43200D02*
X322560D01*
X320880Y43320D02*
X322560D01*
X323040Y42960D02*
X323101D01*
X320880Y43440D02*
X322560D01*
X320880Y43560D02*
X322560D01*
X320880Y43680D02*
X322560D01*
X320880Y43800D02*
X322560D01*
X320880Y43920D02*
X322560D01*
X320880Y44040D02*
X322560D01*
X320880Y44160D02*
X322560D01*
X320880Y44280D02*
X322560D01*
X320880Y44400D02*
X322560D01*
X320880Y44520D02*
X322560D01*
X320880Y44640D02*
X322560D01*
X320880Y44760D02*
X322560D01*
X320880Y44880D02*
X322560D01*
X320880Y45000D02*
X322560D01*
X320880Y45120D02*
X322560D01*
X320880Y45240D02*
X322560D01*
X320880Y45360D02*
X322560D01*
X320880Y45480D02*
X322560D01*
X320880Y45600D02*
X322560D01*
X323040Y42240D02*
X323821D01*
X323040Y42360D02*
X323701D01*
X323219Y42120D02*
X323941D01*
X323440Y43299D02*
X324299Y42440D01*
X323040Y42600D02*
X323461D01*
X323040Y42720D02*
X323341D01*
X323040Y42480D02*
X323581D01*
X323440Y43320D02*
X324725D01*
X323899Y42840D02*
X324868D01*
X323779Y42960D02*
X324773D01*
X324139Y42600D02*
X324917D01*
X324019Y42720D02*
X325102D01*
X323659Y43080D02*
X324725D01*
X323539Y43200D02*
X324710D01*
X323440Y43440D02*
X324773D01*
X323440Y43560D02*
X324868D01*
X323440Y43680D02*
X325102D01*
X323440Y43800D02*
X324710D01*
X323440Y43920D02*
X324710D01*
X323440Y44040D02*
X324710D01*
X323440Y44160D02*
X324710D01*
X323440Y44280D02*
X324710D01*
X323440Y44400D02*
X324710D01*
X323440Y44520D02*
X324710D01*
X323440Y44640D02*
X324710D01*
X324120Y42619D02*
Y45522D01*
X324000Y42739D02*
Y45584D01*
X323440Y44760D02*
X325460D01*
X323440Y44880D02*
X325460D01*
X323440Y45000D02*
X325460D01*
X323440Y45480D02*
X324229D01*
X323440Y45120D02*
X325460D01*
X323440Y45240D02*
X325460D01*
X323440Y45360D02*
X325460D01*
X324720Y34730D02*
Y35885D01*
X324600Y34730D02*
Y36020D01*
X324960Y34730D02*
Y35778D01*
X324840Y34730D02*
Y35813D01*
X324720Y36715D02*
Y36885D01*
X324600Y36580D02*
Y37020D01*
X325080Y34730D02*
Y35771D01*
X325200Y34730D02*
Y35792D01*
X325320Y34730D02*
Y35844D01*
X325440Y34730D02*
Y35941D01*
X325320Y36756D02*
Y36844D01*
X325440Y36659D02*
Y36941D01*
X325560Y34730D02*
Y36156D01*
Y36444D02*
Y37156D01*
X324360Y34730D02*
Y41960D01*
X324480Y34730D02*
Y41960D01*
X324720Y37715D02*
Y37885D01*
X324600Y37580D02*
Y38020D01*
Y38580D02*
Y41960D01*
X324360Y42440D02*
Y45445D01*
X324720Y38715D02*
Y41960D01*
X324299Y42440D02*
X324773D01*
X325320Y37756D02*
Y37844D01*
X325440Y37659D02*
Y37941D01*
X325560Y37444D02*
Y38156D01*
X325440Y38659D02*
Y41773D01*
X324960Y38822D02*
Y41773D01*
X324840Y38787D02*
Y41868D01*
X325200Y38808D02*
Y41710D01*
X325080Y38829D02*
Y41725D01*
X325320Y38756D02*
Y41725D01*
X325920Y34730D02*
Y41798D01*
X325416Y41760D02*
X325984D01*
X326160Y34730D02*
Y41712D01*
X326040Y34730D02*
Y41737D01*
X326400Y34730D02*
Y39442D01*
X326280Y34730D02*
Y39658D01*
Y39842D02*
Y41717D01*
X326400Y40058D02*
Y41753D01*
X326640Y34730D02*
Y39324D01*
X326520Y34730D02*
Y39359D01*
Y40141D02*
Y41829D01*
X325560Y38444D02*
Y41868D01*
X325680Y34730D02*
Y42102D01*
X325571Y41880D02*
X325829D01*
X325683Y42120D02*
X325717D01*
X325647Y42000D02*
X325753D01*
X325663Y42360D02*
X325737D01*
X325800Y34730D02*
Y41917D01*
X326640Y40176D02*
Y41984D01*
X325680Y42298D02*
Y43102D01*
X326640Y42416D02*
Y42984D01*
X324259Y42480D02*
X324798D01*
X324720Y42440D02*
Y43102D01*
X324960Y42627D02*
Y42773D01*
X324840Y42532D02*
Y42868D01*
X324720Y43298D02*
Y43710D01*
X324840Y43532D02*
Y43710D01*
X325080Y42675D02*
Y42725D01*
X325320Y42675D02*
Y42725D01*
X325440Y42627D02*
Y42773D01*
X325560Y42532D02*
Y42868D01*
X325675Y43080D02*
X325725D01*
X325560Y43532D02*
Y43701D01*
X325299Y43680D02*
X325581D01*
X325675Y43320D02*
X325725D01*
X325532Y43560D02*
X325701D01*
X325680Y43298D02*
Y43581D01*
X324480Y42440D02*
Y45426D01*
X324240Y42499D02*
Y45476D01*
X324710Y43710D02*
X325551D01*
X324600Y42440D02*
Y45420D01*
X324710Y43710D02*
Y44690D01*
X324720D02*
Y45426D01*
X324710Y44690D02*
X325460D01*
X324840D02*
Y45445D01*
X324960Y43627D02*
Y43710D01*
X325080Y43675D02*
Y43710D01*
X325320Y43675D02*
Y43710D01*
X325440Y43627D02*
Y43710D01*
X324960Y44690D02*
Y45476D01*
X325080Y44690D02*
Y45522D01*
X325460Y44690D02*
Y45450D01*
X324971Y45480D02*
X325462D01*
X325200Y44690D02*
Y45584D01*
X325602Y42480D02*
X325798D01*
X325483Y42600D02*
X325917D01*
X325299Y42720D02*
X326101D01*
X325627Y42960D02*
X325773D01*
X325627Y43440D02*
X325773D01*
X325532Y42840D02*
X325868D01*
X325920Y42602D02*
Y42798D01*
X325800Y42483D02*
Y42917D01*
X326400Y42647D02*
Y42753D01*
X326520Y42571D02*
Y42829D01*
X326280Y42683D02*
Y42717D01*
X326040Y42663D02*
Y42737D01*
X326640Y43416D02*
Y43460D01*
X326615D02*
X326700D01*
X325551Y43710D02*
X325730Y43530D01*
X325940Y44640D02*
X325984D01*
X325940Y44760D02*
X326230D01*
X325940Y44880D02*
X326230D01*
X325940Y45000D02*
X326230D01*
X325940Y45120D02*
X326230D01*
X325940Y44615D02*
Y45351D01*
X326663Y44040D02*
X326701D01*
X326040Y44663D02*
Y45451D01*
X326160Y44688D02*
Y45571D01*
X325940Y45240D02*
X326230D01*
X325949Y45360D02*
X326230D01*
X326069Y45480D02*
X326230D01*
X303840Y47730D02*
Y50242D01*
X303720Y47730D02*
Y50374D01*
X304080Y47730D02*
Y50067D01*
X303960Y47730D02*
Y50143D01*
X304320Y47730D02*
Y49967D01*
X304200Y47730D02*
Y50009D01*
X304560Y47730D02*
Y49923D01*
X304440Y47730D02*
Y49939D01*
X304680Y47730D02*
Y49920D01*
X304800Y47730D02*
Y49930D01*
X304920Y47730D02*
Y49951D01*
X305040Y47730D02*
Y49986D01*
X305160Y47730D02*
Y50036D01*
X305280Y47730D02*
Y50102D01*
X305400Y47730D02*
Y50189D01*
X305520Y47730D02*
Y50303D01*
X301930Y47730D02*
Y58470D01*
X302040Y47730D02*
Y58470D01*
X302160Y47730D02*
Y58470D01*
X302280Y47730D02*
Y58470D01*
X302400Y47730D02*
Y58470D01*
X302520Y47730D02*
Y58470D01*
X302640Y47730D02*
Y58470D01*
X302760Y47730D02*
Y58470D01*
X302880Y47730D02*
Y58470D01*
X303000Y47730D02*
Y58470D01*
X303120Y47730D02*
Y58470D01*
X303240Y47730D02*
Y58470D01*
X303480Y47730D02*
Y50947D01*
X303360Y47730D02*
Y58470D01*
X305640Y47730D02*
Y50458D01*
X303600Y47730D02*
Y50562D01*
X305760Y47730D02*
Y50700D01*
X305880Y47730D02*
Y52427D01*
X306000Y47730D02*
Y52488D01*
X301930Y47730D02*
X320650D01*
X306120D02*
Y52556D01*
X306360Y47730D02*
Y52414D01*
X306240Y47730D02*
Y52463D01*
X306480Y47730D02*
Y52395D01*
X306600Y47730D02*
Y52405D01*
X306720Y47730D02*
Y52443D01*
X306840Y47730D02*
Y52518D01*
X307440Y47730D02*
Y52574D01*
X307560Y47730D02*
Y52574D01*
X309360Y47730D02*
Y49122D01*
X309240Y47730D02*
Y49349D01*
X309720Y47730D02*
Y48926D01*
X309480Y47730D02*
Y49016D01*
X309600Y47730D02*
Y48956D01*
X306960Y47730D02*
Y52662D01*
X307080Y47730D02*
Y52680D01*
X307320Y47730D02*
Y52609D01*
X307200Y47730D02*
Y52680D01*
X307680Y47730D02*
Y52609D01*
X307800Y47730D02*
Y52692D01*
X307920Y47730D02*
Y52908D01*
X308040Y47730D02*
Y53760D01*
X308160Y47730D02*
Y53760D01*
X308280Y47730D02*
Y53760D01*
X308400Y47730D02*
Y53760D01*
X308520Y47730D02*
Y53760D01*
X308640Y47730D02*
Y53760D01*
X308760Y47730D02*
Y53760D01*
X309120Y47730D02*
Y53741D01*
X308880Y47730D02*
Y53760D01*
X309000Y47730D02*
Y53760D01*
X309840Y47730D02*
Y48921D01*
X309960Y47730D02*
Y48943D01*
X310080Y47730D02*
Y48992D01*
X310200Y47730D02*
Y49080D01*
X310320Y47730D02*
Y49243D01*
X311280Y47730D02*
Y51661D01*
X311400Y47730D02*
Y51659D01*
X311520Y47730D02*
Y51659D01*
X311640Y47730D02*
Y51658D01*
X311760Y47730D02*
Y51657D01*
X311880Y47730D02*
Y51657D01*
X312000Y47730D02*
Y51656D01*
X312120Y47730D02*
Y51655D01*
X312240Y47730D02*
Y51654D01*
X312360Y47730D02*
Y51654D01*
X312480Y47730D02*
Y51653D01*
X312600Y47730D02*
Y51652D01*
X310560Y47730D02*
Y52301D01*
X310440Y47730D02*
Y52421D01*
X310800Y47730D02*
Y52061D01*
X310680Y47730D02*
Y52181D01*
X311040Y47730D02*
Y51821D01*
X310920Y47730D02*
Y51941D01*
X312720Y47730D02*
Y51652D01*
X311160Y47730D02*
Y51705D01*
X312840Y47730D02*
Y51651D01*
X312960Y47730D02*
Y51650D01*
X313080Y47730D02*
Y51650D01*
X313200Y47730D02*
Y51649D01*
X313320Y47730D02*
Y51648D01*
X313440Y47730D02*
Y51647D01*
X313560Y47730D02*
Y51647D01*
X313680Y47730D02*
Y51646D01*
X313800Y47730D02*
Y51645D01*
X315240Y47730D02*
Y51637D01*
X315360Y47730D02*
Y51636D01*
X315480Y47730D02*
Y51635D01*
X315600Y47730D02*
Y51635D01*
X315720Y47730D02*
Y51634D01*
X315840Y47730D02*
Y51633D01*
X301930Y47760D02*
X322560D01*
X315960Y47730D02*
Y51633D01*
X316080Y47730D02*
Y51632D01*
X316200Y47730D02*
Y51631D01*
X316320Y47730D02*
Y51630D01*
X316440Y47730D02*
Y51630D01*
X316560Y47730D02*
Y51629D01*
X316680Y47730D02*
Y51628D01*
X316800Y47730D02*
Y51628D01*
X316920Y47730D02*
Y51627D01*
X317040Y47730D02*
Y51626D01*
X313920Y47730D02*
Y51645D01*
X314040Y47730D02*
Y51644D01*
X314160Y47730D02*
Y51643D01*
X314280Y47730D02*
Y51642D01*
X314400Y47730D02*
Y51642D01*
X314520Y47730D02*
Y51641D01*
X314640Y47730D02*
Y51640D01*
X314760Y47730D02*
Y51640D01*
X314880Y47730D02*
Y51639D01*
X315000Y47730D02*
Y51638D01*
X317160Y47730D02*
Y51626D01*
X315120Y47730D02*
Y51638D01*
X317280Y47730D02*
Y51625D01*
X317400Y47730D02*
Y51624D01*
X317520Y47730D02*
Y51623D01*
X317640Y47730D02*
Y51623D01*
X317760Y47730D02*
Y51622D01*
X320880Y45720D02*
X322560D01*
X320880Y45840D02*
X322560D01*
X320880Y45960D02*
X322560D01*
X320880Y46080D02*
X322560D01*
X320880Y46200D02*
X322560D01*
X320880Y46320D02*
X322560D01*
X320880Y46440D02*
X322560D01*
X320880Y46560D02*
X322560D01*
X323440Y43299D02*
Y46384D01*
X320880Y34730D02*
Y47500D01*
X323440Y45960D02*
X323609D01*
X323520Y43219D02*
Y46125D01*
X320880Y46680D02*
X322560D01*
X320880Y46800D02*
X322560D01*
X323440Y46080D02*
X323541D01*
X320880Y46920D02*
X322560D01*
X323440Y46200D02*
X323490D01*
X320880Y34730D02*
Y47500D01*
X321000Y34730D02*
Y52711D01*
X321120Y34730D02*
Y52831D01*
X321240Y34730D02*
Y52951D01*
X321360Y34730D02*
Y53071D01*
X321480Y34730D02*
Y53191D01*
X321600Y34730D02*
Y53311D01*
X321720Y34730D02*
Y53431D01*
X321840Y34730D02*
Y53551D01*
X321960Y34730D02*
Y53671D01*
X322080Y34730D02*
Y53791D01*
X322200Y34730D02*
Y53911D01*
X322320Y34730D02*
Y54031D01*
X322440Y34730D02*
Y54151D01*
X323440Y46816D02*
Y48451D01*
X322560Y41950D02*
Y49100D01*
Y41950D02*
Y49100D01*
X323760Y42979D02*
Y45771D01*
X323640Y43099D02*
Y45914D01*
X323880Y42859D02*
Y45665D01*
X325320Y44690D02*
Y45665D01*
X323440Y45720D02*
X323814D01*
X323440Y45840D02*
X323697D01*
X323440Y45600D02*
X323974D01*
X325226D02*
X325513D01*
X325440Y44690D02*
Y45771D01*
X326230Y44689D02*
Y45641D01*
X325940Y45351D02*
X326220Y45630D01*
X325386Y45720D02*
X325631D01*
X326189Y45600D02*
X326230D01*
X325503Y45840D02*
X325751D01*
X325530Y45620D02*
X325810Y45899D01*
X325560Y45649D02*
Y45914D01*
X325591Y45960D02*
X325810D01*
X325659Y46080D02*
X325810D01*
X325680Y45769D02*
Y46125D01*
X325800Y45889D02*
Y50561D01*
X325710Y46200D02*
X325810D01*
Y45899D02*
Y50551D01*
X325746Y46320D02*
X325810D01*
X325769Y46440D02*
X325810D01*
X325779Y46560D02*
X325810D01*
X325777Y46680D02*
X325810D01*
X325763Y46800D02*
X325810D01*
X317880Y47730D02*
Y51621D01*
X318000Y47730D02*
Y51621D01*
X318120Y47730D02*
Y51620D01*
X318240Y47730D02*
Y51619D01*
X318360Y47730D02*
Y51618D01*
X318480Y47730D02*
Y51618D01*
X318600Y47730D02*
Y51617D01*
X318720Y47730D02*
Y51616D01*
X320880Y47040D02*
X322560D01*
X320880Y47160D02*
X322560D01*
X320880Y47280D02*
X322560D01*
X320880Y47400D02*
X322560D01*
X318840Y47730D02*
Y51616D01*
X320879Y47520D02*
X322560D01*
X320832Y47640D02*
X322560D01*
X318960Y47730D02*
Y51615D01*
X319080Y47730D02*
Y51614D01*
X319200Y47730D02*
Y51614D01*
X319320Y47730D02*
Y51613D01*
X319440Y47730D02*
Y51612D01*
X319560Y47730D02*
Y51611D01*
X319680Y47730D02*
Y51611D01*
X319800Y47730D02*
Y51610D01*
X319920Y47730D02*
Y51642D01*
X320040Y47730D02*
Y51751D01*
X320760Y47702D02*
Y52471D01*
X320880Y47500D02*
Y52591D01*
X320160Y47730D02*
Y51871D01*
X320280Y47730D02*
Y51991D01*
X320400Y47730D02*
Y52111D01*
X320520Y47730D02*
Y52231D01*
X320640Y47730D02*
Y52351D01*
X323440Y47040D02*
X323505D01*
X323520Y47075D02*
Y48531D01*
X323440Y47160D02*
X323561D01*
X323440Y47280D02*
X323636D01*
X323440Y47400D02*
X323733D01*
X323440Y47520D02*
X323861D01*
X323440Y47640D02*
X324043D01*
X323440Y47760D02*
X324384D01*
X325736Y46920D02*
X325810D01*
X323640Y47286D02*
Y48651D01*
X325695Y47040D02*
X325810D01*
X325639Y47160D02*
X325810D01*
X325564Y47280D02*
X325810D01*
X325467Y47400D02*
X325810D01*
X325339Y47520D02*
X325810D01*
X324816Y47760D02*
X325810D01*
X325158Y47640D02*
X325810D01*
X323760Y47429D02*
Y48771D01*
X323880Y47535D02*
Y48891D01*
X324000Y47616D02*
Y49011D01*
X324120Y47678D02*
Y49131D01*
X324240Y47724D02*
Y49251D01*
X324360Y47755D02*
Y49371D01*
X324480Y47774D02*
Y49491D01*
X324600Y47780D02*
Y49611D01*
X325440Y47429D02*
Y50921D01*
X325320Y47535D02*
Y51041D01*
X325680Y47075D02*
Y50681D01*
X325560Y47286D02*
Y50801D01*
X324720Y47774D02*
Y49754D01*
X324840Y47755D02*
Y51521D01*
X325200Y47616D02*
Y51161D01*
X324960Y47724D02*
Y51401D01*
X325080Y47678D02*
Y51281D01*
X325532Y37080D02*
X328276D01*
X327240Y34730D02*
Y37452D01*
X325313Y36840D02*
X328402D01*
X325457Y36960D02*
X328314D01*
X325561Y37440D02*
X327252D01*
X325512Y37560D02*
X327164D01*
X325570Y37200D02*
X328273D01*
X325580Y37320D02*
X327550D01*
X327480Y34730D02*
Y37326D01*
X327360Y34730D02*
Y37364D01*
X327600Y34730D02*
Y37323D01*
X327720Y34730D02*
Y37355D01*
X327840Y34730D02*
Y37433D01*
X327960Y34730D02*
Y37620D01*
X328320Y34730D02*
Y36949D01*
X327550Y37320D02*
X328305D01*
X326760Y34730D02*
Y39324D01*
X326880Y34730D02*
Y39359D01*
X325419Y37680D02*
X327126D01*
X327000Y34730D02*
Y39442D01*
X325226Y37800D02*
X327123D01*
X325419Y37920D02*
X327155D01*
X325512Y38040D02*
X327233D01*
X325561Y38160D02*
X327420D01*
X327120Y34730D02*
Y37750D01*
X328080Y34730D02*
Y37941D01*
X328200Y34730D02*
Y38061D01*
X327120Y37750D02*
Y39658D01*
X327240Y38048D02*
Y39947D01*
X327360Y38136D02*
Y40065D01*
X328320Y37351D02*
Y38181D01*
X320880Y34730D02*
X347220D01*
X320880Y35040D02*
X330471D01*
X320880Y34800D02*
X347220D01*
X320880Y34920D02*
X347220D01*
X320880Y35400D02*
X330111D01*
X320880Y35520D02*
X329991D01*
X320880Y35160D02*
X330351D01*
X320880Y35280D02*
X330231D01*
X325373Y35880D02*
X329631D01*
X325487Y36000D02*
X329511D01*
X320880Y35640D02*
X329871D01*
X320880Y35760D02*
X329751D01*
X325549Y36480D02*
X329031D01*
X325487Y36600D02*
X328911D01*
X325549Y36120D02*
X329391D01*
X325577Y36240D02*
X329271D01*
X325577Y36360D02*
X329151D01*
X327848Y37440D02*
X328382D01*
X327936Y37560D02*
X328570D01*
X325373Y36720D02*
X328700D01*
X327974Y37680D02*
X335978D01*
X328059Y37920D02*
X335876D01*
X327972Y37833D02*
X328649Y38510D01*
X327977Y37800D02*
X335909D01*
X328179Y38040D02*
X335872D01*
X328560Y34730D02*
Y36743D01*
X328440Y34730D02*
Y36808D01*
X328680Y34730D02*
Y36720D01*
X328783Y36728D02*
X330480Y35030D01*
X328440Y37492D02*
Y38301D01*
X328560Y37557D02*
Y38421D01*
X328700Y36720D02*
X328791D01*
X328680Y37580D02*
Y38510D01*
X325580Y38280D02*
X327741D01*
X325532Y38520D02*
X327981D01*
X325457Y38640D02*
X328101D01*
X325313Y38760D02*
X328221D01*
X320880Y40200D02*
X326814D01*
X320880Y40320D02*
X326935D01*
X320880Y38880D02*
X328341D01*
X320880Y40440D02*
X327056D01*
X327480Y38174D02*
Y40184D01*
X327600Y38177D02*
Y40303D01*
X327633Y38172D02*
X328380Y38920D01*
X327720Y38259D02*
Y40422D01*
X325570Y38400D02*
X327861D01*
X327840Y38379D02*
Y40540D01*
X320880Y40560D02*
X327177D01*
X320880Y40680D02*
X327299D01*
X320880Y40800D02*
X327420D01*
X320880Y40920D02*
X327541D01*
X320880Y41040D02*
X327662D01*
X320880Y41160D02*
X327784D01*
X320880Y41280D02*
X327905D01*
X323250Y41400D02*
X328026D01*
X327960Y38499D02*
Y40659D01*
X328080Y38619D02*
Y40778D01*
X328200Y38739D02*
Y40897D01*
X328320Y38859D02*
Y41015D01*
X323363Y41520D02*
X328147D01*
X323416Y41640D02*
X328269D01*
X328440Y38963D02*
Y41134D01*
X326416Y41760D02*
X328390D01*
X326571Y41880D02*
X328511D01*
X320880Y39000D02*
X334411D01*
X320880Y39120D02*
X334531D01*
X320880Y39240D02*
X334651D01*
X326881Y39360D02*
X334771D01*
X327035Y39480D02*
X334891D01*
X327132Y39840D02*
X333620D01*
X327103Y39600D02*
X335011D01*
X327129Y39720D02*
X335131D01*
X328299Y38160D02*
X335895D01*
X328649Y38510D02*
X334500D01*
X328419Y38280D02*
X335950D01*
X328539Y38400D02*
X336052D01*
X327496Y40200D02*
X333323D01*
X328550Y38990D02*
X334401D01*
X327253Y39960D02*
X333433D01*
X327375Y40080D02*
X333355D01*
X327617Y40320D02*
X333326D01*
X326647Y42000D02*
X328632D01*
X327738Y40440D02*
X333364D01*
X327860Y40560D02*
X333452D01*
X326683Y42120D02*
X328754D01*
X326688Y42240D02*
X328875D01*
X326663Y42360D02*
X328996D01*
X326602Y42480D02*
X329118D01*
X328560Y38990D02*
Y41253D01*
X328680Y38990D02*
Y41372D01*
X327981Y40680D02*
X333510D01*
X328102Y40800D02*
X333510D01*
X328224Y40920D02*
X333510D01*
X328345Y41040D02*
X333510D01*
X328466Y41160D02*
X333510D01*
X328587Y41280D02*
X333510D01*
X328709Y41400D02*
X333510D01*
X330000Y34730D02*
Y35511D01*
X329880Y34730D02*
Y35631D01*
X330240Y34730D02*
Y35271D01*
X330120Y34730D02*
Y35391D01*
X330480Y34730D02*
Y35031D01*
X330360Y34730D02*
Y35151D01*
X330600Y34730D02*
Y34965D01*
X330720Y34730D02*
Y34960D01*
X330840Y34730D02*
Y34960D01*
X330960Y34730D02*
Y34960D01*
X331080Y34730D02*
Y34960D01*
X331200Y34730D02*
Y34960D01*
X331320Y34730D02*
Y34960D01*
X331440Y34730D02*
Y34960D01*
X331560Y34730D02*
Y34960D01*
X328920Y34730D02*
Y36591D01*
X328800Y34730D02*
Y36711D01*
X329160Y34730D02*
Y36351D01*
X329040Y34730D02*
Y36471D01*
X329400Y34730D02*
Y36111D01*
X329280Y34730D02*
Y36231D01*
X329520Y34730D02*
Y35991D01*
X329122Y37067D02*
X330749Y35440D01*
X329760Y34730D02*
Y35751D01*
X329640Y34730D02*
Y35871D01*
X330840Y35440D02*
Y38510D01*
X330960Y35440D02*
Y38510D01*
X331080Y35440D02*
Y38510D01*
X331200Y35440D02*
Y38510D01*
X331320Y35440D02*
Y38510D01*
X331440Y35440D02*
Y38510D01*
X331560Y35440D02*
Y38510D01*
X331680Y34730D02*
Y34960D01*
X331800Y34730D02*
Y34960D01*
X331920Y34730D02*
Y34960D01*
X332040Y34730D02*
Y34960D01*
X332160Y34730D02*
Y34960D01*
X332280Y34730D02*
Y34960D01*
X332400Y34730D02*
Y34960D01*
X332520Y34730D02*
Y34960D01*
X332640Y34730D02*
Y34960D01*
X332760Y34730D02*
Y34960D01*
X332880Y34730D02*
Y34960D01*
X333000Y34730D02*
Y34960D01*
X333120Y34730D02*
Y34960D01*
X333240Y34730D02*
Y34960D01*
X333360Y34730D02*
Y34960D01*
X333480Y34730D02*
Y34960D01*
X333600Y34730D02*
Y34960D01*
X331680Y35440D02*
Y38510D01*
X331800Y35440D02*
Y38510D01*
X330650Y34960D02*
X338600D01*
X330749Y35440D02*
X338501D01*
X331920D02*
Y38510D01*
X332040Y35440D02*
Y38510D01*
X332160Y35440D02*
Y38510D01*
X332280Y35440D02*
Y38510D01*
X332400Y35440D02*
Y38510D01*
X332520Y35440D02*
Y38510D01*
X333720Y34730D02*
Y34960D01*
X333840Y34730D02*
Y34960D01*
X332640Y35440D02*
Y38510D01*
X332760Y35440D02*
Y38510D01*
X332880Y35440D02*
Y38510D01*
X333000Y35440D02*
Y38510D01*
X333120Y35440D02*
Y38510D01*
X329160Y37029D02*
Y38510D01*
X329280Y36909D02*
Y38510D01*
X329400Y36789D02*
Y38510D01*
X329520Y36669D02*
Y38510D01*
X328800Y37568D02*
Y38510D01*
X328920Y37519D02*
Y38510D01*
X329040Y37413D02*
Y38510D01*
X330240Y35949D02*
Y38510D01*
X330360Y35829D02*
Y38510D01*
X330480Y35709D02*
Y38510D01*
X330600Y35589D02*
Y38510D01*
X329640Y36549D02*
Y38510D01*
X329760Y36429D02*
Y38510D01*
X329880Y36309D02*
Y38510D01*
X330000Y36189D02*
Y38510D01*
X330120Y36069D02*
Y38510D01*
X328800Y38990D02*
Y41490D01*
X328920Y38990D02*
Y41609D01*
X329040Y38990D02*
Y41728D01*
X329160Y38990D02*
Y41847D01*
X329280Y38990D02*
Y41965D01*
X329400Y38990D02*
Y42084D01*
X328830Y41520D02*
X333510D01*
X329520Y38990D02*
Y42203D01*
X330720Y35469D02*
Y38510D01*
X333240Y35440D02*
Y38510D01*
X333360Y35440D02*
Y38510D01*
X333480Y35440D02*
Y38510D01*
X329640Y38990D02*
Y42322D01*
X329760Y38990D02*
Y42440D01*
X333480Y38990D02*
Y39915D01*
X329880Y38990D02*
Y42559D01*
X333360Y38990D02*
Y40069D01*
X329349Y36840D02*
X335897D01*
X329229Y36960D02*
X335872D01*
X329589Y36600D02*
X336085D01*
X329469Y36720D02*
X335960D01*
X329124Y37080D02*
X335877D01*
X329127Y37200D02*
X335914D01*
X329095Y37320D02*
X335992D01*
X329017Y37440D02*
X336158D01*
X330429Y35760D02*
X335934D01*
X330309Y35880D02*
X335885D01*
X330669Y35520D02*
X336350D01*
X330549Y35640D02*
X336033D01*
X330189Y36000D02*
X335870D01*
X330069Y36120D02*
X335885D01*
X329949Y36240D02*
X335934D01*
X329709Y36480D02*
X336350D01*
X329829Y36360D02*
X336033D01*
X328951Y41640D02*
X333510D01*
X329072Y41760D02*
X333510D01*
X328830Y37560D02*
X336105D01*
X329194Y41880D02*
X333510D01*
X329315Y42000D02*
X333510D01*
X329436Y42120D02*
X333510D01*
X329557Y42240D02*
X333510D01*
X329679Y42360D02*
X333510D01*
X333600Y35440D02*
Y38510D01*
Y38990D02*
Y39847D01*
X333720Y35440D02*
Y38510D01*
X333840Y35440D02*
Y38510D01*
X333720Y38990D02*
Y39821D01*
X329800Y42480D02*
X333510D01*
X333840Y38990D02*
Y39830D01*
X333880Y39840D02*
X335251D01*
X326760Y40176D02*
Y43468D01*
Y44099D02*
Y44307D01*
X326688Y44160D02*
X326821D01*
X326689Y44236D02*
X326776Y44323D01*
X326733Y44280D02*
X326941D01*
X326833Y44400D02*
X327061D01*
X326880Y40266D02*
Y43541D01*
X327000Y40385D02*
Y43661D01*
X327120Y40503D02*
Y43781D01*
X327240Y40622D02*
Y43901D01*
X327360Y40741D02*
Y44021D01*
X327480Y40860D02*
Y44141D01*
X327600Y40978D02*
Y44261D01*
X327720Y41097D02*
Y44381D01*
X326635Y43974D02*
X328380Y45720D01*
X326880Y44219D02*
Y49680D01*
X326869Y44520D02*
X327181D01*
X326870Y44550D02*
Y49680D01*
Y44640D02*
X327301D01*
X326870Y44760D02*
X327421D01*
X327840Y41216D02*
Y44501D01*
X327960Y41335D02*
Y44621D01*
X328080Y41453D02*
Y44741D01*
X328200Y41572D02*
Y44861D01*
X327000Y44339D02*
Y49680D01*
X327120Y44459D02*
Y49680D01*
X328320Y41691D02*
Y44981D01*
X327240Y44579D02*
Y49680D01*
X327360Y44699D02*
Y49680D01*
X326483Y42600D02*
X329239D01*
X326298Y42720D02*
X329360D01*
X326532Y42840D02*
X329481D01*
X326627Y42960D02*
X329603D01*
X326675Y43080D02*
X329724D01*
X326690Y43200D02*
X329845D01*
X326675Y43320D02*
X329966D01*
X326627Y43440D02*
X330088D01*
X326899Y43560D02*
X330209D01*
X327019Y43680D02*
X330330D01*
X327139Y43800D02*
X330451D01*
X327122Y39830D02*
X331669Y44329D01*
X327259Y43920D02*
X330573D01*
X327379Y44040D02*
X330694D01*
X327499Y44160D02*
X330815D01*
X327619Y44280D02*
X330936D01*
X327739Y44400D02*
X331058D01*
X328440Y41810D02*
Y45101D01*
X328560Y41928D02*
Y45221D01*
X326785Y40172D02*
X331260Y44600D01*
X328680Y42047D02*
Y45310D01*
X326870Y43530D02*
X328649Y45310D01*
X328800Y42166D02*
Y45310D01*
X327859Y44520D02*
X331179D01*
X327979Y44640D02*
X331260D01*
X328920Y42285D02*
Y45310D01*
X329040Y42403D02*
Y45310D01*
X329160Y42522D02*
Y45310D01*
X329280Y42641D02*
Y45310D01*
X329400Y42760D02*
Y45310D01*
X329520Y42878D02*
Y45310D01*
X329640Y42997D02*
Y45310D01*
X329760Y43116D02*
Y45310D01*
X329880Y43235D02*
Y45310D01*
X326870Y44880D02*
X327541D01*
X326870Y45000D02*
X327661D01*
X326870Y45120D02*
X327781D01*
X326870Y45240D02*
X327901D01*
X326870Y45360D02*
X328021D01*
X326870Y45480D02*
X328141D01*
X326870Y45600D02*
X328261D01*
X326870Y45720D02*
X328381D01*
X329040Y45790D02*
Y46461D01*
X328920Y45790D02*
Y46625D01*
X326870Y46800D02*
X328872D01*
X326870Y46920D02*
X328875D01*
X326870Y46440D02*
X329064D01*
X326870Y46560D02*
X328956D01*
X326870Y46680D02*
X328898D01*
X327480Y44819D02*
Y49680D01*
X327600Y44939D02*
Y49680D01*
X327720Y45059D02*
Y49680D01*
X327840Y45179D02*
Y49680D01*
X326870Y47040D02*
X328905D01*
X327960Y45299D02*
Y49680D01*
X326870Y47160D02*
X328970D01*
X326870Y47280D02*
X329090D01*
X328080Y45419D02*
Y49680D01*
X328200Y45539D02*
Y49680D01*
X328320Y45659D02*
Y49680D01*
X328440Y45763D02*
Y49680D01*
X328560Y45790D02*
Y49680D01*
X328680Y45790D02*
Y49680D01*
X328800Y45790D02*
Y49680D01*
X328920Y47075D02*
Y49680D01*
X329040Y47239D02*
Y49680D01*
X328099Y44760D02*
X331260D01*
X328219Y44880D02*
X331260D01*
X328339Y45000D02*
X331260D01*
X326870Y45840D02*
X334760D01*
X326870Y45960D02*
X334760D01*
X326870Y46320D02*
X329400D01*
X326870Y46080D02*
X334760D01*
X326870Y46200D02*
X334760D01*
X328459Y45120D02*
X331260D01*
X328579Y45240D02*
X331260D01*
X328649Y45310D02*
X331260D01*
X328550Y45790D02*
X331500D01*
X329280D02*
Y46334D01*
X329160Y45790D02*
Y46377D01*
X329400Y45790D02*
Y46320D01*
X330175D01*
X329520Y45790D02*
Y46334D01*
X329160Y47323D02*
Y49680D01*
X329280Y47366D02*
Y49680D01*
X329400Y47380D02*
Y49680D01*
X326870Y47400D02*
X334760D01*
X329520Y47366D02*
Y49680D01*
X326870Y47520D02*
X334760D01*
X326870Y47640D02*
X334760D01*
X329640Y45790D02*
Y46377D01*
X329760Y45790D02*
Y46461D01*
X329736Y46440D02*
X330011D01*
X329880Y45790D02*
Y46625D01*
X329640Y47323D02*
Y49680D01*
X329760Y47239D02*
Y49680D01*
X329844Y46560D02*
X329927D01*
X329710Y47280D02*
X330175D01*
X329830Y47160D02*
X330011D01*
X330000Y38990D02*
Y42678D01*
X330120Y38990D02*
Y42797D01*
X330240Y38990D02*
Y42915D01*
X330360Y38990D02*
Y43034D01*
X330480Y38990D02*
Y43153D01*
X330600Y38990D02*
Y43272D01*
X330720Y38990D02*
Y43390D01*
X330840Y38990D02*
Y43509D01*
X330960Y38990D02*
Y43628D01*
X331080Y38990D02*
Y43747D01*
X331200Y38990D02*
Y43865D01*
X331320Y38990D02*
Y43984D01*
X331440Y38990D02*
Y44103D01*
X331560Y38990D02*
Y44222D01*
X331680Y38990D02*
Y44341D01*
X330000Y43353D02*
Y45310D01*
X330120Y43472D02*
Y45310D01*
X330240Y43591D02*
Y45310D01*
X330360Y43710D02*
Y45310D01*
X330480Y43828D02*
Y45310D01*
X330600Y43947D02*
Y45310D01*
X330720Y44066D02*
Y45310D01*
X330840Y44185D02*
Y45310D01*
X331800Y38990D02*
Y46502D01*
X331920Y38990D02*
Y46748D01*
X332040Y38990D02*
Y49680D01*
X332160Y38990D02*
Y49680D01*
X330960Y44303D02*
Y45310D01*
X331080Y44422D02*
Y45310D01*
X331200Y44541D02*
Y45310D01*
X331740Y44500D02*
Y45550D01*
X332280Y38990D02*
Y49680D01*
X329921Y42600D02*
X333510D01*
X330042Y42720D02*
X333510D01*
X330164Y42840D02*
X333510D01*
X330285Y42960D02*
X333510D01*
X330406Y43080D02*
X333510D01*
X330528Y43200D02*
X333510D01*
X330649Y43320D02*
X333510D01*
X330770Y43440D02*
X333510D01*
X330891Y43560D02*
X333510D01*
Y40607D02*
Y43750D01*
X331013Y43680D02*
X333510D01*
X331134Y43800D02*
X333515D01*
X331255Y43920D02*
X333581D01*
X331376Y44040D02*
X333701D01*
X331498Y44160D02*
X333821D01*
X332400Y38990D02*
Y49680D01*
X332520Y38990D02*
Y49680D01*
X332640Y38990D02*
Y49680D01*
X332760Y38990D02*
Y49680D01*
X331619Y44280D02*
X333941D01*
X332880Y38990D02*
Y49680D01*
X331718Y44400D02*
X334061D01*
X331740Y44520D02*
X334181D01*
X333000Y38990D02*
Y49680D01*
X333120Y38990D02*
Y49680D01*
X333360Y40431D02*
Y49593D01*
X333240Y38990D02*
Y49658D01*
X333480Y40585D02*
Y49570D01*
X333600Y43939D02*
Y49582D01*
X333580Y43920D02*
X334760Y45099D01*
X333720Y44059D02*
Y49631D01*
X333840Y44179D02*
Y49737D01*
X330120Y45790D02*
Y46350D01*
X330000Y45790D02*
Y46452D01*
X330240Y45790D02*
Y46295D01*
X330360Y45790D02*
Y46272D01*
X329895Y47040D02*
X329927D01*
X330480Y45790D02*
Y46276D01*
X330600Y45790D02*
Y46309D01*
X330720Y45790D02*
Y46378D01*
X331260Y44600D02*
Y45310D01*
X330840Y45790D02*
Y46505D01*
X330960Y45790D02*
Y46555D01*
X330873Y46560D02*
X330956D01*
X331200Y45790D02*
Y46359D01*
X330789Y46440D02*
X331064D01*
X331080Y45790D02*
Y46428D01*
X329880Y47075D02*
Y49680D01*
X330000Y47148D02*
Y49680D01*
X330120Y47250D02*
Y49680D01*
X330240Y47305D02*
Y49680D01*
X330360Y47328D02*
Y49680D01*
X330480Y47324D02*
Y49680D01*
X330873Y47040D02*
X330905D01*
X330840Y47095D02*
Y49680D01*
X330789Y47160D02*
X330970D01*
X330960Y47145D02*
Y49680D01*
X330600Y47291D02*
Y49680D01*
X330720Y47222D02*
Y49680D01*
X330625Y47280D02*
X331090D01*
X331080Y47272D02*
Y49680D01*
X331200Y47341D02*
Y49680D01*
X331320Y45790D02*
Y46326D01*
X331669Y45720D02*
X334760D01*
X330625Y46320D02*
X331400D01*
X331440Y45790D02*
Y46322D01*
X331400Y46320D02*
X334760D01*
X331560Y45782D02*
Y46345D01*
X331740Y44640D02*
X334301D01*
X331740Y44760D02*
X334421D01*
X331740Y44880D02*
X334541D01*
X331740Y45000D02*
X334661D01*
X331740Y45120D02*
X334760D01*
X331740Y45240D02*
X334760D01*
X331740Y45360D02*
X334760D01*
X331740Y45480D02*
X334760D01*
X331735Y45600D02*
X334760D01*
X331680Y45709D02*
Y46400D01*
Y47300D02*
Y49680D01*
X331320Y47374D02*
Y49680D01*
X331440Y47378D02*
Y49680D01*
X331710Y47280D02*
X334760D01*
X331560Y47355D02*
Y49680D01*
X331736Y46440D02*
X334760D01*
X331844Y46560D02*
X334760D01*
X331902Y46680D02*
X334760D01*
X331928Y46800D02*
X334760D01*
X331800Y47198D02*
Y49680D01*
X331920Y46952D02*
Y49680D01*
X331925Y46920D02*
X334760D01*
X331830Y47160D02*
X334760D01*
X331895Y47040D02*
X334760D01*
X301930Y50160D02*
X303937D01*
X301930Y50280D02*
X303801D01*
X301930Y49920D02*
X304650D01*
X301930Y50040D02*
X304132D01*
X301930Y50640D02*
X303563D01*
X301930Y50760D02*
X303520D01*
X301930Y50400D02*
X303700D01*
X301930Y50520D02*
X303622D01*
X301930Y50880D02*
X303491D01*
X301930Y51000D02*
X303474D01*
X301930Y51120D02*
X303470D01*
X301930Y51240D02*
X303478D01*
X301930Y51360D02*
X303499D01*
X301930Y51480D02*
X303533D01*
X301930Y51600D02*
X303581D01*
X301930Y51720D02*
X303646D01*
X301930Y51840D02*
X303731D01*
X301930Y51960D02*
X303842D01*
X301930Y52080D02*
X303993D01*
X301930Y52200D02*
X304223D01*
X301930Y52440D02*
X305486D01*
X305640Y51742D02*
Y52398D01*
X305760Y51500D02*
Y52398D01*
X301930Y52560D02*
X305316D01*
X305280Y52098D02*
Y52602D01*
X305520Y51897D02*
Y52427D01*
X305400Y52011D02*
Y52488D01*
X301930Y49200D02*
X309304D01*
X301930Y49320D02*
X309249D01*
X301930Y48960D02*
X309588D01*
X301930Y49080D02*
X309400D01*
X301930Y49440D02*
X309223D01*
X301930Y49560D02*
X309223D01*
X301930Y49680D02*
X309249D01*
X301930Y49800D02*
X309304D01*
X304650Y49920D02*
X309400D01*
X309240Y49651D02*
Y50349D01*
X305600Y50400D02*
X309229D01*
X305678Y50520D02*
X309220D01*
X305168Y50040D02*
X309447D01*
X305363Y50160D02*
X309330D01*
X305499Y50280D02*
X309263D01*
X305737Y50640D02*
X309237D01*
X305458Y51960D02*
X310901D01*
X305654Y51720D02*
X311141D01*
X305569Y51840D02*
X311021D01*
X301930Y52320D02*
X310541D01*
X305307Y52080D02*
X310781D01*
X305077Y52200D02*
X310661D01*
X305780Y50760D02*
X309282D01*
X309240Y50651D02*
Y53621D01*
X305809Y50880D02*
X309362D01*
X305914Y52440D02*
X306286D01*
X305826Y51000D02*
X309506D01*
X306714Y52440D02*
X310421D01*
X309101Y53760D02*
X311130Y51730D01*
X301930Y52920D02*
X305170D01*
X301930Y53040D02*
X305170D01*
X301930Y52680D02*
X305230D01*
X301930Y52800D02*
X305185D01*
X301930Y53160D02*
X305177D01*
X301930Y53280D02*
X305211D01*
X301930Y53400D02*
X305281D01*
X301930Y53520D02*
X305358D01*
X305170Y52925D02*
Y53075D01*
X306084Y52560D02*
X306116D01*
X306042Y53520D02*
X306158D01*
X306840Y53482D02*
Y53518D01*
X301930Y53880D02*
X305172D01*
X301930Y54000D02*
X305170D01*
X301930Y53640D02*
X305253D01*
X301930Y53760D02*
X305196D01*
X301930Y54120D02*
X305172D01*
X301930Y54240D02*
X305196D01*
X301930Y54360D02*
X305253D01*
X301930Y54480D02*
X305358D01*
X305280Y53398D02*
Y53602D01*
X306120Y53444D02*
Y53556D01*
X306960Y53338D02*
Y53662D01*
X305170Y53925D02*
Y54075D01*
X306120Y54444D02*
Y54481D01*
X306119Y54480D02*
X306158D01*
X306970Y52680D02*
X307213D01*
X306970D02*
X307213D01*
X306884Y52560D02*
X310301D01*
X306970Y53320D02*
X307213D01*
X306919Y53400D02*
X307342D01*
X306842Y53520D02*
X309341D01*
X306947Y53640D02*
X309221D01*
X307922Y52920D02*
X309941D01*
X307787Y52680D02*
X310181D01*
X307881Y52800D02*
X310061D01*
X307658Y53400D02*
X309461D01*
X307928Y53040D02*
X309821D01*
X307826Y53280D02*
X309581D01*
X307899Y53160D02*
X309701D01*
X307080Y53320D02*
Y53760D01*
X307200Y53320D02*
Y53760D01*
X307004D02*
X309101D01*
X307004D02*
X309101D01*
X307004Y54240D02*
X309200D01*
X307004D02*
X309200D01*
X306947Y54360D02*
X309551D01*
X306842Y54480D02*
X309431D01*
X307320Y53391D02*
Y53760D01*
X307680Y53391D02*
Y53760D01*
X307800Y53308D02*
Y53760D01*
X307920Y53092D02*
Y53760D01*
X307440Y53426D02*
Y53760D01*
X307560Y53426D02*
Y53760D01*
X309200Y54240D02*
X309671D01*
X310320Y49757D02*
Y50243D01*
X309480Y49984D02*
Y50016D01*
X309360Y49878D02*
Y50122D01*
X310200Y49920D02*
Y50080D01*
X311400Y52139D02*
X311773Y52137D01*
X311400Y52139D02*
Y52511D01*
X311520Y52139D02*
Y52391D01*
X311099Y52440D02*
X311471D01*
X311339Y52200D02*
X311711D01*
X311219Y52320D02*
X311591D01*
X311640Y52138D02*
Y52271D01*
X309480Y50984D02*
Y53381D01*
X309360Y50878D02*
Y53501D01*
X310080Y51008D02*
Y52781D01*
X309600Y51044D02*
Y53261D01*
X309840Y51079D02*
Y53021D01*
X309720Y51074D02*
Y53141D01*
X309960Y51057D02*
Y52901D01*
X309370Y54170D02*
X311400Y52139D01*
X310320Y50757D02*
Y52541D01*
X310200Y50920D02*
Y52661D01*
X311280Y52259D02*
Y52631D01*
X311160Y52379D02*
Y52751D01*
X310979Y52560D02*
X311351D01*
X311040Y52499D02*
Y52871D01*
X317400Y52540D02*
Y52582D01*
X317160Y52540D02*
Y52737D01*
X317280Y52540D02*
Y52631D01*
X311299Y51660D02*
X319799Y51610D01*
X319569Y52091D02*
X319701Y52091D01*
X312049Y52540D02*
X319351D01*
X317520D02*
Y52570D01*
X319680Y52091D02*
Y52191D01*
X312029Y52560D02*
X319371D01*
X319689Y52200D02*
X319811D01*
X319800Y52189D02*
Y52311D01*
X319809Y52320D02*
X319931D01*
X319920Y52309D02*
Y52431D01*
X319929Y52440D02*
X320051D01*
X320040Y52429D02*
Y52551D01*
X320049Y52560D02*
X320171D01*
X317640Y52540D02*
Y52593D01*
X317760Y52540D02*
Y52658D01*
X317880Y52540D02*
Y52799D01*
X318000Y52540D02*
Y53047D01*
X318120Y52540D02*
Y53167D01*
X318240Y52540D02*
Y53287D01*
X318360Y52540D02*
Y53407D01*
X318480Y52540D02*
Y53527D01*
X318600Y52540D02*
Y53647D01*
X318720Y52540D02*
Y53767D01*
X318840Y52540D02*
Y53887D01*
X318960Y52540D02*
Y54007D01*
X319080Y52540D02*
Y54127D01*
X320160Y52549D02*
Y52671D01*
X319200Y52540D02*
Y54247D01*
X319320Y52540D02*
Y54367D01*
X310680Y52859D02*
Y53231D01*
X310560Y52979D02*
Y53351D01*
X310739Y52800D02*
X311111D01*
X310619Y52920D02*
X310991D01*
X310259Y53280D02*
X310631D01*
X310139Y53400D02*
X310511D01*
X310499Y53040D02*
X310871D01*
X310379Y53160D02*
X310751D01*
X310920Y52619D02*
Y52991D01*
X310800Y52739D02*
Y53111D01*
X310859Y52680D02*
X311231D01*
X311909D02*
X317213D01*
X311669Y52920D02*
X317078D01*
X311549Y53040D02*
X317072D01*
X311789Y52800D02*
X317119D01*
X311309Y53280D02*
X317174D01*
X311429Y53160D02*
X317101D01*
X309840Y53699D02*
Y54071D01*
X309720Y53819D02*
Y54191D01*
X309779Y53760D02*
X310151D01*
X309659Y53880D02*
X310031D01*
X309600Y53939D02*
Y54311D01*
X309480Y54059D02*
Y54431D01*
X309539Y54000D02*
X309911D01*
X309419Y54120D02*
X309791D01*
X310320Y53219D02*
Y53591D01*
X310200Y53339D02*
Y53711D01*
X311189Y53400D02*
X317342D01*
X310440Y53099D02*
Y53471D01*
X310080Y53459D02*
Y53831D01*
X309960Y53579D02*
Y53951D01*
X310019Y53520D02*
X310391D01*
X309899Y53640D02*
X310271D01*
X311069Y53520D02*
X317567D01*
X317787Y52680D02*
X319491D01*
X317881Y52800D02*
X319611D01*
X320169Y52680D02*
X320291D01*
X320280Y52669D02*
Y52791D01*
X317922Y52920D02*
X319731D01*
X317993Y53040D02*
X319851D01*
X318113Y53160D02*
X319971D01*
X318233Y53280D02*
X320091D01*
X320289Y52800D02*
X320411D01*
X320400Y52789D02*
Y52911D01*
X320409Y52920D02*
X320531D01*
X320520Y52909D02*
Y53031D01*
X320529Y53040D02*
X320651D01*
X320640Y53029D02*
Y53151D01*
X320649Y53160D02*
X320771D01*
X320760Y53149D02*
Y53271D01*
X320769Y53280D02*
X320891D01*
X310949Y53640D02*
X317687D01*
X310829Y53760D02*
X317807D01*
X318353Y53400D02*
X320211D01*
X310709Y53880D02*
X317927D01*
X310589Y54000D02*
X318047D01*
X310469Y54120D02*
X318167D01*
X310349Y54240D02*
X318287D01*
X310229Y54360D02*
X318407D01*
X320880Y53269D02*
Y53391D01*
X318473Y53520D02*
X320331D01*
X320889Y53400D02*
X321011D01*
X321000Y53389D02*
Y53511D01*
X318593Y53640D02*
X320451D01*
X318713Y53760D02*
X320571D01*
X318833Y53880D02*
X320691D01*
X318953Y54000D02*
X320811D01*
X319073Y54120D02*
X320931D01*
X304200Y52191D02*
Y54809D01*
X304080Y52133D02*
Y54867D01*
X304440Y52261D02*
Y54739D01*
X304320Y52233D02*
Y54767D01*
X304560Y52277D02*
Y54723D01*
X301930Y54840D02*
X304132D01*
X301930Y54600D02*
X305561D01*
X301930Y54720D02*
X304650D01*
X304800Y52270D02*
Y54730D01*
X304920Y52249D02*
Y54751D01*
X305040Y52214D02*
Y54786D01*
X305160Y52164D02*
Y54836D01*
X304680Y52280D02*
Y54720D01*
X304650Y54720D02*
X305681D01*
X305168Y54840D02*
X305801D01*
X303600Y51638D02*
Y55362D01*
X303480Y51253D02*
Y55747D01*
X303840Y51958D02*
Y55042D01*
X303720Y51826D02*
Y55174D01*
X301930Y55080D02*
X303801D01*
X301930Y55200D02*
X303700D01*
X301930Y54960D02*
X303937D01*
X305280Y54398D02*
Y54902D01*
X303960Y52057D02*
Y54943D01*
X305400Y54512D02*
Y54989D01*
X305520Y54573D02*
Y55103D01*
X305640Y54679D02*
Y55258D01*
X305363Y54960D02*
X305921D01*
X305760Y54799D02*
Y55500D01*
X305880Y54919D02*
Y58470D01*
X306240Y54537D02*
Y54601D01*
X306082Y54442D02*
X306349Y54710D01*
X306360Y54586D02*
Y54710D01*
X306239Y54600D02*
X306427D01*
X306480Y54605D02*
Y54710D01*
X306573Y54600D02*
X309311D01*
X306600Y54595D02*
Y54710D01*
X307080Y54240D02*
Y54710D01*
X307200Y54240D02*
Y54710D01*
X307320Y54240D02*
Y54710D01*
X307440Y54240D02*
Y54710D01*
X306720Y54557D02*
Y54710D01*
X306840Y54482D02*
Y54710D01*
X306960Y54338D02*
Y54710D01*
X307560Y54240D02*
Y54710D01*
X307680Y54240D02*
Y54710D01*
X305499Y55080D02*
X306041D01*
X306000Y55039D02*
Y58470D01*
X305541Y54581D02*
X306080Y55120D01*
X306120Y55152D02*
Y58470D01*
X306240Y55190D02*
Y58470D01*
X305600Y55200D02*
X319247D01*
X307800Y54240D02*
Y54710D01*
X307920Y54240D02*
Y54710D01*
X308040Y54240D02*
Y54710D01*
X308160Y54240D02*
Y54710D01*
X308280Y54240D02*
Y54710D01*
X306360Y55190D02*
Y58470D01*
X308400Y54240D02*
Y54710D01*
X306250Y55190D02*
X309300D01*
X306349Y54710D02*
X309201D01*
X301930Y55560D02*
X303520D01*
X301930Y55680D02*
X303491D01*
X301930Y55320D02*
X303622D01*
X301930Y55440D02*
X303563D01*
X301930Y55800D02*
X303474D01*
X301930Y55920D02*
X303470D01*
X301930Y56040D02*
X303478D01*
X301930Y56160D02*
X303499D01*
X301930Y56280D02*
X303533D01*
X301930Y56400D02*
X303581D01*
X301930Y56520D02*
X303646D01*
X301930Y56640D02*
X303731D01*
X301930Y56760D02*
X303842D01*
X301930Y56880D02*
X303993D01*
X301930Y57000D02*
X304223D01*
X303480Y56053D02*
Y58470D01*
X303600Y56438D02*
Y58470D01*
X303720Y56626D02*
Y58470D01*
X303840Y56758D02*
Y58470D01*
X303960Y56857D02*
Y58470D01*
X304080Y56933D02*
Y58470D01*
X304200Y56991D02*
Y58470D01*
X304320Y57033D02*
Y58470D01*
X305040Y57014D02*
Y58470D01*
X305160Y56964D02*
Y58470D01*
X305280Y56898D02*
Y58470D01*
X305400Y56811D02*
Y58470D01*
X304440Y57061D02*
Y58470D01*
X304560Y57077D02*
Y58470D01*
X304680Y57080D02*
Y58470D01*
X304800Y57070D02*
Y58470D01*
X304920Y57049D02*
Y58470D01*
X305640Y56542D02*
Y58470D01*
X305678Y55320D02*
X319367D01*
X305654Y56520D02*
X320567D01*
X305569Y56640D02*
X320687D01*
X305520Y56697D02*
Y58470D01*
X305458Y56760D02*
X320807D01*
X305307Y56880D02*
X320927D01*
X305737Y55440D02*
X319487D01*
X305780Y55560D02*
X319607D01*
X305809Y55680D02*
X319727D01*
X305826Y55800D02*
X319847D01*
X305830Y55920D02*
X319967D01*
X305822Y56040D02*
X320087D01*
X305801Y56160D02*
X320207D01*
X305719Y56400D02*
X320447D01*
X305767Y56280D02*
X320327D01*
X306480Y55190D02*
Y58470D01*
X306600Y55190D02*
Y58470D01*
X306720Y55190D02*
Y58470D01*
X306840Y55190D02*
Y58470D01*
X305760Y56300D02*
Y58470D01*
X306960Y55190D02*
Y58470D01*
X307080Y55190D02*
Y58470D01*
X307200Y55190D02*
Y58470D01*
X307320Y55190D02*
Y58470D01*
X307440Y55190D02*
Y58470D01*
X307560Y55190D02*
Y58470D01*
X307680Y55190D02*
Y58470D01*
X307800Y55190D02*
Y58470D01*
X307920Y55190D02*
Y58470D01*
X308040Y55190D02*
Y58470D01*
X308160Y55190D02*
Y58470D01*
X308280Y55190D02*
Y58470D01*
X311400Y53189D02*
Y58470D01*
X311520Y53069D02*
Y58470D01*
X309201Y54710D02*
X311773Y52137D01*
X309470Y55120D02*
X312049Y52540D01*
X310920Y53669D02*
Y58470D01*
X311040Y53549D02*
Y58470D01*
X311160Y53429D02*
Y58470D01*
X311280Y53309D02*
Y58470D01*
X312120Y52540D02*
Y58470D01*
X312240Y52540D02*
Y58470D01*
X312360Y52540D02*
Y58470D01*
X312480Y52540D02*
Y58470D01*
X311640Y52949D02*
Y58470D01*
X311760Y52829D02*
Y58470D01*
X311880Y52709D02*
Y58470D01*
X312000Y52589D02*
Y58470D01*
X312600Y52540D02*
Y58470D01*
X312720Y52540D02*
Y58470D01*
X312840Y52540D02*
Y58470D01*
X312960Y52540D02*
Y58470D01*
X313080Y52540D02*
Y58470D01*
X313200Y52540D02*
Y58470D01*
X313320Y52540D02*
Y58470D01*
X313440Y52540D02*
Y58470D01*
X313560Y52540D02*
Y58470D01*
X313680Y52540D02*
Y58470D01*
X313800Y52540D02*
Y58470D01*
X313920Y52540D02*
Y58470D01*
X314040Y52540D02*
Y58470D01*
X314160Y52540D02*
Y58470D01*
X314280Y52540D02*
Y58470D01*
X314400Y52540D02*
Y58470D01*
X314520Y52540D02*
Y58470D01*
X314640Y52540D02*
Y58470D01*
X314760Y52540D02*
Y58470D01*
X314880Y52540D02*
Y58470D01*
X315000Y52540D02*
Y58470D01*
X315120Y52540D02*
Y58470D01*
X315240Y52540D02*
Y58470D01*
X315360Y52540D02*
Y58470D01*
X315480Y52540D02*
Y58470D01*
X315600Y52540D02*
Y58470D01*
X319440Y52629D02*
Y54487D01*
X319560Y52749D02*
Y54607D01*
X319680Y52869D02*
Y54727D01*
X319800Y52989D02*
Y54847D01*
X319920Y53109D02*
Y54967D01*
X320040Y53229D02*
Y55087D01*
X320160Y53349D02*
Y55207D01*
X320280Y53469D02*
Y55327D01*
X320400Y53589D02*
Y55447D01*
X315720Y52540D02*
Y58470D01*
X315840Y52540D02*
Y58470D01*
X315960Y52540D02*
Y58470D01*
X316080Y52540D02*
Y58470D01*
X316200Y52540D02*
Y58470D01*
X316320Y52540D02*
Y58470D01*
X316440Y52540D02*
Y58470D01*
X316560Y52540D02*
Y58470D01*
X316680Y52540D02*
Y58470D01*
X316800Y52540D02*
Y58470D01*
X316920Y52540D02*
Y58470D01*
X317040Y52540D02*
Y58470D01*
X317160Y53263D02*
Y58470D01*
X317280Y53369D02*
Y58470D01*
X317400Y53418D02*
Y58470D01*
X317520Y53473D02*
Y58470D01*
X317640Y53593D02*
Y58470D01*
X308520Y54240D02*
Y54710D01*
X308640Y54240D02*
Y54710D01*
X308760Y54240D02*
Y54710D01*
X308880Y54240D02*
Y54710D01*
X308400Y55190D02*
Y58470D01*
X308520Y55190D02*
Y58470D01*
X308640Y55190D02*
Y58470D01*
X308760Y55190D02*
Y58470D01*
X309000Y54240D02*
Y54710D01*
X309120Y54240D02*
Y54710D01*
X309360Y54179D02*
Y54551D01*
X309240Y54237D02*
Y54671D01*
X308880Y55190D02*
Y58470D01*
X309000Y55190D02*
Y58470D01*
X309120Y55190D02*
Y58470D01*
X309720Y54869D02*
Y58470D01*
X309840Y54749D02*
Y58470D01*
X309960Y54629D02*
Y58470D01*
X310080Y54509D02*
Y58470D01*
X309240Y55190D02*
Y58470D01*
X309360Y55182D02*
Y58470D01*
X309480Y55109D02*
Y58470D01*
X309600Y54989D02*
Y58470D01*
X310680Y53909D02*
Y58470D01*
X310800Y53789D02*
Y58470D01*
X317760Y53713D02*
Y58470D01*
X317880Y53833D02*
Y58470D01*
X310200Y54389D02*
Y58470D01*
X310320Y54269D02*
Y58470D01*
X310440Y54149D02*
Y58470D01*
X310560Y54029D02*
Y58470D01*
X318000Y53953D02*
Y58470D01*
X318120Y54073D02*
Y58470D01*
X318240Y54193D02*
Y58470D01*
X310109Y54480D02*
X318527D01*
X309989Y54600D02*
X318647D01*
X309869Y54720D02*
X318767D01*
X309749Y54840D02*
X318887D01*
X309629Y54960D02*
X319007D01*
X309509Y55080D02*
X319127D01*
X320520Y53709D02*
Y55567D01*
X320640Y53829D02*
Y55687D01*
X320760Y53949D02*
Y55807D01*
X320880Y54069D02*
Y55927D01*
X318360Y54313D02*
Y58470D01*
X318480Y54433D02*
Y58470D01*
X318600Y54553D02*
Y58470D01*
X318720Y54673D02*
Y58470D01*
X318840Y54793D02*
Y58470D01*
X318960Y54913D02*
Y58470D01*
X319080Y55033D02*
Y58470D01*
X319200Y55153D02*
Y58470D01*
X319320Y55273D02*
Y58470D01*
X319440Y55393D02*
Y58470D01*
X319560Y55513D02*
Y58470D01*
X319680Y55633D02*
Y58470D01*
X319800Y55753D02*
Y58470D01*
X319920Y55873D02*
Y58470D01*
X320040Y55993D02*
Y58470D01*
X320160Y56113D02*
Y58470D01*
X320280Y56233D02*
Y58470D01*
X320400Y56353D02*
Y58470D01*
X320520Y56473D02*
Y58470D01*
X320640Y56593D02*
Y58470D01*
X320760Y56713D02*
Y58470D01*
X320880Y56833D02*
Y58470D01*
X301930Y47880D02*
X322560D01*
X301930Y48000D02*
X322560D01*
X301930Y48120D02*
X322560D01*
X301930Y48240D02*
X322560D01*
X301930Y48360D02*
X322560D01*
X301930Y48480D02*
X322560D01*
X301930Y48600D02*
X322560D01*
X301930Y48720D02*
X322560D01*
X301930Y48840D02*
X322560D01*
X323040Y48729D02*
Y49004D01*
Y48840D02*
X323151D01*
X323040Y48729D02*
Y49004D01*
X310012Y48960D02*
X322560D01*
X310200Y49080D02*
X322560D01*
X323040Y48960D02*
X323271D01*
X323160Y48849D02*
Y49131D01*
X310296Y49200D02*
X322582D01*
X310351Y49320D02*
X322678D01*
X310377Y49440D02*
X322792D01*
X310377Y49560D02*
X322905D01*
X310351Y49680D02*
X323019D01*
X310296Y49800D02*
X323133D01*
X310200Y49920D02*
X323247D01*
X310153Y50040D02*
X323360D01*
X323280Y48969D02*
Y49258D01*
X322680Y49322D02*
Y52608D01*
X322920Y49575D02*
Y51841D01*
X322800Y49449D02*
Y52392D01*
X323280Y49955D02*
Y51481D01*
X323040Y49702D02*
Y51721D01*
X323160Y49829D02*
Y51601D01*
X323440Y47880D02*
X325810D01*
X323440Y48000D02*
X325810D01*
X323440Y48120D02*
X325810D01*
X323440Y48240D02*
X325810D01*
X323112Y49080D02*
X323391D01*
X323400Y49089D02*
Y49384D01*
X323225Y49200D02*
X323511D01*
X323339Y49320D02*
X323631D01*
X323440Y48360D02*
X325810D01*
X323469Y48480D02*
X325810D01*
X323589Y48600D02*
X325810D01*
X323709Y48720D02*
X325810D01*
X323453Y49440D02*
X323751D01*
X323520Y49209D02*
Y49511D01*
X323829Y48840D02*
X325810D01*
X323567Y49560D02*
X323871D01*
X323949Y48960D02*
X325810D01*
X323040Y49004D02*
X323819Y49826D01*
X322626Y49265D02*
X323470Y50156D01*
X323440Y48451D02*
X324670Y49680D01*
X323040Y48729D02*
X324260Y49949D01*
X310337Y50280D02*
X323461D01*
X323400Y50082D02*
Y51361D01*
X310270Y50160D02*
X323470D01*
X310371Y50400D02*
X323487D01*
X323640Y49329D02*
Y49637D01*
X323760Y49449D02*
Y49764D01*
X323680Y49680D02*
X323991D01*
X323880Y49569D02*
Y49820D01*
X324000Y49689D02*
Y49834D01*
X323520Y50469D02*
Y51241D01*
X323794Y49800D02*
X324111D01*
X305801Y51360D02*
X323401D01*
X305767Y51480D02*
X323281D01*
X310380Y50520D02*
X323555D01*
X305822Y51240D02*
X323521D01*
X320129Y51840D02*
X322921D01*
X320249Y51960D02*
X322863D01*
X305719Y51600D02*
X323161D01*
X320009Y51720D02*
X323041D01*
X322860Y52000D02*
Y52343D01*
X323400Y52039D02*
Y52392D01*
X320369Y52080D02*
X322860D01*
X320729Y52440D02*
X322757D01*
X320489Y52200D02*
X322860D01*
X320609Y52320D02*
X322860D01*
X323340Y52099D02*
Y52343D01*
X320849Y52560D02*
X322693D01*
X320969Y52680D02*
X322670D01*
X321089Y52800D02*
X322682D01*
X321209Y52920D02*
X322731D01*
X321009Y53520D02*
X321131D01*
X321120Y53509D02*
Y53631D01*
X321129Y53640D02*
X321251D01*
X321240Y53629D02*
Y53751D01*
X323520Y51919D02*
Y52608D01*
X323530Y52680D02*
X323570D01*
X321249Y53760D02*
X321371D01*
X321360Y53749D02*
Y53871D01*
X323518Y52800D02*
X323582D01*
X321329Y53040D02*
X322837D01*
X321369Y53880D02*
X321491D01*
X310363Y50640D02*
X323709D01*
X310318Y50760D02*
X324001D01*
X322930Y51830D02*
X324260Y50501D01*
X323340Y52099D02*
X324670Y50770D01*
X310094Y51000D02*
X323761D01*
X305830Y51120D02*
X323641D01*
X310238Y50880D02*
X323881D01*
X323359Y52080D02*
X324281D01*
X323760Y50660D02*
Y51001D01*
X323640Y50600D02*
Y51121D01*
X324000Y50666D02*
Y50761D01*
X323880Y50680D02*
Y50881D01*
X323599Y51840D02*
X324521D01*
X323479Y51960D02*
X324401D01*
X323959Y51480D02*
X324881D01*
X323719Y51720D02*
X324641D01*
X323839Y51600D02*
X324761D01*
X323340Y52200D02*
X324161D01*
X321449Y53160D02*
X324980D01*
X321569Y53280D02*
X324980D01*
X321689Y53400D02*
X324980D01*
X321809Y53520D02*
X324980D01*
X321929Y53640D02*
X324980D01*
X322049Y53760D02*
X324980D01*
X322169Y53880D02*
X324980D01*
X323760Y51679D02*
Y52343D01*
X323640Y51799D02*
Y52465D01*
X323880Y51559D02*
Y52287D01*
X323507Y52560D02*
X323593D01*
X323469Y52920D02*
X323631D01*
X323340Y52320D02*
X323799D01*
X323363Y53040D02*
X323737D01*
X323442Y52440D02*
X323657D01*
X324069Y49080D02*
X325810D01*
X324189Y49200D02*
X325810D01*
X324309Y49320D02*
X325810D01*
X324429Y49440D02*
X325810D01*
X324120Y49809D02*
Y49887D01*
X324166Y49920D02*
X324231D01*
X324240Y49929D02*
Y50000D01*
X324260Y49949D02*
Y50031D01*
X324549Y49560D02*
X325810D01*
X324669Y49680D02*
X325810D01*
X324735Y49800D02*
X325810D01*
X324740Y49920D02*
X325810D01*
X324740Y50040D02*
X325810D01*
X324740Y50160D02*
X325810D01*
X324740Y50280D02*
X325810D01*
X324260Y50469D02*
Y50501D01*
X324083Y52278D02*
X325810Y50551D01*
X324071Y50640D02*
X324121D01*
X324600Y50839D02*
Y51761D01*
X324559Y50880D02*
X325481D01*
X324422Y52617D02*
X326220Y50820D01*
X324740Y49850D02*
Y50600D01*
X324737Y50640D02*
X325721D01*
X324740Y50400D02*
X325810D01*
X324740Y50520D02*
X325810D01*
X324679Y50760D02*
X325601D01*
X324720Y50696D02*
Y51641D01*
X326159Y50880D02*
X326230D01*
X326160Y50879D02*
Y51087D01*
X326230Y50809D02*
Y51017D01*
X326870Y47760D02*
X334760D01*
X326870Y47880D02*
X334760D01*
X326870Y48000D02*
X334760D01*
X326870Y48120D02*
X334760D01*
X326870Y48240D02*
X334760D01*
X326870Y48360D02*
X334760D01*
X326870Y48480D02*
X334760D01*
X326870Y48600D02*
X334760D01*
X326870Y48720D02*
X334760D01*
X326870Y48840D02*
X334760D01*
X326870Y48960D02*
X334760D01*
X326870Y49080D02*
X334760D01*
X326870Y49200D02*
X334760D01*
X326870Y49680D02*
X333213D01*
X326870Y49320D02*
X334760D01*
X326870Y49440D02*
X334760D01*
X326870Y49560D02*
X334760D01*
X326870Y49680D02*
X333213D01*
X326870Y50320D02*
Y51150D01*
Y50320D02*
X333213D01*
X326870Y50400D02*
X333342D01*
X326870Y50520D02*
X334760D01*
X326870Y50640D02*
X334760D01*
X326870Y50760D02*
X334760D01*
X326870Y50880D02*
X334760D01*
X333787Y49680D02*
X334760D01*
X333881Y49800D02*
X334760D01*
X333923Y49920D02*
X334760D01*
X333928Y50040D02*
X334760D01*
X333899Y50160D02*
X334760D01*
X333658Y50400D02*
X334760D01*
X333826Y50280D02*
X334760D01*
X324480Y50959D02*
Y51881D01*
X324360Y51079D02*
Y52001D01*
X324439Y51000D02*
X325361D01*
X324319Y51120D02*
X325241D01*
X324199Y51240D02*
X325121D01*
X324079Y51360D02*
X325001D01*
X325199Y51840D02*
X325407D01*
X325079Y51960D02*
X325287D01*
X325559Y51480D02*
X325767D01*
X325680Y51359D02*
Y51567D01*
X325679Y51360D02*
X325887D01*
X325800Y51239D02*
Y51447D01*
X325440Y51599D02*
Y51807D01*
X325320Y51719D02*
Y51927D01*
X325439Y51600D02*
X325647D01*
X325319Y51720D02*
X325527D01*
X325560Y51479D02*
Y51687D01*
X324120Y51319D02*
Y52241D01*
X324000Y51439D02*
Y52270D01*
X324240Y51199D02*
Y52121D01*
X324430Y52680D02*
X324980D01*
X324418Y52800D02*
X324980D01*
X324369Y52920D02*
X324980D01*
X324263Y53040D02*
X324980D01*
X325080Y51959D02*
Y52167D01*
X325200Y51839D02*
Y52047D01*
X324959Y52080D02*
X325167D01*
X324599Y52440D02*
X324980D01*
X324479Y52560D02*
X324980D01*
X324839Y52200D02*
X325050D01*
X324719Y52320D02*
X324990D01*
X326040Y50999D02*
Y51207D01*
X325920Y51119D02*
Y51327D01*
X326039Y51000D02*
X326230D01*
X325919Y51120D02*
X326127D01*
X325799Y51240D02*
X326007D01*
X326313Y51840D02*
X334760D01*
X326193Y51960D02*
X334760D01*
X326073Y52080D02*
X334760D01*
X326870Y51000D02*
X334760D01*
X326870Y51120D02*
X334760D01*
X326857Y51240D02*
X334760D01*
X326791Y51360D02*
X334760D01*
X326673Y51480D02*
X334760D01*
X326433Y51720D02*
X334760D01*
X326553Y51600D02*
X334760D01*
X325074Y52173D02*
X326230Y51017D01*
X325620Y52533D02*
X326776Y51377D01*
X325620Y52560D02*
X334760D01*
X325620Y52680D02*
X334760D01*
X325620Y52800D02*
X334760D01*
X325620Y52920D02*
X334760D01*
X325620Y53040D02*
X334760D01*
X325620Y53160D02*
X334760D01*
X325953Y52200D02*
X334760D01*
X325833Y52320D02*
X334760D01*
X325713Y52440D02*
X334760D01*
X325620Y53280D02*
X334760D01*
X325620Y53400D02*
X334760D01*
X325620Y53520D02*
X334760D01*
X325620Y53640D02*
X334760D01*
X325620Y53760D02*
X334760D01*
X325620Y53880D02*
X334760D01*
X321480Y53869D02*
Y53991D01*
X321489Y54000D02*
X321611D01*
X319701Y52091D02*
X322178Y54567D01*
X319620Y52130D02*
X322171Y54682D01*
X319193Y54240D02*
X321051D01*
X319313Y54360D02*
X321171D01*
X319433Y54480D02*
X321291D01*
X319553Y54600D02*
X321411D01*
X321600Y53989D02*
Y54111D01*
X321720Y54109D02*
Y54231D01*
X321609Y54120D02*
X321731D01*
X321840Y54229D02*
Y54351D01*
X321729Y54240D02*
X321851D01*
X321960Y54349D02*
Y54471D01*
X321849Y54360D02*
X321971D01*
X321969Y54480D02*
X322091D01*
X322080Y54469D02*
Y54591D01*
X321000Y54189D02*
Y56047D01*
X321120Y54309D02*
Y56167D01*
X319673Y54720D02*
X321531D01*
X319793Y54840D02*
X321651D01*
X319913Y54960D02*
X321771D01*
X320033Y55080D02*
X321891D01*
X320153Y55200D02*
X322011D01*
X320273Y55320D02*
X322131D01*
X321240Y54429D02*
Y56287D01*
X321360Y54549D02*
Y56407D01*
X321480Y54669D02*
Y56527D01*
X321600Y54789D02*
Y56647D01*
X321720Y54909D02*
Y56767D01*
X321840Y55029D02*
Y56887D01*
X321960Y55149D02*
Y57007D01*
X322080Y55269D02*
Y57127D01*
X319970Y51680D02*
X322517Y54228D01*
X322560Y49100D02*
Y54222D01*
X322289Y54000D02*
X324980D01*
X322680Y52792D02*
Y54228D01*
X322089Y54600D02*
X322173D01*
X322569Y55080D02*
X322600D01*
X322409Y54120D02*
X324980D01*
X322800Y53008D02*
Y54269D01*
X322920Y53091D02*
Y54363D01*
X322730Y54240D02*
X324980D01*
X322917Y54360D02*
X324980D01*
X322995Y54480D02*
X324980D01*
X323027Y54600D02*
X324980D01*
X323024Y54720D02*
X324980D01*
X322898Y54960D02*
X324980D01*
X322986Y54840D02*
X324980D01*
X317929Y52977D02*
X322783Y57830D01*
X317477Y53429D02*
X322423Y58376D01*
X319351Y52540D02*
X323078Y56267D01*
X320393Y55440D02*
X322251D01*
X322200Y55389D02*
Y57247D01*
X322600Y55080D02*
X324980D01*
X322568Y55079D02*
X323417Y55928D01*
X323040Y53126D02*
Y55551D01*
X323160Y53126D02*
Y55671D01*
X323280Y53091D02*
Y55791D01*
X323400Y53008D02*
Y55911D01*
X322680Y55072D02*
Y55191D01*
X322800Y55031D02*
Y55311D01*
X322689Y55200D02*
X324980D01*
X322809Y55320D02*
X324980D01*
X322920Y54937D02*
Y55431D01*
X301930Y57120D02*
X321167D01*
X301930Y57240D02*
X321287D01*
X301930Y57360D02*
X321407D01*
X301930Y57480D02*
X321527D01*
X301930Y57600D02*
X321647D01*
X301930Y57720D02*
X321767D01*
X301930Y57840D02*
X321887D01*
X301930Y57960D02*
X322007D01*
X320513Y55560D02*
X322371D01*
X322320Y55509D02*
Y57367D01*
X320633Y55680D02*
X322491D01*
X322440Y55629D02*
Y57487D01*
X305077Y57000D02*
X321047D01*
X301930Y58080D02*
X322127D01*
X320753Y55800D02*
X322611D01*
X301930Y58200D02*
X322247D01*
X322560Y55749D02*
Y57607D01*
X321000Y56953D02*
Y58470D01*
X321120Y57073D02*
Y58470D01*
X321240Y57193D02*
Y58470D01*
X321360Y57313D02*
Y58470D01*
X321480Y57433D02*
Y58470D01*
X321600Y57553D02*
Y58470D01*
X301930Y58320D02*
X322367D01*
X301930Y58440D02*
X322515D01*
X321720Y57673D02*
Y58470D01*
X321840Y57793D02*
Y58470D01*
X321960Y57913D02*
Y58470D01*
X322080Y58033D02*
Y58470D01*
X322200Y58153D02*
Y58470D01*
X322320Y58273D02*
Y58470D01*
X322440Y58391D02*
Y58470D01*
X320873Y55920D02*
X322731D01*
X320993Y56040D02*
X322851D01*
X321113Y56160D02*
X322971D01*
X321233Y56280D02*
X323076D01*
X321353Y56400D02*
X323073D01*
X321473Y56520D02*
X323105D01*
X321593Y56640D02*
X323183D01*
X321713Y56760D02*
X323370D01*
X322929Y55440D02*
X324980D01*
X323049Y55560D02*
X324980D01*
X323169Y55680D02*
X324980D01*
X323289Y55800D02*
X324980D01*
X323409Y55920D02*
X323500D01*
X321833Y56880D02*
X324980D01*
X321953Y57000D02*
X324950D01*
X322073Y57120D02*
X324890D01*
X322193Y57240D02*
X324870D01*
X322313Y57360D02*
X324884D01*
X322433Y57480D02*
X324937D01*
X322553Y57600D02*
X325050D01*
X301930Y58470D02*
X322650D01*
X336200D01*
X322650D02*
X336200D01*
X322680Y55869D02*
Y57727D01*
X322800Y55989D02*
Y57830D01*
X322920Y56109D02*
Y57830D01*
X323040Y56229D02*
Y57830D01*
X323160Y56613D02*
Y57830D01*
X323280Y56719D02*
Y57830D01*
X322673Y57720D02*
X336177D01*
X322783Y57830D02*
X336067D01*
X323400Y56768D02*
Y57830D01*
X326280Y51873D02*
Y57830D01*
X326400Y51753D02*
Y57830D01*
X326520Y51633D02*
Y57830D01*
X326640Y51513D02*
Y57830D01*
X324960Y52079D02*
Y56987D01*
X324840Y52199D02*
Y57830D01*
X326040Y52113D02*
Y57830D01*
X326160Y51993D02*
Y57830D01*
X326880Y50320D02*
Y57830D01*
X327000Y50320D02*
Y57830D01*
X327120Y50320D02*
Y57830D01*
X327240Y50320D02*
Y57830D01*
X326760Y51393D02*
Y57830D01*
X327360Y50320D02*
Y57830D01*
X327480Y50320D02*
Y57830D01*
X327600Y50320D02*
Y57830D01*
X327720Y50320D02*
Y57830D01*
X327840Y50320D02*
Y57830D01*
X327960Y50320D02*
Y57830D01*
X328080Y50320D02*
Y57830D01*
X328200Y50320D02*
Y57830D01*
X328320Y50320D02*
Y57830D01*
X328440Y50320D02*
Y57830D01*
X328560Y50320D02*
Y57830D01*
X328680Y50320D02*
Y57830D01*
X328800Y50320D02*
Y57830D01*
X328920Y50320D02*
Y57830D01*
X329040Y50320D02*
Y57830D01*
X329160Y50320D02*
Y57830D01*
X329280Y50320D02*
Y57830D01*
X329400Y50320D02*
Y57830D01*
X329520Y50320D02*
Y57830D01*
X329640Y50320D02*
Y57830D01*
X329760Y50320D02*
Y57830D01*
X329880Y50320D02*
Y57830D01*
X330000Y50320D02*
Y57830D01*
X330120Y50320D02*
Y57830D01*
X330240Y50320D02*
Y57830D01*
X330360Y50320D02*
Y57830D01*
X330480Y50320D02*
Y57830D01*
X330600Y50320D02*
Y57830D01*
X330720Y50320D02*
Y57830D01*
X330840Y50320D02*
Y57830D01*
X330960Y50320D02*
Y57830D01*
X331080Y50320D02*
Y57830D01*
X331200Y50320D02*
Y57830D01*
X331320Y50320D02*
Y57830D01*
X331440Y50320D02*
Y57830D01*
X331560Y50320D02*
Y57830D01*
X331680Y50320D02*
Y57830D01*
X331800Y50320D02*
Y57830D01*
X331920Y50320D02*
Y57830D01*
X332040Y50320D02*
Y57830D01*
X332160Y50320D02*
Y57830D01*
X332280Y50320D02*
Y57830D01*
X332400Y50320D02*
Y57830D01*
X332520Y50320D02*
Y57830D01*
X332640Y50320D02*
Y57830D01*
X332760Y50320D02*
Y57830D01*
X332880Y50320D02*
Y57830D01*
X333000Y50320D02*
Y57830D01*
X333120Y50320D02*
Y57830D01*
X333840Y50263D02*
Y57830D01*
X333240Y50342D02*
Y57830D01*
X333360Y50407D02*
Y57830D01*
X333480Y50430D02*
Y57830D01*
X333600Y50418D02*
Y57830D01*
X333720Y50369D02*
Y57830D01*
X323520Y52792D02*
Y55920D01*
X323640Y52935D02*
Y55943D01*
X323500Y55920D02*
X324980D01*
X323760Y53057D02*
Y56008D01*
X323798Y56040D02*
X324980D01*
X323520Y56780D02*
Y57830D01*
X323817Y56640D02*
X324980D01*
X323630Y56760D02*
X324980D01*
X323880Y53113D02*
Y56149D01*
X324980Y52400D02*
Y56963D01*
X325620Y52533D02*
Y56963D01*
X325680Y52473D02*
Y57049D01*
X323886Y56160D02*
X324980D01*
X323924Y56280D02*
X324980D01*
X323927Y56400D02*
X324980D01*
X323895Y56520D02*
X324980D01*
X324000Y53130D02*
Y57830D01*
X324240Y53057D02*
Y57830D01*
X324360Y52935D02*
Y57830D01*
X324480Y52559D02*
Y57830D01*
X323640Y56757D02*
Y57830D01*
X323760Y56692D02*
Y57830D01*
X323880Y56551D02*
Y57830D01*
X324120Y53113D02*
Y57830D01*
X324600Y52439D02*
Y57830D01*
X324720Y52319D02*
Y57830D01*
X324960Y57513D02*
Y57830D01*
X325680Y57451D02*
Y57830D01*
X325080Y57619D02*
Y57830D01*
X325200Y57668D02*
Y57830D01*
X325320Y57680D02*
Y57830D01*
X325440Y57657D02*
Y57830D01*
X325560Y57592D02*
Y57830D01*
X325620Y54000D02*
X334760D01*
X325620Y54120D02*
X334760D01*
X325620Y54240D02*
X334760D01*
X325620Y54360D02*
X334760D01*
X325620Y54480D02*
X334760D01*
X325620Y54600D02*
X334760D01*
X325620Y54720D02*
X334792D01*
X325620Y54840D02*
X334901D01*
X325620Y54960D02*
X335021D01*
X325620Y55080D02*
X335141D01*
X325620Y55200D02*
X335261D01*
X325620Y55320D02*
X335381D01*
X325620Y55440D02*
X335501D01*
X325620Y55560D02*
X335621D01*
X325620Y55680D02*
X335741D01*
X325620Y55800D02*
X335861D01*
X325620Y55920D02*
X335876D01*
X325620Y56040D02*
X335872D01*
X325620Y56160D02*
X335895D01*
X325620Y56280D02*
X335950D01*
X325620Y56400D02*
X336052D01*
X325620Y56520D02*
X336298D01*
X325550Y57600D02*
X336297D01*
X325620Y56640D02*
X337030D01*
X325620Y56760D02*
X337030D01*
X325800Y52353D02*
Y57830D01*
X325620Y56880D02*
X337017D01*
X325920Y52233D02*
Y57830D01*
X325716Y57360D02*
X336537D01*
X325663Y57480D02*
X336417D01*
X325650Y57000D02*
X336897D01*
X325710Y57120D02*
X336777D01*
X325730Y57240D02*
X336657D01*
X333960Y34730D02*
Y34960D01*
X334080Y34730D02*
Y34960D01*
X334200Y34730D02*
Y34960D01*
X334320Y34730D02*
Y34960D01*
X334440Y34730D02*
Y34960D01*
X334560Y34730D02*
Y34960D01*
X334680Y34730D02*
Y34960D01*
X334800Y34730D02*
Y34960D01*
X334920Y34730D02*
Y34960D01*
X335040Y34730D02*
Y34960D01*
X335160Y34730D02*
Y34960D01*
X335280Y34730D02*
Y34960D01*
X335400Y34730D02*
Y34960D01*
X335520Y34730D02*
Y34960D01*
X335640Y34730D02*
Y34960D01*
X335760Y34730D02*
Y34960D01*
X333960Y35440D02*
Y38510D01*
X334080Y35440D02*
Y38510D01*
X334200Y35440D02*
Y38510D01*
X334320Y35440D02*
Y38510D01*
X334440Y35440D02*
Y38510D01*
X334560Y35440D02*
Y38518D01*
X334680Y35440D02*
Y38591D01*
X334800Y35440D02*
Y38711D01*
X334920Y35440D02*
Y38831D01*
X335040Y35440D02*
Y38951D01*
X335880Y34730D02*
Y34960D01*
X335160Y35440D02*
Y39071D01*
X335280Y35440D02*
Y39191D01*
X335400Y35440D02*
Y39311D01*
X335880Y35440D02*
Y35903D01*
X335520Y35440D02*
Y39431D01*
X335640Y35440D02*
Y39551D01*
X336000Y34730D02*
Y34960D01*
X336120Y34730D02*
Y34960D01*
X336240Y34730D02*
Y34960D01*
X336360Y34730D02*
Y34960D01*
X336240Y35440D02*
Y35533D01*
X336120Y35440D02*
Y35579D01*
X336360Y35440D02*
Y35520D01*
X336350D02*
X336450D01*
X336480Y34730D02*
Y34960D01*
Y35440D02*
Y35521D01*
X336600Y34730D02*
Y34960D01*
X336720Y34730D02*
Y34960D01*
X336350Y35520D02*
X336450D01*
X336600Y35440D02*
Y35544D01*
X336450Y35520D02*
X338581D01*
X336720Y35440D02*
Y35603D01*
X336768Y35640D02*
X338701D01*
X336000Y35440D02*
Y35672D01*
X335880Y36097D02*
Y36903D01*
X336000Y36328D02*
Y36672D01*
Y37328D02*
Y37652D01*
X335880Y37097D02*
Y37898D01*
X336120Y36421D02*
Y36579D01*
X336350Y36480D02*
X336427D01*
X336240Y36467D02*
Y36533D01*
X336350Y36480D02*
X336427D01*
X336360D02*
Y36520D01*
X336350D02*
X336450D01*
X336427Y36480D02*
X336468Y36520D01*
X336720Y37397D02*
Y37578D01*
X334849Y38760D02*
X335927D01*
X334670Y38580D02*
X335670Y39580D01*
X334401Y38990D02*
X335260Y39849D01*
X333960Y38990D02*
Y39875D01*
X334969Y38880D02*
X335884D01*
X335089Y39000D02*
X335870D01*
X335880Y38102D02*
Y38898D01*
X335209Y39120D02*
X335884D01*
X336000Y38348D02*
Y38652D01*
X335329Y39240D02*
X335927D01*
X336000Y39348D02*
Y39652D01*
X335738Y39720D02*
X335950D01*
X335740Y39840D02*
X335895D01*
X334080Y38990D02*
Y39974D01*
X334067Y39960D02*
X335260D01*
X334145Y40080D02*
X335260D01*
X334136Y40440D02*
X335260D01*
X334048Y40560D02*
X335260D01*
X333990Y40680D02*
X335260D01*
X333990Y40800D02*
X335260D01*
X335880Y39102D02*
Y39898D01*
X334177Y40200D02*
X335260D01*
X335740Y39960D02*
X335872D01*
X335740Y40080D02*
X335876D01*
X335740Y40200D02*
X335909D01*
X334174Y40320D02*
X335260D01*
X335740D02*
X335978D01*
X335740Y40800D02*
X335909D01*
X336000Y40348D02*
Y40652D01*
X336120Y37421D02*
Y37550D01*
Y38450D02*
Y38550D01*
X334729Y38640D02*
X336011D01*
X335449Y39360D02*
X336011D01*
X334569Y38520D02*
X336175D01*
X335569Y39480D02*
X336175D01*
X336642Y37440D02*
X336930D01*
X336600Y37456D02*
Y37509D01*
X336695Y37560D02*
X336930D01*
X336748Y38400D02*
X336930D01*
X336720Y38422D02*
Y38578D01*
X336625Y38520D02*
X336930D01*
X336789Y38640D02*
X336930D01*
X336120Y39450D02*
Y39550D01*
X335687Y39600D02*
X336052D01*
X335740Y40440D02*
X336105D01*
X335740Y40680D02*
X335978D01*
X336120Y40450D02*
Y40550D01*
X335740Y40560D02*
X336105D01*
X336720Y39422D02*
Y39578D01*
X336625Y39480D02*
X336930D01*
X336748Y39600D02*
X336930D01*
X336720Y40422D02*
Y40578D01*
X336695Y40440D02*
X336930D01*
X336695Y40560D02*
X336930D01*
X336840Y34730D02*
Y34960D01*
X336960Y34730D02*
Y34960D01*
X337080Y34730D02*
Y34960D01*
X337200Y34730D02*
Y34960D01*
X336840Y35440D02*
Y35720D01*
X337320Y34730D02*
Y34960D01*
X336960Y35440D02*
Y36107D01*
X337440Y34730D02*
Y34960D01*
X337560Y34730D02*
Y34960D01*
X337680Y34730D02*
Y34960D01*
X337800Y34730D02*
Y34960D01*
X337920Y34730D02*
Y34960D01*
X338040Y34730D02*
Y34960D01*
X338160Y34730D02*
Y34960D01*
X338280Y34730D02*
Y34960D01*
X338400Y34730D02*
Y34960D01*
X337080Y35440D02*
Y36227D01*
X336930Y37000D02*
Y38000D01*
X337200Y35440D02*
Y36347D01*
X336925Y36072D02*
X337476Y36623D01*
X336886Y37200D02*
X336930D01*
X336840Y37280D02*
Y37705D01*
X336808Y37320D02*
X336930D01*
X336822Y37680D02*
X336930D01*
X337320Y35440D02*
Y36467D01*
X337440Y35440D02*
Y36587D01*
X337560Y35440D02*
Y36771D01*
X337542Y36720D02*
X338412D01*
X337570Y36840D02*
X338410D01*
X337570Y36960D02*
X338410D01*
X337570Y37080D02*
X338410D01*
X338520Y34730D02*
Y34960D01*
X336866Y35760D02*
X338821D01*
X338501Y35440D02*
X338870Y35809D01*
X336915Y35880D02*
X338870D01*
X337093Y36240D02*
X338821D01*
X337213Y36360D02*
X338701D01*
X336930Y36000D02*
X338870D01*
X336973Y36120D02*
X338870D01*
X338640Y34730D02*
Y34963D01*
X338760Y34730D02*
Y35021D01*
X338880Y34730D02*
Y35141D01*
X339000Y34730D02*
Y35261D01*
X339120Y34730D02*
Y35381D01*
X338760Y35699D02*
Y36301D01*
X338870Y35809D02*
Y36191D01*
X337453Y36600D02*
X338463D01*
X337333Y36480D02*
X338581D01*
X337570Y37200D02*
X338410D01*
X337570Y37320D02*
X338410D01*
X337570Y37440D02*
X338410D01*
X337570Y37560D02*
X338410D01*
X338640Y35579D02*
Y36421D01*
X338520Y35459D02*
Y36541D01*
X338480Y36580D02*
X338870Y36191D01*
X338890Y37137D02*
Y37856D01*
Y37320D02*
X338992D01*
X339000Y37328D02*
Y37652D01*
X338890Y37440D02*
X339158D01*
X338890Y37560D02*
X339105D01*
X339120Y37421D02*
Y37550D01*
X337570Y37680D02*
X338410D01*
X336891Y37800D02*
X336930D01*
X337570D02*
X338410D01*
X337570Y37920D02*
X338410D01*
X336840Y38295D02*
Y38705D01*
X336930Y38000D02*
Y39000D01*
X336850Y38280D02*
X336930D01*
X336873Y38760D02*
X336930D01*
X337570Y38040D02*
X338410D01*
X337570Y38160D02*
X338410D01*
X337570Y38280D02*
X338410D01*
X337570Y38400D02*
X338410D01*
X337570Y38520D02*
X338410D01*
X337570Y38640D02*
X338410D01*
X337570Y38760D02*
X338410D01*
X337570Y38880D02*
X338410D01*
X337570Y39000D02*
X338410D01*
X336873Y39240D02*
X336930D01*
X336840Y39295D02*
Y39705D01*
X336789Y39360D02*
X336930D01*
X336850Y39720D02*
X336930D01*
X336891Y40200D02*
X336930D01*
X336840Y40295D02*
Y40705D01*
X336822Y40320D02*
X336930D01*
X336822Y40680D02*
X336930D01*
X337570Y39120D02*
X338410D01*
X336930Y39000D02*
Y40000D01*
X337570Y39240D02*
X338410D01*
X337570Y39360D02*
X338410D01*
X337570Y39480D02*
X338410D01*
X337570Y39600D02*
X338410D01*
X337570Y39720D02*
X338410D01*
X337570Y39840D02*
X338410D01*
X337570Y39960D02*
X338410D01*
X338890Y38280D02*
X338950D01*
X338890Y38144D02*
Y38856D01*
Y37680D02*
X338978D01*
X338890Y38640D02*
X339011D01*
X338890Y38760D02*
X338927D01*
X338890Y38400D02*
X339052D01*
X338890Y38520D02*
X339175D01*
X339120Y38450D02*
Y38550D01*
X339000Y38348D02*
Y38652D01*
X338890Y39240D02*
X338927D01*
X338890Y39360D02*
X339011D01*
X338890Y39480D02*
X339175D01*
X338890Y39600D02*
X339052D01*
X339120Y39450D02*
Y39550D01*
X337570Y40080D02*
X338410D01*
X337570Y40200D02*
X338410D01*
X338890Y39720D02*
X338950D01*
X338890Y39144D02*
Y39856D01*
X337570Y40320D02*
X338410D01*
X337570Y40440D02*
X338410D01*
X337570Y40560D02*
X338410D01*
X337570Y40680D02*
X338410D01*
X339000Y39348D02*
Y39652D01*
X338890Y40320D02*
X338978D01*
X338890Y40680D02*
X338978D01*
X339000Y40348D02*
Y40652D01*
X338890Y40440D02*
X339105D01*
X338890Y40560D02*
X339105D01*
X339120Y40450D02*
Y40550D01*
X333990Y40920D02*
X335260D01*
X333990Y41040D02*
X335260D01*
X333990Y41160D02*
X335260D01*
X333990Y41280D02*
X335260D01*
X333990Y41400D02*
X335260D01*
X333990Y41520D02*
X335260D01*
X333990Y41640D02*
X335260D01*
X333990Y41760D02*
X335260D01*
X333990Y41880D02*
X335260D01*
X333990Y42000D02*
X335260D01*
X333990Y42120D02*
X335260D01*
X333990Y42240D02*
X335260D01*
X333990Y42360D02*
X335260D01*
X333990Y42480D02*
X335260D01*
X333990Y42600D02*
X335260D01*
X333990Y42720D02*
X335260D01*
X334080Y40526D02*
Y43741D01*
X334200Y38990D02*
Y43861D01*
X334320Y38990D02*
Y43981D01*
X334440Y39029D02*
Y44101D01*
X333990Y42840D02*
X335260D01*
X333990Y40607D02*
Y43651D01*
Y42960D02*
X335260D01*
X333990Y43080D02*
X335260D01*
X334560Y39149D02*
Y44221D01*
X334680Y39269D02*
Y44341D01*
X335760Y35440D02*
Y44021D01*
X334800Y39389D02*
Y44461D01*
X334920Y39509D02*
Y44581D01*
X335040Y39629D02*
Y44701D01*
X335740Y39750D02*
Y44001D01*
X335160Y39749D02*
Y44821D01*
X335260Y39849D02*
Y44100D01*
X335740Y40920D02*
X335876D01*
X335740Y41040D02*
X335872D01*
X335740Y41160D02*
X335895D01*
X335740Y41280D02*
X335950D01*
X335740Y41640D02*
X336011D01*
X335740Y41760D02*
X335927D01*
X335740Y41400D02*
X336052D01*
X335740Y41520D02*
X336175D01*
X335880Y40102D02*
Y40898D01*
Y41102D02*
Y41898D01*
X335740Y42000D02*
X335870D01*
X336120Y41450D02*
Y41550D01*
X335740Y41880D02*
X335884D01*
X336000Y41348D02*
Y41652D01*
X335740Y42120D02*
X335884D01*
X335740Y42240D02*
X335927D01*
X335740Y42360D02*
X336011D01*
X335740Y42480D02*
X336175D01*
X335740Y42840D02*
X335895D01*
X335740Y42960D02*
X335872D01*
X335740Y42600D02*
X336052D01*
X335740Y42720D02*
X335950D01*
X335880Y42102D02*
Y42898D01*
X336120Y42450D02*
Y42550D01*
X336000Y42348D02*
Y42652D01*
X333990Y43200D02*
X335260D01*
X333990Y43320D02*
X335260D01*
X333990Y43440D02*
X335260D01*
X333990Y43560D02*
X335260D01*
X334019Y43680D02*
X335260D01*
X334139Y43800D02*
X335260D01*
X334259Y43920D02*
X335260D01*
X334379Y44040D02*
X335260D01*
X334499Y44160D02*
X335268D01*
X335740Y43080D02*
X335876D01*
X334619Y44280D02*
X335341D01*
X334739Y44400D02*
X335461D01*
X334859Y44520D02*
X335581D01*
X334979Y44640D02*
X335701D01*
X335099Y44760D02*
X335821D01*
X333960Y44299D02*
Y57830D01*
X334080Y44419D02*
Y57830D01*
X333990Y43651D02*
X335170Y44830D01*
X334200Y44539D02*
Y57830D01*
X334320Y44659D02*
Y57830D01*
X334440Y44779D02*
Y57830D01*
X334560Y44899D02*
Y57830D01*
X334680Y45019D02*
Y57830D01*
X335280Y44196D02*
Y54541D01*
X335400Y44339D02*
Y54661D01*
X335520Y44459D02*
Y54781D01*
X335640Y44579D02*
Y54901D01*
X334760Y45099D02*
Y54600D01*
X335240Y45000D02*
Y54501D01*
X335760Y44699D02*
Y55021D01*
X335740Y43200D02*
X335909D01*
X335740Y43320D02*
X335978D01*
X335740Y43440D02*
X336105D01*
X335740Y43560D02*
X336105D01*
X335740Y43800D02*
X335909D01*
X335330Y44270D02*
X335896Y44836D01*
X335740Y43680D02*
X335978D01*
X335208Y44880D02*
X335884D01*
X336000Y43348D02*
Y43652D01*
X335880Y43102D02*
Y43898D01*
X336120Y43450D02*
Y43550D01*
X335740Y43920D02*
X335876D01*
X335779Y44040D02*
X335872D01*
X335880Y44102D02*
Y44141D01*
X335740Y44001D02*
X335893Y44153D01*
X335880Y44819D02*
Y44898D01*
X335240Y45000D02*
X335870D01*
X335240Y45120D02*
X335884D01*
X335240Y45240D02*
X335927D01*
X335240Y45360D02*
X336011D01*
X335240Y45480D02*
X336175D01*
X335240Y45600D02*
X336930D01*
X335240Y45720D02*
X336930D01*
X335240Y45840D02*
X336930D01*
X336000Y45348D02*
Y46652D01*
X335880Y45102D02*
Y46898D01*
X336120Y45450D02*
Y46550D01*
X336360Y45528D02*
Y46472D01*
X336240Y45505D02*
Y46495D01*
X335240Y45960D02*
X336930D01*
X336480Y45524D02*
Y46467D01*
X336472Y46475D02*
X336930Y46017D01*
X336720Y41422D02*
Y41578D01*
X336840Y41295D02*
Y41705D01*
X336850Y41280D02*
X336930D01*
X336748Y41400D02*
X336930D01*
X336625Y41520D02*
X336930D01*
X336789Y41640D02*
X336930D01*
X336873Y41760D02*
X336930D01*
X336789Y42360D02*
X336930D01*
X336891Y40800D02*
X336930D01*
Y40000D02*
Y41000D01*
X337570Y40800D02*
X338410D01*
X337570Y40920D02*
X338410D01*
X336930Y41000D02*
Y42000D01*
X336873Y42240D02*
X336930D01*
X337570Y41040D02*
X338410D01*
X337570Y41160D02*
X338410D01*
X337570Y41280D02*
X338410D01*
X336720Y42422D02*
Y42578D01*
X336840Y42295D02*
Y42705D01*
X336625Y42480D02*
X336930D01*
Y42000D02*
Y43000D01*
X336748Y42600D02*
X336930D01*
X336850Y42720D02*
X336930D01*
X336891Y43200D02*
X336930D01*
Y43000D02*
Y44000D01*
X337680Y35440D02*
Y58470D01*
X337800Y35440D02*
Y58470D01*
X337920Y35440D02*
Y58470D01*
X338040Y35440D02*
Y58470D01*
X337570Y36850D02*
Y46150D01*
X338160Y35440D02*
Y58470D01*
X338410Y36750D02*
Y46250D01*
X338280Y35440D02*
Y58470D01*
X338400Y35440D02*
Y58470D01*
X337570Y41400D02*
X338410D01*
X337570Y41520D02*
X338410D01*
X337570Y41640D02*
X338410D01*
X337570Y41760D02*
X338410D01*
X337570Y41880D02*
X338410D01*
X337570Y42000D02*
X338410D01*
X337570Y42120D02*
X338410D01*
X337570Y42240D02*
X338410D01*
X338890Y40144D02*
Y40856D01*
Y41144D02*
Y41856D01*
Y41280D02*
X338950D01*
X339000Y41348D02*
Y41652D01*
X338890Y41640D02*
X339011D01*
X338890Y41760D02*
X338927D01*
X338890Y41400D02*
X339052D01*
X338890Y41520D02*
X339175D01*
X339120Y41450D02*
Y41550D01*
X337570Y42360D02*
X338410D01*
X337570Y42480D02*
X338410D01*
X337570Y42600D02*
X338410D01*
X337570Y42720D02*
X338410D01*
X337570Y42840D02*
X338410D01*
X337570Y42960D02*
X338410D01*
X337570Y43080D02*
X338410D01*
X337570Y43200D02*
X338410D01*
X338890Y42240D02*
X338927D01*
X338890Y42144D02*
Y42856D01*
Y42360D02*
X339011D01*
X339000Y42348D02*
Y42652D01*
X338890Y42720D02*
X338950D01*
X338890Y43144D02*
Y43856D01*
Y42480D02*
X339175D01*
X338890Y42600D02*
X339052D01*
X339120Y42450D02*
Y42550D01*
X336720Y43422D02*
Y43578D01*
X336840Y43295D02*
Y43705D01*
X336822Y43320D02*
X336930D01*
X336695Y43440D02*
X336930D01*
X336695Y43560D02*
X336930D01*
X336822Y43680D02*
X336930D01*
X336850Y44280D02*
X336930D01*
X337570Y43320D02*
X338410D01*
X337570Y43440D02*
X338410D01*
X337570Y43560D02*
X338410D01*
X337570Y43680D02*
X338410D01*
X336891Y43800D02*
X336930D01*
X337570D02*
X338410D01*
X337570Y43920D02*
X338410D01*
X337570Y44040D02*
X338410D01*
X337570Y44160D02*
X338410D01*
X336720Y44422D02*
Y44578D01*
X336748Y44400D02*
X336930D01*
X336720Y45422D02*
Y46227D01*
X336600Y45491D02*
Y46347D01*
X336625Y44520D02*
X336930D01*
X336625Y45480D02*
X336930D01*
X336840Y44295D02*
Y44705D01*
X336930Y44000D02*
Y45000D01*
X337570Y44280D02*
X338410D01*
X336789Y44640D02*
X336930D01*
X336873Y44760D02*
X336930D01*
X336840Y45295D02*
Y46107D01*
X336873Y45240D02*
X336930D01*
X336789Y45360D02*
X336930D01*
Y45000D02*
Y46017D01*
X338890Y43320D02*
X338978D01*
X338890Y43680D02*
X338978D01*
X338890Y43440D02*
X339105D01*
X338890Y43560D02*
X339105D01*
X337570Y44400D02*
X338410D01*
X337570Y44520D02*
X338410D01*
X337570Y44640D02*
X338410D01*
X337570Y44760D02*
X338410D01*
X339000Y43348D02*
Y43652D01*
X338890Y44280D02*
X338950D01*
X339120Y43450D02*
Y43550D01*
X339000Y44348D02*
Y44652D01*
X338890Y44640D02*
X339011D01*
X338890Y44760D02*
X338927D01*
X338890Y44400D02*
X339052D01*
X338890Y44520D02*
X339175D01*
X339120Y44450D02*
Y44550D01*
X337570Y44880D02*
X338410D01*
X337570Y45000D02*
X338410D01*
X337570Y45120D02*
X338410D01*
X337570Y45240D02*
X338410D01*
X337570Y45360D02*
X338410D01*
X337570Y45480D02*
X338410D01*
X337570Y45600D02*
X338410D01*
X337570Y45720D02*
X338410D01*
X338890Y44144D02*
Y44856D01*
Y45144D02*
Y46151D01*
Y45240D02*
X338927D01*
X339000Y45348D02*
Y46261D01*
X337570Y45840D02*
X338410D01*
X337570Y45960D02*
X338410D01*
X338890Y45360D02*
X339011D01*
X338890Y45480D02*
X339175D01*
X339120Y45450D02*
Y46381D01*
X339240Y34730D02*
Y35501D01*
X338770Y35030D02*
X339259Y35520D01*
X339930D01*
X339259D02*
X339930D01*
X339350Y36520D02*
X339450D01*
X339193Y36546D02*
X339259Y36480D01*
X339930D01*
X339259D02*
X339930D01*
X339360Y34730D02*
Y35520D01*
X339480Y34730D02*
Y35520D01*
X339600Y34730D02*
Y35520D01*
X339720Y34730D02*
Y35520D01*
X339360Y36480D02*
Y36520D01*
X339480Y36480D02*
Y36521D01*
X339840Y34730D02*
Y35520D01*
X339930D02*
Y36480D01*
X339240Y36499D02*
Y36533D01*
X339600Y36480D02*
Y36544D01*
X339720Y36480D02*
Y36603D01*
X339960Y34730D02*
Y38221D01*
X340080Y34730D02*
Y38341D01*
X340200Y34730D02*
Y38461D01*
X339600Y37456D02*
Y37509D01*
X339720Y37397D02*
Y37578D01*
X339840Y36480D02*
Y36720D01*
Y37280D02*
Y37705D01*
X338779Y35040D02*
X347220D01*
X338899Y35160D02*
X347220D01*
X339019Y35280D02*
X347220D01*
X339139Y35400D02*
X347220D01*
X339840Y36720D02*
X341736D01*
X339903Y36840D02*
X341701D01*
X339930Y35520D02*
X347220D01*
X339715Y36600D02*
X341785D01*
X339930Y35640D02*
X347220D01*
X339930Y36000D02*
X342445D01*
X339930Y35760D02*
X347220D01*
X339930Y35880D02*
X347220D01*
X339930Y36480D02*
X341851D01*
X339928Y36960D02*
X341679D01*
X339930Y36120D02*
X342205D01*
X339930Y36240D02*
X342051D01*
X339930Y36360D02*
X341938D01*
X339886Y37200D02*
X341674D01*
X339808Y37320D02*
X341689D01*
X339642Y37440D02*
X341718D01*
X339695Y37560D02*
X341760D01*
X339823Y37680D02*
X341818D01*
X339904Y38164D02*
X341520Y39780D01*
X339891Y37800D02*
X341894D01*
X339905Y38160D02*
X342315D01*
X340320Y34730D02*
Y38581D01*
X340440Y34730D02*
Y38701D01*
X340560Y34730D02*
Y38821D01*
X340680Y34730D02*
Y38941D01*
X339923Y37080D02*
X341670D01*
X339924Y37920D02*
X341993D01*
X339928Y38040D02*
X342126D01*
X340019Y38280D02*
X342710D01*
X340139Y38400D02*
X347220D01*
X339930Y39000D02*
X340061D01*
X339916Y39120D02*
X340181D01*
X339928Y39960D02*
X340021D01*
X339924Y40080D02*
X340141D01*
X339960Y38899D02*
Y39221D01*
X340080Y39019D02*
Y39341D01*
X339979Y39240D02*
X340301D01*
X340200Y39139D02*
Y39461D01*
X339960Y39899D02*
Y40221D01*
X340080Y40019D02*
Y40341D01*
X340320Y39259D02*
Y39581D01*
X339939Y40200D02*
X340261D01*
X340200Y40139D02*
Y40461D01*
X339905Y41160D02*
X340221D01*
X339907Y41847D02*
X340060Y41999D01*
X339924Y40920D02*
X339981D01*
X339960Y40899D02*
Y41221D01*
X340320Y40259D02*
Y40581D01*
X339928Y41040D02*
X340101D01*
X339930Y42000D02*
X340060D01*
X339916Y42120D02*
X340060D01*
X340080Y41019D02*
Y41341D01*
X340200Y41139D02*
Y41461D01*
X340320Y41259D02*
Y41581D01*
X339907Y38847D02*
X341110Y40049D01*
X339904Y39164D02*
X341110Y40371D01*
X340259Y38520D02*
X347220D01*
X340379Y38640D02*
X347220D01*
X340099Y39360D02*
X340421D01*
X340059Y40320D02*
X340381D01*
X340219Y39480D02*
X340541D01*
X340339Y39600D02*
X340661D01*
X340499Y38760D02*
X347220D01*
X340440Y39379D02*
Y39701D01*
X340619Y38880D02*
X347220D01*
X340739Y39000D02*
X347220D01*
X340560Y39499D02*
Y39821D01*
X340680Y39619D02*
Y39941D01*
X340459Y39720D02*
X340781D01*
X340579Y39840D02*
X340901D01*
X340699Y39960D02*
X341021D01*
X340179Y40440D02*
X340501D01*
X339907Y40847D02*
X340410Y41349D01*
X339907Y39847D02*
X340760Y40699D01*
X339904Y40164D02*
X340760Y41021D01*
X340019Y41280D02*
X340341D01*
X339904Y41164D02*
X340410Y41671D01*
X340139Y41400D02*
X340410D01*
X340259Y41520D02*
X340410D01*
X340440Y40379D02*
Y40701D01*
X340560Y40499D02*
Y40821D01*
X340299Y40560D02*
X340621D01*
X340680Y40619D02*
Y40941D01*
X340379Y41640D02*
X340410D01*
Y41349D02*
Y41671D01*
X340419Y40680D02*
X340741D01*
X340539Y40800D02*
X340760D01*
X340659Y40920D02*
X340760D01*
X341880Y34730D02*
Y36436D01*
X341760Y34730D02*
Y36656D01*
X342120Y34730D02*
Y36181D01*
X342000Y34730D02*
Y36290D01*
X342360Y34730D02*
Y36035D01*
X342240Y34730D02*
Y36098D01*
X342480Y34730D02*
Y35988D01*
X342720Y34730D02*
Y35936D01*
X342600Y34730D02*
Y35955D01*
X342840Y34730D02*
Y35928D01*
X342960Y34730D02*
Y35933D01*
X343080Y34730D02*
Y35951D01*
X343200Y34730D02*
Y35981D01*
X343320Y34730D02*
Y36026D01*
X340800Y34730D02*
Y39061D01*
X340920Y34730D02*
Y39181D01*
X341040Y34730D02*
Y39301D01*
X341160Y34730D02*
Y39421D01*
X341280Y34730D02*
Y39541D01*
X341400Y34730D02*
Y39661D01*
X341520Y34730D02*
Y39781D01*
X341640Y34730D02*
Y41261D01*
X341880Y37780D02*
Y41134D01*
X341760Y37560D02*
Y41177D01*
X342000Y37927D02*
Y41120D01*
X342120Y38035D02*
Y41134D01*
X342240Y38118D02*
Y41177D01*
X342360Y38182D02*
Y41261D01*
X342480Y38229D02*
Y41425D01*
X342600Y38262D02*
Y42073D01*
X343200Y38235D02*
Y41474D01*
X343440Y34730D02*
Y36086D01*
X343560Y34730D02*
Y36166D01*
X343255Y36000D02*
X347220D01*
X343680Y34730D02*
Y36270D01*
X343495Y36120D02*
X347220D01*
X343649Y36240D02*
X347220D01*
X343762Y36360D02*
X347220D01*
X343800Y34730D02*
Y36408D01*
X343920Y34730D02*
Y36611D01*
X343849Y36480D02*
X347220D01*
X343915Y36600D02*
X347220D01*
X343964Y36720D02*
X347220D01*
X343999Y36840D02*
X347220D01*
X344021Y36960D02*
X347220D01*
X344026Y37200D02*
X347220D01*
X344030Y37080D02*
X347220D01*
X343560Y38051D02*
Y41139D01*
X343680Y37947D02*
Y41120D01*
X343707Y37920D02*
X347220D01*
X343440Y38130D02*
Y41188D01*
X343320Y38191D02*
Y41281D01*
X343574Y38040D02*
X347220D01*
X343385Y38160D02*
X347220D01*
X344040Y34730D02*
Y41243D01*
X344160Y34730D02*
Y41387D01*
X344011Y37320D02*
X347220D01*
X343982Y37440D02*
X347220D01*
X343800Y37808D02*
Y41130D01*
X343920Y37606D02*
Y41168D01*
X343940Y37560D02*
X347220D01*
X343806Y37800D02*
X347220D01*
X343882Y37680D02*
X347220D01*
X340800Y39739D02*
Y40061D01*
X340920Y39859D02*
Y40181D01*
X341040Y39979D02*
Y40301D01*
X341110Y40049D02*
Y40371D01*
X340819Y40080D02*
X341110D01*
X340760Y40699D02*
Y41021D01*
X340939Y40200D02*
X341110D01*
X341059Y40320D02*
X341110D01*
X341590Y41160D02*
X341798D01*
X341590Y39950D02*
Y41314D01*
Y41280D02*
X341621D01*
X342379D02*
X343321D01*
X342467Y41400D02*
X343233D01*
X342514Y41520D02*
X343186D01*
X341640Y42039D02*
Y42111D01*
X341590Y42120D02*
X341631D01*
X342360Y42039D02*
Y42111D01*
X342369Y42120D02*
X342449D01*
X342720Y38281D02*
Y42076D01*
X342840Y38288D02*
Y42114D01*
X342530Y41640D02*
X343170D01*
X342518Y41760D02*
X343182D01*
X342477Y41880D02*
X343223D01*
X342480Y41875D02*
Y42105D01*
X342398Y42000D02*
X343302D01*
X342851Y42120D02*
X343331D01*
X343320Y42019D02*
Y42131D01*
X340859Y39120D02*
X347220D01*
X340979Y39240D02*
X347220D01*
X341099Y39360D02*
X347220D01*
X341219Y39480D02*
X347220D01*
X341339Y39600D02*
X347220D01*
X341459Y39720D02*
X347220D01*
X341563Y39840D02*
X347220D01*
X341590Y39960D02*
X347220D01*
X342990Y38280D02*
X347220D01*
X341590Y40080D02*
X347220D01*
X341590Y40200D02*
X347220D01*
X341590Y40320D02*
X347220D01*
X341590Y40440D02*
X347220D01*
X341590Y40560D02*
X347220D01*
X341590Y40680D02*
X347220D01*
X341590Y40800D02*
X347220D01*
X341590Y40920D02*
X347220D01*
X342202Y41160D02*
X343498D01*
X341590Y41040D02*
X347220D01*
X343902Y41160D02*
X347220D01*
X344079Y41280D02*
X347220D01*
X344167Y41400D02*
X347220D01*
X344214Y41520D02*
X347220D01*
X344230Y41640D02*
X347220D01*
X344218Y41760D02*
X347220D01*
X344040Y42057D02*
Y42093D01*
X344177Y41880D02*
X347220D01*
X344069Y42120D02*
X347220D01*
X344098Y42000D02*
X347220D01*
X339710Y43430D02*
Y43570D01*
X339960Y41899D02*
Y42221D01*
X340060Y41999D02*
Y42321D01*
X339979Y42240D02*
X340060D01*
X339904Y42164D02*
X340060Y42321D01*
X341240Y43779D02*
Y43951D01*
X341280Y43819D02*
Y43991D01*
X341240Y43920D02*
X341381D01*
X341240Y43779D02*
X341496Y44036D01*
X340890Y44400D02*
X341011D01*
X340890Y44279D02*
Y44451D01*
X339710Y44430D02*
Y44570D01*
X339625Y44520D02*
X339710D01*
X340920Y44309D02*
Y44481D01*
X341040Y44429D02*
Y44601D01*
X341400Y43939D02*
Y44111D01*
X341240Y43951D02*
X341470Y44181D01*
X340959Y44520D02*
X341131D01*
X341160Y44549D02*
Y44721D01*
X341079Y44640D02*
X341251D01*
X341199Y44760D02*
X341371D01*
X341280Y44669D02*
Y44841D01*
X341590Y41986D02*
Y42164D01*
X341640Y42889D02*
Y42961D01*
X341590Y42836D02*
Y43014D01*
Y42960D02*
X341641D01*
X342360Y42889D02*
Y42961D01*
X342359Y42960D02*
X342469D01*
X342480Y42895D02*
Y42955D01*
X341329Y44040D02*
X341495D01*
X342348Y43800D02*
X343352D01*
X340890Y44279D02*
X341496Y44886D01*
X340890Y44451D02*
X341470Y45031D01*
X342360Y43739D02*
Y43811D01*
X342480Y43745D02*
Y43975D01*
X342450Y43920D02*
X343250D01*
X342360Y44589D02*
Y44661D01*
X342480Y44425D02*
Y44825D01*
X342491Y44400D02*
X343209D01*
X342336Y44640D02*
X343364D01*
X342422Y44520D02*
X343278D01*
X340190Y45279D02*
Y45451D01*
X340200Y45289D02*
Y45461D01*
X339625Y45480D02*
X339710D01*
Y45430D02*
Y45550D01*
X340190Y45360D02*
X340271D01*
X338890Y45600D02*
X339715D01*
X340540Y44779D02*
Y44951D01*
X340560Y44799D02*
Y44971D01*
X340540Y44880D02*
X340641D01*
X340680Y44919D02*
Y45091D01*
X340219Y45480D02*
X340391D01*
X340320Y45409D02*
Y45581D01*
X340589Y45000D02*
X340761D01*
X340339Y45600D02*
X340511D01*
X340440Y45529D02*
Y45701D01*
X339240Y45505D02*
Y46501D01*
X339360Y45528D02*
Y46520D01*
X339480Y45524D02*
Y46520D01*
X339600Y45491D02*
Y46520D01*
X338890Y45720D02*
X339781D01*
X338890Y45840D02*
X339901D01*
X338890Y45960D02*
X340021D01*
X339720Y45619D02*
Y46520D01*
X340459Y45720D02*
X340631D01*
X340560Y45649D02*
Y45821D01*
X339840Y45779D02*
Y46520D01*
X339960Y45899D02*
Y51701D01*
X340579Y45840D02*
X340751D01*
X340080Y46019D02*
Y51581D01*
X340680Y45769D02*
Y45941D01*
X340709Y45120D02*
X340881D01*
X340800Y45039D02*
Y45211D01*
X341319Y44880D02*
X341491D01*
X340920Y45159D02*
Y45331D01*
X340829Y45240D02*
X341001D01*
X341040Y45279D02*
Y45451D01*
X340949Y45360D02*
X341121D01*
X341069Y45480D02*
X341241D01*
X341400Y44789D02*
Y44961D01*
X342444Y44760D02*
X343256D01*
X342502Y44880D02*
X343198D01*
X341439Y45000D02*
X341472D01*
X342360Y45439D02*
Y45511D01*
X342430Y45360D02*
X343270D01*
X342323Y45480D02*
X343377D01*
X341160Y45399D02*
Y45571D01*
X340540Y44779D02*
X341496Y45736D01*
X340540Y44951D02*
X341470Y45881D01*
X340190Y45279D02*
X341496Y46586D01*
X340699Y45960D02*
X340871D01*
X340800Y45889D02*
Y46061D01*
X340190Y45451D02*
X341470Y46731D01*
X339780Y45720D02*
X341496Y47436D01*
X341189Y45600D02*
X341361D01*
X341280Y45519D02*
Y45691D01*
X342437Y45600D02*
X343263D01*
X341309Y45720D02*
X341481D01*
X341400Y45639D02*
Y45811D01*
X341429Y45840D02*
X341473D01*
X342960Y38283D02*
Y42202D01*
X343080Y42480D02*
X343170D01*
X342992Y42240D02*
X343238D01*
X343057Y42360D02*
X343189D01*
X342840Y42886D02*
Y42964D01*
X343019Y42720D02*
X343218D01*
X342913Y42840D02*
X343293D01*
X343200Y41826D02*
Y42324D01*
X343080Y38266D02*
Y42500D01*
X344160Y41913D02*
Y42237D01*
X343068Y42600D02*
X343180D01*
X342960Y42798D02*
Y43052D01*
X343080Y42500D02*
Y43350D01*
X342831Y42960D02*
X343341D01*
X343079Y43320D02*
X343171D01*
X343080Y43350D02*
Y47171D01*
X342985Y43080D02*
X343244D01*
X343053Y43200D02*
X343192D01*
X344160Y42763D02*
Y43087D01*
X343200Y42676D02*
Y43174D01*
X344280Y34730D02*
Y58470D01*
X344400Y34730D02*
Y58470D01*
X343320Y42869D02*
Y42981D01*
X344040Y42907D02*
Y42943D01*
X344162Y42240D02*
X347220D01*
X344211Y42360D02*
X347220D01*
X344230Y42480D02*
X347220D01*
X344182Y42720D02*
X347220D01*
X344107Y42840D02*
X347220D01*
X344059Y42960D02*
X347220D01*
X344156Y43080D02*
X347220D01*
X344208Y43200D02*
X347220D01*
X344520Y34730D02*
Y58470D01*
X344640Y34730D02*
Y58470D01*
X344760Y34730D02*
Y58470D01*
X344880Y34730D02*
Y58470D01*
X345000Y34730D02*
Y58470D01*
X345120Y34730D02*
Y58470D01*
X344220Y42600D02*
X347220D01*
X344229Y43320D02*
X347220D01*
X345240Y34730D02*
Y58470D01*
X345360Y34730D02*
Y58470D01*
X345480Y34730D02*
Y58470D01*
X345600Y34730D02*
Y58470D01*
X345720Y34730D02*
Y58470D01*
X345840Y34730D02*
Y58470D01*
X345960Y34730D02*
Y58470D01*
X346080Y34730D02*
Y58470D01*
X346200Y34730D02*
Y58470D01*
X346320Y34730D02*
Y58470D01*
X346440Y34730D02*
Y58470D01*
X346560Y34730D02*
Y58470D01*
X346680Y34730D02*
Y58470D01*
X346800Y34730D02*
Y58470D01*
X346920Y34730D02*
Y58470D01*
X347040Y34730D02*
Y58470D01*
X347160Y34730D02*
Y58470D01*
X347220Y34730D02*
Y58470D01*
X343070Y43440D02*
X343178D01*
X343025Y43560D02*
X343213D01*
X342926Y43680D02*
X343285D01*
X342528Y44160D02*
X343172D01*
X342528Y45000D02*
X343172D01*
X342505Y44040D02*
X343195D01*
X342524Y44280D02*
X343176D01*
X343320Y43719D02*
Y43831D01*
X343200Y43526D02*
Y44024D01*
X344160Y43613D02*
Y43937D01*
X343320Y44569D02*
Y44681D01*
X343200Y44376D02*
Y44874D01*
X344040Y43757D02*
Y43793D01*
Y44607D02*
Y44643D01*
X342720Y43774D02*
Y47324D01*
X342600Y43777D02*
Y49361D01*
X342525Y45120D02*
X343175D01*
X342495Y45240D02*
X343205D01*
X342480Y45275D02*
Y45675D01*
X342527Y45840D02*
X343173D01*
X342499Y45720D02*
X343201D01*
X342527Y45960D02*
X343173D01*
X342960Y43648D02*
Y47180D01*
X342840Y43736D02*
Y47225D01*
X343320Y45419D02*
Y45531D01*
X343200Y45226D02*
Y45724D01*
X344040Y45457D02*
Y45493D01*
X344115Y43680D02*
X347220D01*
X344048Y43800D02*
X347220D01*
X344150Y43920D02*
X347220D01*
X344036Y44640D02*
X347220D01*
X344222Y43440D02*
X347220D01*
X344187Y43560D02*
X347220D01*
X344205Y44040D02*
X347220D01*
X344228Y44160D02*
X347220D01*
X344224Y44280D02*
X347220D01*
X344160Y44463D02*
Y44787D01*
X344191Y44400D02*
X347220D01*
X344123Y44520D02*
X347220D01*
X344144Y44760D02*
X347220D01*
X344130Y45360D02*
X347220D01*
X344023Y45480D02*
X347220D01*
X344202Y44880D02*
X347220D01*
X344228Y45000D02*
X347220D01*
X344225Y45120D02*
X347220D01*
X344195Y45240D02*
X347220D01*
X344137Y45600D02*
X347220D01*
X344160Y45313D02*
Y45637D01*
X344198Y45720D02*
X347220D01*
X344227Y45840D02*
X347220D01*
X344227Y45960D02*
X347220D01*
X335240Y46800D02*
X335909D01*
X335240Y46920D02*
X335876D01*
X335240Y46560D02*
X336105D01*
X335240Y46680D02*
X335978D01*
X335240Y47040D02*
X335872D01*
X335240Y47160D02*
X335895D01*
X335240Y47280D02*
X335950D01*
X335240Y47400D02*
X336052D01*
X336000Y47348D02*
Y47652D01*
X335880Y47102D02*
Y47898D01*
X335240Y47520D02*
X336175D01*
X336120Y47450D02*
Y47550D01*
X335240Y47880D02*
X335884D01*
X335240Y48000D02*
X335870D01*
X335240Y47640D02*
X336011D01*
X335240Y47760D02*
X335927D01*
X335240Y48120D02*
X335884D01*
X335240Y48240D02*
X335927D01*
X335240Y48360D02*
X336011D01*
X335240Y48480D02*
X336175D01*
X335240Y48840D02*
X335895D01*
X335240Y48960D02*
X335872D01*
X335240Y48600D02*
X336052D01*
X335240Y48720D02*
X335950D01*
X336000Y48348D02*
Y48652D01*
X335880Y48102D02*
Y48898D01*
X336120Y48450D02*
Y48550D01*
X335240Y49080D02*
X335876D01*
X335880Y49102D02*
Y49898D01*
X335240Y49200D02*
X335909D01*
X335240Y49320D02*
X335978D01*
X336000Y49348D02*
Y49652D01*
X335240Y46200D02*
X336747D01*
X335240Y46320D02*
X336627D01*
X335240Y46080D02*
X336867D01*
X336925Y46928D02*
X337476Y46377D01*
X335240Y46440D02*
X336507D01*
X336916Y48120D02*
X337030D01*
X336873Y48240D02*
X337030D01*
X336960Y46893D02*
Y47107D01*
X337053Y46800D02*
X338861D01*
X336933Y46920D02*
X338870D01*
X336930Y47982D02*
X337030Y48083D01*
X336928Y47040D02*
X338870D01*
X336925Y47072D02*
X337576Y47723D01*
X337013Y47160D02*
X338870D01*
X336720Y48422D02*
Y48578D01*
X336625Y48480D02*
X337030D01*
X336720Y49422D02*
Y49578D01*
X336748Y48600D02*
X337030D01*
X336789Y48360D02*
X337030D01*
X336840Y48295D02*
Y48705D01*
X336850Y48720D02*
X337030D01*
X336905Y48840D02*
X337030D01*
X336928Y48960D02*
X337030D01*
X336840Y49295D02*
Y49705D01*
X336924Y49080D02*
X337030D01*
X336822Y49320D02*
X337030D01*
X336891Y49200D02*
X337030D01*
X335240Y49680D02*
X335978D01*
X335240Y49800D02*
X335909D01*
X335240Y49440D02*
X336105D01*
X335240Y49560D02*
X336105D01*
X335240Y49920D02*
X335876D01*
X335240Y50040D02*
X335872D01*
X335240Y50160D02*
X335895D01*
X335240Y50280D02*
X335950D01*
X336000Y50348D02*
Y50652D01*
X335880Y50102D02*
Y50898D01*
X336120Y49450D02*
Y49550D01*
X335240Y50640D02*
X336011D01*
X335240Y50760D02*
X335927D01*
X335240Y50400D02*
X336052D01*
X335240Y50520D02*
X336175D01*
X336120Y50450D02*
Y50550D01*
X335240Y50880D02*
X335884D01*
X335240Y51000D02*
X335870D01*
X335240Y51120D02*
X335884D01*
X335240Y51240D02*
X335927D01*
X335240Y51360D02*
X336011D01*
X335240Y51720D02*
X335950D01*
X335240Y51480D02*
X336175D01*
X335240Y51600D02*
X336052D01*
X336000Y51348D02*
Y51652D01*
X335880Y51102D02*
Y51898D01*
X336120Y51450D02*
Y51550D01*
X335240Y51960D02*
X335872D01*
X335240Y52080D02*
X335876D01*
X335240Y51840D02*
X335895D01*
X335240Y52200D02*
X335909D01*
X335240Y52320D02*
X335978D01*
X336695Y49440D02*
X337030D01*
X336695Y49560D02*
X337030D01*
X336748Y50400D02*
X337030D01*
X336720Y50422D02*
Y50578D01*
X336625Y50520D02*
X337030D01*
X336789Y50640D02*
X337030D01*
X336822Y49680D02*
X337030D01*
X336891Y49800D02*
X337030D01*
X336924Y49920D02*
X337030D01*
X336928Y50040D02*
X337030D01*
X336905Y50160D02*
X337030D01*
X336840Y50295D02*
Y50705D01*
X336850Y50280D02*
X337030D01*
X336873Y50760D02*
X337030D01*
X336916Y50880D02*
X337030D01*
X336720Y51422D02*
Y51578D01*
X336789Y51360D02*
X337030D01*
X336625Y51480D02*
X337030D01*
X336748Y51600D02*
X337030D01*
X336822Y52320D02*
X337030D01*
X336930Y51000D02*
X337030D01*
X336840Y51295D02*
Y51705D01*
X336916Y51120D02*
X337030D01*
X336873Y51240D02*
X337030D01*
X336850Y51720D02*
X337030D01*
X336905Y51840D02*
X337030D01*
X336928Y51960D02*
X337030D01*
X336891Y52200D02*
X337030D01*
X336924Y52080D02*
X337030D01*
X337200Y46653D02*
Y47347D01*
X337320Y46533D02*
Y47467D01*
X337413Y46440D02*
X338501D01*
X337293Y46560D02*
X338621D01*
X337173Y46680D02*
X338741D01*
X337080Y46773D02*
Y47227D01*
X337133Y47280D02*
X338870D01*
X337253Y47400D02*
X338870D01*
X337570Y46080D02*
X338410D01*
X337566Y46200D02*
X338410D01*
X337521Y46320D02*
X338420D01*
X338480Y46420D02*
X338870Y46809D01*
Y47480D01*
X337440Y46413D02*
Y47587D01*
X337560Y46229D02*
Y47707D01*
X337662Y47880D02*
X338885D01*
X337670Y48000D02*
X338870D01*
X337607Y47760D02*
X338934D01*
X337670Y48120D02*
X338885D01*
X338640Y46579D02*
Y49421D01*
X338520Y46459D02*
Y49541D01*
X338880Y47480D02*
Y47903D01*
X338760Y46699D02*
Y49301D01*
X338880Y48097D02*
Y48898D01*
X337670Y48960D02*
X338871D01*
X337670Y48240D02*
X338934D01*
X337670Y48840D02*
X338895D01*
X337670Y49080D02*
X338876D01*
X338890Y46151D02*
X339259Y46520D01*
X338870Y47480D02*
X339930D01*
X338890Y46080D02*
X340141D01*
X338939Y46200D02*
X340261D01*
X337493Y47640D02*
X339033D01*
X339000Y47480D02*
Y47672D01*
X337373Y47520D02*
X339350D01*
X339120Y47480D02*
Y47579D01*
X339240Y47480D02*
Y47533D01*
X339360Y47480D02*
Y47520D01*
X339259Y46520D02*
X339930D01*
Y47480D01*
X339350Y47520D02*
X339450D01*
X339350D02*
X339450D01*
X339480Y47480D02*
Y47521D01*
X339600Y47480D02*
Y47544D01*
X339720Y47480D02*
Y47603D01*
X337670Y48360D02*
X339033D01*
X339000Y48328D02*
Y48652D01*
X339120Y48421D02*
Y48550D01*
X337670Y48600D02*
X339052D01*
X337670Y48720D02*
X338950D01*
X337670Y48480D02*
X339298D01*
X339840Y47480D02*
Y47720D01*
X340200Y46139D02*
Y51461D01*
X339600Y48456D02*
Y48509D01*
X339720Y48397D02*
Y48578D01*
X339840Y48280D02*
Y48705D01*
X337670Y49440D02*
X338621D01*
X337670Y49560D02*
X338505D01*
X337670Y49200D02*
X338861D01*
X337670Y49320D02*
X338741D01*
X337670Y49680D02*
X338461D01*
X337670Y49800D02*
X338460D01*
X337670Y49920D02*
X338460D01*
X337670Y50040D02*
X338460D01*
X338880Y49102D02*
Y49181D01*
X338530Y49530D02*
X338896Y49164D01*
X337670Y50160D02*
X338460D01*
X337670Y50280D02*
X338460D01*
X337670Y50400D02*
X338460D01*
X337670Y50520D02*
X338460D01*
X337670Y50640D02*
X338460D01*
X337670Y50760D02*
X338460D01*
X337670Y50880D02*
X338460D01*
X337670Y51000D02*
X338460D01*
X337670Y51120D02*
X338460D01*
X337670Y51240D02*
X338460D01*
X337670Y51360D02*
X338460D01*
X337670Y51480D02*
X338460D01*
X337670Y51600D02*
X338460D01*
X337670Y51720D02*
X338460D01*
X337670Y51840D02*
X338460D01*
X338940Y50263D02*
Y50737D01*
Y51263D02*
Y51750D01*
X337670Y51960D02*
X338460D01*
X337670Y52080D02*
X338460D01*
X337670Y52200D02*
X338460D01*
X337670Y52320D02*
X338460D01*
X338940D02*
X338992D01*
X338940Y50400D02*
X339052D01*
X339000Y50348D02*
Y50652D01*
X338940Y50640D02*
X339011D01*
X338940Y51360D02*
X339011D01*
X338940Y50520D02*
X339175D01*
X338940Y51480D02*
X339175D01*
X339720Y49422D02*
Y49578D01*
X339840Y49295D02*
Y49705D01*
X339120Y50450D02*
Y50550D01*
X339720Y50422D02*
Y50578D01*
X339840Y50295D02*
Y50705D01*
X339789Y51360D02*
X340301D01*
X339120Y51450D02*
Y51579D01*
X339000Y51348D02*
Y51672D01*
X338940Y51600D02*
X339085D01*
X339600Y51491D02*
Y51544D01*
X339720Y51422D02*
Y51603D01*
X339840Y51295D02*
Y51720D01*
X339625Y51480D02*
X340181D01*
X339715Y51600D02*
X340061D01*
X339840Y51720D02*
X339941D01*
X339866Y51760D02*
X339901D01*
X339866Y52240D02*
X340000D01*
X335240Y52680D02*
X335978D01*
X335240Y52800D02*
X335909D01*
X335240Y52440D02*
X336105D01*
X335240Y52560D02*
X336105D01*
X335240Y52920D02*
X335876D01*
X335240Y53040D02*
X335872D01*
X335240Y53160D02*
X335895D01*
X335240Y53280D02*
X335950D01*
X336000Y52348D02*
Y52652D01*
X335880Y52102D02*
Y52898D01*
X336720Y52422D02*
Y52578D01*
X336120Y52450D02*
Y52550D01*
X335240Y53400D02*
X336052D01*
X335240Y53520D02*
X336175D01*
X335240Y53880D02*
X335884D01*
X335240Y54000D02*
X335870D01*
X335240Y53640D02*
X336011D01*
X335240Y53760D02*
X335927D01*
X335240Y54120D02*
X335884D01*
X335240Y54240D02*
X335927D01*
X335240Y54360D02*
X336011D01*
X335240Y54480D02*
X336175D01*
X336000Y53348D02*
Y53652D01*
X335880Y53102D02*
Y53898D01*
X336120Y53450D02*
Y53550D01*
X335880Y54102D02*
Y54898D01*
X335240Y54501D02*
X335893Y55153D01*
X336120Y54450D02*
Y54550D01*
X336000Y54348D02*
Y54652D01*
X336840Y52295D02*
Y52705D01*
X336695Y52440D02*
X337030D01*
X336695Y52560D02*
X337030D01*
X336822Y52680D02*
X337030D01*
X336748Y53400D02*
X337030D01*
X337670Y52440D02*
X338460D01*
X336891Y52800D02*
X337030D01*
X337670Y52560D02*
X338460D01*
X337670Y52680D02*
X338460D01*
X336924Y52920D02*
X337030D01*
X336928Y53040D02*
X337030D01*
X337670Y52800D02*
X338460D01*
X336850Y53280D02*
X337030D01*
X336905Y53160D02*
X337030D01*
X336720Y53422D02*
Y53578D01*
X336625Y53520D02*
X337030D01*
X336789Y53640D02*
X337030D01*
X336720Y54422D02*
Y54578D01*
X336789Y54360D02*
X337030D01*
X336840Y53295D02*
Y53705D01*
X336960Y48013D02*
Y56937D01*
X336873Y53760D02*
X337030D01*
Y48083D02*
Y56867D01*
X336916Y53880D02*
X337030D01*
X336840Y54295D02*
Y54705D01*
X336930Y54000D02*
X337030D01*
X336873Y54240D02*
X337030D01*
X336916Y54120D02*
X337030D01*
X335339Y54600D02*
X336052D01*
X335459Y54720D02*
X335950D01*
X335699Y54960D02*
X335872D01*
X335819Y55080D02*
X335876D01*
X335579Y54840D02*
X335895D01*
X334830Y54770D02*
X335896Y55836D01*
X335880Y55102D02*
Y55141D01*
Y55819D02*
Y55898D01*
X336720Y55422D02*
Y55578D01*
Y56422D02*
Y57177D01*
X336240Y56505D02*
Y57657D01*
X336120Y56450D02*
Y57777D01*
X336600Y56491D02*
Y57297D01*
X336360Y56528D02*
Y57537D01*
X336480Y56524D02*
Y57417D01*
X334800Y54733D02*
Y57830D01*
X334920Y54859D02*
Y57830D01*
X335040Y54979D02*
Y57830D01*
X335160Y55099D02*
Y57830D01*
X335280Y55219D02*
Y57830D01*
X335400Y55339D02*
Y57830D01*
X335520Y55459D02*
Y57830D01*
X335640Y55579D02*
Y57830D01*
X335760Y55699D02*
Y57830D01*
X335880Y56102D02*
Y57830D01*
X336000Y56348D02*
Y57830D01*
X336720Y58083D02*
Y58470D01*
X336360Y58427D02*
Y58470D01*
X336480Y58323D02*
Y58470D01*
X336600Y58203D02*
Y58470D01*
X336625Y54480D02*
X337030D01*
X336748Y54600D02*
X337030D01*
X336822Y55320D02*
X337030D01*
X336695Y55440D02*
X337030D01*
X336695Y55560D02*
X337030D01*
X336822Y55680D02*
X337030D01*
X336850Y54720D02*
X337030D01*
X336905Y54840D02*
X337030D01*
X336928Y54960D02*
X337030D01*
X336924Y55080D02*
X337030D01*
X336891Y55200D02*
X337030D01*
X336840Y55295D02*
Y55705D01*
X336891Y55800D02*
X337030D01*
X336924Y55920D02*
X337030D01*
X336928Y56040D02*
X337030D01*
X336840Y56295D02*
Y57057D01*
X336850Y56280D02*
X337030D01*
X336748Y56400D02*
X337030D01*
X336502Y56520D02*
X337030D01*
X336840Y57963D02*
Y58470D01*
X336067Y57830D02*
X337030Y56867D01*
X336427Y58376D02*
X337576Y57227D01*
X336905Y56160D02*
X337030D01*
X337560Y57243D02*
Y58470D01*
X336960Y57843D02*
Y58470D01*
X337080Y57723D02*
Y58470D01*
X337200Y57603D02*
Y58470D01*
X337320Y57483D02*
Y58470D01*
X337440Y57363D02*
Y58470D01*
X338940Y52440D02*
X339158D01*
X337670Y52920D02*
X338460D01*
X338940Y52560D02*
X339158D01*
X337670Y53040D02*
X338460D01*
X337670Y53160D02*
X338460D01*
X337670Y53280D02*
X338460D01*
X337670Y53400D02*
X338460D01*
X339000Y52328D02*
Y52672D01*
X338940Y52250D02*
Y52750D01*
X339240Y52467D02*
Y52533D01*
X339120Y52421D02*
Y52579D01*
X339360Y52480D02*
Y52520D01*
X338940Y52680D02*
X338992D01*
X339350Y52480D02*
X339450D01*
X339350Y52520D02*
X339450D01*
X337670Y53520D02*
X338460D01*
X337670Y47950D02*
Y57000D01*
Y53640D02*
X338460D01*
X337670Y53760D02*
X338460D01*
X337670Y53880D02*
X338460D01*
X337670Y54000D02*
X338460D01*
X337670Y54120D02*
X338460D01*
X337670Y54240D02*
X338460D01*
X338940Y53250D02*
Y53737D01*
X338460Y49700D02*
Y55150D01*
X339000Y53328D02*
Y53652D01*
X338940Y53400D02*
X339085D01*
X338940Y53640D02*
X339011D01*
X338940Y53520D02*
X339175D01*
X339120Y53421D02*
Y53550D01*
X339600Y52456D02*
Y52544D01*
X339720Y52397D02*
Y52603D01*
X339642Y52440D02*
X340221D01*
X339480Y52479D02*
Y52521D01*
X339642Y52560D02*
X340101D01*
X339715Y53400D02*
X340261D01*
X339960Y52240D02*
Y52701D01*
X339840Y52280D02*
Y52720D01*
X340200Y52139D02*
Y52461D01*
X340080Y52226D02*
Y52581D01*
X339808Y52680D02*
X339981D01*
X339866Y52760D02*
X339901D01*
X339866Y53240D02*
X340000D01*
X339600Y53456D02*
Y53509D01*
X339720Y53397D02*
Y53578D01*
X339840Y53280D02*
Y53705D01*
X339625Y53520D02*
X340141D01*
X339789Y53640D02*
X340021D01*
X340080Y53226D02*
Y53581D01*
X339960Y53240D02*
Y53701D01*
X340200Y53139D02*
Y53461D01*
Y54139D02*
Y54461D01*
X339873Y54240D02*
X340000D01*
X339873D02*
X340000D01*
X340080Y54226D02*
Y54581D01*
X337670Y54360D02*
X338460D01*
X337670Y54480D02*
X338460D01*
X337670Y54600D02*
X338460D01*
X337670Y54720D02*
X338460D01*
X337670Y54840D02*
X338460D01*
X337670Y54960D02*
X338460D01*
X337670Y55080D02*
X338460D01*
X337670Y55200D02*
X338465D01*
X339000Y54348D02*
Y54672D01*
X338940Y54263D02*
Y54750D01*
Y54360D02*
X339011D01*
X339120Y54450D02*
Y54579D01*
X338940Y54600D02*
X339085D01*
X337670Y55320D02*
X338531D01*
X337670Y55440D02*
X338651D01*
X337670Y55560D02*
X338771D01*
X337670Y55680D02*
X338891D01*
X337670Y55800D02*
X338914D01*
X337670Y55920D02*
X338877D01*
X337670Y56040D02*
X338872D01*
X337670Y56160D02*
X338897D01*
X337670Y56280D02*
X338960D01*
X337670Y56400D02*
X339085D01*
X338520Y55309D02*
Y58470D01*
X338640Y55429D02*
Y58470D01*
X338530Y55320D02*
X338880Y55670D01*
X338760Y55549D02*
Y58470D01*
X338880Y55669D02*
Y55903D01*
Y56097D02*
Y58470D01*
X339000Y56328D02*
Y58470D01*
X338940Y54480D02*
X339175D01*
X339600Y54491D02*
Y54544D01*
X339720Y54422D02*
Y54603D01*
X339625Y54480D02*
X340181D01*
X339715Y54600D02*
X340061D01*
X339840Y54295D02*
Y54720D01*
X339866Y54760D02*
X339901D01*
X339960Y54240D02*
Y54701D01*
X339840Y54720D02*
X339941D01*
X339866Y55240D02*
X340000D01*
X340080Y55226D02*
Y55260D01*
X340200Y55139D02*
Y55260D01*
X339120Y56421D02*
Y58470D01*
X339240Y56467D02*
Y58470D01*
X339350Y56480D02*
X339450D01*
X339360D02*
Y58470D01*
X339960Y55740D02*
Y58470D01*
X340080Y55740D02*
Y58470D01*
X340200Y55740D02*
Y58470D01*
X339480Y56479D02*
Y58470D01*
X339600Y56456D02*
Y58470D01*
X339720Y56397D02*
Y58470D01*
X339840Y56280D02*
Y58470D01*
X340819Y46080D02*
X340991D01*
X340920Y46009D02*
Y46181D01*
X340939Y46200D02*
X341111D01*
X341040Y46129D02*
Y46301D01*
X339059Y46320D02*
X340381D01*
X339179Y46440D02*
X340501D01*
X339930Y46560D02*
X340621D01*
X339930Y46680D02*
X340741D01*
X341059Y46320D02*
X341231D01*
X341160Y46249D02*
Y46421D01*
X341179Y46440D02*
X341351D01*
X341280Y46369D02*
Y46541D01*
X341299Y46560D02*
X341471D01*
X341400Y46489D02*
Y46661D01*
X341419Y46680D02*
X341475D01*
X339930Y46800D02*
X340861D01*
X340320Y46259D02*
Y51341D01*
X339930Y46920D02*
X340981D01*
X339930Y47040D02*
X341101D01*
X339930Y47160D02*
X341221D01*
X339930Y47280D02*
X341341D01*
X339930Y47400D02*
X341461D01*
X339450Y47520D02*
X341476D01*
X340560Y46499D02*
Y49650D01*
X340440Y46379D02*
Y51221D01*
X340800Y46739D02*
Y49311D01*
X340680Y46619D02*
Y49431D01*
X341040Y46979D02*
Y49071D01*
X340920Y46859D02*
Y49191D01*
X341400Y47339D02*
Y48711D01*
X341160Y47099D02*
Y48951D01*
X341280Y47219D02*
Y48831D01*
X342360Y46289D02*
Y46361D01*
X342437Y46200D02*
X343263D01*
X342323Y46320D02*
X343377D01*
X342360Y47139D02*
Y47211D01*
X342430Y46440D02*
X343270D01*
X342336Y47160D02*
X343364D01*
X342480Y46125D02*
Y46525D01*
X342525Y46680D02*
X343175D01*
X342499Y46080D02*
X343201D01*
X342495Y46560D02*
X343205D01*
X342422Y47280D02*
X342763D01*
X342480Y46975D02*
Y47375D01*
X342528Y46800D02*
X343172D01*
X342444Y47040D02*
X343256D01*
X342502Y46920D02*
X343198D01*
X339767Y47640D02*
X341472D01*
X339866Y47760D02*
X341495D01*
X341520Y47825D02*
Y48225D01*
X339915Y47880D02*
X341550D01*
X341640Y47989D02*
Y48061D01*
X339930Y48000D02*
X341652D01*
X342491Y47400D02*
X342669D01*
X342524Y47520D02*
X342628D01*
X342360Y47989D02*
Y48061D01*
X342480Y47825D02*
Y48225D01*
X342450Y47880D02*
X342724D01*
X342348Y48000D02*
X342892D01*
X339891Y49200D02*
X340911D01*
X339823Y49320D02*
X340791D01*
X339905Y48840D02*
X341271D01*
X339928Y48960D02*
X341151D01*
X339695Y49560D02*
X340578D01*
X339823Y49680D02*
X340560D01*
X339695Y49440D02*
X340671D01*
X339891Y49800D02*
X340560D01*
X339924Y49080D02*
X341031D01*
X341280Y49509D02*
Y49681D01*
X339924Y49920D02*
X340560D01*
X341040Y49749D02*
Y49921D01*
X341160Y49629D02*
Y49801D01*
X341040Y49800D02*
X341161D01*
X341040Y49749D02*
Y49921D01*
X339928Y50040D02*
X340560D01*
X339905Y50160D02*
X340560D01*
X339850Y50280D02*
X340560D01*
X339748Y50400D02*
X340560D01*
X339625Y50520D02*
X340560D01*
X339873Y51240D02*
X340421D01*
X339789Y50640D02*
X340560D01*
X339873Y50760D02*
X340560D01*
Y49650D02*
Y51101D01*
Y49650D02*
Y51101D01*
X339916Y50880D02*
X340560D01*
X339930Y51000D02*
X340560D01*
X339916Y51120D02*
X340541D01*
X340619Y51720D02*
X340941D01*
X340859Y51480D02*
X340960D01*
X340739Y51600D02*
X340960D01*
Y51379D02*
Y51701D01*
X339866Y48240D02*
X341513D01*
X339767Y48360D02*
X341478D01*
X339915Y48120D02*
X341585D01*
X339502Y48480D02*
X341471D01*
X339850Y48720D02*
X341391D01*
X339748Y48600D02*
X341492D01*
X341349Y49440D02*
X341489D01*
X342487Y48240D02*
X342675D01*
X342480Y48675D02*
Y49075D01*
X342415Y48120D02*
X342774D01*
X342456Y48720D02*
X342715D01*
X342360Y48839D02*
Y48911D01*
X342359Y48840D02*
X342869D01*
X342407Y48960D02*
X343293D01*
X342482Y49080D02*
X342904D01*
X340630Y49480D02*
X341496Y48614D01*
X341400Y49389D02*
Y49561D01*
X341040Y49749D02*
X341470Y49319D01*
X341229Y49560D02*
X341401D01*
X341109Y49680D02*
X341281D01*
X341040Y49921D02*
X341496Y49464D01*
X341690Y51530D02*
X341760D01*
X342360Y49689D02*
Y49761D01*
Y49700D02*
Y49761D01*
X341690Y51600D02*
X341760D01*
X341690Y51720D02*
X341760D01*
X342240Y51530D02*
X342360D01*
X342240Y51600D02*
X342360D01*
X342240Y51720D02*
X342360D01*
X343200Y46076D02*
Y46574D01*
Y46926D02*
Y47197D01*
X342528Y47640D02*
X342622D01*
X342505Y47760D02*
X342651D01*
X343200Y48003D02*
Y48047D01*
X343320Y46269D02*
Y46381D01*
X344040Y46307D02*
Y46343D01*
X344160Y46163D02*
Y46487D01*
X343320Y47119D02*
Y47231D01*
X343208Y48000D02*
X343352D01*
X344040Y47157D02*
Y47193D01*
X342720Y47876D02*
Y48174D01*
X342522Y48360D02*
X342630D01*
X342840Y47975D02*
Y48075D01*
X342529Y48480D02*
X342621D01*
X342508Y48600D02*
X342647D01*
X342840Y48825D02*
Y49121D01*
X342720Y48726D02*
Y49241D01*
X343320Y47969D02*
Y48081D01*
X344040Y48007D02*
Y48043D01*
X343320Y48819D02*
Y48931D01*
X343200Y48853D02*
Y49060D01*
X343231Y48840D02*
X343341D01*
X344040Y48857D02*
Y48893D01*
X344137Y46200D02*
X347220D01*
X344023Y46320D02*
X347220D01*
X344130Y46440D02*
X347220D01*
X344144Y47040D02*
X347220D01*
X344036Y47160D02*
X347220D01*
X344198Y46080D02*
X347220D01*
X344195Y46560D02*
X347220D01*
X344225Y46680D02*
X347220D01*
X344228Y46800D02*
X347220D01*
X344202Y46920D02*
X347220D01*
X344160Y47013D02*
Y47337D01*
X344123Y47280D02*
X347220D01*
X344191Y47400D02*
X347220D01*
X344224Y47520D02*
X347220D01*
X344150Y47880D02*
X347220D01*
X344048Y48000D02*
X347220D01*
X344115Y48120D02*
X347220D01*
X344059Y48840D02*
X347220D01*
X344228Y47640D02*
X347220D01*
X344160Y47863D02*
Y48187D01*
X344205Y47760D02*
X347220D01*
X344187Y48240D02*
X347220D01*
X344222Y48360D02*
X347220D01*
X344160Y48713D02*
Y49037D01*
X344229Y48480D02*
X347220D01*
X344156Y48720D02*
X347220D01*
X344208Y48600D02*
X347220D01*
X342960Y48870D02*
Y49063D01*
X342507Y49453D02*
X342830Y49130D01*
X342530Y49320D02*
X342641D01*
X342520Y49200D02*
X342761D01*
X342888Y49752D02*
X343099Y49540D01*
X343080Y48879D02*
Y49060D01*
X343000D02*
X343227D01*
X343079Y49560D02*
X343238D01*
X342960Y49679D02*
Y49730D01*
X343080Y49559D02*
Y49721D01*
X343099Y49540D02*
X343227D01*
X342959Y49680D02*
X343331D01*
X342840Y50525D02*
Y50625D01*
Y50525D02*
Y50625D01*
Y51480D02*
X343475D01*
X343200Y49540D02*
Y49747D01*
X343320Y49669D02*
Y49781D01*
X343269Y50520D02*
X343321D01*
X343200Y50553D02*
Y50597D01*
X343320Y50519D02*
Y50631D01*
X344107Y48960D02*
X347220D01*
X344162Y49560D02*
X347220D01*
X344040Y49707D02*
Y49743D01*
X344069Y49680D02*
X347220D01*
X344098Y49800D02*
X347220D01*
X344182Y49080D02*
X347220D01*
X344220Y49200D02*
X347220D01*
X344230Y49320D02*
X347220D01*
X344211Y49440D02*
X347220D01*
X344160Y49563D02*
Y49887D01*
X344177Y49920D02*
X347220D01*
X344218Y50040D02*
X347220D01*
X344230Y50160D02*
X347220D01*
X344214Y50280D02*
X347220D01*
X344040Y50557D02*
Y50593D01*
X344079Y50520D02*
X347220D01*
X343925Y51480D02*
X347220D01*
X342840Y51600D02*
X347220D01*
X342840Y51720D02*
X347220D01*
X344167Y50400D02*
X347220D01*
X344160Y50413D02*
Y50737D01*
X344089Y50640D02*
X347220D01*
X344173Y50760D02*
X347220D01*
X344216Y50880D02*
X347220D01*
X344230Y51000D02*
X347220D01*
X344216Y51120D02*
X347220D01*
X344089Y51360D02*
X347220D01*
X344173Y51240D02*
X347220D01*
X339901Y51760D02*
X340560Y51101D01*
X340379Y51960D02*
X340701D01*
X340170Y52170D02*
X340960Y51379D01*
X339901Y52760D02*
X340960Y51701D01*
X339808Y52320D02*
X340341D01*
X340320Y52019D02*
Y52341D01*
X340259Y52080D02*
X340581D01*
X340133Y52200D02*
X340461D01*
X340680Y51659D02*
Y51981D01*
X340560Y51779D02*
Y52101D01*
X340920Y51419D02*
Y51741D01*
X340800Y51539D02*
Y51861D01*
X340499Y51840D02*
X340821D01*
X340440Y51899D02*
Y52221D01*
X340920Y52419D02*
Y52741D01*
X340539Y52800D02*
X340861D01*
X340800Y52539D02*
Y52861D01*
X340440Y52899D02*
Y53221D01*
X340320Y53019D02*
Y53341D01*
X340419Y52920D02*
X340741D01*
X340299Y53040D02*
X340621D01*
X339840Y53280D02*
X340381D01*
X340320Y54019D02*
Y54341D01*
X340179Y53160D02*
X340501D01*
X340339Y54000D02*
X340661D01*
X340680Y52659D02*
Y52981D01*
X340560Y52779D02*
Y53101D01*
X340920Y53419D02*
Y53741D01*
X340800Y53539D02*
Y53861D01*
X340560Y53779D02*
Y54101D01*
X340440Y53899D02*
Y54221D01*
X340579Y53760D02*
X340901D01*
X340459Y53880D02*
X340781D01*
X340680Y53659D02*
Y53981D01*
X341040Y52299D02*
Y52621D01*
X340170Y53170D02*
X341210Y52129D01*
X341139Y52200D02*
X341210D01*
X341019Y52320D02*
X341210D01*
X340779Y52560D02*
X341101D01*
X340659Y52680D02*
X340981D01*
X340899Y52440D02*
X341210D01*
X341059Y53280D02*
X341381D01*
X341210Y52129D02*
Y52451D01*
X341160Y52179D02*
Y52501D01*
X341520Y52819D02*
Y53141D01*
X341179Y53160D02*
X341501D01*
X341400Y52939D02*
Y53261D01*
X341539Y52800D02*
X341760D01*
X341299Y53040D02*
X341621D01*
X341419Y52920D02*
X341741D01*
X339901Y53760D02*
X341210Y52451D01*
X340170Y54170D02*
X341620Y52720D01*
X339901Y54760D02*
X341760Y52901D01*
X340170Y55170D02*
X342170Y53170D01*
X340819Y53520D02*
X341141D01*
X340699Y53640D02*
X341021D01*
X340551Y55260D02*
X342360Y53451D01*
X340820Y55670D02*
X342770Y53720D01*
X341160Y53179D02*
Y53501D01*
X341040Y53299D02*
Y53621D01*
X341280Y53059D02*
Y53381D01*
X340939Y53400D02*
X341261D01*
X341520Y53819D02*
Y54291D01*
X341400Y53939D02*
Y54411D01*
X341579Y53760D02*
X342051D01*
X341339Y54000D02*
X341811D01*
X341459Y53880D02*
X341931D01*
X340000Y54240D02*
X340421D01*
X339789Y54360D02*
X340301D01*
X340219Y54120D02*
X340541D01*
X340619Y54720D02*
X341091D01*
X340259Y55080D02*
X340731D01*
X340133Y55200D02*
X340611D01*
X340499Y54840D02*
X340971D01*
X340379Y54960D02*
X340851D01*
X341160Y54179D02*
Y54651D01*
X341040Y54299D02*
Y54771D01*
X340979Y54360D02*
X341451D01*
X341280Y54059D02*
Y54531D01*
X340800Y54539D02*
Y55011D01*
X340680Y54659D02*
Y55131D01*
X340859Y54480D02*
X341331D01*
X340739Y54600D02*
X341211D01*
X340920Y54419D02*
Y54891D01*
X340320Y55019D02*
Y55260D01*
X340440Y54899D02*
Y55260D01*
X339853D02*
X340551D01*
X340560Y54779D02*
Y55251D01*
X340320Y55740D02*
Y58470D01*
X340440Y55740D02*
Y58470D01*
X339853Y55740D02*
X340650D01*
X340560D02*
Y58470D01*
X341040Y55449D02*
Y58470D01*
X341160Y55329D02*
Y58470D01*
X341280Y55209D02*
Y58470D01*
X341400Y55089D02*
Y58470D01*
X340680Y55738D02*
Y58470D01*
X340800Y55687D02*
Y58470D01*
X340920Y55569D02*
Y58470D01*
X339886Y55800D02*
X341699D01*
X339923Y55920D02*
X341732D01*
X339928Y56040D02*
X341780D01*
X339903Y56160D02*
X341845D01*
X339840Y56280D02*
X341930D01*
X339715Y56400D02*
X342040D01*
X337670Y56520D02*
X342190D01*
X337670Y56640D02*
X342419D01*
X341219Y54120D02*
X341691D01*
X341099Y54240D02*
X341571D01*
X341529Y54960D02*
X341823D01*
X341409Y55080D02*
X341764D01*
X341049Y55440D02*
X341674D01*
X340929Y55560D02*
X341670D01*
X341289Y55200D02*
X341721D01*
X340809Y55680D02*
X341678D01*
X341169Y55320D02*
X341691D01*
X337083Y57720D02*
X347220D01*
X336963Y57840D02*
X347220D01*
X336843Y57960D02*
X347220D01*
X336723Y58080D02*
X347220D01*
X336603Y58200D02*
X347220D01*
X336483Y58320D02*
X347220D01*
X336335Y58440D02*
X347220D01*
X336200Y58470D02*
X347220D01*
X337670Y56760D02*
X347220D01*
X341520Y54969D02*
Y58470D01*
X337670Y56880D02*
X347220D01*
X337670Y57000D02*
X347220D01*
X337647Y57120D02*
X347220D01*
X337563Y57240D02*
X347220D01*
X337443Y57360D02*
X347220D01*
X337203Y57600D02*
X347220D01*
X337323Y57480D02*
X347220D01*
X341690Y51840D02*
X341760D01*
X341690Y51530D02*
Y52550D01*
Y51960D02*
X341760D01*
X341690Y52080D02*
X341760D01*
X341690Y52200D02*
X341760D01*
X341690Y52320D02*
X341760D01*
X341690Y52440D02*
X341760D01*
X341652Y52680D02*
X341760D01*
X342240Y51840D02*
X342360D01*
X342240Y51960D02*
X342360D01*
X342240Y52080D02*
X342360D01*
X342240Y52200D02*
X342360D01*
X342240Y52320D02*
X342360D01*
X341690Y52560D02*
X341760D01*
X342240Y52440D02*
X342360D01*
X342240Y52560D02*
X342360D01*
X342240Y52680D02*
X342360D01*
X341640Y52697D02*
Y53021D01*
X341760Y51530D02*
Y52901D01*
Y51530D02*
Y52901D01*
X342000Y53339D02*
Y53811D01*
X341880Y53459D02*
Y53931D01*
X341819Y53520D02*
X342291D01*
X342120Y53219D02*
Y53691D01*
X342240Y51530D02*
Y53000D01*
Y51530D02*
Y53000D01*
X342360Y51530D02*
Y53451D01*
Y51530D02*
Y53451D01*
X342240Y52800D02*
X342360D01*
X342240Y52920D02*
X342360D01*
X342240Y53000D02*
Y53571D01*
X342840Y51840D02*
X347220D01*
X342840Y51960D02*
X347220D01*
X342840Y52080D02*
X347220D01*
X342840Y52200D02*
X347220D01*
X342237Y53040D02*
X342360D01*
X342179Y53160D02*
X342360D01*
X342059Y53280D02*
X342360D01*
X341939Y53400D02*
X342360D01*
X342840Y52320D02*
X347220D01*
X342840Y52440D02*
X347220D01*
X342840Y52560D02*
X347220D01*
X342840Y52680D02*
X347220D01*
X342840Y52800D02*
X347220D01*
X342840Y52920D02*
X347220D01*
X342840Y53040D02*
X347220D01*
X342840Y53160D02*
X347220D01*
X342840Y53280D02*
X347220D01*
X342840Y51375D02*
Y53550D01*
Y51375D02*
Y53550D01*
X342960Y51420D02*
Y54367D01*
X343080Y51429D02*
Y54384D01*
X342840Y53400D02*
X347220D01*
X342840Y53520D02*
X347220D01*
X343200Y51403D02*
Y54415D01*
X343320Y51369D02*
Y54459D01*
X344040Y51407D02*
Y58470D01*
X344160Y51263D02*
Y58470D01*
X343440Y51462D02*
Y54520D01*
X343560Y51511D02*
Y54599D01*
X343680Y51530D02*
Y54703D01*
X343800Y51520D02*
Y54842D01*
X343920Y51482D02*
Y55044D01*
X341760Y53579D02*
Y54051D01*
X341640Y53699D02*
Y54171D01*
X341699Y53640D02*
X342171D01*
X341889Y54600D02*
X342139D01*
X341880Y54609D02*
Y54870D01*
X341760Y54729D02*
Y55090D01*
X341769Y54720D02*
X342003D01*
X341649Y54840D02*
X341901D01*
X342600Y53889D02*
Y54388D01*
X342480Y54009D02*
Y54421D01*
X342720Y53769D02*
Y54369D01*
X342840Y53550D02*
Y54362D01*
X342120Y54369D02*
Y54615D01*
X342000Y54489D02*
Y54723D01*
X342360Y54129D02*
Y54468D01*
X342009Y54480D02*
X342335D01*
X342240Y54249D02*
Y54532D01*
X341640Y54849D02*
Y58470D01*
X341760Y55994D02*
Y58470D01*
X341880Y56214D02*
Y58470D01*
X342000Y56360D02*
Y58470D01*
X342120Y56469D02*
Y58470D01*
X342240Y56552D02*
Y58470D01*
X342360Y56615D02*
Y58470D01*
X342480Y56662D02*
Y58470D01*
X343200Y56669D02*
Y58470D01*
X342600Y56695D02*
Y58470D01*
X342720Y56714D02*
Y58470D01*
X342840Y56722D02*
Y58470D01*
X342960Y56717D02*
Y58470D01*
X343080Y56699D02*
Y58470D01*
X342822Y53640D02*
X347220D01*
X342729Y53760D02*
X347220D01*
X342609Y53880D02*
X347220D01*
X342489Y54000D02*
X347220D01*
X342369Y54120D02*
X347220D01*
X342249Y54240D02*
X347220D01*
X342129Y54360D02*
X347220D01*
X343365Y54480D02*
X347220D01*
X343561Y54600D02*
X347220D01*
X343697Y54720D02*
X347220D01*
X343799Y54840D02*
X347220D01*
X343877Y54960D02*
X347220D01*
X343936Y55080D02*
X347220D01*
X343979Y55200D02*
X347220D01*
X344009Y55320D02*
X347220D01*
X344026Y55440D02*
X347220D01*
X343560Y56484D02*
Y58470D01*
X343680Y56380D02*
Y58470D01*
X343660Y56400D02*
X347220D01*
X343320Y56624D02*
Y58470D01*
X343440Y56564D02*
Y58470D01*
X343510Y56520D02*
X347220D01*
X343281Y56640D02*
X347220D01*
X344030Y55560D02*
X347220D01*
X344022Y55680D02*
X347220D01*
X344001Y55800D02*
X347220D01*
X343968Y55920D02*
X347220D01*
X343800Y56242D02*
Y58470D01*
X343920Y56039D02*
Y58470D01*
X343920Y56040D02*
X347220D01*
X343770Y56280D02*
X347220D01*
X343855Y56160D02*
X347220D01*
D25*
X336400Y36000D02*
X337250Y36850D01*
Y46150D01*
X336400Y47000D02*
X337250Y46150D01*
X336400Y47000D02*
X337350Y47950D01*
Y57000D01*
X336200Y58150D02*
X337350Y57000D01*
X322650Y58150D02*
X336200D01*
X317500Y53000D02*
X322650Y58150D01*
X326200Y44200D02*
X326550Y44550D01*
X325300Y52400D02*
X326550Y51150D01*
X325300Y52400D02*
Y57250D01*
X306500Y53000D02*
X307500D01*
X326550Y44550D02*
Y50000D01*
Y51150D01*
Y50000D02*
X333500D01*
D29*
X324580Y37300D02*
X325050D01*
X325520D01*
X326200Y41770D02*
Y42200D01*
X325770D02*
X326200D01*
X326630D01*
X326200D02*
Y42630D01*
X324600Y45480D02*
Y46600D01*
X325720D01*
X324600D02*
Y47720D01*
X330400Y46330D02*
Y46800D01*
Y47270D01*
X304650Y49980D02*
Y51100D01*
X303530D02*
X304650D01*
X305770D01*
X304650D02*
Y52220D01*
X305700Y52455D02*
Y53000D01*
X309280Y49500D02*
X309800D01*
X305230Y53000D02*
X305700D01*
X309800Y48980D02*
Y49500D01*
X310320D01*
X304650Y54780D02*
Y55900D01*
X303530D02*
X304650D01*
Y57020D01*
Y55900D02*
X305770D01*
X341730Y37108D02*
X342850D01*
Y35988D02*
Y37108D01*
Y38228D01*
Y37108D02*
X343970D01*
X342000Y41180D02*
Y41650D01*
X342470D01*
X343700Y41180D02*
Y41650D01*
X343230D02*
X343700D01*
X344170D01*
X339400Y45000D02*
Y45470D01*
X343230Y42500D02*
X343700D01*
X344170D01*
X343230Y43350D02*
X343700D01*
X344170D01*
X343230Y44200D02*
X343700D01*
X343230Y45050D02*
X343700D01*
X343230Y45900D02*
X343700D01*
Y44200D02*
X344170D01*
X343700Y45050D02*
X344170D01*
X343700Y45900D02*
X344170D01*
X338930Y56000D02*
X339400D01*
X339870D01*
X339400D02*
Y56420D01*
X343230Y46750D02*
X343700D01*
X344170D01*
X341730Y55542D02*
X342850D01*
Y54422D02*
Y55542D01*
Y56662D01*
Y55542D02*
X343970D01*
D30*
X336400Y37000D02*
D03*
X339400Y48000D02*
D03*
Y52000D02*
D03*
Y53000D02*
D03*
Y55000D02*
D03*
Y56000D02*
D03*
X336400Y36000D02*
D03*
X339400Y37000D02*
D03*
D31*
X336400Y38000D02*
D03*
Y39000D02*
D03*
Y40000D02*
D03*
Y41000D02*
D03*
Y42000D02*
D03*
Y43000D02*
D03*
Y44000D02*
D03*
Y48000D02*
D03*
Y49000D02*
D03*
Y50000D02*
D03*
Y51000D02*
D03*
Y52000D02*
D03*
Y53000D02*
D03*
Y54000D02*
D03*
Y55000D02*
D03*
Y56000D02*
D03*
X330400Y46800D02*
D03*
X325050Y37300D02*
D03*
X339400Y49000D02*
D03*
Y50000D02*
D03*
Y51000D02*
D03*
Y54000D02*
D03*
X336400Y47000D02*
D03*
X325050Y38300D02*
D03*
Y36300D02*
D03*
X331400Y46850D02*
D03*
X329400D02*
D03*
X343700Y41650D02*
D03*
Y42500D02*
D03*
Y43350D02*
D03*
Y44200D02*
D03*
Y45050D02*
D03*
Y45900D02*
D03*
Y46750D02*
D03*
Y47600D02*
D03*
Y48450D02*
D03*
Y49300D02*
D03*
Y50150D02*
D03*
Y51000D02*
D03*
X342000Y41650D02*
D03*
Y42500D02*
D03*
Y43350D02*
D03*
Y44200D02*
D03*
Y45050D02*
D03*
Y45900D02*
D03*
Y46750D02*
D03*
Y47600D02*
D03*
Y48450D02*
D03*
Y49300D02*
D03*
Y50150D02*
D03*
X336400Y45000D02*
D03*
X339400D02*
D03*
Y44000D02*
D03*
Y43000D02*
D03*
Y42000D02*
D03*
Y41000D02*
D03*
Y40000D02*
D03*
Y39000D02*
D03*
Y38000D02*
D03*
D32*
X324600Y46600D02*
D03*
X304650Y51100D02*
D03*
Y55900D02*
D03*
X342850Y37108D02*
D03*
Y55542D02*
D03*
D33*
X339400Y47000D02*
D03*
Y36000D02*
D03*
D34*
X305700Y53000D02*
D03*
Y54000D02*
D03*
X306500D02*
D03*
Y53000D02*
D03*
D35*
X326200Y42200D02*
D03*
X325200D02*
D03*
X326200Y43200D02*
D03*
X325200D02*
D03*
X326200Y44200D02*
D03*
D36*
X325200D02*
D03*
D37*
X342000Y51000D02*
D03*
D38*
X309800Y50500D02*
D03*
Y49500D02*
D03*
D39*
X333750Y40250D02*
D03*
X342650Y43350D02*
D03*
X343050Y47600D02*
D03*
Y48450D02*
D03*
Y51000D02*
D03*
Y50150D02*
D03*
X328700Y37150D02*
D03*
X322600Y54650D02*
D03*
X333500Y50000D02*
D03*
X327550Y37750D02*
D03*
X326700Y39750D02*
D03*
X323500Y56350D02*
D03*
X330050Y44750D02*
D03*
X323000Y41750D02*
D03*
X323890Y50250D02*
D03*
X321950Y41250D02*
D03*
X325300Y57250D02*
D03*
X317500Y53000D02*
D03*
X324000Y52700D02*
D03*
X307500Y53000D02*
D03*
Y52000D02*
D03*
X342650Y42500D02*
D03*
X323100Y52700D02*
D03*
M02*
