M48
;Layer_Color=9474304
;FILE_FORMAT=2:5
INCH,LZ
;TYPE=PLATED
T1F00S00C0.01181
T2F00S00C0.01968
T3F00S00C0.02800
T4F00S00C0.03700
T5F00S00C0.03937
T6F00S00C0.05906
T7F00S00C0.09449
T8F00S00C0.12600
T9F00S00C0.12992
%
T01
X0055512Y-018189
Y-015315
X0055118Y-0137402
X0055905Y-0095827
Y-0075827
X005563Y-0061535
X0056575Y-0080827
X0061417Y-0109843
X0061417Y-0122047
X0061417Y-012874
X0085411Y-011811
X0077205Y-0109449
X009252Y-0100787
X0092126Y-0095827
X0089488Y-0090827
X0092126Y-0085827
X0106299Y-0093307
Y-0106496
X0118898Y-0105512
X0132677Y-0105905
X0132677Y-01
X0131102Y-0079528
X0139606Y-0078173
X0142598Y-007878
X0121752Y-0085138
X0119291Y-0087697
X015433Y-0106299
X0157874Y-0105118
X0159843Y-0107874
X0155118Y-0116142
X0160846Y-0129641
X0163779Y-0128343
X0170524Y-0142126
X0170866Y-0161811
X0173228Y-0164567
X0173228Y-0169291
X0172933Y-0174016
X0170472Y-0172047
Y-0166929
X0166142Y-0177165
X0147342Y-0177165
X0147244Y-0171949
X0144685Y-0169685
X0144488Y-0174409
X0147244Y-0166831
X014511Y-0164272
X0148031Y-0161713
X0140157Y-0142126
X0108661Y-0164272
X0105512Y-0161811
X0104331Y-0173622
X0091732Y-0177953
X014798Y-0027807
X0145669Y-0025197
X0148031Y-0016142
X0148083Y-000861
X0180709Y-0014173
X0182677Y-0024803
T02
X0070079Y-0194095
X0110187Y-0200738
X011878Y-020062
X0127904Y-0200837
X0136762Y-0200541
X0161024Y-0185433
X0185Y-0169685
Y-0154331
X0199961
X0200354Y-0169685
X0211778Y-0177919
X0211024Y-0120866
X0210329Y-0078439
X0197244Y-0079134
X0191732Y-0066213
X0186894Y-0057016
X0209449Y-0047244
Y-0041339
X0174016Y-0085679
X0175736Y-0102953
X012815Y-0106496
X0124016Y-0119685
X0130315Y-0123032
X0137008Y-0122982
X0132283Y-013937
X0120472Y-0137008
Y-0130315
X0106693Y-0117716
X0095612Y-011811
X0090945Y-0132283
X0080709Y-0125591
X0065552Y-0125984
X0067251Y-0107874
X0108267Y-0082283
X0135827Y-0078347
Y-0063583
X0120079Y-0060236
X0120472Y-0051575
X0110236Y-0043701
X010315Y-0041339
X0072047Y-0045276
X0066535Y-0186221
X0108661Y-0158661
X0229921Y-0159866
X0238189Y-0141732
X0248819Y-0169291
Y-0175984
X0248326Y-0182677
X0216535Y-0185039
X0219882Y-0102953
X0217322Y-0097638
X0223125Y-0078439
X0235039Y-0079134
X0238189Y-0055118
X0244094Y-0097638
X0235138Y-0007972
X019937Y-0013189
X0202362Y-0029528
X018189Y-0010236
X0166279Y-0015354
X0162077Y-0017982
X0138189Y-0021654
X0130315Y-002126
T03
X0080413Y-0113307
T04
X0033465Y-0154975
Y-0146475
Y-0137975
Y-0129475
Y-0120975
Y-0112475
Y-0103975
Y-0095475
Y-0086975
Y-0078439
Y-0069936
Y-0061475
X0050354Y-0061432
Y-0069936
Y-0078439
Y-0086944
Y-0095447
Y-0103951
Y-0112455
Y-0120959
Y-0129463
Y-0137967
Y-0146471
Y-0154975
T05
X0158465Y-0059055
Y-0051181
X0168307
Y-0059055
T06
X0074579Y-0021654
X0090551
T07
X0139685Y-0040512
X0187087
T08
X0041854Y-0200349
Y-0016097
T09
X0158465Y-0081693
M30
