G04*
G04 #@! TF.GenerationSoftware,Altium Limited,Altium Designer,18.1.7 (191)*
G04*
G04 Layer_Color=32768*
%FSLAX25Y25*%
%MOIN*%
G70*
G01*
G75*
%ADD81C,0.00197*%
%ADD82C,0.00394*%
D81*
X140699Y-200197D02*
Y-186417D01*
X132825Y-200197D02*
Y-186417D01*
X140699D01*
X132825Y-200197D02*
X140699D01*
X131841D02*
Y-186417D01*
X123967Y-200197D02*
Y-186417D01*
X131841D01*
X123967Y-200197D02*
X131841D01*
X122717D02*
Y-186417D01*
X114843Y-200197D02*
Y-186417D01*
X122717D01*
X114843Y-200197D02*
X122717D01*
X114124D02*
Y-186417D01*
X106250Y-200197D02*
Y-186417D01*
X114124D01*
X106250Y-200197D02*
X114124D01*
X108858Y-155709D02*
X143110D01*
X108858Y-185630D02*
X143110D01*
X108858D02*
Y-155709D01*
X143110Y-185630D02*
Y-155709D01*
X190512Y-107579D02*
Y-98721D01*
X186575D02*
X190512D01*
X186575Y-107579D02*
Y-98721D01*
Y-107579D02*
X190512D01*
X84449Y-124803D02*
Y-112205D01*
X66732Y-124803D02*
Y-112205D01*
Y-124803D02*
X84449D01*
X66732Y-112205D02*
X84449D01*
X80512Y-133465D02*
Y-125591D01*
X66732Y-133465D02*
Y-125591D01*
Y-133465D02*
X80512D01*
X66732Y-125591D02*
X80512D01*
X175000Y-107480D02*
X184843D01*
X175000Y-90158D02*
X184843D01*
X175000Y-107480D02*
Y-90158D01*
X184843Y-107480D02*
Y-90158D01*
X78937Y-32283D02*
X88779D01*
X78937Y-49606D02*
X88779D01*
Y-32283D01*
X78937Y-49606D02*
Y-32283D01*
X71110Y-49646D02*
Y-32362D01*
Y-49646D02*
X78197D01*
X71110Y-32362D02*
X78197D01*
Y-49646D02*
Y-32362D01*
X192894Y-63425D02*
Y354D01*
X133878D02*
X192894D01*
X133878Y-63425D02*
Y354D01*
Y-63425D02*
X192894D01*
X106496Y-133071D02*
X120275D01*
X106496Y-140945D02*
X120275D01*
X106496D02*
Y-133071D01*
X120275Y-140945D02*
Y-133071D01*
X106496Y-124213D02*
X120275D01*
X106496Y-132087D02*
X120275D01*
X106496D02*
Y-124213D01*
X120275Y-132087D02*
Y-124213D01*
X93898Y-131999D02*
Y-109951D01*
X105315Y-131999D02*
Y-109951D01*
X93898Y-131999D02*
X105315D01*
X93898Y-109951D02*
X105315D01*
X147244Y-28740D02*
X180315D01*
X147244Y-4724D02*
X180315D01*
Y-28740D02*
Y-4724D01*
X147244Y-28740D02*
Y-4724D01*
X145079Y-21654D02*
Y-7874D01*
X137205Y-21654D02*
Y-7874D01*
X145079D01*
X137205Y-21654D02*
X145079D01*
X136220D02*
Y-7874D01*
X128346Y-21654D02*
Y-7874D01*
X136220D01*
X128346Y-21654D02*
X136220D01*
X118110Y-23425D02*
Y-6102D01*
X127953Y-23425D02*
Y-6102D01*
X118110Y-23425D02*
X127953D01*
X118110Y-6102D02*
X127953D01*
X107480Y-23425D02*
Y-6102D01*
X117323Y-23425D02*
Y-6102D01*
X107480Y-23425D02*
X117323D01*
X107480Y-6102D02*
X117323D01*
X133071Y-37500D02*
Y-28642D01*
X129134D02*
X133071D01*
X129134Y-37500D02*
Y-28642D01*
Y-37500D02*
X133071D01*
X197992Y-35630D02*
Y-26772D01*
X194055D02*
X197992D01*
X194055Y-35630D02*
Y-26772D01*
Y-35630D02*
X197992D01*
X126181Y-63386D02*
Y-46063D01*
X136024Y-63386D02*
Y-46063D01*
X126181Y-63386D02*
X136024D01*
X126181Y-46063D02*
X136024D01*
X191102Y-63386D02*
Y-46063D01*
X200945Y-63386D02*
Y-46063D01*
X191102Y-63386D02*
X200945D01*
X191102Y-46063D02*
X200945D01*
X200591Y-56890D02*
X222638D01*
X200591Y-45472D02*
X222638D01*
Y-56890D02*
Y-45472D01*
X200591Y-56890D02*
Y-45472D01*
X223819D02*
X245866D01*
X223819Y-56890D02*
X245866D01*
X223819D02*
Y-45472D01*
X245866Y-56890D02*
Y-45472D01*
X242520Y-42717D02*
Y-36024D01*
X231890Y-42717D02*
Y-36024D01*
Y-42717D02*
X242520D01*
X231890Y-36024D02*
X242520D01*
X234646Y-34144D02*
Y-16821D01*
X244488Y-34144D02*
Y-16821D01*
X234646Y-34144D02*
X244488D01*
X234646Y-16821D02*
X244488D01*
X241142Y-15256D02*
Y-6398D01*
X237205D02*
X241142D01*
X237205Y-15256D02*
Y-6398D01*
Y-15256D02*
X241142D01*
X200787Y-42520D02*
X231102D01*
X200787Y-4724D02*
X231102D01*
X200787Y-42520D02*
Y-4724D01*
X231102Y-42520D02*
Y-4724D01*
X190945Y-23622D02*
Y-9843D01*
X198819Y-23622D02*
Y-9843D01*
X190945Y-23622D02*
X198819D01*
X190945Y-9843D02*
X198819D01*
X182087Y-23622D02*
Y-9843D01*
X189961Y-23622D02*
Y-9843D01*
X182087Y-23622D02*
X189961D01*
X182087Y-9843D02*
X189961D01*
X169685Y-47047D02*
Y-29724D01*
X159843Y-47047D02*
Y-29724D01*
X169685D01*
X159843Y-47047D02*
X169685D01*
X158858D02*
Y-29724D01*
X149016Y-47047D02*
Y-29724D01*
X158858D01*
X149016Y-47047D02*
X158858D01*
X174016Y-64374D02*
Y-57681D01*
X184646Y-64374D02*
Y-57681D01*
X174016D02*
X184646D01*
X174016Y-64374D02*
X184646D01*
X174823Y-86220D02*
X192106D01*
Y-79134D01*
X174823Y-86220D02*
Y-79134D01*
X192106D01*
X174803Y-76772D02*
X192126D01*
X174803Y-66929D02*
X192126D01*
Y-76772D02*
Y-66929D01*
X174803Y-76772D02*
Y-66929D01*
X208858Y-107480D02*
Y-90158D01*
X218701Y-107480D02*
Y-90158D01*
X208858Y-107480D02*
X218701D01*
X208858Y-90158D02*
X218701D01*
X207480Y-107593D02*
Y-98735D01*
X203543D02*
X207480D01*
X203543Y-107593D02*
Y-98735D01*
Y-107593D02*
X207480D01*
X234252Y-107394D02*
Y-98535D01*
X230315D02*
X234252D01*
X230315Y-107394D02*
Y-98535D01*
Y-107394D02*
X234252D01*
X235630Y-107480D02*
Y-90158D01*
X245473Y-107480D02*
Y-90158D01*
X235630Y-107480D02*
X245473D01*
X235630Y-90158D02*
X245473D01*
X244882Y-86811D02*
Y-64764D01*
X233465Y-86811D02*
Y-64764D01*
X244882D01*
X233465Y-86811D02*
X244882D01*
X232480D02*
Y-64764D01*
X221063Y-86811D02*
Y-64764D01*
X232480D01*
X221063Y-86811D02*
X232480D01*
X219685D02*
Y-64764D01*
X208268Y-86811D02*
Y-64764D01*
X219685D01*
X208268Y-86811D02*
X219685D01*
X206890D02*
Y-64764D01*
X195472Y-86811D02*
Y-64764D01*
X206890D01*
X195472Y-86811D02*
X206890D01*
X234646Y-173720D02*
X248425D01*
X234646Y-181595D02*
X248425D01*
X234646D02*
Y-173720D01*
X248425Y-181595D02*
Y-173720D01*
X234646Y-165846D02*
X248425D01*
X234646Y-173720D02*
X248425D01*
X234646D02*
Y-165846D01*
X248425Y-173720D02*
Y-165846D01*
X234646Y-182579D02*
X248425D01*
X234646Y-190453D02*
X248425D01*
X234646D02*
Y-182579D01*
X248425Y-190453D02*
Y-182579D01*
X232480Y-165354D02*
X249803D01*
X232480Y-155512D02*
X249803D01*
Y-165354D02*
Y-155512D01*
X232480Y-165354D02*
Y-155512D01*
X132087Y-123031D02*
Y-109252D01*
X124213Y-123031D02*
Y-109252D01*
X132087D01*
X124213Y-123031D02*
X132087D01*
X140945D02*
Y-109252D01*
X133071Y-123031D02*
Y-109252D01*
X140945D01*
X133071Y-123031D02*
X140945D01*
X123228D02*
Y-109252D01*
X115354Y-123031D02*
Y-109252D01*
X123228D01*
X115354Y-123031D02*
X123228D01*
X229331Y-107480D02*
Y-90158D01*
X219488Y-107480D02*
Y-90158D01*
X229331D01*
X219488Y-107480D02*
X229331D01*
X114173Y-123031D02*
Y-109252D01*
X106299Y-123031D02*
Y-109252D01*
X114173D01*
X106299Y-123031D02*
X114173D01*
X93898Y-55118D02*
Y-33071D01*
X105315Y-55118D02*
Y-33071D01*
X93898Y-55118D02*
X105315D01*
X93898Y-33071D02*
X105315D01*
X106102Y-47638D02*
X119882D01*
X106102Y-55512D02*
X119882D01*
X106102D02*
Y-47638D01*
X119882Y-55512D02*
Y-47638D01*
X106043Y-56299D02*
X119823D01*
X106043Y-64173D02*
X119823D01*
X106043D02*
Y-56299D01*
X119823Y-64173D02*
Y-56299D01*
X108465Y-79134D02*
X142717D01*
X108465Y-109055D02*
X142717D01*
X108465D02*
Y-79134D01*
X142717Y-109055D02*
Y-79134D01*
X232480Y-154976D02*
Y-132928D01*
X243898Y-154976D02*
Y-132928D01*
X232480Y-154976D02*
X243898D01*
X232480Y-132928D02*
X243898D01*
D82*
X134793Y-193307D02*
X138730D01*
X136762Y-195276D02*
Y-191339D01*
X125935Y-193307D02*
X129872D01*
X127904Y-195276D02*
Y-191339D01*
X116811Y-193307D02*
X120748D01*
X118780Y-195276D02*
Y-191339D01*
X108219Y-193307D02*
X112156D01*
X110187Y-195276D02*
Y-191339D01*
X125984Y-172638D02*
Y-168701D01*
X124016Y-170669D02*
X127953D01*
X188543Y-104134D02*
Y-102165D01*
X187559Y-103150D02*
X189528D01*
X73622Y-118504D02*
X77559D01*
X75590Y-120473D02*
Y-116535D01*
X71653Y-129528D02*
X75590D01*
X73622Y-131496D02*
Y-127559D01*
X179921Y-100787D02*
Y-96850D01*
X177953Y-98819D02*
X181890D01*
X83858Y-42913D02*
Y-38976D01*
X81890Y-40945D02*
X85827D01*
X72685Y-41004D02*
X76622D01*
X74654Y-42972D02*
Y-39035D01*
X161417Y-31536D02*
X165355D01*
X163386Y-33504D02*
Y-29567D01*
X113386Y-138977D02*
Y-135039D01*
X111417Y-137008D02*
X115354D01*
X113386Y-130118D02*
Y-126181D01*
X111417Y-128150D02*
X115354D01*
X97638Y-120975D02*
X101575D01*
X99606Y-122943D02*
Y-119007D01*
X163780Y-18701D02*
Y-14764D01*
X161811Y-16732D02*
X165748D01*
X139173Y-14764D02*
X143110D01*
X141142Y-16732D02*
Y-12795D01*
X130315Y-14764D02*
X134252D01*
X132283Y-16732D02*
Y-12795D01*
X121063Y-14764D02*
X125000D01*
X123032Y-16732D02*
Y-12795D01*
X110433Y-14764D02*
X114370D01*
X112402Y-16732D02*
Y-12795D01*
X131102Y-34055D02*
Y-32087D01*
X130118Y-33071D02*
X132087D01*
X196024Y-32185D02*
Y-30217D01*
X195039Y-31201D02*
X197008D01*
X129134Y-54725D02*
X133071D01*
X131102Y-56693D02*
Y-52756D01*
X194055Y-54725D02*
X197992D01*
X196024Y-56693D02*
Y-52756D01*
X211614Y-53150D02*
Y-49213D01*
X209646Y-51181D02*
X213583D01*
X234843Y-53150D02*
Y-49213D01*
X232874Y-51181D02*
X236811D01*
X235236Y-39370D02*
X239173D01*
X237205Y-41339D02*
Y-37402D01*
X237598Y-25482D02*
X241535D01*
X239567Y-27451D02*
Y-23514D01*
X239173Y-11811D02*
Y-9843D01*
X238189Y-10827D02*
X240157D01*
X215945Y-25591D02*
Y-21654D01*
X213976Y-23622D02*
X217913D01*
X192913Y-16732D02*
X196850D01*
X194882Y-18701D02*
Y-14764D01*
X184055Y-16732D02*
X187992D01*
X186024Y-18701D02*
Y-14764D01*
X162795Y-38386D02*
X166732D01*
X164764Y-40354D02*
Y-36417D01*
X151969Y-38386D02*
X155906D01*
X153937Y-40354D02*
Y-36417D01*
X177362Y-61028D02*
X181299D01*
X179331Y-62996D02*
Y-59059D01*
X181496Y-82677D02*
X185433D01*
X183465Y-84646D02*
Y-80709D01*
Y-73819D02*
Y-69882D01*
X181496Y-71850D02*
X185433D01*
X211811Y-98819D02*
X215748D01*
X213779Y-100787D02*
Y-96850D01*
X205512Y-104148D02*
Y-102180D01*
X204528Y-103164D02*
X206496D01*
X232283Y-103949D02*
Y-101980D01*
X231299Y-102964D02*
X233268D01*
X238583Y-98819D02*
X242520D01*
X240551Y-100787D02*
Y-96850D01*
X237205Y-75787D02*
X241142D01*
X239173Y-77756D02*
Y-73819D01*
X224803Y-75787D02*
X228740D01*
X226772Y-77756D02*
Y-73819D01*
X212008Y-75787D02*
X215945D01*
X213976Y-77756D02*
Y-73819D01*
X199213Y-75787D02*
X203150D01*
X201181Y-77756D02*
Y-73819D01*
X241535Y-179626D02*
Y-175689D01*
X239567Y-177657D02*
X243504D01*
X241535Y-171752D02*
Y-167815D01*
X239567Y-169783D02*
X243504D01*
X241535Y-188484D02*
Y-184547D01*
X239567Y-186516D02*
X243504D01*
X241142Y-162402D02*
Y-158465D01*
X239173Y-160433D02*
X243110D01*
X126181Y-116142D02*
X130118D01*
X128150Y-118110D02*
Y-114173D01*
X135039Y-116142D02*
X138976D01*
X137008Y-118110D02*
Y-114173D01*
X117323Y-116142D02*
X121260D01*
X119291Y-118110D02*
Y-114173D01*
X222441Y-98819D02*
X226378D01*
X224409Y-100787D02*
Y-96850D01*
X108268Y-116142D02*
X112205D01*
X110236Y-118110D02*
Y-114173D01*
X97638Y-44094D02*
X101575D01*
X99606Y-46063D02*
Y-42126D01*
X112992Y-53543D02*
Y-49606D01*
X111024Y-51575D02*
X114961D01*
X112933Y-62205D02*
Y-58268D01*
X110965Y-60236D02*
X114902D01*
X125591Y-96063D02*
Y-92126D01*
X123622Y-94095D02*
X127559D01*
X236221Y-143952D02*
X240158D01*
X238189Y-145921D02*
Y-141983D01*
M02*
