G04*
G04 #@! TF.GenerationSoftware,Altium Limited,Altium Designer,18.1.7 (191)*
G04*
G04 Layer_Color=16711935*
%FSLAX25Y25*%
%MOIN*%
G70*
G01*
G75*
%ADD82C,0.00394*%
D82*
X133268Y-180118D02*
G03*
X133268Y-180118I-1969J0D01*
G01*
X161437Y-10433D02*
G03*
X161437Y-10433I-1969J0D01*
G01*
X132874Y-103543D02*
G03*
X132874Y-103543I-1969J0D01*
G01*
X139616Y-197638D02*
Y-188976D01*
X133907Y-197638D02*
Y-188976D01*
X139616D01*
X133907Y-197638D02*
X139616D01*
X130758D02*
Y-188976D01*
X125049Y-197638D02*
Y-188976D01*
X130758D01*
X125049Y-197638D02*
X130758D01*
X121634D02*
Y-188976D01*
X115925Y-197638D02*
Y-188976D01*
X121634D01*
X115925Y-197638D02*
X121634D01*
X113041D02*
Y-188976D01*
X107333Y-197638D02*
Y-188976D01*
X113041D01*
X107333Y-197638D02*
X113041D01*
X117126Y-157677D02*
X134843D01*
X117126Y-183661D02*
X134843D01*
X117126D02*
Y-157677D01*
X134843Y-183661D02*
Y-157677D01*
X186969Y-106299D02*
X190118D01*
X186969Y-100000D02*
X190118D01*
X190118Y-106299D02*
Y-100000D01*
X186969Y-106299D02*
Y-100000D01*
X78347Y-122736D02*
Y-114272D01*
X72835Y-122736D02*
Y-114272D01*
Y-122736D02*
X78347D01*
X72835Y-114272D02*
X78347D01*
X77953Y-132382D02*
Y-126673D01*
X69291Y-132382D02*
Y-126673D01*
Y-132382D02*
X77953D01*
X69291Y-126673D02*
X77953D01*
X177264Y-103150D02*
X182579D01*
X177264Y-94488D02*
X182579D01*
X177264Y-103150D02*
Y-94488D01*
X182579Y-103150D02*
Y-94488D01*
X81201Y-36614D02*
X86516D01*
X81201Y-45276D02*
X86516D01*
Y-36614D01*
X81201Y-45276D02*
Y-36614D01*
X71504Y-46299D02*
Y-35709D01*
Y-46299D02*
X77803D01*
X71504Y-35709D02*
X77803D01*
Y-46299D02*
Y-35709D01*
X139370Y-63032D02*
Y-40D01*
Y-63032D02*
X187402D01*
Y-40D01*
X139370D02*
X187402D01*
X109055Y-134153D02*
X117717D01*
X109055Y-139862D02*
X117717D01*
X109055D02*
Y-134153D01*
X117717Y-139862D02*
Y-134153D01*
X109055Y-125295D02*
X117717D01*
X109055Y-131004D02*
X117717D01*
X109055D02*
Y-125295D01*
X117717Y-131004D02*
Y-125295D01*
X96063Y-127668D02*
Y-114282D01*
X103149Y-127668D02*
Y-114282D01*
X96063Y-127668D02*
X103149D01*
X96063Y-114282D02*
X103149D01*
X155925Y-26575D02*
X171634D01*
X155925Y-6890D02*
X171634D01*
Y-26575D02*
Y-6890D01*
X155925Y-26575D02*
Y-6890D01*
X143996Y-19094D02*
Y-10433D01*
X138287Y-19094D02*
Y-10433D01*
X143996D01*
X138287Y-19094D02*
X143996D01*
X135138D02*
Y-10433D01*
X129429Y-19094D02*
Y-10433D01*
X135138D01*
X129429Y-19094D02*
X135138D01*
X120374D02*
Y-10433D01*
X125689Y-19094D02*
Y-10433D01*
X120374Y-19094D02*
X125689D01*
X120374Y-10433D02*
X125689D01*
X109744Y-19094D02*
Y-10433D01*
X115059Y-19094D02*
Y-10433D01*
X109744Y-19094D02*
X115059D01*
X109744Y-10433D02*
X115059D01*
X129528Y-36221D02*
X132678D01*
X129528Y-29921D02*
X132677D01*
X132678Y-36221D02*
Y-29921D01*
X129528Y-36220D02*
Y-29921D01*
X194449Y-34351D02*
X197599D01*
X194449Y-28051D02*
X197598D01*
X197599Y-34351D02*
Y-28051D01*
X194449Y-34350D02*
Y-28051D01*
X128445Y-59055D02*
Y-50394D01*
X133760Y-59055D02*
Y-50394D01*
X128445Y-59055D02*
X133760D01*
X128445Y-50394D02*
X133760D01*
X193366Y-59055D02*
Y-50394D01*
X198681Y-59055D02*
Y-50394D01*
X193366Y-59055D02*
X198681D01*
X193366Y-50394D02*
X198681D01*
X204921Y-54724D02*
X218307D01*
X204921Y-47638D02*
X218307D01*
Y-54724D02*
Y-47638D01*
X204921Y-54724D02*
Y-47638D01*
X228150D02*
X241535D01*
X228150Y-54724D02*
X241535D01*
X228150D02*
Y-47638D01*
X241535Y-54724D02*
Y-47638D01*
Y-42224D02*
Y-36516D01*
X232874Y-42224D02*
Y-36516D01*
Y-42224D02*
X241535D01*
X232874Y-36516D02*
X241535D01*
X236909Y-29813D02*
Y-21152D01*
X242224Y-29813D02*
Y-21152D01*
X236909Y-29813D02*
X242224D01*
X236909Y-21152D02*
X242224D01*
X237599Y-13977D02*
X240748D01*
X237598Y-7677D02*
X240748D01*
X240748Y-13977D02*
Y-7677D01*
X237598Y-13976D02*
Y-7677D01*
X202736Y-30925D02*
X229154D01*
X202736Y-16319D02*
X229154D01*
X202736Y-30925D02*
Y-16319D01*
X229154Y-30925D02*
Y-16319D01*
X192028Y-21063D02*
Y-12402D01*
X197736Y-21063D02*
Y-12402D01*
X192028Y-21063D02*
X197736D01*
X192028Y-12402D02*
X197736D01*
X183169Y-21063D02*
Y-12402D01*
X188878Y-21063D02*
Y-12402D01*
X183169Y-21063D02*
X188878D01*
X183169Y-12402D02*
X188878D01*
X167421Y-42717D02*
Y-34055D01*
X162106Y-42717D02*
Y-34055D01*
X167421D01*
X162106Y-42717D02*
X167421D01*
X156594D02*
Y-34055D01*
X151280Y-42717D02*
Y-34055D01*
X156594D01*
X151280Y-42717D02*
X156594D01*
X175000Y-63882D02*
Y-58173D01*
X183661Y-63882D02*
Y-58173D01*
X175000D02*
X183661D01*
X175000Y-63882D02*
X183661D01*
X178169Y-85827D02*
X188760D01*
Y-79528D01*
X178169Y-85827D02*
Y-79528D01*
X188760D01*
X179134Y-74508D02*
X187795D01*
X179134Y-69193D02*
X187795D01*
Y-74508D02*
Y-69193D01*
X179134Y-74508D02*
Y-69193D01*
X211122Y-103150D02*
Y-94488D01*
X216437Y-103150D02*
Y-94488D01*
X211122Y-103150D02*
X216437D01*
X211122Y-94488D02*
X216437D01*
X203937Y-106314D02*
X207087D01*
X203937Y-100014D02*
X207087D01*
X207087Y-106314D02*
Y-100014D01*
X203937Y-106314D02*
Y-100014D01*
X230709Y-106114D02*
X233858D01*
X230709Y-99815D02*
X233858D01*
X233858Y-106114D02*
Y-99815D01*
X230709Y-106114D02*
Y-99815D01*
X237894Y-103150D02*
Y-94488D01*
X243209Y-103150D02*
Y-94488D01*
X237894Y-103150D02*
X243209D01*
X237894Y-94488D02*
X243209D01*
X242717Y-82480D02*
Y-69094D01*
X235630Y-82480D02*
Y-69094D01*
X242717D01*
X235630Y-82480D02*
X242717D01*
X230315D02*
Y-69094D01*
X223228Y-82480D02*
Y-69094D01*
X230315D01*
X223228Y-82480D02*
X230315D01*
X217520D02*
Y-69094D01*
X210433Y-82480D02*
Y-69094D01*
X217520D01*
X210433Y-82480D02*
X217520D01*
X204724D02*
Y-69094D01*
X197638Y-82480D02*
Y-69094D01*
X204724D01*
X197638Y-82480D02*
X204724D01*
X237205Y-174803D02*
X245866D01*
X237205Y-180512D02*
X245866D01*
X237205D02*
Y-174803D01*
X245866Y-180512D02*
Y-174803D01*
X237205Y-166929D02*
X245866D01*
X237205Y-172638D02*
X245866D01*
X237205D02*
Y-166929D01*
X245866Y-172638D02*
Y-166929D01*
X237205Y-183661D02*
X245866D01*
X237205Y-189370D02*
X245866D01*
X237205D02*
Y-183661D01*
X245866Y-189370D02*
Y-183661D01*
X236811Y-163091D02*
X245472D01*
X236811Y-157776D02*
X245472D01*
Y-163091D02*
Y-157776D01*
X236811Y-163091D02*
Y-157776D01*
X131004Y-120472D02*
Y-111811D01*
X125295Y-120472D02*
Y-111811D01*
X131004D01*
X125295Y-120472D02*
X131004D01*
X139862D02*
Y-111811D01*
X134153Y-120472D02*
Y-111811D01*
X139862D01*
X134153Y-120472D02*
X139862D01*
X122146D02*
Y-111811D01*
X116437Y-120472D02*
Y-111811D01*
X122146D01*
X116437Y-120472D02*
X122146D01*
X227067Y-103150D02*
Y-94488D01*
X221752Y-103150D02*
Y-94488D01*
X227067D01*
X221752Y-103150D02*
X227067D01*
X113091Y-120472D02*
Y-111811D01*
X107382Y-120472D02*
Y-111811D01*
X113091D01*
X107382Y-120472D02*
X113091D01*
X96063Y-50787D02*
Y-37402D01*
X103149Y-50787D02*
Y-37402D01*
X96063Y-50787D02*
X103149D01*
X96063Y-37402D02*
X103149D01*
X108661Y-48720D02*
X117323D01*
X108661Y-54429D02*
X117323D01*
X108661D02*
Y-48720D01*
X117323Y-54429D02*
Y-48720D01*
X108602Y-57382D02*
X117264D01*
X108602Y-63091D02*
X117264D01*
X108602D02*
Y-57382D01*
X117264Y-63091D02*
Y-57382D01*
X116732Y-81102D02*
X134449D01*
X116732Y-107087D02*
X134449D01*
X116732D02*
Y-81102D01*
X134449Y-107087D02*
Y-81102D01*
X234646Y-150645D02*
Y-137259D01*
X241732Y-150645D02*
Y-137259D01*
X234646Y-150645D02*
X241732D01*
X234646Y-137259D02*
X241732D01*
M02*
